<?xml version="1.0" encoding="utf-8"?>
<svg version="1.1" id="Layer_1" xmlns="http://www.w3.org/2000/svg" xmlns:xlink="http://www.w3.org/1999/xlink" x="0px" y="0px"
	 viewBox="0 0 55 30" enable-background="new 0 0 55 30" xml:space="preserve">
<path class="bvn-mark" d="M0,0l0,30h55V0H0z M50.2,19L41.6,4.8h8.6V19z M48.3,25.2h-8.6V11L48.3,25.2z M30.4,4.8l-4.5,17.6L21.3,4.8
	H30.4z M8.7,4.8c2.1,0,3.9,1.8,3.9,3.9c0,2.1-1.7,3.9-3.9,3.9H4.8l0-7.8H8.7z M4.8,25.2l0-7.8h3.9c2.1,0,3.9,1.8,3.9,3.9
	c0,2.1-1.7,3.9-3.9,3.9H4.8z M16.5,25.2c0.6-1.2,0.9-2.5,0.9-3.9c0-2.5-1-4.7-2.7-6.3c1.7-1.6,2.7-3.8,2.7-6.3c0,0,0,0,0,0l4.3,16.5
	H16.5z M34.9,6.5v18.7h-4.8L34.9,6.5z"/>
</svg>
