<?xml version="1.0" standalone="no"?>
<!DOCTYPE svg PUBLIC "-//W3C//DTD SVG 1.1//EN" "http://www.w3.org/Graphics/SVG/1.1/DTD/svg11.dtd" >
<svg xmlns="http://www.w3.org/2000/svg">
<metadata></metadata>
<defs>
<font id="blender_promedium" horiz-adv-x="1053" >
<font-face units-per-em="2048" ascent="1638" descent="-410" />
<missing-glyph horiz-adv-x="475" />
<glyph horiz-adv-x="1024" />
<glyph horiz-adv-x="1024" />
<glyph unicode=" "  horiz-adv-x="475" />
<glyph unicode="&#x09;" horiz-adv-x="475" />
<glyph unicode="&#xa0;" horiz-adv-x="475" />
<glyph unicode="!" horiz-adv-x="496" d="M74 0v201h209v-201h-209zM100 338v891h160v-891h-160z" />
<glyph unicode="&#x22;" horiz-adv-x="819" d="M121 946l16 148v223h156v-250l-14 -121h-158zM440 946l17 148v223h155v-250l-14 -121h-158z" />
<glyph unicode="#" horiz-adv-x="1094" d="M18 369l27 147h182l33 174h-182l26 150h183l37 198h155l-37 -198h148l37 198h155l-37 -198h183l-27 -150h-182l-33 -174h182l-26 -147h-183l-38 -207h-156l39 207h-148l-39 -207h-155l39 207h-183zM383 516h147l33 174h-147z" />
<glyph unicode="$" horiz-adv-x="1167" d="M43 262l162 43l18 -37q10 -18 25 -35.5t31.5 -33t32.5 -27.5t28 -18q6 -3 10.5 -3.5t7.5 -0.5h105v403l-246 63q-35 9 -62 30.5t-45.5 50t-28 61.5t-9.5 67v125q0 26 5.5 55t22.5 54q9 14 28 35t41 42.5t44 40t37 27.5q25 14 56.5 24.5t60.5 10.5h96v162h117v-162h88 q40 0 76 -15.5t68 -39.5t59 -53.5t49 -57.5q12 -15 25 -39.5t32 -64.5l-164 -47l-20 41q-9 17 -24 34.5t-31.5 33.5t-33 28t-28.5 18q-2 0 -4 1q-2 0 -4.5 0.5t-5.5 0.5h-82v-389l260 -69q34 -9 62 -29.5t47 -48.5t29.5 -60.5t10.5 -66.5v-140q0 -26 -5.5 -54.5t-22.5 -53.5 q-9 -14 -28 -34.5t-41 -41.5t-44 -39.5t-37 -27.5q-25 -14 -56.5 -24.5t-60.5 -10.5h-114v-183h-117v183h-111q-41 0 -77.5 15t-68.5 39t-59 53.5t-49 58.5q-12 17 -24 41.5t-31 64.5zM240 834q0 -23 13 -42t32 -24l178 -47v358h-86q-6 0 -10 -1t-9 -3q-11 -5 -31 -21 t-39.5 -35t-33.5 -38t-14 -31v-116zM580 150h106q8 0 16 4q12 6 32.5 21.5t39.5 34t33 37.5t14 32v124q0 25 -14 45t-33 25l-194 49v-372z" />
<glyph unicode="%" horiz-adv-x="1481" d="M23 811v231q0 25 5 49t19 44q5 7 15 17.5t21 22t23 22t21 17.5q22 16 53 24.5t60 8.5h122q29 0 60 -8.5t53 -24.5q9 -7 20.5 -17.5t22.5 -22t20.5 -22t14.5 -17.5q14 -20 19.5 -44t5.5 -49v-231q0 -25 -5 -49t-20 -45q-5 -6 -14 -16.5t-20 -22t-23 -22t-21 -17.5 q-22 -16 -53 -24.5t-60 -8.5h-122q-29 0 -60 8.5t-53 24.5q-9 7 -21 17.5t-23.5 22t-21.5 22t-14 16.5q-15 20 -19.5 44.5t-4.5 49.5zM164 825q0 -8 1 -11.5t3 -6.5q8 -16 26 -35t35 -27q3 -2 8.5 -4t10.5 -2h108q10 0 19 6q6 4 14.5 11t17 15t15.5 16t10 14t3.5 12.5 t0.5 11.5v203v10.5t-2 12.5q-8 15 -27 32t-34 25q-8 4 -17 4h-108q-7 0 -17 -4q-17 -9 -36 -27.5t-27 -33.5q-2 -4 -3 -7.5t-1 -11.5v-203zM262 0l662 1229h159l-649 -1229h-172zM778 195v231q0 25 5.5 48.5t19.5 43.5q5 7 15 18t21 22.5t23 22t21 17.5q21 15 52 24t60 9 h123q29 0 60 -9t53 -24q9 -7 20 -17.5t22 -22t20.5 -22.5t15.5 -18q14 -20 19 -43.5t5 -48.5v-231q0 -25 -4.5 -49t-19.5 -46q-5 -6 -14.5 -16.5t-20.5 -21.5t-22.5 -21.5t-20.5 -17.5q-22 -16 -53 -24.5t-60 -8.5h-123q-29 0 -60 8.5t-52 24.5q-9 7 -21 17.5t-23.5 21.5 t-21.5 21.5t-14 16.5q-16 20 -20.5 45t-4.5 50zM920 209q0 -8 1 -11.5t3 -7.5q8 -15 26 -34t35 -27q3 -2 8.5 -4t10.5 -2h108q9 0 18 6q6 4 15 10.5t17.5 14.5t15.5 16t10 14q3 7 3.5 13.5t0.5 11.5v203v10t-2 12q-8 16 -27 33t-35 25q-8 4 -16 4h-108q-9 0 -17 -4 q-17 -10 -36 -28t-27 -34q-2 -3 -3 -6.5t-1 -11.5v-203z" />
<glyph unicode="&#x26;" horiz-adv-x="1186" d="M80 258v178q0 32 7.5 57t21 46.5t32 41t39.5 40.5q-22 21 -40.5 40t-31.5 40.5t-20.5 47t-7.5 58.5v162q0 31 9 61.5t26 56.5q6 9 19.5 24.5t30 31t32 29.5t26.5 22q28 20 63 32.5t72 12.5h213q42 0 78.5 -15.5t67.5 -39.5t57.5 -54t48.5 -59q11 -15 26 -39.5t34 -66.5 l-164 -43q-4 8 -7.5 15.5t-6.5 13.5q-4 6 -7 12q-8 17 -22.5 34.5t-30.5 32.5t-32 27t-27 18q-11 4 -21 4h-205q-14 0 -30.5 -10.5t-32 -25t-28 -30t-17.5 -26.5q-4 -8 -4 -22v-154q0 -13 4 -23q5 -10 18 -25t28.5 -29.5t32 -25t29.5 -10.5h224v-157h-224q-13 0 -29.5 -10 t-32 -23.5t-28.5 -29t-18 -25.5q-4 -8 -4 -21v-170q0 -8 1 -12.5t3 -7.5q5 -11 18 -26.5t28.5 -29.5t32 -24t29.5 -10h308q15 0 32 10t32.5 24t28 29.5t17.5 26.5q4 8 4 22v307h230v-163h-62v-150q0 -65 -35 -115q-6 -9 -19.5 -24t-29.5 -31.5t-32 -31t-27 -21.5 q-28 -20 -66 -31.5t-73 -11.5h-310q-35 0 -71 11.5t-64 31.5q-11 7 -26.5 21.5t-32 31t-30 31.5t-19.5 24q-35 50 -35 115z" />
<glyph unicode="'" horiz-adv-x="485" d="M119 946l16 148v221h156v-248l-15 -121h-157z" />
<glyph unicode="(" horiz-adv-x="715" d="M53 287v653q0 28 7 56t24 53q10 14 26 33t35.5 40t41.5 43t44 43q45 44 82.5 77.5t51.5 47.5l110 -116q-3 -3 -15.5 -14.5t-31.5 -28.5t-41.5 -38t-46.5 -44q-25 -23 -48 -47t-40.5 -45t-28 -38t-10.5 -26v-645q0 -9 11 -25.5t28.5 -36.5t40.5 -43.5t47 -46.5t47 -44.5 t41.5 -39t31.5 -29t17 -14.5l-112 -116q-3 3 -15 14t-29 27t-38.5 36.5t-44.5 42.5t-46.5 45.5t-44.5 45t-37.5 40t-25.5 31.5q-17 25 -24 53t-7 56z" />
<glyph unicode=")" horiz-adv-x="721" d="M92 12q4 3 17 14.5t31.5 29t41.5 39t47 44.5t47 46.5t40.5 43.5t28.5 36.5t11 25.5v645q0 9 -10.5 25.5t-28 37.5t-40 44.5t-46.5 46.5t-47 44.5t-42 38.5t-32 29t-16 15l109 116q17 -15 54.5 -49t80.5 -76q21 -21 43 -42.5t41.5 -42.5t35.5 -40t27 -34q17 -25 24 -53 t7 -56v-653q0 -28 -7 -56t-24 -53q-9 -14 -25 -33t-36.5 -40.5t-43.5 -44t-46 -44.5q-23 -21 -45 -41t-39.5 -36t-30 -27.5t-16.5 -15.5z" />
<glyph unicode="*" horiz-adv-x="948" d="M39 1001l47 146l238 -84l-5 256h154l-8 -254l242 84l49 -145l-244 -74l154 -201l-123 -92l-146 209l-143 -209l-125 90l154 201z" />
<glyph unicode="+" d="M86 436v150h305v284h160v-284h305v-150h-305v-286h-160v286h-305z" />
<glyph unicode="," horiz-adv-x="549" d="M57 -178l121 352l162 -39l-109 -313h-174z" />
<glyph unicode="-" horiz-adv-x="684" d="M53 434v150h467v-150h-467z" />
<glyph unicode="." horiz-adv-x="555" d="M106 0v211h209v-211h-209z" />
<glyph unicode="/" horiz-adv-x="885" d="M-55 0l669 1229h179l-668 -1229h-180z" />
<glyph unicode="0" d="M49 258v713q0 64 35 116q6 9 19.5 24.5t30 32t32.5 30.5t27 22q27 20 63.5 31.5t71.5 11.5h276q35 0 72.5 -11.5t64.5 -31.5q11 -8 27 -22t32.5 -30.5t30 -32t19.5 -24.5q17 -26 26 -55.5t9 -60.5v-713q0 -32 -9 -61t-26 -54q-6 -9 -19.5 -24t-30 -31.5t-32.5 -31 t-27 -21.5q-27 -20 -64.5 -31.5t-72.5 -11.5h-276q-35 0 -71.5 11.5t-63.5 31.5q-11 7 -27 21.5t-32.5 31t-30 31.5t-19.5 24q-35 50 -35 115zM217 252q0 -7 2 -10q5 -11 17.5 -26.5t28.5 -29.5t33 -24t32 -10h272q15 0 32 10t32.5 24t28 29.5t18.5 26.5q2 3 3 7.5t1 12.5 v705q0 14 -4 22q-6 11 -18.5 26.5t-28 29.5t-32.5 24t-32 10h-272q-15 0 -32 -10t-33 -24t-28.5 -29.5t-17.5 -26.5q-2 -3 -2 -11v-11v-705v-10z" />
<glyph unicode="1" d="M141 0v150h279v919h-240v160h408v-1079h262v-150h-709z" />
<glyph unicode="2" d="M45 969q17 40 30 63.5t25 40.5q22 28 49 57.5t59 53.5t68.5 39.5t77.5 15.5h232q35 0 72 -11.5t65 -31.5q11 -8 27 -22t32 -30.5t29.5 -32t19.5 -24.5q35 -52 35 -116v-140q0 -35 -11.5 -66t-31.5 -57.5t-46 -47t-54 -35.5l-428 -222q-23 -12 -37 -30t-14 -39v-174h606 v-160h-774v342q0 71 41 122t104 83l432 221q20 11 32.5 29t12.5 41v129q0 14 -4 22q-5 11 -17.5 26.5t-28 29.5t-32.5 24t-32 10h-224q-8 0 -13 -1.5t-11 -4.5q-12 -6 -27 -17.5t-30.5 -26.5t-29 -32t-22.5 -34q-1 -4 -4 -9l-16 -32z" />
<glyph unicode="3" d="M39 258l164 43q4 -8 7 -13.5t5.5 -10t5.5 -10t8 -13.5q9 -15 23 -31.5t29 -31.5t30 -26.5t27 -17.5q2 -1 5 -1q3 -1 11 -1h226q14 0 30 10t31 23.5t27 28t18 24.5t6 25v174q0 8 -1 12t-3 9q-5 12 -17.5 27.5t-27.5 29.5t-31.5 23.5t-29.5 9.5h-220v157h218q9 0 14 1t8 3 q11 6 23 15.5t23 20.5t21 22.5t17 21.5q3 5 4.5 12t1.5 15v158q0 14 -4 22q-5 11 -14.5 23.5t-21 24.5t-23.5 22t-23 16q-5 3 -12.5 3.5t-13.5 0.5h-226q-3 0 -6 -0.5t-5 -0.5q-3 -1 -5 -1q-12 -6 -28 -18t-32.5 -27t-31 -32.5t-23.5 -34.5q-2 -4 -5 -9q-2 -5 -6 -12.5 t-9 -19.5l-164 43q18 40 31.5 65.5t25.5 40.5q11 15 27 33.5t34 37t37 35t37 27.5q25 16 57 24.5t60 8.5h234q35 0 71 -11.5t64 -31.5q10 -8 26 -22.5t32.5 -31t30 -32.5t19.5 -25q35 -52 35 -114v-166q0 -32 -7.5 -57t-21 -46.5t-32 -40.5t-39.5 -40q21 -21 39.5 -41 t32 -41.5t21 -47t7.5 -57.5v-180q0 -64 -35 -117q-6 -9 -19.5 -24t-30 -31.5t-32.5 -31t-26 -21.5q-28 -20 -64 -31.5t-71 -11.5h-234q-40 0 -76.5 15t-68.5 39t-59 53t-48 57q-12 15 -25.5 41.5t-31.5 66.5z" />
<glyph unicode="4" d="M41 266v142l526 821h217v-803h136v-160h-136v-266h-168v266h-575zM244 426h372v588z" />
<glyph unicode="5" d="M45 262l164 43q5 -10 8 -17.5t6 -12.5q3 -6 6 -11q9 -17 22.5 -33.5t28.5 -31t29.5 -26t26.5 -17.5q8 -5 14.5 -5.5t11.5 -0.5h230q8 0 13 0.5t11 3.5q11 5 24 15t25 22t22 25t15 24q5 7 5 20v223q0 8 -1.5 14.5t-3.5 8.5q-15 26 -37.5 46.5t-48.5 39.5q-5 3 -10.5 3.5 t-13.5 0.5h-479v633h698v-160h-530v-315h313q37 0 73 -11.5t64 -31.5q11 -8 27 -22t32 -30t30 -31t20 -24q34 -54 34 -117v-229q0 -63 -34 -117q-6 -9 -20 -24t-30 -31.5t-32 -31t-27 -21.5q-28 -20 -65 -31.5t-72 -11.5h-238q-40 0 -76.5 15t-68.5 38.5t-59.5 52.5 t-49.5 58q-12 15 -25 41.5t-32 66.5z" />
<glyph unicode="6" d="M57 256v715q0 31 9 60.5t26 55.5q6 9 20 24.5t30 32t32 30.5t27 22q28 20 64 31.5t71 11.5h233q28 0 60 -8.5t57 -24.5q18 -11 37 -27.5t37.5 -35t34 -37t26.5 -33.5q13 -15 28 -41t28 -61l-164 -43q-2 5 -5.5 11.5t-6.5 12.5q-4 6 -7 13q-8 17 -21.5 33.5t-29 31t-31 26 t-28.5 19.5q-5 3 -11.5 3.5t-11.5 0.5h-223q-6 0 -12 -0.5t-11 -3.5q-11 -6 -23 -16t-24 -22t-22.5 -24.5t-16.5 -23.5q-2 -2 -3 -8t-1 -14v-258q32 29 69.5 47t84.5 18h213q35 0 71 -10.5t64 -30.5q11 -8 27 -22t32 -29.5t30 -30.5t20 -24q34 -54 34 -117v-254 q0 -63 -34 -117q-6 -9 -20 -24t-30 -31.5t-32 -31t-27 -21.5q-28 -20 -64 -31.5t-71 -11.5h-256q-35 0 -71 11.5t-64 31.5q-11 7 -27 21.5t-32 31t-30 31.5t-20 24q-17 26 -26 56t-9 61zM225 258q0 -8 1 -12.5t3 -7.5q6 -11 18.5 -26.5t28.5 -30t32.5 -24.5t29.5 -10h252 q15 0 31.5 10t32 24.5t27.5 30t17 26.5q2 3 3 7.5t1 12.5v250q0 8 -1 12.5t-3 7.5q-6 12 -18 28t-27 30.5t-31.5 24.5t-31.5 10h-205q-8 0 -12.5 -1.5t-7.5 -3.5q-17 -8 -38 -21t-41 -28.5t-36.5 -32.5t-24.5 -34v-242z" />
<glyph unicode="7" d="M45 1069v160h815v-137l-536 -1092h-185l531 1069h-625z" />
<glyph unicode="8" d="M53 256v178q0 32 7.5 57.5t21 47t32 41.5t40.5 41q-22 21 -40.5 40.5t-32 41t-21 47t-7.5 57.5v164q0 31 9 60.5t26 55.5q6 9 19.5 24.5t30 32t32.5 30.5t27 22q27 20 63.5 31.5t71.5 11.5h256q35 0 71 -11.5t64 -31.5q11 -8 27 -22t32 -30.5t29.5 -32t19.5 -24.5 q35 -52 35 -116v-164q0 -32 -7.5 -57.5t-21 -47t-32 -41t-39.5 -40.5q21 -21 39.5 -41t32 -41.5t21 -47t7.5 -57.5v-178q0 -64 -35 -117q-6 -9 -19.5 -24t-29.5 -31.5t-32 -31t-27 -21.5q-28 -20 -64 -31.5t-71 -11.5h-256q-35 0 -71.5 11.5t-63.5 31.5q-11 7 -27 21.5 t-32.5 31t-30 31.5t-19.5 24q-17 26 -26 56t-9 61zM221 258q0 -16 4 -20q6 -11 18.5 -26.5t27.5 -30t31.5 -24.5t31.5 -10h252q13 0 29.5 10t32.5 24.5t28.5 30t17.5 26.5q4 4 4 20v174q0 15 -4 19q-5 10 -17.5 25.5t-28.5 30t-32.5 24.5t-29.5 10h-252q-15 0 -31.5 -10 t-31.5 -24.5t-27.5 -30t-18.5 -25.5q-4 -4 -4 -19v-174zM221 811q0 -17 4 -23q5 -8 16.5 -23t26 -29.5t29 -25.5t25.5 -12h264q13 0 29.5 10t32.5 24.5t28.5 29.5t17.5 26q4 6 4 23v156q0 8 -1 14t-3 8q-5 11 -17.5 26.5t-28 29.5t-32 24t-30.5 10h-252q-15 0 -31.5 -9.5 t-31.5 -23.5t-27.5 -29.5t-18.5 -27.5q-2 -2 -3 -8t-1 -14v-156z" />
<glyph unicode="9" d="M47 256l164 43q2 -5 5 -12t6 -12q4 -7 7 -13q9 -17 22.5 -33.5t28.5 -31t31 -26.5t29 -19q5 -4 11 -4.5t11 -0.5h224q6 0 11.5 0.5t10.5 4.5q11 6 23.5 16t24.5 22t22 24.5t16 23.5q2 2 3 8t1 14v258q-32 -29 -69.5 -47t-83.5 -18h-213q-35 0 -71.5 10.5t-63.5 30.5 q-11 7 -27 21t-32.5 30t-30 31t-19.5 24q-17 26 -26 56t-9 61v254q0 31 9 60.5t26 55.5q6 9 19.5 24.5t30 32t32.5 30.5t27 22q27 20 63.5 31.5t71.5 11.5h256q35 0 71 -11.5t64 -31.5q11 -8 27 -22t32 -30.5t29.5 -32t19.5 -24.5q35 -52 35 -116v-715q0 -64 -35 -117 q-6 -9 -19.5 -24t-29.5 -31.5t-32 -31t-27 -21.5q-28 -20 -64 -31.5t-71 -11.5h-234q-28 0 -60 8.5t-56 23.5q-18 11 -37.5 27.5t-37.5 35.5t-34 37.5t-27 33.5q-12 15 -27.5 41t-27.5 61zM221 719q0 -13 4 -21q6 -11 18.5 -27t27.5 -30.5t31.5 -24.5t31.5 -10h205 q8 0 12.5 1t7.5 3q17 9 38 22t41 28.5t36 32.5t24 34v242q0 8 -1 12.5t-3 7.5q-5 11 -17.5 26.5t-28.5 29.5t-32.5 24t-29.5 10h-252q-15 0 -31.5 -10t-32 -24t-27.5 -29.5t-18 -26.5q-2 -3 -3 -7.5t-1 -12.5v-250z" />
<glyph unicode=":" horiz-adv-x="555" d="M106 0v217h209v-217h-209zM106 549v217h209v-217h-209z" />
<glyph unicode=";" horiz-adv-x="549" d="M57 -178l121 352l162 -39l-109 -313h-174zM106 549v217h209v-217h-209z" />
<glyph unicode="&#x3c;" horiz-adv-x="948" d="M27 512v113l755 405v-176l-536 -287l534 -286v-177z" />
<glyph unicode="=" horiz-adv-x="995" d="M51 297v137h754v-137h-754zM51 573v140h754v-140h-754z" />
<glyph unicode="&#x3e;" horiz-adv-x="948" d="M43 854v176l756 -405v-113l-754 -408v177l535 286z" />
<glyph unicode="?" horiz-adv-x="950" d="M20 969q17 40 30 63.5t26 40.5q21 28 48 57.5t59.5 53.5t69 39.5t77.5 15.5h231q35 0 72.5 -11.5t64.5 -31.5q11 -8 27 -22t32.5 -30.5t30 -32t19.5 -24.5q17 -26 26 -55.5t9 -60.5v-140q0 -35 -11.5 -66t-31 -57.5t-45.5 -47t-54 -35.5l-135 -68q-23 -11 -38 -31.5 t-15 -40.5v-151h-168v160q0 40 13 72t34.5 57.5t50.5 45.5t60.5 37.5t64 32t62.5 29.5q20 11 32.5 29t12.5 41v129q0 14 -4 22q-6 11 -18.5 26.5t-28 29.5t-32.5 24t-32 10h-223q-13 0 -21 -4q-11 -6 -27 -18t-32 -27t-30.5 -32.5t-22.5 -34.5q-1 -4 -4 -9q-2 -5 -6.5 -12.5 t-10.5 -19.5zM326 0v197h204v-197h-204z" />
<glyph unicode="@" horiz-adv-x="1239" d="M55 -70v1028q0 26 5 54t22 51q7 14 25 35t39.5 43t42.5 40.5t36 26.5q25 16 55 24.5t56 8.5h428q12 0 27 -2.5t31 -7t31 -11t26 -14.5q43 -29 78 -69t61 -74q15 -22 22 -50.5t7 -54.5v-798l20 -160h-154l-14 72q-11 -11 -22 -19.5t-23 -17.5q-23 -17 -51.5 -31t-59.5 -14 h-94q-38 0 -74 11t-61 30q-12 9 -26 22t-26.5 26.5t-23 27t-16.5 22.5q-17 25 -25 54t-8 61v387q0 68 33 114q6 9 17.5 22t24.5 27.5t26.5 27.5t23.5 22q25 20 61 32.5t74 12.5h94q31 0 59.5 -13.5t51.5 -31.5q7 -6 11 -9.5l8 -7t9 -8.5t13 -12v151q0 7 -1 11.5t-3 9.5 q-8 15 -22.5 32t-31 32.5t-33 28t-28.5 18.5q-3 2 -8.5 4t-11.5 2h-410q-5 0 -10 -2t-8 -4q-12 -7 -29 -20t-34 -29t-32 -33.5t-22 -32.5q-2 -5 -3 -9.5t-1 -11.5v-1022q0 -6 1 -9.5t3 -8.5q7 -15 22.5 -33.5t32.5 -35.5t34 -30.5t28 -19.5q6 -3 9.5 -3.5t8.5 -0.5l84 -2 l19 -141h-113q-52 0 -111 35q-15 8 -35.5 26.5t-41.5 39.5t-38.5 41.5t-25.5 33.5q-16 25 -22.5 52.5t-6.5 53.5zM541 248q0 -15 4 -23q6 -11 16 -24t21 -25t23 -22.5t22 -16.5q12 -6 24 -6h86q5 0 9.5 1t9.5 3q10 6 29.5 17.5t40 26.5t38.5 32t27 33q2 3 2 7.5v6.5v371 l-2 6q-9 16 -27 32.5t-38.5 31t-40 25t-29.5 15.5q-5 2 -9.5 3t-9.5 1h-86q-12 0 -24 -6q-10 -5 -22 -15t-23 -22t-21 -24.5t-16 -24.5q-4 -8 -4 -24v-379z" />
<glyph unicode="A" horiz-adv-x="1159" d="M-18 0l428 1229h221l428 -1229h-180l-93 274h-532l-94 -274h-178zM307 432h426l-213 625z" />
<glyph unicode="B" horiz-adv-x="1137" d="M84 0v1229h578q37 0 73 -12.5t64 -32.5q10 -8 26 -22t32.5 -30t30 -31t19.5 -24q19 -26 26 -57t7 -62v-149q0 -34 -6.5 -59t-19.5 -46t-31 -40.5t-41 -40.5q23 -22 41 -41t31 -40.5t19.5 -46.5t6.5 -59v-170q0 -31 -8 -59.5t-25 -54.5q-6 -9 -19.5 -24.5t-30 -32 t-32.5 -31t-26 -21.5q-28 -20 -65 -31.5t-72 -11.5h-578zM252 160h407q15 0 31.5 10t32 24t28 29.5t17.5 26.5q2 3 3 7.5t1 12.5v164q0 13 -4 21q-5 10 -15 23t-22 25t-25 22t-24 16q-2 2 -7 2h-13h-410v-383zM252 700h410q13 0 29.5 10t31.5 24.5t27.5 30t17.5 26.5 q4 8 4 22v143q0 17 -4 21q-6 11 -18.5 26.5t-27.5 30t-31.5 25t-31.5 10.5h-407v-369z" />
<glyph unicode="C" horiz-adv-x="1108" d="M72 276v676q0 28 6.5 55t23.5 52q9 13 27.5 34t40.5 42.5t43.5 40.5t36.5 28q25 14 56.5 24.5t60.5 10.5h272q40 0 76 -15.5t68 -39.5t59.5 -53.5t48.5 -57.5q12 -15 25.5 -39.5t31.5 -64.5l-164 -47q-8 24 -23.5 47.5t-34.5 44t-39 36.5t-38 27q-2 0 -5 1q-2 0 -5 0.5 t-6 0.5h-256q-11 0 -19 -4q-11 -5 -26 -17t-31.5 -27.5t-31 -33t-23.5 -32.5q-3 -5 -3.5 -12t-0.5 -15v-659q0 -13 13.5 -32t32.5 -37.5t38.5 -34t31.5 -21.5q8 -4 19 -4h256q12 0 20 4q17 9 36.5 25t37.5 36t33.5 43t23.5 47l164 -43q-11 -28 -25.5 -56.5t-31.5 -49.5 q-23 -28 -50 -57.5t-58.5 -53.5t-67.5 -39.5t-76 -15.5h-270q-29 0 -61.5 10.5t-57.5 24.5q-15 9 -36.5 27.5t-43.5 39.5t-40.5 41.5t-27.5 34.5q-17 25 -23.5 53t-6.5 55z" />
<glyph unicode="D" horiz-adv-x="1153" d="M84 0v1229h565q28 0 60 -8.5t57 -24.5q15 -9 36.5 -28.5t43 -41.5t40 -43t27.5 -34q17 -25 23 -52t6 -55v-657q0 -28 -6 -55t-23 -52q-9 -14 -27.5 -34.5t-40 -41.5t-43 -39.5t-36.5 -27.5q-25 -14 -56.5 -24.5t-60.5 -10.5h-565zM252 160h387q6 0 9 1t5 1 q12 6 32.5 21.5t40 34.5t34 38.5t14.5 32.5v649q0 12 -2 16q-8 16 -23 34t-32.5 33.5t-34.5 28t-29 17.5q-4 2 -14 2h-387v-909z" />
<glyph unicode="E" horiz-adv-x="1047" d="M84 0v1229h754v-160h-586v-375h553v-159h-553v-375h586v-160h-754z" />
<glyph unicode="F" horiz-adv-x="1001" d="M84 0v1229h752v-160h-584v-375h553v-159h-553v-535h-168z" />
<glyph unicode="G" horiz-adv-x="1212" d="M72 276v674q0 28 6.5 56t23.5 53q9 13 27.5 34t40.5 42.5t43.5 40.5t36.5 28q25 14 57.5 24.5t61.5 10.5h315q42 0 78.5 -15.5t68 -39.5t58.5 -54t49 -59q12 -15 25.5 -38.5t31.5 -63.5l-164 -47l-16 32q-3 5 -4 9q-9 17 -23 34.5t-30.5 32.5t-32 27t-27.5 18q-8 4 -20 4 h-301q-11 0 -19 -4q-11 -5 -27 -17t-33 -28t-32 -33.5t-22 -33.5q-2 -4 -3 -8.5t-1 -10.5v-661q0 -13 14.5 -33t34.5 -39.5t40.5 -36t32.5 -22.5q5 -2 17 -2h295q6 0 9 0.5t9 3.5q12 6 32.5 22.5t40 36t34 39.5t14.5 33v254h-281v159h449v-411q0 -29 2.5 -60t7 -65.5t11 -74 t14.5 -87.5h-164q-3 20 -7.5 40.5t-6.5 31.5q-16 -13 -32.5 -27.5t-34.5 -26.5t-39.5 -20t-47.5 -8h-315q-29 0 -61.5 10.5t-57.5 24.5q-15 9 -36.5 27.5t-43.5 39.5t-40.5 41.5t-27.5 34.5q-17 25 -23.5 53t-6.5 55z" />
<glyph unicode="H" horiz-adv-x="1157" d="M84 0v1229h168v-535h528v535h168v-1229h-168v535h-528v-535h-168z" />
<glyph unicode="I" horiz-adv-x="457" d="M82 0v1229h168v-1229h-168z" />
<glyph unicode="J" horiz-adv-x="956" d="M-16 262l161 43q7 -17 22 -39.5t33 -44t37.5 -40t36.5 -27.5q7 -3 13.5 -3.5t11.5 -0.5h143q9 0 17 4q11 5 31.5 21t40.5 35t34.5 38t14.5 31v950h168v-953q0 -27 -7 -55t-24 -53q-9 -13 -27.5 -33.5t-39.5 -42t-42.5 -40t-36.5 -27.5q-24 -14 -56.5 -24.5t-61.5 -10.5 h-160q-42 0 -78.5 15t-68 39t-58 53.5t-47.5 58.5q-11 15 -25 40.5t-32 65.5z" />
<glyph unicode="K" horiz-adv-x="1069" d="M84 0v1229h168v-537h35l463 537h221l-543 -615l545 -614h-221l-465 535h-35v-535h-168z" />
<glyph unicode="L" horiz-adv-x="973" d="M84 0v1229h168v-1069h573v-160h-741z" />
<glyph unicode="M" horiz-adv-x="1372" d="M84 0v1229h213l328 -670l329 670h209v-1229h-164v977l-321 -660h-111l-317 660v-977h-166z" />
<glyph unicode="N" horiz-adv-x="1169" d="M84 0v1229h199l512 -948v948h166v-1229h-195l-516 938v-938h-166z" />
<glyph unicode="O" horiz-adv-x="1186" d="M74 276v674q0 26 5.5 55t22.5 54q9 14 28 35t41 42.5t44 40t37 27.5q25 14 56.5 24.5t60.5 10.5h323q29 0 61.5 -10.5t57.5 -24.5q15 -9 36.5 -28t43 -40.5t40 -42.5t27.5 -34q17 -25 24 -53t7 -56v-674q0 -27 -7 -55t-24 -53q-9 -14 -27.5 -34.5t-40 -41.5t-43 -39.5 t-36.5 -27.5q-25 -14 -57.5 -24.5t-61.5 -10.5h-323q-29 0 -60.5 10.5t-56.5 24.5q-15 9 -37 27.5t-44 39.5t-41 41.5t-28 34.5q-17 25 -22.5 53.5t-5.5 54.5zM242 279q0 -12 14 -31t33.5 -38t39.5 -35t31 -21q4 -2 8.5 -3t10.5 -1h307q6 0 10.5 1t8.5 3q12 6 31.5 21.5 t38.5 34t32.5 37.5t13.5 32v667q0 11 -4 19q-8 15 -22.5 32.5t-31 33t-32.5 27.5t-26 17q-4 2 -8.5 3t-10.5 1h-307q-6 0 -10.5 -1t-8.5 -3q-12 -6 -32 -22t-39 -35.5t-33 -39t-14 -32.5v-667z" />
<glyph unicode="P" horiz-adv-x="1102" d="M84 0v1229h578q35 0 72 -11.5t65 -31.5q10 -8 26 -22.5t32.5 -30.5t30 -31.5t19.5 -24.5q17 -26 26 -56t9 -60v-185q0 -62 -35 -114q-6 -9 -20 -24.5t-30.5 -32t-33 -31t-26.5 -21.5q-28 -20 -64 -30.5t-71 -10.5h-410v-512h-168zM252 672h407q14 0 30 9t31.5 22t28 27 t19.5 24q6 9 6 26v178q0 8 -1 13t-3 10q-3 9 -15 24t-27.5 29t-31.5 24t-26 11h-13h-405v-397z" />
<glyph unicode="Q" horiz-adv-x="1188" d="M74 276v674q0 26 5.5 55t22.5 54q9 14 28 35t41 42.5t44 40t37 27.5q25 14 56.5 24.5t60.5 10.5h323q29 0 61.5 -10.5t57.5 -24.5q15 -9 36.5 -28t43 -40.5t40 -42.5t27.5 -34q17 -25 24 -53t7 -56v-674q0 -27 -7 -55t-24 -53q-9 -14 -27.5 -34.5t-40 -41.5t-43 -39.5 t-36.5 -27.5q-20 -11 -43.5 -19.5t-46.5 -13.5h-4l78 -180h-177l-73 178h-176q-29 0 -60.5 10.5t-56.5 24.5q-15 9 -37 27.5t-44 39.5t-41 41.5t-28 34.5q-17 25 -22.5 53.5t-5.5 54.5zM242 279q0 -12 14 -31t33.5 -38t39.5 -35t31 -21q4 -2 8.5 -3t10.5 -1h96l-18 47 l153 51l41 -98h35q6 0 10.5 1t8.5 3q12 6 31.5 21.5t38.5 34t32.5 37.5t13.5 32v667q0 11 -4 19q-8 15 -22.5 32.5t-31 33t-32.5 27.5t-26 17q-4 2 -8.5 3t-10.5 1h-307q-6 0 -10.5 -1t-8.5 -3q-12 -6 -32 -22t-39 -35.5t-33 -39t-14 -32.5v-667z" />
<glyph unicode="R" horiz-adv-x="1178" d="M84 0v1229h578q35 0 72 -11.5t65 -31.5q10 -8 26 -22.5t32.5 -30.5t30 -31.5t19.5 -24.5q17 -26 26 -56t9 -60v-185q0 -62 -35 -114q-6 -9 -19.5 -24.5t-30 -32t-32.5 -31t-26 -21.5q-19 -14 -45 -24.5t-47 -12.5l299 -516h-183l-288 512h-283v-512h-168zM252 672h407 q14 0 31.5 9.5t34 23t29.5 28t18 25.5q2 3 2 11v11v176v12.5t-2 10.5q-5 8 -17 23t-27 29.5t-30.5 25.5t-25.5 12h-13h-407v-397z" />
<glyph unicode="S" horiz-adv-x="1167" d="M43 262l162 43q3 -6 6 -13t6 -12l6 -12q10 -18 25 -35.5t31.5 -33t32.5 -27.5t28 -18q6 -3 10.5 -3.5t7.5 -0.5h328q8 0 16 4q12 6 32.5 21.5t39.5 34t33 37.5t14 32v124q0 25 -14 45t-33 25l-557 143q-35 9 -62 30.5t-45.5 50t-28 61.5t-9.5 67v125q0 26 5.5 55t22.5 54 q9 14 28 35t41 42.5t44 40t37 27.5q25 14 56.5 24.5t60.5 10.5h301q40 0 76 -15.5t68 -39.5t59 -53.5t49 -57.5q12 -15 25 -39.5t32 -64.5l-164 -47l-16 32q-3 5 -4 9q-9 17 -24 34.5t-31.5 33.5t-33 28t-28.5 18q-2 0 -4 1q-2 0 -4.5 0.5t-5.5 0.5h-285q-6 0 -10 -1t-9 -3 q-11 -5 -31 -21t-39.5 -35t-33.5 -38t-14 -31v-116q0 -23 13 -42t32 -24l555 -147q34 -9 62 -29.5t47 -48.5t29.5 -60.5t10.5 -66.5v-140q0 -26 -5.5 -54.5t-22.5 -53.5q-9 -14 -28 -34.5t-41 -41.5t-44 -39.5t-37 -27.5q-25 -14 -56.5 -24.5t-60.5 -10.5h-342 q-41 0 -77.5 15t-68.5 39t-59 53.5t-49 58.5q-12 17 -24 41.5t-31 64.5z" />
<glyph unicode="T" horiz-adv-x="1032" d="M16 1069v160h869v-160h-350v-1069h-168v1069h-351z" />
<glyph unicode="U" horiz-adv-x="1135" d="M74 274v955h168v-950q0 -12 15 -31t35 -38t40.5 -35t32.5 -21q3 -2 6.5 -3t9.5 -1h254q10 0 18 4q12 5 31.5 21t38.5 35.5t33 38.5t14 30v950h168v-955q0 -27 -6 -54t-23 -52q-9 -14 -27.5 -34.5t-40 -41.5t-43 -39.5t-36.5 -27.5q-25 -14 -56.5 -24.5t-60.5 -10.5h-274 q-29 0 -61.5 10.5t-57.5 24.5q-15 9 -36.5 27.5t-43.5 39.5t-40.5 41.5t-27.5 34.5q-17 25 -23.5 52t-6.5 54z" />
<glyph unicode="V" horiz-adv-x="1108" d="M-31 1229h178l340 -1049l340 1049h179l-408 -1229h-221z" />
<glyph unicode="W" horiz-adv-x="1503" d="M-23 1229h175l215 -1006l227 1006h194l228 -1006l215 1006h174l-283 -1229h-211l-219 954l-221 -954h-211z" />
<glyph unicode="X" d="M-20 0l399 627l-381 602h184l287 -459l289 459h184l-381 -602l400 -627h-187l-305 483l-303 -483h-186z" />
<glyph unicode="Y" horiz-adv-x="1024" d="M-45 1229h184l314 -537q-1 0 12 22.5t35 60.5t50 86t58 99q70 118 158 269h182l-413 -707v-522h-168v522z" />
<glyph unicode="Z" horiz-adv-x="1026" d="M72 0v129l594 940h-594v160h794v-133l-579 -936h579v-160h-794z" />
<glyph unicode="[" horiz-adv-x="645" d="M53 0v1229h367v-148h-203v-934h203v-147h-367z" />
<glyph unicode="\" horiz-adv-x="885" d="M10 1229h174l668 -1229h-176z" />
<glyph unicode="]" horiz-adv-x="666" d="M94 0v147h203v934h-203v148h367v-1229h-367z" />
<glyph unicode="^" horiz-adv-x="705" d="M-4 633l207 596h166l206 -596h-143l-145 446l-150 -446h-141z" />
<glyph unicode="_" horiz-adv-x="946" d="M43 -31h791v-147h-791v147z" />
<glyph unicode="`" horiz-adv-x="780" d="M166 1300h201l174 -225l-152 -41z" />
<glyph unicode="a" horiz-adv-x="987" d="M16 244v39q0 32 8.5 62t26.5 54q6 9 18 22t25.5 26.5t27.5 26.5t25 22q28 20 65.5 29.5t74.5 9.5h331v100q0 5 -0.5 12t-5.5 15q-12 20 -37 42t-47 33q-6 3 -10.5 4.5t-13.5 1.5h-193q-14 0 -27.5 -7t-25.5 -17.5t-22.5 -22.5t-18.5 -22q-4 -5 -8.5 -11t-8.5 -12l-10 -14 l-149 45q9 22 25.5 47.5t35.5 49t38.5 43.5t35.5 32q29 20 66.5 29.5t74.5 9.5h189q37 0 75 -10.5t66 -30.5q12 -9 26.5 -22t28.5 -26.5t25.5 -26.5t17.5 -21q19 -26 26 -57t7 -62v-475l17 -162h-158l-10 70q-15 -13 -34 -27t-40 -26t-43 -19.5t-43 -7.5h-180 q-37 0 -74.5 10.5t-65.5 30.5q-11 8 -25 21t-27.5 26.5t-25.5 26.5t-18 22q-18 25 -26.5 55t-8.5 62zM176 246q0 -10 1 -14t3 -7q6 -11 15.5 -22t21.5 -22t24 -20.5t23 -15.5l10 -4t15 -2h172q10 0 18 4q13 6 32.5 17.5t39.5 25t38 29.5t29 31v143h-329q-10 0 -15 -1t-10 -3 q-11 -6 -23 -16t-24 -21.5t-21.5 -23.5t-15.5 -23q-2 -3 -3 -7t-1 -13v-35z" />
<glyph unicode="b" horiz-adv-x="1004" d="M51 0l15 164v1065h159v-414q15 14 34 28t39 25t42 18t43 7h160q37 0 74 -10.5t65 -30.5q12 -9 26.5 -22.5t28.5 -28t25.5 -28t17.5 -21.5q19 -25 27 -56t8 -63v-383q0 -32 -8 -62.5t-27 -56.5q-6 -8 -17.5 -21.5t-25.5 -27.5t-28.5 -27.5t-26.5 -21.5q-28 -20 -65 -31.5 t-74 -11.5h-160q-23 0 -45.5 8t-44 20.5t-40.5 27.5t-34 30l-8 -76h-160zM225 256q8 -11 29 -30.5t45.5 -39t49.5 -33.5t40 -14h152q9 0 13.5 1.5t10.5 4.5q11 6 24 16t25 22t22 24.5t15 23.5q3 7 3.5 10.5t0.5 12.5v375q0 9 -1 14t-3 8q-5 11 -15 24t-22 25.5t-25 23 t-24 15.5q-6 3 -10.5 3.5t-13.5 0.5h-152q-16 0 -41 -14t-49.5 -32.5t-45 -38t-28.5 -29.5v-373z" />
<glyph unicode="c" horiz-adv-x="977" d="M53 246v391q0 31 7 61t26 56q6 8 18 21t26 27.5t28.5 27.5t25.5 22q28 20 66 30.5t76 10.5h202q38 0 75 -10.5t65 -30.5q18 -12 38 -32.5t39 -44t35 -48.5t25 -47l-150 -47q-8 16 -21.5 35.5t-29.5 36t-34.5 27.5t-37.5 11h-204q-10 0 -14.5 -1.5t-10.5 -4.5 q-11 -5 -24 -14.5t-25 -21t-22 -23.5t-15 -23q-3 -6 -3.5 -9.5t-0.5 -12.5v-383q0 -9 1 -14.5t3 -8.5q5 -11 15 -23t22 -23t25 -20.5t24 -15.5q6 -3 10.5 -4.5t14.5 -1.5h211q9 0 14 2l10 4q29 16 54 45t42 60l150 -49q-11 -26 -21 -43.5t-18 -28.5q-6 -9 -17.5 -22 t-25 -27.5t-27.5 -27.5t-26 -21q-28 -20 -65 -30.5t-74 -10.5h-209q-38 0 -76 10.5t-66 30.5q-11 8 -25.5 21t-28.5 27.5t-26 27.5t-18 22q-19 26 -26 56t-7 61z" />
<glyph unicode="d" horiz-adv-x="1010" d="M53 250v383q0 32 8 63t27 56q6 8 18 21.5t26 28t28.5 28t25.5 22.5q28 20 65 30.5t75 10.5h159q22 0 43.5 -7t42 -18t39 -25t33.5 -28v414h160v-1065l14 -164h-160l-8 76q-15 -15 -34 -30t-40 -27.5t-44 -20.5t-46 -8h-159q-38 0 -75 11.5t-65 31.5q-11 8 -25.5 21.5 t-28.5 27.5t-26 27.5t-18 21.5q-19 26 -27 56.5t-8 62.5zM213 254q0 -9 1 -14t3 -9q5 -11 15 -23.5t22 -24.5t25 -22t24 -16q6 -3 10.5 -4.5t14.5 -1.5h151q15 0 40 14t50 32.5t45.5 38t28.5 30.5v373q-8 11 -28.5 30.5t-45 38.5t-49.5 33t-41 14h-151q-10 0 -14.5 -0.5 t-10.5 -3.5q-11 -5 -24 -15.5t-25 -23t-22 -25.5t-15 -24q-2 -3 -3 -8t-1 -14v-375z" />
<glyph unicode="e" horiz-adv-x="989" d="M53 246v391q0 32 8 62t27 55q6 8 18 21t26 27.5t28.5 27.5t25.5 22q28 20 66.5 30.5t75.5 10.5h204q38 0 76 -10.5t66 -30.5q12 -9 26.5 -22t28.5 -27.5t25.5 -27.5t17.5 -21q19 -26 26 -56t7 -61v-264h-592v-123q0 -9 1 -14.5t3 -8.5q4 -8 13 -19.5t20.5 -23.5 t24.5 -22.5t26 -16.5q12 -6 27 -6h207q9 0 13.5 1.5t10.5 4.5q11 6 23.5 15.5t24 21t21.5 23.5t15 22l12 23l150 -49q-10 -23 -25.5 -47.5t-33.5 -47.5t-37.5 -42.5t-38.5 -32.5q-28 -20 -65 -30.5t-75 -10.5h-202q-37 0 -75.5 10.5t-66.5 30.5q-11 8 -25.5 21t-28.5 27.5 t-26 27.5t-18 22q-19 25 -27 55t-8 62zM213 518h432v115v11t-2 11q-5 11 -15.5 23t-23 23.5t-25.5 21t-24 14.5q-6 3 -10.5 4.5t-14.5 1.5h-202q-5 0 -12.5 -1.5t-12.5 -4.5q-31 -17 -53 -38t-33 -44q-4 -4 -4 -22v-115z" />
<glyph unicode="f" horiz-adv-x="696" d="M-4 733v150h145v98q0 32 7.5 62.5t25.5 56.5q6 8 18 21.5t26 27.5t28.5 27.5t25.5 21.5q29 20 67 30.5t75 10.5h166v-149h-164q-6 0 -16 -0.5t-15 -4.5q-9 -5 -22.5 -15.5t-27 -24t-23.5 -27t-11 -23.5v-18v-94h248v-150h-248v-733h-160v733h-145z" />
<glyph unicode="g" horiz-adv-x="1034" d="M53 250v383q0 32 7 62.5t26 56.5q6 8 18 21.5t26 28t28.5 28t25.5 22.5q28 20 67.5 30.5t74.5 10.5h168q23 0 45.5 -8t43.5 -20.5t40.5 -27.5t35.5 -30l9 76h159l-16 -166v-811q0 -32 -7 -62.5t-26 -56.5q-6 -9 -17.5 -22t-25.5 -27.5t-28.5 -27.5t-26.5 -21 q-28 -20 -67 -31.5t-74 -11.5h-205q-35 0 -73.5 11.5t-65.5 31.5q-18 12 -38.5 31.5t-39.5 43t-35 49t-25 48.5l150 49q7 -15 21.5 -35t31.5 -38t36 -30t36 -12h205q9 0 13.5 1.5t10.5 4.5q9 5 23.5 16.5t29 25.5t25.5 28t12 23v16v158q-15 -14 -33.5 -28t-39 -25t-42 -18 t-42.5 -7h-168q-35 0 -74.5 10.5t-67.5 30.5q-11 8 -25.5 21.5t-28.5 28.5t-26 28.5t-18 21.5q-19 26 -26 56.5t-7 62.5zM211 254q0 -9 1 -14t3 -9q5 -11 15.5 -23.5t23 -25t25.5 -23t24 -16.5q6 -3 10.5 -3.5t14.5 -0.5h159q15 0 19 2q17 9 38 23t42 30.5t38.5 33 t28.5 30.5v367q-9 10 -30 30t-46 39.5t-49.5 34t-40.5 14.5h-159q-10 0 -15 -2l-10 -4q-11 -6 -24 -16t-25.5 -22t-23 -24.5t-15.5 -23.5q-2 -3 -3 -8t-1 -14v-375z" />
<glyph unicode="h" horiz-adv-x="981" d="M51 0v1229h160v-416q15 14 33.5 28t39 25.5t42 19t43.5 7.5h141q35 0 73 -11.5t66 -31.5q12 -9 26.5 -22.5t28.5 -28t26 -28t18 -21.5q18 -26 26 -55.5t8 -61.5v-633h-159v629q0 9 -1.5 14t-3.5 8q-5 11 -15 24t-22 25.5t-25 23t-24 15.5q-6 3 -10.5 3.5t-13.5 0.5h-133 q-17 0 -42 -14t-49.5 -33.5t-45 -39.5t-27.5 -31v-625h-160z" />
<glyph unicode="i" horiz-adv-x="442" d="M59 1065v182h185v-182h-185zM72 0v883h159v-883h-159z" />
<glyph unicode="j" horiz-adv-x="461" d="M-147 -205q48 1 77.5 1.5t46.5 1t24 1t9 2.5q11 6 23 17t23.5 23.5t21.5 25.5t16 24q2 4 3 9t1 14v969h160v-975q0 -32 -8 -62.5t-27 -56.5q-6 -8 -17.5 -21.5t-25.5 -28.5t-28.5 -28.5t-26.5 -21.5q-15 -10 -35 -17.5t-42 -13t-43.5 -8t-39.5 -2.5h-112v147zM86 1065 v182h184v-182h-184z" />
<glyph unicode="k" horiz-adv-x="922" d="M55 0v1229h160v-688h41l322 342h206l-389 -414l428 -469h-209l-356 391h-43v-391h-160z" />
<glyph unicode="l" horiz-adv-x="455" d="M72 133v1096h159v-1071l21 -158h-162z" />
<glyph unicode="m" horiz-adv-x="1473" d="M51 883h160l8 -74q15 14 34 29t40 27t43 20t43 8h123h11q26 1 52 -7q32 -10 58 -32q17 -14 30.5 -35t30.5 -41q10 10 24.5 21.5t30.5 23t31 21.5l27 18q26 14 52.5 22.5t51.5 8.5h137q29 0 55.5 -12t49.5 -29q12 -9 26.5 -22t28.5 -27.5t25.5 -27.5t17.5 -21 q19 -26 26 -56t7 -61v-637h-160v633q0 9 -1 14t-3 8q-5 11 -14.5 23t-21 23t-23.5 20.5t-23 15.5q-5 3 -13.5 4.5t-15.5 1.5h-92q-15 0 -37.5 -12t-46 -28.5t-43 -34t-26.5 -27.5v-4v-637h-158v633q0 9 -1 14t-3 8q-5 11 -15 23t-21.5 23.5t-24 21.5t-23.5 16q-5 3 -14 3.5 t-15 0.5h-94h-14q-20 -2 -42 -16t-42.5 -32.5t-36.5 -37t-25 -28.5v-629h-159v719z" />
<glyph unicode="n" horiz-adv-x="1004" d="M51 883h160l8 -72q15 14 34 28.5t40 26.5t43 19.5t43 7.5h153q38 0 76 -10.5t66 -30.5q12 -9 26.5 -22t28.5 -27.5t25.5 -27.5t17.5 -21q19 -26 26 -56t7 -61v-637h-160v633v11t-2 11q-5 11 -15.5 23.5t-23 24t-25.5 21.5t-24 15q-8 4 -25 4h-145q-15 0 -38.5 -13 t-47.5 -30t-44 -35t-28 -28v-637h-159v719z" />
<glyph unicode="o" horiz-adv-x="991" d="M53 246v391q0 31 7 61t26 56q6 8 18 21t26 27.5t28.5 27.5t25.5 22q28 20 66 30.5t76 10.5h204q38 0 76 -10.5t66 -30.5q11 -9 25.5 -22t28.5 -27.5t26 -27.5t18 -21q19 -26 26 -56t7 -61v-391q0 -31 -7 -61t-26 -56q-6 -9 -18 -22t-26 -27.5t-28.5 -27.5t-25.5 -21 q-28 -20 -66 -30.5t-76 -10.5h-204q-38 0 -76 10.5t-66 30.5q-11 8 -25.5 21t-28.5 27.5t-26 27.5t-18 22q-19 26 -26 56t-7 61zM213 250q0 -9 1 -14.5t3 -8.5q5 -11 15.5 -23t23 -23t25.5 -20.5t24 -15.5q6 -3 10.5 -4.5t14.5 -1.5h198q10 0 14.5 1.5t10.5 4.5q8 5 21 14.5 t26 21t23.5 23t15.5 19.5q3 6 3.5 14t0.5 13v383q0 11 -1.5 17.5t-4.5 11.5q-14 20 -35.5 39.5t-44.5 33.5q-5 3 -12 5.5t-17 2.5h-198q-10 0 -16 -2t-9 -4q-11 -5 -24 -14.5t-25 -21t-22.5 -23.5t-16.5 -23q-2 -3 -3 -8t-1 -14v-383z" />
<glyph unicode="p" horiz-adv-x="1010" d="M51 883h160l8 -76q15 15 34 30t40.5 27.5t44 20.5t45.5 8h160q37 0 74 -11.5t65 -31.5q12 -9 26.5 -22t28.5 -27.5t25.5 -27.5t17.5 -21q19 -26 27 -56.5t8 -62.5v-383q0 -32 -8 -63t-27 -56q-6 -8 -17.5 -21.5t-25.5 -28.5t-28.5 -28.5t-26.5 -21.5q-28 -20 -65 -30.5 t-74 -10.5h-160q-21 0 -43 7t-42 18t-39 25t-34 28v-422h-159v1073zM225 256q8 -12 28.5 -31.5t45 -38.5t49.5 -33t41 -14h152q9 0 14 1t10 3q11 6 24 17t25 23t22 24.5t15 23.5q2 4 3 9t1 14v375q0 18 -4 22q-6 11 -16 23.5t-22 24.5t-24.5 22t-23.5 16l-10 4t-14 2h-152 q-15 0 -40 -14t-49.5 -32.5t-45.5 -38t-29 -29.5v-373z" />
<glyph unicode="q" horiz-adv-x="999" d="M53 250v383q0 32 8 62.5t27 56.5q6 8 18 21t26 27.5t28.5 27.5t25.5 22q28 20 65 31.5t75 11.5h159q23 0 46 -8t44 -20.5t40 -27.5t34 -30l8 76h160l-14 -164v-1073h-160v422q-15 -14 -33.5 -28t-39 -25t-42 -18t-43.5 -7h-159q-38 0 -75 10.5t-65 30.5q-11 8 -25.5 21.5 t-28.5 28.5t-26 28.5t-18 21.5q-19 25 -27 56t-8 63zM213 254q0 -9 1 -14t3 -9q5 -11 15 -23.5t22 -25t25 -23t24 -16.5q6 -3 10.5 -3.5t14.5 -0.5h151q16 0 41 14t49.5 32.5t45 38t28.5 30.5v373q-8 10 -28.5 29.5t-45.5 39t-50 33.5t-40 14h-151q-10 0 -14.5 -1.5 t-10.5 -4.5q-11 -5 -24 -15t-25 -22t-22 -25t-15 -24q-2 -3 -3 -8t-1 -14v-375z" />
<glyph unicode="r" horiz-adv-x="852" d="M51 883h158l10 -72q15 15 34 29.5t40 26t43.5 19t44.5 7.5h113q37 0 74 -9.5t65 -29.5q18 -12 38 -32.5t39 -44.5t35 -49.5t25 -47.5l-152 -45q-8 16 -21 35t-29 35t-34 27t-36 11h-111q-16 0 -40.5 -13t-49 -30.5t-44.5 -36t-28 -30.5v-633h-159v719z" />
<glyph unicode="s" horiz-adv-x="961" d="M8 201l154 51q7 -15 19 -32t25.5 -32t27 -27t24.5 -18q8 -4 25 -4h247q16 0 31 8t28.5 19.5t24.5 25t19 25.5q6 9 6 27v67q0 17 -15.5 32t-39.5 17l-340 23q-42 3 -78.5 19.5t-63.5 43t-43 62t-16 76.5v59q0 32 8 61.5t27 55.5q6 9 16.5 21.5t23 25.5t25.5 25t25 20 q29 20 65.5 30.5t73.5 10.5h213q37 0 73.5 -10.5t65.5 -30.5q19 -13 38.5 -32t38 -41.5t35.5 -47t30 -49.5l-154 -51q-9 17 -23 36.5t-30.5 36.5t-34 28t-33.5 11h-219q-16 0 -24 -4q-28 -14 -43.5 -30t-30.5 -39q-6 -9 -6 -27v-59q0 -17 14 -32t39 -17l340 -25 q42 -3 78.5 -19.5t64.5 -43t44 -62t16 -76.5v-69q0 -63 -37 -117q-6 -9 -17 -22t-23.5 -26t-25.5 -25t-24 -19q-29 -20 -65.5 -30.5t-74.5 -10.5h-245q-37 0 -74 10.5t-66 30.5q-18 12 -37 31t-37.5 42t-35.5 48t-29 49z" />
<glyph unicode="t" horiz-adv-x="700" d="M-18 733v150h145v346h160v-346h270v-150h-270v-469q0 -11 1 -17t3 -9q11 -22 35.5 -46.5t46.5 -35.5q3 -2 11 -4t17 -2h144v-150h-146q-37 0 -74 10.5t-65 30.5q-12 8 -26.5 21.5t-28.5 28.5t-25.5 28.5t-17.5 21.5q-19 26 -27 56.5t-8 62.5v473h-145z" />
<glyph unicode="u" horiz-adv-x="999" d="M53 248v635h160v-631v-11.5t2 -11.5q6 -11 16.5 -23t22.5 -24t25 -21.5t24 -15.5q6 -3 10.5 -3.5t14.5 -0.5h145q15 0 38.5 12.5t47.5 30t44 35t28 27.5v637h160v-719l16 -164h-160l-8 72q-15 -14 -34 -28t-39.5 -25.5t-42.5 -19t-44 -7.5h-153q-38 0 -76 10.5t-66 30.5 q-11 8 -25.5 21.5t-28.5 27.5t-26 27.5t-18 21.5q-19 26 -26 56t-7 61z" />
<glyph unicode="v" horiz-adv-x="883" d="M-29 883h172l230 -695l229 695h170l-303 -883h-190z" />
<glyph unicode="w" horiz-adv-x="1372" d="M-35 883h170l197 -686l188 686h195l196 -686l189 686h168l-262 -883h-191l-199 651l-190 -651h-190z" />
<glyph unicode="x" horiz-adv-x="920" d="M-14 0l309 453l-297 430h195l196 -305l195 305h194l-295 -430l312 -453h-193l-213 319l-213 -319h-190z" />
<glyph unicode="y" horiz-adv-x="881" d="M-29 883h172l230 -686l231 686h166l-424 -1237h-160l119 354h-31z" />
<glyph unicode="z" horiz-adv-x="909" d="M37 733v150h686v-127l-457 -606h479v-150h-692v125l457 608h-473z" />
<glyph unicode="{" horiz-adv-x="715" d="M55 279v671q0 26 6 55t23 54q9 13 27 34t39 42.5t42.5 40.5t36.5 28q25 14 57.5 24.5t61.5 10.5h137v-160h-127q-6 0 -9 -1t-5 -1q-11 -5 -27.5 -18t-33.5 -29t-33 -34t-25 -33q-2 -2 -2 -6.5v-10.5v-665q0 -13 14.5 -32.5t34 -38.5t40 -34.5t32.5 -21.5q2 0 5 -1t9 -1 h127v-160h-137q-29 0 -60.5 10.5t-56.5 24.5q-15 9 -37 27.5t-44 39.5t-40.5 41.5t-27.5 34.5q-17 25 -22 54t-5 55z" />
<glyph unicode="|" horiz-adv-x="426" d="M68 -193v1594h157v-1594h-157z" />
<glyph unicode="}" horiz-adv-x="733" d="M94 -8v160h127q6 0 9.5 1t5.5 1q11 5 31.5 21.5t40.5 36t35 38.5t15 31v665q0 13 -14.5 33t-34.5 39.5t-40.5 36t-32.5 22.5q-2 0 -5.5 1t-9.5 1h-127v160h137q29 0 61.5 -10.5t57.5 -24.5q15 -9 36.5 -28t43.5 -40.5t40.5 -42.5t27.5 -34q17 -25 22.5 -53t5.5 -56v-671 q0 -26 -5.5 -55t-22.5 -54q-9 -14 -28 -34.5t-41 -41.5t-44 -39.5t-37 -27.5q-25 -14 -56.5 -24.5t-60.5 -10.5h-137z" />
<glyph unicode="~" horiz-adv-x="995" d="M74 467q17 43 47 73.5t68.5 48t82.5 22t88 -4.5l189 -35q29 -5 52.5 7.5t35.5 39.5l162 -47q-17 -43 -47 -73t-68 -47.5t-81.5 -22t-88.5 3.5l-188 35q-29 5 -52.5 -6.5t-35.5 -40.5z" />
<glyph unicode="&#xa1;" horiz-adv-x="504" d="M82 1028v201h209v-201h-209zM104 0v891h160v-891h-160z" />
<glyph unicode="&#xa2;" horiz-adv-x="997" d="M53 246v391q0 31 7 61t26 56q6 8 18 21t26 27.5t28.5 27.5t25.5 22q28 20 66 30.5t76 10.5h51v336h117v-336h55q37 0 74 -10.5t65 -30.5q18 -12 38 -32.5t39 -44t35 -48.5t25 -47l-149 -47q-9 16 -22 35.5t-29.5 36t-35 27.5t-36.5 11h-59v-604h65q9 0 14.5 2t10.5 4 q29 16 54 45t42 60l149 -49q-11 -26 -20.5 -43.5t-17.5 -28.5q-6 -9 -18 -22t-25.5 -27.5t-27.5 -27.5t-26 -21q-28 -20 -65 -30.5t-74 -10.5h-61v-348h-117v348h-51q-38 0 -76 10.5t-66 30.5q-11 8 -25.5 21t-28.5 27.5t-26 27.5t-18 22q-19 26 -26 56t-7 61zM213 250 q0 -19 4 -23q6 -11 16 -22.5t22 -22.5t24.5 -21t23.5 -16l10 -4t15 -2h49v604h-49q-10 0 -15 -2l-10 -4q-11 -6 -23.5 -15.5t-24.5 -20.5t-22 -23t-16 -23q-4 -4 -4 -22v-383z" />
<glyph unicode="&#xa3;" horiz-adv-x="1214" d="M57 309v150h84v102h-84v150h84v231q0 28 6 55t23 52q9 13 27.5 33.5t40 42.5t43 41t36.5 28q25 14 56.5 24.5t60.5 10.5h242v-160h-232q-6 0 -9 -1t-5 -1q-11 -5 -27 -18t-33 -29.5t-32.5 -34.5t-24.5 -33q-1 -1 -1.5 -12t-0.5 -38.5v-74v-116.5h465v-150h-465v-102h465 v-150h-465v-149h410q8 0 11 1q3 0 5 1q12 6 28.5 18t33 28t31.5 33.5t24 34.5l4 8q2 5 6 13l10 20l162 -47q-17 -40 -32 -62.5t-27 -39.5q-21 -28 -47.5 -57.5t-58 -54t-68 -40.5t-76.5 -16h-586v309h-84z" />
<glyph unicode="&#xa4;" horiz-adv-x="1147" d="M121 891l106 104l86 -88q17 8 36 11.5t38 3.5h236q18 0 36 -3.5t35 -11.5l90 90l105 -104l-86 -86q14 -23 21 -52t7 -55v-127q0 -27 -8 -57t-22 -53l92 -88l-107 -105l-96 95q-15 -7 -32.5 -10t-34.5 -3h-236q-17 0 -33.5 2t-31.5 8l-95 -94l-104 107l86 86 q-16 23 -23.5 53t-7.5 59v127q0 26 7 55t20 52zM315 580q0 -11 4 -19q10 -17 29 -37t35 -28q3 -2 6.5 -3t11.5 -1h207q15 0 19 4q7 4 16.5 11.5t18.5 16.5t16.5 19t11.5 18q2 3 4 7.5t2 11.5v116q0 7 -2 10.5t-4 8.5q-3 7 -11.5 18t-18.5 21.5t-20 18.5t-17 9h-222h-9t-9 -2 q-8 -4 -17 -11.5t-18 -17t-16.5 -19.5t-12.5 -17q-2 -5 -3 -8.5t-1 -10.5v-116z" />
<glyph unicode="&#xa5;" horiz-adv-x="995" d="M-6 1229h184l297 -506q-1 0 11.5 21.5t33 56.5t47.5 80.5t55 93.5l150 254h182l-317 -520h201v-152h-281v-108h281v-148h-281v-301h-168v301h-291v148h291v108h-291v152h205z" />
<glyph unicode="&#xa6;" horiz-adv-x="385" d="M68 -193v699h157v-699h-157zM68 705v698h157v-698h-157z" />
<glyph unicode="&#xa7;" horiz-adv-x="1044" d="M43 203l152 51q17 -32 41 -62t53 -47q12 -6 26 -6h295q6 0 13.5 1.5t13.5 4.5q22 13 42.5 35t33.5 43l3 7.5t1 7.5v26q0 19 -16 31t-39 14l-310 17q-37 2 -65.5 8t-59.5 26q-9 6 -25 19.5t-33.5 29.5t-33.5 31.5t-24 26.5q-22 28 -32.5 63.5t-10.5 69.5v21q0 58 21.5 99 t62.5 79q-28 18 -46 38t-29 43.5t-16.5 49.5t-7.5 55q-3 34 7.5 64t27.5 55q7 9 17.5 21.5t22.5 25.5t25 25t25 20q28 20 65 31.5t74 11.5h293q37 0 74.5 -11.5t65.5 -31.5q18 -12 38 -32t39 -43.5t35 -48.5t25 -48l-150 -49q-17 32 -42 62.5t-56 47.5q-5 4 -11.5 4.5 t-13.5 0.5h-295q-11 0 -15 -1.5t-7 -3.5q-11 -6 -25.5 -17.5t-28 -25.5t-22.5 -29t-8 -28t4 -25.5t9.5 -22.5t17.5 -16.5t28 -7.5l295 -14q42 -2 81.5 -8t74.5 -29q9 -6 25 -19.5t33 -29t32.5 -31.5t24.5 -26q21 -28 32 -64t11 -71v-21q0 -34 -11 -69.5t-32 -63.5 q-8 -9 -20.5 -22t-26.5 -27q38 -28 62 -67.5t24 -90.5v-27q0 -32 -8.5 -57t-26.5 -51q-6 -9 -17 -21.5t-23.5 -25.5t-25.5 -25t-24 -20q-28 -20 -65 -31.5t-75 -11.5h-293q-37 0 -74 11.5t-65 31.5q-11 8 -25.5 21.5t-28 28.5t-25 28.5t-17.5 21.5q-9 13 -19 29t-22 41z M225 602q0 -14 4 -22q5 -8 17.5 -24.5t27.5 -33t30 -29t24 -12.5q5 0 10 -1t10 -1l256 -16q17 0 21 4q10 6 27 22t33.5 35.5t28 39t11.5 32.5v25q0 16 -4 20q-7 12 -18.5 26.5t-25 28.5t-27.5 25.5t-25 17.5q-3 2 -11.5 3t-11.5 1l-258 13q-9 2 -13.5 1t-6.5 -3 q-12 -6 -25.5 -18.5t-26.5 -28t-24.5 -32t-18.5 -28.5q-2 -2 -3 -6.5t-1 -15.5v-23z" />
<glyph unicode="&#xa8;" horiz-adv-x="743" d="M162 1065v182h170v-182h-170zM492 1065v182h170v-182h-170z" />
<glyph unicode="&#xa9;" horiz-adv-x="1413" d="M53 283v667q0 28 6 55t23 52q9 13 27.5 34.5t40 43.5t43 41t36.5 28q25 14 56.5 24.5t60.5 10.5h598q29 0 61.5 -10.5t57.5 -24.5q15 -9 35 -28t39 -41t35.5 -43.5t25.5 -34.5q17 -25 30 -52t13 -55v-667q0 -28 -7 -56t-24 -53q-9 -14 -27.5 -34.5t-40 -41.5t-43 -39.5 t-36.5 -27.5q-25 -14 -57.5 -24.5t-61.5 -10.5h-598q-29 0 -60.5 10.5t-56.5 24.5q-15 9 -36.5 27.5t-43 39.5t-40 41.5t-27.5 34.5q-17 25 -23 53t-6 56zM213 285q0 -12 15.5 -32.5t36.5 -41.5t43 -38t34 -23q2 0 5 -2.5t9 -2.5h578q6 0 9 2.5t5 2.5q12 6 34.5 23 t44.5 37.5t38 41t16 33.5v661q0 7 -4 17q-9 15 -25.5 34.5t-34.5 37.5t-35.5 32.5t-29.5 19.5q-2 0 -5 1.5t-9 1.5h-584q-6 0 -9 -1.5t-5 -1.5q-11 -5 -28.5 -19.5t-35.5 -32.5t-35 -37.5t-26 -34.5q-2 -2 -2 -6.5v-10.5v-661zM336 504v225q0 62 35 115q6 9 17.5 23 t25.5 28.5t28 27.5t25 21q28 20 65 30.5t72 10.5h111q35 0 72 -10.5t65 -30.5q11 -8 25 -21t28 -27.5t25.5 -28.5t17.5 -23l-143 -74q-9 10 -19.5 21.5t-21.5 21t-21.5 16t-17.5 7.5h-131q-11 -1 -25.5 -11.5t-29 -25t-26 -29t-15.5 -22.5q-4 -6 -4 -23v-217q0 -8 1 -14.5 t3 -8.5q4 -8 15.5 -22.5t26 -29t29 -25t25.5 -11.5h131q7 1 17.5 7.5t21.5 16t21.5 21t19.5 21.5l143 -74q-6 -9 -17.5 -23t-25.5 -28.5t-28 -28t-25 -20.5q-28 -20 -65 -30.5t-72 -10.5h-111q-35 0 -72 10.5t-65 30.5q-11 7 -25 20.5t-28 28t-25.5 28.5t-17.5 23 q-35 53 -35 115z" />
<glyph unicode="&#xaa;" horiz-adv-x="782" d="M96 811v231q0 25 5.5 49t19.5 44q5 7 15 17.5t21 22t23 22t21 17.5q21 16 52 24.5t60 8.5h123q19 0 41.5 -6.5t40.5 -17.5v22h135v-485l21 -142h-137l-11 60q-13 -12 -30.5 -25t-36 -23.5t-35.5 -17t-29 -6.5h-82q-29 0 -60 8.5t-52 24.5q-9 7 -21 17t-23 21.5t-21 22 t-15 17.5q-16 20 -20.5 44.5t-4.5 49.5zM233 821q0 -13 5 -18q8 -16 28 -35t37 -27q3 -2 7.5 -4t11.5 -2h90q6 0 10.5 2t7.5 4q7 3 21.5 14.5t29 25t25.5 26.5t12 20v205v9.5t-2 9.5q-4 7 -11.5 16.5t-17 18t-19.5 15.5t-17 11q-4 2 -8.5 3t-10.5 1h-110q-11 0 -19 -4 q-17 -9 -37 -27.5t-28 -33.5q-2 -3 -3.5 -7t-1.5 -12v-211z" />
<glyph unicode="&#xab;" horiz-adv-x="1227" d="M76 516l319 324l174 -52l-280 -272l282 -272l-176 -45zM492 516l319 324l174 -52l-280 -272l282 -272l-176 -45z" />
<glyph unicode="&#xac;" horiz-adv-x="1090" d="M59 436v150l846 -2v2h2v-436h-159v286h-689z" />
<glyph unicode="&#xad;" horiz-adv-x="684" d="M53 434v150h467v-150h-467z" />
<glyph unicode="&#xae;" horiz-adv-x="1413" d="M53 283v667q0 28 6 55t23 52q9 13 27.5 34.5t40 43.5t43 41t36.5 28q25 14 56.5 24.5t60.5 10.5h598q29 0 61.5 -10.5t57.5 -24.5q15 -9 35 -28t39 -41t35.5 -43.5t25.5 -34.5q17 -25 30 -52t13 -55v-667q0 -28 -7 -56t-24 -53q-9 -14 -27.5 -34.5t-40 -41.5t-43 -39.5 t-36.5 -27.5q-25 -14 -57.5 -24.5t-61.5 -10.5h-598q-29 0 -60.5 10.5t-56.5 24.5q-15 9 -36.5 27.5t-43 39.5t-40 41.5t-27.5 34.5q-17 25 -23 53t-6 56zM213 285q0 -12 15.5 -32.5t36.5 -41.5t43 -38t34 -23q2 0 5 -2.5t9 -2.5h578q6 0 9 2.5t5 2.5q12 6 34.5 23 t44.5 37.5t38 41t16 33.5v661q0 7 -4 17q-9 15 -25.5 34.5t-34.5 37.5t-35.5 32.5t-29.5 19.5q-2 0 -5 1.5t-9 1.5h-584q-6 0 -9 -1.5t-5 -1.5q-11 -5 -28.5 -19.5t-35.5 -32.5t-35 -37.5t-26 -34.5q-2 -2 -2 -6.5v-10.5v-661zM373 233v762h307q35 0 72 -11.5t65 -31.5 q11 -8 27 -22t32 -29.5t30 -30.5t20 -24q17 -26 17.5 -49t0.5 -54v-22q0 -15 0.5 -31.5t-0.5 -33t-5 -32t-13 -28.5q-7 -10 -20.5 -23.5t-30 -28t-34.5 -28.5t-36 -24l151 -250h-184l-117 215h-125v-224h-157zM530 606h150q14 0 31 7.5t33 18.5t28.5 24t18.5 24q2 2 3 8 t1 14v43q0 17 -4 21q-6 11 -15.5 22t-21.5 20.5t-25 18.5t-24 15q-5 2 -11 3t-14 1h-150v-240z" />
<glyph unicode="&#xaf;" horiz-adv-x="676" d="M66 1081v146h413v-146h-413z" />
<glyph unicode="&#xb0;" horiz-adv-x="690" d="M84 1206q0 42 15 77.5t41 61.5t62.5 41t78.5 15q43 0 79.5 -15t63.5 -41t42 -61.5t15 -77.5t-15 -77.5t-42 -61.5t-63.5 -40.5t-79.5 -14.5q-42 0 -78.5 14.5t-62.5 40.5t-41 61.5t-15 77.5zM184 1206q0 -43 28 -72.5t69 -29.5q21 0 39.5 8t32.5 21.5t22 32.5t8 40 t-8 39.5t-22 32t-32.5 21.5t-39.5 8q-20 0 -38 -8t-31 -21.5t-20.5 -32t-7.5 -39.5z" />
<glyph unicode="&#xb1;" d="M86 -31h748v-147h-748v147zM86 436v150h305v284h160v-284h305v-150h-305v-286h-160v286h-305z" />
<glyph unicode="&#xb2;" horiz-adv-x="700" d="M23 1124q18 23 40 42.5t39 31.5q25 19 62 30t69 11h115q53 0 96.5 -28t77.5 -70q19 -23 25 -44t6 -50v-17q0 -32 -16 -59t-40 -47.5t-53 -35t-55 -22.5l-178 -67q-20 -10 -23.5 -17t-3.5 -24v-2h355v-140h-504v150q0 33 8.5 57.5t26 43t42.5 33t58 26.5l182 67 q6 2 15.5 7t19 11.5t16.5 15t7 17.5q0 22 -19.5 41t-44.5 19h-117q-9 0 -20.5 -4t-23.5 -10.5t-23.5 -15t-20.5 -17.5z" />
<glyph unicode="&#xb3;" horiz-adv-x="717" d="M23 737l120 70q17 -19 36.5 -33t37.5 -14h145q8 0 13 2l10 4q19 11 30 27t11 34q0 21 -9.5 30.5t-23.5 13t-31.5 2.5t-33.5 -1h-97v125h97q16 0 33.5 -0.5t31.5 2.5t23.5 12.5t9.5 30.5q0 19 -11 35t-30 27l-10 4t-13 2h-145q-18 0 -37.5 -14.5t-36.5 -32.5l-120 70 q18 23 38 42t37 31q25 19 58 29t65 10h144q52 0 97 -22t79 -64q15 -23 21.5 -54.5t6.5 -60.5q0 -27 -5 -45.5t-13.5 -31t-19 -20t-21.5 -13.5q11 -6 21.5 -13.5t19 -19.5t13.5 -30t5 -46q0 -29 -6.5 -60t-21.5 -54q-34 -42 -79 -64t-97 -22h-144q-32 0 -65 10t-58 29 q-17 12 -37 31t-38 42z" />
<glyph unicode="&#xb4;" horiz-adv-x="760" d="M305 1069l180 231h201l-229 -272z" />
<glyph unicode="&#xb5;" horiz-adv-x="999" d="M55 -354v1237h160v-627q8 -12 28.5 -31.5t45 -38.5t49.5 -33t41 -14h94q15 1 38.5 13.5t47.5 29.5t44 34.5t28 27.5v639h160v-721l16 -164h-160l-8 72q-15 -14 -34 -28t-39.5 -25.5t-42.5 -19t-44 -7.5h-106q-22 0 -43.5 7t-42 18t-39 25t-33.5 28v-422h-160z" />
<glyph unicode="&#xb6;" horiz-adv-x="1079" d="M59 797v164q0 30 9 60t26 56q6 9 20 24.5t30.5 31.5t33 30.5t27.5 22.5q28 20 65 31.5t72 11.5h596v-1229h-164v532h-76v-532h-161v532h-195q-35 0 -72 10.5t-65 30.5q-11 8 -27.5 22.5t-33 30.5t-30.5 31.5t-20 24.5q-17 26 -26 55t-9 60zM229 801q0 -8 1 -14.5t3 -8.5 q6 -11 18.5 -26t28 -28.5t32.5 -22.5t32 -9h193v377h-193q-6 0 -13 0.5t-12 -2.5q-11 -6 -23 -16.5t-24 -22.5t-22.5 -25t-16.5 -24q-4 -4 -4 -23v-155zM698 692h76v377h-76v-377z" />
<glyph unicode="&#xb7;" horiz-adv-x="596" d="M127 434v189h209v-189h-209z" />
<glyph unicode="&#xb8;" horiz-adv-x="831" d="M158 -354l178 262l149 -51l-145 -211h-182z" />
<glyph unicode="&#xb9;" horiz-adv-x="623" d="M63 616v123h142v367h-129v125h262v-492h137v-123h-412z" />
<glyph unicode="&#xba;" horiz-adv-x="821" d="M96 811v231q0 25 5.5 49t19.5 44q5 7 15 17.5t21 22t23 22t21 17.5q21 16 52 24.5t60 8.5h123q29 0 60 -8.5t53 -24.5q9 -7 20 -17.5t22 -22t20.5 -22t15.5 -17.5q14 -20 19 -44t5 -49v-231q0 -25 -4.5 -49t-19.5 -45q-5 -6 -14.5 -16.5t-20.5 -22t-22.5 -22t-20.5 -17.5 q-22 -16 -53 -24.5t-60 -8.5h-123q-29 0 -60 8.5t-52 24.5q-9 7 -21 17.5t-23.5 22t-21.5 22t-14 16.5q-16 20 -20.5 44.5t-4.5 49.5zM238 825q0 -8 1 -11.5t3 -6.5q8 -16 26 -35t35 -27q3 -2 8.5 -4t10.5 -2h108q8 0 19 6q6 4 14.5 11t17 15t15.5 16t10 14t3.5 12.5 t0.5 11.5v203v10.5t-2 12.5q-8 15 -27 32t-35 25q-8 4 -16 4h-108q-9 0 -17 -4q-17 -9 -36 -27.5t-27 -33.5q-2 -4 -3 -7.5t-1 -11.5v-203z" />
<glyph unicode="&#xbb;" horiz-adv-x="1231" d="M96 244l283 272l-281 272l174 52l320 -324l-320 -317zM512 244l283 272l-281 272l174 52l320 -324l-320 -317z" />
<glyph unicode="&#xbc;" horiz-adv-x="1370" d="M59 616v123h142v367h-129v125h262v-492h137v-123h-412zM262 0l668 1239h160l-656 -1239h-172zM676 143v115l356 375h121v-359h80v-131h-80v-141h-133v141h-344zM860 274h160v160z" />
<glyph unicode="&#xbd;" horiz-adv-x="1483" d="M63 616v123h142v367h-129v125h262v-492h137v-123h-412zM262 0l668 1239h160l-656 -1239h-172zM811 510q18 23 40 42.5t39 31.5q25 19 62 30t69 11h115q53 0 96.5 -28t77.5 -70q19 -23 25 -44t6 -50v-17q0 -32 -16 -59t-40 -47.5t-53 -35t-55 -22.5l-178 -67 q-20 -10 -23.5 -17t-3.5 -24v-2h355v-140h-504v150q0 33 8.5 57.5t26 43t42.5 33t58 26.5l182 67q6 2 15.5 7t19 11.5t16.5 15t7 17.5q0 22 -19.5 41t-44.5 19h-117q-9 0 -20.5 -4t-23.5 -10.5t-23.5 -15t-20.5 -17.5z" />
<glyph unicode="&#xbe;" horiz-adv-x="1386" d="M23 737l120 70q17 -19 36.5 -33t37.5 -14h145q8 0 13 2l10 4q19 11 30 27t11 34q0 21 -9.5 30.5t-23.5 13t-31.5 2.5t-33.5 -1h-97v125h97q16 0 33.5 -0.5t31.5 2.5t23.5 12.5t9.5 30.5q0 19 -11 35t-30 27l-10 4t-13 2h-145q-18 0 -37.5 -14.5t-36.5 -32.5l-120 70 q18 23 38 42t37 31q25 19 58 29t65 10h144q52 0 97 -22t79 -64q15 -23 21.5 -54.5t6.5 -60.5q0 -27 -5 -45.5t-13.5 -31t-19 -20t-21.5 -13.5q11 -6 21.5 -13.5t19 -19.5t13.5 -30t5 -46q0 -29 -6.5 -60t-21.5 -54q-34 -42 -79 -64t-97 -22h-144q-32 0 -65 10t-58 29 q-17 12 -37 31t-38 42zM279 0l667 1239h160l-655 -1239h-172zM692 143v115l357 375h120v-359h80v-131h-80v-141h-133v141h-344zM877 274h159v160z" />
<glyph unicode="&#xbf;" horiz-adv-x="952" d="M59 260v135q0 61 26.5 103.5t67.5 73.5t89.5 54t93.5 46q23 11 37 29.5t14 39.5v152h168v-160q0 -44 -14 -77.5t-37 -59t-52.5 -44.5t-60.5 -34q-29 -14 -57.5 -28t-54.5 -31q-23 -16 -37.5 -32t-14.5 -38v-125q0 -8 1 -14t3 -8q6 -11 16.5 -23.5t22.5 -24.5t24 -22 t23 -16q5 -2 11 -3t14 -1h244q8 0 11 1q3 0 5 1q12 6 28 18t32.5 28t32 33.5t24.5 34.5q2 3 5 8q2 5 6 12t9 19l162 -43q-18 -40 -31.5 -65.5t-25.5 -40.5q-22 -29 -49 -58.5t-59 -53.5t-69 -39t-77 -15h-250q-35 0 -73 11.5t-66 31.5q-11 7 -27 21.5t-32 31t-30 31.5 t-20 24q-17 26 -25 56t-8 61zM367 1030v199h206v-199h-206z" />
<glyph unicode="&#xc0;" horiz-adv-x="1159" d="M-18 0l428 1229h221l428 -1229h-180l-93 274h-532l-94 -274h-178zM307 432h426l-213 625zM326 1593h200l174 -225l-151 -41z" />
<glyph unicode="&#xc1;" horiz-adv-x="1159" d="M-18 0l428 1229h221l428 -1229h-180l-93 274h-532l-94 -274h-178zM307 432h426l-213 625zM393 1364l180 231h201l-229 -272z" />
<glyph unicode="&#xc2;" horiz-adv-x="1159" d="M-18 0l428 1229h221l428 -1229h-180l-93 274h-532l-94 -274h-178zM221 1352l215 243h168l215 -243h-192l-107 133l-106 -133h-193zM307 432h426l-213 625z" />
<glyph unicode="&#xc3;" horiz-adv-x="1159" d="M-18 0l428 1229h221l428 -1229h-180l-93 274h-532l-94 -274h-178zM0 0zM205 1390q15 39 43 67.5t63 45t74.5 20t79.5 -5.5l148 -34q26 -7 50.5 6t35.5 39l139 -35q-15 -39 -43 -68t-63 -45.5t-74.5 -20t-79.5 6.5l-146 35q-26 6 -50.5 -6.5t-35.5 -38.5zM307 432h426 l-213 625z" />
<glyph unicode="&#xc4;" horiz-adv-x="1159" d="M-18 0l428 1229h221l428 -1229h-180l-93 274h-532l-94 -274h-178zM0 0zM273 1391v182h170v-182h-170zM307 432h426l-213 625zM603 1391v182h170v-182h-170z" />
<glyph unicode="&#xc5;" horiz-adv-x="1159" d="M-18 0l428 1229h221l428 -1229h-180l-93 274h-532l-94 -274h-178zM307 432h426l-213 625zM322 1513q0 42 15 77.5t41 61.5t62 41t78 15q43 0 80 -15t64 -41t42 -61.5t15 -77.5t-15 -77.5t-42 -61.5t-64 -40.5t-80 -14.5q-42 0 -78 14.5t-62 40.5t-41 61.5t-15 77.5z M422 1513q0 -43 28 -72.5t68 -29.5q21 0 39.5 8t32.5 21.5t22.5 32.5t8.5 40t-8.5 39.5t-22.5 32t-32.5 21.5t-39.5 8q-20 0 -37.5 -8t-30.5 -21.5t-20.5 -32t-7.5 -39.5z" />
<glyph unicode="&#xc6;" horiz-adv-x="1542" d="M-45 0l500 1229h866v-160h-545v-375h512v-159h-512v-375h545v-160h-713v272h-358l-107 -272h-188zM303 432h305v625h-53z" />
<glyph unicode="&#xc7;" horiz-adv-x="1108" d="M72 0zM72 276v676q0 28 6.5 55t23.5 52q9 13 27.5 34t40.5 42.5t43.5 40.5t36.5 28q25 14 56.5 24.5t60.5 10.5h272q40 0 76 -15.5t68 -39.5t59.5 -53.5t48.5 -57.5q12 -15 25.5 -39.5t31.5 -64.5l-164 -47q-8 24 -23.5 47.5t-34.5 44t-39 36.5t-38 27q-2 0 -5 1 q-2 0 -5 0.5t-6 0.5h-256q-11 0 -19 -4q-11 -5 -26 -17t-31.5 -27.5t-31 -33t-23.5 -32.5q-3 -5 -3.5 -12t-0.5 -15v-659q0 -13 13.5 -32t32.5 -37.5t38.5 -34t31.5 -21.5q8 -4 19 -4h256q12 0 20 4q17 9 36.5 25t37.5 36t33.5 43t23.5 47l164 -43q-11 -28 -25.5 -56.5 t-31.5 -49.5q-23 -28 -50 -57.5t-58.5 -53.5t-67.5 -39.5t-76 -15.5h-270q-29 0 -61.5 10.5t-57.5 24.5q-15 9 -36.5 27.5t-43.5 39.5t-40.5 41.5t-27.5 34.5q-17 25 -23.5 53t-6.5 55zM281 -354l178 262l149 -51l-145 -211h-182z" />
<glyph unicode="&#xc8;" horiz-adv-x="1047" d="M84 0v1229h754v-160h-586v-375h553v-159h-553v-375h586v-160h-754zM238 1595h200l174 -225l-151 -41z" />
<glyph unicode="&#xc9;" horiz-adv-x="1047" d="M84 0v1229h754v-160h-586v-375h553v-159h-553v-375h586v-160h-754zM303 1362l180 231h201l-229 -272z" />
<glyph unicode="&#xca;" horiz-adv-x="1047" d="M84 0v1229h754v-160h-586v-375h553v-159h-553v-375h586v-160h-754zM172 1352l215 243h168l215 -243h-192l-107 133l-106 -133h-193z" />
<glyph unicode="&#xcb;" horiz-adv-x="1047" d="M84 0v1229h754v-160h-586v-375h553v-159h-553v-375h586v-160h-754zM193 1391v182h170v-182h-170zM523 1391v182h170v-182h-170z" />
<glyph unicode="&#xcc;" horiz-adv-x="502" d="M-94 1595h200l175 -225l-152 -41zM72 0v1229h168v-1229h-168z" />
<glyph unicode="&#xcd;" horiz-adv-x="502" d="M63 1364l181 231h200l-229 -272zM72 0v1229h168v-1229h-168z" />
<glyph unicode="&#xce;" horiz-adv-x="502" d="M-147 1352l215 243h168l215 -243h-193l-106 133l-107 -133h-192zM72 0v1229h168v-1229h-168z" />
<glyph unicode="&#xcf;" horiz-adv-x="502" d="M-94 1391v182h170v-182h-170zM72 0v1229h168v-1229h-168zM236 1391v182h170v-182h-170z" />
<glyph unicode="&#xd0;" horiz-adv-x="1202" d="M-23 543v141h154v545h565q28 0 60 -8.5t57 -24.5q15 -9 36.5 -28.5t43.5 -41.5t40.5 -43t27.5 -34q17 -25 22.5 -52t5.5 -55v-657q0 -28 -5.5 -55t-22.5 -52q-9 -14 -27.5 -34.5t-40.5 -41.5t-43.5 -39.5t-36.5 -27.5q-25 -14 -56.5 -24.5t-60.5 -10.5h-565v543h-154z M299 160h387q6 0 9 1t5 1q12 6 32.5 21.5t40 34.5t34 38.5t14.5 32.5v649q0 12 -2 16q-8 16 -23 34t-32.5 33.5t-34.5 28t-29 17.5q-4 2 -14 2h-387v-385h256v-141h-256v-383z" />
<glyph unicode="&#xd1;" horiz-adv-x="1169" d="M84 0v1229h199l512 -948v948h166v-1229h-195l-516 938v-938h-166zM84 0zM215 1390q15 39 43 67.5t63 45t74.5 20t79.5 -5.5l148 -34q26 -7 50.5 6t35.5 39l139 -35q-15 -39 -43 -68t-63 -45.5t-74.5 -20t-79.5 6.5l-146 35q-26 6 -50.5 -6.5t-35.5 -38.5z" />
<glyph unicode="&#xd2;" horiz-adv-x="1186" d="M74 0zM74 276v674q0 26 5.5 55t22.5 54q9 14 28 35t41 42.5t44 40t37 27.5q25 14 56.5 24.5t60.5 10.5h323q29 0 61.5 -10.5t57.5 -24.5q15 -9 36.5 -28t43 -40.5t40 -42.5t27.5 -34q17 -25 24 -53t7 -56v-674q0 -27 -7 -55t-24 -53q-9 -14 -27.5 -34.5t-40 -41.5 t-43 -39.5t-36.5 -27.5q-25 -14 -57.5 -24.5t-61.5 -10.5h-323q-29 0 -60.5 10.5t-56.5 24.5q-15 9 -37 27.5t-44 39.5t-41 41.5t-28 34.5q-17 25 -22.5 53.5t-5.5 54.5zM242 279q0 -12 14 -31t33.5 -38t39.5 -35t31 -21q4 -2 8.5 -3t10.5 -1h307q6 0 10.5 1t8.5 3 q12 6 31.5 21.5t38.5 34t32.5 37.5t13.5 32v667q0 11 -4 19q-8 15 -22.5 32.5t-31 33t-32.5 27.5t-26 17q-4 2 -8.5 3t-10.5 1h-307q-6 0 -10.5 -1t-8.5 -3q-12 -6 -32 -22t-39 -35.5t-33 -39t-14 -32.5v-667zM309 1597h201l174 -225l-152 -41z" />
<glyph unicode="&#xd3;" horiz-adv-x="1186" d="M74 0zM74 276v674q0 26 5.5 55t22.5 54q9 14 28 35t41 42.5t44 40t37 27.5q25 14 56.5 24.5t60.5 10.5h323q29 0 61.5 -10.5t57.5 -24.5q15 -9 36.5 -28t43 -40.5t40 -42.5t27.5 -34q17 -25 24 -53t7 -56v-674q0 -27 -7 -55t-24 -53q-9 -14 -27.5 -34.5t-40 -41.5 t-43 -39.5t-36.5 -27.5q-25 -14 -57.5 -24.5t-61.5 -10.5h-323q-29 0 -60.5 10.5t-56.5 24.5q-15 9 -37 27.5t-44 39.5t-41 41.5t-28 34.5q-17 25 -22.5 53.5t-5.5 54.5zM242 279q0 -12 14 -31t33.5 -38t39.5 -35t31 -21q4 -2 8.5 -3t10.5 -1h307q6 0 10.5 1t8.5 3 q12 6 31.5 21.5t38.5 34t32.5 37.5t13.5 32v667q0 11 -4 19q-8 15 -22.5 32.5t-31 33t-32.5 27.5t-26 17q-4 2 -8.5 3t-10.5 1h-307q-6 0 -10.5 -1t-8.5 -3q-12 -6 -32 -22t-39 -35.5t-33 -39t-14 -32.5v-667zM391 1366l180 231h201l-229 -272z" />
<glyph unicode="&#xd4;" horiz-adv-x="1186" d="M74 0zM74 276v674q0 26 5.5 55t22.5 54q9 14 28 35t41 42.5t44 40t37 27.5q25 14 56.5 24.5t60.5 10.5h323q29 0 61.5 -10.5t57.5 -24.5q15 -9 36.5 -28t43 -40.5t40 -42.5t27.5 -34q17 -25 24 -53t7 -56v-674q0 -27 -7 -55t-24 -53q-9 -14 -27.5 -34.5t-40 -41.5 t-43 -39.5t-36.5 -27.5q-25 -14 -57.5 -24.5t-61.5 -10.5h-323q-29 0 -60.5 10.5t-56.5 24.5q-15 9 -37 27.5t-44 39.5t-41 41.5t-28 34.5q-17 25 -22.5 53.5t-5.5 54.5zM234 1354l215 243h168l215 -243h-193l-106 133l-107 -133h-192zM242 279q0 -12 14 -31t33.5 -38 t39.5 -35t31 -21q4 -2 8.5 -3t10.5 -1h307q6 0 10.5 1t8.5 3q12 6 31.5 21.5t38.5 34t32.5 37.5t13.5 32v667q0 11 -4 19q-8 15 -22.5 32.5t-31 33t-32.5 27.5t-26 17q-4 2 -8.5 3t-10.5 1h-307q-6 0 -10.5 -1t-8.5 -3q-12 -6 -32 -22t-39 -35.5t-33 -39t-14 -32.5v-667z " />
<glyph unicode="&#xd5;" horiz-adv-x="1186" d="M74 0zM74 276v674q0 26 5.5 55t22.5 54q9 14 28 35t41 42.5t44 40t37 27.5q25 14 56.5 24.5t60.5 10.5h323q29 0 61.5 -10.5t57.5 -24.5q15 -9 36.5 -28t43 -40.5t40 -42.5t27.5 -34q17 -25 24 -53t7 -56v-674q0 -27 -7 -55t-24 -53q-9 -14 -27.5 -34.5t-40 -41.5 t-43 -39.5t-36.5 -27.5q-25 -14 -57.5 -24.5t-61.5 -10.5h-323q-29 0 -60.5 10.5t-56.5 24.5q-15 9 -37 27.5t-44 39.5t-41 41.5t-28 34.5q-17 25 -22.5 53.5t-5.5 54.5zM219 1392q15 39 43 67.5t63 45t74.5 20t79.5 -5.5l148 -34q26 -7 50.5 6t35.5 39l139 -35 q-15 -39 -43 -68t-63 -45.5t-74.5 -20t-79.5 6.5l-146 35q-26 6 -50.5 -6.5t-35.5 -38.5zM242 279q0 -12 14 -31t33.5 -38t39.5 -35t31 -21q4 -2 8.5 -3t10.5 -1h307q6 0 10.5 1t8.5 3q12 6 31.5 21.5t38.5 34t32.5 37.5t13.5 32v667q0 11 -4 19q-8 15 -22.5 32.5t-31 33 t-32.5 27.5t-26 17q-4 2 -8.5 3t-10.5 1h-307q-6 0 -10.5 -1t-8.5 -3q-12 -6 -32 -22t-39 -35.5t-33 -39t-14 -32.5v-667z" />
<glyph unicode="&#xd6;" horiz-adv-x="1186" d="M74 0zM74 276v674q0 26 5.5 55t22.5 54q9 14 28 35t41 42.5t44 40t37 27.5q25 14 56.5 24.5t60.5 10.5h323q29 0 61.5 -10.5t57.5 -24.5q15 -9 36.5 -28t43 -40.5t40 -42.5t27.5 -34q17 -25 24 -53t7 -56v-674q0 -27 -7 -55t-24 -53q-9 -14 -27.5 -34.5t-40 -41.5 t-43 -39.5t-36.5 -27.5q-25 -14 -57.5 -24.5t-61.5 -10.5h-323q-29 0 -60.5 10.5t-56.5 24.5q-15 9 -37 27.5t-44 39.5t-41 41.5t-28 34.5q-17 25 -22.5 53.5t-5.5 54.5zM242 279q0 -12 14 -31t33.5 -38t39.5 -35t31 -21q4 -2 8.5 -3t10.5 -1h307q6 0 10.5 1t8.5 3 q12 6 31.5 21.5t38.5 34t32.5 37.5t13.5 32v667q0 11 -4 19q-8 15 -22.5 32.5t-31 33t-32.5 27.5t-26 17q-4 2 -8.5 3t-10.5 1h-307q-6 0 -10.5 -1t-8.5 -3q-12 -6 -32 -22t-39 -35.5t-33 -39t-14 -32.5v-667zM273 1391v182h170v-182h-170zM603 1391v182h170v-182h-170z" />
<glyph unicode="&#xd7;" d="M88 770l107 104l258 -256l258 259l104 -105l-256 -260l260 -258l-106 -104l-260 258l-258 -261l-105 107l258 258z" />
<glyph unicode="&#xd8;" horiz-adv-x="1206" d="M74 276v674q0 26 5.5 55t22.5 54q9 14 28 35t41 42.5t44 40t37 27.5q25 14 56.5 24.5t60.5 10.5h344q20 0 42 -5t44 -13l43 77h137l-82 -149q25 -25 48 -50t34 -40q17 -25 24 -53t7 -56v-674q0 -27 -7 -55t-24 -53q-9 -14 -27.5 -34.5t-40.5 -41.5t-43.5 -39.5 t-36.5 -27.5q-24 -14 -56.5 -24.5t-61.5 -10.5h-344q-23 0 -49 6.5t-48 15.5l-49 -88h-139l90 164q-23 22 -42.5 43t-29.5 37q-17 25 -22.5 53.5t-5.5 54.5zM242 279q0 -16 18 -37l459 835q-2 0 -4.5 1t-7.5 1h-328q-6 0 -9 -1t-5 -1q-12 -6 -33 -22.5t-41 -36t-34.5 -39.5 t-14.5 -33v-667zM352 158l13 -6q2 0 5 -1t9 -1h328q6 0 9 1t5 1q12 6 32.5 21.5t40 34.5t34 38.5t14.5 32.5v667v10.5t-2 6.5q-5 8 -12 16.5t-15 17.5z" />
<glyph unicode="&#xd9;" horiz-adv-x="1128" d="M74 0zM74 274v955h168v-950q0 -12 15 -31t35 -38t40.5 -35t32.5 -21q3 -2 6.5 -3t9.5 -1h254q10 0 18 4q12 5 31.5 21t38.5 35.5t33 38.5t14 30v950h168v-955q0 -27 -6 -54t-23 -52q-9 -14 -27.5 -34.5t-40 -41.5t-43 -39.5t-36.5 -27.5q-25 -14 -56.5 -24.5t-60.5 -10.5 h-274q-29 0 -61.5 10.5t-57.5 24.5q-15 9 -36.5 27.5t-43.5 39.5t-40.5 41.5t-27.5 34.5q-17 25 -23.5 52t-6.5 54zM268 1597h201l174 -225l-152 -41z" />
<glyph unicode="&#xda;" horiz-adv-x="1128" d="M74 0zM74 274v955h168v-950q0 -12 15 -31t35 -38t40.5 -35t32.5 -21q3 -2 6.5 -3t9.5 -1h254q10 0 18 4q12 5 31.5 21t38.5 35.5t33 38.5t14 30v950h168v-955q0 -27 -6 -54t-23 -52q-9 -14 -27.5 -34.5t-40 -41.5t-43 -39.5t-36.5 -27.5q-25 -14 -56.5 -24.5t-60.5 -10.5 h-274q-29 0 -61.5 10.5t-57.5 24.5q-15 9 -36.5 27.5t-43.5 39.5t-40.5 41.5t-27.5 34.5q-17 25 -23.5 52t-6.5 54zM373 1366l180 231h201l-229 -272z" />
<glyph unicode="&#xdb;" horiz-adv-x="1128" d="M74 0zM74 274v955h168v-950q0 -12 15 -31t35 -38t40.5 -35t32.5 -21q3 -2 6.5 -3t9.5 -1h254q10 0 18 4q12 5 31.5 21t38.5 35.5t33 38.5t14 30v950h168v-955q0 -27 -6 -54t-23 -52q-9 -14 -27.5 -34.5t-40 -41.5t-43 -39.5t-36.5 -27.5q-25 -14 -56.5 -24.5t-60.5 -10.5 h-274q-29 0 -61.5 10.5t-57.5 24.5q-15 9 -36.5 27.5t-43.5 39.5t-40.5 41.5t-27.5 34.5q-17 25 -23.5 52t-6.5 54zM213 1354l215 243h168l215 -243h-193l-106 133l-107 -133h-192z" />
<glyph unicode="&#xdc;" horiz-adv-x="1135" d="M74 0zM74 274v955h168v-950q0 -12 15 -31t35 -38t40.5 -35t32.5 -21q3 -2 6.5 -3t9.5 -1h254q10 0 18 4q12 5 31.5 21t38.5 35.5t33 38.5t14 30v950h168v-955q0 -27 -6 -54t-23 -52q-9 -14 -27.5 -34.5t-40 -41.5t-43 -39.5t-36.5 -27.5q-25 -14 -56.5 -24.5t-60.5 -10.5 h-274q-29 0 -61.5 10.5t-57.5 24.5q-15 9 -36.5 27.5t-43.5 39.5t-40.5 41.5t-27.5 34.5q-17 25 -23.5 52t-6.5 54zM252 1391v182h170v-182h-170zM582 1391v182h170v-182h-170z" />
<glyph unicode="&#xdd;" horiz-adv-x="1040" d="M-37 1229h184l314 -537q-1 0 12 22.5t35 60.5t50 86t58 99q70 118 158 269h182l-413 -707v-522h-168v522zM328 1364l180 231h201l-230 -272z" />
<glyph unicode="&#xde;" horiz-adv-x="1090" d="M68 0v1227h168v-250h409q35 0 72 -11.5t65 -31.5q11 -8 27 -22.5t32 -30.5t30 -31.5t20 -24.5q17 -26 26 -55.5t9 -60.5v-185q0 -31 -9 -59.5t-26 -54.5q-6 -9 -20.5 -24.5t-31 -31.5t-32.5 -30.5t-27 -22.5q-28 -20 -64 -30.5t-71 -10.5h-409v-260h-168zM236 420h407 q14 0 30.5 9.5t32.5 23t29 28t19 25.5q2 2 3 8t1 14v179q0 8 -1 14t-3 8q-5 9 -17 23.5t-26.5 28.5t-29.5 24.5t-26 11.5h-12h-407v-397z" />
<glyph unicode="&#xdf;" horiz-adv-x="1085" d="M49 0l19 164v782q0 28 6 57t24 54q9 13 27.5 34.5t40 43.5t43 41t37.5 28q25 14 57.5 24.5t63.5 10.5h120q38 0 74.5 -10.5t65.5 -30.5q11 -8 25.5 -21.5t28.5 -27.5t26 -27.5t18 -21.5q19 -26 27 -57.5t8 -63.5v-31v-16q0 -32 -8 -60.5t-27 -54.5q-5 -6 -14.5 -17.5 t-21.5 -24.5t-25 -26t-23 -22l-29 -29t-24 -32q-4 -4 -4 -23v-49q0 -17 14 -32t39 -17l25 -2l61 -6q42 -4 78.5 -20.5t64.5 -42.5t44 -61t16 -75v-98q0 -63 -37 -117q-6 -9 -17 -22t-23.5 -26t-25.5 -25t-24 -19q-29 -20 -65.5 -30.5t-74.5 -10.5h-213q-30 0 -62.5 8.5 t-55.5 24.5l88 122q3 -2 10.5 -4t15.5 -2h215q14 0 29.5 8.5t30 21t26.5 26.5t19 26q4 4 4 23v96q0 17 -16.5 31t-40.5 16l-56 4l-30 2q-42 3 -78.5 19.5t-63.5 43t-43 62t-16 76.5v49q0 32 8 61.5t27 55.5q4 6 14.5 17.5t23.5 24l26 25t22 21.5q17 15 31 33t22 32q4 4 4 21 v16v27q0 18 -4 22q-6 11 -16 23.5t-22 24.5t-24.5 22t-23.5 16q-3 2 -8.5 3.5t-16.5 1.5h-114q-15 0 -36.5 -15.5t-42.5 -36t-38 -41t-23 -30.5q-2 -2 -3 -11.5t-1 -15.5v-811l-20 -129h-158z" />
<glyph unicode="&#xe0;" horiz-adv-x="987" d="M16 0zM16 244v39q0 32 8.5 62t26.5 54q6 9 18 22t25.5 26.5t27.5 26.5t25 22q28 20 65.5 29.5t74.5 9.5h331v100q0 5 -0.5 12t-5.5 15q-12 20 -37 42t-47 33q-6 3 -10.5 4.5t-13.5 1.5h-193q-14 0 -27.5 -7t-25.5 -17.5t-22.5 -22.5t-18.5 -22q-4 -5 -8.5 -11t-8.5 -12 l-10 -14l-149 45q9 22 25.5 47.5t35.5 49t38.5 43.5t35.5 32q29 20 66.5 29.5t74.5 9.5h189q37 0 75 -10.5t66 -30.5q12 -9 26.5 -22t28.5 -26.5t25.5 -26.5t17.5 -21q19 -26 26 -57t7 -62v-475l17 -162h-158l-10 70q-15 -13 -34 -27t-40 -26t-43 -19.5t-43 -7.5h-180 q-37 0 -74.5 10.5t-65.5 30.5q-11 8 -25 21t-27.5 26.5t-25.5 26.5t-18 22q-18 25 -26.5 55t-8.5 62zM166 1300h201l174 -225l-152 -41zM176 246q0 -10 1 -14t3 -7q6 -11 15.5 -22t21.5 -22t24 -20.5t23 -15.5l10 -4t15 -2h172q10 0 18 4q13 6 32.5 17.5t39.5 25t38 29.5 t29 31v143h-329q-10 0 -15 -1t-10 -3q-11 -6 -23 -16t-24 -21.5t-21.5 -23.5t-15.5 -23q-2 -3 -3 -7t-1 -13v-35z" />
<glyph unicode="&#xe1;" horiz-adv-x="987" d="M16 0zM16 244v39q0 32 8.5 62t26.5 54q6 9 18 22t25.5 26.5t27.5 26.5t25 22q28 20 65.5 29.5t74.5 9.5h331v100q0 5 -0.5 12t-5.5 15q-12 20 -37 42t-47 33q-6 3 -10.5 4.5t-13.5 1.5h-193q-14 0 -27.5 -7t-25.5 -17.5t-22.5 -22.5t-18.5 -22q-4 -5 -8.5 -11t-8.5 -12 l-10 -14l-149 45q9 22 25.5 47.5t35.5 49t38.5 43.5t35.5 32q29 20 66.5 29.5t74.5 9.5h189q37 0 75 -10.5t66 -30.5q12 -9 26.5 -22t28.5 -26.5t25.5 -26.5t17.5 -21q19 -26 26 -57t7 -62v-475l17 -162h-158l-10 70q-15 -13 -34 -27t-40 -26t-43 -19.5t-43 -7.5h-180 q-37 0 -74.5 10.5t-65.5 30.5q-11 8 -25 21t-27.5 26.5t-25.5 26.5t-18 22q-18 25 -26.5 55t-8.5 62zM176 246q0 -10 1 -14t3 -7q6 -11 15.5 -22t21.5 -22t24 -20.5t23 -15.5l10 -4t15 -2h172q10 0 18 4q13 6 32.5 17.5t39.5 25t38 29.5t29 31v143h-329q-10 0 -15 -1t-10 -3 q-11 -6 -23 -16t-24 -21.5t-21.5 -23.5t-15.5 -23q-2 -3 -3 -7t-1 -13v-35zM305 1069l180 231h201l-229 -272z" />
<glyph unicode="&#xe2;" horiz-adv-x="987" d="M16 0zM16 244v39q0 32 8.5 62t26.5 54q6 9 18 22t25.5 26.5t27.5 26.5t25 22q28 20 65.5 29.5t74.5 9.5h331v100q0 5 -0.5 12t-5.5 15q-12 20 -37 42t-47 33q-6 3 -10.5 4.5t-13.5 1.5h-193q-14 0 -27.5 -7t-25.5 -17.5t-22.5 -22.5t-18.5 -22q-4 -5 -8.5 -11t-8.5 -12 l-10 -14l-149 45q9 22 25.5 47.5t35.5 49t38.5 43.5t35.5 32q29 20 66.5 29.5t74.5 9.5h189q37 0 75 -10.5t66 -30.5q12 -9 26.5 -22t28.5 -26.5t25.5 -26.5t17.5 -21q19 -26 26 -57t7 -62v-475l17 -162h-158l-10 70q-15 -13 -34 -27t-40 -26t-43 -19.5t-43 -7.5h-180 q-37 0 -74.5 10.5t-65.5 30.5q-11 8 -25 21t-27.5 26.5t-25.5 26.5t-18 22q-18 25 -26.5 55t-8.5 62zM125 1057l215 243h168l215 -243h-193l-106 133l-107 -133h-192zM176 246q0 -10 1 -14t3 -7q6 -11 15.5 -22t21.5 -22t24 -20.5t23 -15.5l10 -4t15 -2h172q10 0 18 4 q13 6 32.5 17.5t39.5 25t38 29.5t29 31v143h-329q-10 0 -15 -1t-10 -3q-11 -6 -23 -16t-24 -21.5t-21.5 -23.5t-15.5 -23q-2 -3 -3 -7t-1 -13v-35z" />
<glyph unicode="&#xe3;" horiz-adv-x="987" d="M16 0zM16 244v39q0 32 8.5 62t26.5 54q6 9 18 22t25.5 26.5t27.5 26.5t25 22q28 20 65.5 29.5t74.5 9.5h331v100q0 5 -0.5 12t-5.5 15q-12 20 -37 42t-47 33q-6 3 -10.5 4.5t-13.5 1.5h-193q-14 0 -27.5 -7t-25.5 -17.5t-22.5 -22.5t-18.5 -22q-4 -5 -8.5 -11t-8.5 -12 l-10 -14l-149 45q9 22 25.5 47.5t35.5 49t38.5 43.5t35.5 32q29 20 66.5 29.5t74.5 9.5h189q37 0 75 -10.5t66 -30.5q12 -9 26.5 -22t28.5 -26.5t25.5 -26.5t17.5 -21q19 -26 26 -57t7 -62v-475l17 -162h-158l-10 70q-15 -13 -34 -27t-40 -26t-43 -19.5t-43 -7.5h-180 q-37 0 -74.5 10.5t-65.5 30.5q-11 8 -25 21t-27.5 26.5t-25.5 26.5t-18 22q-18 25 -26.5 55t-8.5 62zM107 1124q15 39 43 67.5t63 45t74.5 20t79.5 -5.5l148 -34q26 -7 50.5 6t35.5 39l139 -35q-15 -39 -43 -68t-63 -45.5t-74.5 -20t-79.5 6.5l-146 35q-26 6 -50.5 -6.5 t-35.5 -38.5zM176 246q0 -10 1 -14t3 -7q6 -11 15.5 -22t21.5 -22t24 -20.5t23 -15.5l10 -4t15 -2h172q10 0 18 4q13 6 32.5 17.5t39.5 25t38 29.5t29 31v143h-329q-10 0 -15 -1t-10 -3q-11 -6 -23 -16t-24 -21.5t-21.5 -23.5t-15.5 -23q-2 -3 -3 -7t-1 -13v-35z" />
<glyph unicode="&#xe4;" horiz-adv-x="987" d="M16 0zM16 244v39q0 32 8.5 62t26.5 54q6 9 18 22t25.5 26.5t27.5 26.5t25 22q28 20 65.5 29.5t74.5 9.5h331v100q0 5 -0.5 12t-5.5 15q-12 20 -37 42t-47 33q-6 3 -10.5 4.5t-13.5 1.5h-193q-14 0 -27.5 -7t-25.5 -17.5t-22.5 -22.5t-18.5 -22q-4 -5 -8.5 -11t-8.5 -12 l-10 -14l-149 45q9 22 25.5 47.5t35.5 49t38.5 43.5t35.5 32q29 20 66.5 29.5t74.5 9.5h189q37 0 75 -10.5t66 -30.5q12 -9 26.5 -22t28.5 -26.5t25.5 -26.5t17.5 -21q19 -26 26 -57t7 -62v-475l17 -162h-158l-10 70q-15 -13 -34 -27t-40 -26t-43 -19.5t-43 -7.5h-180 q-37 0 -74.5 10.5t-65.5 30.5q-11 8 -25 21t-27.5 26.5t-25.5 26.5t-18 22q-18 25 -26.5 55t-8.5 62zM162 1065v182h170v-182h-170zM176 246q0 -10 1 -14t3 -7q6 -11 15.5 -22t21.5 -22t24 -20.5t23 -15.5l10 -4t15 -2h172q10 0 18 4q13 6 32.5 17.5t39.5 25t38 29.5t29 31 v143h-329q-10 0 -15 -1t-10 -3q-11 -6 -23 -16t-24 -21.5t-21.5 -23.5t-15.5 -23q-2 -3 -3 -7t-1 -13v-35zM492 1065v182h170v-182h-170z" />
<glyph unicode="&#xe5;" horiz-adv-x="1008" d="M16 0zM16 244v39q0 32 8.5 62t26.5 54q6 9 18 22t25.5 26.5t27.5 26.5t25 22q28 20 65.5 29.5t74.5 9.5h331v100q0 5 -0.5 12t-5.5 15q-12 20 -37 42t-47 33q-6 3 -10.5 4.5t-13.5 1.5h-193q-14 0 -27.5 -7t-25.5 -17.5t-22.5 -22.5t-18.5 -22q-4 -5 -8.5 -11t-8.5 -12 l-10 -14l-149 45q9 22 25.5 47.5t35.5 49t38.5 43.5t35.5 32q29 20 66.5 29.5t74.5 9.5h189q37 0 75 -10.5t66 -30.5q12 -9 26.5 -22t28.5 -26.5t25.5 -26.5t17.5 -21q19 -26 26 -57t7 -62v-475l17 -162h-158l-10 70q-15 -13 -34 -27t-40 -26t-43 -19.5t-43 -7.5h-180 q-37 0 -74.5 10.5t-65.5 30.5q-11 8 -25 21t-27.5 26.5t-25.5 26.5t-18 22q-18 25 -26.5 55t-8.5 62zM176 246q0 -10 1 -14t3 -7q6 -11 15.5 -22t21.5 -22t24 -20.5t23 -15.5l10 -4t15 -2h172q10 0 18 4q13 6 32.5 17.5t39.5 25t38 29.5t29 31v143h-329q-10 0 -15 -1t-10 -3 q-11 -6 -23 -16t-24 -21.5t-21.5 -23.5t-15.5 -23q-2 -3 -3 -7t-1 -13v-35zM229 1227q0 41 15 76.5t41 61.5t62.5 41t78.5 15q43 0 80 -15t64 -41t42 -61.5t15 -76.5q0 -42 -15 -78t-42 -62t-64 -40.5t-80 -14.5q-42 0 -78.5 14.5t-62.5 40.5t-41 62t-15 78zM330 1227 q0 -44 28 -73.5t68 -29.5q21 0 39.5 8t32.5 22t22 32.5t8 40.5q0 21 -8 39t-22 31.5t-32.5 21.5t-39.5 8q-20 0 -37.5 -8t-30.5 -21.5t-20.5 -31.5t-7.5 -39z" />
<glyph unicode="&#xe6;" horiz-adv-x="1561" d="M12 244v41q0 32 8.5 59t26.5 53q6 9 17.5 22t25 26.5t28 26t25.5 20.5q28 20 65 31.5t75 11.5h344v100v8q0 11 -10.5 25t-25.5 27.5t-30 25t-24 16.5q-4 2 -10.5 4t-14.5 2h-205q-11 0 -15 -1t-7 -3q-31 -15 -56.5 -45t-42.5 -61l-149 49q14 26 23 40.5t18 27.5 q6 8 17.5 22t25 29t27.5 28.5t26 22.5q28 20 65 30.5t74 10.5h201q33 0 59.5 -6.5t49.5 -18t43.5 -28t40.5 -37.5q40 42 83 66t109 24h225q38 0 75 -11.5t65 -31.5q11 -8 25.5 -21t28.5 -27t26 -27.5t18 -22.5q18 -26 26.5 -56t8.5 -61v-250h-611v-137v-7.5t2 -7.5 q6 -11 17 -23.5t23 -24.5t25 -22t24 -16q3 -2 9.5 -4t14.5 -2h232q8 0 14.5 2t9.5 4q29 16 54 45t42 60l152 -51q-12 -23 -27.5 -47t-33.5 -46.5t-37.5 -42t-38.5 -32.5q-28 -20 -65 -30.5t-75 -10.5h-229q-33 0 -59.5 6t-49.5 17.5t-43 27.5t-40 37q-20 -20 -40.5 -36 t-44 -27.5t-50 -18t-58.5 -6.5h-41h-180h-10q-38 0 -75 10.5t-65 30.5q-11 7 -25.5 20t-28 27t-25 28t-17.5 23q-35 51 -35 113zM172 248q0 -19 2 -21q5 -9 16 -22t24.5 -25.5t28 -23t25.5 -13.5q6 -2 9.5 -2h9.5h225q8 0 14.5 2t10.5 4q10 6 23 16t25 22t23 24.5t17 23.5 q2 3 2 19v135h-342q-15 0 -32 -9t-32 -21.5t-27.5 -27t-19.5 -26.5q-2 -2 -2 -22v-33zM786 530h451v103q0 18 -2 20q-6 11 -16.5 23.5t-22.5 24t-25 21.5t-24 15q-3 2 -10 4t-15 2h-221q-8 0 -14.5 -2t-9.5 -4q-8 -4 -22.5 -14.5t-29 -23.5t-26 -26t-13.5 -22v-14v-107z" />
<glyph unicode="&#xe7;" horiz-adv-x="977" d="M53 0zM53 246v391q0 31 7 61t26 56q6 8 18 21t26 27.5t28.5 27.5t25.5 22q28 20 66 30.5t76 10.5h202q38 0 75 -10.5t65 -30.5q18 -12 38 -32.5t39 -44t35 -48.5t25 -47l-150 -47q-8 16 -21.5 35.5t-29.5 36t-34.5 27.5t-37.5 11h-204q-10 0 -14.5 -1.5t-10.5 -4.5 q-11 -5 -24 -14.5t-25 -21t-22 -23.5t-15 -23q-3 -6 -3.5 -9.5t-0.5 -12.5v-383q0 -9 1 -14.5t3 -8.5q5 -11 15 -23t22 -23t25 -20.5t24 -15.5q6 -3 10.5 -4.5t14.5 -1.5h211q9 0 14 2l10 4q29 16 54 45t42 60l150 -49q-11 -26 -21 -43.5t-18 -28.5q-6 -9 -17.5 -22 t-25 -27.5t-27.5 -27.5t-26 -21q-28 -20 -65 -30.5t-74 -10.5h-209q-38 0 -76 10.5t-66 30.5q-11 8 -25.5 21t-28.5 27.5t-26 27.5t-18 22q-19 26 -26 56t-7 61zM213 -354l178 262l149 -51l-145 -211h-182z" />
<glyph unicode="&#xe8;" horiz-adv-x="989" d="M53 0zM53 246v391q0 32 8 62t27 55q6 8 18 21t26 27.5t28.5 27.5t25.5 22q28 20 66.5 30.5t75.5 10.5h204q38 0 76 -10.5t66 -30.5q12 -9 26.5 -22t28.5 -27.5t25.5 -27.5t17.5 -21q19 -26 26 -56t7 -61v-264h-592v-123q0 -9 1 -14.5t3 -8.5q4 -8 13 -19.5t20.5 -23.5 t24.5 -22.5t26 -16.5q12 -6 27 -6h207q9 0 13.5 1.5t10.5 4.5q11 6 23.5 15.5t24 21t21.5 23.5t15 22l12 23l150 -49q-10 -23 -25.5 -47.5t-33.5 -47.5t-37.5 -42.5t-38.5 -32.5q-28 -20 -65 -30.5t-75 -10.5h-202q-37 0 -75.5 10.5t-66.5 30.5q-11 8 -25.5 21t-28.5 27.5 t-26 27.5t-18 22q-19 25 -27 55t-8 62zM166 1300h201l174 -225l-152 -41zM213 518h432v115v11t-2 11q-5 11 -15.5 23t-23 23.5t-25.5 21t-24 14.5q-6 3 -10.5 4.5t-14.5 1.5h-202q-5 0 -12.5 -1.5t-12.5 -4.5q-31 -17 -53 -38t-33 -44q-4 -4 -4 -22v-115z" />
<glyph unicode="&#xe9;" horiz-adv-x="989" d="M53 0zM53 246v391q0 32 8 62t27 55q6 8 18 21t26 27.5t28.5 27.5t25.5 22q28 20 66.5 30.5t75.5 10.5h204q38 0 76 -10.5t66 -30.5q12 -9 26.5 -22t28.5 -27.5t25.5 -27.5t17.5 -21q19 -26 26 -56t7 -61v-264h-592v-123q0 -9 1 -14.5t3 -8.5q4 -8 13 -19.5t20.5 -23.5 t24.5 -22.5t26 -16.5q12 -6 27 -6h207q9 0 13.5 1.5t10.5 4.5q11 6 23.5 15.5t24 21t21.5 23.5t15 22l12 23l150 -49q-10 -23 -25.5 -47.5t-33.5 -47.5t-37.5 -42.5t-38.5 -32.5q-28 -20 -65 -30.5t-75 -10.5h-202q-37 0 -75.5 10.5t-66.5 30.5q-11 8 -25.5 21t-28.5 27.5 t-26 27.5t-18 22q-19 25 -27 55t-8 62zM213 518h432v115v11t-2 11q-5 11 -15.5 23t-23 23.5t-25.5 21t-24 14.5q-6 3 -10.5 4.5t-14.5 1.5h-202q-5 0 -12.5 -1.5t-12.5 -4.5q-31 -17 -53 -38t-33 -44q-4 -4 -4 -22v-115zM305 1069l180 231h201l-229 -272z" />
<glyph unicode="&#xea;" horiz-adv-x="989" d="M53 0zM53 246v391q0 32 8 62t27 55q6 8 18 21t26 27.5t28.5 27.5t25.5 22q28 20 66.5 30.5t75.5 10.5h204q38 0 76 -10.5t66 -30.5q12 -9 26.5 -22t28.5 -27.5t25.5 -27.5t17.5 -21q19 -26 26 -56t7 -61v-264h-592v-123q0 -9 1 -14.5t3 -8.5q4 -8 13 -19.5t20.5 -23.5 t24.5 -22.5t26 -16.5q12 -6 27 -6h207q9 0 13.5 1.5t10.5 4.5q11 6 23.5 15.5t24 21t21.5 23.5t15 22l12 23l150 -49q-10 -23 -25.5 -47.5t-33.5 -47.5t-37.5 -42.5t-38.5 -32.5q-28 -20 -65 -30.5t-75 -10.5h-202q-37 0 -75.5 10.5t-66.5 30.5q-11 8 -25.5 21t-28.5 27.5 t-26 27.5t-18 22q-19 25 -27 55t-8 62zM141 1057l215 243h168l215 -243h-193l-106 133l-107 -133h-192zM213 518h432v115v11t-2 11q-5 11 -15.5 23t-23 23.5t-25.5 21t-24 14.5q-6 3 -10.5 4.5t-14.5 1.5h-202q-5 0 -12.5 -1.5t-12.5 -4.5q-31 -17 -53 -38t-33 -44 q-4 -4 -4 -22v-115z" />
<glyph unicode="&#xeb;" horiz-adv-x="989" d="M53 0zM53 246v391q0 32 8 62t27 55q6 8 18 21t26 27.5t28.5 27.5t25.5 22q28 20 66.5 30.5t75.5 10.5h204q38 0 76 -10.5t66 -30.5q12 -9 26.5 -22t28.5 -27.5t25.5 -27.5t17.5 -21q19 -26 26 -56t7 -61v-264h-592v-123q0 -9 1 -14.5t3 -8.5q4 -8 13 -19.5t20.5 -23.5 t24.5 -22.5t26 -16.5q12 -6 27 -6h207q9 0 13.5 1.5t10.5 4.5q11 6 23.5 15.5t24 21t21.5 23.5t15 22l12 23l150 -49q-10 -23 -25.5 -47.5t-33.5 -47.5t-37.5 -42.5t-38.5 -32.5q-28 -20 -65 -30.5t-75 -10.5h-202q-37 0 -75.5 10.5t-66.5 30.5q-11 8 -25.5 21t-28.5 27.5 t-26 27.5t-18 22q-19 25 -27 55t-8 62zM182 1065v182h170v-182h-170zM213 518h432v115v11t-2 11q-5 11 -15.5 23t-23 23.5t-25.5 21t-24 14.5q-6 3 -10.5 4.5t-14.5 1.5h-202q-5 0 -12.5 -1.5t-12.5 -4.5q-31 -17 -53 -38t-33 -44q-4 -4 -4 -22v-115zM512 1065v182h170v-182 h-170z" />
<glyph unicode="&#xec;" horiz-adv-x="442" d="M-154 1300h201l174 -225l-151 -41zM72 0v883h159v-883h-159z" />
<glyph unicode="&#xed;" horiz-adv-x="442" d="M72 0v883h159v-883h-159zM72 1069l180 231h201l-230 -272z" />
<glyph unicode="&#xee;" horiz-adv-x="442" d="M-143 1057l215 243h168l215 -243h-193l-106 133l-107 -133h-192zM72 0v883h159v-883h-159z" />
<glyph unicode="&#xef;" horiz-adv-x="442" d="M-100 1065v182h170v-182h-170zM72 0v883h159v-883h-159zM230 1065v182h170v-182h-170z" />
<glyph unicode="&#xf0;" horiz-adv-x="991" d="M53 256v373q0 31 9 60.5t26 55.5q6 9 19.5 24t29 31t31.5 30t27 22q27 20 63.5 30.5t71.5 10.5h155q23 0 46 -9.5t43.5 -24t38 -32t30.5 -32.5v57q0 22 -15 44.5t-38 35.5l-158 78l-135 -66l-66 125l48 21l-123 63l69 133l226 -112l190 98l68 -125l-105 -55l53 -27 q63 -32 104.5 -83t41.5 -122v-604q0 -64 -35 -117q-6 -9 -19.5 -24t-30 -31.5t-32.5 -31t-27 -21.5q-27 -20 -63.5 -31.5t-71.5 -11.5h-194q-35 0 -71.5 11.5t-63.5 31.5q-11 7 -27 21.5t-31.5 31t-29 31.5t-19.5 24q-17 26 -26 56t-9 61zM213 254q0 -15 4 -21 q6 -11 18.5 -27t28.5 -31t32.5 -25.5t31.5 -10.5h200q13 0 30 10.5t33.5 25.5t29.5 31t18 27q4 6 4 21v369q-8 15 -24.5 32t-37.5 33t-42.5 29.5t-38.5 21.5q-3 1 -7 2q-8 2 -12 2h-153q-15 0 -31.5 -10t-32.5 -24.5t-28.5 -30t-18.5 -27.5q-4 -4 -4 -20v-377z" />
<glyph unicode="&#xf1;" horiz-adv-x="1004" d="M51 0zM51 883h160l8 -72q15 14 34 28.5t40 26.5t43 19.5t43 7.5h153q38 0 76 -10.5t66 -30.5q12 -9 26.5 -22t28.5 -27.5t25.5 -27.5t17.5 -21q19 -26 26 -56t7 -61v-637h-160v633v11t-2 11q-5 11 -15.5 23.5t-23 24t-25.5 21.5t-24 15q-8 4 -25 4h-145q-15 0 -38.5 -13 t-47.5 -30t-44 -35t-28 -28v-637h-159v719zM145 1124q15 39 43 67.5t63 45t74.5 20t79.5 -5.5l148 -34q26 -7 50.5 6t35.5 39l139 -35q-15 -39 -43 -68t-63 -45.5t-74.5 -20t-79.5 6.5l-146 35q-26 6 -50.5 -6.5t-35.5 -38.5z" />
<glyph unicode="&#xf2;" horiz-adv-x="991" d="M53 0zM53 246v391q0 31 7 61t26 56q6 8 18 21t26 27.5t28.5 27.5t25.5 22q28 20 66 30.5t76 10.5h204q38 0 76 -10.5t66 -30.5q11 -9 25.5 -22t28.5 -27.5t26 -27.5t18 -21q19 -26 26 -56t7 -61v-391q0 -31 -7 -61t-26 -56q-6 -9 -18 -22t-26 -27.5t-28.5 -27.5 t-25.5 -21q-28 -20 -66 -30.5t-76 -10.5h-204q-38 0 -76 10.5t-66 30.5q-11 8 -25.5 21t-28.5 27.5t-26 27.5t-18 22q-19 26 -26 56t-7 61zM209 1300h201l174 -225l-152 -41zM213 250q0 -9 1 -14.5t3 -8.5q5 -11 15.5 -23t23 -23t25.5 -20.5t24 -15.5q6 -3 10.5 -4.5 t14.5 -1.5h198q10 0 14.5 1.5t10.5 4.5q8 5 21 14.5t26 21t23.5 23t15.5 19.5q3 6 3.5 14t0.5 13v383q0 11 -1.5 17.5t-4.5 11.5q-14 20 -35.5 39.5t-44.5 33.5q-5 3 -12 5.5t-17 2.5h-198q-10 0 -16 -2t-9 -4q-11 -5 -24 -14.5t-25 -21t-22.5 -23.5t-16.5 -23q-2 -3 -3 -8 t-1 -14v-383z" />
<glyph unicode="&#xf3;" horiz-adv-x="991" d="M53 0zM53 246v391q0 31 7 61t26 56q6 8 18 21t26 27.5t28.5 27.5t25.5 22q28 20 66 30.5t76 10.5h204q38 0 76 -10.5t66 -30.5q11 -9 25.5 -22t28.5 -27.5t26 -27.5t18 -21q19 -26 26 -56t7 -61v-391q0 -31 -7 -61t-26 -56q-6 -9 -18 -22t-26 -27.5t-28.5 -27.5 t-25.5 -21q-28 -20 -66 -30.5t-76 -10.5h-204q-38 0 -76 10.5t-66 30.5q-11 8 -25.5 21t-28.5 27.5t-26 27.5t-18 22q-19 26 -26 56t-7 61zM213 250q0 -9 1 -14.5t3 -8.5q5 -11 15.5 -23t23 -23t25.5 -20.5t24 -15.5q6 -3 10.5 -4.5t14.5 -1.5h198q10 0 14.5 1.5t10.5 4.5 q8 5 21 14.5t26 21t23.5 23t15.5 19.5q3 6 3.5 14t0.5 13v383q0 11 -1.5 17.5t-4.5 11.5q-14 20 -35.5 39.5t-44.5 33.5q-5 3 -12 5.5t-17 2.5h-198q-10 0 -16 -2t-9 -4q-11 -5 -24 -14.5t-25 -21t-22.5 -23.5t-16.5 -23q-2 -3 -3 -8t-1 -14v-383zM305 1069l180 231h201 l-229 -272z" />
<glyph unicode="&#xf4;" horiz-adv-x="991" d="M53 0zM53 246v391q0 31 7 61t26 56q6 8 18 21t26 27.5t28.5 27.5t25.5 22q28 20 66 30.5t76 10.5h204q38 0 76 -10.5t66 -30.5q11 -9 25.5 -22t28.5 -27.5t26 -27.5t18 -21q19 -26 26 -56t7 -61v-391q0 -31 -7 -61t-26 -56q-6 -9 -18 -22t-26 -27.5t-28.5 -27.5 t-25.5 -21q-28 -20 -66 -30.5t-76 -10.5h-204q-38 0 -76 10.5t-66 30.5q-11 8 -25.5 21t-28.5 27.5t-26 27.5t-18 22q-19 26 -26 56t-7 61zM125 1057l215 243h168l215 -243h-193l-106 133l-107 -133h-192zM213 250q0 -9 1 -14.5t3 -8.5q5 -11 15.5 -23t23 -23t25.5 -20.5 t24 -15.5q6 -3 10.5 -4.5t14.5 -1.5h198q10 0 14.5 1.5t10.5 4.5q8 5 21 14.5t26 21t23.5 23t15.5 19.5q3 6 3.5 14t0.5 13v383q0 11 -1.5 17.5t-4.5 11.5q-14 20 -35.5 39.5t-44.5 33.5q-5 3 -12 5.5t-17 2.5h-198q-10 0 -16 -2t-9 -4q-11 -5 -24 -14.5t-25 -21 t-22.5 -23.5t-16.5 -23q-2 -3 -3 -8t-1 -14v-383z" />
<glyph unicode="&#xf5;" horiz-adv-x="991" d="M53 0zM53 246v391q0 31 7 61t26 56q6 8 18 21t26 27.5t28.5 27.5t25.5 22q28 20 66 30.5t76 10.5h204q38 0 76 -10.5t66 -30.5q11 -9 25.5 -22t28.5 -27.5t26 -27.5t18 -21q19 -26 26 -56t7 -61v-391q0 -31 -7 -61t-26 -56q-6 -9 -18 -22t-26 -27.5t-28.5 -27.5 t-25.5 -21q-28 -20 -66 -30.5t-76 -10.5h-204q-38 0 -76 10.5t-66 30.5q-11 8 -25.5 21t-28.5 27.5t-26 27.5t-18 22q-19 26 -26 56t-7 61zM121 1124q15 39 43 67.5t63 45t74.5 20t79.5 -5.5l148 -34q26 -7 50.5 6t35.5 39l139 -35q-15 -39 -43 -68t-63 -45.5t-74.5 -20 t-79.5 6.5l-146 35q-26 6 -50.5 -6.5t-35.5 -38.5zM213 250q0 -9 1 -14.5t3 -8.5q5 -11 15.5 -23t23 -23t25.5 -20.5t24 -15.5q6 -3 10.5 -4.5t14.5 -1.5h198q10 0 14.5 1.5t10.5 4.5q8 5 21 14.5t26 21t23.5 23t15.5 19.5q3 6 3.5 14t0.5 13v383q0 11 -1.5 17.5t-4.5 11.5 q-14 20 -35.5 39.5t-44.5 33.5q-5 3 -12 5.5t-17 2.5h-198q-10 0 -16 -2t-9 -4q-11 -5 -24 -14.5t-25 -21t-22.5 -23.5t-16.5 -23q-2 -3 -3 -8t-1 -14v-383z" />
<glyph unicode="&#xf6;" horiz-adv-x="991" d="M53 0zM53 246v391q0 31 7 61t26 56q6 8 18 21t26 27.5t28.5 27.5t25.5 22q28 20 66 30.5t76 10.5h204q38 0 76 -10.5t66 -30.5q11 -9 25.5 -22t28.5 -27.5t26 -27.5t18 -21q19 -26 26 -56t7 -61v-391q0 -31 -7 -61t-26 -56q-6 -9 -18 -22t-26 -27.5t-28.5 -27.5 t-25.5 -21q-28 -20 -66 -30.5t-76 -10.5h-204q-38 0 -76 10.5t-66 30.5q-11 8 -25.5 21t-28.5 27.5t-26 27.5t-18 22q-19 26 -26 56t-7 61zM178 1065v182h170v-182h-170zM213 250q0 -9 1 -14.5t3 -8.5q5 -11 15.5 -23t23 -23t25.5 -20.5t24 -15.5q6 -3 10.5 -4.5t14.5 -1.5 h198q10 0 14.5 1.5t10.5 4.5q8 5 21 14.5t26 21t23.5 23t15.5 19.5q3 6 3.5 14t0.5 13v383q0 11 -1.5 17.5t-4.5 11.5q-14 20 -35.5 39.5t-44.5 33.5q-5 3 -12 5.5t-17 2.5h-198q-10 0 -16 -2t-9 -4q-11 -5 -24 -14.5t-25 -21t-22.5 -23.5t-16.5 -23q-2 -3 -3 -8t-1 -14 v-383zM508 1065v182h170v-182h-170z" />
<glyph unicode="&#xf7;" horiz-adv-x="952" d="M53 434v150h715v-150h-715zM311 125v217h209v-217h-209zM311 674v217h209v-217h-209z" />
<glyph unicode="&#xf8;" horiz-adv-x="1012" d="M53 246v391q0 31 7 61t26 56q6 8 18 21t26 27.5t28.5 27.5t25.5 22q28 20 66 30.5t76 10.5h225q15 0 31.5 -1.5t31.5 -6.5l37 67h137l-69 -123q22 -20 42 -41.5t30 -33.5q18 -26 25 -56t7 -61v-391q0 -31 -7 -61t-25 -56q-6 -9 -18 -22t-26 -27.5t-28.5 -27.5t-26.5 -21 q-28 -20 -66 -30.5t-75 -10.5h-225q-17 0 -35 1.5t-35 6.5l-41 -74h-137l74 133q-20 19 -39 39.5t-27 32.5q-19 26 -26 56t-7 61zM213 250q0 -19 4 -23q3 -6 7 -12t9 -12l302 540h-205q-10 0 -15 -2l-10 -4q-11 -6 -24 -15.5t-25 -20.5t-22.5 -23t-16.5 -23q-2 -3 -3 -8 t-1 -14v-383zM334 139h215q9 0 14 2l10 4q9 5 24 16t29.5 24t25.5 26t12 22v400v11t-2 11l-23 29z" />
<glyph unicode="&#xf9;" horiz-adv-x="999" d="M53 0zM53 248v635h160v-631v-11.5t2 -11.5q6 -11 16.5 -23t22.5 -24t25 -21.5t24 -15.5q6 -3 10.5 -3.5t14.5 -0.5h145q15 0 38.5 12.5t47.5 30t44 35t28 27.5v637h160v-719l16 -164h-160l-8 72q-15 -14 -34 -28t-39.5 -25.5t-42.5 -19t-44 -7.5h-153q-38 0 -76 10.5 t-66 30.5q-11 8 -25.5 21.5t-28.5 27.5t-26 27.5t-18 21.5q-19 26 -26 56t-7 61zM168 1300h201l174 -225l-152 -41z" />
<glyph unicode="&#xfa;" horiz-adv-x="999" d="M53 0zM53 248v635h160v-631v-11.5t2 -11.5q6 -11 16.5 -23t22.5 -24t25 -21.5t24 -15.5q6 -3 10.5 -3.5t14.5 -0.5h145q15 0 38.5 12.5t47.5 30t44 35t28 27.5v637h160v-719l16 -164h-160l-8 72q-15 -14 -34 -28t-39.5 -25.5t-42.5 -19t-44 -7.5h-153q-38 0 -76 10.5 t-66 30.5q-11 8 -25.5 21.5t-28.5 27.5t-26 27.5t-18 21.5q-19 26 -26 56t-7 61zM305 1069l180 231h201l-229 -272z" />
<glyph unicode="&#xfb;" horiz-adv-x="999" d="M53 0zM53 248v635h160v-631v-11.5t2 -11.5q6 -11 16.5 -23t22.5 -24t25 -21.5t24 -15.5q6 -3 10.5 -3.5t14.5 -0.5h145q15 0 38.5 12.5t47.5 30t44 35t28 27.5v637h160v-719l16 -164h-160l-8 72q-15 -14 -34 -28t-39.5 -25.5t-42.5 -19t-44 -7.5h-153q-38 0 -76 10.5 t-66 30.5q-11 8 -25.5 21.5t-28.5 27.5t-26 27.5t-18 21.5q-19 26 -26 56t-7 61zM133 1057l215 243h168l215 -243h-193l-106 133l-107 -133h-192z" />
<glyph unicode="&#xfc;" horiz-adv-x="999" d="M53 0zM53 248v635h160v-631v-11.5t2 -11.5q6 -11 16.5 -23t22.5 -24t25 -21.5t24 -15.5q6 -3 10.5 -3.5t14.5 -0.5h145q15 0 38.5 12.5t47.5 30t44 35t28 27.5v637h160v-719l16 -164h-160l-8 72q-15 -14 -34 -28t-39.5 -25.5t-42.5 -19t-44 -7.5h-153q-38 0 -76 10.5 t-66 30.5q-11 8 -25.5 21.5t-28.5 27.5t-26 27.5t-18 21.5q-19 26 -26 56t-7 61zM162 1065v182h170v-182h-170zM492 1065v182h170v-182h-170z" />
<glyph unicode="&#xfd;" horiz-adv-x="881" d="M-29 883h172l230 -686l231 686h166l-424 -1237h-160l119 354h-31zM274 1069l181 231h200l-229 -272z" />
<glyph unicode="&#xfe;" horiz-adv-x="1010" d="M66 -356v1585h159v-359l-6 -65q15 15 34 30t40.5 27.5t44 20.5t45.5 8h160q37 0 74 -11.5t65 -31.5q12 -9 26.5 -22t28.5 -27.5t25.5 -27.5t17.5 -21q19 -26 27 -56.5t8 -62.5v-383q0 -32 -8 -63t-27 -56q-6 -9 -17.5 -22.5t-25.5 -28t-28.5 -28t-26.5 -21.5 q-28 -20 -65 -30.5t-74 -10.5h-160q-21 0 -43 7t-42 18t-39 25t-34 28v-422h-159zM225 254q8 -12 28.5 -31.5t45 -38.5t49.5 -33t41 -14h152q9 0 14 1t10 3q11 6 23.5 17t24.5 23t22 24.5t16 23.5q4 4 4 23v375q0 18 -4 22q-6 11 -16 23.5t-22 24.5t-24.5 22t-23.5 16l-10 4 t-14 2h-152q-15 0 -40 -14t-49.5 -32.5t-45.5 -38t-29 -29.5v-373z" />
<glyph unicode="&#xff;" horiz-adv-x="881" d="M-29 883h172l230 -686l231 686h166l-424 -1237h-160l119 354h-31zM0 0zM121 1065v182h170v-182h-170zM451 1065v182h170v-182h-170z" />
<glyph unicode="&#x100;" horiz-adv-x="1159" d="M-18 0l428 1229h221l428 -1229h-180l-93 274h-532l-94 -274h-178zM307 432h426l-213 625zM315 1370v154h414v-154h-414z" />
<glyph unicode="&#x101;" horiz-adv-x="987" d="M16 0zM16 244v39q0 32 8.5 62t26.5 54q6 9 18 22t25.5 26.5t27.5 26.5t25 22q28 20 65.5 29.5t74.5 9.5h331v100q0 5 -0.5 12t-5.5 15q-12 20 -37 42t-47 33q-6 3 -10.5 4.5t-13.5 1.5h-193q-14 0 -27.5 -7t-25.5 -17.5t-22.5 -22.5t-18.5 -22q-4 -5 -8.5 -11t-8.5 -12 l-10 -14l-149 45q9 22 25.5 47.5t35.5 49t38.5 43.5t35.5 32q29 20 66.5 29.5t74.5 9.5h189q37 0 75 -10.5t66 -30.5q12 -9 26.5 -22t28.5 -26.5t25.5 -26.5t17.5 -21q19 -26 26 -57t7 -62v-475l17 -162h-158l-10 70q-15 -13 -34 -27t-40 -26t-43 -19.5t-43 -7.5h-180 q-37 0 -74.5 10.5t-65.5 30.5q-11 8 -25 21t-27.5 26.5t-25.5 26.5t-18 22q-18 25 -26.5 55t-8.5 62zM176 246q0 -10 1 -14t3 -7q6 -11 15.5 -22t21.5 -22t24 -20.5t23 -15.5l10 -4t15 -2h172q10 0 18 4q13 6 32.5 17.5t39.5 25t38 29.5t29 31v143h-329q-10 0 -15 -1t-10 -3 q-11 -6 -23 -16t-24 -21.5t-21.5 -23.5t-15.5 -23q-2 -3 -3 -7t-1 -13v-35zM201 1081v146h413v-146h-413z" />
<glyph unicode="&#x102;" horiz-adv-x="1159" d="M-18 0l428 1229h221l428 -1229h-180l-93 274h-532l-94 -274h-178zM307 432h426l-213 625zM332 1536h100q0 -43 28 -72.5t68 -29.5q21 0 39.5 8t33 21.5t22.5 32.5t8 40h98q0 -42 -15 -78t-42 -62t-64 -40.5t-80 -14.5q-42 0 -78 14.5t-62 40.5t-41 62t-15 78z" />
<glyph unicode="&#x103;" horiz-adv-x="987" d="M16 0zM16 244v39q0 32 8.5 62t26.5 54q6 9 18 22t25.5 26.5t27.5 26.5t25 22q28 20 65.5 29.5t74.5 9.5h331v100q0 5 -0.5 12t-5.5 15q-12 20 -37 42t-47 33q-6 3 -10.5 4.5t-13.5 1.5h-193q-14 0 -27.5 -7t-25.5 -17.5t-22.5 -22.5t-18.5 -22q-4 -5 -8.5 -11t-8.5 -12 l-10 -14l-149 45q9 22 25.5 47.5t35.5 49t38.5 43.5t35.5 32q29 20 66.5 29.5t74.5 9.5h189q37 0 75 -10.5t66 -30.5q12 -9 26.5 -22t28.5 -26.5t25.5 -26.5t17.5 -21q19 -26 26 -57t7 -62v-475l17 -162h-158l-10 70q-15 -13 -34 -27t-40 -26t-43 -19.5t-43 -7.5h-180 q-37 0 -74.5 10.5t-65.5 30.5q-11 8 -25 21t-27.5 26.5t-25.5 26.5t-18 22q-18 25 -26.5 55t-8.5 62zM176 246q0 -10 1 -14t3 -7q6 -11 15.5 -22t21.5 -22t24 -20.5t23 -15.5l10 -4t15 -2h172q10 0 18 4q13 6 32.5 17.5t39.5 25t38 29.5t29 31v143h-329q-10 0 -15 -1t-10 -3 q-11 -6 -23 -16t-24 -21.5t-21.5 -23.5t-15.5 -23q-2 -3 -3 -7t-1 -13v-35zM233 1241h101q0 -43 28 -72.5t68 -29.5q21 0 39.5 8t32.5 21.5t22 32.5t8 40h99q0 -42 -15 -78t-42 -61.5t-64 -40t-80 -14.5q-42 0 -78.5 14.5t-62.5 40t-41 61.5t-15 78z" />
<glyph unicode="&#x104;" horiz-adv-x="1155" d="M-18 0l428 1229h221l428 -1229h-180l-93 274h-532l-94 -274h-178zM307 432h426l-213 625zM813 -143l150 51l178 -262h-183z" />
<glyph unicode="&#x105;" horiz-adv-x="987" d="M16 0zM16 244v39q0 32 8.5 62t26.5 54q6 9 18 22t25.5 26.5t27.5 26.5t25 22q28 20 65.5 29.5t74.5 9.5h331v100q0 5 -0.5 12t-5.5 15q-12 20 -37 42t-47 33q-6 3 -10.5 4.5t-13.5 1.5h-193q-14 0 -27.5 -7t-25.5 -17.5t-22.5 -22.5t-18.5 -22q-4 -5 -8.5 -11t-8.5 -12 l-10 -14l-149 45q9 22 25.5 47.5t35.5 49t38.5 43.5t35.5 32q29 20 66.5 29.5t74.5 9.5h189q37 0 75 -10.5t66 -30.5q12 -9 26.5 -22t28.5 -26.5t25.5 -26.5t17.5 -21q19 -26 26 -57t7 -62v-475l17 -162h-158l-10 70q-15 -13 -34 -27t-40 -26t-43 -19.5t-43 -7.5h-180 q-37 0 -74.5 10.5t-65.5 30.5q-11 8 -25 21t-27.5 26.5t-25.5 26.5t-18 22q-18 25 -26.5 55t-8.5 62zM176 246q0 -10 1 -14t3 -7q6 -11 15.5 -22t21.5 -22t24 -20.5t23 -15.5l10 -4t15 -2h172q10 0 18 4q13 6 32.5 17.5t39.5 25t38 29.5t29 31v143h-329q-10 0 -15 -1t-10 -3 q-11 -6 -23 -16t-24 -21.5t-21.5 -23.5t-15.5 -23q-2 -3 -3 -7t-1 -13v-35zM565 -143l149 51l179 -262h-183z" />
<glyph unicode="&#x106;" horiz-adv-x="1108" d="M72 0zM72 276v676q0 28 6.5 55t23.5 52q9 13 27.5 34t40.5 42.5t43.5 40.5t36.5 28q25 14 56.5 24.5t60.5 10.5h272q40 0 76 -15.5t68 -39.5t59.5 -53.5t48.5 -57.5q12 -15 25.5 -39.5t31.5 -64.5l-164 -47q-8 24 -23.5 47.5t-34.5 44t-39 36.5t-38 27q-2 0 -5 1 q-2 0 -5 0.5t-6 0.5h-256q-11 0 -19 -4q-11 -5 -26 -17t-31.5 -27.5t-31 -33t-23.5 -32.5q-3 -5 -3.5 -12t-0.5 -15v-659q0 -13 13.5 -32t32.5 -37.5t38.5 -34t31.5 -21.5q8 -4 19 -4h256q12 0 20 4q17 9 36.5 25t37.5 36t33.5 43t23.5 47l164 -43q-11 -28 -25.5 -56.5 t-31.5 -49.5q-23 -28 -50 -57.5t-58.5 -53.5t-67.5 -39.5t-76 -15.5h-270q-29 0 -61.5 10.5t-57.5 24.5q-15 9 -36.5 27.5t-43.5 39.5t-40.5 41.5t-27.5 34.5q-17 25 -23.5 53t-6.5 55zM387 1364l180 231h201l-229 -272z" />
<glyph unicode="&#x107;" horiz-adv-x="977" d="M53 0zM53 246v391q0 31 7 61t26 56q6 8 18 21t26 27.5t28.5 27.5t25.5 22q28 20 66 30.5t76 10.5h202q38 0 75 -10.5t65 -30.5q18 -12 38 -32.5t39 -44t35 -48.5t25 -47l-150 -47q-8 16 -21.5 35.5t-29.5 36t-34.5 27.5t-37.5 11h-204q-10 0 -14.5 -1.5t-10.5 -4.5 q-11 -5 -24 -14.5t-25 -21t-22 -23.5t-15 -23q-3 -6 -3.5 -9.5t-0.5 -12.5v-383q0 -9 1 -14.5t3 -8.5q5 -11 15 -23t22 -23t25 -20.5t24 -15.5q6 -3 10.5 -4.5t14.5 -1.5h211q9 0 14 2l10 4q29 16 54 45t42 60l150 -49q-11 -26 -21 -43.5t-18 -28.5q-6 -9 -17.5 -22 t-25 -27.5t-27.5 -27.5t-26 -21q-28 -20 -65 -30.5t-74 -10.5h-209q-38 0 -76 10.5t-66 30.5q-11 8 -25.5 21t-28.5 27.5t-26 27.5t-18 22q-19 26 -26 56t-7 61zM305 1069l180 231h201l-229 -272z" />
<glyph unicode="&#x108;" horiz-adv-x="1108" d="M72 0zM72 276v676q0 28 6.5 55t23.5 52q9 13 27.5 34t40.5 42.5t43.5 40.5t36.5 28q25 14 56.5 24.5t60.5 10.5h272q40 0 76 -15.5t68 -39.5t59.5 -53.5t48.5 -57.5q12 -15 25.5 -39.5t31.5 -64.5l-164 -47q-8 24 -23.5 47.5t-34.5 44t-39 36.5t-38 27q-2 0 -5 1 q-2 0 -5 0.5t-6 0.5h-256q-11 0 -19 -4q-11 -5 -26 -17t-31.5 -27.5t-31 -33t-23.5 -32.5q-3 -5 -3.5 -12t-0.5 -15v-659q0 -13 13.5 -32t32.5 -37.5t38.5 -34t31.5 -21.5q8 -4 19 -4h256q12 0 20 4q17 9 36.5 25t37.5 36t33.5 43t23.5 47l164 -43q-11 -28 -25.5 -56.5 t-31.5 -49.5q-23 -28 -50 -57.5t-58.5 -53.5t-67.5 -39.5t-76 -15.5h-270q-29 0 -61.5 10.5t-57.5 24.5q-15 9 -36.5 27.5t-43.5 39.5t-40.5 41.5t-27.5 34.5q-17 25 -23.5 53t-6.5 55zM211 1352l215 243h168l215 -243h-193l-106 133l-107 -133h-192z" />
<glyph unicode="&#x109;" horiz-adv-x="977" d="M53 0zM53 246v391q0 31 7 61t26 56q6 8 18 21t26 27.5t28.5 27.5t25.5 22q28 20 66 30.5t76 10.5h202q38 0 75 -10.5t65 -30.5q18 -12 38 -32.5t39 -44t35 -48.5t25 -47l-150 -47q-8 16 -21.5 35.5t-29.5 36t-34.5 27.5t-37.5 11h-204q-10 0 -14.5 -1.5t-10.5 -4.5 q-11 -5 -24 -14.5t-25 -21t-22 -23.5t-15 -23q-3 -6 -3.5 -9.5t-0.5 -12.5v-383q0 -9 1 -14.5t3 -8.5q5 -11 15 -23t22 -23t25 -20.5t24 -15.5q6 -3 10.5 -4.5t14.5 -1.5h211q9 0 14 2l10 4q29 16 54 45t42 60l150 -49q-11 -26 -21 -43.5t-18 -28.5q-6 -9 -17.5 -22 t-25 -27.5t-27.5 -27.5t-26 -21q-28 -20 -65 -30.5t-74 -10.5h-209q-38 0 -76 10.5t-66 30.5q-11 8 -25.5 21t-28.5 27.5t-26 27.5t-18 22q-19 26 -26 56t-7 61zM125 1057l215 243h168l215 -243h-193l-106 133l-107 -133h-192z" />
<glyph unicode="&#x10a;" horiz-adv-x="1108" d="M72 0zM72 276v676q0 28 6.5 55t23.5 52q9 13 27.5 34t40.5 42.5t43.5 40.5t36.5 28q25 14 56.5 24.5t60.5 10.5h272q40 0 76 -15.5t68 -39.5t59.5 -53.5t48.5 -57.5q12 -15 25.5 -39.5t31.5 -64.5l-164 -47q-8 24 -23.5 47.5t-34.5 44t-39 36.5t-38 27q-2 0 -5 1 q-2 0 -5 0.5t-6 0.5h-256q-11 0 -19 -4q-11 -5 -26 -17t-31.5 -27.5t-31 -33t-23.5 -32.5q-3 -5 -3.5 -12t-0.5 -15v-659q0 -13 13.5 -32t32.5 -37.5t38.5 -34t31.5 -21.5q8 -4 19 -4h256q12 0 20 4q17 9 36.5 25t37.5 36t33.5 43t23.5 47l164 -43q-11 -28 -25.5 -56.5 t-31.5 -49.5q-23 -28 -50 -57.5t-58.5 -53.5t-67.5 -39.5t-76 -15.5h-270q-29 0 -61.5 10.5t-57.5 24.5q-15 9 -36.5 27.5t-43.5 39.5t-40.5 41.5t-27.5 34.5q-17 25 -23.5 53t-6.5 55zM415 1362v182h185v-182h-185z" />
<glyph unicode="&#x10b;" horiz-adv-x="977" d="M53 0zM53 246v391q0 31 7 61t26 56q6 8 18 21t26 27.5t28.5 27.5t25.5 22q28 20 66 30.5t76 10.5h202q38 0 75 -10.5t65 -30.5q18 -12 38 -32.5t39 -44t35 -48.5t25 -47l-150 -47q-8 16 -21.5 35.5t-29.5 36t-34.5 27.5t-37.5 11h-204q-10 0 -14.5 -1.5t-10.5 -4.5 q-11 -5 -24 -14.5t-25 -21t-22 -23.5t-15 -23q-3 -6 -3.5 -9.5t-0.5 -12.5v-383q0 -9 1 -14.5t3 -8.5q5 -11 15 -23t22 -23t25 -20.5t24 -15.5q6 -3 10.5 -4.5t14.5 -1.5h211q9 0 14 2l10 4q29 16 54 45t42 60l150 -49q-11 -26 -21 -43.5t-18 -28.5q-6 -9 -17.5 -22 t-25 -27.5t-27.5 -27.5t-26 -21q-28 -20 -65 -30.5t-74 -10.5h-209q-38 0 -76 10.5t-66 30.5q-11 8 -25.5 21t-28.5 27.5t-26 27.5t-18 22q-19 26 -26 56t-7 61zM344 1065v182h185v-182h-185z" />
<glyph unicode="&#x10c;" horiz-adv-x="1108" d="M72 0zM72 276v676q0 28 6.5 55t23.5 52q9 13 27.5 34t40.5 42.5t43.5 40.5t36.5 28q25 14 56.5 24.5t60.5 10.5h272q40 0 76 -15.5t68 -39.5t59.5 -53.5t48.5 -57.5q12 -15 25.5 -39.5t31.5 -64.5l-164 -47q-8 24 -23.5 47.5t-34.5 44t-39 36.5t-38 27q-2 0 -5 1 q-2 0 -5 0.5t-6 0.5h-256q-11 0 -19 -4q-11 -5 -26 -17t-31.5 -27.5t-31 -33t-23.5 -32.5q-3 -5 -3.5 -12t-0.5 -15v-659q0 -13 13.5 -32t32.5 -37.5t38.5 -34t31.5 -21.5q8 -4 19 -4h256q12 0 20 4q17 9 36.5 25t37.5 36t33.5 43t23.5 47l164 -43q-11 -28 -25.5 -56.5 t-31.5 -49.5q-23 -28 -50 -57.5t-58.5 -53.5t-67.5 -39.5t-76 -15.5h-270q-29 0 -61.5 10.5t-57.5 24.5q-15 9 -36.5 27.5t-43.5 39.5t-40.5 41.5t-27.5 34.5q-17 25 -23.5 53t-6.5 55zM207 1595h192l107 -133l106 133h193l-215 -243h-168z" />
<glyph unicode="&#x10d;" horiz-adv-x="977" d="M53 0zM53 246v391q0 31 7 61t26 56q6 8 18 21t26 27.5t28.5 27.5t25.5 22q28 20 66 30.5t76 10.5h202q38 0 75 -10.5t65 -30.5q18 -12 38 -32.5t39 -44t35 -48.5t25 -47l-150 -47q-8 16 -21.5 35.5t-29.5 36t-34.5 27.5t-37.5 11h-204q-10 0 -14.5 -1.5t-10.5 -4.5 q-11 -5 -24 -14.5t-25 -21t-22 -23.5t-15 -23q-3 -6 -3.5 -9.5t-0.5 -12.5v-383q0 -9 1 -14.5t3 -8.5q5 -11 15 -23t22 -23t25 -20.5t24 -15.5q6 -3 10.5 -4.5t14.5 -1.5h211q9 0 14 2l10 4q29 16 54 45t42 60l150 -49q-11 -26 -21 -43.5t-18 -28.5q-6 -9 -17.5 -22 t-25 -27.5t-27.5 -27.5t-26 -21q-28 -20 -65 -30.5t-74 -10.5h-209q-38 0 -76 10.5t-66 30.5q-11 8 -25.5 21t-28.5 27.5t-26 27.5t-18 22q-19 26 -26 56t-7 61zM144 1300h192l107 -133l106 133h193l-215 -243h-168z" />
<glyph unicode="&#x10e;" horiz-adv-x="1153" d="M84 0v1229h565q28 0 60 -8.5t57 -24.5q15 -9 36.5 -28.5t43 -41.5t40 -43t27.5 -34q17 -25 23 -52t6 -55v-657q0 -28 -6 -55t-23 -52q-9 -14 -27.5 -34.5t-40 -41.5t-43 -39.5t-36.5 -27.5q-25 -14 -56.5 -24.5t-60.5 -10.5h-565zM84 0zM170 1595h192l107 -133l106 133 h193l-215 -243h-168zM252 160h387q6 0 9 1t5 1q12 6 32.5 21.5t40 34.5t34 38.5t14.5 32.5v649q0 12 -2 16q-8 16 -23 34t-32.5 33.5t-34.5 28t-29 17.5q-4 2 -14 2h-387v-909z" />
<glyph unicode="&#x10f;" horiz-adv-x="1137" d="M53 250v383q0 32 8 63t27 56q6 8 18 21.5t26 28t28.5 28t25.5 22.5q28 20 65 30.5t75 10.5h159q22 0 43.5 -7t42 -18t39 -25t33.5 -28v414h160v-1065l14 -164h-160l-8 76q-15 -15 -34 -30t-40 -27.5t-44 -20.5t-46 -8h-159q-38 0 -75 11.5t-65 31.5q-11 8 -25.5 21.5 t-28.5 27.5t-26 27.5t-18 21.5q-19 26 -27 56.5t-8 62.5zM213 254q0 -9 1 -14t3 -9q5 -11 15 -23.5t22 -24.5t25 -22t24 -16q6 -3 10.5 -4.5t14.5 -1.5h151q15 0 40 14t50 32.5t45.5 38t28.5 30.5v373q-8 11 -28.5 30.5t-45 38.5t-49.5 33t-41 14h-151q-10 0 -14.5 -0.5 t-10.5 -3.5q-11 -5 -24 -15.5t-25 -23t-22 -25.5t-15 -24q-2 -3 -3 -8t-1 -14v-375zM961 946l16 148v221h156v-248l-15 -121h-157z" />
<glyph unicode="&#x110;" horiz-adv-x="1202" d="M-23 543v141h154v545h565q28 0 60 -8.5t57 -24.5q15 -9 36.5 -28.5t43.5 -41.5t40.5 -43t27.5 -34q17 -25 22.5 -52t5.5 -55v-657q0 -28 -5.5 -55t-22.5 -52q-9 -14 -27.5 -34.5t-40.5 -41.5t-43.5 -39.5t-36.5 -27.5q-25 -14 -56.5 -24.5t-60.5 -10.5h-565v543h-154z M299 160h387q6 0 9 1t5 1q12 6 32.5 21.5t40 34.5t34 38.5t14.5 32.5v649q0 12 -2 16q-8 16 -23 34t-32.5 33.5t-34.5 28t-29 17.5q-4 2 -14 2h-387v-385h256v-141h-256v-383z" />
<glyph unicode="&#x111;" horiz-adv-x="1010" d="M53 250v383q0 32 8 63t27 56q6 8 18 21.5t26 28t28.5 28t25.5 22.5q28 20 65 30.5t75 10.5h159q22 0 43.5 -7t42 -18t39 -25t33.5 -28v172h-283v150h283v92h160v-92h76v-150h-76v-823l14 -164h-160l-8 76q-15 -15 -34 -30t-40 -27.5t-44 -20.5t-46 -8h-159 q-38 0 -75 11.5t-65 31.5q-11 8 -25.5 21.5t-28.5 27.5t-26 27.5t-18 21.5q-19 26 -27 56.5t-8 62.5zM213 254q0 -9 1 -14t3 -9q5 -11 15 -23.5t22 -24.5t25 -22t24 -16q6 -3 10.5 -4.5t14.5 -1.5h151q15 0 40 14t50 32.5t45.5 38t28.5 30.5v373q-8 11 -28.5 30.5t-45 38.5 t-49.5 33t-41 14h-151q-10 0 -14.5 -0.5t-10.5 -3.5q-11 -5 -24 -15.5t-25 -23t-22 -25.5t-15 -24q-2 -3 -3 -8t-1 -14v-375z" />
<glyph unicode="&#x112;" horiz-adv-x="1047" d="M84 0v1229h754v-160h-586v-375h553v-159h-553v-375h586v-160h-754zM250 1370v154h414v-154h-414z" />
<glyph unicode="&#x113;" horiz-adv-x="989" d="M53 0zM53 246v391q0 32 8 62t27 55q6 8 18 21t26 27.5t28.5 27.5t25.5 22q28 20 66.5 30.5t75.5 10.5h204q38 0 76 -10.5t66 -30.5q12 -9 26.5 -22t28.5 -27.5t25.5 -27.5t17.5 -21q19 -26 26 -56t7 -61v-264h-592v-123q0 -9 1 -14.5t3 -8.5q4 -8 13 -19.5t20.5 -23.5 t24.5 -22.5t26 -16.5q12 -6 27 -6h207q9 0 13.5 1.5t10.5 4.5q11 6 23.5 15.5t24 21t21.5 23.5t15 22l12 23l150 -49q-10 -23 -25.5 -47.5t-33.5 -47.5t-37.5 -42.5t-38.5 -32.5q-28 -20 -65 -30.5t-75 -10.5h-202q-37 0 -75.5 10.5t-66.5 30.5q-11 8 -25.5 21t-28.5 27.5 t-26 27.5t-18 22q-19 25 -27 55t-8 62zM213 518h432v115v11t-2 11q-5 11 -15.5 23t-23 23.5t-25.5 21t-24 14.5q-6 3 -10.5 4.5t-14.5 1.5h-202q-5 0 -12.5 -1.5t-12.5 -4.5q-31 -17 -53 -38t-33 -44q-4 -4 -4 -22v-115zM228 1081v146h413v-146h-413z" />
<glyph unicode="&#x114;" horiz-adv-x="1047" d="M84 0v1229h754v-160h-586v-375h553v-159h-553v-375h586v-160h-754zM276 1536h101q0 -43 28 -72.5t68 -29.5q21 0 39.5 8t32.5 21.5t22 32.5t8 40h99q0 -42 -15 -78t-42 -62t-64 -40.5t-80 -14.5q-42 0 -78.5 14.5t-62.5 40.5t-41 62t-15 78z" />
<glyph unicode="&#x115;" horiz-adv-x="989" d="M53 0zM53 246v391q0 32 8 62t27 55q6 8 18 21t26 27.5t28.5 27.5t25.5 22q28 20 66.5 30.5t75.5 10.5h204q38 0 76 -10.5t66 -30.5q12 -9 26.5 -22t28.5 -27.5t25.5 -27.5t17.5 -21q19 -26 26 -56t7 -61v-264h-592v-123q0 -9 1 -14.5t3 -8.5q4 -8 13 -19.5t20.5 -23.5 t24.5 -22.5t26 -16.5q12 -6 27 -6h207q9 0 13.5 1.5t10.5 4.5q11 6 23.5 15.5t24 21t21.5 23.5t15 22l12 23l150 -49q-10 -23 -25.5 -47.5t-33.5 -47.5t-37.5 -42.5t-38.5 -32.5q-28 -20 -65 -30.5t-75 -10.5h-202q-37 0 -75.5 10.5t-66.5 30.5q-11 8 -25.5 21t-28.5 27.5 t-26 27.5t-18 22q-19 25 -27 55t-8 62zM213 518h432v115v11t-2 11q-5 11 -15.5 23t-23 23.5t-25.5 21t-24 14.5q-6 3 -10.5 4.5t-14.5 1.5h-202q-5 0 -12.5 -1.5t-12.5 -4.5q-31 -17 -53 -38t-33 -44q-4 -4 -4 -22v-115zM233 1241h101q0 -43 28 -72.5t68 -29.5q21 0 39.5 8 t32.5 21.5t22 32.5t8 40h99q0 -42 -15 -78t-42 -61.5t-64 -40t-80 -14.5q-42 0 -78.5 14.5t-62.5 40t-41 61.5t-15 78z" />
<glyph unicode="&#x116;" horiz-adv-x="1047" d="M84 0v1229h754v-160h-586v-375h553v-159h-553v-375h586v-160h-754zM387 1360v182h184v-182h-184z" />
<glyph unicode="&#x117;" horiz-adv-x="989" d="M53 0zM53 246v391q0 32 8 62t27 55q6 8 18 21t26 27.5t28.5 27.5t25.5 22q28 20 66.5 30.5t75.5 10.5h204q38 0 76 -10.5t66 -30.5q12 -9 26.5 -22t28.5 -27.5t25.5 -27.5t17.5 -21q19 -26 26 -56t7 -61v-264h-592v-123q0 -9 1 -14.5t3 -8.5q4 -8 13 -19.5t20.5 -23.5 t24.5 -22.5t26 -16.5q12 -6 27 -6h207q9 0 13.5 1.5t10.5 4.5q11 6 23.5 15.5t24 21t21.5 23.5t15 22l12 23l150 -49q-10 -23 -25.5 -47.5t-33.5 -47.5t-37.5 -42.5t-38.5 -32.5q-28 -20 -65 -30.5t-75 -10.5h-202q-37 0 -75.5 10.5t-66.5 30.5q-11 8 -25.5 21t-28.5 27.5 t-26 27.5t-18 22q-19 25 -27 55t-8 62zM213 518h432v115v11t-2 11q-5 11 -15.5 23t-23 23.5t-25.5 21t-24 14.5q-6 3 -10.5 4.5t-14.5 1.5h-202q-5 0 -12.5 -1.5t-12.5 -4.5q-31 -17 -53 -38t-33 -44q-4 -4 -4 -22v-115zM346 1065v182h185v-182h-185z" />
<glyph unicode="&#x118;" horiz-adv-x="1047" d="M84 0v1229h754v-160h-586v-375h553v-159h-553v-375h586v-160h-754zM633 -143l149 51l179 -262h-183z" />
<glyph unicode="&#x119;" horiz-adv-x="989" d="M53 0zM53 246v391q0 32 8 62t27 55q6 8 18 21t26 27.5t28.5 27.5t25.5 22q28 20 66.5 30.5t75.5 10.5h204q38 0 76 -10.5t66 -30.5q12 -9 26.5 -22t28.5 -27.5t25.5 -27.5t17.5 -21q19 -26 26 -56t7 -61v-264h-592v-123q0 -9 1 -14.5t3 -8.5q4 -8 13 -19.5t20.5 -23.5 t24.5 -22.5t26 -16.5q12 -6 27 -6h207q9 0 13.5 1.5t10.5 4.5q11 6 23.5 15.5t24 21t21.5 23.5t15 22l12 23l150 -49q-10 -23 -25.5 -47.5t-33.5 -47.5t-37.5 -42.5t-38.5 -32.5q-28 -20 -65 -30.5t-75 -10.5h-202q-37 0 -75.5 10.5t-66.5 30.5q-11 8 -25.5 21t-28.5 27.5 t-26 27.5t-18 22q-19 25 -27 55t-8 62zM213 518h432v115v11t-2 11q-5 11 -15.5 23t-23 23.5t-25.5 21t-24 14.5q-6 3 -10.5 4.5t-14.5 1.5h-202q-5 0 -12.5 -1.5t-12.5 -4.5q-31 -17 -53 -38t-33 -44q-4 -4 -4 -22v-115zM299 -143l149 51l179 -262h-183z" />
<glyph unicode="&#x11a;" horiz-adv-x="1047" d="M84 0v1229h754v-160h-586v-375h553v-159h-553v-375h586v-160h-754zM84 0zM170 1595h192l107 -133l106 133h193l-215 -243h-168z" />
<glyph unicode="&#x11b;" horiz-adv-x="989" d="M53 0zM53 246v391q0 32 8 62t27 55q6 8 18 21t26 27.5t28.5 27.5t25.5 22q28 20 66.5 30.5t75.5 10.5h204q38 0 76 -10.5t66 -30.5q12 -9 26.5 -22t28.5 -27.5t25.5 -27.5t17.5 -21q19 -26 26 -56t7 -61v-264h-592v-123q0 -9 1 -14.5t3 -8.5q4 -8 13 -19.5t20.5 -23.5 t24.5 -22.5t26 -16.5q12 -6 27 -6h207q9 0 13.5 1.5t10.5 4.5q11 6 23.5 15.5t24 21t21.5 23.5t15 22l12 23l150 -49q-10 -23 -25.5 -47.5t-33.5 -47.5t-37.5 -42.5t-38.5 -32.5q-28 -20 -65 -30.5t-75 -10.5h-202q-37 0 -75.5 10.5t-66.5 30.5q-11 8 -25.5 21t-28.5 27.5 t-26 27.5t-18 22q-19 25 -27 55t-8 62zM160 1300h192l107 -133l106 133h193l-215 -243h-168zM213 518h432v115v11t-2 11q-5 11 -15.5 23t-23 23.5t-25.5 21t-24 14.5q-6 3 -10.5 4.5t-14.5 1.5h-202q-5 0 -12.5 -1.5t-12.5 -4.5q-31 -17 -53 -38t-33 -44q-4 -4 -4 -22v-115z " />
<glyph unicode="&#x11c;" horiz-adv-x="1212" d="M72 0zM72 276v674q0 28 6.5 56t23.5 53q9 13 27.5 34t40.5 42.5t43.5 40.5t36.5 28q25 14 57.5 24.5t61.5 10.5h315q42 0 78.5 -15.5t68 -39.5t58.5 -54t49 -59q12 -15 25.5 -38.5t31.5 -63.5l-164 -47l-16 32q-3 5 -4 9q-9 17 -23 34.5t-30.5 32.5t-32 27t-27.5 18 q-8 4 -20 4h-301q-11 0 -19 -4q-11 -5 -27 -17t-33 -28t-32 -33.5t-22 -33.5q-2 -4 -3 -8.5t-1 -10.5v-661q0 -13 14.5 -33t34.5 -39.5t40.5 -36t32.5 -22.5q5 -2 17 -2h295q6 0 9 0.5t9 3.5q12 6 32.5 22.5t40 36t34 39.5t14.5 33v254h-281v159h449v-411q0 -29 2.5 -60 t7 -65.5t11 -74t14.5 -87.5h-164q-3 20 -7.5 40.5t-6.5 31.5q-16 -13 -32.5 -27.5t-34.5 -26.5t-39.5 -20t-47.5 -8h-315q-29 0 -61.5 10.5t-57.5 24.5q-15 9 -36.5 27.5t-43.5 39.5t-40.5 41.5t-27.5 34.5q-17 25 -23.5 53t-6.5 55zM246 1350l215 243h168l215 -243h-193 l-106 133l-107 -133h-192z" />
<glyph unicode="&#x11d;" horiz-adv-x="1034" d="M53 0zM53 250v383q0 32 7 62.5t26 56.5q6 8 18 21.5t26 28t28.5 28t25.5 22.5q28 20 67.5 30.5t74.5 10.5h168q23 0 45.5 -8t43.5 -20.5t40.5 -27.5t35.5 -30l9 76h159l-16 -166v-811q0 -32 -7 -62.5t-26 -56.5q-6 -9 -17.5 -22t-25.5 -27.5t-28.5 -27.5t-26.5 -21 q-28 -20 -67 -31.5t-74 -11.5h-205q-35 0 -73.5 11.5t-65.5 31.5q-18 12 -38.5 31.5t-39.5 43t-35 49t-25 48.5l150 49q7 -15 21.5 -35t31.5 -38t36 -30t36 -12h205q9 0 13.5 1.5t10.5 4.5q9 5 23.5 16.5t29 25.5t25.5 28t12 23v16v158q-15 -14 -33.5 -28t-39 -25t-42 -18 t-42.5 -7h-168q-35 0 -74.5 10.5t-67.5 30.5q-11 8 -25.5 21.5t-28.5 28.5t-26 28.5t-18 21.5q-19 26 -26 56.5t-7 62.5zM125 1057l215 243h168l215 -243h-193l-106 133l-107 -133h-192zM211 254q0 -9 1 -14t3 -9q5 -11 15.5 -23.5t23 -25t25.5 -23t24 -16.5q6 -3 10.5 -3.5 t14.5 -0.5h159q15 0 19 2q17 9 38 23t42 30.5t38.5 33t28.5 30.5v367q-9 10 -30 30t-46 39.5t-49.5 34t-40.5 14.5h-159q-10 0 -15 -2l-10 -4q-11 -6 -24 -16t-25.5 -22t-23 -24.5t-15.5 -23.5q-2 -3 -3 -8t-1 -14v-375z" />
<glyph unicode="&#x11e;" horiz-adv-x="1212" d="M72 0zM72 276v674q0 28 6.5 56t23.5 53q9 13 27.5 34t40.5 42.5t43.5 40.5t36.5 28q25 14 57.5 24.5t61.5 10.5h315q42 0 78.5 -15.5t68 -39.5t58.5 -54t49 -59q12 -15 25.5 -38.5t31.5 -63.5l-164 -47l-16 32q-3 5 -4 9q-9 17 -23 34.5t-30.5 32.5t-32 27t-27.5 18 q-8 4 -20 4h-301q-11 0 -19 -4q-11 -5 -27 -17t-33 -28t-32 -33.5t-22 -33.5q-2 -4 -3 -8.5t-1 -10.5v-661q0 -13 14.5 -33t34.5 -39.5t40.5 -36t32.5 -22.5q5 -2 17 -2h295q6 0 9 0.5t9 3.5q12 6 32.5 22.5t40 36t34 39.5t14.5 33v254h-281v159h449v-411q0 -29 2.5 -60 t7 -65.5t11 -74t14.5 -87.5h-164q-3 20 -7.5 40.5t-6.5 31.5q-16 -13 -32.5 -27.5t-34.5 -26.5t-39.5 -20t-47.5 -8h-315q-29 0 -61.5 10.5t-57.5 24.5q-15 9 -36.5 27.5t-43.5 39.5t-40.5 41.5t-27.5 34.5q-17 25 -23.5 53t-6.5 55zM346 1536h101q0 -43 28 -72.5t68 -29.5 q21 0 39.5 8t32.5 21.5t22 32.5t8 40h99q0 -42 -15 -78t-42 -61.5t-64 -40t-80 -14.5q-42 0 -78.5 14.5t-62.5 40t-41 61.5t-15 78z" />
<glyph unicode="&#x11f;" horiz-adv-x="1034" d="M53 0zM53 250v383q0 32 7 62.5t26 56.5q6 8 18 21.5t26 28t28.5 28t25.5 22.5q28 20 67.5 30.5t74.5 10.5h168q23 0 45.5 -8t43.5 -20.5t40.5 -27.5t35.5 -30l9 76h159l-16 -166v-811q0 -32 -7 -62.5t-26 -56.5q-6 -9 -17.5 -22t-25.5 -27.5t-28.5 -27.5t-26.5 -21 q-28 -20 -67 -31.5t-74 -11.5h-205q-35 0 -73.5 11.5t-65.5 31.5q-18 12 -38.5 31.5t-39.5 43t-35 49t-25 48.5l150 49q7 -15 21.5 -35t31.5 -38t36 -30t36 -12h205q9 0 13.5 1.5t10.5 4.5q9 5 23.5 16.5t29 25.5t25.5 28t12 23v16v158q-15 -14 -33.5 -28t-39 -25t-42 -18 t-42.5 -7h-168q-35 0 -74.5 10.5t-67.5 30.5q-11 8 -25.5 21.5t-28.5 28.5t-26 28.5t-18 21.5q-19 26 -26 56.5t-7 62.5zM211 254q0 -9 1 -14t3 -9q5 -11 15.5 -23.5t23 -25t25.5 -23t24 -16.5q6 -3 10.5 -3.5t14.5 -0.5h159q15 0 19 2q17 9 38 23t42 30.5t38.5 33 t28.5 30.5v367q-9 10 -30 30t-46 39.5t-49.5 34t-40.5 14.5h-159q-10 0 -15 -2l-10 -4q-11 -6 -24 -16t-25.5 -22t-23 -24.5t-15.5 -23.5q-2 -3 -3 -8t-1 -14v-375zM235 1241h101q0 -43 28 -72.5t68 -29.5q21 0 39.5 8t32.5 21.5t22 32.5t8 40h99q0 -42 -15 -78t-42 -61.5 t-64 -40t-80 -14.5q-42 0 -78.5 14.5t-62.5 40t-41 61.5t-15 78z" />
<glyph unicode="&#x120;" horiz-adv-x="1212" d="M72 0zM72 276v674q0 28 6.5 56t23.5 53q9 13 27.5 34t40.5 42.5t43.5 40.5t36.5 28q25 14 57.5 24.5t61.5 10.5h315q42 0 78.5 -15.5t68 -39.5t58.5 -54t49 -59q12 -15 25.5 -38.5t31.5 -63.5l-164 -47l-16 32q-3 5 -4 9q-9 17 -23 34.5t-30.5 32.5t-32 27t-27.5 18 q-8 4 -20 4h-301q-11 0 -19 -4q-11 -5 -27 -17t-33 -28t-32 -33.5t-22 -33.5q-2 -4 -3 -8.5t-1 -10.5v-661q0 -13 14.5 -33t34.5 -39.5t40.5 -36t32.5 -22.5q5 -2 17 -2h295q6 0 9 0.5t9 3.5q12 6 32.5 22.5t40 36t34 39.5t14.5 33v254h-281v159h449v-411q0 -29 2.5 -60 t7 -65.5t11 -74t14.5 -87.5h-164q-3 20 -7.5 40.5t-6.5 31.5q-16 -13 -32.5 -27.5t-34.5 -26.5t-39.5 -20t-47.5 -8h-315q-29 0 -61.5 10.5t-57.5 24.5q-15 9 -36.5 27.5t-43.5 39.5t-40.5 41.5t-27.5 34.5q-17 25 -23.5 53t-6.5 55zM442 1360v182h185v-182h-185z" />
<glyph unicode="&#x121;" horiz-adv-x="1034" d="M53 0zM53 250v383q0 32 7 62.5t26 56.5q6 8 18 21.5t26 28t28.5 28t25.5 22.5q28 20 67.5 30.5t74.5 10.5h168q23 0 45.5 -8t43.5 -20.5t40.5 -27.5t35.5 -30l9 76h159l-16 -166v-811q0 -32 -7 -62.5t-26 -56.5q-6 -9 -17.5 -22t-25.5 -27.5t-28.5 -27.5t-26.5 -21 q-28 -20 -67 -31.5t-74 -11.5h-205q-35 0 -73.5 11.5t-65.5 31.5q-18 12 -38.5 31.5t-39.5 43t-35 49t-25 48.5l150 49q7 -15 21.5 -35t31.5 -38t36 -30t36 -12h205q9 0 13.5 1.5t10.5 4.5q9 5 23.5 16.5t29 25.5t25.5 28t12 23v16v158q-15 -14 -33.5 -28t-39 -25t-42 -18 t-42.5 -7h-168q-35 0 -74.5 10.5t-67.5 30.5q-11 8 -25.5 21.5t-28.5 28.5t-26 28.5t-18 21.5q-19 26 -26 56.5t-7 62.5zM211 254q0 -9 1 -14t3 -9q5 -11 15.5 -23.5t23 -25t25.5 -23t24 -16.5q6 -3 10.5 -3.5t14.5 -0.5h159q15 0 19 2q17 9 38 23t42 30.5t38.5 33 t28.5 30.5v367q-9 10 -30 30t-46 39.5t-49.5 34t-40.5 14.5h-159q-10 0 -15 -2l-10 -4q-11 -6 -24 -16t-25.5 -22t-23 -24.5t-15.5 -23.5q-2 -3 -3 -8t-1 -14v-375zM333 1065v182h185v-182h-185z" />
<glyph unicode="&#x122;" horiz-adv-x="1212" d="M72 0zM72 276v674q0 28 6.5 56t23.5 53q9 13 27.5 34t40.5 42.5t43.5 40.5t36.5 28q25 14 57.5 24.5t61.5 10.5h315q42 0 78.5 -15.5t68 -39.5t58.5 -54t49 -59q12 -15 25.5 -38.5t31.5 -63.5l-164 -47l-16 32q-3 5 -4 9q-9 17 -23 34.5t-30.5 32.5t-32 27t-27.5 18 q-8 4 -20 4h-301q-11 0 -19 -4q-11 -5 -27 -17t-33 -28t-32 -33.5t-22 -33.5q-2 -4 -3 -8.5t-1 -10.5v-661q0 -13 14.5 -33t34.5 -39.5t40.5 -36t32.5 -22.5q5 -2 17 -2h295q6 0 9 0.5t9 3.5q12 6 32.5 22.5t40 36t34 39.5t14.5 33v254h-281v159h449v-411q0 -29 2.5 -60 t7 -65.5t11 -74t14.5 -87.5h-164q-3 20 -7.5 40.5t-6.5 31.5q-16 -13 -32.5 -27.5t-34.5 -26.5t-39.5 -20t-47.5 -8h-315q-29 0 -61.5 10.5t-57.5 24.5q-15 9 -36.5 27.5t-43.5 39.5t-40.5 41.5t-27.5 34.5q-17 25 -23.5 53t-6.5 55zM342 -354l178 262l149 -51l-145 -211 h-182z" />
<glyph unicode="&#x123;" horiz-adv-x="1034" d="M53 0zM53 250v383q0 32 7 62.5t26 56.5q6 8 18 21.5t26 28t28.5 28t25.5 22.5q28 20 67.5 30.5t74.5 10.5h168q23 0 45.5 -8t43.5 -20.5t40.5 -27.5t35.5 -30l9 76h159l-16 -166v-811q0 -32 -7 -62.5t-26 -56.5q-6 -9 -17.5 -22t-25.5 -27.5t-28.5 -27.5t-26.5 -21 q-28 -20 -67 -31.5t-74 -11.5h-205q-35 0 -73.5 11.5t-65.5 31.5q-18 12 -38.5 31.5t-39.5 43t-35 49t-25 48.5l150 49q7 -15 21.5 -35t31.5 -38t36 -30t36 -12h205q9 0 13.5 1.5t10.5 4.5q9 5 23.5 16.5t29 25.5t25.5 28t12 23v16v158q-15 -14 -33.5 -28t-39 -25t-42 -18 t-42.5 -7h-168q-35 0 -74.5 10.5t-67.5 30.5q-11 8 -25.5 21.5t-28.5 28.5t-26 28.5t-18 21.5q-19 26 -26 56.5t-7 62.5zM211 254q0 -9 1 -14t3 -9q5 -11 15.5 -23.5t23 -25t25.5 -23t24 -16.5q6 -3 10.5 -3.5t14.5 -0.5h159q15 0 19 2q17 9 38 23t42 30.5t38.5 33 t28.5 30.5v367q-9 10 -30 30t-46 39.5t-49.5 34t-40.5 14.5h-159q-10 0 -15 -2l-10 -4q-11 -6 -24 -16t-25.5 -22t-23 -24.5t-15.5 -23.5q-2 -3 -3 -8t-1 -14v-375zM309 1069l180 231h201l-229 -272z" />
<glyph unicode="&#x124;" horiz-adv-x="1157" d="M72 0v1229h168v-535h528v535h168v-1229h-168v535h-528v-535h-168zM201 1352l215 243h168l215 -243h-193l-106 133l-107 -133h-192z" />
<glyph unicode="&#x125;" horiz-adv-x="981" d="M51 0v1229h160v-416q15 14 33.5 28t39 25.5t42 19t43.5 7.5h141q35 0 73 -11.5t66 -31.5q12 -9 26.5 -22.5t28.5 -28t26 -28t18 -21.5q18 -26 26 -55.5t8 -61.5v-633h-159v629q0 19 -5 22q-6 11 -16 24t-22 25t-24.5 22.5t-23.5 16.5q-5 2 -10 3t-14 1h-133 q-17 0 -42 -14t-49.5 -33.5t-45 -39.5t-27.5 -31v-625h-160zM135 1352l215 243h168l215 -243h-192l-107 133l-106 -133h-193z" />
<glyph unicode="&#x126;" horiz-adv-x="1184" d="M-4 987v150h88v92h168v-92h528v92h168v-92h88v-150h-88v-987h-168v535h-528v-535h-168v987h-88zM252 694h528v293h-528v-293z" />
<glyph unicode="&#x127;" horiz-adv-x="981" d="M-16 987v150h67v92h160v-92h291v-150h-291v-176q15 14 34 28t39.5 25.5t42.5 19t44 7.5h141q34 0 72.5 -11.5t66.5 -31.5q11 -9 25 -22.5t28 -28t26.5 -28t19.5 -21.5q34 -54 34 -117v-631h-161v627q0 20 -2 22q-7 11 -17.5 24t-22 25t-24 22.5t-22.5 16.5q-5 2 -10.5 3 t-16.5 1h-131q-18 0 -43 -14t-50 -33.5t-45.5 -39.5t-27.5 -31v-623h-160v987h-67z" />
<glyph unicode="&#x128;" horiz-adv-x="457" d="M-160 1390q15 39 43 67.5t63 45t74.5 20t79.5 -5.5l148 -34q26 -7 50.5 6t35.5 39l139 -35q-15 -39 -43 -68t-63 -45.5t-74.5 -20t-79.5 6.5l-146 35q-26 6 -50.5 -6.5t-35.5 -38.5zM72 0v1229h168v-1229h-168z" />
<glyph unicode="&#x129;" horiz-adv-x="432" d="M-168 1124q15 39 43 67.5t63 45t74.5 20t79.5 -5.5l148 -34q26 -7 50.5 6t35.5 39l139 -35q-15 -39 -43 -68t-63 -45.5t-74.5 -20t-79.5 6.5l-146 35q-26 6 -50.5 -6.5t-35.5 -38.5zM72 0v883h159v-883h-159z" />
<glyph unicode="&#x12a;" horiz-adv-x="457" d="M-59 1370v154h413v-154h-413zM72 0v1229h168v-1229h-168z" />
<glyph unicode="&#x12b;" horiz-adv-x="432" d="M-57 1075v154h413v-154h-413zM72 0v883h159v-883h-159z" />
<glyph unicode="&#x12c;" horiz-adv-x="457" d="M-43 1536h100q0 -43 28 -72.5t69 -29.5q21 0 39.5 8t32.5 21.5t22 32.5t8 40h98q0 -42 -15 -78t-42 -62t-63.5 -40.5t-79.5 -14.5q-42 0 -78.5 14.5t-62.5 40.5t-41 62t-15 78zM72 0v1229h168v-1229h-168z" />
<glyph unicode="&#x12d;" horiz-adv-x="432" d="M-43 1241h100q0 -43 28 -72.5t69 -29.5q21 0 39.5 8t32.5 21.5t22 32.5t8 40h98q0 -42 -15 -78t-42 -61.5t-63.5 -40t-79.5 -14.5q-42 0 -78.5 14.5t-62.5 40t-41 61.5t-15 78zM72 0v883h159v-883h-159z" />
<glyph unicode="&#x12e;" horiz-adv-x="457" d="M14 -143l150 51l178 -262h-182zM72 0v1229h168v-1229h-168z" />
<glyph unicode="&#x12f;" horiz-adv-x="442" d="M25 -143l149 51l178 -262h-182zM59 1065v182h185v-182h-185zM72 0v883h159v-883h-159z" />
<glyph unicode="&#x130;" horiz-adv-x="457" d="M61 1360v182h185v-182h-185zM72 0v1229h168v-1229h-168z" />
<glyph unicode="&#x131;" horiz-adv-x="432" d="M72 0v883h159v-883h-159z" />
<glyph unicode="&#x132;" horiz-adv-x="1405" d="M72 0v1229h168v-1229h-168zM435 262l161 43q7 -17 22 -39.5t33 -44t37.5 -40t36.5 -27.5q7 -3 13.5 -3.5t11.5 -0.5h143q9 0 17 4q11 5 31.5 21t40.5 35t34.5 38t14.5 31v950h168v-953q0 -27 -7 -55t-24 -53q-9 -13 -27.5 -33.5t-39.5 -42t-42.5 -40t-36.5 -27.5 q-24 -14 -56.5 -24.5t-61.5 -10.5h-160q-42 0 -78.5 15t-68 39t-58 53.5t-47.5 58.5q-11 15 -25 40.5t-32 65.5z" />
<glyph unicode="&#x133;" horiz-adv-x="909" d="M63 1065v174h177v-174h-177zM72 0v883h159v-883h-159zM281 -201h151q6 0 13 -0.5t12 2.5q10 6 22.5 16.5t24 22.5t21.5 25t16 24q4 4 4 23v971h162v-975q0 -32 -8.5 -62.5t-26.5 -56.5q-6 -8 -18 -21.5t-26 -28.5t-28.5 -28.5t-26.5 -21.5q-29 -20 -66.5 -30.5 t-72.5 -10.5h-153v151zM539 1065v174h176v-174h-176z" />
<glyph unicode="&#x134;" horiz-adv-x="956" d="M-16 262l161 43q7 -17 22 -39.5t33 -44t37.5 -40t36.5 -27.5q7 -3 13.5 -3.5t11.5 -0.5h143q9 0 17 4q11 5 31.5 21t40.5 35t34.5 38t14.5 31v950h168v-953q0 -27 -7 -55t-24 -53q-9 -13 -27.5 -33.5t-39.5 -42t-42.5 -40t-36.5 -27.5q-24 -14 -56.5 -24.5t-61.5 -10.5 h-160q-42 0 -78.5 15t-68 39t-58 53.5t-47.5 58.5q-11 15 -25 40.5t-32 65.5zM0 0zM363 1352l215 243h168l215 -243h-193l-106 133l-107 -133h-192z" />
<glyph unicode="&#x135;" horiz-adv-x="461" d="M-168 -201h152q6 0 12.5 -0.5t11.5 2.5q22 13 47 39t37 49q4 4 4 23v971h162v-975q0 -32 -8 -62.5t-27 -56.5q-6 -8 -17.5 -21.5t-25.5 -28.5t-28.5 -28.5t-26.5 -21.5q-29 -20 -66.5 -30.5t-72.5 -10.5h-154v151zM-125 1057l215 243h168l215 -243h-192l-107 133 l-106 -133h-193z" />
<glyph unicode="&#x136;" horiz-adv-x="1069" d="M84 0v1229h168v-537h35l463 537h221l-543 -615l545 -614h-221l-465 535h-35v-535h-168zM260 -354l178 262l150 -51l-146 -211h-182z" />
<glyph unicode="&#x137;" horiz-adv-x="922" d="M55 0v1229h160v-688h41l322 342h206l-389 -414l428 -469h-209l-356 391h-43v-391h-160zM72 -354l178 262l149 -51l-145 -211h-182z" />
<glyph unicode="&#x138;" horiz-adv-x="922" d="M55 0v883h160v-342h45l311 342h215v-142h-139l-250 -272l426 -469h-215l-346 391h-47v-391h-160z" />
<glyph unicode="&#x139;" horiz-adv-x="973" d="M84 0v1229h168v-1069h573v-160h-741zM317 1364l181 231h200l-229 -272z" />
<glyph unicode="&#x13a;" horiz-adv-x="479" d="M78 1364l180 231h201l-230 -272zM84 133v1096h158v-1071l20 -158h-160z" />
<glyph unicode="&#x13b;" horiz-adv-x="973" d="M72 0v1229h168v-1069h573v-160h-741zM195 -354l178 262l149 -51l-145 -211h-182z" />
<glyph unicode="&#x13c;" horiz-adv-x="479" d="M-31 -354l178 262l150 -51l-145 -211h-183zM84 133v1096h158v-1071l20 -158h-160z" />
<glyph unicode="&#x13d;" horiz-adv-x="973" d="M84 0v1229h168v-1069h573v-160h-741zM422 946l16 148v221h156v-248l-14 -121h-158z" />
<glyph unicode="&#x13e;" horiz-adv-x="569" d="M84 133v1096h158v-1071l20 -158h-160zM383 946l16 148v221h156v-248l-14 -121h-158z" />
<glyph unicode="&#x13f;" horiz-adv-x="1026" d="M72 0v1229h168v-1069h573v-160h-741zM555 524v183h184v-183h-184z" />
<glyph unicode="&#x140;" horiz-adv-x="739" d="M84 133v1096h158v-1071l20 -158h-160zM428 528v183h184v-183h-184z" />
<glyph unicode="&#x141;" horiz-adv-x="1018" d="M-76 528l191 103v598h168v-510l153 82l66 -125l-219 -117v-399h573v-160h-741v469l-123 -66z" />
<glyph unicode="&#x142;" horiz-adv-x="582" d="M-72 522l189 101v606h153v-524l168 90l68 -125l-236 -125v-389q0 -32 7.5 -73.5t15.5 -84.5h-160q-5 22 -6 40.5t-6 35.5q-2 17 -3 31t-1 26v330l-123 -64z" />
<glyph unicode="&#x143;" horiz-adv-x="1169" d="M72 0v1229h198l512 -948v948h166v-1229h-194l-516 938v-938h-166zM381 1364l180 231h201l-230 -272z" />
<glyph unicode="&#x144;" horiz-adv-x="1004" d="M51 0zM51 883h160l8 -72q15 14 34 28.5t40 26.5t43 19.5t43 7.5h153q38 0 76 -10.5t66 -30.5q12 -9 26.5 -22t28.5 -27.5t25.5 -27.5t17.5 -21q19 -26 26 -56t7 -61v-637h-160v633v11t-2 11q-5 11 -15.5 23.5t-23 24t-25.5 21.5t-24 15q-8 4 -25 4h-145q-15 0 -38.5 -13 t-47.5 -30t-44 -35t-28 -28v-637h-159v719zM305 1069l180 231h201l-229 -272z" />
<glyph unicode="&#x145;" horiz-adv-x="1169" d="M84 0v1229h199l512 -948v948h166v-1229h-195l-516 938v-938h-166zM344 -354l178 262l150 -51l-146 -211h-182z" />
<glyph unicode="&#x146;" horiz-adv-x="1004" d="M51 0zM51 883h160l8 -72q15 14 34 28.5t40 26.5t43 19.5t43 7.5h153q38 0 76 -10.5t66 -30.5q12 -9 26.5 -22t28.5 -27.5t25.5 -27.5t17.5 -21q19 -26 26 -56t7 -61v-637h-160v633v11t-2 11q-5 11 -15.5 23.5t-23 24t-25.5 21.5t-24 15q-8 4 -25 4h-145q-15 0 -38.5 -13 t-47.5 -30t-44 -35t-28 -28v-637h-159v719zM242 -354l178 262l149 -51l-145 -211h-182z" />
<glyph unicode="&#x147;" horiz-adv-x="1169" d="M72 0v1229h198l512 -948v948h166v-1229h-194l-516 938v-938h-166zM219 1595h193l106 -133l107 133h192l-215 -243h-168z" />
<glyph unicode="&#x148;" horiz-adv-x="1004" d="M51 0zM51 883h160l8 -72q15 14 34 28.5t40 26.5t43 19.5t43 7.5h153q38 0 76 -10.5t66 -30.5q12 -9 26.5 -22t28.5 -27.5t25.5 -27.5t17.5 -21q19 -26 26 -56t7 -61v-637h-160v633v11t-2 11q-5 11 -15.5 23.5t-23 24t-25.5 21.5t-24 15q-8 4 -25 4h-145q-15 0 -38.5 -13 t-47.5 -30t-44 -35t-28 -28v-637h-159v719zM160 1300h192l107 -133l106 133h193l-215 -243h-168z" />
<glyph unicode="&#x149;" horiz-adv-x="1004" d="M-137 946l16 148v221h156v-248l-15 -121h-157zM51 883h160l8 -72q15 14 34 28.5t40 26.5t43 19.5t43 7.5h153q38 0 76 -10.5t66 -30.5q12 -9 26.5 -22t28.5 -27.5t25.5 -27.5t17.5 -21q19 -26 26 -56t7 -61v-637h-160v633v11t-2 11q-5 11 -15.5 23.5t-23 24t-25.5 21.5 t-24 15q-8 4 -25 4h-145q-15 0 -38.5 -13t-47.5 -30t-44 -35t-28 -28v-637h-159v719z" />
<glyph unicode="&#x14a;" horiz-adv-x="1169" d="M84 0v1229h199l512 -948v948h166v-1321q0 -32 -8.5 -62.5t-26.5 -56.5q-6 -8 -18 -21.5t-26 -28.5t-28.5 -28.5t-26.5 -21.5q-29 -20 -66.5 -30.5t-72.5 -10.5h-153v151h151q6 0 13 -0.5t12 2.5q10 6 22.5 16.5t24 22.5t21.5 25t16 24q4 4 4 23v88h-33l-516 938v-938 h-166z" />
<glyph unicode="&#x14b;" horiz-adv-x="1004" d="M51 883h160l8 -72q15 14 34 28.5t40 26.5t43 19.5t43 7.5h153q38 0 76 -10.5t66 -30.5q12 -9 26.5 -22t28.5 -27.5t25.5 -27.5t17.5 -21q19 -26 26 -56t7 -61v-729q0 -32 -8 -62.5t-27 -56.5q-6 -8 -18 -21.5t-26 -28.5t-28.5 -28.5t-25.5 -21.5q-29 -20 -66.5 -30.5 t-73.5 -10.5h-153v151h151q7 0 13.5 -0.5t11.5 2.5q22 13 47 39t37 49q2 2 4 8t2 15v721v11t-2 11q-6 11 -16.5 23t-22.5 23.5t-25 21.5t-24 16q-5 2 -10 3t-15 1h-145q-15 0 -38.5 -13t-47.5 -30t-44 -35t-28 -28v-637h-159v719z" />
<glyph unicode="&#x14c;" horiz-adv-x="1186" d="M74 0zM74 276v674q0 26 5.5 55t22.5 54q9 14 28 35t41 42.5t44 40t37 27.5q25 14 56.5 24.5t60.5 10.5h323q29 0 61.5 -10.5t57.5 -24.5q15 -9 36.5 -28t43 -40.5t40 -42.5t27.5 -34q17 -25 24 -53t7 -56v-674q0 -27 -7 -55t-24 -53q-9 -14 -27.5 -34.5t-40 -41.5 t-43 -39.5t-36.5 -27.5q-25 -14 -57.5 -24.5t-61.5 -10.5h-323q-29 0 -60.5 10.5t-56.5 24.5q-15 9 -37 27.5t-44 39.5t-41 41.5t-28 34.5q-17 25 -22.5 53.5t-5.5 54.5zM242 279q0 -12 14 -31t33.5 -38t39.5 -35t31 -21q4 -2 8.5 -3t10.5 -1h307q6 0 10.5 1t8.5 3 q12 6 31.5 21.5t38.5 34t32.5 37.5t13.5 32v667q0 11 -4 19q-8 15 -22.5 32.5t-31 33t-32.5 27.5t-26 17q-4 2 -8.5 3t-10.5 1h-307q-6 0 -10.5 -1t-8.5 -3q-12 -6 -32 -22t-39 -35.5t-33 -39t-14 -32.5v-667zM326 1376v146h413v-146h-413z" />
<glyph unicode="&#x14d;" horiz-adv-x="991" d="M53 0zM53 246v391q0 31 7 61t26 56q6 8 18 21t26 27.5t28.5 27.5t25.5 22q28 20 66 30.5t76 10.5h204q38 0 76 -10.5t66 -30.5q11 -9 25.5 -22t28.5 -27.5t26 -27.5t18 -21q19 -26 26 -56t7 -61v-391q0 -31 -7 -61t-26 -56q-6 -9 -18 -22t-26 -27.5t-28.5 -27.5 t-25.5 -21q-28 -20 -66 -30.5t-76 -10.5h-204q-38 0 -76 10.5t-66 30.5q-11 8 -25.5 21t-28.5 27.5t-26 27.5t-18 22q-19 26 -26 56t-7 61zM213 250q0 -9 1 -14.5t3 -8.5q5 -11 15.5 -23t23 -23t25.5 -20.5t24 -15.5q6 -3 10.5 -4.5t14.5 -1.5h198q10 0 14.5 1.5t10.5 4.5 q8 5 21 14.5t26 21t23.5 23t15.5 19.5q3 6 3.5 14t0.5 13v383q0 11 -1.5 17.5t-4.5 11.5q-14 20 -35.5 39.5t-44.5 33.5q-5 3 -12 5.5t-17 2.5h-198q-10 0 -16 -2t-9 -4q-11 -5 -24 -14.5t-25 -21t-22.5 -23.5t-16.5 -23q-2 -3 -3 -8t-1 -14v-383zM220 1081v146h413v-146 h-413z" />
<glyph unicode="&#x14e;" horiz-adv-x="1186" d="M74 0zM74 276v674q0 26 5.5 55t22.5 54q9 14 28 35t41 42.5t44 40t37 27.5q25 14 56.5 24.5t60.5 10.5h323q29 0 61.5 -10.5t57.5 -24.5q15 -9 36.5 -28t43 -40.5t40 -42.5t27.5 -34q17 -25 24 -53t7 -56v-674q0 -27 -7 -55t-24 -53q-9 -14 -27.5 -34.5t-40 -41.5 t-43 -39.5t-36.5 -27.5q-25 -14 -57.5 -24.5t-61.5 -10.5h-323q-29 0 -60.5 10.5t-56.5 24.5q-15 9 -37 27.5t-44 39.5t-41 41.5t-28 34.5q-17 25 -22.5 53.5t-5.5 54.5zM242 279q0 -12 14 -31t33.5 -38t39.5 -35t31 -21q4 -2 8.5 -3t10.5 -1h307q6 0 10.5 1t8.5 3 q12 6 31.5 21.5t38.5 34t32.5 37.5t13.5 32v667q0 11 -4 19q-8 15 -22.5 32.5t-31 33t-32.5 27.5t-26 17q-4 2 -8.5 3t-10.5 1h-307q-6 0 -10.5 -1t-8.5 -3q-12 -6 -32 -22t-39 -35.5t-33 -39t-14 -32.5v-667zM342 1536h101q0 -43 28 -72.5t68 -29.5q21 0 39.5 8t32.5 21.5 t22 32.5t8 40h99q0 -42 -15 -78t-42 -61.5t-64 -40t-80 -14.5q-42 0 -78.5 14.5t-62.5 40t-41 61.5t-15 78z" />
<glyph unicode="&#x14f;" horiz-adv-x="991" d="M53 0zM53 246v391q0 31 7 61t26 56q6 8 18 21t26 27.5t28.5 27.5t25.5 22q28 20 66 30.5t76 10.5h204q38 0 76 -10.5t66 -30.5q11 -9 25.5 -22t28.5 -27.5t26 -27.5t18 -21q19 -26 26 -56t7 -61v-391q0 -31 -7 -61t-26 -56q-6 -9 -18 -22t-26 -27.5t-28.5 -27.5 t-25.5 -21q-28 -20 -66 -30.5t-76 -10.5h-204q-38 0 -76 10.5t-66 30.5q-11 8 -25.5 21t-28.5 27.5t-26 27.5t-18 22q-19 26 -26 56t-7 61zM213 250q0 -9 1 -14.5t3 -8.5q5 -11 15.5 -23t23 -23t25.5 -20.5t24 -15.5q6 -3 10.5 -4.5t14.5 -1.5h198q10 0 14.5 1.5t10.5 4.5 q8 5 21 14.5t26 21t23.5 23t15.5 19.5q3 6 3.5 14t0.5 13v383q0 11 -1.5 17.5t-4.5 11.5q-14 20 -35.5 39.5t-44.5 33.5q-5 3 -12 5.5t-17 2.5h-198q-10 0 -16 -2t-9 -4q-11 -5 -24 -14.5t-25 -21t-22.5 -23.5t-16.5 -23q-2 -3 -3 -8t-1 -14v-383zM247 1241h101 q0 -43 28 -72.5t68 -29.5q21 0 39.5 8t32.5 21.5t22 32.5t8 40h99q0 -42 -15 -78t-42 -61.5t-64 -40t-80 -14.5q-42 0 -78.5 14.5t-62.5 40t-41 61.5t-15 78z" />
<glyph unicode="&#x150;" horiz-adv-x="1186" d="M74 0zM74 276v674q0 26 5.5 55t22.5 54q9 14 28 35t41 42.5t44 40t37 27.5q25 14 56.5 24.5t60.5 10.5h323q29 0 61.5 -10.5t57.5 -24.5q15 -9 36.5 -28t43 -40.5t40 -42.5t27.5 -34q17 -25 24 -53t7 -56v-674q0 -27 -7 -55t-24 -53q-9 -14 -27.5 -34.5t-40 -41.5 t-43 -39.5t-36.5 -27.5q-25 -14 -57.5 -24.5t-61.5 -10.5h-323q-29 0 -60.5 10.5t-56.5 24.5q-15 9 -37 27.5t-44 39.5t-41 41.5t-28 34.5q-17 25 -22.5 53.5t-5.5 54.5zM242 279q0 -12 14 -31t33.5 -38t39.5 -35t31 -21q4 -2 8.5 -3t10.5 -1h307q6 0 10.5 1t8.5 3 q12 6 31.5 21.5t38.5 34t32.5 37.5t13.5 32v667q0 11 -4 19q-8 15 -22.5 32.5t-31 33t-32.5 27.5t-26 17q-4 2 -8.5 3t-10.5 1h-307q-6 0 -10.5 -1t-8.5 -3q-12 -6 -32 -22t-39 -35.5t-33 -39t-14 -32.5v-667zM327 1376l174 219h162l-219 -256zM567 1376l174 219h162 l-219 -256z" />
<glyph unicode="&#x151;" horiz-adv-x="991" d="M53 0zM53 246v391q0 31 7 61t26 56q6 8 18 21t26 27.5t28.5 27.5t25.5 22q28 20 66 30.5t76 10.5h204q38 0 76 -10.5t66 -30.5q11 -9 25.5 -22t28.5 -27.5t26 -27.5t18 -21q19 -26 26 -56t7 -61v-391q0 -31 -7 -61t-26 -56q-6 -9 -18 -22t-26 -27.5t-28.5 -27.5 t-25.5 -21q-28 -20 -66 -30.5t-76 -10.5h-204q-38 0 -76 10.5t-66 30.5q-11 8 -25.5 21t-28.5 27.5t-26 27.5t-18 22q-19 26 -26 56t-7 61zM213 250q0 -9 1 -14.5t3 -8.5q5 -11 15.5 -23t23 -23t25.5 -20.5t24 -15.5q6 -3 10.5 -4.5t14.5 -1.5h198q10 0 14.5 1.5t10.5 4.5 q8 5 21 14.5t26 21t23.5 23t15.5 19.5q3 6 3.5 14t0.5 13v383q0 11 -1.5 17.5t-4.5 11.5q-14 20 -35.5 39.5t-44.5 33.5q-5 3 -12 5.5t-17 2.5h-198q-10 0 -16 -2t-9 -4q-11 -5 -24 -14.5t-25 -21t-22.5 -23.5t-16.5 -23q-2 -3 -3 -8t-1 -14v-383zM225 1081l174 219h162 l-219 -256zM465 1081l174 219h162l-219 -256z" />
<glyph unicode="&#x152;" horiz-adv-x="1743" d="M74 276v674q0 26 5.5 55t22.5 54q9 14 28 35t41 42.5t44 40t37 27.5q25 14 56.5 24.5t60.5 10.5h303q29 0 61.5 -10.5t57.5 -24.5q6 -6 18 -12v37h713v-160h-557v-375h524v-159h-524v-375h557v-160h-713v37q-5 -5 -10 -7.5t-8 -4.5q-25 -14 -57.5 -24.5t-61.5 -10.5h-303 q-29 0 -60.5 10.5t-56.5 24.5q-15 9 -37 27.5t-44 39.5t-41 41.5t-28 34.5q-17 25 -22.5 53.5t-5.5 54.5zM242 279q0 -12 14 -31t33.5 -38t39.5 -35t31 -21q4 -2 8.5 -3t10.5 -1h287q10 0 18 4q12 6 32 21.5t39 34t32.5 37.5t13.5 32v667q0 11 -4 19q-9 15 -23.5 32.5 t-31 33t-32 27.5t-26.5 17q-8 4 -18 4h-287q-6 0 -10.5 -1t-8.5 -3q-12 -6 -32 -22t-39 -35.5t-33 -39t-14 -32.5v-667z" />
<glyph unicode="&#x153;" horiz-adv-x="1577" d="M53 246v391q0 31 7 61t26 56q6 8 18 21t26 27.5t28.5 27.5t25.5 22q28 20 66 30.5t76 10.5h204q38 0 76 -10.5t66 -30.5q11 -8 25 -20.5t26 -26.5q14 14 28 26.5t25 20.5q28 20 66 30.5t76 10.5h204q37 0 75.5 -10.5t66.5 -30.5q11 -9 25.5 -22t28.5 -27.5t26 -27.5 t18 -21q18 -26 25.5 -56t7.5 -61v-264h-592v-123v-4v-6q0 -9 4 -13q4 -8 13 -19.5t20.5 -23.5t24.5 -22.5t26 -16.5q12 -6 27 -6h206q10 0 14.5 1.5t10.5 4.5q11 6 23.5 15.5t24 21t21.5 23.5t15 22l12 23l150 -49q-10 -23 -25.5 -47.5t-33.5 -47.5t-37.5 -42.5t-38.5 -32.5 q-28 -20 -65.5 -30.5t-74.5 -10.5h-202q-38 0 -76 10.5t-66 30.5q-11 8 -25 19.5t-28 25.5q-12 -14 -26 -25.5t-25 -19.5q-28 -20 -66 -30.5t-76 -10.5h-204q-38 0 -76 10.5t-66 30.5q-11 8 -25.5 21t-28.5 27.5t-26 27.5t-18 22q-19 26 -26 56t-7 61zM213 250q0 -9 1 -14.5 t3 -8.5q5 -11 15.5 -23t23 -23t25.5 -20.5t24 -15.5q6 -3 10.5 -4.5t14.5 -1.5h198q10 0 14.5 1.5t10.5 4.5q8 5 21 14.5t26 21t23.5 23t15.5 19.5q2 5 3 11.5t1 11.5v387v4v4l-6 21q-14 20 -35.5 39.5t-44.5 33.5q-5 3 -12 5.5t-17 2.5h-198q-10 0 -16 -2t-9 -4 q-11 -5 -24 -14.5t-25 -21t-22.5 -23.5t-16.5 -23q-2 -3 -3 -8t-1 -14v-383zM803 518h432v115v11t-2 11q-5 11 -15.5 23t-23 23.5t-25.5 21t-24 14.5q-6 3 -10.5 4.5t-14.5 1.5h-202q-5 0 -12.5 -1.5t-12.5 -4.5q-31 -17 -53 -38t-33 -44q-4 -4 -4 -18v-119z" />
<glyph unicode="&#x154;" horiz-adv-x="1178" d="M84 0v1229h578q35 0 72 -11.5t65 -31.5q10 -8 26 -22.5t32.5 -30.5t30 -31.5t19.5 -24.5q17 -26 26 -56t9 -60v-185q0 -62 -35 -114q-6 -9 -19.5 -24.5t-30 -32t-32.5 -31t-26 -21.5q-19 -14 -45 -24.5t-47 -12.5l299 -516h-183l-288 512h-283v-512h-168zM84 0zM252 672 h407q14 0 31.5 9.5t34 23t29.5 28t18 25.5q2 3 2 11v11v176v12.5t-2 10.5q-5 8 -17 23t-27 29.5t-30.5 25.5t-25.5 12h-13h-407v-397zM332 1362l180 231h201l-229 -272z" />
<glyph unicode="&#x155;" horiz-adv-x="852" d="M51 883h158l10 -72q15 15 34 29.5t40 26t43.5 19t44.5 7.5h113q37 0 74 -9.5t65 -29.5q18 -12 38 -32.5t39 -44.5t35 -49.5t25 -47.5l-152 -45q-8 16 -21 35t-29 35t-34 27t-36 11h-111q-16 0 -40.5 -13t-49 -30.5t-44.5 -36t-28 -30.5v-633h-159v719zM305 1069l180 231 h201l-229 -272z" />
<glyph unicode="&#x156;" horiz-adv-x="1178" d="M84 0v1229h578q35 0 72 -11.5t65 -31.5q10 -8 26 -22.5t32.5 -30.5t30 -31.5t19.5 -24.5q17 -26 26 -56t9 -60v-185q0 -62 -35 -114q-6 -9 -19.5 -24.5t-30 -32t-32.5 -31t-26 -21.5q-19 -14 -45 -24.5t-47 -12.5l299 -516h-183l-288 512h-283v-512h-168zM84 0zM97 -354 l178 262l149 -51l-145 -211h-182zM252 672h407q14 0 31.5 9.5t34 23t29.5 28t18 25.5q2 3 2 11v11v176v12.5t-2 10.5q-5 8 -17 23t-27 29.5t-30.5 25.5t-25.5 12h-13h-407v-397z" />
<glyph unicode="&#x157;" horiz-adv-x="852" d="M29 -354l178 262l149 -51l-145 -211h-182zM51 883h158l10 -72q15 15 34 29.5t40 26t43.5 19t44.5 7.5h113q37 0 74 -9.5t65 -29.5q18 -12 38 -32.5t39 -44.5t35 -49.5t25 -47.5l-152 -45q-8 16 -21 35t-29 35t-34 27t-36 11h-111q-16 0 -40.5 -13t-49 -30.5t-44.5 -36 t-28 -30.5v-633h-159v719z" />
<glyph unicode="&#x158;" horiz-adv-x="1167" d="M84 0v1229h578q35 0 72 -11.5t65 -31.5q10 -8 26 -22.5t32.5 -30.5t30 -31.5t19.5 -24.5q17 -26 26 -56t9 -60v-185q0 -62 -35 -114q-6 -9 -19.5 -24.5t-30 -32t-32.5 -31t-26 -21.5q-19 -14 -45 -24.5t-47 -12.5l299 -516h-183l-288 512h-283v-512h-168zM84 0zM199 1593 h192l107 -133l106 133h193l-215 -243h-168zM252 672h407q14 0 31.5 9.5t34 23t29.5 28t18 25.5q2 3 2 11v11v176v12.5t-2 10.5q-5 8 -17 23t-27 29.5t-30.5 25.5t-25.5 12h-13h-407v-397z" />
<glyph unicode="&#x159;" horiz-adv-x="852" d="M51 883h158l10 -72q15 15 34 29.5t40 26t43.5 19t44.5 7.5h113q37 0 74 -9.5t65 -29.5q18 -12 38 -32.5t39 -44.5t35 -49.5t25 -47.5l-152 -45q-8 16 -21 35t-29 35t-34 27t-36 11h-111q-16 0 -40.5 -13t-49 -30.5t-44.5 -36t-28 -30.5v-633h-159v719zM119 1300h192 l107 -133l106 133h193l-215 -243h-168z" />
<glyph unicode="&#x15a;" horiz-adv-x="1167" d="M43 0zM43 262l162 43q3 -6 6 -13t6 -12l6 -12q10 -18 25 -35.5t31.5 -33t32.5 -27.5t28 -18q6 -3 10.5 -3.5t7.5 -0.5h328q8 0 16 4q12 6 32.5 21.5t39.5 34t33 37.5t14 32v124q0 25 -14 45t-33 25l-557 143q-35 9 -62 30.5t-45.5 50t-28 61.5t-9.5 67v125q0 26 5.5 55 t22.5 54q9 14 28 35t41 42.5t44 40t37 27.5q25 14 56.5 24.5t60.5 10.5h301q40 0 76 -15.5t68 -39.5t59 -53.5t49 -57.5q12 -15 25 -39.5t32 -64.5l-164 -47l-16 32q-3 5 -4 9q-9 17 -24 34.5t-31.5 33.5t-33 28t-28.5 18q-2 0 -4 1q-2 0 -4.5 0.5t-5.5 0.5h-285 q-6 0 -10 -1t-9 -3q-11 -5 -31 -21t-39.5 -35t-33.5 -38t-14 -31v-116q0 -23 13 -42t32 -24l555 -147q34 -9 62 -29.5t47 -48.5t29.5 -60.5t10.5 -66.5v-140q0 -26 -5.5 -54.5t-22.5 -53.5q-9 -14 -28 -34.5t-41 -41.5t-44 -39.5t-37 -27.5q-25 -14 -56.5 -24.5t-60.5 -10.5 h-342q-41 0 -77.5 15t-68.5 39t-59 53.5t-49 58.5q-12 17 -24 41.5t-31 64.5zM393 1362l180 231h201l-229 -272z" />
<glyph unicode="&#x15b;" horiz-adv-x="961" d="M8 0zM8 201l154 51q7 -15 19 -32t25.5 -32t27 -27t24.5 -18q8 -4 25 -4h247q16 0 31 8t28.5 19.5t24.5 25t19 25.5q6 9 6 27v67q0 17 -15.5 32t-39.5 17l-340 23q-42 3 -78.5 19.5t-63.5 43t-43 62t-16 76.5v59q0 32 8 61.5t27 55.5q6 9 16.5 21.5t23 25.5t25.5 25t25 20 q29 20 65.5 30.5t73.5 10.5h213q37 0 73.5 -10.5t65.5 -30.5q19 -13 38.5 -32t38 -41.5t35.5 -47t30 -49.5l-154 -51q-9 17 -23 36.5t-30.5 36.5t-34 28t-33.5 11h-219q-16 0 -24 -4q-28 -14 -43.5 -30t-30.5 -39q-6 -9 -6 -27v-59q0 -17 14 -32t39 -17l340 -25 q42 -3 78.5 -19.5t64.5 -43t44 -62t16 -76.5v-69q0 -63 -37 -117q-6 -9 -17 -22t-23.5 -26t-25.5 -25t-24 -19q-29 -20 -65.5 -30.5t-74.5 -10.5h-245q-37 0 -74 10.5t-66 30.5q-18 12 -37 31t-37.5 42t-35.5 48t-29 49zM305 1069l180 231h201l-229 -272z" />
<glyph unicode="&#x15c;" horiz-adv-x="1167" d="M43 0zM43 262l162 43q3 -6 6 -13t6 -12l6 -12q10 -18 25 -35.5t31.5 -33t32.5 -27.5t28 -18q6 -3 10.5 -3.5t7.5 -0.5h328q8 0 16 4q12 6 32.5 21.5t39.5 34t33 37.5t14 32v124q0 25 -14 45t-33 25l-557 143q-35 9 -62 30.5t-45.5 50t-28 61.5t-9.5 67v125q0 26 5.5 55 t22.5 54q9 14 28 35t41 42.5t44 40t37 27.5q25 14 56.5 24.5t60.5 10.5h301q40 0 76 -15.5t68 -39.5t59 -53.5t49 -57.5q12 -15 25 -39.5t32 -64.5l-164 -47l-16 32q-3 5 -4 9q-9 17 -24 34.5t-31.5 33.5t-33 28t-28.5 18q-2 0 -4 1q-2 0 -4.5 0.5t-5.5 0.5h-285 q-6 0 -10 -1t-9 -3q-11 -5 -31 -21t-39.5 -35t-33.5 -38t-14 -31v-116q0 -23 13 -42t32 -24l555 -147q34 -9 62 -29.5t47 -48.5t29.5 -60.5t10.5 -66.5v-140q0 -26 -5.5 -54.5t-22.5 -53.5q-9 -14 -28 -34.5t-41 -41.5t-44 -39.5t-37 -27.5q-25 -14 -56.5 -24.5t-60.5 -10.5 h-342q-41 0 -77.5 15t-68.5 39t-59 53.5t-49 58.5q-12 17 -24 41.5t-31 64.5zM227 1352l215 243h168l215 -243h-193l-106 133l-107 -133h-192z" />
<glyph unicode="&#x15d;" horiz-adv-x="961" d="M8 0zM8 201l154 51q7 -15 19 -32t25.5 -32t27 -27t24.5 -18q8 -4 25 -4h247q16 0 31 8t28.5 19.5t24.5 25t19 25.5q6 9 6 27v67q0 17 -15.5 32t-39.5 17l-340 23q-42 3 -78.5 19.5t-63.5 43t-43 62t-16 76.5v59q0 32 8 61.5t27 55.5q6 9 16.5 21.5t23 25.5t25.5 25t25 20 q29 20 65.5 30.5t73.5 10.5h213q37 0 73.5 -10.5t65.5 -30.5q19 -13 38.5 -32t38 -41.5t35.5 -47t30 -49.5l-154 -51q-9 17 -23 36.5t-30.5 36.5t-34 28t-33.5 11h-219q-16 0 -24 -4q-28 -14 -43.5 -30t-30.5 -39q-6 -9 -6 -27v-59q0 -17 14 -32t39 -17l340 -25 q42 -3 78.5 -19.5t64.5 -43t44 -62t16 -76.5v-69q0 -63 -37 -117q-6 -9 -17 -22t-23.5 -26t-25.5 -25t-24 -19q-29 -20 -65.5 -30.5t-74.5 -10.5h-245q-37 0 -74 10.5t-66 30.5q-18 12 -37 31t-37.5 42t-35.5 48t-29 49zM125 1057l215 243h168l215 -243h-193l-106 133 l-107 -133h-192z" />
<glyph unicode="&#x15e;" horiz-adv-x="1167" d="M43 0zM43 262l162 43q3 -6 6 -13t6 -12l6 -12q10 -18 25 -35.5t31.5 -33t32.5 -27.5t28 -18q6 -3 10.5 -3.5t7.5 -0.5h328q8 0 16 4q12 6 32.5 21.5t39.5 34t33 37.5t14 32v124q0 25 -14 45t-33 25l-557 143q-35 9 -62 30.5t-45.5 50t-28 61.5t-9.5 67v125q0 26 5.5 55 t22.5 54q9 14 28 35t41 42.5t44 40t37 27.5q25 14 56.5 24.5t60.5 10.5h301q40 0 76 -15.5t68 -39.5t59 -53.5t49 -57.5q12 -15 25 -39.5t32 -64.5l-164 -47l-16 32q-3 5 -4 9q-9 17 -24 34.5t-31.5 33.5t-33 28t-28.5 18q-2 0 -4 1q-2 0 -4.5 0.5t-5.5 0.5h-285 q-6 0 -10 -1t-9 -3q-11 -5 -31 -21t-39.5 -35t-33.5 -38t-14 -31v-116q0 -23 13 -42t32 -24l555 -147q34 -9 62 -29.5t47 -48.5t29.5 -60.5t10.5 -66.5v-140q0 -26 -5.5 -54.5t-22.5 -53.5q-9 -14 -28 -34.5t-41 -41.5t-44 -39.5t-37 -27.5q-25 -14 -56.5 -24.5t-60.5 -10.5 h-342q-41 0 -77.5 15t-68.5 39t-59 53.5t-49 58.5q-12 17 -24 41.5t-31 64.5zM332 -354l178 262l149 -51l-145 -211h-182z" />
<glyph unicode="&#x15f;" horiz-adv-x="961" d="M8 0zM8 201l154 51q7 -15 19 -32t25.5 -32t27 -27t24.5 -18q8 -4 25 -4h247q16 0 31 8t28.5 19.5t24.5 25t19 25.5q6 9 6 27v67q0 17 -15.5 32t-39.5 17l-340 23q-42 3 -78.5 19.5t-63.5 43t-43 62t-16 76.5v59q0 32 8 61.5t27 55.5q6 9 16.5 21.5t23 25.5t25.5 25t25 20 q29 20 65.5 30.5t73.5 10.5h213q37 0 73.5 -10.5t65.5 -30.5q19 -13 38.5 -32t38 -41.5t35.5 -47t30 -49.5l-154 -51q-9 17 -23 36.5t-30.5 36.5t-34 28t-33.5 11h-219q-16 0 -24 -4q-28 -14 -43.5 -30t-30.5 -39q-6 -9 -6 -27v-59q0 -17 14 -32t39 -17l340 -25 q42 -3 78.5 -19.5t64.5 -43t44 -62t16 -76.5v-69q0 -63 -37 -117q-6 -9 -17 -22t-23.5 -26t-25.5 -25t-24 -19q-29 -20 -65.5 -30.5t-74.5 -10.5h-245q-37 0 -74 10.5t-66 30.5q-18 12 -37 31t-37.5 42t-35.5 48t-29 49zM219 -354l178 262l149 -51l-145 -211h-182z" />
<glyph unicode="&#x160;" horiz-adv-x="1167" d="M43 0zM43 262l162 43q3 -6 6 -13t6 -12l6 -12q10 -18 25 -35.5t31.5 -33t32.5 -27.5t28 -18q6 -3 10.5 -3.5t7.5 -0.5h328q8 0 16 4q12 6 32.5 21.5t39.5 34t33 37.5t14 32v124q0 25 -14 45t-33 25l-557 143q-35 9 -62 30.5t-45.5 50t-28 61.5t-9.5 67v125q0 26 5.5 55 t22.5 54q9 14 28 35t41 42.5t44 40t37 27.5q25 14 56.5 24.5t60.5 10.5h301q40 0 76 -15.5t68 -39.5t59 -53.5t49 -57.5q12 -15 25 -39.5t32 -64.5l-164 -47l-16 32q-3 5 -4 9q-9 17 -24 34.5t-31.5 33.5t-33 28t-28.5 18q-2 0 -4 1q-2 0 -4.5 0.5t-5.5 0.5h-285 q-6 0 -10 -1t-9 -3q-11 -5 -31 -21t-39.5 -35t-33.5 -38t-14 -31v-116q0 -23 13 -42t32 -24l555 -147q34 -9 62 -29.5t47 -48.5t29.5 -60.5t10.5 -66.5v-140q0 -26 -5.5 -54.5t-22.5 -53.5q-9 -14 -28 -34.5t-41 -41.5t-44 -39.5t-37 -27.5q-25 -14 -56.5 -24.5t-60.5 -10.5 h-342q-41 0 -77.5 15t-68.5 39t-59 53.5t-49 58.5q-12 17 -24 41.5t-31 64.5zM217 1595h192l107 -133l106 133h193l-215 -243h-168z" />
<glyph unicode="&#x161;" horiz-adv-x="961" d="M8 0zM8 201l154 51q7 -15 19 -32t25.5 -32t27 -27t24.5 -18q8 -4 25 -4h247q16 0 31 8t28.5 19.5t24.5 25t19 25.5q6 9 6 27v67q0 17 -15.5 32t-39.5 17l-340 23q-42 3 -78.5 19.5t-63.5 43t-43 62t-16 76.5v59q0 32 8 61.5t27 55.5q6 9 16.5 21.5t23 25.5t25.5 25t25 20 q29 20 65.5 30.5t73.5 10.5h213q37 0 73.5 -10.5t65.5 -30.5q19 -13 38.5 -32t38 -41.5t35.5 -47t30 -49.5l-154 -51q-9 17 -23 36.5t-30.5 36.5t-34 28t-33.5 11h-219q-16 0 -24 -4q-28 -14 -43.5 -30t-30.5 -39q-6 -9 -6 -27v-59q0 -17 14 -32t39 -17l340 -25 q42 -3 78.5 -19.5t64.5 -43t44 -62t16 -76.5v-69q0 -63 -37 -117q-6 -9 -17 -22t-23.5 -26t-25.5 -25t-24 -19q-29 -20 -65.5 -30.5t-74.5 -10.5h-245q-37 0 -74 10.5t-66 30.5q-18 12 -37 31t-37.5 42t-35.5 48t-29 49zM127 1300h192l107 -133l106 133h193l-215 -243h-168z " />
<glyph unicode="&#x162;" horiz-adv-x="1032" d="M16 1069v160h869v-160h-350v-1069h-168v1069h-351zM242 -354l178 262l149 -51l-145 -211h-182z" />
<glyph unicode="&#x163;" horiz-adv-x="700" d="M-18 733v150h145v346h160v-346h270v-150h-270v-469q0 -22 4 -26q12 -22 36 -46t46 -36q3 -2 11 -4t17 -2h144v-150h-146q-37 0 -74 10.5t-65 30.5q-12 8 -26.5 21.5t-28.5 28.5t-25.5 28.5t-17.5 21.5q-19 26 -27 56.5t-8 62.5v473h-145zM158 -354l178 262l149 -51 l-145 -211h-182z" />
<glyph unicode="&#x164;" horiz-adv-x="1032" d="M16 1069v160h869v-160h-350v-1069h-168v1069h-351zM154 1595h192l107 -133l106 133h193l-215 -243h-168z" />
<glyph unicode="&#x165;" horiz-adv-x="836" d="M-18 733v150h145v346h160v-346h270v-150h-270v-469q0 -22 4 -26q12 -22 36 -46t46 -36q3 -2 11 -4t17 -2h144v-150h-146q-37 0 -74 10.5t-65 30.5q-12 8 -26.5 21.5t-28.5 28.5t-25.5 28.5t-17.5 21.5q-19 26 -27 56.5t-8 62.5v473h-145zM635 946l16 148v221h156v-248 l-14 -121h-158z" />
<glyph unicode="&#x166;" horiz-adv-x="1032" d="M16 1069v160h869v-160h-350v-379h198v-149h-198v-541h-168v541h-211v149h211v379h-351z" />
<glyph unicode="&#x167;" horiz-adv-x="700" d="M-18 733v150h145v346h160v-346h270v-150h-270v-137h272v-150h-272v-184q0 -20 4 -24q12 -22 36 -46t46 -38q3 0 11 -3.5t17 -3.5h154v-147h-156q-37 0 -74 9.5t-65 29.5q-12 8 -26.5 21.5t-28.5 28.5t-25.5 28.5t-17.5 21.5q-19 26 -27 57.5t-8 63.5v186h-143v150h143 v137h-145z" />
<glyph unicode="&#x168;" horiz-adv-x="1135" d="M74 0zM74 274v955h168v-950q0 -12 15 -31t35 -38t40.5 -35t32.5 -21q3 -2 6.5 -3t9.5 -1h254q10 0 18 4q12 5 31.5 21t38.5 35.5t33 38.5t14 30v950h168v-955q0 -27 -6 -54t-23 -52q-9 -14 -27.5 -34.5t-40 -41.5t-43 -39.5t-36.5 -27.5q-25 -14 -56.5 -24.5t-60.5 -10.5 h-274q-29 0 -61.5 10.5t-57.5 24.5q-15 9 -36.5 27.5t-43.5 39.5t-40.5 41.5t-27.5 34.5q-17 25 -23.5 52t-6.5 54zM193 1390q15 39 43 67.5t63 45t74.5 20t79.5 -5.5l148 -34q26 -7 50.5 6t35.5 39l139 -35q-15 -39 -43 -68t-63 -45.5t-74.5 -20t-79.5 6.5l-146 35 q-26 6 -50.5 -6.5t-35.5 -38.5z" />
<glyph unicode="&#x169;" horiz-adv-x="999" d="M53 0zM53 248v635h160v-631v-11.5t2 -11.5q6 -11 16.5 -23t22.5 -24t25 -21.5t24 -15.5q6 -3 10.5 -3.5t14.5 -0.5h145q15 0 38.5 12.5t47.5 30t44 35t28 27.5v637h160v-719l16 -164h-160l-8 72q-15 -14 -34 -28t-39.5 -25.5t-42.5 -19t-44 -7.5h-153q-38 0 -76 10.5 t-66 30.5q-11 8 -25.5 21.5t-28.5 27.5t-26 27.5t-18 21.5q-19 26 -26 56t-7 61zM111 1124q15 39 43 67.5t63 45t74.5 20t79.5 -5.5l148 -34q26 -7 50.5 6t35.5 39l139 -35q-15 -39 -43 -68t-63 -45.5t-74.5 -20t-79.5 6.5l-146 35q-26 6 -50.5 -6.5t-35.5 -38.5z" />
<glyph unicode="&#x16a;" horiz-adv-x="1135" d="M74 0zM74 274v955h168v-950q0 -12 15 -31t35 -38t40.5 -35t32.5 -21q3 -2 6.5 -3t9.5 -1h254q10 0 18 4q12 5 31.5 21t38.5 35.5t33 38.5t14 30v950h168v-955q0 -27 -6 -54t-23 -52q-9 -14 -27.5 -34.5t-40 -41.5t-43 -39.5t-36.5 -27.5q-25 -14 -56.5 -24.5t-60.5 -10.5 h-274q-29 0 -61.5 10.5t-57.5 24.5q-15 9 -36.5 27.5t-43.5 39.5t-40.5 41.5t-27.5 34.5q-17 25 -23.5 52t-6.5 54zM302 1376v146h413v-146h-413z" />
<glyph unicode="&#x16b;" horiz-adv-x="999" d="M53 0zM53 248v635h160v-631v-11.5t2 -11.5q6 -11 16.5 -23t22.5 -24t25 -21.5t24 -15.5q6 -3 10.5 -3.5t14.5 -0.5h145q15 0 38.5 12.5t47.5 30t44 35t28 27.5v637h160v-719l16 -164h-160l-8 72q-15 -14 -34 -28t-39.5 -25.5t-42.5 -19t-44 -7.5h-153q-38 0 -76 10.5 t-66 30.5q-11 8 -25.5 21.5t-28.5 27.5t-26 27.5t-18 21.5q-19 26 -26 56t-7 61zM209 1081v146h413v-146h-413z" />
<glyph unicode="&#x16c;" horiz-adv-x="1135" d="M74 0zM74 274v955h168v-950q0 -12 15 -31t35 -38t40.5 -35t32.5 -21q3 -2 6.5 -3t9.5 -1h254q10 0 18 4q12 5 31.5 21t38.5 35.5t33 38.5t14 30v950h168v-955q0 -27 -6 -54t-23 -52q-9 -14 -27.5 -34.5t-40 -41.5t-43 -39.5t-36.5 -27.5q-25 -14 -56.5 -24.5t-60.5 -10.5 h-274q-29 0 -61.5 10.5t-57.5 24.5q-15 9 -36.5 27.5t-43.5 39.5t-40.5 41.5t-27.5 34.5q-17 25 -23.5 52t-6.5 54zM321 1536h101q0 -43 28 -72.5t68 -29.5q21 0 39.5 8t32.5 21.5t22 32.5t8 40h99q0 -42 -15 -78t-42 -61.5t-64 -40t-80 -14.5q-42 0 -78.5 14.5t-62.5 40 t-41 61.5t-15 78z" />
<glyph unicode="&#x16d;" horiz-adv-x="999" d="M53 0zM53 248v635h160v-631v-11.5t2 -11.5q6 -11 16.5 -23t22.5 -24t25 -21.5t24 -15.5q6 -3 10.5 -3.5t14.5 -0.5h145q15 0 38.5 12.5t47.5 30t44 35t28 27.5v637h160v-719l16 -164h-160l-8 72q-15 -14 -34 -28t-39.5 -25.5t-42.5 -19t-44 -7.5h-153q-38 0 -76 10.5 t-66 30.5q-11 8 -25.5 21.5t-28.5 27.5t-26 27.5t-18 21.5q-19 26 -26 56t-7 61zM235 1241h101q0 -43 28 -72.5t68 -29.5q21 0 39.5 8t32.5 21.5t22 32.5t8 40h99q0 -42 -15 -78t-42 -61.5t-64 -40t-80 -14.5q-42 0 -78.5 14.5t-62.5 40t-41 61.5t-15 78z" />
<glyph unicode="&#x16e;" horiz-adv-x="1135" d="M74 0zM74 274v955h168v-950q0 -12 15 -31t35 -38t40.5 -35t32.5 -21q3 -2 6.5 -3t9.5 -1h254q10 0 18 4q12 5 31.5 21t38.5 35.5t33 38.5t14 30v950h168v-955q0 -27 -6 -54t-23 -52q-9 -14 -27.5 -34.5t-40 -41.5t-43 -39.5t-36.5 -27.5q-25 -14 -56.5 -24.5t-60.5 -10.5 h-274q-29 0 -61.5 10.5t-57.5 24.5q-15 9 -36.5 27.5t-43.5 39.5t-40.5 41.5t-27.5 34.5q-17 25 -23.5 52t-6.5 54zM301 1514q0 41 15 76.5t41 61.5t62.5 41t78.5 15q43 0 80 -15t64 -41t42 -61.5t15 -76.5q0 -42 -15 -78t-42 -62t-64 -40.5t-80 -14.5q-42 0 -78.5 14.5 t-62.5 40.5t-41 62t-15 78zM402 1514q0 -44 28 -73.5t68 -29.5q21 0 39.5 8t32.5 22t22 32.5t8 40.5q0 21 -8 39t-22 31.5t-32.5 21.5t-39.5 8q-20 0 -37.5 -8t-30.5 -21.5t-20.5 -31.5t-7.5 -39z" />
<glyph unicode="&#x16f;" horiz-adv-x="999" d="M53 0zM53 248v635h160v-631v-11.5t2 -11.5q6 -11 16.5 -23t22.5 -24t25 -21.5t24 -15.5q6 -3 10.5 -3.5t14.5 -0.5h145q15 0 38.5 12.5t47.5 30t44 35t28 27.5v637h160v-719l16 -164h-160l-8 72q-15 -14 -34 -28t-39.5 -25.5t-42.5 -19t-44 -7.5h-153q-38 0 -76 10.5 t-66 30.5q-11 8 -25.5 21.5t-28.5 27.5t-26 27.5t-18 21.5q-19 26 -26 56t-7 61zM229 1227q0 41 15 76.5t41 61.5t62.5 41t78.5 15q43 0 80 -15t64 -41t42 -61.5t15 -76.5q0 -42 -15 -78t-42 -62t-64 -40.5t-80 -14.5q-42 0 -78.5 14.5t-62.5 40.5t-41 62t-15 78zM330 1227 q0 -44 28 -73.5t68 -29.5q21 0 39.5 8t32.5 22t22 32.5t8 40.5q0 21 -8 39t-22 31.5t-32.5 21.5t-39.5 8q-20 0 -37.5 -8t-30.5 -21.5t-20.5 -31.5t-7.5 -39z" />
<glyph unicode="&#x170;" horiz-adv-x="1135" d="M74 0zM74 274v955h168v-950q0 -12 15 -31t35 -38t40.5 -35t32.5 -21q3 -2 6.5 -3t9.5 -1h254q10 0 18 4q12 5 31.5 21t38.5 35.5t33 38.5t14 30v950h168v-955q0 -27 -6 -54t-23 -52q-9 -14 -27.5 -34.5t-40 -41.5t-43 -39.5t-36.5 -27.5q-25 -14 -56.5 -24.5t-60.5 -10.5 h-274q-29 0 -61.5 10.5t-57.5 24.5q-15 9 -36.5 27.5t-43.5 39.5t-40.5 41.5t-27.5 34.5q-17 25 -23.5 52t-6.5 54zM276 1376l174 219h162l-219 -256zM516 1376l174 219h162l-219 -256z" />
<glyph unicode="&#x171;" horiz-adv-x="999" d="M53 0zM53 248v635h160v-631v-11.5t2 -11.5q6 -11 16.5 -23t22.5 -24t25 -21.5t24 -15.5q6 -3 10.5 -3.5t14.5 -0.5h145q15 0 38.5 12.5t47.5 30t44 35t28 27.5v637h160v-719l16 -164h-160l-8 72q-15 -14 -34 -28t-39.5 -25.5t-42.5 -19t-44 -7.5h-153q-38 0 -76 10.5 t-66 30.5q-11 8 -25.5 21.5t-28.5 27.5t-26 27.5t-18 21.5q-19 26 -26 56t-7 61zM203 1081l174 219h162l-219 -256zM443 1081l174 219h162l-219 -256z" />
<glyph unicode="&#x172;" horiz-adv-x="1135" d="M74 0zM74 274v955h168v-950q0 -12 15 -31t35 -38t40.5 -35t32.5 -21q3 -2 6.5 -3t9.5 -1h254q10 0 18 4q12 5 31.5 21t38.5 35.5t33 38.5t14 30v950h168v-955q0 -27 -6 -54t-23 -52q-9 -14 -27.5 -34.5t-40 -41.5t-43 -39.5t-36.5 -27.5q-25 -14 -56.5 -24.5t-60.5 -10.5 h-274q-29 0 -61.5 10.5t-57.5 24.5q-15 9 -36.5 27.5t-43.5 39.5t-40.5 41.5t-27.5 34.5q-17 25 -23.5 52t-6.5 54zM367 -143l149 51l179 -262h-183z" />
<glyph unicode="&#x173;" horiz-adv-x="999" d="M53 0zM53 248v635h160v-631v-11.5t2 -11.5q6 -11 16.5 -23t22.5 -24t25 -21.5t24 -15.5q6 -3 10.5 -3.5t14.5 -0.5h145q15 0 38.5 12.5t47.5 30t44 35t28 27.5v637h160v-719l16 -164h-160l-8 72q-15 -14 -34 -28t-39.5 -25.5t-42.5 -19t-44 -7.5h-153q-38 0 -76 10.5 t-66 30.5q-11 8 -25.5 21.5t-28.5 27.5t-26 27.5t-18 21.5q-19 26 -26 56t-7 61zM346 -143l149 51l179 -262h-183z" />
<glyph unicode="&#x174;" horiz-adv-x="1503" d="M-23 1229h175l215 -1006l227 1006h194l228 -1006l215 1006h174l-283 -1229h-211l-219 954l-221 -954h-211zM393 1352l215 243h168l215 -243h-192l-107 133l-106 -133h-193z" />
<glyph unicode="&#x175;" horiz-adv-x="1372" d="M-35 883h170l197 -686l188 686h195l196 -686l189 686h168l-262 -883h-191l-199 651l-190 -651h-190zM317 1057l215 243h168l215 -243h-192l-107 133l-106 -133h-193z" />
<glyph unicode="&#x176;" horiz-adv-x="1040" d="M-37 1229h184l314 -537q-1 0 12 22.5t35 60.5t50 86t58 99q70 118 158 269h182l-413 -707v-522h-168v522zM160 1352l215 243h168l215 -243h-193l-106 133l-107 -133h-192z" />
<glyph unicode="&#x177;" horiz-adv-x="881" d="M-29 883h172l230 -686l231 686h166l-424 -1237h-160l119 354h-31zM72 1057l215 243h168l215 -243h-193l-106 133l-107 -133h-192z" />
<glyph unicode="&#x178;" horiz-adv-x="1024" d="M-45 1229h184l314 -537q-1 0 12 22.5t35 60.5t50 86t58 99q70 118 158 269h182l-413 -707v-522h-168v522zM0 0zM205 1391v182h170v-182h-170zM535 1391v182h170v-182h-170z" />
<glyph unicode="&#x179;" horiz-adv-x="1026" d="M72 0v129l594 940h-594v160h794v-133l-579 -936h579v-160h-794zM356 1364l181 231h200l-229 -272z" />
<glyph unicode="&#x17a;" horiz-adv-x="909" d="M37 733v150h686v-127l-457 -606h479v-150h-692v125l457 608h-473zM305 1069l180 231h201l-229 -272z" />
<glyph unicode="&#x17b;" horiz-adv-x="1026" d="M72 0v129l594 940h-594v160h794v-133l-579 -936h579v-160h-794zM375 1360v182h184v-182h-184z" />
<glyph unicode="&#x17c;" horiz-adv-x="909" d="M37 733v150h686v-127l-457 -606h479v-150h-692v125l457 608h-473zM295 1065v182h184v-182h-184z" />
<glyph unicode="&#x17d;" horiz-adv-x="1026" d="M72 0v129l594 940h-594v160h794v-133l-579 -936h579v-160h-794zM180 1595h193l106 -133l107 133h192l-215 -243h-168z" />
<glyph unicode="&#x17e;" horiz-adv-x="909" d="M37 733v150h686v-127l-457 -606h479v-150h-692v125l457 608h-473zM78 1300h192l107 -133l106 133h193l-215 -243h-168z" />
<glyph unicode="&#x17f;" horiz-adv-x="696" d="M16 733v150h146v98q0 32 7 62.5t26 56.5q6 8 17.5 21.5t25.5 27.5t28.5 27.5t26.5 21.5q29 20 66.5 30.5t74.5 10.5h156v-149h-154q-6 0 -15.5 -0.5t-14.5 -4.5q-9 -5 -22.5 -15.5t-27 -24t-23.5 -27t-11 -23.5v-18v-977h-160v733h-146z" />
<glyph unicode="&#x18f;" horiz-adv-x="1212" d="M92 969q19 40 32 63.5t26 38.5q22 29 49 59t58.5 54t68 39.5t77.5 15.5h316q29 0 61.5 -10.5t57.5 -24.5q15 -9 36.5 -28t43 -40.5t40 -42.5t27.5 -34q17 -25 24 -53t7 -56v-674q0 -27 -7 -55t-24 -53q-9 -14 -27.5 -34.5t-40 -41.5t-43 -39.5t-36.5 -27.5 q-25 -14 -57.5 -24.5t-61.5 -10.5h-316q-29 0 -61.5 10.5t-56.5 24.5q-15 9 -36.5 27.5t-43.5 39.5t-40.5 41.5t-27.5 34.5q-17 25 -24 53t-7 55v422h742v246q0 6 -1 10.5t-3 8.5q-8 16 -23 33.5t-31.5 33.5t-33 28t-27.5 17q-8 4 -18 4h-301q-13 0 -21 -4q-12 -6 -27.5 -18 t-32 -27t-30.5 -32.5t-23 -34.5l-20 -41zM274 283q0 -13 14.5 -33t35 -39.5t41 -36t32.5 -22.5q4 -2 17 -2h295q12 0 16 2q12 6 33 22.5t41 36t34.5 39.5t14.5 33v256h-574v-256z" />
<glyph unicode="&#x192;" horiz-adv-x="696" d="M-102 -203h151q6 0 13 -0.5t12 2.5q10 6 22.5 17t24 23.5t21.5 25.5t16 24q4 4 4 23v88v733h-146v150h146v98q0 32 7 62.5t26 56.5q6 8 17.5 21.5t25.5 27.5t28.5 27.5t26.5 21.5q29 20 66.5 30.5t74.5 10.5h156v-149h-154q-6 0 -15.5 -0.5t-14.5 -4.5q-9 -5 -22.5 -15.5 t-26.5 -24t-22.5 -27t-10.5 -23.5v-18v-94h155v-150h-155v-825q0 -32 -8.5 -62.5t-26.5 -56.5q-6 -8 -18 -21.5t-26 -28.5t-28.5 -28.5t-26.5 -21.5q-29 -20 -66.5 -30.5t-72.5 -10.5h-153v149z" />
<glyph unicode="&#x1dd;" horiz-adv-x="989" d="M53 0zM53 246v264h592v123q0 9 -1 14.5t-3 8.5q-4 8 -13 19.5t-20.5 23.5t-24.5 22.5t-26 16.5q-12 6 -27 6h-207q-9 0 -13.5 -1.5t-10.5 -4.5q-11 -6 -23.5 -15.5t-24 -21t-21.5 -23.5t-15 -22l-12 -23l-150 49q10 23 25.5 47.5t33.5 47.5t37.5 42.5t38.5 32.5 q28 20 65 30.5t75 10.5h202q37 0 75.5 -10.5t66.5 -30.5q11 -8 25.5 -21t28.5 -27.5t26 -27.5t18 -22q19 -25 27 -55t8 -62v-391q0 -32 -8 -62t-27 -55q-6 -8 -18 -21t-26 -27.5t-28.5 -27.5t-25.5 -22q-28 -20 -66.5 -30.5t-75.5 -10.5h-204q-38 0 -76 10.5t-66 30.5 q-12 9 -26.5 22t-28.5 27.5t-25.5 27.5t-17.5 21q-19 26 -26 56t-7 61zM213 239q0 -8 2 -11q5 -11 15.5 -23t23 -23.5t25.5 -21t24 -14.5q6 -3 10.5 -4.5t14.5 -1.5h202q5 0 12.5 1.5t12.5 4.5q31 17 53 38t33 44q4 4 4 22v115h-432v-115v-11z" />
<glyph unicode="&#x1fc;" horiz-adv-x="1542" d="M-45 0l500 1229h866v-160h-545v-375h512v-159h-512v-375h545v-160h-713v272h-358l-107 -272h-188zM0 0zM303 432h305v625h-53zM715 1415l180 231h201l-229 -272z" />
<glyph unicode="&#x1fd;" horiz-adv-x="1561" d="M12 0zM12 244v41q0 32 8.5 59t26.5 53q6 9 17.5 22t25 26.5t28 26t25.5 20.5q28 20 65 31.5t75 11.5h344v100v8q0 11 -10.5 25t-25.5 27.5t-30 25t-24 16.5q-4 2 -10.5 4t-14.5 2h-205q-11 0 -15 -1t-7 -3q-31 -15 -56.5 -45t-42.5 -61l-149 49q14 26 23 40.5t18 27.5 q6 8 17.5 22t25 29t27.5 28.5t26 22.5q28 20 65 30.5t74 10.5h201q33 0 59.5 -6.5t49.5 -18t43.5 -28t40.5 -37.5q40 42 83 66t109 24h225q38 0 75 -11.5t65 -31.5q11 -8 25.5 -21t28.5 -27t26 -27.5t18 -22.5q18 -26 26.5 -56t8.5 -61v-250h-611v-137v-7.5t2 -7.5 q6 -11 17 -23.5t23 -24.5t25 -22t24 -16q3 -2 9.5 -4t14.5 -2h232q8 0 14.5 2t9.5 4q29 16 54 45t42 60l152 -51q-12 -23 -27.5 -47t-33.5 -46.5t-37.5 -42t-38.5 -32.5q-28 -20 -65 -30.5t-75 -10.5h-229q-33 0 -59.5 6t-49.5 17.5t-43 27.5t-40 37q-20 -20 -40.5 -36 t-44 -27.5t-50 -18t-58.5 -6.5h-41h-180h-10q-38 0 -75 10.5t-65 30.5q-11 7 -25.5 20t-28 27t-25 28t-17.5 23q-35 51 -35 113zM172 248q0 -19 2 -21q5 -9 16 -22t24.5 -25.5t28 -23t25.5 -13.5q6 -2 9.5 -2h9.5h225q8 0 14.5 2t10.5 4q10 6 23 16t25 22t23 24.5t17 23.5 q2 3 2 19v135h-342q-15 0 -32 -9t-32 -21.5t-27.5 -27t-19.5 -26.5q-2 -2 -2 -22v-33zM590 1069l180 231h201l-229 -272zM786 530h451v103q0 18 -2 20q-6 11 -16.5 23.5t-22.5 24t-25 21.5t-24 15q-3 2 -10 4t-15 2h-221q-8 0 -14.5 -2t-9.5 -4q-8 -4 -22.5 -14.5t-29 -23.5 t-26 -26t-13.5 -22v-14v-107z" />
<glyph unicode="&#x1fe;" horiz-adv-x="1186" d="M74 0zM74 276v674q0 26 5.5 55t22.5 54q9 14 28 35t41 42.5t44 40t37 27.5q25 14 56.5 24.5t60.5 10.5h344q20 0 42 -5t44 -13l43 77h137l-82 -149q25 -25 48 -50t34 -40q17 -25 24 -53t7 -56v-674q0 -27 -7 -55t-24 -53q-9 -14 -27.5 -34.5t-40.5 -41.5t-43.5 -39.5 t-36.5 -27.5q-24 -14 -56.5 -24.5t-61.5 -10.5h-344q-23 0 -49 6.5t-48 15.5l-49 -88h-139l90 164q-23 22 -42.5 43t-29.5 37q-17 25 -22.5 53.5t-5.5 54.5zM242 279q0 -16 18 -37l459 835q-2 0 -4.5 1t-7.5 1h-328q-6 0 -9 -1t-5 -1q-12 -6 -33 -22.5t-41 -36t-34.5 -39.5 t-14.5 -33v-667zM352 158l13 -6q2 0 5 -1t9 -1h328q6 0 9 1t5 1q12 6 32.5 21.5t40 34.5t34 38.5t14.5 32.5v667v10.5t-2 6.5q-5 8 -12 16.5t-15 17.5zM401 1415l180 231h201l-229 -272z" />
<glyph unicode="&#x1ff;" horiz-adv-x="1012" d="M53 0zM53 246v391q0 31 7 61t26 56q6 8 18 21t26 27.5t28.5 27.5t25.5 22q28 20 66 30.5t76 10.5h225q15 0 31.5 -1.5t31.5 -6.5l37 67h137l-69 -123q22 -20 42 -41.5t30 -33.5q18 -26 25 -56t7 -61v-391q0 -31 -7 -61t-25 -56q-6 -9 -18 -22t-26 -27.5t-28.5 -27.5 t-26.5 -21q-28 -20 -66 -30.5t-75 -10.5h-225q-17 0 -35 1.5t-35 6.5l-41 -74h-137l74 133q-20 19 -39 39.5t-27 32.5q-19 26 -26 56t-7 61zM213 250q0 -19 4 -23q3 -6 7 -12t9 -12l302 540h-205q-10 0 -15 -2l-10 -4q-11 -6 -24 -15.5t-25 -20.5t-22.5 -23t-16.5 -23 q-2 -3 -3 -8t-1 -14v-383zM305 1069l180 231h201l-229 -272zM334 139h215q9 0 14 2l10 4q9 5 24 16t29.5 24t25.5 26t12 22v400v11t-2 11l-23 29z" />
<glyph unicode="&#x218;" horiz-adv-x="1167" d="M43 0zM43 262l162 43q3 -6 6 -13t6 -12l6 -12q10 -18 25 -35.5t31.5 -33t32.5 -27.5t28 -18q6 -3 10.5 -3.5t7.5 -0.5h328q8 0 16 4q12 6 32.5 21.5t39.5 34t33 37.5t14 32v124q0 25 -14 45t-33 25l-557 143q-35 9 -62 30.5t-45.5 50t-28 61.5t-9.5 67v125q0 26 5.5 55 t22.5 54q9 14 28 35t41 42.5t44 40t37 27.5q25 14 56.5 24.5t60.5 10.5h301q40 0 76 -15.5t68 -39.5t59 -53.5t49 -57.5q12 -15 25 -39.5t32 -64.5l-164 -47l-16 32q-3 5 -4 9q-9 17 -24 34.5t-31.5 33.5t-33 28t-28.5 18q-2 0 -4 1q-2 0 -4.5 0.5t-5.5 0.5h-285 q-6 0 -10 -1t-9 -3q-11 -5 -31 -21t-39.5 -35t-33.5 -38t-14 -31v-116q0 -23 13 -42t32 -24l555 -147q34 -9 62 -29.5t47 -48.5t29.5 -60.5t10.5 -66.5v-140q0 -26 -5.5 -54.5t-22.5 -53.5q-9 -14 -28 -34.5t-41 -41.5t-44 -39.5t-37 -27.5q-25 -14 -56.5 -24.5t-60.5 -10.5 h-342q-41 0 -77.5 15t-68.5 39t-59 53.5t-49 58.5q-12 17 -24 41.5t-31 64.5zM336 -354l178 262l149 -51l-145 -211h-182z" />
<glyph unicode="&#x219;" horiz-adv-x="961" d="M8 0zM8 201l154 51q7 -15 19 -32t25.5 -32t27 -27t24.5 -18q8 -4 25 -4h247q16 0 31 8t28.5 19.5t24.5 25t19 25.5q6 9 6 27v67q0 17 -15.5 32t-39.5 17l-340 23q-42 3 -78.5 19.5t-63.5 43t-43 62t-16 76.5v59q0 32 8 61.5t27 55.5q6 9 16.5 21.5t23 25.5t25.5 25t25 20 q29 20 65.5 30.5t73.5 10.5h213q37 0 73.5 -10.5t65.5 -30.5q19 -13 38.5 -32t38 -41.5t35.5 -47t30 -49.5l-154 -51q-9 17 -23 36.5t-30.5 36.5t-34 28t-33.5 11h-219q-16 0 -24 -4q-28 -14 -43.5 -30t-30.5 -39q-6 -9 -6 -27v-59q0 -17 14 -32t39 -17l340 -25 q42 -3 78.5 -19.5t64.5 -43t44 -62t16 -76.5v-69q0 -63 -37 -117q-6 -9 -17 -22t-23.5 -26t-25.5 -25t-24 -19q-29 -20 -65.5 -30.5t-74.5 -10.5h-245q-37 0 -74 10.5t-66 30.5q-18 12 -37 31t-37.5 42t-35.5 48t-29 49zM228 -354l178 262l149 -51l-145 -211h-182z" />
<glyph unicode="&#x21a;" horiz-adv-x="1032" d="M16 1069v160h869v-160h-350v-1069h-168v1069h-351zM199 -354l178 262l149 -51l-145 -211h-182z" />
<glyph unicode="&#x21b;" horiz-adv-x="700" d="M-18 733v150h145v346h160v-346h270v-150h-270v-469q0 -11 1 -17t3 -9q11 -22 35.5 -46.5t46.5 -35.5q3 -2 11 -4t17 -2h144v-150h-146q-37 0 -74 10.5t-65 30.5q-12 8 -26.5 21.5t-28.5 28.5t-25.5 28.5t-17.5 21.5q-19 26 -27 56.5t-8 62.5v473h-145zM158 -354l178 262 l149 -51l-145 -211h-182z" />
<glyph unicode="&#x2c6;" horiz-adv-x="868" d="M125 1057l215 243h168l215 -243h-193l-106 133l-107 -133h-192z" />
<glyph unicode="&#x2c7;" horiz-adv-x="868" d="M160 1300h192l107 -133l106 133h193l-215 -243h-168z" />
<glyph unicode="&#x2d8;" horiz-adv-x="827" d="M233 1241h101q0 -43 28 -72.5t68 -29.5q21 0 39.5 8t32.5 21.5t22 32.5t8 40h99q0 -42 -15 -78t-42 -61.5t-64 -40t-80 -14.5q-42 0 -78.5 14.5t-62.5 40t-41 61.5t-15 78z" />
<glyph unicode="&#x2d9;" horiz-adv-x="442" d="M61 1065v182h185v-182h-185z" />
<glyph unicode="&#x2da;" horiz-adv-x="1008" d="M229 1227q0 41 15 76.5t41 61.5t62.5 41t78.5 15q43 0 80 -15t64 -41t42 -61.5t15 -76.5q0 -42 -15 -78t-42 -62t-64 -40.5t-80 -14.5q-42 0 -78.5 14.5t-62.5 40.5t-41 62t-15 78zM330 1227q0 -44 28 -73.5t68 -29.5q21 0 39.5 8t32.5 22t22 32.5t8 40.5q0 21 -8 39 t-22 31.5t-32.5 21.5t-39.5 8q-20 0 -37.5 -8t-30.5 -21.5t-20.5 -31.5t-7.5 -39z" />
<glyph unicode="&#x2db;" horiz-adv-x="831" d="M340 -143l149 51l179 -262h-183z" />
<glyph unicode="&#x2dc;" horiz-adv-x="913" d="M84 1124q15 39 43 67.5t63 45t74.5 20t79.5 -5.5l148 -34q26 -7 50.5 6t35.5 39l139 -35q-15 -39 -43 -68t-63 -45.5t-74.5 -20t-79.5 6.5l-146 35q-26 6 -50.5 -6.5t-35.5 -38.5z" />
<glyph unicode="&#x2dd;" horiz-adv-x="760" d="M266 1081l174 219h162l-219 -256zM506 1081l174 219h162l-219 -256z" />
<glyph unicode="&#x384;" horiz-adv-x="760" d="M301 1065l82 285l137 -35l-74 -250h-145z" />
<glyph unicode="&#x385;" horiz-adv-x="743" d="M100 1065v182h170v-182h-170zM311 1065l82 285l137 -35l-73 -250h-146zM561 1065v182h170v-182h-170z" />
<glyph unicode="&#x386;" horiz-adv-x="1159" d="M-18 0l428 1229h221l428 -1229h-180l-93 274h-532l-94 -274h-178zM0 0zM29 1065l82 285l137 -35l-74 -250h-145zM307 432h426l-213 625z" />
<glyph unicode="&#x388;" horiz-adv-x="1169" d="M-94 1065l82 285l137 -35l-74 -250h-145zM0 0zM207 0v1229h754v-160h-586v-375h553v-159h-553v-375h586v-160h-754z" />
<glyph unicode="&#x389;" horiz-adv-x="1280" d="M-96 1065l82 285l137 -35l-74 -250h-145zM0 0zM207 0v1229h168v-535h528v535h168v-1229h-168v535h-528v-535h-168z" />
<glyph unicode="&#x38a;" horiz-adv-x="580" d="M-98 1065l82 285l137 -35l-74 -250h-145zM0 0zM205 0v1229h168v-1229h-168z" />
<glyph unicode="&#x38c;" horiz-adv-x="1309" d="M-88 1065l82 285l137 -35l-74 -250h-145zM0 0zM197 276v674q0 26 5.5 55t22.5 54q9 14 28 35t41 42.5t44 40t37 27.5q25 14 56.5 24.5t60.5 10.5h323q29 0 61.5 -10.5t57.5 -24.5q15 -9 36.5 -28t43 -40.5t40 -42.5t27.5 -34q17 -25 24 -53t7 -56v-674q0 -27 -7 -55 t-24 -53q-9 -14 -27.5 -34.5t-40 -41.5t-43 -39.5t-36.5 -27.5q-25 -14 -57.5 -24.5t-61.5 -10.5h-323q-29 0 -60.5 10.5t-56.5 24.5q-15 9 -37 27.5t-44 39.5t-41 41.5t-28 34.5q-17 25 -22.5 53.5t-5.5 54.5zM365 279q0 -12 14 -31t33.5 -38t39.5 -35t31 -21q4 -2 8.5 -3 t10.5 -1h307q6 0 10.5 1t8.5 3q12 6 31.5 21.5t38.5 34t32.5 37.5t13.5 32v667q0 11 -4 19q-8 15 -22.5 32.5t-31 33t-32.5 27.5t-26 17q-4 2 -8.5 3t-10.5 1h-307q-6 0 -10.5 -1t-8.5 -3q-12 -6 -32 -22t-39 -35.5t-33 -39t-14 -32.5v-667z" />
<glyph unicode="&#x38e;" horiz-adv-x="1229" d="M-90 1065l82 285l137 -35l-74 -250h-145zM0 0zM160 1229h184l314 -537q-1 0 12 22.5t35 60.5t50 86t58 99q70 118 158 269h182l-413 -707v-522h-168v522z" />
<glyph unicode="&#x38f;" horiz-adv-x="1407" d="M-98 1065l82 285l137 -35l-74 -250h-145zM0 0zM131 0l2 160h236q-22 21 -43.5 41t-40.5 38t-34 34t-24 28q-17 25 -23.5 53t-6.5 56v540q0 26 5.5 55t22.5 54q9 14 28 35t41 42.5t44 40t37 27.5q25 14 56.5 24.5t60.5 10.5h366q29 0 61.5 -10.5t57.5 -24.5 q15 -9 36.5 -28t43 -40.5t40 -42.5t27.5 -34q17 -25 24 -53t7 -56v-540q0 -28 -7 -56t-24 -53q-17 -26 -56 -63.5t-83 -77.5h234v-160h-443v158v2h2q17 15 39 33.5t43 39.5q24 23 47 51t40.5 53.5t28.5 46.5t11 30v532v10.5t-2 6.5q-9 15 -24.5 33t-33 34t-34 29t-27.5 18 q-2 0 -5 1t-9 1h-350q-6 0 -9 -1t-5 -1q-12 -6 -33 -22.5t-41 -36t-34.5 -39.5t-14.5 -33v-532q0 -9 11 -30t28.5 -46.5t40.5 -53.5t47 -51q21 -21 42 -39.5t40 -33.5v-160h-443z" />
<glyph unicode="&#x390;" horiz-adv-x="455" d="M-136 1065v182h170v-182h-170zM0 0zM72 133v750h159v-725l21 -158h-162zM75 1065l82 285l137 -35l-73 -250h-146zM325 1065v182h170v-182h-170z" />
<glyph unicode="&#x391;" horiz-adv-x="1159" d="M-18 0l428 1229h221l428 -1229h-180l-93 274h-532l-94 -274h-178zM307 432h426l-213 625z" />
<glyph unicode="&#x392;" horiz-adv-x="1137" d="M84 0v1229h578q37 0 73 -12.5t64 -32.5q10 -8 26 -22t32.5 -30t30 -31t19.5 -24q19 -26 26 -57t7 -62v-149q0 -34 -6.5 -59t-19.5 -46t-31 -40.5t-41 -40.5q23 -22 41 -41t31 -40.5t19.5 -46.5t6.5 -59v-170q0 -31 -8 -59.5t-25 -54.5q-6 -9 -19.5 -24.5t-30 -32 t-32.5 -31t-26 -21.5q-28 -20 -65 -31.5t-72 -11.5h-578zM252 160h407q15 0 31.5 10t32 24t28 29.5t17.5 26.5q2 3 3 7.5t1 12.5v164q0 13 -4 21q-5 10 -15 23t-22 25t-25 22t-24 16q-2 2 -7 2h-13h-410v-383zM252 700h410q13 0 29.5 10t31.5 24.5t27.5 30t17.5 26.5 q4 8 4 22v143q0 17 -4 21q-6 11 -18.5 26.5t-27.5 30t-31.5 25t-31.5 10.5h-407v-369z" />
<glyph unicode="&#x393;" horiz-adv-x="1001" d="M84 0v1229h752v-160h-584v-1069h-168z" />
<glyph unicode="&#x394;" horiz-adv-x="1159" d="M-45 0l428 1229h221l428 -1229h-1077zM188 158h611l-305 899z" />
<glyph unicode="&#x395;" horiz-adv-x="1047" d="M84 0v1229h754v-160h-586v-375h553v-159h-553v-375h586v-160h-754z" />
<glyph unicode="&#x396;" horiz-adv-x="1026" d="M72 0v129l594 940h-594v160h794v-133l-579 -936h579v-160h-794z" />
<glyph unicode="&#x397;" horiz-adv-x="1157" d="M84 0v1229h168v-535h528v535h168v-1229h-168v535h-528v-535h-168z" />
<glyph unicode="&#x398;" horiz-adv-x="1186" d="M74 276v674q0 26 5.5 55t22.5 54q9 14 28 35t41 42.5t44 40t37 27.5q25 14 56.5 24.5t60.5 10.5h323q29 0 61.5 -10.5t57.5 -24.5q15 -9 36.5 -28t43 -40.5t40 -42.5t27.5 -34q17 -25 24 -53t7 -56v-674q0 -27 -7 -55t-24 -53q-9 -14 -27.5 -34.5t-40 -41.5t-43 -39.5 t-36.5 -27.5q-25 -14 -57.5 -24.5t-61.5 -10.5h-323q-29 0 -60.5 10.5t-56.5 24.5q-15 9 -37 27.5t-44 39.5t-41 41.5t-28 34.5q-17 25 -22.5 53.5t-5.5 54.5zM242 279q0 -12 14 -31t33.5 -38t39.5 -35t31 -21q4 -2 8.5 -3t10.5 -1h307q6 0 10.5 1t8.5 3q12 6 31.5 21.5 t38.5 34t32.5 37.5t13.5 32v667q0 11 -4 19q-8 15 -22.5 32.5t-31 33t-32.5 27.5t-26 17q-4 2 -8.5 3t-10.5 1h-307q-6 0 -10.5 -1t-8.5 -3q-12 -6 -32 -22t-39 -35.5t-33 -39t-14 -32.5v-667zM317 573v140h426v-140h-426z" />
<glyph unicode="&#x399;" horiz-adv-x="457" d="M82 0v1229h168v-1229h-168z" />
<glyph unicode="&#x39a;" horiz-adv-x="1069" d="M84 0v1229h168v-537h35l463 537h221l-543 -615l545 -614h-221l-465 535h-35v-535h-168z" />
<glyph unicode="&#x39b;" horiz-adv-x="1159" d="M-18 0l428 1229h221l428 -1229h-180l-359 1057l-360 -1057h-178z" />
<glyph unicode="&#x39c;" horiz-adv-x="1372" d="M84 0v1229h213l328 -670l329 670h209v-1229h-164v977l-321 -660h-111l-317 660v-977h-166z" />
<glyph unicode="&#x39d;" horiz-adv-x="1169" d="M84 0v1229h199l512 -948v948h166v-1229h-195l-516 938v-938h-166z" />
<glyph unicode="&#x39e;" horiz-adv-x="1047" d="M84 0v160h754v-160h-754zM84 535v159h754v-159h-754zM84 1069v160h754v-160h-754z" />
<glyph unicode="&#x39f;" horiz-adv-x="1186" d="M74 276v674q0 26 5.5 55t22.5 54q9 14 28 35t41 42.5t44 40t37 27.5q25 14 56.5 24.5t60.5 10.5h323q29 0 61.5 -10.5t57.5 -24.5q15 -9 36.5 -28t43 -40.5t40 -42.5t27.5 -34q17 -25 24 -53t7 -56v-674q0 -27 -7 -55t-24 -53q-9 -14 -27.5 -34.5t-40 -41.5t-43 -39.5 t-36.5 -27.5q-25 -14 -57.5 -24.5t-61.5 -10.5h-323q-29 0 -60.5 10.5t-56.5 24.5q-15 9 -37 27.5t-44 39.5t-41 41.5t-28 34.5q-17 25 -22.5 53.5t-5.5 54.5zM242 279q0 -12 14 -31t33.5 -38t39.5 -35t31 -21q4 -2 8.5 -3t10.5 -1h307q6 0 10.5 1t8.5 3q12 6 31.5 21.5 t38.5 34t32.5 37.5t13.5 32v667q0 11 -4 19q-8 15 -22.5 32.5t-31 33t-32.5 27.5t-26 17q-4 2 -8.5 3t-10.5 1h-307q-6 0 -10.5 -1t-8.5 -3q-12 -6 -32 -22t-39 -35.5t-33 -39t-14 -32.5v-667z" />
<glyph unicode="&#x3a0;" horiz-adv-x="1157" d="M84 0v1229h864v-1229h-168v1073h-528v-1073h-168z" />
<glyph unicode="&#x3a1;" horiz-adv-x="1102" d="M84 0v1229h578q35 0 72 -11.5t65 -31.5q10 -8 26 -22.5t32.5 -30.5t30 -31.5t19.5 -24.5q17 -26 26 -56t9 -60v-185q0 -62 -35 -114q-6 -9 -20 -24.5t-30.5 -32t-33 -31t-26.5 -21.5q-28 -20 -64 -30.5t-71 -10.5h-410v-512h-168zM252 672h407q14 0 30 9t31.5 22t28 27 t19.5 24q6 9 6 26v178q0 8 -1 13t-3 10q-3 9 -15 24t-27.5 29t-31.5 24t-26 11h-13h-405v-397z" />
<glyph unicode="&#x3a3;" horiz-adv-x="1026" d="M72 0v129l360 496l-358 471v133h788v-160h-583l337 -446l-329 -463h579v-160h-794z" />
<glyph unicode="&#x3a4;" horiz-adv-x="1032" d="M16 1069v160h869v-160h-350v-1069h-168v1069h-351z" />
<glyph unicode="&#x3a5;" horiz-adv-x="1024" d="M-45 1229h184l314 -537q-1 0 12 22.5t35 60.5t50 86t58 99q70 118 158 269h182l-413 -707v-522h-168v522z" />
<glyph unicode="&#x3a6;" horiz-adv-x="1282" d="M74 0zM74 276v674q0 26 5.5 55t22.5 54q9 14 28 35t41 42.5t44 40t37 27.5q25 14 56.5 24.5t60.5 10.5h131v162h159v-162h129q29 0 61.5 -10.5t57.5 -24.5q15 -9 36.5 -28t43.5 -40.5t40.5 -42.5t27.5 -34q17 -25 23.5 -53t6.5 -56v-674q0 -27 -6.5 -55t-23.5 -53 q-9 -14 -27.5 -34.5t-40.5 -41.5t-43.5 -39.5t-36.5 -27.5q-25 -14 -57.5 -24.5t-61.5 -10.5h-129v-183h-159v183h-131q-29 0 -60.5 10.5t-56.5 24.5q-15 9 -37 27.5t-44 39.5t-41 41.5t-28 34.5q-17 25 -22.5 53.5t-5.5 54.5zM242 279q0 -12 15 -31t35 -38.5t40.5 -36 t32.5 -21.5q2 0 5 -1t9 -1h121v929h-121q-6 0 -9 -1t-5 -1q-12 -6 -33 -22.5t-41 -36t-34.5 -39.5t-14.5 -33v-667zM659 150h123q7 0 10 1t5 1q12 6 32.5 21.5t40 34.5t34 38.5t14.5 32.5v667q0 6 -0.5 10.5t-2.5 6.5q-9 15 -24.5 33t-33 34t-34 29t-26.5 18q-2 0 -5 1 t-10 1h-123v-929z" />
<glyph unicode="&#x3a7;" d="M-20 0l399 627l-381 602h184l287 -459l289 459h184l-381 -602l400 -627h-187l-305 483l-303 -483h-186z" />
<glyph unicode="&#x3a8;" horiz-adv-x="1241" d="M74 612v617h168v-613q0 -11 15 -30t35 -38t40.5 -35t32.5 -21q3 -2 6.5 -3.5t9.5 -1.5h100v742h168v-742h92q12 0 19 5q12 5 31.5 21t38.5 35.5t33 38t14 29.5v613h167v-617q0 -28 -5.5 -54.5t-22.5 -51.5q-9 -14 -27.5 -34.5t-40.5 -42t-43.5 -40t-36.5 -27.5 q-24 -14 -55.5 -24t-60.5 -10h-103v-328h-168v328h-110q-29 0 -61.5 10t-57.5 24q-15 9 -36.5 27.5t-43.5 40t-40.5 42t-27.5 34.5q-17 25 -23.5 51.5t-6.5 54.5z" />
<glyph unicode="&#x3aa;" horiz-adv-x="457" d="M-82 1411v182h170v-182h-170zM0 0zM82 0v1229h168v-1229h-168zM248 1411v182h170v-182h-170z" />
<glyph unicode="&#x3ab;" horiz-adv-x="1024" d="M-45 1229h184l314 -537q-1 0 12 22.5t35 60.5t50 86t58 99q70 118 158 269h182l-413 -707v-522h-168v522zM0 0zM203 1411v182h170v-182h-170zM533 1411v182h170v-182h-170z" />
<glyph unicode="&#x3ac;" horiz-adv-x="999" d="M53 0zM53 250v383q0 32 8 62.5t27 56.5q6 8 18 21t26 27.5t28.5 27.5t25.5 22q28 20 65 31.5t75 11.5h159q23 0 46 -8t44 -20.5t40 -27.5t34 -30l8 76h160l-14 -164v-555l16 -164h-160l-8 72q-15 -14 -34 -28.5t-39.5 -26.5t-42.5 -19.5t-43 -7.5h-166q-38 0 -75 10.5 t-65 30.5q-11 8 -25.5 21.5t-28.5 28.5t-26 28.5t-18 21.5q-19 25 -27 56t-8 63zM213 254q0 -9 1 -14t3 -9q5 -11 15 -23.5t22 -25t25 -23t24 -16.5q6 -3 10.5 -3.5t14.5 -0.5h98h59q15 0 38.5 13t47.5 30.5t44 35.5t28 28v381q-8 10 -28.5 29.5t-45.5 39t-50 33.5t-40 14 h-151q-10 0 -14.5 -1.5t-10.5 -4.5q-11 -5 -24 -15t-25 -22t-22 -25t-15 -24q-2 -3 -3 -8t-1 -14v-375zM352 1065l82 285l137 -35l-74 -250h-145z" />
<glyph unicode="&#x3ad;" horiz-adv-x="979" d="M53 0zM53 246v14q0 32 8 62t27 55q9 11 26.5 28.5t37.5 34.5q-19 16 -36.5 33.5t-25.5 28.5q-18 25 -26.5 54.5t-8.5 61.5v19q0 31 7 61t26 56q6 8 18 21t26 27.5t28.5 27.5t25.5 22q28 20 66.5 30.5t75.5 10.5h202q38 0 75 -10.5t65 -30.5q18 -12 38 -32.5t39 -44 t35 -48.5t25 -47l-150 -47q-8 16 -21.5 35.5t-29.5 36t-34.5 27.5t-36.5 11h-205q-10 0 -15 -2l-10 -4q-22 -12 -47.5 -36t-38.5 -46q-4 -4 -4 -22v-12q0 -10 1 -14t3 -7q11 -22 33.5 -47t44.5 -37q5 -2 10 -3t15 -1h223v-145h-226q-9 0 -14 -1.5t-10 -3.5 q-22 -12 -43.5 -37t-32.5 -46q-2 -4 -3 -8t-1 -13v-8q0 -19 4 -23q13 -21 38.5 -45t47.5 -37l10 -4t15 -2h211q9 0 14 2l10 4q29 16 54.5 45t42.5 60l149 -49q-11 -26 -21 -43.5t-18 -28.5q-6 -9 -17.5 -22t-25 -27.5t-27.5 -27.5t-26 -21q-28 -20 -65 -30.5t-74 -10.5h-209 q-37 0 -75.5 10.5t-66.5 30.5q-11 8 -25.5 21t-28.5 27.5t-26 27.5t-18 22q-19 26 -27 56t-8 61zM352 1065l82 285l137 -35l-74 -250h-145z" />
<glyph unicode="&#x3ae;" horiz-adv-x="1004" d="M51 0zM51 883h160l8 -72q15 14 34 28.5t40 26.5t43 19.5t43 7.5h153q38 0 76 -10.5t66 -30.5q12 -9 26.5 -22t28.5 -27.5t25.5 -27.5t17.5 -21q19 -26 26 -56t7 -61v-991h-160v987v11t-2 11q-5 11 -15.5 23.5t-23 24t-25.5 21.5t-24 15q-8 4 -25 4h-145q-15 0 -38.5 -13 t-47.5 -30t-44 -35t-28 -28v-637h-159v719zM352 1065l82 285l137 -35l-74 -250h-145z" />
<glyph unicode="&#x3af;" horiz-adv-x="455" d="M37 0zM37 1069l180 231h201l-229 -272zM72 133v750h159v-725l21 -158h-162z" />
<glyph unicode="&#x3b0;" horiz-adv-x="987" d="M53 0zM53 248v635h160v-631v-11.5t2 -11.5q6 -11 16.5 -23t22.5 -24t25 -21.5t24 -15.5q6 -3 10.5 -3.5t14.5 -0.5h188q9 0 13.5 0.5t11.5 3.5q10 6 23 15.5t25 21.5t23 24t17 23q2 3 2 11.5v11.5v473l-21 158h162l19 -133v-502q0 -31 -7.5 -61t-25.5 -56 q-6 -8 -18 -21.5t-26 -27.5t-28.5 -27.5t-26.5 -21.5q-27 -20 -65.5 -30.5t-75.5 -10.5h-192q-38 0 -76 10.5t-66 30.5q-11 8 -25.5 21.5t-28.5 27.5t-26 27.5t-18 21.5q-19 26 -26 56t-7 61zM112 1065v182h170v-182h-170zM323 1065l82 285l137 -35l-73 -250h-146zM573 1065 v182h170v-182h-170z" />
<glyph unicode="&#x3b1;" horiz-adv-x="999" d="M53 250v383q0 32 8 62.5t27 56.5q6 8 18 21t26 27.5t28.5 27.5t25.5 22q28 20 65 31.5t75 11.5h159q23 0 46 -8t44 -20.5t40 -27.5t34 -30l8 76h160l-14 -164v-555l16 -164h-160l-8 72q-15 -14 -34 -28.5t-39.5 -26.5t-42.5 -19.5t-43 -7.5h-166q-38 0 -75 10.5t-65 30.5 q-11 8 -25.5 21.5t-28.5 28.5t-26 28.5t-18 21.5q-19 25 -27 56t-8 63zM213 254q0 -9 1 -14t3 -9q5 -11 15 -23.5t22 -25t25 -23t24 -16.5q6 -3 10.5 -3.5t14.5 -0.5h98h59q15 0 38.5 13t47.5 30.5t44 35.5t28 28v381q-8 10 -28.5 29.5t-45.5 39t-50 33.5t-40 14h-151 q-10 0 -14.5 -1.5t-10.5 -4.5q-11 -5 -24 -15t-25 -22t-22 -25t-15 -24q-2 -3 -3 -8t-1 -14v-375z" />
<glyph unicode="&#x3b2;" horiz-adv-x="1014" d="M76 -354v1335q0 32 7 62.5t26 56.5q6 8 17.5 21.5t25.5 27.5t28.5 27.5t26.5 21.5q29 20 66.5 30.5t74.5 10.5h187q37 0 74 -10.5t65 -30.5q12 -8 26.5 -21.5t28.5 -28.5t25.5 -28.5t17.5 -21.5q19 -25 27 -56t8 -63v-166q0 -32 -8 -62.5t-27 -56.5q-8 -11 -25.5 -27.5 t-35.5 -31.5q23 -19 46 -39.5t34 -34.5q18 -25 26 -56t8 -63v-192q0 -32 -8 -62.5t-26 -56.5q-6 -8 -18 -21.5t-26 -27.5t-28.5 -27.5t-26.5 -21.5q-28 -20 -65 -31.5t-74 -11.5h-160q-22 0 -43.5 7t-42 18.5t-38.5 25.5t-33 29v-424h-160zM236 254q7 -11 28 -30.5t45.5 -38 t49.5 -32.5t40 -14h152q9 0 13.5 1.5t10.5 4.5q11 6 24 16t25 22t22 24.5t16 23.5q2 4 3 9t1 14v184q0 10 -1 15t-3 8q-6 10 -16 23.5t-22 26t-25 23t-24 15.5q-6 3 -10.5 3.5t-13.5 0.5h-205v149h186q10 0 14.5 2t10.5 5q11 5 24 15t25 22t22 25t15 24q2 3 3 8t1 14v158 q0 9 -1 14t-3 8q-5 11 -15 24t-22 25.5t-25 23t-24 15.5q-6 4 -10.5 4.5t-14.5 0.5h-182q-6 0 -16 -0.5t-15 -4.5q-8 -5 -22 -15.5t-27 -24t-23 -27t-11 -23.5v-741z" />
<glyph unicode="&#x3b3;" horiz-adv-x="883" d="M-29 883h172l230 -686l231 686h166l-340 -989q-5 -16 -5.5 -32.5t-0.5 -25.5v-190h-160v190q0 25 5 46.5t10 35.5l26 82h-31z" />
<glyph unicode="&#x3b4;" horiz-adv-x="991" d="M53 246v348q0 31 7 61t26 56q8 9 24.5 26.5t36.5 34.5q-34 28 -53.5 66.5t-19.5 85.5v63q0 32 8 61.5t27 55.5q6 9 16.5 21.5t23 26t25.5 25t25 19.5q29 20 65.5 30.5t73.5 10.5h186q37 0 74 -10.5t66 -30.5q18 -13 37.5 -32t38 -41.5t35.5 -47t30 -49.5l-154 -51 q-9 17 -23 36.5t-30.5 36.5t-34 28t-33.5 11h-192q-17 0 -25 -4q-28 -14 -43 -30t-30 -39q-7 -11 -7 -27v-63q0 -17 14.5 -32.5t39.5 -17.5l313 -24q42 -3 78.5 -19.5t64.5 -43t44 -62t16 -76.5v-403q0 -31 -7 -61t-26 -56q-6 -9 -18 -22t-26 -27.5t-28.5 -27.5t-25.5 -21 q-28 -20 -66 -30.5t-76 -10.5h-204q-38 0 -76 10.5t-66 30.5q-11 8 -25.5 21t-28.5 27.5t-26 27.5t-18 22q-19 26 -26 56t-7 61zM213 250q0 -9 1 -14.5t3 -8.5q5 -11 15.5 -23t23 -23t25.5 -20.5t24 -15.5q6 -3 10.5 -4.5t14.5 -1.5h198q10 0 14.5 1.5t10.5 4.5q8 5 21 14.5 t26 21t23.5 23t15.5 19.5q3 6 3.5 14t0.5 13v401q0 17 -15 32t-40 17l-256 19h-2q-10 0 -16 -2t-9 -4q-11 -6 -24 -18t-25 -27t-22.5 -30t-16.5 -26q-2 -3 -3 -8t-1 -14v-340z" />
<glyph unicode="&#x3b5;" horiz-adv-x="979" d="M53 246v14q0 32 8 62t27 55q9 11 26.5 28.5t37.5 34.5q-19 16 -36.5 33.5t-25.5 28.5q-18 25 -26.5 54.5t-8.5 61.5v19q0 31 7 61t26 56q6 8 18 21t26 27.5t28.5 27.5t25.5 22q28 20 66.5 30.5t75.5 10.5h202q38 0 75 -10.5t65 -30.5q18 -12 38 -32.5t39 -44t35 -48.5 t25 -47l-150 -47q-8 16 -21.5 35.5t-29.5 36t-34.5 27.5t-36.5 11h-205q-10 0 -15 -2l-10 -4q-22 -12 -47.5 -36t-38.5 -46q-4 -4 -4 -22v-12q0 -10 1 -14t3 -7q11 -22 33.5 -47t44.5 -37q5 -2 10 -3t15 -1h223v-145h-226q-9 0 -14 -1.5t-10 -3.5q-22 -12 -43.5 -37 t-32.5 -46q-2 -4 -3 -8t-1 -13v-8q0 -19 4 -23q13 -21 38.5 -45t47.5 -37l10 -4t15 -2h211q9 0 14 2l10 4q29 16 54.5 45t42.5 60l149 -49q-11 -26 -21 -43.5t-18 -28.5q-6 -9 -17.5 -22t-25 -27.5t-27.5 -27.5t-26 -21q-28 -20 -65 -30.5t-74 -10.5h-209q-37 0 -75.5 10.5 t-66.5 30.5q-11 8 -25.5 21t-28.5 27.5t-26 27.5t-18 22q-19 26 -27 56t-8 61z" />
<glyph unicode="&#x3b6;" horiz-adv-x="860" d="M53 248v680q0 21 7.5 43t19 43t25.5 39.5t28 33.5l-72 9v149l164 -16h496v-150h-404q-10 -8 -27.5 -27.5t-34.5 -43.5t-29.5 -47.5t-12.5 -38.5v-670v-11.5t2 -11.5q6 -11 16.5 -23t22.5 -24t25 -21.5t24 -15.5q6 -3 10.5 -3.5t14.5 -0.5h233q42 0 78.5 -16t64.5 -43.5 t44 -64t16 -76.5q0 -10 -2.5 -22.5t-5.5 -20.5l-86 -254l-154 34l86 250q2 5 2 9.5v7.5q0 17 -15 31t-40 16h-223q-38 0 -76 10.5t-66 30.5q-11 8 -25.5 21.5t-28.5 27.5t-26 27.5t-18 21.5q-19 26 -26 56t-7 61z" />
<glyph unicode="&#x3b7;" horiz-adv-x="1004" d="M51 883h160l8 -72q15 14 34 28.5t40 26.5t43 19.5t43 7.5h153q38 0 76 -10.5t66 -30.5q12 -9 26.5 -22t28.5 -27.5t25.5 -27.5t17.5 -21q19 -26 26 -56t7 -61v-991h-160v987v11t-2 11q-5 11 -15.5 23.5t-23 24t-25.5 21.5t-24 15q-8 4 -25 4h-145q-15 0 -38.5 -13 t-47.5 -30t-44 -35t-28 -28v-637h-159v719z" />
<glyph unicode="&#x3b8;" horiz-adv-x="991" d="M53 246v739q0 31 7 61t26 56q6 8 18 21.5t26 27.5t28.5 27.5t25.5 21.5q28 20 66 30.5t76 10.5h204q38 0 76 -10.5t66 -30.5q11 -8 25.5 -21.5t28.5 -27.5t26 -27.5t18 -21.5q19 -26 26 -56t7 -61v-739q0 -31 -7 -61t-26 -56q-6 -9 -18 -22t-26 -27.5t-28.5 -27.5 t-25.5 -21q-28 -20 -66 -30.5t-76 -10.5h-204q-38 0 -76 10.5t-66 30.5q-11 8 -25.5 21t-28.5 27.5t-26 27.5t-18 22q-19 26 -26 56t-7 61zM213 250q0 -9 1 -14.5t3 -8.5q5 -11 15.5 -23t23 -23t25.5 -20.5t24 -15.5q6 -3 10.5 -4.5t14.5 -1.5h198q10 0 14.5 1.5t10.5 4.5 q8 5 21 14.5t26 21t23.5 23t15.5 19.5q3 6 3.5 14t0.5 13v323h-430v-323zM213 713h430v268q0 20 -6 29q-14 20 -35.5 39.5t-44.5 33.5q-5 3 -12 6t-17 3h-198q-10 0 -16 -2.5t-9 -4.5q-11 -5 -24 -14.5t-25 -21t-22.5 -23.5t-16.5 -22q-2 -4 -3 -9t-1 -14v-268z" />
<glyph unicode="&#x3b9;" horiz-adv-x="455" d="M72 133v750h159v-725l21 -158h-162z" />
<glyph unicode="&#x3ba;" horiz-adv-x="922" d="M55 0v883h160v-342h43l320 342h206l-387 -414l426 -469h-209l-354 391h-45v-391h-160z" />
<glyph unicode="&#x3bb;" horiz-adv-x="881" d="M-29 0l303 883h31l-117 346h160l422 -1229h-166l-231 686l-230 -686h-172z" />
<glyph unicode="&#x3bc;" horiz-adv-x="999" d="M55 0zM55 -354v1237h160v-627q8 -12 28.5 -31.5t45 -38.5t49.5 -33t41 -14h94q15 1 38.5 13.5t47.5 29.5t44 34.5t28 27.5v639h160v-721l16 -164h-160l-8 72q-15 -14 -34 -28t-39.5 -25.5t-42.5 -19t-44 -7.5h-106q-22 0 -43.5 7t-42 18t-39 25t-33.5 28v-422h-160z" />
<glyph unicode="&#x3bd;" horiz-adv-x="883" d="M-29 883h172l230 -695l229 695h170l-303 -883h-190z" />
<glyph unicode="&#x3be;" horiz-adv-x="860" d="M53 248v194q0 32 8 63t27 56q9 14 32.5 34.5t45.5 39.5q-19 15 -35.5 31.5t-24.5 27.5q-18 26 -26 56.5t-8 62.5v117q0 21 7.5 42.5t19 42t25.5 39t28 33.5l-72 9v149l164 -16h477v-150h-385q-10 -8 -27 -27t-33.5 -42.5t-29.5 -47t-15 -38.5v-107q0 -9 1.5 -14t3.5 -8 q5 -11 15 -24t22 -25t25 -22t24 -15q6 -3 10.5 -5t13.5 -2h186v-149h-204q-10 0 -14.5 -0.5t-10.5 -3.5q-11 -5 -24 -15.5t-25 -23t-22 -26t-15 -23.5q-2 -3 -3 -8t-1 -15v-186v-11.5t2 -11.5q6 -11 16.5 -23t22.5 -24t25 -21.5t24 -15.5q6 -3 10.5 -3.5t14.5 -0.5h233 q42 0 78.5 -16t64.5 -43.5t44 -64t16 -76.5q0 -10 -2.5 -22.5t-5.5 -20.5l-86 -254l-154 34l86 250q2 5 2 9.5v7.5q0 17 -15 31t-40 16h-223q-38 0 -76 10.5t-66 30.5q-11 8 -25.5 21.5t-28.5 27.5t-26 27.5t-18 21.5q-19 26 -26 56t-7 61z" />
<glyph unicode="&#x3bf;" horiz-adv-x="991" d="M53 246v391q0 31 7 61t26 56q6 8 18 21t26 27.5t28.5 27.5t25.5 22q28 20 66 30.5t76 10.5h204q38 0 76 -10.5t66 -30.5q11 -9 25.5 -22t28.5 -27.5t26 -27.5t18 -21q19 -26 26 -56t7 -61v-391q0 -31 -7 -61t-26 -56q-6 -9 -18 -22t-26 -27.5t-28.5 -27.5t-25.5 -21 q-28 -20 -66 -30.5t-76 -10.5h-204q-38 0 -76 10.5t-66 30.5q-11 8 -25.5 21t-28.5 27.5t-26 27.5t-18 22q-19 26 -26 56t-7 61zM213 250q0 -9 1 -14.5t3 -8.5q5 -11 15.5 -23t23 -23t25.5 -20.5t24 -15.5q6 -3 10.5 -4.5t14.5 -1.5h198q10 0 14.5 1.5t10.5 4.5q8 5 21 14.5 t26 21t23.5 23t15.5 19.5q3 6 3.5 14t0.5 13v383q0 11 -1.5 17.5t-4.5 11.5q-14 20 -35.5 39.5t-44.5 33.5q-5 3 -12 5.5t-17 2.5h-198q-10 0 -16 -2t-9 -4q-11 -5 -24 -14.5t-25 -21t-22.5 -23.5t-16.5 -23q-2 -3 -3 -8t-1 -14v-383z" />
<glyph unicode="&#x3c0;" horiz-adv-x="1255" d="M23 733v150h1056v-150h-178v-575l21 -158h-160l-21 133v600h-397v-733h-160v733h-161z" />
<glyph unicode="&#x3c1;" horiz-adv-x="1010" d="M66 -354v991q0 31 7 61t25 56q6 8 18 21t26 27.5t28.5 27.5t26.5 22q27 20 65.5 30.5t75.5 10.5h205q37 0 74 -11.5t65 -31.5q12 -9 26.5 -22t28.5 -27.5t25.5 -27.5t17.5 -21q19 -26 27 -56.5t8 -62.5v-383q0 -32 -8 -63t-27 -56q-6 -8 -17.5 -21.5t-25.5 -28.5 t-28.5 -28.5t-26.5 -21.5q-28 -20 -65 -30.5t-74 -10.5h-160q-21 0 -43 7t-42 18t-39 25t-34 28v-422h-159zM225 256q8 -12 28.5 -31.5t45 -38.5t49.5 -33t41 -14h152q9 0 14 1t10 3q11 6 24 17t25 23t22 24.5t15 23.5q2 4 3 9t1 14v375q0 18 -4 22q-6 11 -16 23.5t-22 24.5 t-24.5 22t-23.5 16l-10 4t-14 2h-199q-9 0 -15 -2t-10 -4q-11 -5 -23.5 -14.5t-24.5 -21t-23 -23.5t-17 -23q-2 -3 -3 -8t-1 -14v-377z" />
<glyph unicode="&#x3c2;" horiz-adv-x="977" d="M53 246v391q0 31 7 61t26 56q6 8 18 21t26 27.5t28.5 27.5t25.5 22q28 20 66 30.5t76 10.5h202q38 0 75 -10.5t65 -30.5q18 -12 38 -32.5t39 -44t35 -48.5t25 -47l-150 -47q-8 16 -21.5 35.5t-29.5 36t-34.5 27.5t-37.5 11h-204q-10 0 -14.5 -1.5t-10.5 -4.5 q-11 -5 -24 -14.5t-25 -21t-22 -23.5t-15 -23q-3 -6 -3.5 -9.5t-0.5 -12.5v-383q0 -9 1 -14.5t3 -8.5q5 -11 15 -23t22 -23t25 -20.5t24 -15.5q6 -3 10.5 -4.5t14.5 -1.5h200q42 0 78.5 -16t64.5 -43.5t44 -64t16 -76.5q0 -10 -2.5 -22.5t-5.5 -20.5l-86 -254l-154 34 l86 250q2 5 2 9.5v7.5q0 17 -15 31t-40 16h-190q-38 0 -76 10.5t-66 30.5q-11 8 -25.5 21t-28.5 27.5t-26 27.5t-18 22q-19 26 -26 56t-7 61z" />
<glyph unicode="&#x3c3;" horiz-adv-x="1012" d="M53 246v381q0 31 7 60.5t26 55.5q6 9 18 22t26 27.5t28.5 27.5t25.5 22q28 20 66 30.5t76 10.5h538v-146h-110q18 -26 33.5 -53.5t15.5 -56.5v-381q0 -31 -7 -61t-26 -56q-6 -9 -18 -22t-26 -27.5t-28.5 -27.5t-25.5 -21q-28 -20 -66 -30.5t-76 -10.5h-204 q-38 0 -76 10.5t-66 30.5q-11 8 -25.5 21t-28.5 27.5t-26 27.5t-18 22q-19 26 -26 56t-7 61zM213 250q0 -9 1 -14.5t3 -8.5q5 -11 15.5 -23t23 -23t25.5 -20.5t24 -15.5q6 -3 10.5 -4.5t14.5 -1.5h198q10 0 14.5 1.5t10.5 4.5q8 5 21 14.5t26 21t23.5 23t15.5 19.5 q3 6 3.5 14t0.5 13v373q0 19 -6 28q-14 20 -35.5 40t-44.5 34q-5 3 -12 5.5t-17 2.5h-198q-10 0 -16 -2t-9 -4q-11 -5 -24 -14.5t-25 -21t-22.5 -23.5t-16.5 -23q-2 -3 -3 -8t-1 -14v-373z" />
<glyph unicode="&#x3c4;" horiz-adv-x="893" d="M6 733v150h756v-150h-301v-575l20 -158h-159l-21 133v600h-295z" />
<glyph unicode="&#x3c5;" horiz-adv-x="987" d="M53 248v635h160v-631v-11.5t2 -11.5q6 -11 16.5 -23t22.5 -24t25 -21.5t24 -15.5q6 -3 10.5 -3.5t14.5 -0.5h188q9 0 13.5 0.5t11.5 3.5q10 6 23 15.5t25 21.5t23 24t17 23q2 3 2 11.5v11.5v473l-21 158h162l19 -133v-502q0 -31 -7.5 -61t-25.5 -56q-6 -8 -18 -21.5 t-26 -27.5t-28.5 -27.5t-26.5 -21.5q-27 -20 -65.5 -30.5t-75.5 -10.5h-192q-38 0 -76 10.5t-66 30.5q-11 8 -25.5 21.5t-28.5 27.5t-26 27.5t-18 21.5q-19 26 -26 56t-7 61z" />
<glyph unicode="&#x3c6;" horiz-adv-x="1348" d="M53 246v391q0 31 7 61t26 56q6 8 18 21t26 27.5t28.5 27.5t25.5 22q28 20 66 30.5t76 10.5h75v-150h-71q-10 0 -16 -2t-9 -4q-11 -5 -24 -14.5t-25 -21t-22.5 -23.5t-16.5 -23q-2 -3 -3 -8t-1 -14v-383q0 -9 1 -14.5t3 -8.5q5 -11 15.5 -23t23 -23t25.5 -20.5t24 -15.5 q6 -3 10.5 -4.5t14.5 -1.5h196v498q0 31 7.5 61t25.5 56q6 8 18 21t26 27.5t28.5 27.5t25.5 22q28 20 66.5 30.5t75.5 10.5h88q37 0 75 -10.5t66 -30.5q12 -9 26.5 -22t28.5 -27.5t25.5 -27.5t17.5 -21q19 -26 26 -56t7 -61v-391q0 -31 -7 -61t-26 -56q-6 -9 -17.5 -22 t-25.5 -27.5t-28.5 -27.5t-26.5 -21q-28 -20 -66 -30.5t-75 -10.5h-201v-344h-160v344h-200q-38 0 -76 10.5t-66 30.5q-11 8 -25.5 21t-28.5 27.5t-26 27.5t-18 22q-19 26 -26 56t-7 61zM686 139h197q9 0 13.5 1.5t10.5 4.5q11 6 24 15.5t25.5 20.5t23 23t15.5 23q2 3 3 8.5 t1 14.5v383q0 9 -1 14t-3 8q-6 11 -16.5 23t-22.5 23.5t-25 21t-24 14.5q-3 2 -9 4t-15 2h-80q-9 0 -15.5 -2t-9.5 -4q-11 -5 -23.5 -14.5t-24.5 -21t-23 -23.5t-17 -23q-2 -3 -3 -8t-1 -14v-494z" />
<glyph unicode="&#x3c7;" horiz-adv-x="963" d="M-25 -354l342 651l-305 586h176l222 -428l223 428h176l-305 -586l342 -651h-182l-254 491l-252 -491h-183z" />
<glyph unicode="&#x3c8;" horiz-adv-x="1231" d="M57 248v635h160v-631v-11.5t2 -11.5q6 -11 17 -23t23 -24t24.5 -21.5t23.5 -15.5q6 -3 10.5 -3.5t14.5 -0.5h139v742h160v-742h133q9 0 13.5 0.5t10.5 3.5q11 6 24 15.5t25 21.5t23 24t17 23q2 3 2 11.5v11.5v631h159v-635q0 -31 -7 -61t-25 -56q-6 -8 -18 -21.5 t-26 -27.5t-28.5 -27.5t-26.5 -21.5q-28 -20 -66 -30.5t-75 -10.5h-135v-346h-160v346h-141q-37 0 -75.5 10.5t-66.5 30.5q-11 8 -25.5 21.5t-28.5 27.5t-26 27.5t-18 21.5q-18 26 -25.5 56t-7.5 61z" />
<glyph unicode="&#x3c9;" horiz-adv-x="1348" d="M53 246v391q0 31 7 61t26 56q6 8 18 21t26 27.5t28.5 27.5t25.5 22q28 20 66 30.5t76 10.5h75v-150h-71q-10 0 -16 -2t-9 -4q-11 -5 -24 -14.5t-25 -21t-22.5 -23.5t-16.5 -23q-2 -3 -3 -8t-1 -14v-383q0 -9 1 -14.5t3 -8.5q5 -11 15.5 -23t23 -23t25.5 -20.5t24 -15.5 q6 -3 10.5 -4.5t14.5 -1.5h82q9 0 13.5 1.5t10.5 4.5q9 5 21.5 14.5t25.5 21t23.5 23t15.5 19.5q3 6 3.5 14t0.5 13v360h160v-364q0 -5 0.5 -11.5t3.5 -11.5q4 -8 15 -19.5t24 -23t26 -21t21 -14.5q6 -3 10.5 -4.5t14.5 -1.5h82q9 0 13.5 1.5t10.5 4.5q11 6 24 15.5 t25.5 20.5t23 23t15.5 23q2 3 3 8.5t1 14.5v383q0 9 -1 14t-3 8q-6 11 -16.5 23t-22.5 23.5t-25 21t-24 14.5q-3 2 -9 4t-15 2h-72v150h76q37 0 75 -10.5t66 -30.5q12 -9 26.5 -22t28.5 -27.5t25.5 -27.5t17.5 -21q19 -26 26 -56t7 -61v-391q0 -31 -7 -61t-26 -56 q-6 -9 -17.5 -22t-25.5 -27.5t-28.5 -27.5t-26.5 -21q-28 -20 -66 -30.5t-75 -10.5h-88q-37 0 -65 10.5t-56 30.5q-16 11 -35.5 29.5t-36.5 35.5q-17 -17 -36.5 -35.5t-34.5 -29.5q-28 -20 -56 -30.5t-65 -10.5h-88q-38 0 -76 10.5t-66 30.5q-11 8 -25.5 21t-28.5 27.5 t-26 27.5t-18 22q-19 26 -26 56t-7 61z" />
<glyph unicode="&#x3ca;" horiz-adv-x="455" d="M-102 1065v182h170v-182h-170zM0 0zM72 133v750h159v-725l21 -158h-162zM228 1065v182h170v-182h-170z" />
<glyph unicode="&#x3cb;" horiz-adv-x="987" d="M53 0zM53 248v635h160v-631v-11.5t2 -11.5q6 -11 16.5 -23t22.5 -24t25 -21.5t24 -15.5q6 -3 10.5 -3.5t14.5 -0.5h188q9 0 13.5 0.5t11.5 3.5q10 6 23 15.5t25 21.5t23 24t17 23q2 3 2 11.5v11.5v473l-21 158h162l19 -133v-502q0 -31 -7.5 -61t-25.5 -56 q-6 -8 -18 -21.5t-26 -27.5t-28.5 -27.5t-26.5 -21.5q-27 -20 -65.5 -30.5t-75.5 -10.5h-192q-38 0 -76 10.5t-66 30.5q-11 8 -25.5 21.5t-28.5 27.5t-26 27.5t-18 21.5q-19 26 -26 56t-7 61zM170 1065v182h170v-182h-170zM500 1065v182h170v-182h-170z" />
<glyph unicode="&#x3cc;" horiz-adv-x="991" d="M53 0zM53 246v391q0 31 7 61t26 56q6 8 18 21t26 27.5t28.5 27.5t25.5 22q28 20 66 30.5t76 10.5h204q38 0 76 -10.5t66 -30.5q11 -9 25.5 -22t28.5 -27.5t26 -27.5t18 -21q19 -26 26 -56t7 -61v-391q0 -31 -7 -61t-26 -56q-6 -9 -18 -22t-26 -27.5t-28.5 -27.5 t-25.5 -21q-28 -20 -66 -30.5t-76 -10.5h-204q-38 0 -76 10.5t-66 30.5q-11 8 -25.5 21t-28.5 27.5t-26 27.5t-18 22q-19 26 -26 56t-7 61zM213 250q0 -9 1 -14.5t3 -8.5q5 -11 15.5 -23t23 -23t25.5 -20.5t24 -15.5q6 -3 10.5 -4.5t14.5 -1.5h198q10 0 14.5 1.5t10.5 4.5 q8 5 21 14.5t26 21t23.5 23t15.5 19.5q3 6 3.5 14t0.5 13v383q0 11 -1.5 17.5t-4.5 11.5q-14 20 -35.5 39.5t-44.5 33.5q-5 3 -12 5.5t-17 2.5h-198q-10 0 -16 -2t-9 -4q-11 -5 -24 -14.5t-25 -21t-22.5 -23.5t-16.5 -23q-2 -3 -3 -8t-1 -14v-383zM321 1065l82 285l137 -35 l-74 -250h-145z" />
<glyph unicode="&#x3cd;" horiz-adv-x="987" d="M53 0zM53 248v635h160v-631v-11.5t2 -11.5q6 -11 16.5 -23t22.5 -24t25 -21.5t24 -15.5q6 -3 10.5 -3.5t14.5 -0.5h188q9 0 13.5 0.5t11.5 3.5q10 6 23 15.5t25 21.5t23 24t17 23q2 3 2 11.5v11.5v473l-21 158h162l19 -133v-502q0 -31 -7.5 -61t-25.5 -56 q-6 -8 -18 -21.5t-26 -27.5t-28.5 -27.5t-26.5 -21.5q-27 -20 -65.5 -30.5t-75.5 -10.5h-192q-38 0 -76 10.5t-66 30.5q-11 8 -25.5 21.5t-28.5 27.5t-26 27.5t-18 21.5q-19 26 -26 56t-7 61zM332 1065l82 285l137 -35l-74 -250h-145z" />
<glyph unicode="&#x3ce;" horiz-adv-x="1348" d="M53 0zM53 246v391q0 31 7 61t26 56q6 8 18 21t26 27.5t28.5 27.5t25.5 22q28 20 66 30.5t76 10.5h75v-150h-71q-10 0 -16 -2t-9 -4q-11 -5 -24 -14.5t-25 -21t-22.5 -23.5t-16.5 -23q-2 -3 -3 -8t-1 -14v-383q0 -9 1 -14.5t3 -8.5q5 -11 15.5 -23t23 -23t25.5 -20.5 t24 -15.5q6 -3 10.5 -4.5t14.5 -1.5h82q9 0 13.5 1.5t10.5 4.5q9 5 21.5 14.5t25.5 21t23.5 23t15.5 19.5q3 6 3.5 14t0.5 13v360h160v-364q0 -5 0.5 -11.5t3.5 -11.5q4 -8 15 -19.5t24 -23t26 -21t21 -14.5q6 -3 10.5 -4.5t14.5 -1.5h82q9 0 13.5 1.5t10.5 4.5 q11 6 24 15.5t25.5 20.5t23 23t15.5 23q2 3 3 8.5t1 14.5v383q0 9 -1 14t-3 8q-6 11 -16.5 23t-22.5 23.5t-25 21t-24 14.5q-3 2 -9 4t-15 2h-72v150h76q37 0 75 -10.5t66 -30.5q12 -9 26.5 -22t28.5 -27.5t25.5 -27.5t17.5 -21q19 -26 26 -56t7 -61v-391q0 -31 -7 -61 t-26 -56q-6 -9 -17.5 -22t-25.5 -27.5t-28.5 -27.5t-26.5 -21q-28 -20 -66 -30.5t-75 -10.5h-88q-37 0 -65 10.5t-56 30.5q-16 11 -35.5 29.5t-36.5 35.5q-17 -17 -36.5 -35.5t-34.5 -29.5q-28 -20 -56 -30.5t-65 -10.5h-88q-38 0 -76 10.5t-66 30.5q-11 8 -25.5 21 t-28.5 27.5t-26 27.5t-18 22q-19 26 -26 56t-7 61zM504 1065l82 285l137 -35l-74 -250h-145z" />
<glyph unicode="&#x401;" horiz-adv-x="1047" d="M84 0v1229h754v-160h-586v-375h553v-159h-553v-375h586v-160h-754zM213 1391v182h170v-182h-170zM543 1391v182h170v-182h-170z" />
<glyph unicode="&#x402;" horiz-adv-x="1292" d="M16 1069v160h787v-160h-309v-252q12 13 28.5 26.5t36 24.5t40 18t40.5 7h170q29 0 60.5 -10.5t56.5 -24.5q15 -9 36.5 -28t43 -40.5t40 -42.5t27.5 -34q17 -25 24 -52t7 -55v-330q0 -27 -7 -55t-24 -53q-9 -14 -27.5 -34.5t-40 -41.5t-43 -39.5t-36.5 -27.5 q-25 -14 -57.5 -24.5t-61.5 -10.5h-158v157h150q6 0 9 1.5t5 1.5q12 6 33 22t41 35.5t34.5 39t14.5 32.5v296q0 8 -0.5 22t-3.5 19q-9 15 -25 33t-33 34.5t-33.5 29.5t-27.5 18q-2 0 -5 1t-9 1h-154q-3 0 -6 -0.5t-5 -0.5q-3 -1 -5 -1q-18 -11 -38 -27.5t-39 -36.5 t-34.5 -43.5t-23.5 -48.5v-575h-168v1069h-310z" />
<glyph unicode="&#x403;" horiz-adv-x="997" d="M86 0v1229h786v-160h-618v-1069h-168zM344 1415l180 232h201l-229 -273z" />
<glyph unicode="&#x404;" horiz-adv-x="1116" d="M72 276v676q0 28 6.5 55t23.5 52q9 13 27.5 34t40.5 42.5t43.5 40.5t36.5 28q25 14 56.5 24.5t60.5 10.5h280q40 0 76.5 -15.5t68.5 -39.5t59 -53.5t48 -57.5q12 -15 25.5 -39.5t31.5 -64.5l-163 -47q-9 24 -24.5 47.5t-34 44t-39 36.5t-38.5 27q-2 0 -5 1q-2 0 -5 0.5 t-6 0.5h-264q-6 0 -9.5 -1t-5.5 -1q-11 -5 -27 -18t-33.5 -29t-33 -34t-24.5 -33q-2 -3 -2.5 -11.5t-0.5 -18.5t0.5 -19t0.5 -13v-203h413l2 -157h-415v-262q0 -13 14 -32.5t33.5 -38.5t40 -34.5t32.5 -21.5q2 0 5.5 -1t9.5 -1h264q8 0 11 1q3 0 5 1q17 9 37 25t39 36.5 t35 44t25 47.5l163 -43q-11 -28 -25.5 -56.5t-31.5 -49.5q-22 -28 -49 -57.5t-59 -53.5t-68 -39.5t-76 -15.5h-278q-29 0 -61.5 10.5t-57.5 24.5q-15 9 -36.5 27.5t-43.5 39.5t-40.5 41.5t-27.5 34.5q-17 25 -23.5 53t-6.5 55z" />
<glyph unicode="&#x405;" horiz-adv-x="1167" d="M43 0zM43 262l162 43q3 -6 6 -13t6 -12l6 -12q10 -18 25 -35.5t31.5 -33t32.5 -27.5t28 -18q6 -3 10.5 -3.5t7.5 -0.5h328q8 0 16 4q12 6 32.5 21.5t39.5 34t33 37.5t14 32v124q0 25 -14 45t-33 25l-557 143q-35 9 -62 30.5t-45.5 50t-28 61.5t-9.5 67v125q0 26 5.5 55 t22.5 54q9 14 28 35t41 42.5t44 40t37 27.5q25 14 56.5 24.5t60.5 10.5h301q40 0 76 -15.5t68 -39.5t59 -53.5t49 -57.5q12 -15 25 -39.5t32 -64.5l-164 -47l-16 32q-3 5 -4 9q-9 17 -24 34.5t-31.5 33.5t-33 28t-28.5 18q-2 0 -4 1q-2 0 -4.5 0.5t-5.5 0.5h-285 q-6 0 -10 -1t-9 -3q-11 -5 -31 -21t-39.5 -35t-33.5 -38t-14 -31v-116q0 -23 13 -42t32 -24l555 -147q34 -9 62 -29.5t47 -48.5t29.5 -60.5t10.5 -66.5v-140q0 -26 -5.5 -54.5t-22.5 -53.5q-9 -14 -28 -34.5t-41 -41.5t-44 -39.5t-37 -27.5q-25 -14 -56.5 -24.5t-60.5 -10.5 h-342q-41 0 -77.5 15t-68.5 39t-59 53.5t-49 58.5q-12 17 -24 41.5t-31 64.5z" />
<glyph unicode="&#x406;" horiz-adv-x="457" d="M72 0v1229h168v-1229h-168z" />
<glyph unicode="&#x407;" horiz-adv-x="457" d="M-94 1391v182h170v-182h-170zM72 0v1229h168v-1229h-168zM236 1391v182h170v-182h-170z" />
<glyph unicode="&#x408;" horiz-adv-x="956" d="M-16 262l161 43q7 -17 22 -39.5t33 -44t37.5 -40t36.5 -27.5q7 -3 13.5 -3.5t11.5 -0.5h143q9 0 17 4q11 5 31.5 21t40.5 35t34.5 38t14.5 31v950h168v-953q0 -27 -7 -55t-24 -53q-9 -13 -27.5 -33.5t-39.5 -42t-42.5 -40t-36.5 -27.5q-24 -14 -56.5 -24.5t-61.5 -10.5 h-160q-42 0 -78.5 15t-68 39t-58 53.5t-47.5 58.5q-11 15 -25 40.5t-32 65.5zM0 0z" />
<glyph unicode="&#x409;" horiz-adv-x="1745" d="M-88 -10v160h119q10 0 12 2q12 5 33 21.5t41.5 36t35.5 38.5t15 31v950h747v-512h390q35 0 71 -10.5t64 -30.5q10 -8 26.5 -22.5t33 -30.5t30.5 -31.5t20 -24.5q35 -53 35 -114v-185q0 -64 -35 -116q-6 -9 -19.5 -24.5t-30 -32t-32.5 -31t-26 -21.5q-28 -20 -65 -31.5 t-72 -11.5h-557v1069h-412v-793q0 -27 -7 -55t-24 -53q-9 -13 -27 -33.5t-39 -42t-42.5 -40t-36.5 -27.5q-25 -14 -57.5 -24.5t-61.5 -10.5h-129zM915 160h400q10 1 25 11.5t30 24.5t26.5 28.5t16.5 23.5q2 2 3 8t1 14v179q0 8 -1 14t-3 8q-6 11 -19 25.5t-28.5 28t-32.5 23 t-30 9.5h-388v-397z" />
<glyph unicode="&#x40a;" horiz-adv-x="1757" d="M84 0v1229h168v-522h508v522h168v-522h389q35 0 71 -10.5t64 -30.5q11 -8 27 -22.5t32.5 -30.5t31 -31.5t20.5 -24.5q34 -54 34 -115v-174q0 -63 -34 -116q-6 -9 -20 -24.5t-30 -32t-32 -31t-27 -21.5q-28 -20 -65 -31.5t-72 -11.5h-557v547h-508v-547h-168zM928 160h399 q11 1 26 11.5t29.5 24.5t26 28.5t16.5 23.5q5 5 5 22v168q0 18 -5 23q-6 10 -18.5 25t-28.5 28.5t-32.5 23t-30.5 9.5h-387v-387z" />
<glyph unicode="&#x40b;" horiz-adv-x="1303" d="M16 1069v160h787v-160h-309v-252q12 13 28.5 26.5t36 24.5t40 18t40.5 7h170q29 0 60.5 -10.5t56.5 -24.5q15 -9 36.5 -28t43 -40.5t40 -42.5t27.5 -34q17 -25 24 -52t7 -55v-606h-170v555v13t-0.5 19t-1.5 18.5t-2 10.5q-9 15 -24.5 33t-32.5 34.5t-33 29.5t-27 18 q-2 0 -5 1t-9 1h-154q-3 0 -6 -0.5t-5 -0.5q-3 -1 -5 -1q-18 -11 -38 -27.5t-39 -36.5t-34.5 -43.5t-23.5 -48.5v-575h-168v1069h-310z" />
<glyph unicode="&#x40c;" horiz-adv-x="1069" d="M84 0v1229h168v-537h35l463 537h221l-543 -615l545 -614h-221l-465 535h-35v-535h-168zM381 1415l180 232h201l-230 -273z" />
<glyph unicode="&#x40e;" horiz-adv-x="1040" d="M-23 1229h179l299 -707l299 707h178l-522 -1229h-160l141 362h-47zM260 1587h100q0 -43 28 -72.5t69 -29.5q21 0 39.5 8t32.5 21.5t22 32.5t8 40h98q0 -42 -15 -77.5t-42 -61.5t-63.5 -40.5t-79.5 -14.5q-42 0 -78.5 14.5t-62.5 40.5t-41 61.5t-15 77.5z" />
<glyph unicode="&#x40f;" horiz-adv-x="1157" d="M84 0v1229h168v-1069h528v1069h168v-1229h-346v-240h-168v240h-350z" />
<glyph unicode="&#x410;" horiz-adv-x="1159" d="M-18 0l428 1229h221l428 -1229h-180l-93 274h-532l-94 -274h-178zM307 432h426l-213 625z" />
<glyph unicode="&#x411;" horiz-adv-x="1102" d="M84 0v1229h772v-160h-604v-352h410q35 0 71 -10.5t64 -30.5q10 -8 26.5 -22.5t33 -30.5t30.5 -31.5t20 -24.5q35 -53 35 -114v-185q0 -64 -35 -116q-6 -9 -19.5 -24.5t-30 -32t-32.5 -31t-26 -21.5q-28 -20 -65 -31.5t-72 -11.5h-578zM252 160h420q10 1 25 11.5t30 24.5 t26.5 28.5t16.5 23.5q2 2 3 8t1 14v179q0 8 -1 14t-3 8q-6 11 -19 25.5t-28.5 28t-32.5 23t-31 9.5h-407v-397z" />
<glyph unicode="&#x412;" horiz-adv-x="1137" d="M84 0v1229h578q37 0 73 -12.5t64 -32.5q10 -8 26 -22t32.5 -30t30 -31t19.5 -24q19 -26 26 -57t7 -62v-149q0 -34 -6.5 -59t-19.5 -46t-31 -40.5t-41 -40.5q23 -22 41 -41t31 -40.5t19.5 -46.5t6.5 -59v-170q0 -31 -8 -59.5t-25 -54.5q-6 -9 -19.5 -24.5t-30 -32 t-32.5 -31t-26 -21.5q-28 -20 -65 -31.5t-72 -11.5h-578zM84 0zM252 160h407q15 0 31.5 10t32 24t28 29.5t17.5 26.5q2 3 3 7.5t1 12.5v164q0 13 -4 21q-5 10 -15 23t-22 25t-25 22t-24 16q-2 2 -7 2h-13h-410v-383zM252 700h410q13 0 29.5 10t31.5 24.5t27.5 30t17.5 26.5 q4 8 4 22v143q0 17 -4 21q-6 11 -18.5 26.5t-27.5 30t-31.5 25t-31.5 10.5h-407v-369z" />
<glyph unicode="&#x413;" horiz-adv-x="997" d="M86 0v1229h786v-160h-618v-1069h-168z" />
<glyph unicode="&#x414;" horiz-adv-x="1260" d="M-39 160h90h17.5t15.5 2q12 5 32 18.5t40 31.5t35.5 38.5t17.5 38.5l110 940h678v-1069h146l-51 -377h-162l26 217h-827v-217h-168v377zM326 160h503v909h-352l-100 -782q-3 -28 -11.5 -56t-25.5 -53z" />
<glyph unicode="&#x415;" horiz-adv-x="1047" d="M84 0v1229h754v-160h-586v-375h553v-159h-553v-375h586v-160h-754z" />
<glyph unicode="&#x416;" horiz-adv-x="1673" d="M-35 0l543 614l-541 615h221l461 -537h37v537h168v-537h35l463 537h221l-543 -615l545 -614h-221l-465 535h-35v-535h-168v535h-37l-463 -535h-221z" />
<glyph unicode="&#x417;" horiz-adv-x="1081" d="M37 258l164 43q9 -17 13 -24.5t7 -12.5q11 -17 26 -35t31 -34.5t31 -29t27 -18.5q2 -1 5 -1q3 -1 11 -1h256q15 0 31.5 10t31.5 24.5t27.5 30t18.5 26.5q4 4 4 20v174q0 17 -4 21q-6 10 -18 25.5t-27 30t-31.5 24.5t-30.5 10h-276v157h274q19 0 23 4q10 6 22.5 15.5 t24.5 21.5t22.5 24t16.5 23q2 2 3 8.5t1 14.5v158q0 8 -1 14t-3 8q-6 11 -16.5 24t-22.5 25t-24.5 22.5t-22.5 16.5q-5 3 -11 2.5t-12 -0.5h-256q-3 0 -6 -0.5t-5 -0.5q-3 -1 -5 -1q-12 -6 -28 -18t-32.5 -27t-31 -32.5t-23.5 -34.5q-6 -13 -10.5 -21.5t-9.5 -19.5l-164 43 q18 40 31.5 65.5t25.5 40.5q11 15 27 33.5t34 37t37 35t37 27.5q25 16 57 24.5t60 8.5h264q35 0 71.5 -11.5t63.5 -31.5q11 -8 27 -22.5t32.5 -31t30 -32.5t19.5 -25q35 -52 35 -114v-166q0 -32 -7.5 -57t-21 -46.5t-32 -40.5t-40.5 -40q22 -21 40.5 -41t32 -41.5t21 -47 t7.5 -57.5v-180q0 -64 -35 -117q-6 -9 -19.5 -24t-30 -31.5t-32.5 -31t-27 -21.5q-27 -20 -63.5 -31.5t-71.5 -11.5h-264q-40 0 -76 15.5t-68 39.5t-59 53t-49 56q-6 7 -14.5 20.5t-16.5 29t-15 31t-11 27.5z" />
<glyph unicode="&#x418;" horiz-adv-x="1169" d="M84 0v1229h166v-948l512 948h199v-1229h-166v938l-516 -938h-195z" />
<glyph unicode="&#x419;" horiz-adv-x="1169" d="M72 0v1229h166v-948l512 948h198v-1229h-166v938l-516 -938h-194zM313 1587h101q0 -43 28 -72.5t68 -29.5q21 0 39.5 8t32.5 21.5t22 32.5t8 40h99q0 -42 -15 -77.5t-42 -61.5t-64 -40.5t-80 -14.5q-42 0 -78.5 14.5t-62.5 40.5t-41 61.5t-15 77.5z" />
<glyph unicode="&#x41a;" horiz-adv-x="1069" d="M84 0v1229h168v-537h35l463 537h221l-543 -615l545 -614h-221l-465 535h-35v-535h-168z" />
<glyph unicode="&#x41b;" horiz-adv-x="1178" d="M-88 -10v160h119q10 0 12 2q12 5 33 21.5t41.5 36t35.5 38.5t15 31v950h788v-1229h-168v1069h-452v-793q0 -27 -7 -55t-24 -53q-9 -13 -27 -33.5t-39 -42t-42.5 -40t-36.5 -27.5q-25 -14 -57.5 -24.5t-61.5 -10.5h-129z" />
<glyph unicode="&#x41c;" horiz-adv-x="1372" d="M84 0v1229h213l328 -670l329 670h209v-1229h-164v977l-321 -660h-111l-317 660v-977h-166z" />
<glyph unicode="&#x41d;" horiz-adv-x="1157" d="M84 0v1229h168v-535h528v535h168v-1229h-168v535h-528v-535h-168z" />
<glyph unicode="&#x41e;" horiz-adv-x="1186" d="M74 0zM74 276v674q0 26 5.5 55t22.5 54q9 14 28 35t41 42.5t44 40t37 27.5q25 14 56.5 24.5t60.5 10.5h323q29 0 61.5 -10.5t57.5 -24.5q15 -9 36.5 -28t43 -40.5t40 -42.5t27.5 -34q17 -25 24 -53t7 -56v-674q0 -27 -7 -55t-24 -53q-9 -14 -27.5 -34.5t-40 -41.5 t-43 -39.5t-36.5 -27.5q-25 -14 -57.5 -24.5t-61.5 -10.5h-323q-29 0 -60.5 10.5t-56.5 24.5q-15 9 -37 27.5t-44 39.5t-41 41.5t-28 34.5q-17 25 -22.5 53.5t-5.5 54.5zM242 279q0 -12 14 -31t33.5 -38t39.5 -35t31 -21q4 -2 8.5 -3t10.5 -1h307q6 0 10.5 1t8.5 3 q12 6 31.5 21.5t38.5 34t32.5 37.5t13.5 32v667q0 11 -4 19q-8 15 -22.5 32.5t-31 33t-32.5 27.5t-26 17q-4 2 -8.5 3t-10.5 1h-307q-6 0 -10.5 -1t-8.5 -3q-12 -6 -32 -22t-39 -35.5t-33 -39t-14 -32.5v-667z" />
<glyph unicode="&#x41f;" horiz-adv-x="1157" d="M84 0v1229h864v-1229h-168v1069h-528v-1069h-168z" />
<glyph unicode="&#x420;" horiz-adv-x="1102" d="M84 0v1229h578q35 0 72 -11.5t65 -31.5q10 -8 26 -22.5t32.5 -30.5t30 -31.5t19.5 -24.5q17 -26 26 -56t9 -60v-185q0 -62 -35 -114q-6 -9 -20 -24.5t-30.5 -32t-33 -31t-26.5 -21.5q-28 -20 -64 -30.5t-71 -10.5h-410v-512h-168zM84 0zM252 672h407q14 0 30 9t31.5 22 t28 27t19.5 24q6 9 6 26v178q0 8 -1 13t-3 10q-3 9 -15 24t-27.5 29t-31.5 24t-26 11h-13h-405v-397z" />
<glyph unicode="&#x421;" horiz-adv-x="1108" d="M72 0zM72 276v676q0 28 6.5 55t23.5 52q9 13 27.5 34t40.5 42.5t43.5 40.5t36.5 28q25 14 56.5 24.5t60.5 10.5h272q40 0 76 -15.5t68 -39.5t59.5 -53.5t48.5 -57.5q12 -15 25.5 -39.5t31.5 -64.5l-164 -47q-8 24 -23.5 47.5t-34.5 44t-39 36.5t-38 27q-2 0 -5 1 q-2 0 -5 0.5t-6 0.5h-256q-11 0 -19 -4q-11 -5 -26 -17t-31.5 -27.5t-31 -33t-23.5 -32.5q-3 -5 -3.5 -12t-0.5 -15v-659q0 -13 13.5 -32t32.5 -37.5t38.5 -34t31.5 -21.5q8 -4 19 -4h256q12 0 20 4q17 9 36.5 25t37.5 36t33.5 43t23.5 47l164 -43q-11 -28 -25.5 -56.5 t-31.5 -49.5q-23 -28 -50 -57.5t-58.5 -53.5t-67.5 -39.5t-76 -15.5h-270q-29 0 -61.5 10.5t-57.5 24.5q-15 9 -36.5 27.5t-43.5 39.5t-40.5 41.5t-27.5 34.5q-17 25 -23.5 53t-6.5 55z" />
<glyph unicode="&#x422;" horiz-adv-x="1032" d="M16 1069v160h869v-160h-350v-1069h-168v1069h-351z" />
<glyph unicode="&#x423;" horiz-adv-x="1024" d="M-23 1229h179l299 -707l299 707h178l-522 -1229h-160l141 362h-47z" />
<glyph unicode="&#x424;" horiz-adv-x="1282" d="M74 276v674q0 26 5.5 55t22.5 54q9 14 28 35t41 42.5t44 40t37 27.5q25 14 56.5 24.5t60.5 10.5h131v162h159v-162h129q29 0 61.5 -10.5t57.5 -24.5q15 -9 36.5 -28t43.5 -40.5t40.5 -42.5t27.5 -34q17 -25 23.5 -53t6.5 -56v-674q0 -27 -6.5 -55t-23.5 -53 q-9 -14 -27.5 -34.5t-40.5 -41.5t-43.5 -39.5t-36.5 -27.5q-25 -14 -57.5 -24.5t-61.5 -10.5h-129v-183h-159v183h-131q-29 0 -60.5 10.5t-56.5 24.5q-15 9 -37 27.5t-44 39.5t-41 41.5t-28 34.5q-17 25 -22.5 53.5t-5.5 54.5zM242 279q0 -12 15 -31t35 -38.5t40.5 -36 t32.5 -21.5q2 0 5 -1t9 -1h121v929h-121q-6 0 -9 -1t-5 -1q-12 -6 -33 -22.5t-41 -36t-34.5 -39.5t-14.5 -33v-667zM659 150h123q7 0 10 1t5 1q12 6 32.5 21.5t40 34.5t34 38.5t14.5 32.5v667q0 6 -0.5 10.5t-2.5 6.5q-9 15 -24.5 33t-33 34t-34 29t-26.5 18q-2 0 -5 1 t-10 1h-123v-929z" />
<glyph unicode="&#x425;" d="M-20 0l399 627l-381 602h184l287 -459l289 459h184l-381 -602l400 -627h-187l-305 483l-303 -483h-186z" />
<glyph unicode="&#x426;" horiz-adv-x="1198" d="M84 0v1229h168v-1069h508v1069h168v-1069h153l-51 -377h-162l27 217h-811z" />
<glyph unicode="&#x427;" horiz-adv-x="1102" d="M84 776v453h168v-449q0 -8 1 -14t3 -8q6 -11 19 -25.5t28.5 -28t32.5 -23t31 -9.5h407v557h168v-1229h-168v512h-409q-36 0 -72 10.5t-64 30.5q-11 7 -27 21.5t-32.5 31t-30.5 32t-20 24.5q-35 52 -35 114z" />
<glyph unicode="&#x428;" horiz-adv-x="1313" d="M84 0v1229h168v-1069h254v1069h168v-1069h262v1069h168v-1229h-1020z" />
<glyph unicode="&#x429;" horiz-adv-x="1360" d="M84 0v1229h168v-1069h254v1069h168v-1069h262v1069h168v-1069h139l-49 -377h-162l25 217h-973z" />
<glyph unicode="&#x42a;" horiz-adv-x="1223" d="M-37 1069v160h410v-512h409q35 0 71.5 -10.5t64.5 -30.5q10 -8 26.5 -22.5t33 -30.5t30.5 -31.5t20 -24.5q35 -53 35 -114v-185q0 -64 -35 -116q-6 -9 -19.5 -24.5t-30 -32t-32.5 -31t-26 -21.5q-28 -20 -65.5 -31.5t-72.5 -11.5h-577v1069h-242zM373 160h420 q10 1 25 11.5t30 24.5t26.5 28.5t16.5 23.5q2 2 3 8t1 14v179q0 8 -1 14t-3 8q-6 11 -19 25.5t-29 28t-32.5 23t-30.5 9.5h-407v-397z" />
<glyph unicode="&#x42b;" horiz-adv-x="1516" d="M84 0v1229h168v-512h410q35 0 71 -10.5t64 -30.5q10 -8 26.5 -22.5t33 -30.5t30.5 -31.5t20 -24.5q35 -53 35 -114v-185q0 -64 -35 -116q-6 -9 -19.5 -24.5t-30 -32t-32.5 -31t-26 -21.5q-28 -20 -65 -31.5t-72 -11.5h-578zM252 160h420q10 1 25 11.5t30 24.5t26.5 28.5 t16.5 23.5q2 2 3 8t1 14v179q0 8 -1 14t-3 8q-6 11 -19 25.5t-28.5 28t-32.5 23t-31 9.5h-407v-397zM1139 0v1229h168v-1229h-168z" />
<glyph unicode="&#x42c;" horiz-adv-x="1102" d="M84 0v1229h168v-512h410q35 0 71 -10.5t64 -30.5q10 -8 26.5 -22.5t33 -30.5t30.5 -31.5t20 -24.5q35 -53 35 -114v-185q0 -64 -35 -116q-6 -9 -19.5 -24.5t-30 -32t-32.5 -31t-26 -21.5q-28 -20 -65 -31.5t-72 -11.5h-578zM252 160h420q10 1 25 11.5t30 24.5t26.5 28.5 t16.5 23.5q2 2 3 8t1 14v179q0 8 -1 14t-3 8q-6 11 -19 25.5t-28.5 28t-32.5 23t-31 9.5h-407v-397z" />
<glyph unicode="&#x42d;" horiz-adv-x="1102" d="M37 262l164 43q8 -24 24 -47.5t35 -44t39 -36.5t37 -25q2 -1 5 -1q3 -1 11 -1h264q7 0 10 1t5 1q12 6 32.5 21.5t40 34.5t34 38.5t14.5 32.5v262h-416l2 157h414v203v13v19t-0.5 18.5t-1.5 11.5q-9 15 -25 33t-33.5 34t-34 29t-26.5 18q-2 0 -5 1t-10 1h-264 q-3 0 -6 -0.5t-5 -0.5q-3 -1 -5 -1q-18 -11 -38 -27t-39 -36.5t-34.5 -44t-23.5 -47.5l-164 47q18 40 31.5 64.5t25.5 39.5q22 28 49 57.5t59 53.5t68 39.5t76 15.5h281q29 0 60.5 -10.5t55.5 -24.5q15 -9 36.5 -28t43.5 -40.5t40.5 -42.5t27.5 -34q17 -25 24 -52t7 -55 v-676q0 -27 -7 -55t-24 -53q-9 -14 -27.5 -34.5t-40.5 -41.5t-43.5 -39.5t-36.5 -27.5q-24 -14 -56.5 -24.5t-61.5 -10.5h-279q-40 0 -76 15.5t-67.5 39.5t-59 53.5t-49.5 57.5q-17 21 -31.5 49.5t-25.5 56.5z" />
<glyph unicode="&#x42e;" horiz-adv-x="1491" d="M84 0v1229h168v-535h168v256q0 26 6 55t23 54q9 14 27.5 35t40.5 42.5t44 40t37 27.5q25 14 56.5 24.5t60.5 10.5h282q29 0 61.5 -10.5t57.5 -24.5q15 -9 36.5 -28t43.5 -40.5t40.5 -42.5t27.5 -34q17 -25 23.5 -53t6.5 -56v-674q0 -27 -6.5 -55t-23.5 -53 q-9 -14 -27.5 -34.5t-40.5 -41.5t-43.5 -39.5t-36.5 -27.5q-25 -14 -57.5 -24.5t-61.5 -10.5h-282q-29 0 -60.5 10.5t-56.5 24.5q-15 9 -37 27.5t-44 39.5t-40.5 41.5t-27.5 34.5q-17 25 -23 53.5t-6 54.5v259h-168v-535h-168zM588 279q0 -12 15 -31t35 -38.5t40.5 -36 t32.5 -21.5q2 0 5 -1t9 -1h266q6 0 9.5 1t5.5 1q12 6 32 21.5t39.5 34.5t34 38.5t14.5 32.5v667v10.5t-2 6.5q-9 15 -24.5 33t-33 34t-34 29t-26.5 18q-2 0 -5.5 1t-9.5 1h-266q-6 0 -9 -1t-5 -1q-12 -6 -33 -22.5t-41 -36t-34.5 -39.5t-14.5 -33v-667z" />
<glyph unicode="&#x42f;" horiz-adv-x="1151" d="M6 0l299 516q-22 2 -47.5 12.5t-44.5 24.5q-11 7 -27 21.5t-32 31t-30 32t-20 24.5q-34 53 -34 114v185q0 62 34 116q6 9 20 24.5t30 31.5t32 30.5t27 22.5q28 20 65 31.5t72 11.5h578v-1229h-168v512h-283l-289 -512h-182zM238 769q0 -8 2 -11q5 -11 18 -25.5t29.5 -28 t33.5 -23t31 -9.5h408v397h-408h-12q-11 -1 -26 -12t-30 -25.5t-27.5 -29.5t-16.5 -23q-2 -2 -2 -10.5v-12.5v-176v-11z" />
<glyph unicode="&#x430;" horiz-adv-x="987" d="M16 0zM16 244v39q0 32 8.5 62t26.5 54q6 9 18 22t25.5 26.5t27.5 26.5t25 22q28 20 65.5 29.5t74.5 9.5h331v100q0 5 -0.5 12t-5.5 15q-12 20 -37 42t-47 33q-6 3 -10.5 4.5t-13.5 1.5h-193q-14 0 -27.5 -7t-25.5 -17.5t-22.5 -22.5t-18.5 -22q-4 -5 -8.5 -11t-8.5 -12 l-10 -14l-149 45q9 22 25.5 47.5t35.5 49t38.5 43.5t35.5 32q29 20 66.5 29.5t74.5 9.5h189q37 0 75 -10.5t66 -30.5q12 -9 26.5 -22t28.5 -26.5t25.5 -26.5t17.5 -21q19 -26 26 -57t7 -62v-475l17 -162h-158l-10 70q-15 -13 -34 -27t-40 -26t-43 -19.5t-43 -7.5h-180 q-37 0 -74.5 10.5t-65.5 30.5q-11 8 -25 21t-27.5 26.5t-25.5 26.5t-18 22q-18 25 -26.5 55t-8.5 62zM176 246q0 -10 1 -14t3 -7q6 -11 15.5 -22t21.5 -22t24 -20.5t23 -15.5l10 -4t15 -2h172q10 0 18 4q13 6 32.5 17.5t39.5 25t38 29.5t29 31v143h-329q-10 0 -15 -1t-10 -3 q-11 -6 -23 -16t-24 -21.5t-21.5 -23.5t-15.5 -23q-2 -3 -3 -7t-1 -13v-35z" />
<glyph unicode="&#x431;" horiz-adv-x="987" d="M49 246v735q0 32 7 62.5t26 56.5q6 8 18 21.5t26 27.5t28.5 27.5t25.5 21.5q29 20 66.5 30.5t75.5 10.5h245l-47 -149h-196q-7 0 -16.5 -0.5t-14.5 -4.5q-9 -5 -22.5 -15.5t-27 -24t-23.5 -27t-11 -23.5v-182q15 14 33.5 28t39 25.5t42 19t43.5 7.5h159q37 0 75.5 -10.5 t66.5 -30.5q11 -9 25.5 -22t28.5 -27.5t26 -27.5t18 -21q19 -26 26 -56t7 -61v-391q0 -31 -7 -61t-26 -56q-6 -9 -18 -22t-26 -27.5t-28.5 -27.5t-25.5 -21q-28 -20 -66.5 -30.5t-75.5 -10.5h-204q-38 0 -76 10.5t-66 30.5q-11 8 -25.5 21t-28.5 27.5t-26 27.5t-18 22 q-19 26 -26 56t-7 61zM209 250q0 -9 1 -14.5t3 -8.5q5 -11 15.5 -22.5t23 -22.5t25.5 -21t24 -16l10 -4t15 -2h198q10 0 15 2l10 4q8 5 23 16t29.5 24t25.5 26t12 22v400v11t-2 11q-6 11 -16.5 23t-22.5 23.5t-25 21t-24 14.5q-6 3 -10.5 4.5t-14.5 1.5h-151q-17 0 -42 -14 t-49.5 -33.5t-45 -39.5t-27.5 -31v-375z" />
<glyph unicode="&#x432;" horiz-adv-x="979" d="M51 -4v887h457q37 0 74 -10.5t65 -30.5q12 -9 26 -22t27.5 -26.5t25 -26.5t17.5 -22q19 -24 27 -54t8 -62v-11q0 -32 -8 -61.5t-27 -54.5q-8 -11 -22 -25.5t-31 -30.5q20 -18 40.5 -37.5t29.5 -31.5q18 -25 26.5 -55t8.5 -62v-10q0 -32 -8.5 -62t-26.5 -55q-6 -8 -18 -21 t-25.5 -27t-27.5 -27t-25 -21q-28 -20 -65.5 -30.5t-74.5 -10.5h-473zM211 145h319q10 0 15 1.5t10 3.5q22 12 43.5 37t32.5 46q2 4 3 8t1 13v10q0 11 -1 14.5t-3 6.5q-11 21 -32.5 45t-43.5 35q-6 3 -10.5 4.5t-14.5 1.5h-319v-226zM211 514h301q9 0 14.5 1t10.5 3 q21 13 42.5 37.5t32.5 46.5q2 3 3 6t1 13v6q0 11 -1 14t-3 6q-11 22 -32.5 45.5t-42.5 34.5q-7 3 -11.5 4.5t-13.5 1.5h-301v-219z" />
<glyph unicode="&#x433;" horiz-adv-x="817" d="M51 0v883h643v-150h-483v-733h-160z" />
<glyph unicode="&#x434;" horiz-adv-x="1083" d="M-35 150h72q5 0 16.5 0.5t18.5 3.5q10 5 22.5 14.5t23.5 21t20.5 24t15.5 24.5q2 3 4 11t4 17l90 617h571v-733h133l-53 -367h-153l28 217h-653v-215h-160v365zM281 150h383v583h-269l-73 -473q-7 -34 -16.5 -60.5t-24.5 -49.5z" />
<glyph unicode="&#x435;" horiz-adv-x="989" d="M53 246v391q0 32 8 62t27 55q6 8 18 21t26 27.5t28.5 27.5t25.5 22q28 20 66.5 30.5t75.5 10.5h204q38 0 76 -10.5t66 -30.5q12 -9 26.5 -22t28.5 -27.5t25.5 -27.5t17.5 -21q19 -26 26 -56t7 -61v-264h-592v-123q0 -19 4 -23q6 -11 18.5 -26t28.5 -28.5t32.5 -23.5 t31.5 -10h213q9 0 14 2l10 4q11 6 23.5 15.5t24 21t21.5 23.5t15 22l13 23l149 -49q-10 -23 -25.5 -47.5t-33.5 -47.5t-37.5 -42.5t-38.5 -32.5q-28 -20 -65 -30.5t-74 -10.5h-209q-37 0 -75.5 10.5t-66.5 30.5q-11 8 -25.5 21t-28.5 27.5t-26 27.5t-18 22q-19 25 -27 55 t-8 62zM213 518h432v115v11t-2 11q-6 11 -16.5 23t-22.5 23t-25 20.5t-24 15.5l-10 4t-15 2h-202q-15 0 -31.5 -9.5t-32.5 -23.5t-28.5 -29t-18.5 -26q-4 -4 -4 -22v-115z" />
<glyph unicode="&#x436;" horiz-adv-x="1434" d="M-41 0l438 469l-399 414h213l332 -342h24v342h160v-342h25l331 342h213l-399 -414l438 -469h-215l-366 391h-27v-391h-160v391h-26l-367 -391h-215z" />
<glyph unicode="&#x437;" horiz-adv-x="977" d="M53 201l150 49q17 -31 42 -60t54 -45l10 -4t15 -2h211q9 0 14 2l10 4q11 6 23.5 16t24.5 21t22 22.5t16 22.5q4 4 4 23v8q0 9 -1 13t-3 8q-11 21 -32.5 46t-43.5 37q-5 2 -10 3.5t-14 1.5h-226v145h224q9 0 14 1t10 3q22 12 44.5 37t33.5 47q2 3 3 7t1 14v12q0 18 -4 22 q-6 11 -16 23t-22 23t-24.5 20.5t-23.5 15.5l-10 4t-14 2h-205q-18 0 -36.5 -11t-35 -27.5t-30 -36t-21.5 -35.5l-150 47q9 22 25 47t35 48.5t39.5 44t38.5 32.5q27 20 64.5 30.5t74.5 10.5h203q37 0 75 -10.5t66 -30.5q12 -9 26.5 -22t28.5 -27.5t25.5 -27.5t17.5 -21 q19 -26 26 -56t7 -61v-19q0 -32 -8 -61.5t-27 -54.5q-8 -11 -25.5 -28.5t-35.5 -33.5q20 -17 37 -34.5t26 -28.5q19 -25 27 -55t8 -62v-14q0 -31 -8 -61t-27 -56q-6 -9 -17.5 -22t-25.5 -27.5t-28.5 -27.5t-26.5 -21q-28 -20 -66 -30.5t-75 -10.5h-209q-37 0 -74.5 10.5 t-65.5 30.5q-11 8 -25 21t-27.5 27.5t-25.5 27.5t-18 22q-8 11 -18 28.5t-21 43.5z" />
<glyph unicode="&#x438;" horiz-adv-x="981" d="M51 0v883h160v-604l412 604h159v-883h-159v608l-412 -608h-160z" />
<glyph unicode="&#x439;" horiz-adv-x="981" d="M51 0v883h160v-604l412 604h159v-883h-159v608l-412 -608h-160zM219 1241h100q0 -43 28 -72.5t69 -29.5q21 0 39.5 8t32.5 21.5t22 32.5t8 40h98q0 -42 -15 -78t-42 -61.5t-63.5 -40t-79.5 -14.5q-42 0 -78.5 14.5t-62.5 40t-41 61.5t-15 78z" />
<glyph unicode="&#x43a;" horiz-adv-x="922" d="M55 0v883h160v-342h43l320 342h206l-387 -414l426 -469h-209l-354 391h-45v-391h-160z" />
<glyph unicode="&#x43b;" horiz-adv-x="1022" d="M-55 -14v147q52 0 81.5 1.5t34.5 4.5q11 6 23 17t23.5 23.5t21.5 25.5t16 24q5 5 5 23v631h673v-883h-159v733h-355v-487q0 -32 -8 -62.5t-27 -56.5q-6 -9 -17.5 -22.5t-25.5 -28t-28.5 -28t-26.5 -21.5q-15 -10 -35 -17.5t-42 -13t-43.5 -8t-39.5 -2.5h-71z" />
<glyph unicode="&#x43c;" horiz-adv-x="1135" d="M51 0v883h193l248 -496l249 496h195v-883h-160v629l-217 -418h-133l-215 414v-625h-160z" />
<glyph unicode="&#x43d;" horiz-adv-x="981" d="M51 0v883h160v-357h412v357h159v-883h-159v377h-412v-377h-160z" />
<glyph unicode="&#x43e;" horiz-adv-x="991" d="M53 0zM53 246v391q0 31 7 61t26 56q6 8 18 21t26 27.5t28.5 27.5t25.5 22q28 20 66 30.5t76 10.5h204q38 0 76 -10.5t66 -30.5q11 -9 25.5 -22t28.5 -27.5t26 -27.5t18 -21q19 -26 26 -56t7 -61v-391q0 -31 -7 -61t-26 -56q-6 -9 -18 -22t-26 -27.5t-28.5 -27.5 t-25.5 -21q-28 -20 -66 -30.5t-76 -10.5h-204q-38 0 -76 10.5t-66 30.5q-11 8 -25.5 21t-28.5 27.5t-26 27.5t-18 22q-19 26 -26 56t-7 61zM213 250q0 -9 1 -14.5t3 -8.5q5 -11 15.5 -23t23 -23t25.5 -20.5t24 -15.5q6 -3 10.5 -4.5t14.5 -1.5h198q10 0 14.5 1.5t10.5 4.5 q8 5 21 14.5t26 21t23.5 23t15.5 19.5q3 6 3.5 14t0.5 13v383q0 11 -1.5 17.5t-4.5 11.5q-14 20 -35.5 39.5t-44.5 33.5q-5 3 -12 5.5t-17 2.5h-198q-10 0 -16 -2t-9 -4q-11 -5 -24 -14.5t-25 -21t-22.5 -23.5t-16.5 -23q-2 -3 -3 -8t-1 -14v-383z" />
<glyph unicode="&#x43f;" horiz-adv-x="981" d="M51 0v883h731v-883h-159v733h-412v-733h-160z" />
<glyph unicode="&#x440;" horiz-adv-x="1010" d="M51 0zM51 883h160l8 -76q15 15 34 30t40.5 27.5t44 20.5t45.5 8h160q37 0 74 -11.5t65 -31.5q12 -9 26.5 -22t28.5 -27.5t25.5 -27.5t17.5 -21q19 -26 27 -56.5t8 -62.5v-383q0 -32 -8 -63t-27 -56q-6 -8 -17.5 -21.5t-25.5 -28.5t-28.5 -28.5t-26.5 -21.5 q-28 -20 -65 -30.5t-74 -10.5h-160q-21 0 -43 7t-42 18t-39 25t-34 28v-422h-159v1073zM225 256q8 -12 28.5 -31.5t45 -38.5t49.5 -33t41 -14h152q9 0 14 1t10 3q11 6 24 17t25 23t22 24.5t15 23.5q2 4 3 9t1 14v375q0 18 -4 22q-6 11 -16 23.5t-22 24.5t-24.5 22t-23.5 16 l-10 4t-14 2h-152q-15 0 -40 -14t-49.5 -32.5t-45.5 -38t-29 -29.5v-373z" />
<glyph unicode="&#x441;" horiz-adv-x="977" d="M53 0zM53 246v391q0 31 7 61t26 56q6 8 18 21t26 27.5t28.5 27.5t25.5 22q28 20 66 30.5t76 10.5h202q38 0 75 -10.5t65 -30.5q18 -12 38 -32.5t39 -44t35 -48.5t25 -47l-150 -47q-8 16 -21.5 35.5t-29.5 36t-34.5 27.5t-37.5 11h-204q-10 0 -14.5 -1.5t-10.5 -4.5 q-11 -5 -24 -14.5t-25 -21t-22 -23.5t-15 -23q-3 -6 -3.5 -9.5t-0.5 -12.5v-383q0 -9 1 -14.5t3 -8.5q5 -11 15 -23t22 -23t25 -20.5t24 -15.5q6 -3 10.5 -4.5t14.5 -1.5h211q9 0 14 2l10 4q29 16 54 45t42 60l150 -49q-11 -26 -21 -43.5t-18 -28.5q-6 -9 -17.5 -22 t-25 -27.5t-27.5 -27.5t-26 -21q-28 -20 -65 -30.5t-74 -10.5h-209q-38 0 -76 10.5t-66 30.5q-11 8 -25.5 21t-28.5 27.5t-26 27.5t-18 22q-19 26 -26 56t-7 61z" />
<glyph unicode="&#x442;" horiz-adv-x="870" d="M2 733v150h725v-150h-285v-733h-159v733h-281z" />
<glyph unicode="&#x443;" horiz-adv-x="881" d="M-29 883h172l230 -686l231 686h166l-424 -1237h-160l119 354h-31z" />
</font>
</defs>
</svg>
