<?xml version="1.0" standalone="no"?>
<!DOCTYPE svg PUBLIC "-//W3C//DTD SVG 1.1//EN" "http://www.w3.org/Graphics/SVG/1.1/DTD/svg11.dtd" >
<svg xmlns="http://www.w3.org/2000/svg">
<metadata></metadata>
<defs>
<font id="blender_probook" horiz-adv-x="963" >
<font-face units-per-em="2048" ascent="1638" descent="-410" />
<missing-glyph horiz-adv-x="467" />
<glyph horiz-adv-x="1024" />
<glyph horiz-adv-x="1024" />
<glyph unicode=" "  horiz-adv-x="467" />
<glyph unicode="&#x09;" horiz-adv-x="467" />
<glyph unicode="&#xa0;" horiz-adv-x="467" />
<glyph unicode="!" horiz-adv-x="463" d="M90 0v160h160v-160h-160zM117 346v881h110v-881h-110z" />
<glyph unicode="&#x22;" horiz-adv-x="760" d="M150 987l14 139v201h106v-227l-12 -113h-108zM444 987l15 139v201h106v-227l-12 -113h-109z" />
<glyph unicode="#" horiz-adv-x="1073" d="M51 381l19 106h180l41 234h-180l18 106h180l37 211h109l-37 -211h196l37 211h109l-37 -211h180l-18 -106h-180l-41 -234h180l-19 -106h-180l-39 -219h-108l39 219h-197l-39 -219h-108l38 219h-180zM358 487h197l41 234h-197z" />
<glyph unicode="$" horiz-adv-x="1122" d="M59 231l117 33q6 -14 10 -19q2 -4 4 -5q11 -19 27 -39t33.5 -37.5t34.5 -31.5t30 -21q5 -4 13 -5.5t16 -1.5h105v469l-250 68q-30 9 -53.5 28t-40 45t-25 57t-8.5 63v127q0 26 5 52t19 48q9 13 27 34t39 42.5t41.5 40t34.5 26.5q21 14 50 23.5t54 9.5h107v174h104v-174 h98q25 0 54 -9.5t51 -23.5q16 -10 34 -26t35 -34t32 -36t26 -33t24.5 -36.5t22.5 -43.5l-119 -34q-3 7 -5.5 12t-4.5 8q-3 4 -4 6q-10 18 -26 38t-33.5 38t-35 32t-30.5 21q-5 3 -12 4.5t-15 1.5h-92v-456l264 -72q30 -9 54 -27.5t41.5 -44t26.5 -56.5t9 -63v-139 q0 -26 -5 -52t-19 -48q-9 -13 -27 -33.5t-39 -41.5t-41.5 -39.5t-34.5 -26.5q-21 -14 -50 -23.5t-54 -9.5h-125v-183h-104v183h-111q-25 0 -55 9.5t-52 23.5q-16 10 -34 26t-35 34t-32 36t-26 33t-23 36.5t-22 42.5zM190 842q0 -31 18 -57.5t46 -34.5l195 -56v428h-97 q-17 0 -26 -6q-12 -6 -30 -20.5t-36 -32.5t-34.5 -38t-26.5 -38l-6 -12t-3 -14v-119zM553 104h117q16 0 24 7q12 6 30 20.5t37 32.5t35.5 38t26.5 38q6 12 6 26v125q0 31 -18 59.5t-47 36.5l-211 58v-441z" />
<glyph unicode="%" horiz-adv-x="1460" d="M45 838v180q0 29 5.5 54t19.5 46q5 8 15.5 20t22.5 25t25 25t23 20q23 14 53 24.5t59 10.5h84q31 0 62 -10.5t53 -24.5q10 -8 23 -20t25 -25t22.5 -25t15.5 -20q14 -21 19.5 -46t5.5 -54v-180q0 -29 -5.5 -53t-19.5 -46q-5 -8 -15.5 -20t-22.5 -25t-25 -25t-23 -20 q-22 -15 -53 -26t-62 -11h-84q-29 0 -59 11t-53 26q-10 8 -23 20t-25 25t-22.5 25t-15.5 20q-14 22 -19.5 46t-5.5 53zM154 842q0 -10 0.5 -17.5t3.5 -13.5q6 -12 16 -24.5t21 -24t23 -21.5t22 -16q8 -5 16 -6.5t14 -1.5h82q6 0 14.5 1.5t16.5 6.5q10 6 22 16t24 22t22 24.5 t16 23.5v-2q2 6 2 14v19v172v18.5t-2 14.5v-3q-6 11 -16 24t-22 25t-24 23t-22 17q-8 5 -16.5 6.5t-14.5 1.5h-82q-6 0 -14 -1.5t-16 -6.5q-10 -6 -22 -16.5t-23 -22.5t-21 -25t-16 -25q-3 -6 -3.5 -13.5t-0.5 -16.5v-172zM279 0l647 1229h125l-645 -1229h-127zM758 215v180 q0 29 5 54t19 47q6 7 16.5 19t22.5 24.5t24.5 24.5t22.5 20q22 15 53 26t60 11h84q31 0 61.5 -11t53.5 -26q10 -8 22.5 -20t24.5 -24.5t22.5 -24.5t16.5 -19q14 -22 19 -47t5 -54v-180q0 -29 -5 -54t-19 -46q-6 -7 -16.5 -19t-22.5 -24.5t-24.5 -25t-22.5 -19.5 q-23 -16 -53.5 -26.5t-61.5 -10.5h-84q-29 0 -60 10.5t-53 26.5q-10 7 -22.5 19.5t-24.5 25t-22.5 24.5t-16.5 19q-14 21 -19 46t-5 54zM866 219q0 -9 0.5 -16.5t3.5 -14.5q6 -11 15.5 -24t20.5 -25t23 -21.5t23 -15.5q8 -5 16.5 -6.5t14.5 -1.5h82q6 0 14.5 1.5t16.5 6.5 q9 6 21 16t24 22t22.5 24.5t16.5 23.5v-2q2 7 2 14.5v18.5v172v19t-2 14v-2q-6 11 -16.5 24t-22.5 25t-24 22.5t-21 16.5q-8 5 -16.5 6.5t-14.5 1.5h-82q-6 0 -14.5 -1.5t-16.5 -6.5q-11 -6 -23 -16t-23 -22t-20.5 -25t-15.5 -25q-3 -6 -3.5 -14t-0.5 -17v-172z" />
<glyph unicode="&#x26;" horiz-adv-x="1137" d="M84 244v184q0 61 31 107q4 7 13 17.5t20.5 22.5t23.5 24t23 22q-11 10 -23 22t-23.5 24t-20.5 22.5t-13 17.5q-16 23 -23.5 51t-7.5 57v166q0 29 7.5 57.5t23.5 51.5q5 8 18 23t28 31t30.5 30t25.5 22q25 19 57 30t64 11h197q24 0 54 -9.5t52 -23.5q16 -10 34 -26 t35 -34.5t32 -37t26 -33.5t23.5 -36.5t21.5 -43.5l-117 -32q-9 21 -25.5 44.5t-36 45t-39.5 38.5t-36 25q-5 3 -14 4.5t-17 1.5h-188q-20 0 -33 -8q-12 -7 -26.5 -18.5t-28 -25t-25 -28.5t-18.5 -28q-3 -6 -4.5 -16t-1.5 -19v-158q0 -9 1.5 -18.5t4.5 -16.5q7 -13 18.5 -27 t25 -27.5t28 -25t26.5 -18.5q13 -8 33 -8h240v-113h-240q-20 0 -33 -8q-12 -7 -26.5 -18.5t-28 -25t-25 -28.5t-18.5 -28q-3 -6 -4.5 -15t-1.5 -18v-176q0 -9 1.5 -18t4.5 -15q7 -13 18.5 -27.5t25 -28t28 -24.5t26.5 -18q13 -8 33 -8h307q9 0 18 1.5t17 6.5q12 7 26.5 18 t28 24.5t25 28t18.5 27.5q3 6 4.5 15t1.5 18v303h201v-111h-82v-196q0 -59 -31 -105q-5 -8 -18 -23t-28 -31.5t-30.5 -31.5t-25.5 -22q-25 -19 -59 -29t-66 -10h-309q-32 0 -64 10t-57 29q-10 7 -25.5 22t-30.5 31.5t-28 31.5t-18 23q-31 46 -31 105z" />
<glyph unicode="'" horiz-adv-x="465" d="M150 987l14 139v201h106v-227l-12 -113h-108z" />
<glyph unicode="(" horiz-adv-x="639" d="M88 274v691q0 26 6.5 51t20.5 47q11 15 34 43t48 53l178 176l80 -84l-172 -170q-22 -20 -41 -41t-31 -43q-3 -6 -4.5 -17t-1.5 -19v-682q0 -8 1.5 -17.5t4.5 -15.5q12 -22 31 -45t41 -43l172 -168l-80 -84l-178 176q-25 25 -48 52t-34 42q-14 22 -20.5 47t-6.5 51z" />
<glyph unicode=")" horiz-adv-x="655" d="M102 -10l172 168q22 20 41 43t31 45q3 6 4.5 15.5t1.5 17.5v682q0 8 -1.5 19t-4.5 17q-12 22 -31 43t-41 41l-172 170l80 84l178 -176q25 -25 48 -53t34 -43q14 -22 20.5 -47t6.5 -51v-691q0 -26 -6.5 -51t-20.5 -47q-11 -15 -34 -42t-48 -52l-178 -176z" />
<glyph unicode="*" horiz-adv-x="926" d="M92 1032l33 105l244 -82l-2 258h110l-4 -258l246 82l33 -105l-246 -78l153 -206l-86 -64l-151 209l-150 -209l-88 64l154 206z" />
<glyph unicode="+" horiz-adv-x="1071" d="M115 457v106h307v307h106v-307h308v-106h-308v-307h-106v307h-307z" />
<glyph unicode="," horiz-adv-x="465" d="M39 -178l117 344l110 -25l-104 -319h-123z" />
<glyph unicode="-" horiz-adv-x="739" d="M82 455v106h469v-106h-469z" />
<glyph unicode="." horiz-adv-x="453" d="M82 0v160h160v-160h-160z" />
<glyph unicode="/" horiz-adv-x="864" d="M0 0l649 1229h129l-647 -1229h-131z" />
<glyph unicode="0" horiz-adv-x="1032" d="M82 244v739q0 61 31 107q5 8 18 23t28 31.5t30.5 31t25.5 22.5q25 19 57 29t64 10h256q32 0 65 -10t58 -29q10 -8 25 -22.5t30.5 -31t28.5 -31.5t18 -23q31 -46 31 -107v-739q0 -59 -31 -105q-5 -8 -18 -23t-28.5 -31.5t-30.5 -31.5t-25 -22q-25 -19 -58 -29t-65 -10 h-256q-32 0 -64 10t-57 29q-10 7 -25.5 22t-30.5 31.5t-28 31.5t-18 23q-31 46 -31 105zM201 248q0 -9 0.5 -18t3.5 -15q7 -13 18.5 -28t25 -28.5t28 -25t26.5 -18.5q15 -9 35 -9h252q18 0 35 9q12 7 26.5 18.5t28 25t25 28.5t18.5 28q3 6 4.5 15t1.5 18v731q0 9 -1.5 19 t-4.5 16q-7 13 -18.5 28t-25 28.5t-28 25t-26.5 18.5q-15 8 -35 8h-252q-9 0 -18 -1.5t-17 -6.5q-12 -7 -26.5 -18.5t-28 -25t-25 -28.5t-18.5 -28q-3 -6 -3.5 -16t-0.5 -19v-731z" />
<glyph unicode="1" horiz-adv-x="1032" d="M133 0v115h297v999h-278v115h397v-1114h276v-115h-692z" />
<glyph unicode="2" horiz-adv-x="1032" d="M80 995q9 22 21.5 43.5t23.5 36.5t26 33t32 36t35 34t34 26q22 14 52 23.5t54 9.5h232q32 0 65 -10t58 -29q10 -8 25 -22.5t30.5 -31t28.5 -31.5t18 -23q31 -46 31 -107v-143q0 -32 -10 -61t-27.5 -53.5t-41 -44t-50.5 -34.5l-428 -229q-28 -16 -47 -41t-19 -55v-207h606 v-115h-725v332q0 65 36 111.5t96 78.5l430 230q26 14 43.5 38.5t17.5 55.5v133q0 9 -1.5 19t-4.5 16q-7 13 -19 28t-25.5 28.5t-27.5 25t-26 18.5q-15 8 -35 8h-223q-8 0 -17 -1.5t-14 -4.5q-16 -8 -36 -25.5t-39.5 -39t-36 -45.5t-25.5 -45z" />
<glyph unicode="3" horiz-adv-x="1032" d="M80 231l119 33q10 -21 27 -44t36 -44.5t38.5 -39t35.5 -25.5q5 -4 13 -5.5t16 -1.5h231q9 0 18 2t17 7q12 7 26 18.5t27.5 25t24.5 28.5t18 28q6 12 6 33v182q0 9 -1.5 18t-4.5 15q-7 13 -18 27.5t-24.5 28t-27.5 24.5t-26 18q-6 3 -15 5.5t-18 2.5h-246v115h244 q9 0 19 1.5t16 4.5q12 7 26 18.5t27.5 25t24.5 27.5t18 27q3 7 4.5 16.5t1.5 18.5v158q0 9 -1.5 19t-4.5 16q-7 13 -18 28t-24.5 29.5t-27.5 26t-26 18.5q-8 5 -17 5.5t-18 0.5h-231q-8 0 -16 -1.5t-13 -4.5q-16 -8 -36 -25t-39.5 -38.5t-36 -45t-25.5 -44.5l-117 32 q9 22 21.5 43.5t23.5 36.5t26 33.5t32 37t35 34.5t34 26q22 14 51 22.5t53 8.5h240q32 0 64 -10t57 -29q10 -8 25 -22.5t30.5 -31t28.5 -31.5t18 -23q31 -46 31 -107v-166q0 -29 -7.5 -56t-23.5 -50q-5 -7 -13.5 -17.5t-20 -22.5t-23.5 -24t-23 -22q11 -10 23 -22t23.5 -24 t20 -22.5t13.5 -17.5q31 -46 31 -107v-188q0 -61 -31 -107q-5 -8 -18 -23t-28.5 -31.5t-30.5 -31.5t-25 -22q-25 -19 -57 -29t-64 -10h-240q-24 0 -53 9.5t-51 23.5q-16 10 -34 25.5t-35 33t-32 35.5t-26 33t-24.5 37.5t-22.5 43.5z" />
<glyph unicode="4" horiz-adv-x="1032" d="M72 289v114l520 826h174v-826h133v-114h-133v-289h-119v289h-575zM207 403h440v701z" />
<glyph unicode="5" horiz-adv-x="1032" d="M80 231l119 33q10 -21 27 -44t36 -44.5t38.5 -39t35.5 -25.5q5 -4 14 -5.5t17 -1.5h229q9 0 19 2t18 7q12 7 26 18.5t27.5 25t24.5 28.5t18 28q6 12 6 33v233q0 10 -1.5 19.5t-4.5 15.5q-7 13 -18 27.5t-24.5 28t-27.5 24.5t-26 18q-8 5 -18 7t-19 2h-455v608h650v-115 h-531v-379h338q32 0 65 -11t58 -30q10 -8 25.5 -22t30.5 -29.5t28 -30t18 -22.5q31 -46 31 -107v-239q0 -61 -31 -107q-5 -8 -18 -23t-28 -31.5t-30.5 -31.5t-25.5 -22q-25 -19 -58 -29t-65 -10h-238q-24 0 -54 9.5t-52 23.5q-16 10 -34 25.5t-35 33t-32 35.5t-26 33 t-24.5 37.5t-22.5 43.5z" />
<glyph unicode="6" horiz-adv-x="1032" d="M82 244v739q0 61 31 107q5 8 18 23t28 31.5t30.5 31t25.5 22.5q25 19 57 29t64 10h233q25 0 54 -8.5t51 -22.5q16 -10 34 -26t35 -34.5t32 -37t26 -33.5t24.5 -36.5t22.5 -43.5l-119 -32q-9 21 -25.5 44.5t-36 45t-39.5 38.5t-36 25q-5 3 -14 4.5t-17 1.5h-223 q-9 0 -18 -0.5t-17 -5.5q-12 -7 -26 -18.5t-27.5 -26t-24.5 -29.5t-18 -28q-3 -6 -4.5 -16t-1.5 -19v-320q18 20 36 38.5t35 29.5q22 14 52 21.5t55 7.5h213q32 0 64 -9.5t57 -27.5q10 -8 25 -22t30.5 -29.5t28.5 -30t18 -23.5q16 -23 23.5 -51t7.5 -57v-262q0 -61 -31 -107 q-5 -8 -18 -23t-28.5 -31.5t-30.5 -31.5t-25 -22q-25 -19 -57 -29t-64 -10h-256q-32 0 -64 10t-57 29q-10 7 -25.5 22t-30.5 31.5t-28 31.5t-18 23q-31 46 -31 107zM201 246q0 -21 6 -33q7 -13 18.5 -28t25 -28.5t28 -25t26.5 -18.5q13 -9 33 -9h252q9 0 18 2t17 7 q12 7 26 18.5t27 25t24.5 28.5t18.5 28q6 12 6 33v258q0 19 -6 33q-7 13 -18.5 27.5t-24.5 28t-27 25.5t-26 19q-15 8 -35 8h-205q-8 0 -16 -1.5t-13 -4.5q-13 -7 -33 -20t-41.5 -30t-40.5 -36t-30 -37q-2 -3 -5 -9t-5 -11v-250z" />
<glyph unicode="7" horiz-adv-x="1032" d="M72 1114v115h766v-103l-529 -1126h-131l527 1114h-633z" />
<glyph unicode="8" horiz-adv-x="1032" d="M82 244v186q0 61 31 107q4 7 13 17.5t20.5 22.5t23.5 24t23 22q-11 10 -23 22t-23.5 24.5t-20.5 23.5t-13 18q-16 23 -23.5 50t-7.5 56v166q0 29 7.5 57.5t23.5 51.5q5 8 18 23t28 31t30.5 30t25.5 22q25 19 57 29t64 10h256q32 0 64 -10t57 -29q10 -8 25 -22t30.5 -30 t28.5 -31t18 -23q16 -23 23.5 -51.5t7.5 -57.5v-166q0 -29 -7.5 -56t-23.5 -50q-5 -7 -13.5 -18t-20 -23.5t-23.5 -24.5t-23 -22q11 -10 23 -22t23.5 -24t20 -22.5t13.5 -17.5q31 -46 31 -107v-186q0 -61 -31 -107q-5 -8 -18 -23t-28.5 -31.5t-30.5 -31.5t-25 -22 q-25 -19 -57 -29t-64 -10h-256q-32 0 -64 10t-57 29q-10 7 -25.5 22t-30.5 31.5t-28 31.5t-18 23q-31 46 -31 107zM201 246q0 -21 6 -33q7 -13 18 -28t24.5 -28.5t27.5 -25t26 -18.5q8 -5 17 -7t18 -2h252q9 0 17 2t16 7q12 7 26 18.5t27.5 25t25.5 28.5t19 28q6 12 6 33 v180q0 9 -1.5 18t-4.5 15q-7 13 -19 27.5t-25.5 28t-27.5 24.5t-26 18q-15 8 -33 8h-252q-9 0 -18 -1.5t-17 -6.5q-12 -7 -26 -18t-27.5 -24.5t-24.5 -28t-18 -27.5q-3 -6 -4.5 -15t-1.5 -18v-180zM201 821q0 -9 1.5 -18.5t4.5 -16.5q7 -13 18 -27.5t24.5 -28t27.5 -25.5 t26 -19q8 -5 17 -5.5t18 -0.5h252q18 0 33 8q12 7 26 18.5t27.5 25t25.5 27.5t19 27q3 7 4.5 16.5t1.5 18.5v158q0 9 -1.5 19t-4.5 16q-7 13 -19 28t-25.5 28.5t-27.5 25t-26 18.5q-15 8 -33 8h-252q-9 0 -18 -1.5t-17 -6.5q-12 -7 -26 -18.5t-27.5 -25t-24.5 -28.5t-18 -28 q-3 -6 -4.5 -16t-1.5 -19v-158z" />
<glyph unicode="9" horiz-adv-x="1032" d="M80 231l119 33q9 -21 26 -44.5t36.5 -45t40 -38.5t36.5 -25q5 -4 14 -5.5t17 -1.5h221q9 0 19 1t18 6q12 7 26 18.5t27.5 26t24.5 29.5t18 28q3 6 4.5 16t1.5 19v327q-18 -20 -37.5 -38t-36.5 -29q-21 -14 -50 -21.5t-54 -7.5h-213q-32 0 -65 9.5t-58 27.5 q-10 8 -25.5 22t-30.5 29.5t-28 30t-18 23.5q-16 23 -23.5 51t-7.5 57v254q0 61 31 107q5 8 18 23t28 31.5t30.5 31t25.5 22.5q25 19 58 29t65 10h254q32 0 65 -10t58 -29q10 -8 25 -22.5t30.5 -31t28.5 -31.5t18 -23q31 -46 31 -107v-739q0 -61 -31 -107q-5 -8 -18 -23 t-28.5 -31.5t-30.5 -31.5t-25 -22q-25 -19 -58 -29t-65 -10h-232q-24 0 -53 8t-51 22q-16 10 -34 26.5t-35 35t-32 37t-26 33.5t-25.5 36.5t-23.5 42.5zM201 731q0 -20 6 -33q7 -13 18 -27.5t24.5 -28.5t27.5 -25.5t26 -18.5q8 -5 18 -6.5t19 -1.5h205q17 0 26 6 q13 7 33.5 20t42.5 30t41.5 36t30.5 37q2 3 5 9t5 11v242q0 9 -1.5 18t-4.5 15q-7 13 -18.5 28t-25 28.5t-28 25t-26.5 18.5q-15 8 -35 8h-250q-9 0 -19 -1.5t-18 -6.5q-12 -7 -26 -18.5t-27.5 -25t-24.5 -28.5t-18 -28q-3 -6 -4.5 -15t-1.5 -18v-250z" />
<glyph unicode=":" horiz-adv-x="453" d="M82 0v160h160v-160h-160zM82 586v159h160v-159h-160z" />
<glyph unicode=";" horiz-adv-x="465" d="M33 -178l117 344l110 -25l-104 -319h-123zM88 586v159h160v-159h-160z" />
<glyph unicode="&#x3c;" horiz-adv-x="928" d="M51 524v88l707 402v-129l-565 -318l563 -317v-129z" />
<glyph unicode="=" horiz-adv-x="975" d="M86 340v111h705v-111h-705zM86 569v111h705v-111h-705z" />
<glyph unicode="&#x3e;" horiz-adv-x="928" d="M51 121v129l565 317l-563 318v129l705 -404v-88z" />
<glyph unicode="?" horiz-adv-x="930" d="M45 995q28 59 71.5 113t100.5 96q20 16 51 24.5t56 8.5h251q32 0 65.5 -10t57.5 -29q10 -8 25.5 -22.5t30.5 -31t28 -31.5t19 -23q30 -47 30 -107v-139q0 -65 -37.5 -115t-91.5 -78l-135 -71q-26 -14 -45.5 -40t-19.5 -57v-135h-119v146q0 65 34.5 112t94.5 78l139 72 q26 14 44 38.5t18 55.5v129q0 9 -1.5 19t-4.5 16q-7 13 -19 28t-25.5 28.5t-28 25t-26.5 18.5q-13 8 -35 8h-243q-8 0 -17 -1.5t-14 -4.5q-16 -8 -36 -25.5t-39.5 -39t-36 -45.5t-25.5 -45zM365 0v156h155v-156h-155z" />
<glyph unicode="@" horiz-adv-x="1290" d="M94 -66v1027q0 26 4.5 52t18.5 48q8 13 26 34t39 42.5t41.5 40t34.5 26.5q22 14 51 23.5t53 9.5h449q25 0 55 -9.5t52 -23.5q45 -28 78.5 -67t58.5 -76q14 -22 20 -48t6 -52v-816l13 -145h-111l-12 106q-20 -23 -41 -41t-39 -32q-23 -17 -50 -30t-53 -13h-98 q-35 0 -67.5 10t-57.5 29q-10 8 -23 21t-26.5 27.5t-25 27.5t-17.5 22q-31 48 -31 109v395q0 32 8 58.5t23 49.5q6 9 17.5 22t25 27.5t26.5 27.5t23 22q25 18 57.5 28.5t67.5 10.5h98q26 0 53 -12t50 -29q18 -14 38 -31.5t42 -40.5h2v197q0 8 -1.5 16t-4.5 14 q-10 18 -27.5 38.5t-37 39.5t-38 34t-30.5 21q-11 6 -27 6h-434q-18 0 -27 -6q-12 -6 -31.5 -21.5t-39.5 -35.5t-38 -41t-28 -39q-6 -12 -6 -31v-1019q0 -15 6 -27q10 -18 28 -39t38 -41t39.5 -35.5t31.5 -21.5q9 -6 27 -6h65l17 -107h-93q-24 0 -53 9.5t-51 23.5 q-14 8 -34.5 26.5t-41 39.5t-38 41.5t-25.5 33.5q-14 22 -19.5 48t-5.5 52zM553 240q0 -23 6 -35q7 -13 18.5 -28t24.5 -28.5t27 -25.5t26 -19q15 -8 37 -8h90q17 0 29 6t34.5 19.5t46 31t44.5 37t31 37.5q0 1 1 3q2 4 3 8v391q-1 3 -3 7q-1 2 -1 3q-10 18 -31 38t-44.5 37 t-46 30.5t-34.5 19.5t-29 6h-90q-22 0 -37 -8q-12 -7 -26 -19t-27 -25.5t-24.5 -28t-18.5 -27.5q-6 -14 -6 -35v-387z" />
<glyph unicode="A" horiz-adv-x="1100" d="M-6 0l412 1229h184l411 -1229h-127l-92 285h-569l-94 -285h-125zM250 399h495l-235 713h-27z" />
<glyph unicode="B" horiz-adv-x="1108" d="M100 0v1229h553q32 0 65 -11.5t58 -29.5q10 -8 25.5 -22.5t30.5 -30.5t28 -30.5t19 -23.5q15 -23 21.5 -51t6.5 -57v-158q0 -29 -6.5 -57t-21.5 -51q-5 -7 -14 -17.5t-20.5 -22.5t-23.5 -24l-22 -22l22 -22t23.5 -24t20.5 -22.5t14 -17.5q15 -23 21.5 -51.5t6.5 -57.5 v-174q0 -29 -6.5 -55.5t-21.5 -49.5q-6 -8 -19 -23t-28 -31.5t-30.5 -31.5t-25.5 -22q-25 -19 -58 -29t-65 -10h-553zM219 115h432q22 0 35 8q12 7 26 18.5t27.5 25t24.5 28.5t18 28q3 6 4.5 15t1.5 18v168q0 9 -1.5 18t-4.5 15q-7 13 -18 28t-24.5 28.5t-27.5 25t-26 18.5 q-12 6 -33 6h-434v-448zM219 676h434q10 0 18.5 2.5t14.5 5.5q12 7 26 18.5t27.5 25.5t24.5 28.5t18 27.5q3 7 4.5 16.5t1.5 18.5v152q0 19 -6 33q-7 13 -18 27.5t-24.5 29t-27.5 26.5t-26 19q-13 8 -35 8h-432v-438z" />
<glyph unicode="C" horiz-adv-x="1069" d="M90 262v701q0 26 6.5 51t20.5 47q8 13 25.5 34t38 42.5t41 40t34.5 26.5q22 14 51 23.5t53 9.5h273q25 0 54 -9.5t50 -23.5q16 -10 34 -26t35 -34t32 -36t26 -33t24.5 -36.5t22.5 -43.5l-118 -34q-9 21 -26 45t-36.5 45.5t-39.5 39t-36 25.5q-5 3 -12.5 4.5t-15.5 1.5 h-256q-18 0 -27 -6q-12 -6 -30 -20.5t-36.5 -32.5t-35.5 -38t-27 -38q-6 -12 -6 -29v-692q0 -14 6 -26q10 -18 27 -38t35.5 -38t36.5 -32.5t30 -20.5q8 -7 27 -7h256q8 0 15.5 1.5t12.5 5.5q16 8 35.5 25.5t38.5 39t36 44.5t28 44l118 -33q-9 -21 -22.5 -42.5t-24.5 -36.5 t-26 -33t-32 -36t-35 -34t-34 -26q-21 -14 -50 -23.5t-54 -9.5h-271q-24 0 -54 9.5t-52 23.5q-14 8 -34.5 26.5t-41 39.5t-38 41.5t-25.5 33.5q-14 22 -20.5 47t-6.5 51z" />
<glyph unicode="D" horiz-adv-x="1114" d="M100 0v1229h541q25 0 54 -8.5t50 -22.5q14 -8 34.5 -27t41 -41t38 -43t26.5 -34q14 -22 19 -47.5t5 -51.5v-682q0 -26 -5 -51t-19 -47q-9 -13 -26.5 -33.5t-38 -41.5t-41 -39.5t-34.5 -26.5q-21 -14 -50 -23.5t-54 -9.5h-541zM219 115h412q17 0 26 6q12 6 30 20.5 t36 32.5t34.5 38t26.5 38q3 6 5 12t2 14v674q0 17 -7 31q-10 18 -26.5 37.5t-34.5 37.5t-36 32t-30 20q-9 6 -26 6h-412v-999z" />
<glyph unicode="E" horiz-adv-x="1020" d="M100 0v1229h705v-115h-586v-442h555v-115h-555v-442h586v-115h-705z" />
<glyph unicode="F" horiz-adv-x="985" d="M100 0v1229h705v-115h-586v-442h555v-115h-555v-557h-119z" />
<glyph unicode="G" horiz-adv-x="1182" d="M90 262v699q0 26 6.5 52t20.5 48q8 13 25.5 34t38 42.5t41 40t34.5 26.5q22 14 52 23.5t54 9.5h316q25 0 55 -9.5t51 -23.5q16 -10 34 -26t35 -34.5t32 -37t26 -33.5t24.5 -35.5t22.5 -42.5l-118 -34q-9 21 -26 45t-37 45.5t-40.5 39t-36.5 25.5q-5 3 -12.5 4.5 t-15.5 1.5h-301q-18 0 -27 -6q-12 -6 -30 -20.5t-36.5 -32.5t-35.5 -38t-27 -38q-6 -12 -6 -31v-690q0 -14 6 -26q10 -18 27 -38t35.5 -38t36.5 -32.5t30 -20.5q5 -4 13 -5.5t16 -1.5h295q8 0 14.5 1.5t11.5 5.5q12 6 30.5 20.5t37.5 33.5t36 39t27 38q6 12 6 26v297h-280 v113h399v-436q0 -23 3.5 -55.5t8.5 -67t10 -66.5t9 -53h-113l-14 100q-9 -11 -19 -22.5t-19.5 -22.5t-18.5 -19.5t-15 -12.5q-21 -14 -50 -23.5t-54 -9.5h-316q-24 0 -54 9.5t-52 23.5q-14 8 -34.5 26.5t-41 39.5t-38 41.5t-25.5 33.5q-14 22 -20.5 47t-6.5 51z" />
<glyph unicode="H" horiz-adv-x="1139" d="M100 0v1229h119v-557h580v557h119v-1229h-119v557h-580v-557h-119z" />
<glyph unicode="I" horiz-adv-x="442" d="M100 0v1229h119v-1229h-119z" />
<glyph unicode="J" horiz-adv-x="932" d="M20 233l115 33q11 -21 27.5 -44t35.5 -44.5t38.5 -39t35.5 -25.5q5 -3 14 -5t17 -2h143q14 0 25 7q12 6 30 20.5t36.5 32.5t35.5 38t27 38q3 6 5.5 12t2.5 14v961h119v-963q0 -26 -6.5 -52t-20.5 -48q-8 -13 -25.5 -33.5t-37.5 -41.5t-40 -39.5t-34 -26.5 q-21 -14 -51.5 -23.5t-54.5 -9.5h-160q-25 0 -55 9.5t-52 23.5q-16 10 -33.5 26t-34 34t-31.5 36t-25 33q-11 15 -23.5 36.5t-22.5 42.5z" />
<glyph unicode="K" horiz-adv-x="1028" d="M100 0v1229h119v-559h25l508 559h155l-563 -615l565 -614h-155l-510 557h-25v-557h-119z" />
<glyph unicode="L" horiz-adv-x="932" d="M100 0v1229h119v-1114h574v-115h-693z" />
<glyph unicode="M" horiz-adv-x="1331" d="M102 0v1229h170l334 -719l336 719h168v-1229h-115v1102l-350 -772h-80l-348 772v-1102h-115z" />
<glyph unicode="N" horiz-adv-x="1126" d="M102 0v1229h158l531 -1059v1059h114v-1229h-153l-535 1049v-1049h-115z" />
<glyph unicode="O" horiz-adv-x="1161" d="M90 264v697q0 26 5.5 52t19.5 48q8 13 26 34t39 42.5t41.5 40t34.5 26.5q22 14 51 23.5t53 9.5h324q25 0 55 -9.5t52 -23.5q13 -8 33.5 -26.5t41 -40t38 -42.5t26.5 -34q14 -22 20 -48t6 -52v-697q0 -26 -6 -52t-20 -48q-9 -13 -26.5 -33.5t-38 -41.5t-41 -39.5 t-33.5 -26.5q-22 -14 -52 -23.5t-55 -9.5h-324q-24 0 -53 9.5t-51 23.5q-14 8 -34.5 26.5t-41.5 39.5t-39 41.5t-26 33.5q-14 22 -19.5 48t-5.5 52zM209 266q0 -8 2.5 -14t5.5 -12q10 -18 26.5 -38t34.5 -38t36 -32.5t30 -20.5q8 -7 27 -7h305q8 0 14.5 1.5t11.5 5.5 q12 6 30 20.5t37 32.5t35.5 38t26.5 38q7 11 7 26v690q0 8 -1.5 16.5t-5.5 14.5q-10 18 -26.5 38t-35.5 38t-37 32.5t-30 20.5q-9 6 -26 6h-305q-18 0 -27 -6q-12 -6 -30 -20.5t-36 -32.5t-34.5 -38t-26.5 -38q-3 -6 -5.5 -14.5t-2.5 -16.5v-690z" />
<glyph unicode="P" horiz-adv-x="1069" d="M100 0v1229h553q32 0 64 -10.5t57 -28.5q10 -8 25.5 -22.5t31.5 -31t29 -31.5t19 -24q30 -45 30 -106v-180q0 -61 -30 -107q-6 -8 -19 -23t-29 -31t-31.5 -30.5t-25.5 -21.5q-25 -19 -57 -29t-64 -10h-434v-543h-119zM219 657h432q22 0 35 9q12 7 27 18t29 24.5t25.5 28 t18.5 27.5q4 6 4.5 15.5t0.5 19.5v172q0 9 -0.5 18.5t-4.5 16.5q-7 13 -18.5 28t-25.5 29t-29 26t-27 19q-8 5 -16.5 5.5t-18.5 0.5h-432v-457z" />
<glyph unicode="Q" horiz-adv-x="1157" d="M90 262v701q0 26 6.5 52t20.5 48q8 13 25.5 34t38 42.5t41 40t34.5 26.5q22 14 52 22.5t54 8.5h326q25 0 54 -8.5t51 -22.5q13 -8 33.5 -26.5t41 -40t38 -42.5t26.5 -34q14 -22 20 -48t6 -52v-701q0 -26 -6 -52.5t-20 -47.5q-9 -13 -26.5 -33.5t-38 -42t-41 -39.5 t-33.5 -27q-22 -14 -51 -23t-54 -9h-14l78 -185h-123l-74 185h-193q-24 0 -54 9t-52 23q-14 9 -34.5 27t-41 39.5t-38 42t-25.5 33.5q-14 21 -20.5 47.5t-6.5 52.5zM209 264q0 -8 2.5 -14t5.5 -12q10 -18 26.5 -38t34.5 -38.5t36 -32.5t30 -20q5 -4 13 -5.5t16 -1.5h133 l-23 60l107 37l39 -97h49q17 0 27 7q12 6 30 20t36.5 32.5t35.5 38.5t27 38q6 12 6 26v697q0 16 -6 28q-10 18 -27 38t-35.5 38t-36.5 32.5t-30 20.5q-5 3 -12 3.5t-15 0.5h-307q-8 0 -15 -0.5t-12 -3.5q-12 -6 -30 -20.5t-36.5 -32.5t-35.5 -38t-27 -38q-6 -12 -6 -28v-697 z" />
<glyph unicode="R" horiz-adv-x="1128" d="M100 0v1229h553q32 0 64 -10.5t57 -28.5q10 -8 25.5 -22.5t31.5 -31t29 -31.5t19 -24q30 -45 30 -106v-180q0 -61 -30 -107q-6 -8 -19 -23t-29 -31t-31.5 -30.5t-25.5 -21.5q-51 -39 -115 -39l306 -543h-136l-303 543h-307v-543h-119zM219 657h432q22 0 35 9q12 7 27 18 t29 24.5t25.5 28t18.5 27.5q4 6 4.5 15.5t0.5 19.5v172q0 9 -0.5 18.5t-4.5 16.5q-7 13 -18.5 28t-25.5 29t-29 26t-27 19q-8 5 -16.5 5.5t-18.5 0.5h-432v-457z" />
<glyph unicode="S" horiz-adv-x="1122" d="M59 231l117 33q6 -14 10 -19q2 -4 4 -5q11 -19 27 -39t33.5 -37.5t34.5 -31.5t30 -21q5 -4 13 -5.5t16 -1.5h326q16 0 24 7q12 6 30 19t37 30t35.5 36t26.5 37q6 13 6 27v131q0 31 -18 59.5t-47 36.5l-561 154q-30 9 -53.5 28t-40 45t-25 57t-8.5 63v127q0 26 5 52t19 48 q9 13 27 34t39 42.5t41.5 40t34.5 26.5q21 14 50 23.5t54 9.5h305q25 0 54 -9.5t51 -23.5q16 -10 34 -26t35 -34t32 -36t26 -33t24.5 -36.5t22.5 -43.5l-119 -34q-3 7 -5.5 12t-4.5 8q-3 4 -4 6q-10 18 -26 38t-33.5 38t-35 32t-30.5 21q-5 3 -12 4.5t-15 1.5h-289 q-17 0 -26 -6q-12 -6 -30 -18.5t-36 -29t-34.5 -35t-26.5 -36.5q-3 -6 -5.5 -12t-2.5 -14v-129q0 -31 17.5 -57.5t45.5 -34.5l559 -156q30 -9 54 -27.5t41.5 -44t26.5 -56.5t9 -63v-139q0 -26 -5 -52t-19 -48q-9 -13 -27 -33.5t-39 -41.5t-41.5 -39.5t-34.5 -26.5 q-21 -14 -50 -23.5t-54 -9.5h-340q-25 0 -55 9.5t-52 23.5q-16 10 -34 26t-35 34t-32 36t-26 33t-23 36.5t-22 42.5z" />
<glyph unicode="T" d="M16 1114v115h820v-115h-351v-1114h-118v1114h-351z" />
<glyph unicode="U" horiz-adv-x="1120" d="M100 262v967h119v-963q0 -8 2.5 -14t5.5 -12q10 -18 27 -38t35.5 -38t36.5 -32.5t30 -20.5q5 -4 12 -5.5t15 -1.5h254q17 0 27 7q12 6 29 20.5t35 32.5t34 38t26 38q4 6 6.5 12t2.5 14v963h118v-967q0 -26 -5 -51t-19 -47q-9 -13 -26.5 -33.5t-38 -41.5t-41 -39.5 t-33.5 -26.5q-22 -14 -51 -23.5t-54 -9.5h-274q-25 0 -55 9.5t-52 23.5q-14 8 -34 26.5t-40.5 39.5t-38 41.5t-26.5 33.5q-27 43 -27 98z" />
<glyph unicode="V" horiz-adv-x="1067" d="M-10 1229h125l344 -1102h28l342 1102h125l-389 -1229h-184z" />
<glyph unicode="W" horiz-adv-x="1499" d="M10 1229h123l229 -1100h13l241 1100h154l252 -1100h12l219 1100h127l-266 -1229h-170l-250 1071l-241 -1071h-170z" />
<glyph unicode="X" horiz-adv-x="1018" d="M-6 0l391 629l-371 600h131l306 -494q74 121 151.5 247t153.5 247h131l-369 -600l389 -629h-133l-323 522l-324 -522h-133z" />
<glyph unicode="Y" horiz-adv-x="930" d="M-20 1229h131l309 -584l313 584h129l-383 -705v-524h-119v524z" />
<glyph unicode="Z" horiz-adv-x="983" d="M78 0v102l602 1012h-602v115h745v-107l-598 -1007h598v-115h-745z" />
<glyph unicode="[" horiz-adv-x="590" d="M88 0v1229h318v-107h-199v-1016h199v-106h-318z" />
<glyph unicode="\" horiz-adv-x="864" d="M45 1237h129l647 -1237h-131z" />
<glyph unicode="]" horiz-adv-x="641" d="M102 0v106h199v1016h-199v107h318v-1229h-318z" />
<glyph unicode="^" horiz-adv-x="621" d="M16 633l195 596h115l192 -596h-110l-142 477l-141 -477h-109z" />
<glyph unicode="_" horiz-adv-x="926" d="M72 -35h741v-106h-741v106z" />
<glyph unicode="`" horiz-adv-x="760" d="M197 1307h143l174 -228l-108 -37z" />
<glyph unicode="a" d="M41 233v41q0 63 31 109q6 9 17 22t24 26.5t26 26.5t23 21q25 19 57.5 29t67.5 10h356v125q0 12 -1 20t-3 13q-7 13 -18.5 28t-25 28.5t-28 25t-26.5 18.5q-15 8 -37 8h-193q-20 0 -35 -8q-12 -7 -25.5 -18.5t-27 -26t-25 -29.5t-20.5 -28l-106 35q5 8 12 20.5t18 26.5 q7 10 18.5 23t24.5 27t26 26.5t24 21.5q24 19 55.5 28t66.5 9h189q35 0 68.5 -10t58.5 -29q12 -7 25.5 -19.5t26 -27t23.5 -28t17 -21.5q17 -23 23 -51.5t6 -59.5v-500l20 -145h-110l-19 102q-18 -20 -39.5 -38.5t-38.5 -30.5q-23 -17 -48.5 -30t-51.5 -13h-180 q-35 0 -67.5 10t-57.5 29q-10 8 -23 21t-26 26.5t-24 26.5t-17 22q-31 46 -31 108zM152 233q0 -20 6 -32q7 -13 18 -27t23.5 -27.5t26.5 -24.5t26 -18q13 -8 37 -8h172q16 0 28 6t34 19.5t45 31t44 37t31 37.5v187h-354q-24 0 -37 -8q-12 -7 -26 -18.5t-26.5 -25t-23.5 -28 t-18 -27.5q-6 -12 -6 -33v-41z" />
<glyph unicode="b" horiz-adv-x="989" d="M82 0l12 145v1084h111v-455q21 23 41 41.5t39 32.5q23 17 49.5 30t52.5 13h160q35 0 67.5 -10t57.5 -29q11 -7 24.5 -20t26.5 -27.5t24 -28.5t17 -22q15 -23 23 -50t8 -59v-409q0 -61 -31 -109q-6 -9 -17.5 -22t-25 -27.5t-26.5 -27.5t-23 -21q-25 -19 -57.5 -29 t-67.5 -10h-160q-26 0 -52.5 13t-49.5 30q-19 14 -39.5 33.5t-40.5 42.5l-12 -109h-111zM205 238q1 -4 3 -8q1 -2 1 -3q10 -18 31 -37.5t44.5 -37t46 -31t34.5 -19.5t28 -6h152q22 0 37 8q12 7 26 19t27 25.5t24.5 28.5t18.5 28q6 12 6 35v401q0 23 -6 35q-7 13 -18.5 28 t-24.5 28.5t-27 25t-26 18.5q-15 8 -37 8h-152q-16 0 -28 -6t-34.5 -19.5t-46 -30.5t-44.5 -37t-31 -38q0 -1 -1 -3q-2 -4 -3 -7v-405z" />
<glyph unicode="c" horiz-adv-x="934" d="M72 236v409q0 31 6.5 58.5t21.5 50.5q6 8 17.5 21.5t24.5 28t26.5 27.5t24.5 21q24 19 58 29t68 10h203q34 0 67 -10t58 -29q19 -14 36.5 -32.5t33 -38t28.5 -39t23 -35.5l-106 -35q-6 13 -18 28.5t-25.5 30t-28.5 26.5t-27 19q-13 8 -37 8h-204q-24 0 -37 -8 q-12 -7 -26 -18.5t-27.5 -25t-25 -28.5t-18.5 -28q-6 -12 -6 -35v-401q0 -23 6 -35q7 -13 18 -28t24 -28.5t27 -25.5t26 -19q13 -8 36 -8h213q24 0 37 8q12 7 27 19.5t28.5 26.5t24.5 28.5t17 26.5l2 4l106 -37q-9 -17 -22 -36.5t-29 -39t-34 -37t-36 -30.5 q-24 -19 -57.5 -29t-67.5 -10h-209q-34 0 -68 10t-58 29q-11 7 -24.5 20.5t-26.5 27.5t-24.5 27.5t-17.5 22.5q-15 23 -21.5 50.5t-6.5 58.5z" />
<glyph unicode="d" horiz-adv-x="979" d="M72 236v409q0 62 30 109q6 8 17.5 21t25 27.5t27 27.5t23.5 22q24 19 56.5 29t67.5 10h160q26 0 53 -13t50 -30q18 -14 38 -32.5t42 -41.5v455h110v-1084l12 -145h-110l-12 109q-20 -23 -41 -42.5t-39 -33.5q-23 -17 -50 -30t-53 -13h-160q-35 0 -67.5 10t-56.5 29 q-10 8 -23.5 21t-27 27.5t-25 27.5t-17.5 22q-30 46 -30 109zM182 240q0 -23 6 -35q7 -13 18.5 -28t25 -28.5t27.5 -25.5t26 -19q13 -8 37 -8h151q17 0 29 6t34.5 19.5t46 31t44 37t30.5 37.5q0 1 1 3l4 8v405l-5 10q-10 18 -30.5 38t-44 37t-46 30.5t-34.5 19.5t-29 6h-151 q-24 0 -37 -8q-12 -7 -26 -18.5t-27.5 -25t-25 -28.5t-18.5 -28q-6 -12 -6 -35v-401z" />
<glyph unicode="e" horiz-adv-x="965" d="M72 236v409q0 62 30 109q6 8 17.5 21.5t24.5 28t26.5 27.5t24.5 21q24 19 58 29t69 10h204q34 0 68.5 -10t58.5 -29q11 -8 24.5 -21t26.5 -27.5t24 -28t17 -21.5q16 -23 22.5 -50.5t6.5 -58.5v-252h-592v-153q0 -23 6 -35q7 -13 18.5 -28t25 -28.5t27.5 -25.5t26 -19 q13 -8 34 -8h216q23 0 36 8q12 7 26 19.5t27.5 26.5t24.5 28.5t17 26.5l2 4l108 -37q-6 -12 -12.5 -21.5t-15.5 -23.5q-6 -9 -17.5 -22.5t-24.5 -27.5t-26.5 -27.5t-24.5 -20.5q-24 -19 -57.5 -29t-67.5 -10h-208q-35 0 -69 10t-58 29q-11 7 -24.5 20.5t-26.5 27.5 t-24.5 27.5t-17.5 22.5q-30 46 -30 109zM182 498h482v143q0 11 -0.5 20t-4.5 15q-7 13 -18.5 28t-25 28.5t-28 25t-26.5 18.5q-13 8 -37 8h-202q-22 0 -35 -8q-12 -7 -26.5 -18.5t-28 -25t-25.5 -28.5t-19 -28q-6 -12 -6 -35v-143z" />
<glyph unicode="f" horiz-adv-x="668" d="M20 774v107h146v112q0 31 6.5 58.5t22.5 50.5q6 8 17 21.5t24 28t26.5 27.5t24.5 21q24 19 58.5 28t68.5 9h172v-107h-170q-11 0 -23 -0.5t-20 -5.5q-12 -7 -25.5 -18t-26 -24.5t-23 -28t-17.5 -27.5q-4 -6 -4.5 -16t-0.5 -21v-108h250v-107h-250v-774h-110v774h-146z " />
<glyph unicode="g" horiz-adv-x="1014" d="M82 236v409q0 31 6.5 58.5t22.5 50.5q6 8 17 21.5t24 28t26.5 27.5t24.5 21q25 19 60 29t67 10h172q26 0 53 -14t49 -29q19 -14 40.5 -34t41.5 -42l12 109h111l-14 -148v-842q0 -63 -29 -108q-6 -9 -17 -22.5t-24.5 -27.5t-27 -27.5t-23.5 -20.5q-25 -19 -60 -29t-67 -10 h-209q-32 0 -66 10t-59 29q-19 13 -36.5 31.5t-33 38t-28.5 39t-23 36.5l107 35l2 -4q5 -12 16 -26.5t24.5 -28.5t28.5 -26.5t27 -19.5q13 -8 35 -8h213q22 0 37 8q12 7 26.5 19t28 25.5t25 28.5t18.5 28q3 6 3.5 15t0.5 20v210q-20 -21 -40.5 -40t-39.5 -33 q-22 -16 -49 -29.5t-53 -13.5h-172q-32 0 -67 10t-60 29q-11 7 -24.5 20.5t-26.5 27.5t-24 27.5t-17 22.5q-16 23 -22.5 50.5t-6.5 58.5zM193 240q0 -23 6 -35q7 -13 18 -28t24.5 -28.5t27.5 -25.5t26 -19q13 -8 37 -8h164q8 0 16 1.5t14 4.5q13 7 34 21t43 31t43 36t34 37 l4 11v405l-4 10q-13 18 -34 37t-43 36.5t-43 31t-34 20.5q-6 3 -14 4.5t-16 1.5h-164q-24 0 -37 -8q-12 -7 -26 -18.5t-27.5 -25t-24.5 -28.5t-18 -28q-6 -12 -6 -35v-401z" />
<glyph unicode="h" horiz-adv-x="971" d="M82 0v1229h111v-455q20 22 40.5 41t38.5 33q22 15 49.5 29t53.5 14h147q32 0 66 -10t59 -29q11 -8 24.5 -21t26.5 -27.5t24 -28t17 -21.5q31 -46 31 -109v-645h-111v641q0 23 -6 35q-7 13 -18 28t-24.5 28.5t-27.5 25t-26 18.5q-13 8 -37 8h-139q-8 0 -16.5 -1.5 t-14.5 -4.5q-13 -7 -34.5 -20t-44.5 -30t-43.5 -36.5t-30.5 -38.5q-2 -2 -2 -4t-2 -4v-645h-111z" />
<glyph unicode="i" horiz-adv-x="430" d="M86 1081v158h156v-158h-156zM109 0v881h110v-881h-110z" />
<glyph unicode="j" horiz-adv-x="440" d="M-137 -246q54 1 85 1.5t47.5 2t23 3t10.5 3.5q24 14 48 42.5t38 54.5q6 12 6 35v985h110v-990q0 -62 -30 -108q-6 -9 -17 -22.5t-24 -27.5t-26 -27.5t-23 -20.5q-25 -19 -59 -28t-66 -9h-123v106zM96 1081v158h156v-158h-156z" />
<glyph unicode="k" horiz-adv-x="870" d="M84 0v1229h111v-717h41l350 369h147l-401 -418l436 -463h-150l-380 408h-43v-408h-111z" />
<glyph unicode="l" horiz-adv-x="412" d="M94 115v1114h111v-1090q0 -34 7.5 -69.5t10.5 -69.5h-110q-3 26 -11 57.5t-8 57.5z" />
<glyph unicode="m" horiz-adv-x="1458" d="M82 881h111l12 -105q18 20 39.5 39.5t38.5 32.5q21 15 47.5 29t52.5 14h102q32 0 67.5 -10t59.5 -29q11 -8 24.5 -21t26.5 -27.5t24.5 -28t17.5 -21.5l2 -4q23 26 50 53.5t50 44.5q22 15 49 29t53 14h97q32 0 67 -10t60 -29q10 -8 23.5 -21t26.5 -27.5t24.5 -28 t17.5 -21.5q15 -23 21.5 -50.5t6.5 -58.5v-645h-110v641q0 23 -6 35q-7 13 -18.5 28t-25 29.5t-27.5 26t-26 18.5q-8 5 -16.5 5.5t-19.5 0.5h-89q-8 0 -16 -1.5t-14 -4.5q-12 -7 -33 -19.5t-43.5 -29t-43 -35t-32.5 -37.5v-12v-645h-108v641q0 11 -1.5 20t-5.5 15 q-7 13 -18.5 28t-25 29.5t-28 26t-26.5 18.5q-8 5 -17 5.5t-20 0.5h-96q-16 0 -29 -6q-13 -7 -34 -20t-43.5 -29.5t-43 -35.5t-32.5 -38v-655h-111v735z" />
<glyph unicode="n" horiz-adv-x="985" d="M82 881h111l12 -103q18 20 38.5 38.5t37.5 31.5q21 15 48.5 29t53.5 14h154q34 0 68 -10t59 -29q10 -8 23.5 -21t26.5 -27.5t24.5 -28t17.5 -21.5q15 -23 21.5 -50.5t6.5 -58.5v-645h-110v641q0 11 -0.5 20t-3.5 15q-7 13 -19 28t-25.5 28.5t-28 25t-26.5 18.5 q-13 8 -36 8h-146q-16 0 -29 -6q-13 -7 -34 -20t-43.5 -29.5t-43 -35.5t-32.5 -38v-655h-111v735z" />
<glyph unicode="o" horiz-adv-x="967" d="M72 236v409q0 31 6.5 58.5t21.5 50.5q6 8 17.5 21.5t24.5 28t26.5 27.5t24.5 21q24 19 58 29t68 10h205q34 0 68 -10t59 -29q11 -8 24.5 -21t26.5 -27.5t24 -28t17 -21.5q16 -23 22.5 -50.5t6.5 -58.5v-409q0 -31 -6.5 -58.5t-22.5 -50.5q-6 -9 -17 -22.5t-24 -27.5 t-26.5 -27.5t-24.5 -20.5q-25 -19 -59 -29t-68 -10h-205q-34 0 -68 10t-58 29q-11 7 -24.5 20.5t-26.5 27.5t-24.5 27.5t-17.5 22.5q-15 23 -21.5 50.5t-6.5 58.5zM182 240q0 -23 6 -35q7 -13 18.5 -28t25 -28.5t27.5 -25.5t26 -19q13 -8 37 -8h200q24 0 37 8q12 7 26.5 19 t28 25.5t25 28.5t18.5 28q4 6 4.5 15t0.5 20v401q0 11 -0.5 20t-4.5 15q-7 13 -18.5 28t-25 28.5t-28 25t-26.5 18.5q-13 8 -37 8h-200q-24 0 -37 -8q-12 -7 -26 -18.5t-27.5 -25t-25 -28.5t-18.5 -28q-6 -12 -6 -35v-401z" />
<glyph unicode="p" horiz-adv-x="989" d="M82 881h111l12 -109q20 22 40.5 42t39.5 34q21 15 48.5 29t53.5 14h160q34 0 67 -10t58 -29q10 -8 23.5 -21t27 -27.5t24.5 -28t17 -21.5q31 -48 31 -109v-409q0 -61 -31 -109q-6 -9 -17 -22.5t-24.5 -27.5t-27 -27.5t-23.5 -20.5q-25 -19 -58 -29t-67 -10h-160 q-26 0 -53.5 13.5t-48.5 29.5q-19 14 -39.5 33t-40.5 40v-450h-111v1079zM205 238q0 -4 1 -6t3 -5q11 -19 31.5 -38.5t44 -36t45.5 -30t35 -20.5q12 -6 28 -6h152q22 0 37 8q12 7 26 19t27 25.5t24.5 28.5t18.5 28q6 12 6 35v401q0 23 -6 35q-7 13 -18.5 28t-24.5 28.5 t-27 25t-26 18.5q-15 8 -37 8h-152q-16 0 -28 -6q-13 -7 -35 -20.5t-45.5 -30.5t-44 -36.5t-31.5 -37.5q-4 -8 -4 -12v-403z" />
<glyph unicode="q" horiz-adv-x="979" d="M82 240v405q0 63 31 109q6 8 17 21.5t24 28t26.5 27.5t24.5 21q25 19 58 29t67 10h159q26 0 53.5 -14t49.5 -29q18 -14 39 -34t41 -42l12 109h111l-13 -146v-1079h-110v455q-20 -22 -41 -41t-39 -33q-22 -16 -49.5 -29.5t-53.5 -13.5h-159q-34 0 -67 10t-58 29 q-11 7 -24.5 20.5t-26.5 28t-24 28t-17 21.5q-31 46 -31 109zM193 244q0 -23 6 -35q7 -13 18 -28t24.5 -28.5t27.5 -25t26 -18.5q13 -9 37 -9h151q17 0 29 6q13 7 35 20.5t45 30t44 36t32 38.5q4 10 4 11v399q0 4 -4 12q-11 18 -32 37.5t-44 36.5t-45 30.5t-35 20.5 q-12 6 -29 6h-151q-24 0 -37 -8q-12 -7 -26 -18.5t-27.5 -25t-24.5 -28.5t-18 -28q-6 -12 -6 -35v-397z" />
<glyph unicode="r" horiz-adv-x="852" d="M80 881h113l12 -105l39.5 39.5t38.5 32.5q21 15 48.5 29t53.5 14h102q34 0 67.5 -10t57.5 -29q11 -8 24 -21t26 -27.5t23.5 -28t16.5 -21.5q10 -13 18 -25t13 -20l-106 -35q-8 12 -20 26.5t-25.5 29t-27.5 27t-26 19.5q-13 8 -36 8h-101q-8 0 -16 -1.5t-15 -4.5 q-13 -7 -35 -20t-45 -30t-44 -36.5t-31 -38.5v-653h-111v735z" />
<glyph unicode="s" horiz-adv-x="956" d="M43 172l107 37q6 -13 17 -28.5t24.5 -30t28 -27t26.5 -19.5q13 -8 37 -8h247q22 0 35 8q25 14 50.5 40.5t39.5 52.5q7 14 7 34v74q0 31 -23 52t-55 24l-338 25q-38 3 -70.5 18.5t-56.5 40t-37.5 57t-13.5 70.5v61q0 62 30 109q6 8 16 20.5t21.5 25t23.5 24.5t23 20 q25 19 59 29t66 10h213q32 0 66 -10t59 -29q11 -8 24.5 -21t26.5 -27.5t24 -28t17 -21.5q10 -13 18 -25t11 -20l-107 -37q-6 13 -17.5 28.5t-25 30t-28.5 26.5t-27 19q-13 8 -35 8h-217q-22 0 -37 -8q-24 -14 -49 -39t-39 -51q-6 -12 -6 -35v-61q0 -31 23 -52t55 -24 l338 -27q37 -3 69.5 -18.5t56.5 -40t38 -57.5t14 -70v-74q0 -62 -31 -108q-6 -9 -16 -21t-21.5 -25t-23.5 -25t-23 -19q-24 -19 -58.5 -29t-66.5 -10h-245q-32 0 -66 10t-59 29q-11 7 -24 20t-26 27t-23.5 27t-16.5 22l-17 25.5t-12 21.5z" />
<glyph unicode="t" horiz-adv-x="690" d="M20 774v107h146v348h110v-348h271v-107h-271v-524q0 -11 2 -22t5 -17q7 -13 17.5 -27t23 -27t26 -24t25.5 -18q8 -5 19 -7t22 -2h129v-106h-131q-34 0 -67 10t-58 29q-11 7 -24.5 20.5t-26.5 28t-24 28t-17 21.5q-31 46 -31 109v528h-146z" />
<glyph unicode="u" horiz-adv-x="971" d="M74 236v645h110v-641q0 -11 0.5 -20t3.5 -15q7 -13 19 -28t25.5 -28.5t28 -25.5t26.5 -19q13 -8 37 -8h145q15 0 29 6q13 7 34 20.5t44 30t43.5 35.5t31.5 37v656h111v-736l14 -145h-110l-13 102q-18 -20 -38 -38.5t-37 -30.5q-22 -16 -49.5 -29.5t-53.5 -13.5h-153 q-35 0 -69 10t-58 29q-11 7 -24.5 20.5t-26.5 27.5t-24.5 27.5t-17.5 22.5q-15 23 -21.5 50.5t-6.5 58.5z" />
<glyph unicode="v" horiz-adv-x="868" d="M10 881h119l240 -768h12l244 768h116l-288 -881h-154z" />
<glyph unicode="w" horiz-adv-x="1364" d="M10 881h119l209 -762h12l201 762h158l209 -762h12l200 762h117l-248 -881h-153l-217 752l-209 -752h-154z" />
<glyph unicode="x" horiz-adv-x="881" d="M20 0l293 453l-282 428h135l213 -342l207 342h135l-277 -428l293 -453h-131l-227 358l-227 -358h-132z" />
<glyph unicode="y" horiz-adv-x="866" d="M10 881h119l242 -768h12l242 768h118l-399 -1225h-117l117 344h-47z" />
<glyph unicode="z" horiz-adv-x="864" d="M61 774v107h617v-101l-461 -674h483v-106h-622v98l463 676h-480z" />
<glyph unicode="{" horiz-adv-x="653" d="M88 266v695q0 26 5.5 52t19.5 48q8 13 25.5 34t37.5 42.5t40 40t34 26.5q22 14 52 23.5t54 9.5h113v-115h-102q-18 0 -27 -6q-12 -6 -30 -20.5t-36 -32.5t-34.5 -38t-26.5 -38q-6 -12 -6 -31v-688q0 -14 6 -26q10 -18 26.5 -38t34.5 -38t36 -32.5t30 -20.5q10 -7 27 -7 h102v-114h-113q-24 0 -53 9.5t-51 23.5q-14 8 -34.5 26.5t-41.5 39.5t-39 41.5t-26 33.5q-14 22 -18.5 48t-4.5 52z" />
<glyph unicode="|" horiz-adv-x="358" d="M84 -193v1594h111v-1594h-111z" />
<glyph unicode="}" horiz-adv-x="672" d="M102 -8v114h103q15 0 26 7q12 6 30 20.5t36 32.5t34.5 38t26.5 38l6 12t3 14v688q0 8 -3 16.5t-6 14.5q-10 18 -26.5 38t-34.5 38t-36 32.5t-30 20.5q-9 6 -26 6h-103v115h113q25 0 55 -9.5t52 -23.5q13 -8 33 -26.5t40.5 -40t37.5 -42.5t26 -34q14 -22 20 -48t6 -52 v-695q0 -26 -5 -52t-19 -48q-9 -13 -27 -33.5t-39 -41.5t-41.5 -39.5t-34.5 -26.5q-21 -14 -50 -23.5t-54 -9.5h-113z" />
<glyph unicode="~" horiz-adv-x="975" d="M82 459q11 36 33.5 63.5t52.5 45t65.5 22.5t71.5 -4l273 -56q32 -5 59.5 9t36.5 43l104 -27q-11 -36 -33.5 -63.5t-52.5 -44t-65.5 -21.5t-71.5 4l-272 55q-32 5 -59.5 -8.5t-37.5 -42.5z" />
<glyph unicode="&#xa1;" horiz-adv-x="471" d="M90 1067v160h160v-160h-160zM113 0v881h110v-881h-110z" />
<glyph unicode="&#xa2;" horiz-adv-x="924" d="M82 236v409q0 31 6.5 58.5t22.5 50.5q6 8 17 21.5t24 28t26.5 27.5t24.5 21q25 19 59 29t68 10h49v213h110v-213h64q34 0 67 -10t58 -29q11 -8 24 -21.5t26 -28t23.5 -28.5l16.5 -22q8 -13 17 -25t12 -20l-105 -35l-2 4q-5 12 -16 26.5t-24.5 28.5t-28.5 26t-27 19 q-8 5 -17 6.5t-20 1.5h-68v-688h74q24 0 37 8q12 7 26.5 19.5t27.5 26.5t24 28.5t16 26.5l2 4l105 -37q-3 -8 -11 -20.5t-16 -24.5q-6 -9 -16.5 -22.5t-23.5 -27.5t-26 -27.5t-24 -20.5q-25 -19 -58 -29t-67 -10h-70v-187h-110v187h-49q-34 0 -68 10t-59 29 q-11 7 -24.5 20.5t-26.5 27.5t-24 27.5t-17 22.5q-16 23 -22.5 50.5t-6.5 58.5zM193 240q0 -23 6 -35q7 -13 18 -28t24.5 -28.5t27.5 -25.5t26 -19q13 -8 37 -8h47v688h-47q-24 0 -37 -8q-12 -7 -26 -18.5t-27.5 -25t-24.5 -28.5t-18 -28q-6 -12 -6 -35v-401z" />
<glyph unicode="&#xa3;" horiz-adv-x="1194" d="M86 332v106h84v119h-84v107h84v297q0 26 5.5 51t19.5 47q8 13 25.5 34t38 42.5t41 40t34.5 26.5q21 14 50.5 23.5t53.5 9.5h258v-115h-247q-18 0 -27 -6q-12 -6 -30 -20.5t-37 -32.5t-35.5 -38t-26.5 -38q-2 -3 -2.5 -14t-1 -24t-0.5 -24.5v-15.5v-243h487v-107h-487 v-119h487v-106h-487v-217h436q8 0 16 1.5t13 4.5q16 8 36.5 25.5t40 39t36.5 45.5t26 45l115 -34q-10 -22 -22 -44.5t-23 -37.5t-26 -33t-32 -35.5t-35 -33t-34 -25.5q-22 -14 -51 -23.5t-54 -9.5h-561v332h-84z" />
<glyph unicode="&#xa4;" horiz-adv-x="1145" d="M178 367l80 82q-23 23 -35 38q-18 25 -28.5 58t-10.5 67v52q0 34 10.5 67t28.5 57q6 10 16.5 20t22.5 21l-82 82l78 78l88 -88q22 11 46 17t50 6h172q26 0 50.5 -5t46.5 -18l90 90l78 -80l-84 -82q12 -11 21 -22t15 -19q19 -24 29 -57t10 -67v-52q0 -34 -10 -67t-29 -58 q-6 -8 -14.5 -16.5l-19.5 -19.5l84 -84l-78 -78l-90 88q-43 -25 -99 -25h-172q-55 0 -98 25l-88 -88zM293 614q0 -23 8 -36q7 -12 19 -28.5t27 -32.5t30.5 -29.5t28.5 -20.5q12 -6 34 -6h176q23 0 35 6q13 7 28 20.5t29.5 29.5t26.5 32.5t19 28.5q8 13 8 36v48q0 23 -8 36 q-7 12 -19 28.5t-26.5 32.5t-29.5 29.5t-28 20.5q-12 6 -35 6h-176q-22 0 -34 -6q-13 -7 -28.5 -20.5t-30.5 -29.5t-27 -32.5t-19 -28.5q-8 -13 -8 -36v-48z" />
<glyph unicode="&#xa5;" horiz-adv-x="995" d="M37 1229h131l297 -563h22l304 563h129l-308 -563h205v-107h-262l-18 -35v-84h280v-106h-280v-334h-119v334h-291v106h291v84l-19 35h-272v107h215z" />
<glyph unicode="&#xa6;" horiz-adv-x="309" d="M41 -193v701h111v-701h-111zM41 698v703h111v-703h-111z" />
<glyph unicode="&#xa7;" horiz-adv-x="1024" d="M84 172l106 37q6 -13 18 -28.5t25.5 -30t28.5 -27t27 -19.5q13 -8 35 -8h278q11 0 20 1.5t17 6.5q25 14 49.5 39.5t38.5 51.5q6 12 6 34v29q0 31 -23 52.5t-55 23.5l-307 10q-34 0 -68 10t-59 29q-11 7 -24 20.5t-26.5 28t-24.5 28t-17 21.5q-29 45 -29 109v53q0 31 9 55 t24 47q6 10 22.5 28.5t34.5 35.5q-46 28 -70 67t-24 95v28q0 63 31 109q6 8 16 20.5t21.5 25.5t23.5 24.5t23 19.5q25 19 59 29t66 10h262q32 0 66 -10t59 -29q11 -8 24.5 -21t26.5 -27.5t24 -28t17 -21.5q9 -13 17.5 -25t11.5 -20l-107 -37q-6 13 -17.5 28.5t-25 30 t-28.5 26.5t-27 19q-13 8 -35 8h-266q-11 0 -20 -1.5t-17 -6.5q-25 -14 -49.5 -39t-38.5 -51q-6 -12 -6 -35v-28q0 -31 23 -52.5t55 -23.5l323 -12q34 0 68 -10.5t59 -28.5q11 -8 24.5 -21t26.5 -27.5t24 -28t17 -22.5q16 -23 22.5 -50t6.5 -58v-53q0 -31 -6.5 -58.5 t-22.5 -50.5q-8 -11 -25.5 -29.5t-37.5 -35.5q37 -25 58.5 -64.5t21.5 -87.5v-29q0 -62 -31 -108q-6 -9 -16 -21t-21.5 -25t-23.5 -25t-23 -19q-25 -19 -59 -29t-66 -10h-274q-32 0 -66 10t-59 29q-11 7 -24.5 20.5t-26.5 27.5t-24 27.5t-17 22.5q-10 12 -18 24.5t-11 20.5z M211 594q0 -23 6 -35q7 -13 18.5 -28t24.5 -28.5t27 -25t26 -18.5q15 -8 37 -8l256 -9q24 0 37 9q12 7 26.5 18.5t28 25t25 28.5t18.5 28q3 6 3.5 15t0.5 20v45q0 11 -0.5 19.5t-3.5 15.5q-7 13 -18.5 27.5t-25 28.5t-28 25.5t-26.5 18.5q-13 8 -37 8l-256 8q-22 0 -37 -8 q-12 -7 -26 -18.5t-27 -25t-24.5 -28.5t-18.5 -28q-6 -12 -6 -35v-45z" />
<glyph unicode="&#xa8;" horiz-adv-x="743" d="M199 1081v158h155v-158h-155zM498 1081v158h155v-158h-155z" />
<glyph unicode="&#xa9;" horiz-adv-x="1393" d="M82 266v695q0 26 5 51t19 47q9 13 26.5 34.5t38 43t41 40.5t34.5 27q21 14 50 23.5t54 9.5h586q25 0 55 -9.5t51 -23.5q14 -8 34.5 -27t41 -40.5t38 -43t26.5 -34.5q14 -22 20 -47t6 -51v-695q0 -26 -6 -51t-20 -47q-9 -13 -26.5 -33.5t-38 -41.5t-41 -39.5t-34.5 -26.5 q-21 -14 -51 -23.5t-55 -9.5h-586q-25 0 -54 9.5t-50 23.5q-14 8 -34.5 26.5t-41 39.5t-38 41.5t-26.5 33.5q-14 22 -19 47t-5 51zM197 270q0 -14 6 -26q10 -18 27 -38.5t36 -39.5t37.5 -34t30.5 -21q5 -4 11.5 -5.5t14.5 -1.5h566q8 0 14.5 1.5t11.5 5.5q12 6 31 21t39 34 t37.5 39.5t27.5 38.5q7 11 7 26v686q0 17 -9 31q-10 18 -27 38.5t-36.5 39.5t-38.5 34t-31 21q-9 6 -26 6h-566q-17 0 -26 -6q-12 -6 -30.5 -21t-37.5 -34t-36 -39.5t-27 -38.5q-6 -12 -6 -31v-686zM360 508v227q0 59 31 107q6 8 17 21.5t24 27.5t26 26.5t23 20.5 q25 19 58 28t65 9h129q25 0 52 -13t49 -28q24 -19 50.5 -48t49.5 -57l-103 -32q-8 9 -18 19t-20.5 19.5t-20 17t-16.5 11.5q-5 3 -12 3.5t-15 0.5h-123q-9 0 -18 -0.5t-17 -5.5q-12 -7 -26 -18t-27 -24.5t-24.5 -28t-18.5 -27.5q-3 -6 -4.5 -15t-1.5 -18v-219q0 -9 1.5 -19 t4.5 -16q7 -13 18.5 -27.5t24.5 -28t27 -24.5t26 -18q8 -5 17 -5.5t18 -0.5h123q8 0 15 0.5t12 3.5q14 8 36 29t39 43l105 -33q-23 -28 -50.5 -58t-51.5 -49q-22 -15 -49 -29t-52 -14h-129q-32 0 -65 10.5t-58 28.5q-10 8 -23 21t-26 27t-24 27t-17 21q-31 48 -31 107z" />
<glyph unicode="&#xaa;" horiz-adv-x="762" d="M88 838v180q0 29 5.5 54t19.5 46q5 8 15.5 20t22.5 25t25 25t23 20q23 14 53.5 24.5t58.5 10.5h84q15 0 31 -5t31 -13t29 -17t26 -16v-2v45h109v-481q0 -34 5 -67t11 -64h-109q-3 14 -7.5 29t-6.5 30q-11 -12 -27.5 -24t-34.5 -22.5t-37 -17t-34 -6.5h-70q-28 0 -58.5 11 t-53.5 26q-10 8 -23 20t-25 25t-22.5 25t-15.5 20q-14 22 -19.5 46t-5.5 53zM197 842q0 -10 0.5 -17.5t3.5 -13.5q6 -12 16 -24.5t21.5 -24t23.5 -21.5t23 -16q6 -5 14 -6.5t14 -1.5h68q6 0 14.5 1.5t16.5 6.5q10 6 25 16t29.5 21.5t27 24t18.5 24.5v244q-11 21 -37.5 43 t-48.5 35q-8 5 -16.5 6.5t-14.5 1.5h-82q-6 0 -14 -1.5t-14 -6.5q-11 -6 -23 -16.5t-23.5 -22.5t-21.5 -25t-16 -25q-3 -6 -3.5 -13.5t-0.5 -16.5v-172z" />
<glyph unicode="&#xab;" horiz-adv-x="1114" d="M102 506l295 319l121 -37l-268 -280l268 -283l-121 -35zM453 506l295 319l120 -37l-268 -280l268 -283l-120 -35z" />
<glyph unicode="&#xac;" horiz-adv-x="1120" d="M72 455v106l854 2v-348h-109v240h-745z" />
<glyph unicode="&#xad;" horiz-adv-x="739" d="M82 455v106h469v-106h-469z" />
<glyph unicode="&#xae;" horiz-adv-x="1393" d="M82 266v695q0 26 5 51t19 47q9 13 26.5 34.5t38 43t41 40.5t34.5 27q21 14 50 23.5t54 9.5h586q25 0 55 -9.5t51 -23.5q14 -8 34.5 -27t41 -40.5t38 -43t26.5 -34.5q14 -22 20 -47t6 -51v-695q0 -26 -6 -51t-20 -47q-9 -13 -26.5 -33.5t-38 -41.5t-41 -39.5t-34.5 -26.5 q-21 -14 -51 -23.5t-55 -9.5h-586q-25 0 -54 9.5t-50 23.5q-14 8 -34.5 26.5t-41 39.5t-38 41.5t-26.5 33.5q-14 22 -19 47t-5 51zM197 270q0 -14 6 -26q10 -18 27 -38.5t36 -39.5t37.5 -34t30.5 -21q5 -4 11.5 -5.5t14.5 -1.5h566q8 0 14.5 1.5t11.5 5.5q12 6 31 21t39 34 t37.5 39.5t27.5 38.5q7 11 7 26v686q0 17 -9 31q-10 18 -27 38.5t-36.5 39.5t-38.5 34t-31 21q-9 6 -26 6h-566q-17 0 -26 -6q-12 -6 -30.5 -21t-37.5 -34t-36 -39.5t-27 -38.5q-6 -12 -6 -31v-686zM381 250v741h291q32 0 65 -10t58 -29q10 -8 25 -22t30.5 -29.5t28.5 -30 t18 -22.5q16 -23 22.5 -48.5t6.5 -54.5v-22q0 -29 -6.5 -57.5t-22.5 -51.5q-5 -8 -18 -21t-28.5 -26.5t-30.5 -26t-25 -20.5l-15 -10l152 -260h-129l-127 231h-182v-231h-113zM494 590h178q9 0 19 1.5t18 6.5q12 7 27 17t29.5 22t26.5 25t19 26q3 6 4.5 16t1.5 19v22 q0 21 -6 33q-7 13 -19 27t-26.5 27t-29.5 24t-27 18q-8 5 -18 7t-19 2h-178v-293z" />
<glyph unicode="&#xaf;" horiz-adv-x="786" d="M94 1137v102h520v-102h-520z" />
<glyph unicode="&#xb0;" horiz-adv-x="766" d="M137 1198q0 41 15 76.5t41 62t61 41.5t76 15q40 0 76 -15t62.5 -41.5t42 -62t15.5 -76.5t-15.5 -76t-42 -61.5t-62.5 -41.5t-76 -15q-41 0 -76 15t-61 41.5t-41 61.5t-15 76zM215 1198q0 -24 9 -45t24.5 -37t36.5 -25.5t45 -9.5t45.5 9.5t38 25.5t26 37t9.5 45t-9.5 45.5 t-26 37t-38 25t-45.5 9.5t-45 -9.5t-36.5 -25t-24.5 -37t-9 -45.5z" />
<glyph unicode="&#xb1;" horiz-adv-x="1071" d="M115 457v106h307v307h106v-307h308v-106h-308v-307h-106v307h-307zM123 -35h704v-104h-704v104z" />
<glyph unicode="&#xb2;" horiz-adv-x="621" d="M45 1126q32 25 57 45.5t54 38.5q20 13 46.5 21t49.5 8h92q29 0 54 -9.5t48 -25.5q22 -14 45.5 -34.5t34.5 -34.5q16 -20 20.5 -35t6.5 -41v-31q0 -30 -9 -51t-25 -35.5t-38 -24.5t-47 -18l-235 -78q-25 -12 -35 -25.5t-10 -41.5v-25h397v-96h-496v129q0 59 31 96.5 t88 54.5l225 70q12 6 22.5 11t18.5 11t12.5 14.5t4.5 22.5v13q0 9 -0.5 10.5t-3.5 7.5q-13 23 -36 37t-44 27q-6 3 -15 4.5t-18 1.5h-92q-6 0 -14 -0.5t-13 -3.5q-23 -13 -53 -35.5t-57 -42.5z" />
<glyph unicode="&#xb3;" horiz-adv-x="621" d="M47 745l68 66q28 -20 56.5 -42.5t51.5 -35.5q5 -3 13 -3.5t14 -0.5h92q9 0 18 1.5t15 4.5q21 13 44 26t36 36q3 6 5.5 7.5t0.5 10.5l-2 21q-3 27 -18 36t-38 21h-163v86h163q12 6 21.5 11t16.5 11t11.5 14.5t6.5 22.5l2 17q2 9 -0.5 11.5t-5.5 8.5q-13 23 -36 37t-44 27 q-6 3 -15 4.5t-18 1.5h-92q-6 0 -14 -1.5t-13 -4.5q-23 -13 -51.5 -35.5t-56.5 -42.5l-68 67q32 25 58 43.5t55 36.5q20 13 45.5 21t48.5 8h92q29 0 54.5 -8.5t48.5 -24.5q20 -14 45 -33.5t36 -33.5q16 -20 21.5 -36t5.5 -42v-33q0 -62 -35 -92q35 -35 35 -86v-31 q0 -26 -5.5 -43t-21.5 -37q-5 -7 -15 -16t-21 -18.5t-22.5 -18.5t-20.5 -16q-22 -17 -49 -25t-56 -8h-92q-23 0 -48.5 7t-45.5 20q-29 18 -55 38.5t-58 44.5z" />
<glyph unicode="&#xb4;" horiz-adv-x="760" d="M287 1079l174 228h143l-209 -265z" />
<glyph unicode="&#xb5;" horiz-adv-x="991" d="M94 -344v1225h111v-641q0 -3 1 -5.5t3 -5.5q11 -19 31.5 -38.5t44 -36t45.5 -30t35 -20.5q6 -3 13 -5.5t15 -2.5h96q17 0 29 6q13 7 34 20.5t43.5 30t43.5 35.5t33 37v656h110v-736l17 -145h-109l-14 100q-19 -20 -39 -37.5t-39 -29.5q-22 -16 -48.5 -29.5t-53.5 -13.5 h-109q-26 0 -53.5 9.5t-48.5 25.5q-19 14 -39.5 33t-40.5 40v-442h-111z" />
<glyph unicode="&#xb6;" horiz-adv-x="1059" d="M88 805v170q0 29 7.5 56t23.5 50q5 9 18.5 24t29 31.5t31 31t25.5 22.5q25 18 58 28.5t65 10.5h572v-1229h-119v553h-125v-553h-109v553h-219q-32 0 -65 10t-58 29q-10 7 -25.5 21.5t-31 30.5t-29 31t-18.5 23q-31 46 -31 107zM209 809q0 -9 1.5 -19t4.5 -16 q7 -13 18 -27.5t24.5 -28t27.5 -24.5t26 -18q8 -5 18 -6.5t19 -1.5h217v446h-217q-9 0 -19 -0.5t-18 -5.5q-12 -7 -26 -19t-27.5 -26t-24.5 -29t-18 -28q-3 -7 -4.5 -16.5t-1.5 -18.5v-162zM674 668h125v446h-125v-446z" />
<glyph unicode="&#xb7;" horiz-adv-x="596" d="M147 434v160h160v-160h-160z" />
<glyph unicode="&#xb8;" horiz-adv-x="831" d="M219 -344l170 266l98 -39l-147 -227h-121z" />
<glyph unicode="&#xb9;" horiz-adv-x="621" d="M135 633v84h121v430h-121v84h205v-514h117v-84h-322z" />
<glyph unicode="&#xba;" horiz-adv-x="801" d="M86 838v180q0 29 5.5 54t19.5 46q5 8 15.5 20t22.5 25t25 25t23 20q23 14 53.5 24.5t58.5 10.5h84q31 0 62 -10.5t53 -24.5q10 -8 23 -20t25 -25t22.5 -25t15.5 -20q14 -21 19 -46t5 -54v-180q0 -29 -5 -53t-19 -46q-5 -8 -15.5 -20t-22.5 -25t-25 -25t-23 -20 q-22 -15 -53 -26t-62 -11h-84q-28 0 -58.5 11t-53.5 26q-10 8 -23 20t-25 25t-22.5 25t-15.5 20q-14 22 -19.5 46t-5.5 53zM195 842q0 -10 0.5 -17.5t3.5 -13.5q6 -12 16 -24.5t21.5 -24t23.5 -21.5t23 -16q6 -5 14 -6.5t14 -1.5h82q6 0 14.5 1.5t16.5 6.5q10 6 22.5 16 t24.5 22t22 24.5t15 23.5v-2q2 6 2 14v19v172v18.5t-2 14.5v-3q-5 11 -15 24t-22 25t-24.5 23t-22.5 17q-8 5 -16.5 6.5t-14.5 1.5h-82q-6 0 -14 -1.5t-14 -6.5q-11 -6 -23 -16.5t-23.5 -22.5t-21.5 -25t-16 -25q-3 -6 -3.5 -13.5t-0.5 -16.5v-172z" />
<glyph unicode="&#xbb;" horiz-adv-x="1114" d="M102 225l269 283l-269 280l121 37l295 -319l-295 -316zM453 225l268 283l-268 280l120 37l295 -319l-295 -316z" />
<glyph unicode="&#xbc;" horiz-adv-x="1350" d="M135 633v84h121v428h-121v84h205v-512h117v-84h-322zM266 0l643 1229h125l-643 -1229h-125zM664 147v86l303 373h84v-373h100v-86h-100v-147h-84v147h-303zM772 233h195v240z" />
<glyph unicode="&#xbd;" horiz-adv-x="1348" d="M135 633v84h121v428h-121v84h205v-512h117v-84h-322zM266 0l643 1231h125l-643 -1231h-125zM754 494q32 24 56.5 44.5t53.5 39.5q20 12 47 20t50 8h92q29 0 54 -9.5t48 -25.5q22 -14 45.5 -34.5t34.5 -34.5q15 -20 20 -35t7 -41v-31q0 -30 -9 -51t-25 -35.5t-38 -24.5 t-47 -18l-236 -78q-25 -12 -35 -25.5t-10 -41.5v-25h398v-96h-496v129q0 59 31 97t88 55l225 69l22 11t18 11.5t12.5 15t4.5 22.5v12q0 9 -0.5 10.5t-3.5 7.5q-12 23 -35 37t-45 27q-12 6 -32 6h-93q-6 0 -13.5 -0.5t-12.5 -3.5q-23 -13 -53 -35.5t-58 -42.5z" />
<glyph unicode="&#xbe;" horiz-adv-x="1350" d="M47 745l68 66q28 -20 56.5 -42.5t51.5 -35.5q5 -3 13 -3.5t14 -0.5h92q9 0 18 1.5t15 4.5q21 13 44 26t36 36q3 6 5.5 7.5t0.5 10.5l-2 21q-3 27 -18 36t-38 21h-163v86h163q12 6 21.5 11t16.5 11t11.5 14.5t6.5 22.5l2 17q2 9 -0.5 11.5t-5.5 8.5q-13 23 -36 37t-44 27 q-6 3 -15 4.5t-18 1.5h-92q-6 0 -14 -1.5t-13 -4.5q-23 -13 -51.5 -35.5t-56.5 -42.5l-68 67q32 25 58 43.5t55 36.5q20 13 45.5 21t48.5 8h92q29 0 54.5 -8.5t48.5 -24.5q20 -14 45 -33.5t36 -33.5q16 -20 21.5 -36t5.5 -42v-33q0 -62 -35 -92q35 -35 35 -86v-31 q0 -26 -5.5 -43t-21.5 -37q-5 -7 -15 -16t-21 -18.5t-22.5 -18.5t-20.5 -16q-22 -17 -49 -25t-56 -8h-92q-23 0 -48.5 7t-45.5 20q-29 18 -55 38.5t-58 44.5zM266 0l643 1231h125l-643 -1231h-125zM664 147v86l303 373h84v-373h100v-86h-100v-147h-84v147h-303zM772 233h195 v240z" />
<glyph unicode="&#xbf;" horiz-adv-x="932" d="M88 248v141q0 65 36.5 115t90.5 78l137 71q28 14 47 40t19 57v131h119v-142q0 -65 -35.5 -111.5t-95.5 -78.5l-138 -74q-26 -14 -43.5 -37.5t-17.5 -54.5v-131q0 -9 1.5 -19t4.5 -16q7 -13 18 -28t24.5 -28.5t27.5 -25t26 -18.5q8 -5 18 -6.5t19 -1.5h244q8 0 15.5 1.5 t12.5 4.5q16 8 36.5 25t40 38.5t36.5 45t27 44.5l114 -32q-9 -22 -21.5 -43.5t-23.5 -36.5t-26 -33t-32 -36t-35 -34t-34 -26q-21 -14 -51 -23.5t-55 -9.5h-250q-32 0 -66 10t-59 29q-10 7 -25 22t-30.5 31.5t-28.5 31.5t-18 23q-16 23 -22.5 50.5t-6.5 56.5zM397 1071v158 h158v-158h-158z" />
<glyph unicode="&#xc0;" horiz-adv-x="1100" d="M-6 0l412 1229h184l411 -1229h-127l-92 285h-569l-94 -285h-125zM250 399h495l-235 713h-27zM317 1599h144l174 -227l-109 -37z" />
<glyph unicode="&#xc1;" horiz-adv-x="1100" d="M-6 0l412 1229h184l411 -1229h-127l-92 285h-569l-94 -285h-125zM250 399h495l-235 713h-27zM342 1366l174 227h143l-208 -264z" />
<glyph unicode="&#xc2;" horiz-adv-x="1100" d="M-6 0l412 1229h184l411 -1229h-127l-92 285h-569l-94 -285h-125zM250 399h495l-235 713h-27zM250 1352l190 237h117l191 -237h-140l-110 139l-109 -139h-139z" />
<glyph unicode="&#xc3;" horiz-adv-x="1100" d="M-6 0l412 1229h184l411 -1229h-127l-92 285h-569l-94 -285h-125zM209 1391q10 36 33 63.5t53 44.5t65.5 21.5t71.5 -4.5l149 -37q32 -5 59.5 8.5t37.5 42.5l104 -24q-11 -36 -33.5 -64t-52.5 -44.5t-65.5 -21t-71.5 4.5l-150 37q-32 5 -59.5 -9t-36.5 -43zM250 399h495 l-235 713h-27z" />
<glyph unicode="&#xc4;" horiz-adv-x="1100" d="M-6 0l412 1229h184l411 -1229h-127l-92 285h-569l-94 -285h-125zM250 399h495l-235 713h-27zM274 1354v157h156v-157h-156zM573 1354v157h156v-157h-156z" />
<glyph unicode="&#xc5;" horiz-adv-x="1100" d="M-6 0l412 1229h184l411 -1229h-127l-92 285h-569l-94 -285h-125zM250 399h495l-235 713h-27zM303 1534q0 40 15 76t41 62t61 41.5t76 15.5q40 0 76 -15.5t62.5 -41.5t42 -62t15.5 -76q0 -41 -15.5 -76.5t-42 -62t-62.5 -41.5t-76 -15q-41 0 -76 15t-61 41.5t-41 62 t-15 76.5zM381 1534q0 -24 9 -45.5t24.5 -37t36.5 -25t45 -9.5t45 9.5t37.5 25t26 37t9.5 45.5t-9.5 45t-26 37t-37.5 25.5t-45 9.5t-45 -9.5t-36.5 -25.5t-24.5 -37t-9 -45z" />
<glyph unicode="&#xc6;" horiz-adv-x="1522" d="M-6 0l412 1229h901v-115h-553v-442h524v-115h-524v-442h553v-115h-672v283h-420l-92 -283h-129zM250 397h385v715h-150z" />
<glyph unicode="&#xc7;" horiz-adv-x="1069" d="M90 0zM90 262v701q0 26 6.5 51t20.5 47q8 13 25.5 34t38 42.5t41 40t34.5 26.5q22 14 51 23.5t53 9.5h273q25 0 54 -9.5t50 -23.5q16 -10 34 -26t35 -34t32 -36t26 -33t24.5 -36.5t22.5 -43.5l-118 -34q-9 21 -26 45t-36.5 45.5t-39.5 39t-36 25.5q-5 3 -12.5 4.5 t-15.5 1.5h-256q-18 0 -27 -6q-12 -6 -30 -20.5t-36.5 -32.5t-35.5 -38t-27 -38q-6 -12 -6 -29v-692q0 -14 6 -26q10 -18 27 -38t35.5 -38t36.5 -32.5t30 -20.5q8 -7 27 -7h256q8 0 15.5 1.5t12.5 5.5q16 8 35.5 25.5t38.5 39t36 44.5t28 44l118 -33q-9 -21 -22.5 -42.5 t-24.5 -36.5t-26 -33t-32 -36t-35 -34t-34 -26q-21 -14 -50 -23.5t-54 -9.5h-271q-24 0 -54 9.5t-52 23.5q-14 8 -34.5 26.5t-41 39.5t-38 41.5t-25.5 33.5q-14 22 -20.5 47t-6.5 51zM325 -344l170 266l98 -39l-147 -227h-121z" />
<glyph unicode="&#xc8;" horiz-adv-x="1026" d="M100 0v1229h705v-115h-586v-442h555v-115h-555v-442h586v-115h-705zM256 1593h143l174 -227l-108 -37z" />
<glyph unicode="&#xc9;" horiz-adv-x="1026" d="M100 0v1229h705v-115h-586v-442h555v-115h-555v-442h586v-115h-705zM334 1366l174 227h143l-209 -264z" />
<glyph unicode="&#xca;" horiz-adv-x="1026" d="M100 0v1229h705v-115h-586v-442h555v-115h-555v-442h586v-115h-705zM215 1352l191 237h116l191 -237h-140l-110 139l-109 -139h-139z" />
<glyph unicode="&#xcb;" horiz-adv-x="1026" d="M100 0v1229h705v-115h-586v-442h555v-115h-555v-442h586v-115h-705zM252 1354v157h156v-157h-156zM551 1354v157h156v-157h-156z" />
<glyph unicode="&#xcc;" horiz-adv-x="471" d="M-63 1593h143l174 -227l-109 -37zM100 0v1229h119v-1229h-119z" />
<glyph unicode="&#xcd;" horiz-adv-x="471" d="M45 1366l174 227h143l-208 -264zM100 0v1229h119v-1229h-119z" />
<glyph unicode="&#xce;" horiz-adv-x="471" d="M-90 1352l190 237h117l191 -237h-140l-110 139l-109 -139h-139zM100 0v1229h119v-1229h-119z" />
<glyph unicode="&#xcf;" horiz-adv-x="471" d="M-68 1364v158h156v-158h-156zM100 0v1229h119v-1229h-119zM231 1364v158h156v-158h-156z" />
<glyph unicode="&#xd0;" horiz-adv-x="1176" d="M-16 557v115h178v557h540q25 0 54 -8.5t51 -22.5q14 -8 34.5 -27t41 -41t38 -43t25.5 -34q14 -22 19.5 -47.5t5.5 -51.5v-682q0 -26 -5.5 -51t-19.5 -47q-8 -13 -25.5 -33.5t-38 -41.5t-41 -39.5t-34.5 -26.5q-22 -14 -51 -23.5t-54 -9.5h-540v557h-178zM281 115h411 q8 0 15 1.5t12 4.5q12 6 30 20.5t36 32.5t34.5 38t26.5 38q6 12 6 26v674q0 19 -6 31q-10 18 -26.5 37.5t-34.5 37.5t-36 32t-30 20q-5 3 -12 4.5t-15 1.5h-411v-442h282v-115h-282v-442z" />
<glyph unicode="&#xd1;" horiz-adv-x="1128" d="M102 0v1229h158l531 -1059v1059h114v-1229h-153l-535 1049v-1049h-115zM219 1391q10 36 33 63.5t53 44.5t65.5 21.5t71.5 -4.5l149 -37q32 -5 59.5 8.5t37.5 42.5l104 -24q-11 -36 -33.5 -64t-52.5 -44.5t-65.5 -21t-71.5 4.5l-150 37q-32 5 -59.5 -9t-36.5 -43z" />
<glyph unicode="&#xd2;" horiz-adv-x="1155" d="M90 264v697q0 26 5.5 52t19.5 48q8 13 26 34t39 42.5t41.5 40t34.5 26.5q22 14 51 23.5t53 9.5h324q25 0 55 -9.5t52 -23.5q13 -8 33.5 -26.5t41 -40t38 -42.5t26.5 -34q14 -22 20 -48t6 -52v-697q0 -26 -6 -52t-20 -48q-9 -13 -26.5 -33.5t-38 -41.5t-41 -39.5 t-33.5 -26.5q-22 -14 -52 -23.5t-55 -9.5h-324q-24 0 -53 9.5t-51 23.5q-14 8 -34.5 26.5t-41.5 39.5t-39 41.5t-26 33.5q-14 22 -19.5 48t-5.5 52zM209 266q0 -8 2.5 -14t5.5 -12q10 -18 26.5 -38t34.5 -38t36 -32.5t30 -20.5q8 -7 27 -7h305q8 0 14.5 1.5t11.5 5.5 q12 6 30 20.5t37 32.5t35.5 38t26.5 38q7 11 7 26v690q0 8 -1.5 16.5t-5.5 14.5q-10 18 -26.5 38t-35.5 38t-37 32.5t-30 20.5q-9 6 -26 6h-305q-18 0 -27 -6q-12 -6 -30 -20.5t-36 -32.5t-34.5 -38t-26.5 -38q-3 -6 -5.5 -14.5t-2.5 -16.5v-690zM330 1593h143l174 -227 l-108 -37z" />
<glyph unicode="&#xd3;" horiz-adv-x="1155" d="M90 264v697q0 26 5.5 52t19.5 48q8 13 26 34t39 42.5t41.5 40t34.5 26.5q22 14 51 23.5t53 9.5h324q25 0 55 -9.5t52 -23.5q13 -8 33.5 -26.5t41 -40t38 -42.5t26.5 -34q14 -22 20 -48t6 -52v-697q0 -26 -6 -52t-20 -48q-9 -13 -26.5 -33.5t-38 -41.5t-41 -39.5 t-33.5 -26.5q-22 -14 -52 -23.5t-55 -9.5h-324q-24 0 -53 9.5t-51 23.5q-14 8 -34.5 26.5t-41.5 39.5t-39 41.5t-26 33.5q-14 22 -19.5 48t-5.5 52zM209 266q0 -8 2.5 -14t5.5 -12q10 -18 26.5 -38t34.5 -38t36 -32.5t30 -20.5q8 -7 27 -7h305q8 0 14.5 1.5t11.5 5.5 q12 6 30 20.5t37 32.5t35.5 38t26.5 38q7 11 7 26v690q0 8 -1.5 16.5t-5.5 14.5q-10 18 -26.5 38t-35.5 38t-37 32.5t-30 20.5q-9 6 -26 6h-305q-18 0 -27 -6q-12 -6 -30 -20.5t-36 -32.5t-34.5 -38t-26.5 -38q-3 -6 -5.5 -14.5t-2.5 -16.5v-690zM367 1366l174 227h143 l-209 -264z" />
<glyph unicode="&#xd4;" horiz-adv-x="1155" d="M90 264v697q0 26 5.5 52t19.5 48q8 13 26 34t39 42.5t41.5 40t34.5 26.5q22 14 51 23.5t53 9.5h324q25 0 55 -9.5t52 -23.5q13 -8 33.5 -26.5t41 -40t38 -42.5t26.5 -34q14 -22 20 -48t6 -52v-697q0 -26 -6 -52t-20 -48q-9 -13 -26.5 -33.5t-38 -41.5t-41 -39.5 t-33.5 -26.5q-22 -14 -52 -23.5t-55 -9.5h-324q-24 0 -53 9.5t-51 23.5q-14 8 -34.5 26.5t-41.5 39.5t-39 41.5t-26 33.5q-14 22 -19.5 48t-5.5 52zM209 266q0 -8 2.5 -14t5.5 -12q10 -18 26.5 -38t34.5 -38t36 -32.5t30 -20.5q8 -7 27 -7h305q8 0 14.5 1.5t11.5 5.5 q12 6 30 20.5t37 32.5t35.5 38t26.5 38q7 11 7 26v690q0 8 -1.5 16.5t-5.5 14.5q-10 18 -26.5 38t-35.5 38t-37 32.5t-30 20.5q-9 6 -26 6h-305q-18 0 -27 -6q-12 -6 -30 -20.5t-36 -32.5t-34.5 -38t-26.5 -38q-3 -6 -5.5 -14.5t-2.5 -16.5v-690zM285 1352l190 237h117 l190 -237h-139l-111 139l-108 -139h-139z" />
<glyph unicode="&#xd5;" horiz-adv-x="1155" d="M90 264v697q0 26 5.5 52t19.5 48q8 13 26 34t39 42.5t41.5 40t34.5 26.5q22 14 51 23.5t53 9.5h324q25 0 55 -9.5t52 -23.5q13 -8 33.5 -26.5t41 -40t38 -42.5t26.5 -34q14 -22 20 -48t6 -52v-697q0 -26 -6 -52t-20 -48q-9 -13 -26.5 -33.5t-38 -41.5t-41 -39.5 t-33.5 -26.5q-22 -14 -52 -23.5t-55 -9.5h-324q-24 0 -53 9.5t-51 23.5q-14 8 -34.5 26.5t-41.5 39.5t-39 41.5t-26 33.5q-14 22 -19.5 48t-5.5 52zM209 266q0 -8 2.5 -14t5.5 -12q10 -18 26.5 -38t34.5 -38t36 -32.5t30 -20.5q8 -7 27 -7h305q8 0 14.5 1.5t11.5 5.5 q12 6 30 20.5t37 32.5t35.5 38t26.5 38q7 11 7 26v690q0 8 -1.5 16.5t-5.5 14.5q-10 18 -26.5 38t-35.5 38t-37 32.5t-30 20.5q-9 6 -26 6h-305q-18 0 -27 -6q-12 -6 -30 -20.5t-36 -32.5t-34.5 -38t-26.5 -38q-3 -6 -5.5 -14.5t-2.5 -16.5v-690zM232 1391q10 36 33 63.5 t53 44.5t65.5 21.5t71.5 -4.5l149 -37q32 -5 59.5 8.5t37.5 42.5l104 -24q-11 -36 -33.5 -64t-52.5 -44.5t-65.5 -21t-71.5 4.5l-150 37q-32 5 -59.5 -9t-36.5 -43z" />
<glyph unicode="&#xd6;" horiz-adv-x="1155" d="M90 264v697q0 26 5.5 52t19.5 48q8 13 26 34t39 42.5t41.5 40t34.5 26.5q22 14 51 23.5t53 9.5h324q25 0 55 -9.5t52 -23.5q13 -8 33.5 -26.5t41 -40t38 -42.5t26.5 -34q14 -22 20 -48t6 -52v-697q0 -26 -6 -52t-20 -48q-9 -13 -26.5 -33.5t-38 -41.5t-41 -39.5 t-33.5 -26.5q-22 -14 -52 -23.5t-55 -9.5h-324q-24 0 -53 9.5t-51 23.5q-14 8 -34.5 26.5t-41.5 39.5t-39 41.5t-26 33.5q-14 22 -19.5 48t-5.5 52zM209 266q0 -8 2.5 -14t5.5 -12q10 -18 26.5 -38t34.5 -38t36 -32.5t30 -20.5q8 -7 27 -7h305q8 0 14.5 1.5t11.5 5.5 q12 6 30 20.5t37 32.5t35.5 38t26.5 38q7 11 7 26v690q0 8 -1.5 16.5t-5.5 14.5q-10 18 -26.5 38t-35.5 38t-37 32.5t-30 20.5q-9 6 -26 6h-305q-18 0 -27 -6q-12 -6 -30 -20.5t-36 -32.5t-34.5 -38t-26.5 -38q-3 -6 -5.5 -14.5t-2.5 -16.5v-690zM295 1354v157h156v-157 h-156zM594 1354v157h156v-157h-156z" />
<glyph unicode="&#xd7;" horiz-adv-x="881" d="M55 233l273 275l-271 270l78 78l271 -270l272 272l78 -80l-273 -270l275 -275l-78 -77l-274 274l-273 -274z" />
<glyph unicode="&#xd8;" horiz-adv-x="1161" d="M90 264v697q0 26 5.5 52t19.5 48q8 13 26 34t39 42.5t41.5 40t34.5 26.5q22 14 51 23.5t53 9.5h324q23 0 51 -8t49 -21l37 68h121l-76 -141q20 -22 37.5 -42t26.5 -32q14 -22 20 -48t6 -52v-697q0 -26 -6 -52t-20 -48q-9 -13 -26.5 -33.5t-38 -41.5t-41 -39.5 t-33.5 -26.5q-22 -14 -52 -23.5t-55 -9.5h-324q-20 0 -43 6.5t-43 15.5l-36 -69h-123l71 137q-23 23 -42.5 46.5t-28.5 37.5q-14 22 -19.5 48t-5.5 52zM209 266q0 -8 2.5 -14t5.5 -12q6 -11 14 -22t17 -23l479 905l-25 16q-9 6 -26 6h-305q-18 0 -27 -6q-12 -6 -30 -20.5 t-36 -32.5t-34.5 -38t-26.5 -38q-3 -6 -5.5 -14.5t-2.5 -16.5v-690zM330 119l14 -8q8 -7 27 -7h305q8 0 14.5 1.5t11.5 5.5q12 6 30 20.5t37 32.5t35.5 38t26.5 38q7 11 7 26v690q0 8 -1.5 16.5t-5.5 14.5q-5 8 -10.5 17t-13.5 18z" />
<glyph unicode="&#xd9;" horiz-adv-x="1096" d="M100 262v967h119v-963q0 -8 2.5 -14t5.5 -12q10 -18 27 -38t35.5 -38t36.5 -32.5t30 -20.5q5 -4 12 -5.5t15 -1.5h254q17 0 27 7q12 6 29 20.5t35 32.5t34 38t26 38q4 6 6.5 12t2.5 14v963h118v-967q0 -26 -5 -51t-19 -47q-9 -13 -26.5 -33.5t-38 -41.5t-41 -39.5 t-33.5 -26.5q-22 -14 -51 -23.5t-54 -9.5h-274q-25 0 -55 9.5t-52 23.5q-14 8 -34 26.5t-40.5 39.5t-38 41.5t-26.5 33.5q-27 43 -27 98zM305 1593h144l174 -227l-109 -37z" />
<glyph unicode="&#xda;" horiz-adv-x="1096" d="M100 262v967h119v-963q0 -8 2.5 -14t5.5 -12q10 -18 27 -38t35.5 -38t36.5 -32.5t30 -20.5q5 -4 12 -5.5t15 -1.5h254q17 0 27 7q12 6 29 20.5t35 32.5t34 38t26 38q4 6 6.5 12t2.5 14v963h118v-967q0 -26 -5 -51t-19 -47q-9 -13 -26.5 -33.5t-38 -41.5t-41 -39.5 t-33.5 -26.5q-22 -14 -51 -23.5t-54 -9.5h-274q-25 0 -55 9.5t-52 23.5q-14 8 -34 26.5t-40.5 39.5t-38 41.5t-26.5 33.5q-27 43 -27 98zM352 1366l174 227h144l-209 -264z" />
<glyph unicode="&#xdb;" horiz-adv-x="1096" d="M100 262v967h119v-963q0 -8 2.5 -14t5.5 -12q10 -18 27 -38t35.5 -38t36.5 -32.5t30 -20.5q5 -4 12 -5.5t15 -1.5h254q17 0 27 7q12 6 29 20.5t35 32.5t34 38t26 38q4 6 6.5 12t2.5 14v963h118v-967q0 -26 -5 -51t-19 -47q-9 -13 -26.5 -33.5t-38 -41.5t-41 -39.5 t-33.5 -26.5q-22 -14 -51 -23.5t-54 -9.5h-274q-25 0 -55 9.5t-52 23.5q-14 8 -34 26.5t-40.5 39.5t-38 41.5t-26.5 33.5q-27 43 -27 98zM250 1352l190 237h117l191 -237h-140l-110 139l-109 -139h-139z" />
<glyph unicode="&#xdc;" horiz-adv-x="1096" d="M100 262v967h119v-963q0 -8 2.5 -14t5.5 -12q10 -18 27 -38t35.5 -38t36.5 -32.5t30 -20.5q5 -4 12 -5.5t15 -1.5h254q17 0 27 7q12 6 29 20.5t35 32.5t34 38t26 38q4 6 6.5 12t2.5 14v963h118v-967q0 -26 -5 -51t-19 -47q-9 -13 -26.5 -33.5t-38 -41.5t-41 -39.5 t-33.5 -26.5q-22 -14 -51 -23.5t-54 -9.5h-274q-25 0 -55 9.5t-52 23.5q-14 8 -34 26.5t-40.5 39.5t-38 41.5t-26.5 33.5q-27 43 -27 98zM283 1354v157h155v-157h-155zM582 1354v157h155v-157h-155z" />
<glyph unicode="&#xdd;" horiz-adv-x="915" d="M-35 1229h131l310 -584l313 584h129l-383 -705v-524h-119v524zM252 1366l174 227h143l-209 -264z" />
<glyph unicode="&#xde;" horiz-adv-x="1069" d="M100 0v1229h119v-268h434q32 0 64 -10.5t57 -28.5q10 -8 25.5 -22.5t31.5 -31t29 -31.5t19 -24q30 -47 30 -106v-181q0 -60 -30 -106q-6 -9 -19 -23.5t-29 -30.5t-31.5 -30.5t-25.5 -22.5q-25 -18 -57 -28.5t-64 -10.5h-434v-274h-119zM219 389h432q22 0 35 8 q12 7 27 18.5t29 25t25.5 28t18.5 27.5q4 6 4.5 15.5t0.5 18.5v172q0 10 -0.5 19.5t-4.5 15.5q-7 13 -18.5 28t-25.5 29.5t-29 26.5t-27 19q-8 5 -16.5 5.5t-18.5 0.5h-432v-457z" />
<glyph unicode="&#xdf;" horiz-adv-x="1075" d="M80 0l16 145v811q0 28 5.5 54.5t21.5 48.5q9 14 26.5 35t37.5 43t40 40.5t35 26.5q23 14 53 23.5t56 9.5h96q34 0 67 -9t58 -28q11 -8 24.5 -21t26.5 -27.5t24 -28t17 -21.5q16 -23 23.5 -51.5t7.5 -59.5v-33q0 -37 -7 -66.5t-26 -53.5q-5 -7 -15 -18t-21.5 -22 t-22.5 -20.5t-17 -13.5q-20 -16 -41.5 -37t-32.5 -41q-6 -12 -6 -35v-55q0 -31 23 -51t55 -25l129 -10q38 -2 70.5 -17t56.5 -39t37.5 -56.5t13.5 -69.5v-101q0 -62 -30 -108q-6 -9 -16 -21t-21.5 -25t-24 -25t-22.5 -19q-25 -19 -59 -29t-66 -10h-226q-26 0 -55.5 7 t-48.5 21l64 86q13 -8 36 -8h228q20 0 35 8q24 14 50 39.5t40 51.5q3 6 4.5 15.5t1.5 20.5v97q0 31 -23 52t-55 23l-129 9q-40 3 -73 18.5t-56 40t-36 57t-13 70.5v57q0 62 30 109q4 6 18 19.5t31 28.5t33 29.5t25 22.5q15 16 28 29t19 27q2 3 3 9t1 17v39q0 11 -1.5 23 t-4.5 18q-7 13 -18.5 27.5t-25 28t-28 24.5t-26.5 18q-8 5 -16 5.5t-19 0.5h-90q-15 0 -27 -6q-12 -7 -31 -23t-38.5 -36t-37.5 -42t-28 -40q-6 -12 -6 -31v-841l-14 -111h-113z" />
<glyph unicode="&#xe0;" d="M41 233v41q0 63 31 109q6 9 17 22t24 26.5t26 26.5t23 21q25 19 57.5 29t67.5 10h356v125q0 12 -1 20t-3 13q-7 13 -18.5 28t-25 28.5t-28 25t-26.5 18.5q-15 8 -37 8h-193q-20 0 -35 -8q-12 -7 -25.5 -18.5t-27 -26t-25 -29.5t-20.5 -28l-106 35q5 8 12 20.5t18 26.5 q7 10 18.5 23t24.5 27t26 26.5t24 21.5q24 19 55.5 28t66.5 9h189q35 0 68.5 -10t58.5 -29q12 -7 25.5 -19.5t26 -27t23.5 -28t17 -21.5q17 -23 23 -51.5t6 -59.5v-500l14 -145h-111l-12 102q-18 -20 -39.5 -38.5t-38.5 -30.5q-23 -17 -48.5 -30t-51.5 -13h-180 q-35 0 -67.5 10t-57.5 29q-10 8 -23 21t-26 26.5t-24 26.5t-17 22q-31 46 -31 108zM152 233q0 -20 6 -32q7 -13 18 -27t23.5 -27.5t26.5 -24.5t26 -18q13 -8 37 -8h172q16 0 28 6t34 19.5t45 31t44 37t31 37.5v187h-354q-24 0 -37 -8q-12 -7 -26 -18.5t-26.5 -25t-23.5 -28 t-18 -27.5q-6 -12 -6 -33v-41zM197 1307h143l174 -228l-108 -37z" />
<glyph unicode="&#xe1;" d="M41 233v41q0 63 31 109q6 9 17 22t24 26.5t26 26.5t23 21q25 19 57.5 29t67.5 10h356v125q0 12 -1 20t-3 13q-7 13 -18.5 28t-25 28.5t-28 25t-26.5 18.5q-15 8 -37 8h-193q-20 0 -35 -8q-12 -7 -25.5 -18.5t-27 -26t-25 -29.5t-20.5 -28l-106 35q5 8 12 20.5t18 26.5 q7 10 18.5 23t24.5 27t26 26.5t24 21.5q24 19 55.5 28t66.5 9h189q35 0 68.5 -10t58.5 -29q12 -7 25.5 -19.5t26 -27t23.5 -28t17 -21.5q17 -23 23 -51.5t6 -59.5v-500l14 -145h-111l-12 102q-18 -20 -39.5 -38.5t-38.5 -30.5q-23 -17 -48.5 -30t-51.5 -13h-180 q-35 0 -67.5 10t-57.5 29q-10 8 -23 21t-26 26.5t-24 26.5t-17 22q-31 46 -31 108zM152 233q0 -20 6 -32q7 -13 18 -27t23.5 -27.5t26.5 -24.5t26 -18q13 -8 37 -8h172q16 0 28 6t34 19.5t45 31t44 37t31 37.5v187h-354q-24 0 -37 -8q-12 -7 -26 -18.5t-26.5 -25t-23.5 -28 t-18 -27.5q-6 -12 -6 -33v-41zM287 1079l174 228h143l-209 -265z" />
<glyph unicode="&#xe2;" d="M41 233v41q0 63 31 109q6 9 17 22t24 26.5t26 26.5t23 21q25 19 57.5 29t67.5 10h356v125q0 12 -1 20t-3 13q-7 13 -18.5 28t-25 28.5t-28 25t-26.5 18.5q-15 8 -37 8h-193q-20 0 -35 -8q-12 -7 -25.5 -18.5t-27 -26t-25 -29.5t-20.5 -28l-106 35q5 8 12 20.5t18 26.5 q7 10 18.5 23t24.5 27t26 26.5t24 21.5q24 19 55.5 28t66.5 9h189q35 0 68.5 -10t58.5 -29q12 -7 25.5 -19.5t26 -27t23.5 -28t17 -21.5q17 -23 23 -51.5t6 -59.5v-500l14 -145h-111l-12 102q-18 -20 -39.5 -38.5t-38.5 -30.5q-23 -17 -48.5 -30t-51.5 -13h-180 q-35 0 -67.5 10t-57.5 29q-10 8 -23 21t-26 26.5t-24 26.5t-17 22q-31 46 -31 108zM152 233q0 -20 6 -32q7 -13 18 -27t23.5 -27.5t26.5 -24.5t26 -18q13 -8 37 -8h172q16 0 28 6t34 19.5t45 31t44 37t31 37.5v187h-354q-24 0 -37 -8q-12 -7 -26 -18.5t-26.5 -25t-23.5 -28 t-18 -27.5q-6 -12 -6 -33v-41zM176 1065l191 238h116l191 -238h-139l-111 139l-109 -139h-139z" />
<glyph unicode="&#xe3;" d="M41 233v41q0 63 31 109q6 9 17 22t24 26.5t26 26.5t23 21q25 19 57.5 29t67.5 10h356v125q0 12 -1 20t-3 13q-7 13 -18.5 28t-25 28.5t-28 25t-26.5 18.5q-15 8 -37 8h-193q-20 0 -35 -8q-12 -7 -25.5 -18.5t-27 -26t-25 -29.5t-20.5 -28l-106 35q5 8 12 20.5t18 26.5 q7 10 18.5 23t24.5 27t26 26.5t24 21.5q24 19 55.5 28t66.5 9h189q35 0 68.5 -10t58.5 -29q12 -7 25.5 -19.5t26 -27t23.5 -28t17 -21.5q17 -23 23 -51.5t6 -59.5v-500l14 -145h-111l-12 102q-18 -20 -39.5 -38.5t-38.5 -30.5q-23 -17 -48.5 -30t-51.5 -13h-180 q-35 0 -67.5 10t-57.5 29q-10 8 -23 21t-26 26.5t-24 26.5t-17 22q-31 46 -31 108zM137 1110q10 36 33 63.5t53 44.5t65.5 21.5t71.5 -4.5l149 -37q32 -5 59.5 8.5t37.5 42.5l104 -24q-11 -36 -33.5 -64t-52.5 -44.5t-65.5 -21t-71.5 4.5l-150 37q-32 5 -59.5 -9t-36.5 -43z M152 233q0 -20 6 -32q7 -13 18 -27t23.5 -27.5t26.5 -24.5t26 -18q13 -8 37 -8h172q16 0 28 6t34 19.5t45 31t44 37t31 37.5v187h-354q-24 0 -37 -8q-12 -7 -26 -18.5t-26.5 -25t-23.5 -28t-18 -27.5q-6 -12 -6 -33v-41z" />
<glyph unicode="&#xe4;" d="M41 233v41q0 63 31 109q6 9 17 22t24 26.5t26 26.5t23 21q25 19 57.5 29t67.5 10h356v125q0 12 -1 20t-3 13q-7 13 -18.5 28t-25 28.5t-28 25t-26.5 18.5q-15 8 -37 8h-193q-20 0 -35 -8q-12 -7 -25.5 -18.5t-27 -26t-25 -29.5t-20.5 -28l-106 35q5 8 12 20.5t18 26.5 q7 10 18.5 23t24.5 27t26 26.5t24 21.5q24 19 55.5 28t66.5 9h189q35 0 68.5 -10t58.5 -29q12 -7 25.5 -19.5t26 -27t23.5 -28t17 -21.5q17 -23 23 -51.5t6 -59.5v-500l14 -145h-111l-12 102q-18 -20 -39.5 -38.5t-38.5 -30.5q-23 -17 -48.5 -30t-51.5 -13h-180 q-35 0 -67.5 10t-57.5 29q-10 8 -23 21t-26 26.5t-24 26.5t-17 22q-31 46 -31 108zM152 233q0 -20 6 -32q7 -13 18 -27t23.5 -27.5t26.5 -24.5t26 -18q13 -8 37 -8h172q16 0 28 6t34 19.5t45 31t44 37t31 37.5v187h-354q-24 0 -37 -8q-12 -7 -26 -18.5t-26.5 -25t-23.5 -28 t-18 -27.5q-6 -12 -6 -33v-41zM199 1081v158h155v-158h-155zM498 1081v158h155v-158h-155z" />
<glyph unicode="&#xe5;" d="M41 233v41q0 63 31 109q6 9 17 22t24 26.5t26 26.5t23 21q25 19 57.5 29t67.5 10h356v125q0 12 -1 20t-3 13q-7 13 -18.5 28t-25 28.5t-28 25t-26.5 18.5q-15 8 -37 8h-193q-20 0 -35 -8q-12 -7 -25.5 -18.5t-27 -26t-25 -29.5t-20.5 -28l-106 35q5 8 12 20.5t18 26.5 q7 10 18.5 23t24.5 27t26 26.5t24 21.5q24 19 55.5 28t66.5 9h189q35 0 68.5 -10t58.5 -29q12 -7 25.5 -19.5t26 -27t23.5 -28t17 -21.5q17 -23 23 -51.5t6 -59.5v-500l14 -145h-111l-12 102q-18 -20 -39.5 -38.5t-38.5 -30.5q-23 -17 -48.5 -30t-51.5 -13h-180 q-35 0 -67.5 10t-57.5 29q-10 8 -23 21t-26 26.5t-24 26.5t-17 22q-31 46 -31 108zM152 233q0 -20 6 -32q7 -13 18 -27t23.5 -27.5t26.5 -24.5t26 -18q13 -8 37 -8h172q16 0 28 6t34 19.5t45 31t44 37t31 37.5v187h-354q-24 0 -37 -8q-12 -7 -26 -18.5t-26.5 -25t-23.5 -28 t-18 -27.5q-6 -12 -6 -33v-41zM225 1227q0 40 15 75.5t41 62t61 41.5t76 15q40 0 76 -15t62.5 -41.5t42 -62t15.5 -75.5q0 -41 -15.5 -76.5t-42 -62t-62.5 -41.5t-76 -15q-41 0 -76 15t-61 41.5t-41 62t-15 76.5zM303 1227q0 -24 9 -45.5t24.5 -37t36.5 -25t45 -9.5 t45.5 9.5t38 25t26 37t9.5 45.5t-9.5 45t-26 36.5t-38 25t-45.5 9.5t-45 -9.5t-36.5 -25t-24.5 -36.5t-9 -45z" />
<glyph unicode="&#xe6;" horiz-adv-x="1530" d="M41 233v41q0 63 31 109q6 9 17 22t24 26.5t26 26.5t23 21q25 19 57.5 29t67.5 10h356v137q0 13 -4 21q-7 13 -18.5 28t-25 28.5t-28 25t-26.5 18.5q-15 8 -37 8h-193q-20 0 -35 -8q-12 -7 -25.5 -18.5t-27 -26t-25 -29.5t-20.5 -28l-106 35q5 8 12 20.5t18 26.5 q7 10 18.5 23t24.5 27t26 26.5t24 21.5q24 19 55.5 28t66.5 9h189q35 0 68.5 -10t58.5 -29q15 -9 33.5 -28t33.5 -38q16 19 34 37t32 29q25 19 59 29t68 10h205q34 0 68 -10t59 -29q10 -8 23.5 -21t26.5 -27.5t24.5 -28t17.5 -21.5q29 -45 29 -109v-244h-592v-174 q0 -13 6 -22q7 -13 18.5 -28t25 -28.5t28 -25.5t26.5 -19q13 -8 35 -8h213q11 0 20 1.5t17 6.5q12 7 26 19.5t27 26.5t24 28.5t17 26.5l2 4l109 -37q-7 -12 -13.5 -22.5t-15.5 -22.5q-6 -9 -17 -22.5t-24.5 -27.5t-27 -27.5t-23.5 -20.5q-25 -19 -58 -29t-67 -10h-209 q-34 0 -68 10t-59 29q-14 9 -33 29t-35 38q-15 -18 -33 -38t-32 -29q-25 -19 -59 -29t-68 -10h-219q-35 0 -67.5 10t-57.5 29q-10 8 -23 21t-26 26.5t-24 26.5t-17 22q-31 46 -31 108zM152 233q0 -20 6 -32q7 -13 18 -27t23.5 -27.5t26.5 -24.5t26 -18q13 -8 37 -8h215 q22 0 37 8q12 7 26.5 19t28 25.5t25 28.5t18.5 28q4 8 4 16v191h-354q-24 0 -37 -9q-12 -7 -26 -18t-26.5 -24t-23.5 -27t-18 -27q-6 -12 -6 -33v-41zM754 508h481v133q0 11 -0.5 20t-3.5 15q-7 13 -19 28t-25.5 28.5t-27.5 25t-26 18.5q-15 8 -37 8h-203q-22 0 -35 -8 q-12 -7 -26.5 -18.5t-28 -25t-25 -28.5t-18.5 -28q-6 -9 -6 -25v-143z" />
<glyph unicode="&#xe7;" horiz-adv-x="934" d="M72 236v409q0 31 6.5 58.5t21.5 50.5q6 8 17.5 21.5t24.5 28t26.5 27.5t24.5 21q24 19 58 29t68 10h203q34 0 67 -10t58 -29q19 -14 36.5 -32.5t33 -38t28.5 -39t23 -35.5l-106 -35q-6 13 -18 28.5t-25.5 30t-28.5 26.5t-27 19q-13 8 -37 8h-204q-24 0 -37 -8 q-12 -7 -26 -18.5t-27.5 -25t-25 -28.5t-18.5 -28q-6 -12 -6 -35v-401q0 -23 6 -35q7 -13 18 -28t24 -28.5t27 -25.5t26 -19q13 -8 36 -8h213q24 0 37 8q12 7 27 19.5t28.5 26.5t24.5 28.5t17 26.5l2 4l106 -37q-9 -17 -22 -36.5t-29 -39t-34 -37t-36 -30.5 q-24 -19 -57.5 -29t-67.5 -10h-209q-34 0 -68 10t-58 29q-11 7 -24.5 20.5t-26.5 27.5t-24.5 27.5t-17.5 22.5q-15 23 -21.5 50.5t-6.5 58.5zM262 -344l170 266l98 -39l-147 -227h-121z" />
<glyph unicode="&#xe8;" horiz-adv-x="969" d="M82 236v409q0 63 31 109q6 8 17 21.5t24 28t26.5 27.5t24.5 21q25 19 59 29t68 10h205q34 0 68 -10t59 -29q10 -8 23.5 -21t26.5 -27.5t24.5 -28t17.5 -21.5q15 -23 21.5 -50.5t6.5 -58.5v-252h-591v-153q0 -23 6 -35q7 -13 18 -28t24.5 -28.5t27.5 -25.5t26 -19 q13 -8 35 -8h215q22 0 37 8q12 7 26 19.5t27 26.5t24 28.5t17 26.5l2 4l108 -37q-6 -12 -12.5 -21.5t-15.5 -23.5q-6 -9 -17.5 -22.5t-24.5 -27.5t-26.5 -27.5t-23.5 -20.5q-25 -19 -58 -29t-67 -10h-209q-34 0 -68 10t-59 29q-11 7 -24.5 20.5t-26.5 27.5t-24 27.5 t-17 22.5q-31 46 -31 109zM193 498h481v143q0 11 -0.5 20t-3.5 15q-7 13 -19 28t-25.5 28.5t-28 25t-26.5 18.5q-13 8 -36 8h-203q-22 0 -35 -8q-12 -7 -26.5 -18.5t-28 -25t-25 -28.5t-18.5 -28q-6 -12 -6 -35v-143zM197 1307h143l174 -228l-108 -37z" />
<glyph unicode="&#xe9;" horiz-adv-x="969" d="M82 236v409q0 63 31 109q6 8 17 21.5t24 28t26.5 27.5t24.5 21q25 19 59 29t68 10h205q34 0 68 -10t59 -29q10 -8 23.5 -21t26.5 -27.5t24.5 -28t17.5 -21.5q15 -23 21.5 -50.5t6.5 -58.5v-252h-591v-153q0 -23 6 -35q7 -13 18 -28t24.5 -28.5t27.5 -25.5t26 -19 q13 -8 35 -8h215q22 0 37 8q12 7 26 19.5t27 26.5t24 28.5t17 26.5l2 4l108 -37q-6 -12 -12.5 -21.5t-15.5 -23.5q-6 -9 -17.5 -22.5t-24.5 -27.5t-26.5 -27.5t-23.5 -20.5q-25 -19 -58 -29t-67 -10h-209q-34 0 -68 10t-59 29q-11 7 -24.5 20.5t-26.5 27.5t-24 27.5 t-17 22.5q-31 46 -31 109zM193 498h481v143q0 11 -0.5 20t-3.5 15q-7 13 -19 28t-25.5 28.5t-28 25t-26.5 18.5q-13 8 -36 8h-203q-22 0 -35 -8q-12 -7 -26.5 -18.5t-28 -25t-25 -28.5t-18.5 -28q-6 -12 -6 -35v-143zM287 1079l174 228h143l-209 -265z" />
<glyph unicode="&#xea;" horiz-adv-x="969" d="M82 236v409q0 63 31 109q6 8 17 21.5t24 28t26.5 27.5t24.5 21q25 19 59 29t68 10h205q34 0 68 -10t59 -29q10 -8 23.5 -21t26.5 -27.5t24.5 -28t17.5 -21.5q15 -23 21.5 -50.5t6.5 -58.5v-252h-591v-153q0 -23 6 -35q7 -13 18 -28t24.5 -28.5t27.5 -25.5t26 -19 q13 -8 35 -8h215q22 0 37 8q12 7 26 19.5t27 26.5t24 28.5t17 26.5l2 4l108 -37q-6 -12 -12.5 -21.5t-15.5 -23.5q-6 -9 -17.5 -22.5t-24.5 -27.5t-26.5 -27.5t-23.5 -20.5q-25 -19 -58 -29t-67 -10h-209q-34 0 -68 10t-59 29q-11 7 -24.5 20.5t-26.5 27.5t-24 27.5 t-17 22.5q-31 46 -31 109zM180 1065l191 238h116l191 -238h-139l-111 139l-109 -139h-139zM193 498h481v143q0 11 -0.5 20t-3.5 15q-7 13 -19 28t-25.5 28.5t-28 25t-26.5 18.5q-13 8 -36 8h-203q-22 0 -35 -8q-12 -7 -26.5 -18.5t-28 -25t-25 -28.5t-18.5 -28 q-6 -12 -6 -35v-143z" />
<glyph unicode="&#xeb;" horiz-adv-x="969" d="M82 236v409q0 63 31 109q6 8 17 21.5t24 28t26.5 27.5t24.5 21q25 19 59 29t68 10h205q34 0 68 -10t59 -29q10 -8 23.5 -21t26.5 -27.5t24.5 -28t17.5 -21.5q15 -23 21.5 -50.5t6.5 -58.5v-252h-591v-153q0 -23 6 -35q7 -13 18 -28t24.5 -28.5t27.5 -25.5t26 -19 q13 -8 35 -8h215q22 0 37 8q12 7 26 19.5t27 26.5t24 28.5t17 26.5l2 4l108 -37q-6 -12 -12.5 -21.5t-15.5 -23.5q-6 -9 -17.5 -22.5t-24.5 -27.5t-26.5 -27.5t-23.5 -20.5q-25 -19 -58 -29t-67 -10h-209q-34 0 -68 10t-59 29q-11 7 -24.5 20.5t-26.5 27.5t-24 27.5 t-17 22.5q-31 46 -31 109zM193 498h481v143q0 11 -0.5 20t-3.5 15q-7 13 -19 28t-25.5 28.5t-28 25t-26.5 18.5q-13 8 -36 8h-203q-22 0 -35 -8q-12 -7 -26.5 -18.5t-28 -25t-25 -28.5t-18.5 -28q-6 -12 -6 -35v-143zM199 1081v158h155v-158h-155zM498 1081v158h155v-158 h-155z" />
<glyph unicode="&#xec;" horiz-adv-x="422" d="M-102 1307h143l174 -228l-109 -37zM100 0v881h111v-881h-111z" />
<glyph unicode="&#xed;" horiz-adv-x="422" d="M98 1079l174 228h144l-209 -265zM100 0v881h111v-881h-111z" />
<glyph unicode="&#xee;" horiz-adv-x="422" d="M-92 1065l190 238h117l191 -238h-140l-110 139l-109 -139h-139zM100 0v881h111v-881h-111z" />
<glyph unicode="&#xef;" horiz-adv-x="422" d="M-70 1081v158h156v-158h-156zM100 0v881h111v-881h-111zM229 1081v158h156v-158h-156z" />
<glyph unicode="&#xf0;" horiz-adv-x="973" d="M82 242v401q0 28 7.5 57t23.5 52q5 8 17.5 22.5t27.5 29.5t30 28.5t25 21.5q25 19 56.5 28t62.5 9h153q25 0 56 -6t51 -23q41 -34 76 -82v58q0 32 -19.5 58.5t-48.5 41.5l-113 61l-116 -55l-24 40q-9 15 -16 28t-7 14l59 29q-48 24 -91 46.5t-91 47.5l49 92l246 -127 q45 23 87 46.5t87 47.5l47 -88l-113 -61l45 -23q60 -32 94.5 -78.5t34.5 -109.5v-606q0 -28 -6.5 -55t-21.5 -50q-6 -8 -19 -23t-28 -31.5t-29.5 -31.5t-24.5 -22q-25 -19 -56.5 -29t-62.5 -10h-198q-31 0 -62.5 10t-56.5 29q-10 7 -25 22t-30 31.5t-27.5 31.5t-17.5 23 q-16 22 -23.5 49t-7.5 56zM193 244q0 -23 6 -35q7 -14 18 -29t24.5 -29.5t28 -26.5t27.5 -20t37 -8h194q22 0 35 8q12 8 26.5 20.5t28 27t25.5 29.5t19 28q6 12 6 35v391l-9 16q-11 21 -30.5 41.5t-41 37.5t-42 30.5t-35.5 21.5q-3 3 -12 4.5t-19 1.5h-145q-24 0 -37 -8 q-13 -7 -27.5 -18.5t-28 -25.5t-24.5 -29.5t-18 -30.5q-6 -12 -6 -35v-397z" />
<glyph unicode="&#xf1;" horiz-adv-x="985" d="M82 881h111l12 -103q18 20 38.5 38.5t37.5 31.5q21 15 48.5 29t53.5 14h154q34 0 68 -10t59 -29q10 -8 23.5 -21t26.5 -27.5t24.5 -28t17.5 -21.5q15 -23 21.5 -50.5t6.5 -58.5v-645h-110v641q0 11 -0.5 20t-3.5 15q-7 13 -19 28t-25.5 28.5t-28 25t-26.5 18.5 q-13 8 -36 8h-146q-16 0 -29 -6q-13 -7 -34 -20t-43.5 -29.5t-43 -35.5t-32.5 -38v-655h-111v735zM166 1110q10 36 33 63.5t53 44.5t65.5 21.5t71.5 -4.5l149 -37q32 -5 59.5 8.5t37.5 42.5l104 -24q-11 -36 -33.5 -64t-52.5 -44.5t-65.5 -21t-71.5 4.5l-150 37 q-32 5 -59.5 -9t-36.5 -43z" />
<glyph unicode="&#xf2;" horiz-adv-x="956" d="M72 236v409q0 31 6.5 58.5t21.5 50.5q6 8 17.5 21.5t24.5 28t26.5 27.5t24.5 21q24 19 58 29t68 10h205q34 0 68 -10t59 -29q11 -8 24.5 -21t26.5 -27.5t24 -28t17 -21.5q16 -23 22.5 -50.5t6.5 -58.5v-409q0 -31 -6.5 -58.5t-22.5 -50.5q-6 -9 -17 -22.5t-24 -27.5 t-26.5 -27.5t-24.5 -20.5q-25 -19 -59 -29t-68 -10h-205q-34 0 -68 10t-58 29q-11 7 -24.5 20.5t-26.5 27.5t-24.5 27.5t-17.5 22.5q-15 23 -21.5 50.5t-6.5 58.5zM182 240q0 -23 6 -35q7 -13 18.5 -28t25 -28.5t27.5 -25.5t26 -19q13 -8 37 -8h200q24 0 37 8q12 7 26.5 19 t28 25.5t25 28.5t18.5 28q4 6 4.5 15t0.5 20v401q0 11 -0.5 20t-4.5 15q-7 13 -18.5 28t-25 28.5t-28 25t-26.5 18.5q-13 8 -37 8h-200q-24 0 -37 -8q-12 -7 -26 -18.5t-27.5 -25t-25 -28.5t-18.5 -28q-6 -12 -6 -35v-401zM197 1307h143l174 -228l-108 -37z" />
<glyph unicode="&#xf3;" horiz-adv-x="956" d="M72 236v409q0 31 6.5 58.5t21.5 50.5q6 8 17.5 21.5t24.5 28t26.5 27.5t24.5 21q24 19 58 29t68 10h205q34 0 68 -10t59 -29q11 -8 24.5 -21t26.5 -27.5t24 -28t17 -21.5q16 -23 22.5 -50.5t6.5 -58.5v-409q0 -31 -6.5 -58.5t-22.5 -50.5q-6 -9 -17 -22.5t-24 -27.5 t-26.5 -27.5t-24.5 -20.5q-25 -19 -59 -29t-68 -10h-205q-34 0 -68 10t-58 29q-11 7 -24.5 20.5t-26.5 27.5t-24.5 27.5t-17.5 22.5q-15 23 -21.5 50.5t-6.5 58.5zM182 240q0 -23 6 -35q7 -13 18.5 -28t25 -28.5t27.5 -25.5t26 -19q13 -8 37 -8h200q24 0 37 8q12 7 26.5 19 t28 25.5t25 28.5t18.5 28q4 6 4.5 15t0.5 20v401q0 11 -0.5 20t-4.5 15q-7 13 -18.5 28t-25 28.5t-28 25t-26.5 18.5q-13 8 -37 8h-200q-24 0 -37 -8q-12 -7 -26 -18.5t-27.5 -25t-25 -28.5t-18.5 -28q-6 -12 -6 -35v-401zM287 1079l174 228h143l-209 -265z" />
<glyph unicode="&#xf4;" horiz-adv-x="956" d="M72 236v409q0 31 6.5 58.5t21.5 50.5q6 8 17.5 21.5t24.5 28t26.5 27.5t24.5 21q24 19 58 29t68 10h205q34 0 68 -10t59 -29q11 -8 24.5 -21t26.5 -27.5t24 -28t17 -21.5q16 -23 22.5 -50.5t6.5 -58.5v-409q0 -31 -6.5 -58.5t-22.5 -50.5q-6 -9 -17 -22.5t-24 -27.5 t-26.5 -27.5t-24.5 -20.5q-25 -19 -59 -29t-68 -10h-205q-34 0 -68 10t-58 29q-11 7 -24.5 20.5t-26.5 27.5t-24.5 27.5t-17.5 22.5q-15 23 -21.5 50.5t-6.5 58.5zM178 1065l191 238h116l191 -238h-139l-111 139l-109 -139h-139zM182 240q0 -23 6 -35q7 -13 18.5 -28 t25 -28.5t27.5 -25.5t26 -19q13 -8 37 -8h200q24 0 37 8q12 7 26.5 19t28 25.5t25 28.5t18.5 28q4 6 4.5 15t0.5 20v401q0 11 -0.5 20t-4.5 15q-7 13 -18.5 28t-25 28.5t-28 25t-26.5 18.5q-13 8 -37 8h-200q-24 0 -37 -8q-12 -7 -26 -18.5t-27.5 -25t-25 -28.5t-18.5 -28 q-6 -12 -6 -35v-401z" />
<glyph unicode="&#xf5;" horiz-adv-x="956" d="M72 236v409q0 31 6.5 58.5t21.5 50.5q6 8 17.5 21.5t24.5 28t26.5 27.5t24.5 21q24 19 58 29t68 10h205q34 0 68 -10t59 -29q11 -8 24.5 -21t26.5 -27.5t24 -28t17 -21.5q16 -23 22.5 -50.5t6.5 -58.5v-409q0 -31 -6.5 -58.5t-22.5 -50.5q-6 -9 -17 -22.5t-24 -27.5 t-26.5 -27.5t-24.5 -20.5q-25 -19 -59 -29t-68 -10h-205q-34 0 -68 10t-58 29q-11 7 -24.5 20.5t-26.5 27.5t-24.5 27.5t-17.5 22.5q-15 23 -21.5 50.5t-6.5 58.5zM137 1110q10 36 33 63.5t53 44.5t65.5 21.5t71.5 -4.5l149 -37q32 -5 59.5 8.5t37.5 42.5l104 -24 q-11 -36 -33.5 -64t-52.5 -44.5t-65.5 -21t-71.5 4.5l-150 37q-32 5 -59.5 -9t-36.5 -43zM182 240q0 -23 6 -35q7 -13 18.5 -28t25 -28.5t27.5 -25.5t26 -19q13 -8 37 -8h200q24 0 37 8q12 7 26.5 19t28 25.5t25 28.5t18.5 28q4 6 4.5 15t0.5 20v401q0 11 -0.5 20t-4.5 15 q-7 13 -18.5 28t-25 28.5t-28 25t-26.5 18.5q-13 8 -37 8h-200q-24 0 -37 -8q-12 -7 -26 -18.5t-27.5 -25t-25 -28.5t-18.5 -28q-6 -12 -6 -35v-401z" />
<glyph unicode="&#xf6;" horiz-adv-x="956" d="M72 236v409q0 31 6.5 58.5t21.5 50.5q6 8 17.5 21.5t24.5 28t26.5 27.5t24.5 21q24 19 58 29t68 10h205q34 0 68 -10t59 -29q11 -8 24.5 -21t26.5 -27.5t24 -28t17 -21.5q16 -23 22.5 -50.5t6.5 -58.5v-409q0 -31 -6.5 -58.5t-22.5 -50.5q-6 -9 -17 -22.5t-24 -27.5 t-26.5 -27.5t-24.5 -20.5q-25 -19 -59 -29t-68 -10h-205q-34 0 -68 10t-58 29q-11 7 -24.5 20.5t-26.5 27.5t-24.5 27.5t-17.5 22.5q-15 23 -21.5 50.5t-6.5 58.5zM182 240q0 -23 6 -35q7 -13 18.5 -28t25 -28.5t27.5 -25.5t26 -19q13 -8 37 -8h200q24 0 37 8q12 7 26.5 19 t28 25.5t25 28.5t18.5 28q4 6 4.5 15t0.5 20v401q0 11 -0.5 20t-4.5 15q-7 13 -18.5 28t-25 28.5t-28 25t-26.5 18.5q-13 8 -37 8h-200q-24 0 -37 -8q-12 -7 -26 -18.5t-27.5 -25t-25 -28.5t-18.5 -28q-6 -12 -6 -35v-401zM199 1081v158h155v-158h-155zM498 1081v158h155 v-158h-155z" />
<glyph unicode="&#xf7;" horiz-adv-x="932" d="M82 455v106h666v-106h-666zM336 139v160h160v-160h-160zM336 725v160h160v-160h-160z" />
<glyph unicode="&#xf8;" horiz-adv-x="987" d="M72 236v409q0 31 6.5 58.5t21.5 50.5q6 8 17.5 21.5t24.5 28t26.5 27.5t24.5 21q24 19 58 29t68 10h226q14 0 28.5 -1.5t28.5 -6.5l25 47h112l-49 -94q22 -19 42.5 -43.5t31.5 -38.5q29 -45 29 -109v-409q0 -64 -29 -109q-6 -9 -17 -22.5t-24.5 -27.5t-27 -27.5 t-23.5 -20.5q-25 -19 -59 -29t-68 -10h-226q-15 0 -31.5 1.5t-31.5 6.5l-25 -47h-114l51 98q-20 19 -39 41.5t-29 36.5q-15 23 -21.5 50.5t-6.5 58.5zM182 240q0 -23 6 -35q7 -11 15.5 -24t19.5 -25l328 628h-8h-221q-24 0 -37 -8q-12 -7 -26 -18.5t-27.5 -25t-25 -28.5 t-18.5 -28q-6 -12 -6 -35v-401zM307 96h15h221q22 0 37 8q12 7 26 19t27.5 25.5t25.5 28.5t19 28q3 6 3.5 15t0.5 20v401q0 11 -0.5 20t-3.5 15q-8 12 -18.5 26.5t-24.5 28.5z" />
<glyph unicode="&#xf9;" horiz-adv-x="971" d="M74 236v645h110v-641q0 -11 0.5 -20t3.5 -15q7 -13 19 -28t25.5 -28.5t28 -25.5t26.5 -19q13 -8 37 -8h145q15 0 29 6q13 7 34 20.5t44 30t43.5 35.5t31.5 37v656h111v-736l14 -145h-110l-13 102q-18 -20 -38 -38.5t-37 -30.5q-22 -16 -49.5 -29.5t-53.5 -13.5h-153 q-35 0 -69 10t-58 29q-11 7 -24.5 20.5t-26.5 27.5t-24.5 27.5t-17.5 22.5q-15 23 -21.5 50.5t-6.5 58.5zM197 1307h143l174 -228l-108 -37z" />
<glyph unicode="&#xfa;" horiz-adv-x="971" d="M74 236v645h110v-641q0 -11 0.5 -20t3.5 -15q7 -13 19 -28t25.5 -28.5t28 -25.5t26.5 -19q13 -8 37 -8h145q15 0 29 6q13 7 34 20.5t44 30t43.5 35.5t31.5 37v656h111v-736l14 -145h-110l-13 102q-18 -20 -38 -38.5t-37 -30.5q-22 -16 -49.5 -29.5t-53.5 -13.5h-153 q-35 0 -69 10t-58 29q-11 7 -24.5 20.5t-26.5 27.5t-24.5 27.5t-17.5 22.5q-15 23 -21.5 50.5t-6.5 58.5zM287 1079l174 228h143l-209 -265z" />
<glyph unicode="&#xfb;" horiz-adv-x="971" d="M74 236v645h110v-641q0 -11 0.5 -20t3.5 -15q7 -13 19 -28t25.5 -28.5t28 -25.5t26.5 -19q13 -8 37 -8h145q15 0 29 6q13 7 34 20.5t44 30t43.5 35.5t31.5 37v656h111v-736l14 -145h-110l-13 102q-18 -20 -38 -38.5t-37 -30.5q-22 -16 -49.5 -29.5t-53.5 -13.5h-153 q-35 0 -69 10t-58 29q-11 7 -24.5 20.5t-26.5 27.5t-24.5 27.5t-17.5 22.5q-15 23 -21.5 50.5t-6.5 58.5zM164 1065l190 238h117l191 -238h-140l-110 139l-109 -139h-139z" />
<glyph unicode="&#xfc;" horiz-adv-x="971" d="M74 236v645h110v-641q0 -11 0.5 -20t3.5 -15q7 -13 19 -28t25.5 -28.5t28 -25.5t26.5 -19q13 -8 37 -8h145q15 0 29 6q13 7 34 20.5t44 30t43.5 35.5t31.5 37v656h111v-736l14 -145h-110l-13 102q-18 -20 -38 -38.5t-37 -30.5q-22 -16 -49.5 -29.5t-53.5 -13.5h-153 q-35 0 -69 10t-58 29q-11 7 -24.5 20.5t-26.5 27.5t-24.5 27.5t-17.5 22.5q-15 23 -21.5 50.5t-6.5 58.5zM205 1081v158h155v-158h-155zM504 1081v158h155v-158h-155z" />
<glyph unicode="&#xfd;" horiz-adv-x="860" d="M10 881h119l242 -768h12l242 768h118l-399 -1225h-117l117 344h-47zM287 1079l174 228h143l-209 -265z" />
<glyph unicode="&#xfe;" horiz-adv-x="989" d="M94 -346v1575h111v-455q20 22 40.5 42t39.5 34q21 15 48.5 29t53.5 14h160q34 0 67 -10.5t58 -30.5q10 -7 23.5 -19.5t27 -27t24.5 -28t17 -21.5q31 -51 31 -109v-420q0 -60 -31 -108q-6 -8 -17 -21.5t-24.5 -28t-27 -28t-23.5 -21.5q-25 -17 -58 -26.5t-67 -9.5h-160 q-26 0 -53.5 13t-48.5 30q-19 12 -39.5 31t-40.5 40v-444h-111zM205 227q4 -4 4 -8q11 -18 31.5 -37.5t44 -36t45.5 -30t35 -19.5q6 -5 13 -5.5t15 -0.5h152q11 0 20 1t17 7q12 7 26 18.5t27 25t24.5 28.5t18.5 29q3 5 4.5 14t1.5 20v410q0 23 -6 35q-7 13 -18.5 27.5 t-24.5 28t-27 25t-26 19.5q-15 8 -37 8h-152q-17 0 -28 -8q-13 -6 -35 -19t-45.5 -30t-44 -36t-31.5 -38q0 -3 -1 -5t-3 -5v-418z" />
<glyph unicode="&#xff;" horiz-adv-x="860" d="M10 881h119l242 -768h12l242 768h118l-399 -1225h-117l117 344h-47zM150 1081v158h155v-158h-155zM449 1081v158h155v-158h-155z" />
<glyph unicode="&#x100;" horiz-adv-x="1100" d="M-6 0l412 1229h184l411 -1229h-127l-92 285h-569l-94 -285h-125zM238 1423v103h520v-103h-520zM250 399h495l-235 713h-27z" />
<glyph unicode="&#x101;" d="M41 233v41q0 63 31 109q6 9 17 22t24 26.5t26 26.5t23 21q25 19 57.5 29t67.5 10h356v125q0 12 -1 20t-3 13q-7 13 -18.5 28t-25 28.5t-28 25t-26.5 18.5q-15 8 -37 8h-193q-20 0 -35 -8q-12 -7 -25.5 -18.5t-27 -26t-25 -29.5t-20.5 -28l-106 35q5 8 12 20.5t18 26.5 q7 10 18.5 23t24.5 27t26 26.5t24 21.5q24 19 55.5 28t66.5 9h189q35 0 68.5 -10t58.5 -29q12 -7 25.5 -19.5t26 -27t23.5 -28t17 -21.5q17 -23 23 -51.5t6 -59.5v-500l14 -145h-111l-12 102q-18 -20 -39.5 -38.5t-38.5 -30.5q-23 -17 -48.5 -30t-51.5 -13h-180 q-35 0 -67.5 10t-57.5 29q-10 8 -23 21t-26 26.5t-24 26.5t-17 22q-31 46 -31 108zM152 233q0 -20 6 -32q7 -13 18 -27t23.5 -27.5t26.5 -24.5t26 -18q13 -8 37 -8h172q16 0 28 6t34 19.5t45 31t44 37t31 37.5v187h-354q-24 0 -37 -8q-12 -7 -26 -18.5t-26.5 -25t-23.5 -28 t-18 -27.5q-6 -12 -6 -33v-41zM152 1137v102h520v-102h-520z" />
<glyph unicode="&#x102;" horiz-adv-x="1100" d="M-6 0l412 1229h184l411 -1229h-127l-92 285h-569l-94 -285h-125zM250 399h495l-235 713h-27zM303 1540h78q0 -24 9 -45t24.5 -37t36.5 -25.5t45 -9.5t45 9.5t37.5 25.5t26 37t9.5 45h78q0 -41 -15.5 -76t-42 -61.5t-62.5 -41.5t-76 -15q-41 0 -76 15t-61 41.5t-41 61.5 t-15 76z" />
<glyph unicode="&#x103;" d="M41 233v41q0 63 31 109q6 9 17 22t24 26.5t26 26.5t23 21q25 19 57.5 29t67.5 10h356v125q0 12 -1 20t-3 13q-7 13 -18.5 28t-25 28.5t-28 25t-26.5 18.5q-15 8 -37 8h-193q-20 0 -35 -8q-12 -7 -25.5 -18.5t-27 -26t-25 -29.5t-20.5 -28l-106 35q5 8 12 20.5t18 26.5 q7 10 18.5 23t24.5 27t26 26.5t24 21.5q24 19 55.5 28t66.5 9h189q35 0 68.5 -10t58.5 -29q12 -7 25.5 -19.5t26 -27t23.5 -28t17 -21.5q17 -23 23 -51.5t6 -59.5v-500l14 -145h-111l-12 102q-18 -20 -39.5 -38.5t-38.5 -30.5q-23 -17 -48.5 -30t-51.5 -13h-180 q-35 0 -67.5 10t-57.5 29q-10 8 -23 21t-26 26.5t-24 26.5t-17 22q-31 46 -31 108zM152 233q0 -20 6 -32q7 -13 18 -27t23.5 -27.5t26.5 -24.5t26 -18q13 -8 37 -8h172q16 0 28 6t34 19.5t45 31t44 37t31 37.5v187h-354q-24 0 -37 -8q-12 -7 -26 -18.5t-26.5 -25t-23.5 -28 t-18 -27.5q-6 -12 -6 -33v-41zM221 1253h78q0 -24 9 -45t24.5 -36.5t36.5 -25t45 -9.5t45 9.5t37.5 25t26 36.5t9.5 45h78q0 -41 -15.5 -76t-42 -61.5t-62.5 -41.5t-76 -15q-41 0 -76 15t-61 41.5t-41 61.5t-15 76z" />
<glyph unicode="&#x104;" horiz-adv-x="1100" d="M-6 0l412 1229h184l411 -1229h-127l-92 285h-569l-94 -285h-125zM250 399h495l-235 713h-27zM786 -117l99 39l170 -266h-121z" />
<glyph unicode="&#x105;" d="M41 233v41q0 63 31 109q6 9 17 22t24 26.5t26 26.5t23 21q25 19 57.5 29t67.5 10h356v125q0 12 -1 20t-3 13q-7 13 -18.5 28t-25 28.5t-28 25t-26.5 18.5q-15 8 -37 8h-193q-20 0 -35 -8q-12 -7 -25.5 -18.5t-27 -26t-25 -29.5t-20.5 -28l-106 35q5 8 12 20.5t18 26.5 q7 10 18.5 23t24.5 27t26 26.5t24 21.5q24 19 55.5 28t66.5 9h189q35 0 68.5 -10t58.5 -29q12 -7 25.5 -19.5t26 -27t23.5 -28t17 -21.5q17 -23 23 -51.5t6 -59.5v-500l14 -145h-111l-12 102q-18 -20 -39.5 -38.5t-38.5 -30.5q-23 -17 -48.5 -30t-51.5 -13h-180 q-35 0 -67.5 10t-57.5 29q-10 8 -23 21t-26 26.5t-24 26.5t-17 22q-31 46 -31 108zM152 233q0 -20 6 -32q7 -13 18 -27t23.5 -27.5t26.5 -24.5t26 -18q13 -8 37 -8h172q16 0 28 6t34 19.5t45 31t44 37t31 37.5v187h-354q-24 0 -37 -8q-12 -7 -26 -18.5t-26.5 -25t-23.5 -28 t-18 -27.5q-6 -12 -6 -33v-41zM549 -117l98 39l170 -266h-121z" />
<glyph unicode="&#x106;" horiz-adv-x="1069" d="M90 0zM90 262v701q0 26 6.5 51t20.5 47q8 13 25.5 34t38 42.5t41 40t34.5 26.5q22 14 51 23.5t53 9.5h273q25 0 54 -9.5t50 -23.5q16 -10 34 -26t35 -34t32 -36t26 -33t24.5 -36.5t22.5 -43.5l-118 -34q-9 21 -26 45t-36.5 45.5t-39.5 39t-36 25.5q-5 3 -12.5 4.5 t-15.5 1.5h-256q-18 0 -27 -6q-12 -6 -30 -20.5t-36.5 -32.5t-35.5 -38t-27 -38q-6 -12 -6 -29v-692q0 -14 6 -26q10 -18 27 -38t35.5 -38t36.5 -32.5t30 -20.5q8 -7 27 -7h256q8 0 15.5 1.5t12.5 5.5q16 8 35.5 25.5t38.5 39t36 44.5t28 44l118 -33q-9 -21 -22.5 -42.5 t-24.5 -36.5t-26 -33t-32 -36t-35 -34t-34 -26q-21 -14 -50 -23.5t-54 -9.5h-271q-24 0 -54 9.5t-52 23.5q-14 8 -34.5 26.5t-41 39.5t-38 41.5t-25.5 33.5q-14 22 -20.5 47t-6.5 51zM359 1366l174 228h143l-209 -265z" />
<glyph unicode="&#x107;" horiz-adv-x="934" d="M72 236v409q0 31 6.5 58.5t21.5 50.5q6 8 17.5 21.5t24.5 28t26.5 27.5t24.5 21q24 19 58 29t68 10h203q34 0 67 -10t58 -29q19 -14 36.5 -32.5t33 -38t28.5 -39t23 -35.5l-106 -35q-6 13 -18 28.5t-25.5 30t-28.5 26.5t-27 19q-13 8 -37 8h-204q-24 0 -37 -8 q-12 -7 -26 -18.5t-27.5 -25t-25 -28.5t-18.5 -28q-6 -12 -6 -35v-401q0 -23 6 -35q7 -13 18 -28t24 -28.5t27 -25.5t26 -19q13 -8 36 -8h213q24 0 37 8q12 7 27 19.5t28.5 26.5t24.5 28.5t17 26.5l2 4l106 -37q-9 -17 -22 -36.5t-29 -39t-34 -37t-36 -30.5 q-24 -19 -57.5 -29t-67.5 -10h-209q-34 0 -68 10t-58 29q-11 7 -24.5 20.5t-26.5 27.5t-24.5 27.5t-17.5 22.5q-15 23 -21.5 50.5t-6.5 58.5zM276 1079l175 228h143l-209 -265z" />
<glyph unicode="&#x108;" horiz-adv-x="1069" d="M90 0zM90 262v701q0 26 6.5 51t20.5 47q8 13 25.5 34t38 42.5t41 40t34.5 26.5q22 14 51 23.5t53 9.5h273q25 0 54 -9.5t50 -23.5q16 -10 34 -26t35 -34t32 -36t26 -33t24.5 -36.5t22.5 -43.5l-118 -34q-9 21 -26 45t-36.5 45.5t-39.5 39t-36 25.5q-5 3 -12.5 4.5 t-15.5 1.5h-256q-18 0 -27 -6q-12 -6 -30 -20.5t-36.5 -32.5t-35.5 -38t-27 -38q-6 -12 -6 -29v-692q0 -14 6 -26q10 -18 27 -38t35.5 -38t36.5 -32.5t30 -20.5q8 -7 27 -7h256q8 0 15.5 1.5t12.5 5.5q16 8 35.5 25.5t38.5 39t36 44.5t28 44l118 -33q-9 -21 -22.5 -42.5 t-24.5 -36.5t-26 -33t-32 -36t-35 -34t-34 -26q-21 -14 -50 -23.5t-54 -9.5h-271q-24 0 -54 9.5t-52 23.5q-14 8 -34.5 26.5t-41 39.5t-38 41.5t-25.5 33.5q-14 22 -20.5 47t-6.5 51zM248 1352l191 238h116l191 -238h-139l-111 139l-109 -139h-139z" />
<glyph unicode="&#x109;" horiz-adv-x="934" d="M72 236v409q0 31 6.5 58.5t21.5 50.5q6 8 17.5 21.5t24.5 28t26.5 27.5t24.5 21q24 19 58 29t68 10h203q34 0 67 -10t58 -29q19 -14 36.5 -32.5t33 -38t28.5 -39t23 -35.5l-106 -35q-6 13 -18 28.5t-25.5 30t-28.5 26.5t-27 19q-13 8 -37 8h-204q-24 0 -37 -8 q-12 -7 -26 -18.5t-27.5 -25t-25 -28.5t-18.5 -28q-6 -12 -6 -35v-401q0 -23 6 -35q7 -13 18 -28t24 -28.5t27 -25.5t26 -19q13 -8 36 -8h213q24 0 37 8q12 7 27 19.5t28.5 26.5t24.5 28.5t17 26.5l2 4l106 -37q-9 -17 -22 -36.5t-29 -39t-34 -37t-36 -30.5 q-24 -19 -57.5 -29t-67.5 -10h-209q-34 0 -68 10t-58 29q-11 7 -24.5 20.5t-26.5 27.5t-24.5 27.5t-17.5 22.5q-15 23 -21.5 50.5t-6.5 58.5zM170 1065l190 238h117l191 -238h-140l-110 139l-109 -139h-139z" />
<glyph unicode="&#x10a;" horiz-adv-x="1069" d="M90 0zM90 262v701q0 26 6.5 51t20.5 47q8 13 25.5 34t38 42.5t41 40t34.5 26.5q22 14 51 23.5t53 9.5h273q25 0 54 -9.5t50 -23.5q16 -10 34 -26t35 -34t32 -36t26 -33t24.5 -36.5t22.5 -43.5l-118 -34q-9 21 -26 45t-36.5 45.5t-39.5 39t-36 25.5q-5 3 -12.5 4.5 t-15.5 1.5h-256q-18 0 -27 -6q-12 -6 -30 -20.5t-36.5 -32.5t-35.5 -38t-27 -38q-6 -12 -6 -29v-692q0 -14 6 -26q10 -18 27 -38t35.5 -38t36.5 -32.5t30 -20.5q8 -7 27 -7h256q8 0 15.5 1.5t12.5 5.5q16 8 35.5 25.5t38.5 39t36 44.5t28 44l118 -33q-9 -21 -22.5 -42.5 t-24.5 -36.5t-26 -33t-32 -36t-35 -34t-34 -26q-21 -14 -50 -23.5t-54 -9.5h-271q-24 0 -54 9.5t-52 23.5q-14 8 -34.5 26.5t-41 39.5t-38 41.5t-25.5 33.5q-14 22 -20.5 47t-6.5 51zM430 1368v158h156v-158h-156z" />
<glyph unicode="&#x10b;" horiz-adv-x="934" d="M72 236v409q0 31 6.5 58.5t21.5 50.5q6 8 17.5 21.5t24.5 28t26.5 27.5t24.5 21q24 19 58 29t68 10h203q34 0 67 -10t58 -29q19 -14 36.5 -32.5t33 -38t28.5 -39t23 -35.5l-106 -35q-6 13 -18 28.5t-25.5 30t-28.5 26.5t-27 19q-13 8 -37 8h-204q-24 0 -37 -8 q-12 -7 -26 -18.5t-27.5 -25t-25 -28.5t-18.5 -28q-6 -12 -6 -35v-401q0 -23 6 -35q7 -13 18 -28t24 -28.5t27 -25.5t26 -19q13 -8 36 -8h213q24 0 37 8q12 7 27 19.5t28.5 26.5t24.5 28.5t17 26.5l2 4l106 -37q-9 -17 -22 -36.5t-29 -39t-34 -37t-36 -30.5 q-24 -19 -57.5 -29t-67.5 -10h-209q-34 0 -68 10t-58 29q-11 7 -24.5 20.5t-26.5 27.5t-24.5 27.5t-17.5 22.5q-15 23 -21.5 50.5t-6.5 58.5zM369 1081v158h155v-158h-155z" />
<glyph unicode="&#x10c;" horiz-adv-x="1069" d="M90 0zM90 262v701q0 26 6.5 51t20.5 47q8 13 25.5 34t38 42.5t41 40t34.5 26.5q22 14 51 23.5t53 9.5h273q25 0 54 -9.5t50 -23.5q16 -10 34 -26t35 -34t32 -36t26 -33t24.5 -36.5t22.5 -43.5l-118 -34q-9 21 -26 45t-36.5 45.5t-39.5 39t-36 25.5q-5 3 -12.5 4.5 t-15.5 1.5h-256q-18 0 -27 -6q-12 -6 -30 -20.5t-36.5 -32.5t-35.5 -38t-27 -38q-6 -12 -6 -29v-692q0 -14 6 -26q10 -18 27 -38t35.5 -38t36.5 -32.5t30 -20.5q8 -7 27 -7h256q8 0 15.5 1.5t12.5 5.5q16 8 35.5 25.5t38.5 39t36 44.5t28 44l118 -33q-9 -21 -22.5 -42.5 t-24.5 -36.5t-26 -33t-32 -36t-35 -34t-34 -26q-21 -14 -50 -23.5t-54 -9.5h-271q-24 0 -54 9.5t-52 23.5q-14 8 -34.5 26.5t-41 39.5t-38 41.5t-25.5 33.5q-14 22 -20.5 47t-6.5 51zM237 1590h139l111 -136l109 136h139l-191 -238h-116z" />
<glyph unicode="&#x10d;" horiz-adv-x="934" d="M72 236v409q0 31 6.5 58.5t21.5 50.5q6 8 17.5 21.5t24.5 28t26.5 27.5t24.5 21q24 19 58 29t68 10h203q34 0 67 -10t58 -29q19 -14 36.5 -32.5t33 -38t28.5 -39t23 -35.5l-106 -35q-6 13 -18 28.5t-25.5 30t-28.5 26.5t-27 19q-13 8 -37 8h-204q-24 0 -37 -8 q-12 -7 -26 -18.5t-27.5 -25t-25 -28.5t-18.5 -28q-6 -12 -6 -35v-401q0 -23 6 -35q7 -13 18 -28t24 -28.5t27 -25.5t26 -19q13 -8 36 -8h213q24 0 37 8q12 7 27 19.5t28.5 26.5t24.5 28.5t17 26.5l2 4l106 -37q-9 -17 -22 -36.5t-29 -39t-34 -37t-36 -30.5 q-24 -19 -57.5 -29t-67.5 -10h-209q-34 0 -68 10t-58 29q-11 7 -24.5 20.5t-26.5 27.5t-24.5 27.5t-17.5 22.5q-15 23 -21.5 50.5t-6.5 58.5zM178 1303h139l111 -136l109 136h139l-191 -238h-116z" />
<glyph unicode="&#x10e;" horiz-adv-x="1114" d="M100 0v1229h541q25 0 54 -8.5t50 -22.5q14 -8 34.5 -27t41 -41t38 -43t26.5 -34q14 -22 19 -47.5t5 -51.5v-682q0 -26 -5 -51t-19 -47q-9 -13 -26.5 -33.5t-38 -41.5t-41 -39.5t-34.5 -26.5q-21 -14 -50 -23.5t-54 -9.5h-541zM213 1589h139l111 -135l108 135h140 l-191 -237h-117zM219 115h412q17 0 26 6q12 6 30 20.5t36 32.5t34.5 38t26.5 38q3 6 5 12t2 14v674q0 17 -7 31q-10 18 -26.5 37.5t-34.5 37.5t-36 32t-30 20q-9 6 -26 6h-412v-999z" />
<glyph unicode="&#x10f;" horiz-adv-x="1061" d="M72 236v409q0 62 30 109q6 8 17.5 21t25 27.5t27 27.5t23.5 22q24 19 56.5 29t67.5 10h160q26 0 53 -13t50 -30q18 -14 38 -32.5t42 -41.5v455h110v-1084l12 -145h-110l-12 109q-20 -23 -41 -42.5t-39 -33.5q-23 -17 -50 -30t-53 -13h-160q-35 0 -67.5 10t-56.5 29 q-10 8 -23.5 21t-27 27.5t-25 27.5t-17.5 22q-30 46 -30 109zM182 240q0 -23 6 -35q7 -13 18.5 -28t25 -28.5t27.5 -25.5t26 -19q13 -8 37 -8h151q17 0 29 6t34.5 19.5t46 31t44 37t30.5 37.5q0 1 1 3l4 8v405l-5 10q-10 18 -30.5 38t-44 37t-46 30.5t-34.5 19.5t-29 6h-151 q-24 0 -37 -8q-12 -7 -26 -18.5t-27.5 -25t-25 -28.5t-18.5 -28q-6 -12 -6 -35v-401zM967 987l14 139v201h106v-227l-12 -113h-108z" />
<glyph unicode="&#x110;" horiz-adv-x="1176" d="M-16 557v115h178v557h540q25 0 54 -8.5t51 -22.5q14 -8 34.5 -27t41 -41t38 -43t25.5 -34q14 -22 19.5 -47.5t5.5 -51.5v-682q0 -26 -5.5 -51t-19.5 -47q-8 -13 -25.5 -33.5t-38 -41.5t-41 -39.5t-34.5 -26.5q-22 -14 -51 -23.5t-54 -9.5h-540v557h-178zM281 115h411 q8 0 15 1.5t12 4.5q12 6 30 20.5t36 32.5t34.5 38t26.5 38q6 12 6 26v674q0 19 -6 31q-10 18 -26.5 37.5t-34.5 37.5t-36 32t-30 20q-5 3 -12 4.5t-15 1.5h-411v-442h282v-115h-282v-442z" />
<glyph unicode="&#x111;" horiz-adv-x="979" d="M72 231v412q0 32 8.5 58t23.5 51q6 8 17.5 21t25 26.5l26.5 26.5l22 22q26 20 57.5 30.5t69.5 10.5h157q28 0 54 -13t49 -30q20 -16 40 -33.5t40 -40.5v238h-265v108h265v111h110v-111h111v-108h-111v-867l14 -145h-112l-12 108q-19 -24 -39.5 -43t-40.5 -34 q-23 -16 -49 -29.5t-54 -13.5h-157q-74 0 -127 39l-22 22t-26.5 27t-25 27t-17.5 22q-15 25 -23.5 52t-8.5 56zM184 238q0 -25 6 -37q6 -13 17 -27.5t24.5 -28t28 -25.5t27.5 -20q6 -5 15 -5.5t20 -0.5h151q9 0 16 0.5t13 5.5q13 6 35.5 19t46 30t44 36.5t31.5 37.5v4 q0 3 3 9v403q-3 4 -3 8v4q-11 18 -31.5 37.5t-44 37t-46 30.5t-35.5 18q-11 8 -29 8h-151q-24 0 -35 -8q-13 -8 -27.5 -19.5t-28 -25t-24.5 -28t-17 -27.5q-6 -12 -6 -35v-401z" />
<glyph unicode="&#x112;" horiz-adv-x="1020" d="M100 0v1229h705v-115h-586v-442h555v-115h-555v-442h586v-115h-705zM193 1423v103h520v-103h-520z" />
<glyph unicode="&#x113;" horiz-adv-x="969" d="M82 236v409q0 63 31 109q6 8 17 21.5t24 28t26.5 27.5t24.5 21q25 19 59 29t68 10h205q34 0 68 -10t59 -29q10 -8 23.5 -21t26.5 -27.5t24.5 -28t17.5 -21.5q15 -23 21.5 -50.5t6.5 -58.5v-252h-591v-153q0 -23 6 -35q7 -13 18 -28t24.5 -28.5t27.5 -25.5t26 -19 q13 -8 35 -8h215q22 0 37 8q12 7 26 19.5t27 26.5t24 28.5t17 26.5l2 4l108 -37q-6 -12 -12.5 -21.5t-15.5 -23.5q-6 -9 -17.5 -22.5t-24.5 -27.5t-26.5 -27.5t-23.5 -20.5q-25 -19 -58 -29t-67 -10h-209q-34 0 -68 10t-59 29q-11 7 -24.5 20.5t-26.5 27.5t-24 27.5 t-17 22.5q-31 46 -31 109zM172 1137v102h520v-102h-520zM193 498h481v143q0 11 -0.5 20t-3.5 15q-7 13 -19 28t-25.5 28.5t-28 25t-26.5 18.5q-13 8 -36 8h-203q-22 0 -35 -8q-12 -7 -26.5 -18.5t-28 -25t-25 -28.5t-18.5 -28q-6 -12 -6 -35v-143z" />
<glyph unicode="&#x114;" horiz-adv-x="1020" d="M100 0v1229h705v-115h-586v-442h555v-115h-555v-442h586v-115h-705zM260 1540h78q0 -24 9 -45t24.5 -37t36.5 -25.5t45 -9.5t45 9.5t37.5 25.5t26 37t9.5 45h78q0 -41 -15.5 -76t-42 -61.5t-62.5 -41.5t-76 -15q-41 0 -76 15t-61 41.5t-41 61.5t-15 76z" />
<glyph unicode="&#x115;" horiz-adv-x="969" d="M82 236v409q0 63 31 109q6 8 17 21.5t24 28t26.5 27.5t24.5 21q25 19 59 29t68 10h205q34 0 68 -10t59 -29q10 -8 23.5 -21t26.5 -27.5t24.5 -28t17.5 -21.5q15 -23 21.5 -50.5t6.5 -58.5v-252h-591v-153q0 -23 6 -35q7 -13 18 -28t24.5 -28.5t27.5 -25.5t26 -19 q13 -8 35 -8h215q22 0 37 8q12 7 26 19.5t27 26.5t24 28.5t17 26.5l2 4l108 -37q-6 -12 -12.5 -21.5t-15.5 -23.5q-6 -9 -17.5 -22.5t-24.5 -27.5t-26.5 -27.5t-23.5 -20.5q-25 -19 -58 -29t-67 -10h-209q-34 0 -68 10t-59 29q-11 7 -24.5 20.5t-26.5 27.5t-24 27.5 t-17 22.5q-31 46 -31 109zM193 498h481v143q0 11 -0.5 20t-3.5 15q-7 13 -19 28t-25.5 28.5t-28 25t-26.5 18.5q-13 8 -36 8h-203q-22 0 -35 -8q-12 -7 -26.5 -18.5t-28 -25t-25 -28.5t-18.5 -28q-6 -12 -6 -35v-143zM242 1253h77q0 -24 9 -45t25 -36.5t36.5 -25t44.5 -9.5 t45.5 9.5t38 25t26 36.5t9.5 45h78q0 -41 -15.5 -76t-42 -61.5t-62.5 -41.5t-77 -15t-76 15t-60.5 41.5t-40.5 61.5t-15 76z" />
<glyph unicode="&#x116;" horiz-adv-x="1020" d="M100 0v1229h705v-115h-586v-442h555v-115h-555v-442h586v-115h-705zM406 1368v158h155v-158h-155z" />
<glyph unicode="&#x117;" horiz-adv-x="969" d="M82 236v409q0 63 31 109q6 8 17 21.5t24 28t26.5 27.5t24.5 21q25 19 59 29t68 10h205q34 0 68 -10t59 -29q10 -8 23.5 -21t26.5 -27.5t24.5 -28t17.5 -21.5q15 -23 21.5 -50.5t6.5 -58.5v-252h-591v-153q0 -23 6 -35q7 -13 18 -28t24.5 -28.5t27.5 -25.5t26 -19 q13 -8 35 -8h215q22 0 37 8q12 7 26 19.5t27 26.5t24 28.5t17 26.5l2 4l108 -37q-6 -12 -12.5 -21.5t-15.5 -23.5q-6 -9 -17.5 -22.5t-24.5 -27.5t-26.5 -27.5t-23.5 -20.5q-25 -19 -58 -29t-67 -10h-209q-34 0 -68 10t-59 29q-11 7 -24.5 20.5t-26.5 27.5t-24 27.5 t-17 22.5q-31 46 -31 109zM193 498h481v143q0 11 -0.5 20t-3.5 15q-7 13 -19 28t-25.5 28.5t-28 25t-26.5 18.5q-13 8 -36 8h-203q-22 0 -35 -8q-12 -7 -26.5 -18.5t-28 -25t-25 -28.5t-18.5 -28q-6 -12 -6 -35v-143zM367 1081v158h155v-158h-155z" />
<glyph unicode="&#x118;" horiz-adv-x="1020" d="M100 0v1229h705v-115h-586v-442h555v-115h-555v-442h586v-115h-705zM651 -117l99 39l170 -266h-121z" />
<glyph unicode="&#x119;" horiz-adv-x="969" d="M82 236v409q0 63 31 109q6 8 17 21.5t24 28t26.5 27.5t24.5 21q25 19 59 29t68 10h205q34 0 68 -10t59 -29q10 -8 23.5 -21t26.5 -27.5t24.5 -28t17.5 -21.5q15 -23 21.5 -50.5t6.5 -58.5v-252h-591v-153q0 -23 6 -35q7 -13 18 -28t24.5 -28.5t27.5 -25.5t26 -19 q13 -8 35 -8h215q22 0 37 8q12 7 26 19.5t27 26.5t24 28.5t17 26.5l2 4l108 -37q-6 -12 -12.5 -21.5t-15.5 -23.5q-6 -9 -17.5 -22.5t-24.5 -27.5t-26.5 -27.5t-23.5 -20.5q-25 -19 -58 -29t-67 -10h-209q-34 0 -68 10t-59 29q-11 7 -24.5 20.5t-26.5 27.5t-24 27.5 t-17 22.5q-31 46 -31 109zM193 498h481v143q0 11 -0.5 20t-3.5 15q-7 13 -19 28t-25.5 28.5t-28 25t-26.5 18.5q-13 8 -36 8h-203q-22 0 -35 -8q-12 -7 -26.5 -18.5t-28 -25t-25 -28.5t-18.5 -28q-6 -12 -6 -35v-143zM301 -117l98 39l170 -266h-120z" />
<glyph unicode="&#x11a;" horiz-adv-x="1020" d="M100 0v1229h705v-115h-586v-442h555v-115h-555v-442h586v-115h-705zM217 1589h139l111 -135l108 135h140l-191 -237h-116z" />
<glyph unicode="&#x11b;" horiz-adv-x="969" d="M82 236v409q0 63 31 109q6 8 17 21.5t24 28t26.5 27.5t24.5 21q25 19 59 29t68 10h205q34 0 68 -10t59 -29q10 -8 23.5 -21t26.5 -27.5t24.5 -28t17.5 -21.5q15 -23 21.5 -50.5t6.5 -58.5v-252h-591v-153q0 -23 6 -35q7 -13 18 -28t24.5 -28.5t27.5 -25.5t26 -19 q13 -8 35 -8h215q22 0 37 8q12 7 26 19.5t27 26.5t24 28.5t17 26.5l2 4l108 -37q-6 -12 -12.5 -21.5t-15.5 -23.5q-6 -9 -17.5 -22.5t-24.5 -27.5t-26.5 -27.5t-23.5 -20.5q-25 -19 -58 -29t-67 -10h-209q-34 0 -68 10t-59 29q-11 7 -24.5 20.5t-26.5 27.5t-24 27.5 t-17 22.5q-31 46 -31 109zM193 498h481v143q0 11 -0.5 20t-3.5 15q-7 13 -19 28t-25.5 28.5t-28 25t-26.5 18.5q-13 8 -36 8h-203q-22 0 -35 -8q-12 -7 -26.5 -18.5t-28 -25t-25 -28.5t-18.5 -28q-6 -12 -6 -35v-143zM195 1303h139l110 -136l109 136h139l-190 -238h-117z " />
<glyph unicode="&#x11c;" horiz-adv-x="1182" d="M90 262v699q0 26 6.5 52t20.5 48q8 13 25.5 34t38 42.5t41 40t34.5 26.5q22 14 52 23.5t54 9.5h316q25 0 55 -9.5t51 -23.5q16 -10 34 -26t35 -34.5t32 -37t26 -33.5t24.5 -35.5t22.5 -42.5l-118 -34q-9 21 -26 45t-37 45.5t-40.5 39t-36.5 25.5q-5 3 -12.5 4.5 t-15.5 1.5h-301q-18 0 -27 -6q-12 -6 -30 -20.5t-36.5 -32.5t-35.5 -38t-27 -38q-6 -12 -6 -31v-690q0 -14 6 -26q10 -18 27 -38t35.5 -38t36.5 -32.5t30 -20.5q5 -4 13 -5.5t16 -1.5h295q8 0 14.5 1.5t11.5 5.5q12 6 30.5 20.5t37.5 33.5t36 39t27 38q6 12 6 26v297h-280 v113h399v-436q0 -23 3.5 -55.5t8.5 -67t10 -66.5t9 -53h-113l-14 100q-9 -11 -19 -22.5t-19.5 -22.5t-18.5 -19.5t-15 -12.5q-21 -14 -50 -23.5t-54 -9.5h-316q-24 0 -54 9.5t-52 23.5q-14 8 -34.5 26.5t-41 39.5t-38 41.5t-25.5 33.5q-14 22 -20.5 47t-6.5 51zM276 1352 l191 237h117l190 -237h-139l-111 139l-108 -139h-140z" />
<glyph unicode="&#x11d;" horiz-adv-x="1014" d="M82 236v409q0 31 6.5 58.5t22.5 50.5q6 8 17 21.5t24 28t26.5 27.5t24.5 21q25 19 60 29t67 10h172q26 0 53 -14t49 -29q19 -14 40.5 -34t41.5 -42l12 109h111l-14 -148v-842q0 -63 -29 -108q-6 -9 -17 -22.5t-24.5 -27.5t-27 -27.5t-23.5 -20.5q-25 -19 -60 -29t-67 -10 h-209q-32 0 -66 10t-59 29q-19 13 -36.5 31.5t-33 38t-28.5 39t-23 36.5l107 35l2 -4q5 -12 16 -26.5t24.5 -28.5t28.5 -26.5t27 -19.5q13 -8 35 -8h213q22 0 37 8q12 7 26.5 19t28 25.5t25 28.5t18.5 28q3 6 3.5 15t0.5 20v210q-20 -21 -40.5 -40t-39.5 -33 q-22 -16 -49 -29.5t-53 -13.5h-172q-32 0 -67 10t-60 29q-11 7 -24.5 20.5t-26.5 27.5t-24 27.5t-17 22.5q-16 23 -22.5 50.5t-6.5 58.5zM193 240q0 -23 6 -35q7 -13 18 -28t24.5 -28.5t27.5 -25.5t26 -19q13 -8 37 -8h164q8 0 16 1.5t14 4.5q13 7 34 21t43 31t43 36t34 37 l4 11v405l-4 10q-13 18 -34 37t-43 36.5t-43 31t-34 20.5q-6 3 -14 4.5t-16 1.5h-164q-24 0 -37 -8q-12 -7 -26 -18.5t-27.5 -25t-24.5 -28.5t-18 -28q-6 -12 -6 -35v-401zM213 1065l190 238h117l191 -238h-140l-110 139l-109 -139h-139z" />
<glyph unicode="&#x11e;" horiz-adv-x="1182" d="M90 262v699q0 26 6.5 52t20.5 48q8 13 25.5 34t38 42.5t41 40t34.5 26.5q22 14 52 23.5t54 9.5h316q25 0 55 -9.5t51 -23.5q16 -10 34 -26t35 -34.5t32 -37t26 -33.5t24.5 -35.5t22.5 -42.5l-118 -34q-9 21 -26 45t-37 45.5t-40.5 39t-36.5 25.5q-5 3 -12.5 4.5 t-15.5 1.5h-301q-18 0 -27 -6q-12 -6 -30 -20.5t-36.5 -32.5t-35.5 -38t-27 -38q-6 -12 -6 -31v-690q0 -14 6 -26q10 -18 27 -38t35.5 -38t36.5 -32.5t30 -20.5q5 -4 13 -5.5t16 -1.5h295q8 0 14.5 1.5t11.5 5.5q12 6 30.5 20.5t37.5 33.5t36 39t27 38q6 12 6 26v297h-280 v113h399v-436q0 -23 3.5 -55.5t8.5 -67t10 -66.5t9 -53h-113l-14 100q-9 -11 -19 -22.5t-19.5 -22.5t-18.5 -19.5t-15 -12.5q-21 -14 -50 -23.5t-54 -9.5h-316q-24 0 -54 9.5t-52 23.5q-14 8 -34.5 26.5t-41 39.5t-38 41.5t-25.5 33.5q-14 22 -20.5 47t-6.5 51zM328 1540h78 q0 -24 9 -45t24.5 -37t36 -25.5t44.5 -9.5t45.5 9.5t38 25.5t26 37t9.5 45h78q0 -41 -15.5 -76t-42 -61.5t-62.5 -41.5t-77 -15t-76 15t-60.5 41.5t-40.5 61.5t-15 76z" />
<glyph unicode="&#x11f;" horiz-adv-x="1014" d="M82 236v409q0 31 6.5 58.5t22.5 50.5q6 8 17 21.5t24 28t26.5 27.5t24.5 21q25 19 60 29t67 10h172q26 0 53 -14t49 -29q19 -14 40.5 -34t41.5 -42l12 109h111l-14 -148v-842q0 -63 -29 -108q-6 -9 -17 -22.5t-24.5 -27.5t-27 -27.5t-23.5 -20.5q-25 -19 -60 -29t-67 -10 h-209q-32 0 -66 10t-59 29q-19 13 -36.5 31.5t-33 38t-28.5 39t-23 36.5l107 35l2 -4q5 -12 16 -26.5t24.5 -28.5t28.5 -26.5t27 -19.5q13 -8 35 -8h213q22 0 37 8q12 7 26.5 19t28 25.5t25 28.5t18.5 28q3 6 3.5 15t0.5 20v210q-20 -21 -40.5 -40t-39.5 -33 q-22 -16 -49 -29.5t-53 -13.5h-172q-32 0 -67 10t-60 29q-11 7 -24.5 20.5t-26.5 27.5t-24 27.5t-17 22.5q-16 23 -22.5 50.5t-6.5 58.5zM193 240q0 -23 6 -35q7 -13 18 -28t24.5 -28.5t27.5 -25.5t26 -19q13 -8 37 -8h164q8 0 16 1.5t14 4.5q13 7 34 21t43 31t43 36t34 37 l4 11v405l-4 10q-13 18 -34 37t-43 36.5t-43 31t-34 20.5q-6 3 -14 4.5t-16 1.5h-164q-24 0 -37 -8q-12 -7 -26 -18.5t-27.5 -25t-24.5 -28.5t-18 -28q-6 -12 -6 -35v-401zM262 1253h78q0 -24 9 -45t24.5 -36.5t36.5 -25t45 -9.5t45 9.5t37.5 25t26 36.5t9.5 45h78 q0 -41 -15.5 -76t-42 -61.5t-62.5 -41.5t-76 -15q-41 0 -76 15t-61 41.5t-41 61.5t-15 76z" />
<glyph unicode="&#x120;" horiz-adv-x="1182" d="M90 262v699q0 26 6.5 52t20.5 48q8 13 25.5 34t38 42.5t41 40t34.5 26.5q22 14 52 23.5t54 9.5h316q25 0 55 -9.5t51 -23.5q16 -10 34 -26t35 -34.5t32 -37t26 -33.5t24.5 -35.5t22.5 -42.5l-118 -34q-9 21 -26 45t-37 45.5t-40.5 39t-36.5 25.5q-5 3 -12.5 4.5 t-15.5 1.5h-301q-18 0 -27 -6q-12 -6 -30 -20.5t-36.5 -32.5t-35.5 -38t-27 -38q-6 -12 -6 -31v-690q0 -14 6 -26q10 -18 27 -38t35.5 -38t36.5 -32.5t30 -20.5q5 -4 13 -5.5t16 -1.5h295q8 0 14.5 1.5t11.5 5.5q12 6 30.5 20.5t37.5 33.5t36 39t27 38q6 12 6 26v297h-280 v113h399v-436q0 -23 3.5 -55.5t8.5 -67t10 -66.5t9 -53h-113l-14 100q-9 -11 -19 -22.5t-19.5 -22.5t-18.5 -19.5t-15 -12.5q-21 -14 -50 -23.5t-54 -9.5h-316q-24 0 -54 9.5t-52 23.5q-14 8 -34.5 26.5t-41 39.5t-38 41.5t-25.5 33.5q-14 22 -20.5 47t-6.5 51zM477 1368 v158h156v-158h-156z" />
<glyph unicode="&#x121;" horiz-adv-x="1014" d="M82 236v409q0 31 6.5 58.5t22.5 50.5q6 8 17 21.5t24 28t26.5 27.5t24.5 21q25 19 60 29t67 10h172q26 0 53 -14t49 -29q19 -14 40.5 -34t41.5 -42l12 109h111l-14 -148v-842q0 -63 -29 -108q-6 -9 -17 -22.5t-24.5 -27.5t-27 -27.5t-23.5 -20.5q-25 -19 -60 -29t-67 -10 h-209q-32 0 -66 10t-59 29q-19 13 -36.5 31.5t-33 38t-28.5 39t-23 36.5l107 35l2 -4q5 -12 16 -26.5t24.5 -28.5t28.5 -26.5t27 -19.5q13 -8 35 -8h213q22 0 37 8q12 7 26.5 19t28 25.5t25 28.5t18.5 28q3 6 3.5 15t0.5 20v210q-20 -21 -40.5 -40t-39.5 -33 q-22 -16 -49 -29.5t-53 -13.5h-172q-32 0 -67 10t-60 29q-11 7 -24.5 20.5t-26.5 27.5t-24 27.5t-17 22.5q-16 23 -22.5 50.5t-6.5 58.5zM193 240q0 -23 6 -35q7 -13 18 -28t24.5 -28.5t27.5 -25.5t26 -19q13 -8 37 -8h164q8 0 16 1.5t14 4.5q13 7 34 21t43 31t43 36t34 37 l4 11v405l-4 10q-13 18 -34 37t-43 36.5t-43 31t-34 20.5q-6 3 -14 4.5t-16 1.5h-164q-24 0 -37 -8q-12 -7 -26 -18.5t-27.5 -25t-24.5 -28.5t-18 -28q-6 -12 -6 -35v-401zM365 1081v158h155v-158h-155z" />
<glyph unicode="&#x122;" horiz-adv-x="1182" d="M90 262v699q0 26 6.5 52t20.5 48q8 13 25.5 34t38 42.5t41 40t34.5 26.5q22 14 52 23.5t54 9.5h316q25 0 55 -9.5t51 -23.5q16 -10 34 -26t35 -34.5t32 -37t26 -33.5t24.5 -35.5t22.5 -42.5l-118 -34q-9 21 -26 45t-37 45.5t-40.5 39t-36.5 25.5q-5 3 -12.5 4.5 t-15.5 1.5h-301q-18 0 -27 -6q-12 -6 -30 -20.5t-36.5 -32.5t-35.5 -38t-27 -38q-6 -12 -6 -31v-690q0 -14 6 -26q10 -18 27 -38t35.5 -38t36.5 -32.5t30 -20.5q5 -4 13 -5.5t16 -1.5h295q8 0 14.5 1.5t11.5 5.5q12 6 30.5 20.5t37.5 33.5t36 39t27 38q6 12 6 26v297h-280 v113h399v-436q0 -23 3.5 -55.5t8.5 -67t10 -66.5t9 -53h-113l-14 100q-9 -11 -19 -22.5t-19.5 -22.5t-18.5 -19.5t-15 -12.5q-21 -14 -50 -23.5t-54 -9.5h-316q-24 0 -54 9.5t-52 23.5q-14 8 -34.5 26.5t-41 39.5t-38 41.5t-25.5 33.5q-14 22 -20.5 47t-6.5 51zM401 -344 l170 266l99 -39l-148 -227h-121z" />
<glyph unicode="&#x123;" horiz-adv-x="1014" d="M82 236v409q0 31 6.5 58.5t22.5 50.5q6 8 17 21.5t24 28t26.5 27.5t24.5 21q25 19 60 29t67 10h172q26 0 53 -14t49 -29q19 -14 40.5 -34t41.5 -42l12 109h111l-14 -148v-842q0 -63 -29 -108q-6 -9 -17 -22.5t-24.5 -27.5t-27 -27.5t-23.5 -20.5q-25 -19 -60 -29t-67 -10 h-209q-32 0 -66 10t-59 29q-19 13 -36.5 31.5t-33 38t-28.5 39t-23 36.5l107 35l2 -4q5 -12 16 -26.5t24.5 -28.5t28.5 -26.5t27 -19.5q13 -8 35 -8h213q22 0 37 8q12 7 26.5 19t28 25.5t25 28.5t18.5 28q3 6 3.5 15t0.5 20v210q-20 -21 -40.5 -40t-39.5 -33 q-22 -16 -49 -29.5t-53 -13.5h-172q-32 0 -67 10t-60 29q-11 7 -24.5 20.5t-26.5 27.5t-24 27.5t-17 22.5q-16 23 -22.5 50.5t-6.5 58.5zM193 240q0 -23 6 -35q7 -13 18 -28t24.5 -28.5t27.5 -25.5t26 -19q13 -8 37 -8h164q8 0 16 1.5t14 4.5q13 7 34 21t43 31t43 36t34 37 l4 11v405l-4 10q-13 18 -34 37t-43 36.5t-43 31t-34 20.5q-6 3 -14 4.5t-16 1.5h-164q-24 0 -37 -8q-12 -7 -26 -18.5t-27.5 -25t-24.5 -28.5t-18 -28q-6 -12 -6 -35v-401zM365 1116l170 266l98 -39l-148 -227h-120z" />
<glyph unicode="&#x124;" horiz-adv-x="1139" d="M100 0v1229h119v-557h580v557h119v-1229h-119v557h-580v-557h-119zM264 1352l191 237h116l191 -237h-139l-111 139l-109 -139h-139z" />
<glyph unicode="&#x125;" horiz-adv-x="971" d="M82 0v1229h111v-455q20 22 40.5 41t38.5 33q22 15 49.5 29t53.5 14h147q32 0 66 -10t59 -29q11 -8 24.5 -21t26.5 -27.5t24 -28t17 -21.5q31 -46 31 -109v-645h-111v641q0 23 -6 35q-7 13 -18 28t-24.5 28.5t-27.5 25t-26 18.5q-13 8 -37 8h-139q-8 0 -16.5 -1.5 t-14.5 -4.5q-13 -7 -34.5 -20t-44.5 -30t-43.5 -36.5t-30.5 -38.5q-2 -2 -2 -4t-2 -4v-645h-111zM188 1352l191 237h117l190 -237h-139l-111 139l-108 -139h-140z" />
<glyph unicode="&#x126;" horiz-adv-x="1139" d="M0 1001v115h100v113h119v-113h580v113h119v-113h106v-117h-106v-999h-119v557h-580v-557h-119v1001h-100zM219 672h580v327l-580 2v-329z" />
<glyph unicode="&#x127;" horiz-adv-x="971" d="M-10 1006v110h92v113h111v-113h282v-110h-282v-232q20 22 40.5 41t38.5 33q22 15 49.5 29t53.5 14h147q32 0 66 -10t59 -29q11 -8 24.5 -21t26.5 -27.5t24 -28t17 -21.5q31 -46 31 -109v-645h-111v641q0 23 -6 35q-7 13 -18 28t-24.5 28.5t-27.5 25t-26 18.5q-13 8 -37 8 h-139q-8 0 -16.5 -1.5t-14.5 -4.5q-13 -7 -34.5 -20t-44.5 -30t-43.5 -36.5t-30.5 -38.5q-2 -2 -2 -4t-2 -4v-645h-111v1006h-92z" />
<glyph unicode="&#x128;" horiz-adv-x="442" d="M-127 1391q10 36 33 63.5t53 44.5t65.5 21.5t71.5 -4.5l149 -37q32 -5 59.5 8.5t37.5 42.5l104 -24q-11 -36 -33.5 -64t-52.5 -44.5t-65.5 -21t-71.5 4.5l-150 37q-32 5 -59.5 -9t-36.5 -43zM100 0v1229h119v-1229h-119z" />
<glyph unicode="&#x129;" horiz-adv-x="422" d="M-133 1110q10 36 33 63.5t53 44.5t65.5 21.5t71.5 -4.5l149 -37q32 -5 59.5 8.5t37.5 42.5l104 -24q-11 -36 -33.5 -64t-52.5 -44.5t-65.5 -21t-71.5 4.5l-150 37q-32 5 -59.5 -9t-36.5 -43zM100 0v881h111v-881h-111z" />
<glyph unicode="&#x12a;" horiz-adv-x="442" d="M-96 1423v103h520v-103h-520zM100 0v1229h119v-1229h-119z" />
<glyph unicode="&#x12b;" horiz-adv-x="422" d="M-104 1137v102h520v-102h-520zM100 0v881h111v-881h-111z" />
<glyph unicode="&#x12c;" horiz-adv-x="442" d="M-33 1540h78q0 -24 9 -45t24.5 -37t36.5 -25.5t45 -9.5t45.5 9.5t38 25.5t26 37t9.5 45h77q0 -41 -15.5 -76t-42 -61.5t-62.5 -41.5t-76 -15q-41 0 -76 15t-61 41.5t-41 61.5t-15 76zM100 0v1229h119v-1229h-119z" />
<glyph unicode="&#x12d;" horiz-adv-x="422" d="M-37 1253h78q0 -24 9 -45t24.5 -36.5t36.5 -25t45 -9.5t45 9.5t37.5 25t26 36.5t9.5 45h78q0 -41 -15.5 -76t-42 -61.5t-62.5 -41.5t-76 -15q-41 0 -76 15t-61 41.5t-41 61.5t-15 76zM100 0v881h111v-881h-111z" />
<glyph unicode="&#x12e;" horiz-adv-x="442" d="M68 -117l98 39l170 -266h-121zM100 0v1229h119v-1229h-119z" />
<glyph unicode="&#x12f;" horiz-adv-x="422" d="M78 1081v158h155v-158h-155zM84 -117l98 39l170 -266h-121zM100 0v881h111v-881h-111z" />
<glyph unicode="&#x130;" horiz-adv-x="442" d="M96 1368v158h156v-158h-156zM100 0v1229h119v-1229h-119z" />
<glyph unicode="&#x131;" horiz-adv-x="422" d="M100 0v881h111v-881h-111z" />
<glyph unicode="&#x132;" horiz-adv-x="1339" d="M100 0v1229h119v-1229h-119zM428 233l115 33q10 -21 27 -44t36 -44.5t38.5 -39t35.5 -25.5q5 -3 14 -5t17 -2h143q13 0 25 7q12 6 30 20.5t36.5 32.5t35.5 38t27 38q3 6 5.5 12t2.5 14v961h119v-963q0 -26 -6.5 -52t-20.5 -48q-9 -13 -26 -33.5t-37 -41.5t-40 -39.5 t-34 -26.5q-22 -14 -52 -23.5t-55 -9.5h-159q-25 0 -55 9.5t-52 23.5q-16 10 -33.5 26t-34 34t-31.5 36t-26 33t-23.5 36.5t-21.5 42.5z" />
<glyph unicode="&#x133;" horiz-adv-x="821" d="M78 1081v158h155v-158h-155zM100 0v881h111v-881h-111zM256 -246q54 1 85 1.5t48 2t23 3t10 3.5q25 14 48.5 42.5t37.5 54.5q6 12 6 35v985h111v-990q0 -60 -31 -108q-6 -9 -17 -22.5t-23.5 -27.5t-26 -27.5t-23.5 -20.5q-25 -19 -59 -28t-66 -9h-123v106zM489 1081v158 h156v-158h-156z" />
<glyph unicode="&#x134;" horiz-adv-x="932" d="M20 233l115 33q11 -21 27.5 -44t35.5 -44.5t38.5 -39t35.5 -25.5q5 -3 14 -5t17 -2h143q14 0 25 7q12 6 30 20.5t36.5 32.5t35.5 38t27 38q3 6 5.5 12t2.5 14v961h119v-963q0 -26 -6.5 -52t-20.5 -48q-8 -13 -25.5 -33.5t-37.5 -41.5t-40 -39.5t-34 -26.5 q-21 -14 -51.5 -23.5t-54.5 -9.5h-160q-25 0 -55 9.5t-52 23.5q-16 10 -33.5 26t-34 34t-31.5 36t-25 33q-11 15 -23.5 36.5t-22.5 42.5zM422 1352l190 237h117l191 -237h-140l-110 139l-109 -139h-139z" />
<glyph unicode="&#x135;" horiz-adv-x="428" d="M-143 -246h127q11 0 19.5 0.5t16.5 5.5q12 7 26 19t27 25.5t24 28.5t18 28q6 12 6 35v985h110v-990q0 -62 -30 -108q-6 -9 -17 -22.5t-24 -27.5t-26 -27.5t-23 -20.5q-25 -19 -59 -28t-66 -9h-129v106zM-76 1065l191 238h116l191 -238h-139l-111 139l-109 -139h-139z" />
<glyph unicode="&#x136;" horiz-adv-x="1038" d="M100 0v1229h119v-559h25l508 559h155l-563 -615l565 -614h-155l-510 557h-25v-557h-119zM266 -344l170 266l99 -39l-148 -227h-121z" />
<glyph unicode="&#x137;" horiz-adv-x="877" d="M84 0v1229h111v-717h41l350 369h147l-401 -418l436 -463h-150l-380 408h-43v-408h-111zM127 -344l170 266l98 -39l-147 -227h-121z" />
<glyph unicode="&#x138;" horiz-adv-x="877" d="M84 0v881h111v-369h41l266 285q24 27 47 45q25 18 58 28.5t67 10.5h69v-107h-67q-11 0 -22 -1.5t-19 -6.5q-28 -15 -57 -47l-246 -256l436 -463h-150l-380 408h-43v-408h-111z" />
<glyph unicode="&#x139;" horiz-adv-x="932" d="M100 0v1229h119v-1114h574v-115h-693zM287 1366l174 227h143l-209 -264z" />
<glyph unicode="&#x13a;" horiz-adv-x="420" d="M94 115v1114h111v-1090q0 -34 7.5 -69.5t10.5 -69.5h-110q-3 26 -11 57.5t-8 57.5zM104 1366l175 227h143l-209 -264z" />
<glyph unicode="&#x13b;" horiz-adv-x="932" d="M100 0v1229h119v-1114h574v-115h-693zM311 -344l170 266l99 -39l-148 -227h-121z" />
<glyph unicode="&#x13c;" horiz-adv-x="420" d="M-18 -350l170 266l98 -39l-148 -227h-120zM94 115v1114h111v-1090q0 -34 7.5 -69.5t10.5 -69.5h-110q-3 26 -11 57.5t-8 57.5z" />
<glyph unicode="&#x13d;" horiz-adv-x="932" d="M100 0v1229h119v-1114h574v-115h-693zM498 889l14 139v201h106v-227l-12 -113h-108z" />
<glyph unicode="&#x13e;" horiz-adv-x="588" d="M94 115v1114h111v-1090q0 -34 7.5 -69.5t10.5 -69.5h-110q-3 26 -11 57.5t-8 57.5zM396 987l14 139v201h106v-227l-12 -113h-108z" />
<glyph unicode="&#x13f;" horiz-adv-x="932" d="M100 0v1229h119v-1114h574v-115h-693zM598 541v157h156v-157h-156z" />
<glyph unicode="&#x140;" horiz-adv-x="553" d="M94 115v1114h111v-1090q0 -34 7.5 -69.5t10.5 -69.5h-110q-3 26 -11 57.5t-8 57.5zM354 522v158h156v-158h-156z" />
<glyph unicode="&#x141;" horiz-adv-x="932" d="M-68 518l168 90v621h119v-557l143 76l46 -99l-189 -100v-434h574v-115h-693v485l-120 -65z" />
<glyph unicode="&#x142;" horiz-adv-x="555" d="M-23 516l170 90v623h111v-563l150 79l45 -100l-195 -104v-402q0 -34 7.5 -69.5t10.5 -69.5h-110q-3 26 -11 57.5t-8 57.5v366l-122 -65z" />
<glyph unicode="&#x143;" horiz-adv-x="1128" d="M102 0v1229h158l531 -1059v1059h114v-1229h-153l-535 1049v-1049h-115zM379 1366l174 227h143l-209 -264z" />
<glyph unicode="&#x144;" horiz-adv-x="985" d="M82 881h111l12 -103q18 20 38.5 38.5t37.5 31.5q21 15 48.5 29t53.5 14h154q34 0 68 -10t59 -29q10 -8 23.5 -21t26.5 -27.5t24.5 -28t17.5 -21.5q15 -23 21.5 -50.5t6.5 -58.5v-645h-110v641q0 11 -0.5 20t-3.5 15q-7 13 -19 28t-25.5 28.5t-28 25t-26.5 18.5 q-13 8 -36 8h-146q-16 0 -29 -6q-13 -7 -34 -20t-43.5 -29.5t-43 -35.5t-32.5 -38v-655h-111v735zM309 1079l174 228h144l-209 -265z" />
<glyph unicode="&#x145;" horiz-adv-x="1128" d="M102 0v1229h158l531 -1059v1059h114v-1229h-153l-535 1049v-1049h-115zM383 -344l170 266l98 -39l-147 -227h-121z" />
<glyph unicode="&#x146;" horiz-adv-x="985" d="M82 881h111l12 -103q18 20 38.5 38.5t37.5 31.5q21 15 48.5 29t53.5 14h154q34 0 68 -10t59 -29q10 -8 23.5 -21t26.5 -27.5t24.5 -28t17.5 -21.5q15 -23 21.5 -50.5t6.5 -58.5v-645h-110v641q0 11 -0.5 20t-3.5 15q-7 13 -19 28t-25.5 28.5t-28 25t-26.5 18.5 q-13 8 -36 8h-146q-16 0 -29 -6q-13 -7 -34 -20t-43.5 -29.5t-43 -35.5t-32.5 -38v-655h-111v735zM281 -344l170 266l98 -39l-148 -227h-120z" />
<glyph unicode="&#x147;" horiz-adv-x="1128" d="M102 0v1229h158l531 -1059v1059h114v-1229h-153l-535 1049v-1049h-115zM260 1589h139l111 -135l108 135h140l-191 -237h-116z" />
<glyph unicode="&#x148;" horiz-adv-x="985" d="M82 0zM82 881h111l12 -103q18 20 38.5 38.5t37.5 31.5q21 15 48.5 29t53.5 14h154q34 0 68 -10t59 -29q10 -8 23.5 -21t26.5 -27.5t24.5 -28t17.5 -21.5q15 -23 21.5 -50.5t6.5 -58.5v-645h-110v641q0 11 -0.5 20t-3.5 15q-7 13 -19 28t-25.5 28.5t-28 25t-26.5 18.5 q-13 8 -36 8h-146q-16 0 -29 -6q-13 -7 -34 -20t-43.5 -29.5t-43 -35.5t-32.5 -38v-655h-111v735zM213 1303h139l111 -136l109 136h139l-191 -238h-116z" />
<glyph unicode="&#x149;" horiz-adv-x="985" d="M-98 987l14 139v201h106v-227l-12 -113h-108zM0 0zM82 881h111l12 -103q18 20 38.5 38.5t37.5 31.5q21 15 48.5 29t53.5 14h154q34 0 68 -10t59 -29q10 -8 23.5 -21t26.5 -27.5t24.5 -28t17.5 -21.5q15 -23 21.5 -50.5t6.5 -58.5v-645h-110v641q0 11 -0.5 20t-3.5 15 q-7 13 -19 28t-25.5 28.5t-28 25t-26.5 18.5q-13 8 -36 8h-146q-16 0 -29 -6q-13 -7 -34 -20t-43.5 -29.5t-43 -35.5t-32.5 -38v-655h-111v735z" />
<glyph unicode="&#x14a;" horiz-adv-x="1128" d="M102 0v1229h158l531 -1059v1059h114l2 -1338q0 -62 -30 -108q-6 -9 -17 -22.5t-24 -27.5t-26 -27.5t-24 -20.5q-24 -19 -58 -28t-66 -9h-130v106h127q11 0 20 0.5t17 5.5q12 7 26 19t27 25.5t24 28.5t18 28q6 12 6 35l-45 104l-535 1049v-1049h-115z" />
<glyph unicode="&#x14b;" horiz-adv-x="985" d="M82 881h111l12 -103q18 20 38.5 38.5t37.5 31.5q21 15 48.5 29t53.5 14h154q34 0 68 -10t59 -29q10 -8 23.5 -21t26.5 -27.5t24.5 -28t17.5 -21.5q15 -23 21.5 -50.5t6.5 -58.5l-2 -754q0 -62 -30 -108q-6 -9 -17 -22.5t-24 -27.5t-26 -27.5t-23 -20.5q-25 -19 -59 -28 t-66 -9h-129v106h127q11 0 19.5 0.5t16.5 5.5q12 7 26 19t27 25.5t24 28.5t18 28q6 12 6 35l2 745q0 11 -0.5 20t-3.5 15q-7 13 -19 28t-25.5 28.5t-28 25t-26.5 18.5q-13 8 -36 8h-146q-16 0 -29 -6q-13 -7 -34 -20t-43.5 -29.5t-43 -35.5t-32.5 -38v-655h-111v735z" />
<glyph unicode="&#x14c;" horiz-adv-x="1153" d="M90 264v697q0 26 5.5 52t19.5 48q8 13 26 34t39 42.5t41.5 40t34.5 26.5q22 14 51 23.5t53 9.5h324q25 0 55 -9.5t52 -23.5q13 -8 33.5 -26.5t41 -40t38 -42.5t26.5 -34q14 -22 20 -48t6 -52v-697q0 -26 -6 -52t-20 -48q-9 -13 -26.5 -33.5t-38 -41.5t-41 -39.5 t-33.5 -26.5q-22 -14 -52 -23.5t-55 -9.5h-324q-24 0 -53 9.5t-51 23.5q-14 8 -34.5 26.5t-41.5 39.5t-39 41.5t-26 33.5q-14 22 -19.5 48t-5.5 52zM209 266q0 -8 2.5 -14t5.5 -12q10 -18 26.5 -38t34.5 -38t36 -32.5t30 -20.5q8 -7 27 -7h305q8 0 14.5 1.5t11.5 5.5 q12 6 30 20.5t37 32.5t35.5 38t26.5 38q7 11 7 26v690q0 8 -1.5 16.5t-5.5 14.5q-10 18 -26.5 38t-35.5 38t-37 32.5t-30 20.5q-9 6 -26 6h-305q-18 0 -27 -6q-12 -6 -30 -20.5t-36 -32.5t-34.5 -38t-26.5 -38q-3 -6 -5.5 -14.5t-2.5 -16.5v-690zM260 1423v103h520v-103 h-520z" />
<glyph unicode="&#x14d;" horiz-adv-x="967" d="M72 236v409q0 31 6.5 58.5t21.5 50.5q6 8 17.5 21.5t24.5 28t26.5 27.5t24.5 21q24 19 58 29t68 10h205q34 0 68 -10t59 -29q11 -8 24.5 -21t26.5 -27.5t24 -28t17 -21.5q16 -23 22.5 -50.5t6.5 -58.5v-409q0 -31 -6.5 -58.5t-22.5 -50.5q-6 -9 -17 -22.5t-24 -27.5 t-26.5 -27.5t-24.5 -20.5q-25 -19 -59 -29t-68 -10h-205q-34 0 -68 10t-58 29q-11 7 -24.5 20.5t-26.5 27.5t-24.5 27.5t-17.5 22.5q-15 23 -21.5 50.5t-6.5 58.5zM166 1137v102h520v-102h-520zM182 240q0 -23 6 -35q7 -13 18.5 -28t25 -28.5t27.5 -25.5t26 -19q13 -8 37 -8 h200q24 0 37 8q12 7 26.5 19t28 25.5t25 28.5t18.5 28q4 6 4.5 15t0.5 20v401q0 11 -0.5 20t-4.5 15q-7 13 -18.5 28t-25 28.5t-28 25t-26.5 18.5q-13 8 -37 8h-200q-24 0 -37 -8q-12 -7 -26 -18.5t-27.5 -25t-25 -28.5t-18.5 -28q-6 -12 -6 -35v-401z" />
<glyph unicode="&#x14e;" horiz-adv-x="1153" d="M90 264v697q0 26 5.5 52t19.5 48q8 13 26 34t39 42.5t41.5 40t34.5 26.5q22 14 51 23.5t53 9.5h324q25 0 55 -9.5t52 -23.5q13 -8 33.5 -26.5t41 -40t38 -42.5t26.5 -34q14 -22 20 -48t6 -52v-697q0 -26 -6 -52t-20 -48q-9 -13 -26.5 -33.5t-38 -41.5t-41 -39.5 t-33.5 -26.5q-22 -14 -52 -23.5t-55 -9.5h-324q-24 0 -53 9.5t-51 23.5q-14 8 -34.5 26.5t-41.5 39.5t-39 41.5t-26 33.5q-14 22 -19.5 48t-5.5 52zM209 266q0 -8 2.5 -14t5.5 -12q10 -18 26.5 -38t34.5 -38t36 -32.5t30 -20.5q8 -7 27 -7h305q8 0 14.5 1.5t11.5 5.5 q12 6 30 20.5t37 32.5t35.5 38t26.5 38q7 11 7 26v690q0 8 -1.5 16.5t-5.5 14.5q-10 18 -26.5 38t-35.5 38t-37 32.5t-30 20.5q-9 6 -26 6h-305q-18 0 -27 -6q-12 -6 -30 -20.5t-36 -32.5t-34.5 -38t-26.5 -38q-3 -6 -5.5 -14.5t-2.5 -16.5v-690zM336 1540h78q0 -24 9 -45 t24.5 -37t36 -25.5t44.5 -9.5t45.5 9.5t38 25.5t26 37t9.5 45h78q0 -41 -15.5 -76t-42 -61.5t-62.5 -41.5t-77 -15t-76 15t-60.5 41.5t-40.5 61.5t-15 76z" />
<glyph unicode="&#x14f;" horiz-adv-x="967" d="M72 236v409q0 31 6.5 58.5t21.5 50.5q6 8 17.5 21.5t24.5 28t26.5 27.5t24.5 21q24 19 58 29t68 10h205q34 0 68 -10t59 -29q11 -8 24.5 -21t26.5 -27.5t24 -28t17 -21.5q16 -23 22.5 -50.5t6.5 -58.5v-409q0 -31 -6.5 -58.5t-22.5 -50.5q-6 -9 -17 -22.5t-24 -27.5 t-26.5 -27.5t-24.5 -20.5q-25 -19 -59 -29t-68 -10h-205q-34 0 -68 10t-58 29q-11 7 -24.5 20.5t-26.5 27.5t-24.5 27.5t-17.5 22.5q-15 23 -21.5 50.5t-6.5 58.5zM182 240q0 -23 6 -35q7 -13 18.5 -28t25 -28.5t27.5 -25.5t26 -19q13 -8 37 -8h200q24 0 37 8q12 7 26.5 19 t28 25.5t25 28.5t18.5 28q4 6 4.5 15t0.5 20v401q0 11 -0.5 20t-4.5 15q-7 13 -18.5 28t-25 28.5t-28 25t-26.5 18.5q-13 8 -37 8h-200q-24 0 -37 -8q-12 -7 -26 -18.5t-27.5 -25t-25 -28.5t-18.5 -28q-6 -12 -6 -35v-401zM231 1253h78q0 -24 9 -45t24.5 -36.5t36.5 -25 t45 -9.5t45.5 9.5t38 25t26 36.5t9.5 45h78q0 -41 -15.5 -76t-42.5 -61.5t-63 -41.5t-76 -15q-41 0 -76 15t-61 41.5t-41 61.5t-15 76z" />
<glyph unicode="&#x150;" horiz-adv-x="1153" d="M90 264v697q0 26 5.5 52t19.5 48q8 13 26 34t39 42.5t41.5 40t34.5 26.5q22 14 51 23.5t53 9.5h324q25 0 55 -9.5t52 -23.5q13 -8 33.5 -26.5t41 -40t38 -42.5t26.5 -34q14 -22 20 -48t6 -52v-697q0 -26 -6 -52t-20 -48q-9 -13 -26.5 -33.5t-38 -41.5t-41 -39.5 t-33.5 -26.5q-22 -14 -52 -23.5t-55 -9.5h-324q-24 0 -53 9.5t-51 23.5q-14 8 -34.5 26.5t-41.5 39.5t-39 41.5t-26 33.5q-14 22 -19.5 48t-5.5 52zM209 266q0 -8 2.5 -14t5.5 -12q10 -18 26.5 -38t34.5 -38t36 -32.5t30 -20.5q8 -7 27 -7h305q8 0 14.5 1.5t11.5 5.5 q12 6 30 20.5t37 32.5t35.5 38t26.5 38q7 11 7 26v690q0 8 -1.5 16.5t-5.5 14.5q-10 18 -26.5 38t-35.5 38t-37 32.5t-30 20.5q-9 6 -26 6h-305q-18 0 -27 -6q-12 -6 -30 -20.5t-36 -32.5t-34.5 -38t-26.5 -38q-3 -6 -5.5 -14.5t-2.5 -16.5v-690zM317 1356l175 227h133 l-209 -264zM516 1356l174 227h133l-209 -264z" />
<glyph unicode="&#x151;" horiz-adv-x="967" d="M72 236v409q0 31 6.5 58.5t21.5 50.5q6 8 17.5 21.5t24.5 28t26.5 27.5t24.5 21q24 19 58 29t68 10h205q34 0 68 -10t59 -29q11 -8 24.5 -21t26.5 -27.5t24 -28t17 -21.5q16 -23 22.5 -50.5t6.5 -58.5v-409q0 -31 -6.5 -58.5t-22.5 -50.5q-6 -9 -17 -22.5t-24 -27.5 t-26.5 -27.5t-24.5 -20.5q-25 -19 -59 -29t-68 -10h-205q-34 0 -68 10t-58 29q-11 7 -24.5 20.5t-26.5 27.5t-24.5 27.5t-17.5 22.5q-15 23 -21.5 50.5t-6.5 58.5zM182 240q0 -23 6 -35q7 -13 18.5 -28t25 -28.5t27.5 -25.5t26 -19q13 -8 37 -8h200q24 0 37 8q12 7 26.5 19 t28 25.5t25 28.5t18.5 28q4 6 4.5 15t0.5 20v401q0 11 -0.5 20t-4.5 15q-7 13 -18.5 28t-25 28.5t-28 25t-26.5 18.5q-13 8 -37 8h-200q-24 0 -37 -8q-12 -7 -26 -18.5t-27.5 -25t-25 -28.5t-18.5 -28q-6 -12 -6 -35v-401zM229 1079l174 228h134l-209 -265zM428 1079 l174 228h133l-209 -265z" />
<glyph unicode="&#x152;" horiz-adv-x="1718" d="M90 264v697q0 26 5.5 52t19.5 48q8 13 26 34t39 42.5t41.5 40t34.5 26.5q22 14 51 23.5t53 9.5h304q24 0 54 -9.5t52 -23.5q9 -6 22 -16.5t27 -24.5v66h684v-115h-567v-442h537v-115h-537v-442h567v-115h-684v61q-14 -12 -27 -22t-22 -16q-22 -14 -52 -23.5t-54 -9.5 h-304q-24 0 -53 9.5t-51 23.5q-14 8 -34.5 26.5t-41.5 39.5t-39 41.5t-26 33.5q-14 22 -19.5 48t-5.5 52zM209 266q0 -8 2.5 -14t5.5 -12q10 -18 26.5 -38t34.5 -38t36 -32.5t30 -20.5q8 -7 27 -7h284q19 0 27 7q12 6 30 20.5t36.5 32.5t35.5 38t27 38q6 12 6 26v690 q0 19 -6 31q-10 18 -27 38t-35.5 38t-36.5 32.5t-30 20.5t-27 6h-284q-18 0 -27 -6q-12 -6 -30 -20.5t-36 -32.5t-34.5 -38t-26.5 -38q-3 -6 -5.5 -14.5t-2.5 -16.5v-690z" />
<glyph unicode="&#x153;" horiz-adv-x="1548" d="M72 236v409q0 31 6.5 58.5t21.5 50.5q6 8 17.5 21.5t24.5 28t26.5 27.5t24.5 21q24 19 58 29t68 10h205q34 0 68 -10t59 -29q14 -11 32 -29t34 -37q15 19 34 37t33 29q25 19 59 29t68 10h205q34 0 68 -10t59 -29q11 -8 24.5 -21t26.5 -27.5t24 -28t17 -21.5 q16 -23 22.5 -50.5t6.5 -58.5v-244h-592v-165q0 -22 6 -31q7 -13 19 -28t25.5 -28.5t28 -25.5t26.5 -19q13 -8 34 -8h213q24 0 37 8q12 7 26 19.5t27 26.5t24 28.5t17 26.5l2 4l109 -37q-6 -12 -12.5 -22.5t-16.5 -22.5q-6 -9 -17 -22.5t-24 -27.5t-26.5 -27.5t-24.5 -20.5 q-25 -19 -58 -29t-67 -10h-209q-34 0 -68 10t-59 29q-14 9 -33 28t-34 37q-16 -18 -34 -37t-32 -28q-25 -19 -59 -29t-68 -10h-205q-34 0 -68 10t-58 29q-11 7 -24.5 20.5t-26.5 27.5t-24.5 27.5t-17.5 22.5q-15 23 -21.5 50.5t-6.5 58.5zM182 240q0 -23 6 -35 q7 -13 18.5 -28t25 -28.5t27.5 -25.5t26 -19q13 -8 37 -8h200q24 0 37 8q12 7 26.5 19t28 25.5t25 28.5t18.5 28q4 5 4.5 13t0.5 18v405q0 11 -0.5 20t-4.5 15q-7 13 -18.5 28t-25 28.5t-28 25t-26.5 18.5q-13 8 -37 8h-200q-24 0 -37 -8q-12 -7 -26 -18.5t-27.5 -25 t-25 -28.5t-18.5 -28q-6 -12 -6 -35v-401zM772 508h481v133q0 11 -0.5 20t-3.5 15q-7 13 -18.5 28t-25 28.5t-28 25t-26.5 18.5q-8 5 -17 6.5t-20 1.5h-203q-21 0 -34 -8q-12 -7 -26.5 -18.5t-28 -25t-25.5 -28.5t-19 -28q-6 -12 -6 -35v-133z" />
<glyph unicode="&#x154;" horiz-adv-x="1128" d="M100 0v1229h553q32 0 64 -10.5t57 -28.5q10 -8 25.5 -22.5t31.5 -31t29 -31.5t19 -24q30 -45 30 -106v-180q0 -61 -30 -107q-6 -8 -19 -23t-29 -31t-31.5 -30.5t-25.5 -21.5q-51 -39 -115 -39l306 -543h-136l-303 543h-307v-543h-119zM219 657h432q22 0 35 9q12 7 27 18 t29 24.5t25.5 28t18.5 27.5q4 6 4.5 15.5t0.5 19.5v172q0 9 -0.5 18.5t-4.5 16.5q-7 13 -18.5 28t-25.5 29t-29 26t-27 19q-8 5 -16.5 5.5t-18.5 0.5h-432v-457zM297 1366l174 227h143l-208 -264z" />
<glyph unicode="&#x155;" horiz-adv-x="852" d="M80 881h113l12 -105l39.5 39.5t38.5 32.5q21 15 48.5 29t53.5 14h102q34 0 67.5 -10t57.5 -29q11 -8 24 -21t26 -27.5t23.5 -28t16.5 -21.5q10 -13 18 -25t13 -20l-106 -35q-8 12 -20 26.5t-25.5 29t-27.5 27t-26 19.5q-13 8 -36 8h-101q-8 0 -16 -1.5t-15 -4.5 q-13 -7 -35 -20t-45 -30t-44 -36.5t-31 -38.5v-653h-111v735zM244 1079l174 228h143l-209 -265z" />
<glyph unicode="&#x156;" horiz-adv-x="1128" d="M100 0v1229h553q32 0 64 -10.5t57 -28.5q10 -8 25.5 -22.5t31.5 -31t29 -31.5t19 -24q30 -45 30 -106v-180q0 -61 -30 -107q-6 -8 -19 -23t-29 -31t-31.5 -30.5t-25.5 -21.5q-51 -39 -115 -39l306 -543h-136l-303 543h-307v-543h-119zM217 -344l170 266l98 -39l-147 -227 h-121zM219 657h432q22 0 35 9q12 7 27 18t29 24.5t25.5 28t18.5 27.5q4 6 4.5 15.5t0.5 19.5v172q0 9 -0.5 18.5t-4.5 16.5q-7 13 -18.5 28t-25.5 29t-29 26t-27 19q-8 5 -16.5 5.5t-18.5 0.5h-432v-457z" />
<glyph unicode="&#x157;" horiz-adv-x="852" d="M70 -344l170 266l98 -39l-148 -227h-120zM80 881h113l12 -105l39.5 39.5t38.5 32.5q21 15 48.5 29t53.5 14h102q34 0 67.5 -10t57.5 -29q11 -8 24 -21t26 -27.5t23.5 -28t16.5 -21.5q10 -13 18 -25t13 -20l-106 -35q-8 12 -20 26.5t-25.5 29t-27.5 27t-26 19.5 q-13 8 -36 8h-101q-8 0 -16 -1.5t-15 -4.5q-13 -7 -35 -20t-45 -30t-44 -36.5t-31 -38.5v-653h-111v735z" />
<glyph unicode="&#x158;" horiz-adv-x="1128" d="M100 0v1229h553q32 0 64 -10.5t57 -28.5q10 -8 25.5 -22.5t31.5 -31t29 -31.5t19 -24q30 -45 30 -106v-180q0 -61 -30 -107q-6 -8 -19 -23t-29 -31t-31.5 -30.5t-25.5 -21.5q-51 -39 -115 -39l306 -543h-136l-303 543h-307v-543h-119zM219 657h432q22 0 35 9q12 7 27 18 t29 24.5t25.5 28t18.5 27.5q4 6 4.5 15.5t0.5 19.5v172q0 9 -0.5 18.5t-4.5 16.5q-7 13 -18.5 28t-25.5 29t-29 26t-27 19q-8 5 -16.5 5.5t-18.5 0.5h-432v-457zM219 1589h139l111 -135l109 135h139l-191 -237h-116z" />
<glyph unicode="&#x159;" horiz-adv-x="852" d="M80 881h113l12 -105l39.5 39.5t38.5 32.5q21 15 48.5 29t53.5 14h102q34 0 67.5 -10t57.5 -29q11 -8 24 -21t26 -27.5t23.5 -28t16.5 -21.5q10 -13 18 -25t13 -20l-106 -35q-8 12 -20 26.5t-25.5 29t-27.5 27t-26 19.5q-13 8 -36 8h-101q-8 0 -16 -1.5t-15 -4.5 q-13 -7 -35 -20t-45 -30t-44 -36.5t-31 -38.5v-653h-111v735zM180 1303h139l111 -136l109 136h139l-191 -238h-116z" />
<glyph unicode="&#x15a;" horiz-adv-x="1122" d="M59 0zM59 231l117 33q6 -14 10 -19q2 -4 4 -5q11 -19 27 -39t33.5 -37.5t34.5 -31.5t30 -21q5 -4 13 -5.5t16 -1.5h326q16 0 24 7q12 6 30 19t37 30t35.5 36t26.5 37q6 13 6 27v131q0 31 -18 59.5t-47 36.5l-561 154q-30 9 -53.5 28t-40 45t-25 57t-8.5 63v127q0 26 5 52 t19 48q9 13 27 34t39 42.5t41.5 40t34.5 26.5q21 14 50 23.5t54 9.5h305q25 0 54 -9.5t51 -23.5q16 -10 34 -26t35 -34t32 -36t26 -33t24.5 -36.5t22.5 -43.5l-119 -34q-3 7 -5.5 12t-4.5 8q-3 4 -4 6q-10 18 -26 38t-33.5 38t-35 32t-30.5 21q-5 3 -12 4.5t-15 1.5h-289 q-17 0 -26 -6q-12 -6 -30 -18.5t-36 -29t-34.5 -35t-26.5 -36.5q-3 -6 -5.5 -12t-2.5 -14v-129q0 -31 17.5 -57.5t45.5 -34.5l559 -156q30 -9 54 -27.5t41.5 -44t26.5 -56.5t9 -63v-139q0 -26 -5 -52t-19 -48q-9 -13 -27 -33.5t-39 -41.5t-41.5 -39.5t-34.5 -26.5 q-21 -14 -50 -23.5t-54 -9.5h-340q-25 0 -55 9.5t-52 23.5q-16 10 -34 26t-35 34t-32 36t-26 33t-23 36.5t-22 42.5zM410 1366l174 228h143l-209 -265z" />
<glyph unicode="&#x15b;" horiz-adv-x="956" d="M43 172l107 37q6 -13 17 -28.5t24.5 -30t28 -27t26.5 -19.5q13 -8 37 -8h247q22 0 35 8q25 14 50.5 40.5t39.5 52.5q7 14 7 34v74q0 31 -23 52t-55 24l-338 25q-38 3 -70.5 18.5t-56.5 40t-37.5 57t-13.5 70.5v61q0 62 30 109q6 8 16 20.5t21.5 25t23.5 24.5t23 20 q25 19 59 29t66 10h213q32 0 66 -10t59 -29q11 -8 24.5 -21t26.5 -27.5t24 -28t17 -21.5q10 -13 18 -25t11 -20l-107 -37q-6 13 -17.5 28.5t-25 30t-28.5 26.5t-27 19q-13 8 -35 8h-217q-22 0 -37 -8q-24 -14 -49 -39t-39 -51q-6 -12 -6 -35v-61q0 -31 23 -52t55 -24 l338 -27q37 -3 69.5 -18.5t56.5 -40t38 -57.5t14 -70v-74q0 -62 -31 -108q-6 -9 -16 -21t-21.5 -25t-23.5 -25t-23 -19q-24 -19 -58.5 -29t-66.5 -10h-245q-32 0 -66 10t-59 29q-11 7 -24 20t-26 27t-23.5 27t-16.5 22l-17 25.5t-12 21.5zM287 1079l174 228h143l-209 -265z " />
<glyph unicode="&#x15c;" horiz-adv-x="1122" d="M59 0zM59 231l117 33q6 -14 10 -19q2 -4 4 -5q11 -19 27 -39t33.5 -37.5t34.5 -31.5t30 -21q5 -4 13 -5.5t16 -1.5h326q16 0 24 7q12 6 30 19t37 30t35.5 36t26.5 37q6 13 6 27v131q0 31 -18 59.5t-47 36.5l-561 154q-30 9 -53.5 28t-40 45t-25 57t-8.5 63v127q0 26 5 52 t19 48q9 13 27 34t39 42.5t41.5 40t34.5 26.5q21 14 50 23.5t54 9.5h305q25 0 54 -9.5t51 -23.5q16 -10 34 -26t35 -34t32 -36t26 -33t24.5 -36.5t22.5 -43.5l-119 -34q-3 7 -5.5 12t-4.5 8q-3 4 -4 6q-10 18 -26 38t-33.5 38t-35 32t-30.5 21q-5 3 -12 4.5t-15 1.5h-289 q-17 0 -26 -6q-12 -6 -30 -18.5t-36 -29t-34.5 -35t-26.5 -36.5q-3 -6 -5.5 -12t-2.5 -14v-129q0 -31 17.5 -57.5t45.5 -34.5l559 -156q30 -9 54 -27.5t41.5 -44t26.5 -56.5t9 -63v-139q0 -26 -5 -52t-19 -48q-9 -13 -27 -33.5t-39 -41.5t-41.5 -39.5t-34.5 -26.5 q-21 -14 -50 -23.5t-54 -9.5h-340q-25 0 -55 9.5t-52 23.5q-16 10 -34 26t-35 34t-32 36t-26 33t-23 36.5t-22 42.5zM254 1352l191 238h116l191 -238h-139l-111 139l-109 -139h-139z" />
<glyph unicode="&#x15d;" horiz-adv-x="956" d="M43 172l107 37q6 -13 17 -28.5t24.5 -30t28 -27t26.5 -19.5q13 -8 37 -8h247q22 0 35 8q25 14 50.5 40.5t39.5 52.5q7 14 7 34v74q0 31 -23 52t-55 24l-338 25q-38 3 -70.5 18.5t-56.5 40t-37.5 57t-13.5 70.5v61q0 62 30 109q6 8 16 20.5t21.5 25t23.5 24.5t23 20 q25 19 59 29t66 10h213q32 0 66 -10t59 -29q11 -8 24.5 -21t26.5 -27.5t24 -28t17 -21.5q10 -13 18 -25t11 -20l-107 -37q-6 13 -17.5 28.5t-25 30t-28.5 26.5t-27 19q-13 8 -35 8h-217q-22 0 -37 -8q-24 -14 -49 -39t-39 -51q-6 -12 -6 -35v-61q0 -31 23 -52t55 -24 l338 -27q37 -3 69.5 -18.5t56.5 -40t38 -57.5t14 -70v-74q0 -62 -31 -108q-6 -9 -16 -21t-21.5 -25t-23.5 -25t-23 -19q-24 -19 -58.5 -29t-66.5 -10h-245q-32 0 -66 10t-59 29q-11 7 -24 20t-26 27t-23.5 27t-16.5 22l-17 25.5t-12 21.5zM180 1065l191 238h116l191 -238 h-139l-111 139l-109 -139h-139z" />
<glyph unicode="&#x15e;" horiz-adv-x="1122" d="M59 0zM59 231l117 33q6 -14 10 -19q2 -4 4 -5q11 -19 27 -39t33.5 -37.5t34.5 -31.5t30 -21q5 -4 13 -5.5t16 -1.5h326q16 0 24 7q12 6 30 19t37 30t35.5 36t26.5 37q6 13 6 27v131q0 31 -18 59.5t-47 36.5l-561 154q-30 9 -53.5 28t-40 45t-25 57t-8.5 63v127q0 26 5 52 t19 48q9 13 27 34t39 42.5t41.5 40t34.5 26.5q21 14 50 23.5t54 9.5h305q25 0 54 -9.5t51 -23.5q16 -10 34 -26t35 -34t32 -36t26 -33t24.5 -36.5t22.5 -43.5l-119 -34q-3 7 -5.5 12t-4.5 8q-3 4 -4 6q-10 18 -26 38t-33.5 38t-35 32t-30.5 21q-5 3 -12 4.5t-15 1.5h-289 q-17 0 -26 -6q-12 -6 -30 -18.5t-36 -29t-34.5 -35t-26.5 -36.5q-3 -6 -5.5 -12t-2.5 -14v-129q0 -31 17.5 -57.5t45.5 -34.5l559 -156q30 -9 54 -27.5t41.5 -44t26.5 -56.5t9 -63v-139q0 -26 -5 -52t-19 -48q-9 -13 -27 -33.5t-39 -41.5t-41.5 -39.5t-34.5 -26.5 q-21 -14 -50 -23.5t-54 -9.5h-340q-25 0 -55 9.5t-52 23.5q-16 10 -34 26t-35 34t-32 36t-26 33t-23 36.5t-22 42.5zM342 -344l170 266l98 -39l-147 -227h-121z" />
<glyph unicode="&#x15f;" horiz-adv-x="956" d="M43 172l107 37q6 -13 17 -28.5t24.5 -30t28 -27t26.5 -19.5q13 -8 37 -8h247q22 0 35 8q25 14 50.5 40.5t39.5 52.5q7 14 7 34v74q0 31 -23 52t-55 24l-338 25q-38 3 -70.5 18.5t-56.5 40t-37.5 57t-13.5 70.5v61q0 62 30 109q6 8 16 20.5t21.5 25t23.5 24.5t23 20 q25 19 59 29t66 10h213q32 0 66 -10t59 -29q11 -8 24.5 -21t26.5 -27.5t24 -28t17 -21.5q10 -13 18 -25t11 -20l-107 -37q-6 13 -17.5 28.5t-25 30t-28.5 26.5t-27 19q-13 8 -35 8h-217q-22 0 -37 -8q-24 -14 -49 -39t-39 -51q-6 -12 -6 -35v-61q0 -31 23 -52t55 -24 l338 -27q37 -3 69.5 -18.5t56.5 -40t38 -57.5t14 -70v-74q0 -62 -31 -108q-6 -9 -16 -21t-21.5 -25t-23.5 -25t-23 -19q-24 -19 -58.5 -29t-66.5 -10h-245q-32 0 -66 10t-59 29q-11 7 -24 20t-26 27t-23.5 27t-16.5 22l-17 25.5t-12 21.5zM219 -344l170 266l98 -39 l-147 -227h-121z" />
<glyph unicode="&#x160;" horiz-adv-x="1122" d="M59 0zM59 231l117 33q6 -14 10 -19q2 -4 4 -5q11 -19 27 -39t33.5 -37.5t34.5 -31.5t30 -21q5 -4 13 -5.5t16 -1.5h326q16 0 24 7q12 6 30 19t37 30t35.5 36t26.5 37q6 13 6 27v131q0 31 -18 59.5t-47 36.5l-561 154q-30 9 -53.5 28t-40 45t-25 57t-8.5 63v127q0 26 5 52 t19 48q9 13 27 34t39 42.5t41.5 40t34.5 26.5q21 14 50 23.5t54 9.5h305q25 0 54 -9.5t51 -23.5q16 -10 34 -26t35 -34t32 -36t26 -33t24.5 -36.5t22.5 -43.5l-119 -34q-3 7 -5.5 12t-4.5 8q-3 4 -4 6q-10 18 -26 38t-33.5 38t-35 32t-30.5 21q-5 3 -12 4.5t-15 1.5h-289 q-17 0 -26 -6q-12 -6 -30 -18.5t-36 -29t-34.5 -35t-26.5 -36.5q-3 -6 -5.5 -12t-2.5 -14v-129q0 -31 17.5 -57.5t45.5 -34.5l559 -156q30 -9 54 -27.5t41.5 -44t26.5 -56.5t9 -63v-139q0 -26 -5 -52t-19 -48q-9 -13 -27 -33.5t-39 -41.5t-41.5 -39.5t-34.5 -26.5 q-21 -14 -50 -23.5t-54 -9.5h-340q-25 0 -55 9.5t-52 23.5q-16 10 -34 26t-35 34t-32 36t-26 33t-23 36.5t-22 42.5zM243 1590h139l111 -136l109 136h139l-191 -238h-116z" />
<glyph unicode="&#x161;" horiz-adv-x="956" d="M43 172l107 37q6 -13 17 -28.5t24.5 -30t28 -27t26.5 -19.5q13 -8 37 -8h247q22 0 35 8q25 14 50.5 40.5t39.5 52.5q7 14 7 34v74q0 31 -23 52t-55 24l-338 25q-38 3 -70.5 18.5t-56.5 40t-37.5 57t-13.5 70.5v61q0 62 30 109q6 8 16 20.5t21.5 25t23.5 24.5t23 20 q25 19 59 29t66 10h213q32 0 66 -10t59 -29q11 -8 24.5 -21t26.5 -27.5t24 -28t17 -21.5q10 -13 18 -25t11 -20l-107 -37q-6 13 -17.5 28.5t-25 30t-28.5 26.5t-27 19q-13 8 -35 8h-217q-22 0 -37 -8q-24 -14 -49 -39t-39 -51q-6 -12 -6 -35v-61q0 -31 23 -52t55 -24 l338 -27q37 -3 69.5 -18.5t56.5 -40t38 -57.5t14 -70v-74q0 -62 -31 -108q-6 -9 -16 -21t-21.5 -25t-23.5 -25t-23 -19q-24 -19 -58.5 -29t-66.5 -10h-245q-32 0 -66 10t-59 29q-11 7 -24 20t-26 27t-23.5 27t-16.5 22l-17 25.5t-12 21.5zM180 1303h139l111 -136l109 136 h139l-191 -238h-116z" />
<glyph unicode="&#x162;" d="M20 1114v115h820v-115h-351v-1114h-118v1114h-351zM264 -344l170 266l98 -39l-147 -227h-121z" />
<glyph unicode="&#x163;" horiz-adv-x="690" d="M20 774v107h146v348h110v-348h271v-107h-271v-524q0 -11 2 -22t5 -17q7 -13 17.5 -27t23 -27t26 -24t25.5 -18q8 -5 19 -7t22 -2h129v-106h-131q-34 0 -67 10t-58 29q-11 7 -24.5 20.5t-26.5 28t-24 28t-17 21.5q-31 46 -31 109v528h-146zM219 -344l170 266l98 -39 l-147 -227h-121z" />
<glyph unicode="&#x164;" d="M20 1114v115h820v-115h-351v-1114h-118v1114h-351zM180 1589h139l111 -135l109 135h139l-191 -237h-116z" />
<glyph unicode="&#x165;" horiz-adv-x="770" d="M20 774v107h146v348h110v-348h271v-107h-271v-524q0 -11 2 -22t5 -17q7 -13 17.5 -27t23 -27t26 -24t25.5 -18q8 -5 19 -7t22 -2h129v-106h-131q-34 0 -67 10t-58 29q-11 7 -24.5 20.5t-26.5 28t-24 28t-17 21.5q-31 46 -31 109v528h-146zM621 987l14 139v201h106v-227 l-12 -113h-108z" />
<glyph unicode="&#x166;" d="M18 1114v115h820v-115h-351v-444h185v-107h-185v-563h-118v563h-185v107h185v444h-351z" />
<glyph unicode="&#x167;" horiz-adv-x="690" d="M20 557v109h148v106h-145v107h145v348h108v-348h271v-107h-271v-106h271v-109h-271v-309q0 -11 2.5 -22t4.5 -17q7 -13 18 -27t23.5 -27t25.5 -24t25 -18q8 -5 20 -7t23 -2h129v-106h-133q-34 0 -66.5 10t-58.5 29q-11 7 -24 20.5t-26 28t-24 28t-18 21.5 q-16 23 -22.5 50.5t-6.5 58.5v313h-148z" />
<glyph unicode="&#x168;" horiz-adv-x="1120" d="M100 262v967h119v-963q0 -8 2.5 -14t5.5 -12q10 -18 27 -38t35.5 -38t36.5 -32.5t30 -20.5q5 -4 12 -5.5t15 -1.5h254q17 0 27 7q12 6 29 20.5t35 32.5t34 38t26 38q4 6 6.5 12t2.5 14v963h118v-967q0 -26 -5 -51t-19 -47q-9 -13 -26.5 -33.5t-38 -41.5t-41 -39.5 t-33.5 -26.5q-22 -14 -51 -23.5t-54 -9.5h-274q-25 0 -55 9.5t-52 23.5q-14 8 -34 26.5t-40.5 39.5t-38 41.5t-26.5 33.5q-27 43 -27 98zM209 1391q10 36 33 63.5t53 44.5t65.5 21.5t71.5 -4.5l149 -37q32 -5 59.5 8.5t37.5 42.5l104 -24q-11 -36 -33.5 -64t-52.5 -44.5 t-65.5 -21t-71.5 4.5l-150 37q-32 5 -59.5 -9t-36.5 -43z" />
<glyph unicode="&#x169;" horiz-adv-x="971" d="M74 236v645h110v-641q0 -11 0.5 -20t3.5 -15q7 -13 19 -28t25.5 -28.5t28 -25.5t26.5 -19q13 -8 37 -8h145q15 0 29 6q13 7 34 20.5t44 30t43.5 35.5t31.5 37v656h111v-736l14 -145h-110l-13 102q-18 -20 -38 -38.5t-37 -30.5q-22 -16 -49.5 -29.5t-53.5 -13.5h-153 q-35 0 -69 10t-58 29q-11 7 -24.5 20.5t-26.5 27.5t-24.5 27.5t-17.5 22.5q-15 23 -21.5 50.5t-6.5 58.5zM137 1110q10 36 33 63.5t53 44.5t65.5 21.5t71.5 -4.5l149 -37q32 -5 59.5 8.5t37.5 42.5l104 -24q-11 -36 -33.5 -64t-52.5 -44.5t-65.5 -21t-71.5 4.5l-150 37 q-32 5 -59.5 -9t-36.5 -43z" />
<glyph unicode="&#x16a;" horiz-adv-x="1120" d="M100 262v967h119v-963q0 -8 2.5 -14t5.5 -12q10 -18 27 -38t35.5 -38t36.5 -32.5t30 -20.5q5 -4 12 -5.5t15 -1.5h254q17 0 27 7q12 6 29 20.5t35 32.5t34 38t26 38q4 6 6.5 12t2.5 14v963h118v-967q0 -26 -5 -51t-19 -47q-9 -13 -26.5 -33.5t-38 -41.5t-41 -39.5 t-33.5 -26.5q-22 -14 -51 -23.5t-54 -9.5h-274q-25 0 -55 9.5t-52 23.5q-14 8 -34 26.5t-40.5 39.5t-38 41.5t-26.5 33.5q-27 43 -27 98zM256 1423v103h520v-103h-520z" />
<glyph unicode="&#x16b;" horiz-adv-x="971" d="M74 236v645h110v-641q0 -11 0.5 -20t3.5 -15q7 -13 19 -28t25.5 -28.5t28 -25.5t26.5 -19q13 -8 37 -8h145q15 0 29 6q13 7 34 20.5t44 30t43.5 35.5t31.5 37v656h111v-736l14 -145h-110l-13 102q-18 -20 -38 -38.5t-37 -30.5q-22 -16 -49.5 -29.5t-53.5 -13.5h-153 q-35 0 -69 10t-58 29q-11 7 -24.5 20.5t-26.5 27.5t-24.5 27.5t-17.5 22.5q-15 23 -21.5 50.5t-6.5 58.5zM147 1137v102h521v-102h-521z" />
<glyph unicode="&#x16c;" horiz-adv-x="1120" d="M100 262v967h119v-963q0 -8 2.5 -14t5.5 -12q10 -18 27 -38t35.5 -38t36.5 -32.5t30 -20.5q5 -4 12 -5.5t15 -1.5h254q17 0 27 7q12 6 29 20.5t35 32.5t34 38t26 38q4 6 6.5 12t2.5 14v963h118v-967q0 -26 -5 -51t-19 -47q-9 -13 -26.5 -33.5t-38 -41.5t-41 -39.5 t-33.5 -26.5q-22 -14 -51 -23.5t-54 -9.5h-274q-25 0 -55 9.5t-52 23.5q-14 8 -34 26.5t-40.5 39.5t-38 41.5t-26.5 33.5q-27 43 -27 98zM326 1540h77q0 -24 9 -45t25 -37t36.5 -25.5t44.5 -9.5t45.5 9.5t38 25.5t26 37t9.5 45h78q0 -41 -15.5 -76t-42 -61.5t-62.5 -41.5 t-77 -15t-76 15t-60.5 41.5t-40.5 61.5t-15 76z" />
<glyph unicode="&#x16d;" horiz-adv-x="971" d="M74 236v645h110v-641q0 -11 0.5 -20t3.5 -15q7 -13 19 -28t25.5 -28.5t28 -25.5t26.5 -19q13 -8 37 -8h145q15 0 29 6q13 7 34 20.5t44 30t43.5 35.5t31.5 37v656h111v-736l14 -145h-110l-13 102q-18 -20 -38 -38.5t-37 -30.5q-22 -16 -49.5 -29.5t-53.5 -13.5h-153 q-35 0 -69 10t-58 29q-11 7 -24.5 20.5t-26.5 27.5t-24.5 27.5t-17.5 22.5q-15 23 -21.5 50.5t-6.5 58.5zM225 1253h78q0 -24 9 -45t24.5 -36.5t36.5 -25t45 -9.5t45.5 9.5t38 25t26 36.5t9.5 45h77q0 -41 -15.5 -76t-42 -61.5t-62.5 -41.5t-76 -15q-41 0 -76 15t-61 41.5 t-41 61.5t-15 76z" />
<glyph unicode="&#x16e;" horiz-adv-x="1120" d="M100 262v967h119v-963q0 -8 2.5 -14t5.5 -12q10 -18 27 -38t35.5 -38t36.5 -32.5t30 -20.5q5 -4 12 -5.5t15 -1.5h254q17 0 27 7q12 6 29 20.5t35 32.5t34 38t26 38q4 6 6.5 12t2.5 14v963h118v-967q0 -26 -5 -51t-19 -47q-9 -13 -26.5 -33.5t-38 -41.5t-41 -39.5 t-33.5 -26.5q-22 -14 -51 -23.5t-54 -9.5h-274q-25 0 -55 9.5t-52 23.5q-14 8 -34 26.5t-40.5 39.5t-38 41.5t-26.5 33.5q-27 43 -27 98zM324 1534q0 40 15 76t40.5 62t60.5 41.5t76 15.5t77 -15.5t62.5 -41.5t42 -62t15.5 -76q0 -41 -15.5 -76.5t-42 -62t-62.5 -41.5 t-77 -15t-76 15t-60.5 41.5t-40.5 62t-15 76.5zM401 1534q0 -24 9 -45.5t25 -37t36.5 -25t44.5 -9.5t45.5 9.5t38 25t26 37t9.5 45.5t-9.5 45t-26 37t-38 25.5t-45.5 9.5t-44.5 -9.5t-36.5 -25.5t-25 -37t-9 -45z" />
<glyph unicode="&#x16f;" horiz-adv-x="971" d="M74 236v645h110v-641q0 -11 0.5 -20t3.5 -15q7 -13 19 -28t25.5 -28.5t28 -25.5t26.5 -19q13 -8 37 -8h145q15 0 29 6q13 7 34 20.5t44 30t43.5 35.5t31.5 37v656h111v-736l14 -145h-110l-13 102q-18 -20 -38 -38.5t-37 -30.5q-22 -16 -49.5 -29.5t-53.5 -13.5h-153 q-35 0 -69 10t-58 29q-11 7 -24.5 20.5t-26.5 27.5t-24.5 27.5t-17.5 22.5q-15 23 -21.5 50.5t-6.5 58.5zM231 1227q0 40 15 75.5t41 62t61 41.5t76 15q40 0 76 -15t63 -41.5t42.5 -62t15.5 -75.5q0 -41 -15.5 -76.5t-42.5 -62t-63 -41.5t-76 -15q-41 0 -76 15t-61 41.5 t-41 62t-15 76.5zM309 1227q0 -24 9 -45.5t24.5 -37t36.5 -25t45 -9.5t45.5 9.5t38 25t26 37t9.5 45.5t-9.5 45t-26 36.5t-38 25t-45.5 9.5t-45 -9.5t-36.5 -25t-24.5 -36.5t-9 -45z" />
<glyph unicode="&#x170;" horiz-adv-x="1120" d="M100 262v967h119v-963q0 -8 2.5 -14t5.5 -12q10 -18 27 -38t35.5 -38t36.5 -32.5t30 -20.5q5 -4 12 -5.5t15 -1.5h254q17 0 27 7q12 6 29 20.5t35 32.5t34 38t26 38q4 6 6.5 12t2.5 14v963h118v-967q0 -26 -5 -51t-19 -47q-9 -13 -26.5 -33.5t-38 -41.5t-41 -39.5 t-33.5 -26.5q-22 -14 -51 -23.5t-54 -9.5h-274q-25 0 -55 9.5t-52 23.5q-14 8 -34 26.5t-40.5 39.5t-38 41.5t-26.5 33.5q-27 43 -27 98zM317 1366l175 227h133l-209 -264zM516 1366l174 227h133l-209 -264z" />
<glyph unicode="&#x171;" horiz-adv-x="971" d="M74 236v645h110v-641q0 -11 0.5 -20t3.5 -15q7 -13 19 -28t25.5 -28.5t28 -25.5t26.5 -19q13 -8 37 -8h145q15 0 29 6q13 7 34 20.5t44 30t43.5 35.5t31.5 37v656h111v-736l14 -145h-110l-13 102q-18 -20 -38 -38.5t-37 -30.5q-22 -16 -49.5 -29.5t-53.5 -13.5h-153 q-35 0 -69 10t-58 29q-11 7 -24.5 20.5t-26.5 27.5t-24.5 27.5t-17.5 22.5q-15 23 -21.5 50.5t-6.5 58.5zM229 1079l174 228h134l-209 -265zM428 1079l174 228h133l-209 -265z" />
<glyph unicode="&#x172;" horiz-adv-x="1120" d="M100 262v967h119v-963q0 -8 2.5 -14t5.5 -12q10 -18 27 -38t35.5 -38t36.5 -32.5t30 -20.5q5 -4 12 -5.5t15 -1.5h254q17 0 27 7q12 6 29 20.5t35 32.5t34 38t26 38q4 6 6.5 12t2.5 14v963h118v-967q0 -26 -5 -51t-19 -47q-9 -13 -26.5 -33.5t-38 -41.5t-41 -39.5 t-33.5 -26.5q-22 -14 -51 -23.5t-54 -9.5h-274q-25 0 -55 9.5t-52 23.5q-14 8 -34 26.5t-40.5 39.5t-38 41.5t-26.5 33.5q-27 43 -27 98zM367 -117l98 39l170 -266h-121z" />
<glyph unicode="&#x173;" horiz-adv-x="971" d="M74 236v645h110v-641q0 -11 0.5 -20t3.5 -15q7 -13 19 -28t25.5 -28.5t28 -25.5t26.5 -19q13 -8 37 -8h145q15 0 29 6q13 7 34 20.5t44 30t43.5 35.5t31.5 37v656h111v-736l14 -145h-110l-13 102q-18 -20 -38 -38.5t-37 -30.5q-22 -16 -49.5 -29.5t-53.5 -13.5h-153 q-35 0 -69 10t-58 29q-11 7 -24.5 20.5t-26.5 27.5t-24.5 27.5t-17.5 22.5q-15 23 -21.5 50.5t-6.5 58.5zM301 -117l98 39l170 -266h-120z" />
<glyph unicode="&#x174;" horiz-adv-x="1499" d="M10 1229h123l229 -1100h13l241 1100h154l252 -1100h12l219 1100h127l-266 -1229h-170l-250 1071l-241 -1071h-170zM446 1352l191 237h117l190 -237h-139l-111 139l-108 -139h-140z" />
<glyph unicode="&#x175;" horiz-adv-x="1360" d="M10 881h119l209 -762h12l201 762h158l209 -762h12l200 762h117l-248 -881h-153l-217 752l-209 -752h-154zM381 1065l190 238h117l191 -238h-140l-110 139l-109 -139h-139z" />
<glyph unicode="&#x176;" horiz-adv-x="915" d="M-35 1229h131l310 -584l313 584h129l-383 -705v-524h-119v524zM156 1352l190 237h117l190 -237h-139l-111 139l-108 -139h-139z" />
<glyph unicode="&#x177;" horiz-adv-x="860" d="M10 881h119l242 -768h12l242 768h118l-399 -1225h-117l117 344h-47zM129 1065l190 238h117l191 -238h-140l-110 139l-109 -139h-139z" />
<glyph unicode="&#x178;" horiz-adv-x="915" d="M-35 1229h131l310 -584l313 584h129l-383 -705v-524h-119v524zM184 1368v158h156v-158h-156zM483 1368v158h156v-158h-156z" />
<glyph unicode="&#x179;" horiz-adv-x="983" d="M78 0v102l602 1012h-602v115h745v-107l-598 -1007h598v-115h-745zM391 1366l174 227h144l-209 -264z" />
<glyph unicode="&#x17a;" horiz-adv-x="864" d="M61 774v107h617v-101l-461 -674h483v-106h-622v98l463 676h-480zM250 1079l174 228h143l-209 -265z" />
<glyph unicode="&#x17b;" horiz-adv-x="983" d="M78 0v102l602 1012h-602v115h745v-107l-598 -1007h598v-115h-745zM379 1368v158h156v-158h-156z" />
<glyph unicode="&#x17c;" horiz-adv-x="864" d="M61 774v107h617v-101l-461 -674h483v-106h-622v98l463 676h-480zM293 1081v158h156v-158h-156z" />
<glyph unicode="&#x17d;" horiz-adv-x="983" d="M78 0v102l602 1012h-602v115h745v-107l-598 -1007h598v-115h-745zM203 1589h139l111 -135l108 135h139l-190 -237h-117z" />
<glyph unicode="&#x17e;" horiz-adv-x="864" d="M61 774v107h617v-101l-461 -674h483v-106h-622v98l463 676h-480zM145 1303h140l110 -136l109 136h139l-190 -238h-117z" />
<glyph unicode="&#x17f;" horiz-adv-x="606" d="M41 774v107h145v112q0 64 29 109q6 8 17 21.5t24.5 28t26.5 27.5t24 21q25 19 59 28t68 9h131v-107h-129q-11 0 -23 -0.5t-20 -5.5q-12 -7 -25.5 -18t-26 -24.5t-23 -28t-17.5 -27.5q-3 -6 -3.5 -16t-0.5 -21v-989h-111v774h-145z" />
<glyph unicode="&#x18f;" horiz-adv-x="1182" d="M113 995q9 22 22.5 42.5t24.5 35.5q10 15 25.5 33.5t32.5 37t35 34.5t34 26q21 14 51 23.5t55 9.5h316q24 0 54 -9.5t52 -23.5q14 -8 34.5 -26.5t41 -40t38 -42.5t25.5 -34q14 -22 20.5 -48t6.5 -52v-699q0 -26 -6.5 -51t-20.5 -47q-8 -13 -25.5 -33.5t-38 -41.5 t-41 -39.5t-34.5 -26.5q-22 -14 -52 -23.5t-54 -9.5h-316q-25 0 -55 9.5t-51 23.5q-14 8 -34.5 26.5t-41 39.5t-38 41.5t-26.5 33.5q-14 22 -20 47t-6 51v416h741v278q0 19 -6 31q-10 18 -27 38t-35.5 38t-36.5 32.5t-30 20.5q-9 6 -27 6h-301q-8 0 -15.5 -1.5t-12.5 -4.5 q-16 -8 -36.5 -25.5t-40.5 -39t-37 -45.5t-26 -45zM240 266q0 -14 6 -26q10 -18 26.5 -38t35.5 -38t37 -32.5t30 -20.5q5 -4 12.5 -5.5t15.5 -1.5h295q8 0 16 1.5t13 5.5q12 6 30 20.5t36.5 32.5t35.5 38t27 38q6 12 6 26v199v100h-622v-299z" />
<glyph unicode="&#x192;" horiz-adv-x="627" d="M-80 -246h127q11 0 20 0.5t17 5.5q12 7 26 19t27.5 25.5t24.5 28.5t18 28q6 12 6 35v878h-145v107h143h2v112q0 64 29 109q6 8 17 21.5t24.5 28t26.5 27.5t24 21q25 19 59 28t68 9h131v-107h-129q-11 0 -23 -0.5t-20 -5.5q-12 -7 -25.5 -18t-26 -24.5t-23 -28 t-17.5 -27.5q-3 -6 -3.5 -16t-0.5 -21v-108h154v-107h-154v-774v-109q0 -62 -31 -108q-6 -9 -17 -22.5t-24 -27.5t-26.5 -27.5t-24.5 -20.5q-25 -19 -59 -28t-66 -9h-129v106z" />
<glyph unicode="&#x1dd;" horiz-adv-x="965" d="M72 0zM72 709q6 12 12.5 21.5t15.5 23.5q6 9 17.5 22.5t24.5 27.5t26.5 27.5t24.5 20.5q24 19 57.5 29t67.5 10h208q35 0 69 -10t58 -29q11 -7 24.5 -20.5t26.5 -27.5t24.5 -27.5t17.5 -22.5q30 -46 30 -109v-409q0 -62 -30 -109q-6 -8 -17.5 -21.5t-24.5 -28 t-26.5 -27.5t-24.5 -21q-24 -19 -58 -29t-69 -10h-204q-34 0 -68.5 10t-58.5 29q-11 8 -24.5 21t-26.5 27.5t-24 28t-17 21.5q-16 23 -22.5 50.5t-6.5 58.5v252h592v153q0 23 -6 35q-7 13 -18.5 28t-25 28.5t-27.5 25.5t-26 19q-13 8 -34 8h-216q-23 0 -36 -8 q-12 -7 -26 -19.5t-27.5 -26.5t-24.5 -28.5t-17 -26.5l-2 -4zM184 240q0 -11 0.5 -20t4.5 -15q7 -13 18.5 -28t25 -28.5t28 -25t26.5 -18.5q13 -8 37 -8h202q22 0 35 8q12 7 26.5 18.5t28 25t25.5 28.5t19 28q6 12 6 35v143h-482v-143z" />
<glyph unicode="&#x1fc;" horiz-adv-x="1522" d="M-6 0l412 1229h901v-115h-553v-442h524v-115h-524v-442h553v-115h-672v283h-420l-92 -283h-129zM0 0zM250 397h385v715h-150zM666 1427l174 228h143l-209 -265z" />
<glyph unicode="&#x1fd;" horiz-adv-x="1530" d="M41 0zM41 233v41q0 63 31 109q6 9 17 22t24 26.5t26 26.5t23 21q25 19 57.5 29t67.5 10h356v137q0 13 -4 21q-7 13 -18.5 28t-25 28.5t-28 25t-26.5 18.5q-15 8 -37 8h-193q-20 0 -35 -8q-12 -7 -25.5 -18.5t-27 -26t-25 -29.5t-20.5 -28l-106 35q5 8 12 20.5t18 26.5 q7 10 18.5 23t24.5 27t26 26.5t24 21.5q24 19 55.5 28t66.5 9h189q35 0 68.5 -10t58.5 -29q15 -9 33.5 -28t33.5 -38q16 19 34 37t32 29q25 19 59 29t68 10h205q34 0 68 -10t59 -29q10 -8 23.5 -21t26.5 -27.5t24.5 -28t17.5 -21.5q29 -45 29 -109v-244h-592v-174 q0 -13 6 -22q7 -13 18.5 -28t25 -28.5t28 -25.5t26.5 -19q13 -8 35 -8h213q11 0 20 1.5t17 6.5q12 7 26 19.5t27 26.5t24 28.5t17 26.5l2 4l109 -37q-7 -12 -13.5 -22.5t-15.5 -22.5q-6 -9 -17 -22.5t-24.5 -27.5t-27 -27.5t-23.5 -20.5q-25 -19 -58 -29t-67 -10h-209 q-34 0 -68 10t-59 29q-14 9 -33 29t-35 38q-15 -18 -33 -38t-32 -29q-25 -19 -59 -29t-68 -10h-219q-35 0 -67.5 10t-57.5 29q-10 8 -23 21t-26 26.5t-24 26.5t-17 22q-31 46 -31 108zM152 233q0 -20 6 -32q7 -13 18 -27t23.5 -27.5t26.5 -24.5t26 -18q13 -8 37 -8h215 q22 0 37 8q12 7 26.5 19t28 25.5t25 28.5t18.5 28q4 8 4 16v191h-354q-24 0 -37 -9q-12 -7 -26 -18t-26.5 -24t-23.5 -27t-18 -27q-6 -12 -6 -33v-41zM606 1079l174 228h143l-209 -265zM754 508h481v133q0 11 -0.5 20t-3.5 15q-7 13 -19 28t-25.5 28.5t-27.5 25t-26 18.5 q-15 8 -37 8h-203q-22 0 -35 -8q-12 -7 -26.5 -18.5t-28 -25t-25 -28.5t-18.5 -28q-6 -9 -6 -25v-143z" />
<glyph unicode="&#x1fe;" horiz-adv-x="1161" d="M90 0zM90 264v697q0 26 5.5 52t19.5 48q8 13 26 34t39 42.5t41.5 40t34.5 26.5q22 14 51 23.5t53 9.5h324q23 0 51 -8t49 -21l37 68h121l-76 -141q20 -22 37.5 -42t26.5 -32q14 -22 20 -48t6 -52v-697q0 -26 -6 -52t-20 -48q-9 -13 -26.5 -33.5t-38 -41.5t-41 -39.5 t-33.5 -26.5q-22 -14 -52 -23.5t-55 -9.5h-324q-20 0 -43 6.5t-43 15.5l-36 -69h-123l71 137q-23 23 -42.5 46.5t-28.5 37.5q-14 22 -19.5 48t-5.5 52zM209 266q0 -8 2.5 -14t5.5 -12q6 -11 14 -22t17 -23l479 905l-25 16q-9 6 -26 6h-305q-18 0 -27 -6q-12 -6 -30 -20.5 t-36 -32.5t-34.5 -38t-26.5 -38q-3 -6 -5.5 -14.5t-2.5 -16.5v-690zM330 119l14 -8q8 -7 27 -7h305q8 0 14.5 1.5t11.5 5.5q12 6 30 20.5t37 32.5t35.5 38t26.5 38q7 11 7 26v690q0 8 -1.5 16.5t-5.5 14.5q-5 8 -10.5 17t-13.5 18zM422 1427l174 228h143l-209 -265z" />
<glyph unicode="&#x1ff;" horiz-adv-x="987" d="M72 0zM72 236v409q0 31 6.5 58.5t21.5 50.5q6 8 17.5 21.5t24.5 28t26.5 27.5t24.5 21q24 19 58 29t68 10h226q14 0 28.5 -1.5t28.5 -6.5l25 47h112l-49 -94q22 -19 42.5 -43.5t31.5 -38.5q29 -45 29 -109v-409q0 -64 -29 -109q-6 -9 -17 -22.5t-24.5 -27.5t-27 -27.5 t-23.5 -20.5q-25 -19 -59 -29t-68 -10h-226q-15 0 -31.5 1.5t-31.5 6.5l-25 -47h-114l51 98q-20 19 -39 41.5t-29 36.5q-15 23 -21.5 50.5t-6.5 58.5zM182 240q0 -23 6 -35q7 -11 15.5 -24t19.5 -25l328 628h-8h-221q-24 0 -37 -8q-12 -7 -26 -18.5t-27.5 -25t-25 -28.5 t-18.5 -28q-6 -12 -6 -35v-401zM307 96h15h221q22 0 37 8q12 7 26 19t27.5 25.5t25.5 28.5t19 28q3 6 3.5 15t0.5 20v401q0 11 -0.5 20t-3.5 15q-8 12 -18.5 26.5t-24.5 28.5zM324 1079l174 228h143l-209 -265z" />
<glyph unicode="&#x218;" horiz-adv-x="1122" d="M59 0zM59 231l117 33q6 -14 10 -19q2 -4 4 -5q11 -19 27 -39t33.5 -37.5t34.5 -31.5t30 -21q5 -4 13 -5.5t16 -1.5h326q16 0 24 7q12 6 30 19t37 30t35.5 36t26.5 37q6 13 6 27v131q0 31 -18 59.5t-47 36.5l-561 154q-30 9 -53.5 28t-40 45t-25 57t-8.5 63v127q0 26 5 52 t19 48q9 13 27 34t39 42.5t41.5 40t34.5 26.5q21 14 50 23.5t54 9.5h305q25 0 54 -9.5t51 -23.5q16 -10 34 -26t35 -34t32 -36t26 -33t24.5 -36.5t22.5 -43.5l-119 -34q-3 7 -5.5 12t-4.5 8q-3 4 -4 6q-10 18 -26 38t-33.5 38t-35 32t-30.5 21q-5 3 -12 4.5t-15 1.5h-289 q-17 0 -26 -6q-12 -6 -30 -18.5t-36 -29t-34.5 -35t-26.5 -36.5q-3 -6 -5.5 -12t-2.5 -14v-129q0 -31 17.5 -57.5t45.5 -34.5l559 -156q30 -9 54 -27.5t41.5 -44t26.5 -56.5t9 -63v-139q0 -26 -5 -52t-19 -48q-9 -13 -27 -33.5t-39 -41.5t-41.5 -39.5t-34.5 -26.5 q-21 -14 -50 -23.5t-54 -9.5h-340q-25 0 -55 9.5t-52 23.5q-16 10 -34 26t-35 34t-32 36t-26 33t-23 36.5t-22 42.5zM342 -344l170 266l98 -39l-147 -227h-121z" />
<glyph unicode="&#x219;" horiz-adv-x="956" d="M43 172l107 37q6 -13 17 -28.5t24.5 -30t28 -27t26.5 -19.5q13 -8 37 -8h247q22 0 35 8q25 14 50.5 40.5t39.5 52.5q7 14 7 34v74q0 31 -23 52t-55 24l-338 25q-38 3 -70.5 18.5t-56.5 40t-37.5 57t-13.5 70.5v61q0 62 30 109q6 8 16 20.5t21.5 25t23.5 24.5t23 20 q25 19 59 29t66 10h213q32 0 66 -10t59 -29q11 -8 24.5 -21t26.5 -27.5t24 -28t17 -21.5q10 -13 18 -25t11 -20l-107 -37q-6 13 -17.5 28.5t-25 30t-28.5 26.5t-27 19q-13 8 -35 8h-217q-22 0 -37 -8q-24 -14 -49 -39t-39 -51q-6 -12 -6 -35v-61q0 -31 23 -52t55 -24 l338 -27q37 -3 69.5 -18.5t56.5 -40t38 -57.5t14 -70v-74q0 -62 -31 -108q-6 -9 -16 -21t-21.5 -25t-23.5 -25t-23 -19q-24 -19 -58.5 -29t-66.5 -10h-245q-32 0 -66 10t-59 29q-11 7 -24 20t-26 27t-23.5 27t-16.5 22l-17 25.5t-12 21.5zM279 -344l170 266l98 -39 l-148 -227h-120z" />
<glyph unicode="&#x21a;" d="M16 0zM16 1114v115h820v-115h-351v-1114h-118v1114h-351zM231 -344l170 266l98 -39l-147 -227h-121z" />
<glyph unicode="&#x21b;" horiz-adv-x="690" d="M20 0zM20 774v107h146v348h110v-348h271v-107h-271v-524q0 -11 2 -22t5 -17q7 -13 17.5 -27t23 -27t26 -24t25.5 -18q8 -5 19 -7t22 -2h129v-106h-131q-34 0 -67 10t-58 29q-11 7 -24.5 20.5t-26.5 28t-24 28t-17 21.5q-31 46 -31 109v528h-146zM231 -344l170 266l98 -39 l-147 -227h-121z" />
<glyph unicode="&#x2c6;" horiz-adv-x="868" d="M180 1065l191 238h116l191 -238h-139l-111 139l-109 -139h-139z" />
<glyph unicode="&#x2c7;" horiz-adv-x="868" d="M180 1303h139l111 -136l109 136h139l-191 -238h-116z" />
<glyph unicode="&#x2d8;" horiz-adv-x="698" d="M137 1253h78q0 -24 9 -45t24.5 -36.5t36.5 -25t45 -9.5t45.5 9.5t38 25t26 36.5t9.5 45h77q0 -41 -15.5 -76t-42 -61.5t-62.5 -41.5t-76 -15q-41 0 -76 15t-61 41.5t-41 61.5t-15 76z" />
<glyph unicode="&#x2d9;" horiz-adv-x="422" d="M94 1081v158h156v-158h-156z" />
<glyph unicode="&#x2da;" horiz-adv-x="766" d="M137 1247q0 41 15 76.5t41 62t61 41.5t76 15q40 0 76 -15t62.5 -41.5t42 -62t15.5 -76.5t-15.5 -76t-42 -61.5t-62.5 -41.5t-76 -15q-41 0 -76 15t-61 41.5t-41 61.5t-15 76zM215 1247q0 -24 9 -45t24.5 -37t36.5 -25.5t45 -9.5t45.5 9.5t38 25.5t26 37t9.5 45t-9.5 45.5 t-26 37t-38 25t-45.5 9.5t-45 -9.5t-36.5 -25t-24.5 -37t-9 -45.5z" />
<glyph unicode="&#x2db;" horiz-adv-x="831" d="M301 -117l98 39l170 -266h-120z" />
<glyph unicode="&#x2dc;" horiz-adv-x="862" d="M117 1110q10 36 33 63.5t53 44.5t65.5 21.5t71.5 -4.5l149 -37q32 -5 59.5 8.5t37.5 42.5l104 -24q-11 -36 -33.5 -64t-52.5 -44.5t-65.5 -21t-71.5 4.5l-150 37q-32 5 -59.5 -9t-36.5 -43z" />
<glyph unicode="&#x2dd;" horiz-adv-x="760" d="M229 1079l174 228h134l-209 -265zM428 1079l174 228h133l-209 -265z" />
<glyph unicode="&#x384;" horiz-adv-x="760" d="M313 1065l82 276l109 -22l-76 -254h-115z" />
<glyph unicode="&#x385;" horiz-adv-x="743" d="M125 1081v158h156v-158h-156zM330 1065l82 276l100 -22l-76 -254h-106zM551 1081v158h156v-158h-156z" />
<glyph unicode="&#x386;" horiz-adv-x="1100" d="M-6 0l412 1229h184l411 -1229h-127l-92 285h-569l-94 -285h-125zM0 0zM47 1065l82 276l109 -22l-76 -254h-115zM250 399h495l-235 713h-27z" />
<glyph unicode="&#x388;" horiz-adv-x="1155" d="M-82 1065l82 276l109 -22l-76 -254h-115zM0 0zM235 0v1229h705v-115h-586v-442h555v-115h-555v-442h586v-115h-705z" />
<glyph unicode="&#x389;" horiz-adv-x="1274" d="M-82 1065l82 276l109 -22l-76 -254h-115zM0 0zM235 0v1229h119v-557h580v557h119v-1229h-119v557h-580v-557h-119z" />
<glyph unicode="&#x38a;" horiz-adv-x="578" d="M-82 1065l82 276l109 -22l-76 -254h-115zM0 0zM235 0v1229h119v-1229h-119z" />
<glyph unicode="&#x38c;" horiz-adv-x="1296" d="M-41 1065l82 276l109 -22l-76 -254h-115zM0 0zM225 264v697q0 26 5.5 52t19.5 48q8 13 26 34t39 42.5t41.5 40t34.5 26.5q22 14 51 23.5t53 9.5h324q25 0 55 -9.5t52 -23.5q13 -8 33.5 -26.5t41 -40t38 -42.5t26.5 -34q14 -22 20 -48t6 -52v-697q0 -26 -6 -52t-20 -48 q-9 -13 -26.5 -33.5t-38 -41.5t-41 -39.5t-33.5 -26.5q-22 -14 -52 -23.5t-55 -9.5h-324q-24 0 -53 9.5t-51 23.5q-14 8 -34.5 26.5t-41.5 39.5t-39 41.5t-26 33.5q-14 22 -19.5 48t-5.5 52zM344 266q0 -8 2.5 -14t5.5 -12q10 -18 26.5 -38t34.5 -38t36 -32.5t30 -20.5 q8 -7 27 -7h305q8 0 14.5 1.5t11.5 5.5q12 6 30 20.5t37 32.5t35.5 38t26.5 38q7 11 7 26v690q0 8 -1.5 16.5t-5.5 14.5q-10 18 -26.5 38t-35.5 38t-37 32.5t-30 20.5q-9 6 -26 6h-305q-18 0 -27 -6q-12 -6 -30 -20.5t-36 -32.5t-34.5 -38t-26.5 -38q-3 -6 -5.5 -14.5 t-2.5 -16.5v-690z" />
<glyph unicode="&#x38e;" horiz-adv-x="1126" d="M-82 1065l82 276l109 -22l-76 -254h-115zM0 0zM177 1229h131l309 -584l313 584h129l-383 -705v-524h-119v524z" />
<glyph unicode="&#x38f;" horiz-adv-x="1311" d="M-82 1065l82 276l109 -22l-76 -254h-115zM0 0zM129 0v115h256q-17 8 -31.5 16t-23.5 16q-15 11 -37.5 31.5t-45 45t-41 50.5t-23.5 48q-3 12 -6 28t-5 33t-3 33t-1 28v521q0 24 9.5 54t23.5 52q9 14 27 34.5t39 41t41.5 38t33.5 25.5q22 14 47.5 20.5t51.5 6.5h383 q26 0 51 -6.5t47 -20.5q13 -8 33.5 -25.5t41.5 -38t39.5 -41t26.5 -34.5q14 -22 23.5 -52t9.5 -54v-521q0 -12 -1 -28t-3 -33t-4.5 -33t-5.5 -28q-6 -22 -24 -48t-41 -50.5t-45.5 -45t-37.5 -31.5q-11 -8 -25.5 -16t-29.5 -16h256v-115h-395v115q14 7 35.5 25t46 41.5 t49.5 51t46 53t35.5 47.5t18.5 34q1 2 2 9.5t2 16.5t1.5 17t0.5 12v534q0 18 -6 27q-6 12 -19.5 31t-31 38.5t-37 36.5t-37.5 27q-12 6 -26 6h-375q-15 0 -27 -6q-18 -10 -37 -27t-36.5 -36.5t-31.5 -38.5t-20 -31q-6 -9 -6 -27v-534q0 -4 0.5 -12t1.5 -17t2 -16.5t2 -9.5 q4 -13 18.5 -34.5t35.5 -47t46.5 -53t50 -51t46 -41.5t35.5 -25v-115h-396z" />
<glyph unicode="&#x390;" horiz-adv-x="440" d="M-106 1081v158h156v-158h-156zM0 0zM99 1065l82 276l100 -22l-76 -254h-106zM114 115v766h111v-742q0 -34 10 -69.5t13 -69.5h-111q-3 26 -13 57.5t-10 57.5zM320 1081v158h156v-158h-156z" />
<glyph unicode="&#x391;" horiz-adv-x="1100" d="M-6 0l412 1229h184l411 -1229h-127l-92 285h-569l-94 -285h-125zM250 399h495l-235 713h-27z" />
<glyph unicode="&#x392;" horiz-adv-x="1108" d="M100 0v1229h553q32 0 65 -11.5t58 -29.5q10 -8 25.5 -22.5t30.5 -30.5t28 -30.5t19 -23.5q15 -23 21.5 -51t6.5 -57v-158q0 -29 -6.5 -57t-21.5 -51q-5 -7 -14 -17.5t-20.5 -22.5t-23.5 -24l-22 -22l22 -22t23.5 -24t20.5 -22.5t14 -17.5q15 -23 21.5 -51.5t6.5 -57.5 v-174q0 -29 -6.5 -55.5t-21.5 -49.5q-6 -8 -19 -23t-28 -31.5t-30.5 -31.5t-25.5 -22q-25 -19 -58 -29t-65 -10h-553zM219 115h432q22 0 35 8q12 7 26 18.5t27.5 25t24.5 28.5t18 28q3 6 4.5 15t1.5 18v168q0 9 -1.5 18t-4.5 15q-7 13 -18 28t-24.5 28.5t-27.5 25t-26 18.5 q-12 6 -33 6h-434v-448zM219 676h434q10 0 18.5 2.5t14.5 5.5q12 7 26 18.5t27.5 25.5t24.5 28.5t18 27.5q3 7 4.5 16.5t1.5 18.5v152q0 19 -6 33q-7 13 -18 27.5t-24.5 29t-27.5 26.5t-26 19q-13 8 -35 8h-432v-438z" />
<glyph unicode="&#x393;" horiz-adv-x="932" d="M100 0v1229h693v-115h-574v-1114h-119z" />
<glyph unicode="&#x394;" horiz-adv-x="1100" d="M-20 0l411 1229h184l412 -1229h-1007zM139 115h686l-329 997h-27z" />
<glyph unicode="&#x395;" horiz-adv-x="1020" d="M100 0v1229h705v-115h-586v-442h555v-115h-555v-442h586v-115h-705z" />
<glyph unicode="&#x396;" horiz-adv-x="983" d="M78 0v102l602 1012h-602v115h745v-107l-598 -1007h598v-115h-745z" />
<glyph unicode="&#x397;" horiz-adv-x="1139" d="M100 0v1229h119v-557h580v557h119v-1229h-119v557h-580v-557h-119z" />
<glyph unicode="&#x398;" horiz-adv-x="1161" d="M90 264v697q0 26 5.5 52t19.5 48q8 13 26 34t39 42.5t41.5 40t34.5 26.5q22 14 51 23.5t53 9.5h324q25 0 55 -9.5t52 -23.5q13 -8 33.5 -26.5t41 -40t38 -42.5t26.5 -34q14 -22 20 -48t6 -52v-697q0 -26 -6 -52t-20 -48q-9 -13 -26.5 -33.5t-38 -41.5t-41 -39.5 t-33.5 -26.5q-22 -14 -52 -23.5t-55 -9.5h-324q-24 0 -53 9.5t-51 23.5q-14 8 -34.5 26.5t-41.5 39.5t-39 41.5t-26 33.5q-14 22 -19.5 48t-5.5 52zM209 266q0 -8 2.5 -14t5.5 -12q10 -18 26.5 -38t34.5 -38t36 -32.5t30 -20.5q8 -7 27 -7h305q8 0 14.5 1.5t11.5 5.5 q12 6 30 20.5t37 32.5t35.5 38t26.5 38q7 11 7 26v690q0 8 -1.5 16.5t-5.5 14.5q-10 18 -26.5 38t-35.5 38t-37 32.5t-30 20.5q-9 6 -26 6h-305q-18 0 -27 -6q-12 -6 -30 -20.5t-36 -32.5t-34.5 -38t-26.5 -38q-3 -6 -5.5 -14.5t-2.5 -16.5v-690zM311 559v115h424v-115h-424 z" />
<glyph unicode="&#x399;" horiz-adv-x="442" d="M100 0v1229h119v-1229h-119z" />
<glyph unicode="&#x39a;" horiz-adv-x="1028" d="M100 0v1229h119v-559h25l508 559h155l-563 -615l565 -614h-155l-510 557h-25v-557h-119z" />
<glyph unicode="&#x39b;" horiz-adv-x="1067" d="M-10 0l391 1229h184l389 -1229h-125l-342 1102h-28l-344 -1102h-125z" />
<glyph unicode="&#x39c;" horiz-adv-x="1331" d="M102 0v1229h170l334 -719l336 719h168v-1229h-115v1102l-350 -772h-80l-348 772v-1102h-115z" />
<glyph unicode="&#x39d;" horiz-adv-x="1126" d="M102 0v1229h158l531 -1059v1059h114v-1229h-153l-535 1049v-1049h-115z" />
<glyph unicode="&#x39e;" horiz-adv-x="1020" d="M100 0v115h705v-115h-705zM100 559v115h705v-115h-705zM100 1114v115h705v-115h-705z" />
<glyph unicode="&#x39f;" horiz-adv-x="1161" d="M90 264v697q0 26 5.5 52t19.5 48q8 13 26 34t39 42.5t41.5 40t34.5 26.5q22 14 51 23.5t53 9.5h324q25 0 55 -9.5t52 -23.5q13 -8 33.5 -26.5t41 -40t38 -42.5t26.5 -34q14 -22 20 -48t6 -52v-697q0 -26 -6 -52t-20 -48q-9 -13 -26.5 -33.5t-38 -41.5t-41 -39.5 t-33.5 -26.5q-22 -14 -52 -23.5t-55 -9.5h-324q-24 0 -53 9.5t-51 23.5q-14 8 -34.5 26.5t-41.5 39.5t-39 41.5t-26 33.5q-14 22 -19.5 48t-5.5 52zM209 266q0 -8 2.5 -14t5.5 -12q10 -18 26.5 -38t34.5 -38t36 -32.5t30 -20.5q8 -7 27 -7h305q8 0 14.5 1.5t11.5 5.5 q12 6 30 20.5t37 32.5t35.5 38t26.5 38q7 11 7 26v690q0 8 -1.5 16.5t-5.5 14.5q-10 18 -26.5 38t-35.5 38t-37 32.5t-30 20.5q-9 6 -26 6h-305q-18 0 -27 -6q-12 -6 -30 -20.5t-36 -32.5t-34.5 -38t-26.5 -38q-3 -6 -5.5 -14.5t-2.5 -16.5v-690z" />
<glyph unicode="&#x3a0;" horiz-adv-x="1139" d="M100 0v1229h818v-1229h-119v1114h-580v-1114h-119z" />
<glyph unicode="&#x3a1;" horiz-adv-x="1069" d="M100 0v1229h553q32 0 64 -10.5t57 -28.5q10 -8 25.5 -22.5t31.5 -31t29 -31.5t19 -24q30 -45 30 -106v-180q0 -61 -30 -107q-6 -8 -19 -23t-29 -31t-31.5 -30.5t-25.5 -21.5q-25 -19 -57 -29t-64 -10h-434v-543h-119zM219 657h432q22 0 35 9q12 7 27 18t29 24.5t25.5 28 t18.5 27.5q4 6 4.5 15.5t0.5 19.5v172q0 9 -0.5 18.5t-4.5 16.5q-7 13 -18.5 28t-25.5 29t-29 26t-27 19q-8 5 -16.5 5.5t-18.5 0.5h-432v-457z" />
<glyph unicode="&#x3a3;" horiz-adv-x="983" d="M80 0v102l377 519l-377 501v107h745v-115h-596l367 -491l-363 -508h592v-115h-745z" />
<glyph unicode="&#x3a4;" d="M16 1114v115h820v-115h-351v-1114h-118v1114h-351z" />
<glyph unicode="&#x3a5;" horiz-adv-x="930" d="M-20 1229h131l309 -584l313 584h129l-383 -705v-524h-119v524z" />
<glyph unicode="&#x3a6;" horiz-adv-x="1223" d="M90 0zM90 264v697q0 26 5.5 52t19.5 48q8 13 26 34t39 42.5t41.5 40t34.5 26.5q22 14 51 23.5t53 9.5h138v94h112v-94h135q25 0 55 -9.5t52 -23.5q14 -8 34.5 -26.5t41 -40t38 -42.5t25.5 -34q14 -22 20.5 -48t6.5 -52v-697q0 -26 -6.5 -52t-20.5 -48q-8 -13 -25.5 -33.5 t-38 -41.5t-41 -39.5t-34.5 -26.5q-22 -14 -52 -23.5t-55 -9.5h-135v-113h-112v113h-138q-24 0 -53 9.5t-51 23.5q-14 8 -34.5 26.5t-41.5 39.5t-39 41.5t-26 33.5q-14 22 -19.5 48t-5.5 52zM209 266q0 -8 2.5 -14t5.5 -12q10 -18 26.5 -38t34.5 -38t36 -32.5t30 -20.5 q8 -7 27 -7h127v1018h-127q-18 0 -27 -6q-12 -6 -30 -20.5t-36 -32.5t-34.5 -38t-26.5 -38q-3 -6 -5.5 -14.5t-2.5 -16.5v-690zM610 104h127q19 0 27 7q12 6 30 20.5t36.5 32.5t35.5 38t27 38q6 12 6 26v690q0 19 -6 31q-10 18 -27 38t-35.5 38t-36.5 32.5t-30 20.5 q-9 6 -27 6h-127v-1018z" />
<glyph unicode="&#x3a7;" horiz-adv-x="1018" d="M-6 0l391 629l-371 600h131l306 -494q74 121 151.5 247t153.5 247h131l-369 -600l389 -629h-133l-323 522l-324 -522h-133z" />
<glyph unicode="&#x3a8;" horiz-adv-x="1171" d="M82 596v633h119v-627q0 -6 1.5 -14t4.5 -15q10 -18 26.5 -37.5t34.5 -37.5t36 -32t30 -20q8 -4 24 -4h125v787h113v-787h123q8 0 15.5 1t10.5 3q12 6 29.5 20t35.5 32t34 37.5t26 37.5q3 7 6 15t3 14v627h118v-633q0 -26 -5.5 -50.5t-20.5 -45.5q-9 -13 -26 -33.5 t-37.5 -41.5t-40.5 -39.5t-33 -27.5q-22 -12 -51.5 -21t-55.5 -9h-131v-328h-113v328h-133q-26 -2 -54.5 7t-51.5 23q-14 9 -33.5 27t-39.5 39.5t-37 42t-25 33.5q-14 21 -20.5 45.5t-6.5 50.5z" />
<glyph unicode="&#x3aa;" horiz-adv-x="442" d="M-67 1429v158h155v-158h-155zM0 0zM100 0v1229h119v-1229h-119zM232 1429v158h155v-158h-155z" />
<glyph unicode="&#x3ab;" horiz-adv-x="930" d="M-20 1229h131l309 -584l313 584h129l-383 -705v-524h-119v524zM0 0zM193 1429v158h155v-158h-155zM492 1429v158h155v-158h-155z" />
<glyph unicode="&#x3ac;" horiz-adv-x="989" d="M82 0zM82 236v409q0 63 31 109q6 8 17.5 21t24.5 27.5t26.5 27.5t23.5 22q25 19 57.5 29t67.5 10h159q26 0 53 -13t50 -30q18 -14 40 -32.5t44 -41.5l12 107h111l-17 -144v-592l17 -145h-111l-12 109q-20 -23 -43 -42.5t-41 -33.5q-23 -17 -50 -30t-53 -13h-159 q-35 0 -67.5 10t-57.5 29q-10 8 -23.5 21t-26.5 27.5t-24.5 27.5t-17.5 22q-31 46 -31 109zM193 240q0 -23 6 -35q7 -13 18 -28t24.5 -28.5t27.5 -25.5t26 -19q13 -8 37 -8h151q17 0 29 6t34.5 19.5t46 31t44.5 37t31 37.5q0 1 1 3q2 4 3 8v405q-1 3 -3 7q-1 2 -1 3 q-10 18 -31 38t-44.5 37t-46 30.5t-34.5 19.5t-29 6h-151q-24 0 -37 -8q-12 -7 -26 -18.5t-27.5 -25t-24.5 -28.5t-18 -28q-6 -12 -6 -35v-401zM354 1065l82 276l109 -22l-76 -254h-115z" />
<glyph unicode="&#x3ad;" horiz-adv-x="932" d="M72 0zM72 225v39q0 29 6.5 56.5t21.5 50.5q10 14 29.5 36t38.5 39q-19 17 -38.5 38.5t-29.5 35.5q-28 48 -28 103v30q2 32 7.5 59t20.5 50q6 9 16.5 21t22 25t23.5 24.5t22 19.5q25 19 59 29t68 10h201q32 0 66 -10t59 -29q11 -8 24.5 -21t26.5 -27.5t24 -28t17 -21.5 q8 -11 15.5 -22t13.5 -23l-107 -37q-7 13 -18.5 28.5t-25 30t-28 26.5t-26.5 19q-6 5 -16 6.5t-21 1.5h-209q-11 0 -20.5 -1.5t-16.5 -6.5q-23 -15 -45.5 -39.5t-38.5 -50.5q-3 -6 -3.5 -13.5t-0.5 -17.5v-22q0 -9 0.5 -18t3.5 -17q16 -25 39 -51.5t47 -40.5q15 -8 37 -8 h223v-107h-223q-11 0 -20.5 -0.5t-16.5 -3.5q-24 -14 -47 -41t-39 -53q-3 -6 -3.5 -14t-0.5 -17v-31q0 -11 0.5 -19.5t3.5 -14.5q16 -26 40 -52.5t48 -40.5q15 -8 37 -8h224q23 0 36 8q12 7 26 19.5t27.5 27t25 30t18.5 28.5l104 -37q-3 -6 -10 -19.5t-17 -25.5 q-5 -9 -16 -22.5t-24 -27.5t-26.5 -27.5t-23.5 -20.5q-24 -19 -58.5 -29t-68.5 -10h-217q-34 0 -67.5 10t-59.5 29q-10 7 -22 18.5t-23.5 24.5t-22 25.5t-16.5 21.5q-15 23 -21.5 50t-6.5 56zM344 1065l82 276l109 -22l-76 -254h-115z" />
<glyph unicode="&#x3ae;" horiz-adv-x="985" d="M82 0zM82 881h111l12 -103q18 20 38.5 38.5t37.5 31.5q21 15 48.5 29t53.5 14h154q34 0 68 -10t59 -29q10 -8 23.5 -21t26.5 -27.5t24.5 -28t17.5 -21.5q15 -23 21.5 -50.5t6.5 -58.5v-989h-110v985q0 11 -0.5 20t-3.5 15q-7 13 -19 28t-25.5 28.5t-28 25t-26.5 18.5 q-13 8 -36 8h-146q-16 0 -29 -6q-13 -7 -34 -20t-43.5 -29.5t-43 -35.5t-32.5 -38v-655h-111v735zM374 1065l82 276l109 -22l-76 -254h-115z" />
<glyph unicode="&#x3af;" horiz-adv-x="440" d="M106 0zM106 115v766h111v-742q0 -34 10 -69.5t13 -69.5h-111q-3 26 -13 57.5t-10 57.5zM108 1065l82 276l109 -22l-76 -254h-115z" />
<glyph unicode="&#x3b0;" horiz-adv-x="967" d="M72 0zM72 236v645h110v-641q0 -23 6 -35q7 -13 18.5 -28t25 -28.5t27.5 -25.5t26 -19q13 -8 37 -8h200q24 0 37 8q12 7 26.5 19t28 25.5t25 28.5t18.5 28q4 6 4.5 15t0.5 20v501q0 34 -10 70t-13 70h111q3 -26 12.5 -57.5t9.5 -57.5v-530q0 -31 -6.5 -58.5t-22.5 -50.5 q-6 -9 -17 -22.5t-24 -27.5t-26.5 -27.5t-24.5 -20.5q-25 -19 -59 -29t-68 -10h-205q-34 0 -68 10t-58 29q-11 7 -24.5 20.5t-26.5 27.5t-24.5 27.5t-17.5 22.5q-15 23 -21.5 50.5t-6.5 58.5zM137 1081v158h156v-158h-156zM342 1065l82 276l100 -22l-76 -254h-106zM563 1081 v158h156v-158h-156z" />
<glyph unicode="&#x3b1;" horiz-adv-x="993" d="M82 236v409q0 63 31 109q6 8 17.5 21t24.5 27.5t26.5 27.5t23.5 22q25 19 57.5 29t67.5 10h159q26 0 53 -13t50 -30q18 -14 40 -32.5t44 -41.5l12 107h111l-17 -144v-592l17 -145h-111l-12 109q-20 -23 -43 -42.5t-41 -33.5q-23 -17 -50 -30t-53 -13h-159q-35 0 -67.5 10 t-57.5 29q-10 8 -23.5 21t-26.5 27.5t-24.5 27.5t-17.5 22q-31 46 -31 109zM193 240q0 -23 6 -35q7 -13 18 -28t24.5 -28.5t27.5 -25.5t26 -19q13 -8 37 -8h151q17 0 29 6t34.5 19.5t46 31t44.5 37t31 37.5q0 1 1 3q2 4 3 8v405q-1 3 -3 7q-1 2 -1 3q-10 18 -31 38t-44.5 37 t-46 30.5t-34.5 19.5t-29 6h-151q-24 0 -37 -8q-12 -7 -26 -18.5t-27.5 -25t-24.5 -28.5t-18 -28q-6 -12 -6 -35v-401z" />
<glyph unicode="&#x3b2;" horiz-adv-x="1020" d="M96 -344v1335q0 31 7.5 59.5t23.5 51.5q6 8 17 21.5t24 28t26.5 27.5t24.5 21q25 19 58 28t67 9h207q34 0 68 -10t59 -29q11 -8 24.5 -21t26.5 -27.5t24 -28t17 -21.5q16 -23 22.5 -50.5t6.5 -58.5v-174q0 -31 -6.5 -58t-22.5 -50q-9 -13 -27 -34.5t-36 -39.5 q10 -9 23 -22t26 -26.5t24 -26t17 -19.5q15 -23 21.5 -50.5t6.5 -58.5v-196q0 -31 -6.5 -58.5t-21.5 -50.5q-6 -9 -17.5 -22.5t-24.5 -27.5t-26.5 -27.5t-23.5 -20.5q-25 -19 -59 -29t-68 -10h-189q-26 0 -52.5 13t-49.5 30q-19 14 -39.5 33.5t-40.5 42.5v-453h-111z M207 238q1 -4 3 -8q1 -2 1 -3q10 -18 31 -37.5t44.5 -37t46 -31t34.5 -19.5t28 -6h180q24 0 37 8q12 7 26.5 19t28 25.5t25.5 28.5t19 28q3 6 3.5 15t0.5 20v188q0 11 -0.5 20t-3.5 15q-7 13 -19 28t-25.5 28.5t-28 25t-26.5 18.5q-13 8 -37 8h-204v107h164h14q22 0 37 8 q12 7 26.5 19t28 25.5t25 28t18.5 27.5q3 7 3.5 15.5t0.5 19.5v166q0 11 -0.5 20t-3.5 15q-7 13 -18.5 28t-25 28.5t-28 25t-26.5 18.5q-15 8 -37 8h-203q-11 0 -19 -0.5t-16 -5.5q-12 -7 -26.5 -18t-28 -24.5t-25 -28t-18.5 -27.5q-6 -12 -6 -33v-755z" />
<glyph unicode="&#x3b3;" horiz-adv-x="842" d="M0 881h119l241 -768h13l241 768h119l-319 -981q-3 -10 -5.5 -21.5t-2.5 -23.5v-199h-109v199q0 12 1.5 28.5t6.5 28.5l29 88h-47z" />
<glyph unicode="&#x3b4;" horiz-adv-x="967" d="M72 236v370q0 31 6.5 58.5t21.5 50.5q8 11 31 32t45 39q-34 26 -54 64.5t-20 85.5v63q0 61 31 109q6 8 16 20.5t21.5 25.5t23.5 24.5t23 19.5q25 19 59 29t66 10h188q32 0 66.5 -10t58.5 -29q11 -8 24.5 -21t26.5 -27.5t24.5 -28t17.5 -21.5q9 -13 17 -25t11 -20 l-106 -37q-6 13 -18 28.5t-25.5 30t-28.5 26.5t-27 19q-13 8 -34 8h-193q-11 0 -20 -1.5t-17 -6.5q-25 -14 -49.5 -39t-38.5 -51q-6 -12 -6 -35v-63q0 -31 23 -52t55 -24l303 -24q37 -3 69.5 -18.5t56.5 -40.5t38 -57.5t14 -70.5v-411q0 -31 -6.5 -58.5t-22.5 -50.5 q-6 -9 -17 -22.5t-24 -27.5t-26.5 -27.5t-24.5 -20.5q-25 -19 -59 -29t-68 -10h-205q-34 0 -68 10t-58 29q-11 7 -24.5 20.5t-26.5 27.5t-24.5 27.5t-17.5 22.5q-15 23 -21.5 50.5t-6.5 58.5zM182 240q0 -23 6 -35q7 -13 18.5 -28t25 -28.5t27.5 -25.5t26 -19q13 -8 37 -8 h200q24 0 37 8q12 7 26.5 19t28 25.5t25 28.5t18.5 28q4 6 4.5 15t0.5 20v411q0 31 -23 52t-55 24l-275 21q-6 -2 -12.5 -4t-11.5 -5q-12 -7 -26 -18.5t-27.5 -26t-25 -29.5t-18.5 -28q-6 -12 -6 -35v-362z" />
<glyph unicode="&#x3b5;" horiz-adv-x="932" d="M72 225v39q0 29 6.5 56.5t21.5 50.5q10 14 29.5 36t38.5 39q-19 17 -38.5 38.5t-29.5 35.5q-28 48 -28 103v30q2 32 7.5 59t20.5 50q6 9 16.5 21t22 25t23.5 24.5t22 19.5q25 19 59 29t68 10h201q32 0 66 -10t59 -29q11 -8 24.5 -21t26.5 -27.5t24 -28t17 -21.5 q8 -11 15.5 -22t13.5 -23l-107 -37q-7 13 -18.5 28.5t-25 30t-28 26.5t-26.5 19q-6 5 -16 6.5t-21 1.5h-209q-11 0 -20.5 -1.5t-16.5 -6.5q-23 -15 -45.5 -39.5t-38.5 -50.5q-3 -6 -3.5 -13.5t-0.5 -17.5v-22q0 -9 0.5 -18t3.5 -17q16 -25 39 -51.5t47 -40.5q15 -8 37 -8 h223v-107h-223q-11 0 -20.5 -0.5t-16.5 -3.5q-24 -14 -47 -41t-39 -53q-3 -6 -3.5 -14t-0.5 -17v-31q0 -11 0.5 -19.5t3.5 -14.5q16 -26 40 -52.5t48 -40.5q15 -8 37 -8h224q23 0 36 8q12 7 26 19.5t27.5 27t25 30t18.5 28.5l104 -37q-3 -6 -10 -19.5t-17 -25.5 q-5 -9 -16 -22.5t-24 -27.5t-26.5 -27.5t-23.5 -20.5q-24 -19 -58.5 -29t-68.5 -10h-217q-34 0 -67.5 10t-59.5 29q-10 7 -22 18.5t-23.5 24.5t-22 25.5t-16.5 21.5q-15 23 -21.5 50t-6.5 56z" />
<glyph unicode="&#x3b6;" horiz-adv-x="860" d="M72 236v704q0 26 15.5 53.5t31.5 48.5q14 19 34 39.5t42 40.5l-109 13v106l145 -12h453v-107h-352q-3 0 -6 -1t-7 -3q-18 -11 -38.5 -31.5t-38.5 -44t-32.5 -45t-21.5 -34.5q-6 -14 -6 -29v-694q0 -23 6 -35q7 -13 18.5 -28t25 -28.5t27.5 -25.5t26 -19q13 -8 37 -8h235 q58 0 98 -19.5t62 -50.5t26 -68t-8 -73l-82 -239l-106 24l76 219q4 15 6 32.5t-5 32.5t-25.5 25.5t-55.5 10.5h-224q-34 0 -68 10t-58 29q-11 7 -24.5 20.5t-26.5 27.5t-24.5 27.5t-17.5 22.5q-15 23 -21.5 50.5t-6.5 58.5z" />
<glyph unicode="&#x3b7;" horiz-adv-x="985" d="M82 881h111l12 -103q18 20 38.5 38.5t37.5 31.5q21 15 48.5 29t53.5 14h154q34 0 68 -10t59 -29q10 -8 23.5 -21t26.5 -27.5t24.5 -28t17.5 -21.5q15 -23 21.5 -50.5t6.5 -58.5v-989h-110v985q0 11 -0.5 20t-3.5 15q-7 13 -19 28t-25.5 28.5t-28 25t-26.5 18.5 q-13 8 -36 8h-146q-16 0 -29 -6q-13 -7 -34 -20t-43.5 -29.5t-43 -35.5t-32.5 -38v-655h-111v735z" />
<glyph unicode="&#x3b8;" horiz-adv-x="967" d="M72 236v757q0 31 6.5 58.5t21.5 50.5q6 8 17.5 21.5t24.5 28t26.5 27.5t24.5 21q24 19 58 29t68 10h205q34 0 68 -10t59 -29q11 -8 24.5 -21t26.5 -27.5t24 -28t17 -21.5q16 -23 22.5 -50.5t6.5 -58.5v-757q0 -31 -6.5 -58.5t-22.5 -50.5q-6 -9 -17 -22.5t-24 -27.5 t-26.5 -27.5t-24.5 -20.5q-25 -19 -59 -29t-68 -10h-205q-34 0 -68 10t-58 29q-11 7 -24.5 20.5t-26.5 27.5t-24.5 27.5t-17.5 22.5q-15 23 -21.5 50.5t-6.5 58.5zM182 240q0 -23 6 -35q7 -13 18.5 -28t25 -28.5t27.5 -25.5t26 -19q13 -8 37 -8h200q24 0 37 8q12 7 26.5 19 t28 25.5t25 28.5t18.5 28q4 6 4.5 15t0.5 20v331h-480v-331zM182 674h480v315q0 11 -0.5 20t-4.5 15q-7 13 -18.5 28t-25 28.5t-28 25t-26.5 18.5q-15 9 -37 9h-200q-22 0 -37 -9q-12 -7 -26 -18.5t-27.5 -25t-25 -28.5t-18.5 -28q-6 -12 -6 -35v-315z" />
<glyph unicode="&#x3b9;" horiz-adv-x="440" d="M106 115v766h111v-742q0 -34 10 -69.5t13 -69.5h-111q-3 26 -13 57.5t-10 57.5z" />
<glyph unicode="&#x3ba;" horiz-adv-x="870" d="M84 0v881h111v-369h41l350 369h147l-401 -418l436 -463h-150l-380 408h-43v-408h-111z" />
<glyph unicode="&#x3bb;" horiz-adv-x="866" d="M10 0l287 881h47l-119 348h117l401 -1229h-118l-242 768h-12l-242 -768h-119z" />
<glyph unicode="&#x3bc;" horiz-adv-x="991" d="M94 -344v1225h111v-641q0 -3 1 -5.5t3 -5.5q11 -19 31.5 -38.5t44 -36t45.5 -30t35 -20.5q6 -3 13 -5.5t15 -2.5h96q17 0 29 6q13 7 34 20.5t43.5 30t43.5 35.5t33 37v656h110v-736l17 -145h-109l-14 100q-19 -20 -39 -37.5t-39 -29.5q-22 -16 -48.5 -29.5t-53.5 -13.5 h-109q-26 0 -53.5 9.5t-48.5 25.5q-19 14 -39.5 33t-40.5 40v-442h-111z" />
<glyph unicode="&#x3bd;" horiz-adv-x="868" d="M10 881h119l240 -768h12l244 768h116l-288 -881h-154z" />
<glyph unicode="&#x3be;" horiz-adv-x="860" d="M72 236v196q0 31 6.5 58.5t21.5 50.5q6 7 16.5 19.5t23 26t25 26.5t23.5 22q-18 18 -35.5 39.5t-25.5 34.5q-16 23 -22.5 50t-6.5 58v123q0 26 16 53.5t31 48.5q14 19 34.5 39.5t41.5 40.5l-108 13v106l145 -12h453v-107h-353q-4 0 -12 -4q-18 -11 -38.5 -31.5t-38.5 -44 t-32.5 -45t-21.5 -34.5q-6 -14 -6 -29v-113q0 -11 0.5 -19.5t3.5 -15.5q7 -13 18.5 -27.5t25 -28t28 -25.5t26.5 -19q15 -8 37 -8h199v-107h-225q-24 0 -37 -8q-12 -7 -26.5 -18.5t-28 -25t-25.5 -28.5t-19 -28q-3 -6 -3.5 -15t-0.5 -20v-188q0 -11 0.5 -20t3.5 -15 q7 -13 19 -28t25.5 -28.5t28 -25.5t26.5 -19q13 -8 37 -8h235q58 0 98 -19.5t62 -50.5t26 -68t-8 -73l-84 -239l-104 24l76 219q4 15 6 32.5t-5 32.5t-25.5 25.5t-55.5 10.5h-224q-34 0 -68 10t-58 29q-11 7 -24.5 20.5t-26.5 27.5t-24.5 27.5t-17.5 22.5q-15 23 -21.5 50.5 t-6.5 58.5z" />
<glyph unicode="&#x3bf;" horiz-adv-x="967" d="M72 236v409q0 31 6.5 58.5t21.5 50.5q6 8 17.5 21.5t24.5 28t26.5 27.5t24.5 21q24 19 58 29t68 10h205q34 0 68 -10t59 -29q11 -8 24.5 -21t26.5 -27.5t24 -28t17 -21.5q16 -23 22.5 -50.5t6.5 -58.5v-409q0 -31 -6.5 -58.5t-22.5 -50.5q-6 -9 -17 -22.5t-24 -27.5 t-26.5 -27.5t-24.5 -20.5q-25 -19 -59 -29t-68 -10h-205q-34 0 -68 10t-58 29q-11 7 -24.5 20.5t-26.5 27.5t-24.5 27.5t-17.5 22.5q-15 23 -21.5 50.5t-6.5 58.5zM182 240q0 -23 6 -35q7 -13 18.5 -28t25 -28.5t27.5 -25.5t26 -19q13 -8 37 -8h200q24 0 37 8q12 7 26.5 19 t28 25.5t25 28.5t18.5 28q4 6 4.5 15t0.5 20v401q0 11 -0.5 20t-4.5 15q-7 13 -18.5 28t-25 28.5t-28 25t-26.5 18.5q-13 8 -37 8h-200q-24 0 -37 -8q-12 -7 -26 -18.5t-27.5 -25t-25 -28.5t-18.5 -28q-6 -12 -6 -35v-401z" />
<glyph unicode="&#x3c0;" horiz-adv-x="1200" d="M57 774v107h967v-107h-158v-635q0 -34 8 -69.5t11 -69.5h-111q-3 26 -10.5 57.5t-7.5 57.5v659h-430v-774h-111v774h-158z" />
<glyph unicode="&#x3c1;" horiz-adv-x="981" d="M86 -344v989q0 31 6.5 58.5t22.5 50.5q6 8 17 21.5t24 28t26.5 27.5t24.5 21q25 19 59 29t68 10h205q34 0 68 -10t59 -29q10 -8 23.5 -21t26.5 -27.5t24.5 -28t17.5 -21.5q15 -23 21.5 -50.5t6.5 -58.5v-407q0 -31 -6.5 -58.5t-21.5 -50.5q-6 -9 -17.5 -22.5t-24.5 -28.5 t-26.5 -28.5t-23.5 -20.5q-25 -19 -59 -29t-68 -10h-160q-34 0 -56 3t-47 21q-12 8 -35 29t-44 43v-430h-111zM197 260q0 -23 6 -35q7 -13 25.5 -31t41 -35.5t44.5 -32.5t34 -22q8 -5 17 -6.5t20 -1.5h152q23 0 36 8q12 7 26.5 19t28 26.5t25.5 29.5t19 28q3 6 3.5 15 t0.5 20v399q0 11 -0.5 20t-3.5 15q-7 13 -19 28t-25.5 28.5t-28 25t-26.5 18.5q-13 8 -36 8h-201q-11 0 -20 -1.5t-17 -6.5q-12 -7 -26 -18.5t-27.5 -25t-24.5 -28.5t-18 -28q-6 -9 -6 -25v-391z" />
<glyph unicode="&#x3c2;" horiz-adv-x="938" d="M82 236v409q0 31 6.5 58.5t22.5 50.5q6 8 17 21.5t24 28t26.5 27.5t24.5 21q25 19 59 29t68 10h202q35 0 68 -10t57 -29q19 -14 37 -32.5t33.5 -38t28 -39t22.5 -35.5l-106 -35q-6 13 -18 28.5t-25.5 30t-28.5 26.5t-27 19q-13 8 -36 8h-205q-24 0 -37 -8 q-12 -7 -26 -18.5t-27.5 -25t-24.5 -28.5t-18 -28q-6 -12 -6 -35v-401q0 -23 6 -35q7 -13 18 -28t23.5 -28.5t26.5 -25.5t26 -19q13 -8 37 -8h186q58 0 98 -19.5t62 -50.5t26 -68t-8 -73l-84 -239l-104 24l76 219q4 15 6 32.5t-5 32.5t-25.5 25.5t-55.5 10.5h-172 q-34 0 -68 10t-59 29q-11 7 -24.5 20.5t-26.5 27.5t-24 27.5t-17 22.5q-16 23 -22.5 50.5t-6.5 58.5z" />
<glyph unicode="&#x3c3;" horiz-adv-x="995" d="M72 236v403q0 31 6.5 58.5t21.5 50.5q6 8 17.5 21.5t24.5 28t26.5 27.5t24.5 21q24 18 58 28.5t68 10.5h529v-107h-143q9 -5 15 -12t17 -21q35 -46 35 -106v-403q0 -31 -6.5 -58.5t-22.5 -50.5q-6 -9 -17 -22.5t-24 -27.5t-26.5 -27.5t-24.5 -20.5q-25 -19 -59 -29 t-68 -10h-205q-34 0 -68 10t-58 29q-11 7 -24.5 20.5t-26.5 27.5t-24.5 27.5t-17.5 22.5q-15 23 -21.5 50.5t-6.5 58.5zM182 240q0 -23 6 -35q7 -13 18.5 -28t25 -28.5t27.5 -25.5t26 -19q13 -8 37 -8h200q24 0 37 8q12 7 26.5 19t28 25.5t25 28.5t18.5 28q4 6 4.5 15 t0.5 20v395q0 11 -0.5 20t-4.5 15q-7 13 -18.5 28t-25 28.5t-28 25t-26.5 18.5q-13 8 -37 8h-200q-24 0 -37 -8q-12 -7 -26 -18.5t-27.5 -25t-25 -28.5t-18.5 -28q-6 -12 -6 -35v-395z" />
<glyph unicode="&#x3c4;" horiz-adv-x="852" d="M-4 774v107h739v-107h-325v-635q0 -34 9.5 -69.5t12.5 -69.5h-110q-4 26 -13.5 57.5t-9.5 57.5v659h-303z" />
<glyph unicode="&#x3c5;" horiz-adv-x="967" d="M72 236v645h110v-641q0 -23 6 -35q7 -13 18.5 -28t25 -28.5t27.5 -25.5t26 -19q13 -8 37 -8h200q24 0 37 8q12 7 26.5 19t28 25.5t25 28.5t18.5 28q4 6 4.5 15t0.5 20v501q0 34 -10 70t-13 70h111q3 -26 12.5 -57.5t9.5 -57.5v-530q0 -31 -6.5 -58.5t-22.5 -50.5 q-6 -9 -17 -22.5t-24 -27.5t-26.5 -27.5t-24.5 -20.5q-25 -19 -59 -29t-68 -10h-205q-34 0 -68 10t-58 29q-11 7 -24.5 20.5t-26.5 27.5t-24.5 27.5t-17.5 22.5q-15 23 -21.5 50.5t-6.5 58.5z" />
<glyph unicode="&#x3c6;" horiz-adv-x="1327" d="M72 238v407q0 31 6.5 58.5t21.5 50.5q6 8 17.5 21.5t24.5 28t26.5 27.5t24.5 21q24 19 58 29t68 10h70v-107h-67q-24 0 -37 -8q-12 -7 -26.5 -18.5t-28 -25t-25.5 -28.5t-19 -28q-3 -6 -3.5 -15t-0.5 -20v-399q0 -11 0.5 -20t3.5 -15q7 -13 19 -28t25.5 -28.5t28 -25.5 t26.5 -19q13 -8 37 -8h219v547q0 31 6.5 58.5t21.5 50.5q6 8 17.5 21.5t24.5 28t26.5 27.5t24.5 21q24 19 58 29t68 10h97q34 0 68 -10t59 -29q10 -8 23.5 -21t26.5 -27.5t24.5 -28t17.5 -21.5q29 -45 29 -109v-407q0 -64 -29 -109q-6 -9 -17.5 -22.5t-24.5 -27.5 t-26.5 -27.5t-23.5 -20.5q-25 -19 -59 -29t-68 -10h-234v-336h-110v336h-222q-34 0 -68 10t-58 29q-11 7 -24.5 20.5t-26.5 27.5t-24.5 27.5t-17.5 22.5q-15 23 -21.5 50.5t-6.5 58.5zM651 98h232q22 0 37 8q12 7 26 19t27.5 25.5t25.5 28.5t19 28q3 6 3.5 15t0.5 20v399 q0 11 -0.5 20t-3.5 15q-7 13 -19 28t-25.5 28.5t-27.5 25t-26 18.5q-15 8 -37 8h-92q-24 0 -37 -8q-12 -7 -26 -18.5t-27.5 -25t-25 -28.5t-18.5 -28q-6 -9 -6 -25v-553z" />
<glyph unicode="&#x3c7;" horiz-adv-x="905" d="M-12 -344l340 627l-316 598h125l260 -496l265 496h118l-317 -600l342 -625h-127l-285 522l-282 -522h-123z" />
<glyph unicode="&#x3c8;" horiz-adv-x="1212" d="M72 238v643h110v-639q0 -11 0.5 -20t3.5 -15q7 -13 19 -28t25.5 -28.5t28 -25.5t26.5 -19q13 -8 37 -8h172v783h110v-783h164q11 0 20 1.5t17 6.5q12 7 26.5 19t28 25.5t25 28.5t18.5 28q3 6 3.5 15t0.5 20v639h111v-643q0 -31 -6.5 -58.5t-22.5 -50.5q-6 -9 -17 -22.5 t-24 -27.5t-26.5 -27.5t-24.5 -20.5q-25 -19 -59 -29t-68 -10h-166v-336h-110v336h-175q-34 0 -68 10t-58 29q-11 7 -24.5 20.5t-26.5 27.5t-24.5 27.5t-17.5 22.5q-15 23 -21.5 50.5t-6.5 58.5z" />
<glyph unicode="&#x3c9;" horiz-adv-x="1327" d="M72 236v409q0 31 6.5 58.5t21.5 50.5q6 8 17.5 21.5t24.5 28t26.5 27.5t24.5 21q24 19 58 29t68 10h70v-107h-67q-24 0 -37 -8q-12 -7 -26.5 -18.5t-28 -25t-25.5 -28.5t-19 -28q-3 -6 -3.5 -15t-0.5 -20v-401q0 -11 0.5 -20t3.5 -15q7 -13 19 -28t25.5 -28.5t28 -25.5 t26.5 -19q13 -8 37 -8h86q23 0 36 8q12 7 26 19t27.5 25.5t25 28.5t18.5 28q6 9 6 31v399h110v-395q0 -24 7 -35q7 -13 18 -28t24.5 -28.5t27.5 -25.5t26 -19q13 -8 37 -8h86q22 0 37 8q12 7 26 19t27.5 25.5t25.5 28.5t19 28q3 6 3.5 15t0.5 20v401q0 11 -0.5 20t-3.5 15 q-7 13 -19 28t-25.5 28.5t-27.5 25t-26 18.5q-15 8 -37 8h-68v107h70q34 0 68 -10t59 -29q10 -8 23.5 -21t26.5 -27.5t24.5 -28t17.5 -21.5q29 -45 29 -109v-409q0 -64 -29 -109q-6 -9 -17.5 -22.5t-24.5 -27.5t-26.5 -27.5t-23.5 -20.5q-25 -19 -59 -29t-68 -10h-90 q-34 0 -68.5 10t-58.5 29q-14 9 -32 27.5t-34 35.5q-15 -17 -33 -35.5t-32 -27.5q-25 -19 -59 -29t-68 -10h-91q-34 0 -68 10t-58 29q-11 7 -24.5 20.5t-26.5 27.5t-24.5 27.5t-17.5 22.5q-15 23 -21.5 50.5t-6.5 58.5z" />
<glyph unicode="&#x3ca;" horiz-adv-x="440" d="M-57 1081v158h155v-158h-155zM0 0zM114 115v766h111v-742q0 -34 10 -69.5t13 -69.5h-111q-3 26 -13 57.5t-10 57.5zM242 1081v158h155v-158h-155z" />
<glyph unicode="&#x3cb;" horiz-adv-x="967" d="M72 0zM72 236v645h110v-641q0 -23 6 -35q7 -13 18.5 -28t25 -28.5t27.5 -25.5t26 -19q13 -8 37 -8h200q24 0 37 8q12 7 26.5 19t28 25.5t25 28.5t18.5 28q4 6 4.5 15t0.5 20v501q0 34 -10 70t-13 70h111q3 -26 12.5 -57.5t9.5 -57.5v-530q0 -31 -6.5 -58.5t-22.5 -50.5 q-6 -9 -17 -22.5t-24 -27.5t-26.5 -27.5t-24.5 -20.5q-25 -19 -59 -29t-68 -10h-205q-34 0 -68 10t-58 29q-11 7 -24.5 20.5t-26.5 27.5t-24.5 27.5t-17.5 22.5q-15 23 -21.5 50.5t-6.5 58.5zM195 1077v158h155v-158h-155zM494 1077v158h155v-158h-155z" />
<glyph unicode="&#x3cc;" horiz-adv-x="967" d="M72 0zM72 236v409q0 31 6.5 58.5t21.5 50.5q6 8 17.5 21.5t24.5 28t26.5 27.5t24.5 21q24 19 58 29t68 10h205q34 0 68 -10t59 -29q11 -8 24.5 -21t26.5 -27.5t24 -28t17 -21.5q16 -23 22.5 -50.5t6.5 -58.5v-409q0 -31 -6.5 -58.5t-22.5 -50.5q-6 -9 -17 -22.5 t-24 -27.5t-26.5 -27.5t-24.5 -20.5q-25 -19 -59 -29t-68 -10h-205q-34 0 -68 10t-58 29q-11 7 -24.5 20.5t-26.5 27.5t-24.5 27.5t-17.5 22.5q-15 23 -21.5 50.5t-6.5 58.5zM182 240q0 -23 6 -35q7 -13 18.5 -28t25 -28.5t27.5 -25.5t26 -19q13 -8 37 -8h200q24 0 37 8 q12 7 26.5 19t28 25.5t25 28.5t18.5 28q4 6 4.5 15t0.5 20v401q0 11 -0.5 20t-4.5 15q-7 13 -18.5 28t-25 28.5t-28 25t-26.5 18.5q-13 8 -37 8h-200q-24 0 -37 -8q-12 -7 -26 -18.5t-27.5 -25t-25 -28.5t-18.5 -28q-6 -12 -6 -35v-401zM346 1065l82 276l109 -22l-76 -254 h-115z" />
<glyph unicode="&#x3cd;" horiz-adv-x="967" d="M72 0zM72 236v645h110v-641q0 -23 6 -35q7 -13 18.5 -28t25 -28.5t27.5 -25.5t26 -19q13 -8 37 -8h200q24 0 37 8q12 7 26.5 19t28 25.5t25 28.5t18.5 28q4 6 4.5 15t0.5 20v501q0 34 -10 70t-13 70h111q3 -26 12.5 -57.5t9.5 -57.5v-530q0 -31 -6.5 -58.5t-22.5 -50.5 q-6 -9 -17 -22.5t-24 -27.5t-26.5 -27.5t-24.5 -20.5q-25 -19 -59 -29t-68 -10h-205q-34 0 -68 10t-58 29q-11 7 -24.5 20.5t-26.5 27.5t-24.5 27.5t-17.5 22.5q-15 23 -21.5 50.5t-6.5 58.5zM325 1065l82 276l109 -22l-76 -254h-115z" />
<glyph unicode="&#x3ce;" horiz-adv-x="1327" d="M72 0zM72 236v409q0 31 6.5 58.5t21.5 50.5q6 8 17.5 21.5t24.5 28t26.5 27.5t24.5 21q24 19 58 29t68 10h70v-107h-67q-24 0 -37 -8q-12 -7 -26.5 -18.5t-28 -25t-25.5 -28.5t-19 -28q-3 -6 -3.5 -15t-0.5 -20v-401q0 -11 0.5 -20t3.5 -15q7 -13 19 -28t25.5 -28.5 t28 -25.5t26.5 -19q13 -8 37 -8h86q23 0 36 8q12 7 26 19t27.5 25.5t25 28.5t18.5 28q6 9 6 31v399h110v-395q0 -24 7 -35q7 -13 18 -28t24.5 -28.5t27.5 -25.5t26 -19q13 -8 37 -8h86q22 0 37 8q12 7 26 19t27.5 25.5t25.5 28.5t19 28q3 6 3.5 15t0.5 20v401q0 11 -0.5 20 t-3.5 15q-7 13 -19 28t-25.5 28.5t-27.5 25t-26 18.5q-15 8 -37 8h-68v107h70q34 0 68 -10t59 -29q10 -8 23.5 -21t26.5 -27.5t24.5 -28t17.5 -21.5q29 -45 29 -109v-409q0 -64 -29 -109q-6 -9 -17.5 -22.5t-24.5 -27.5t-26.5 -27.5t-23.5 -20.5q-25 -19 -59 -29t-68 -10 h-90q-34 0 -68.5 10t-58.5 29q-14 9 -32 27.5t-34 35.5q-15 -17 -33 -35.5t-32 -27.5q-25 -19 -59 -29t-68 -10h-91q-34 0 -68 10t-58 29q-11 7 -24.5 20.5t-26.5 27.5t-24.5 27.5t-17.5 22.5q-15 23 -21.5 50.5t-6.5 58.5zM522 1065l82 276l109 -22l-76 -254h-115z" />
<glyph unicode="&#x401;" horiz-adv-x="1020" d="M100 0v1229h705v-115h-586v-442h555v-115h-555v-442h586v-115h-705zM248 1430v157h155v-157h-155zM547 1430v157h155v-157h-155z" />
<glyph unicode="&#x402;" horiz-adv-x="1270" d="M20 1114v115h820v-115h-348v-326q16 18 36.5 36.5t43.5 33t49 24t53 9.5h147q32 0 66 -10t59 -29q11 -8 24.5 -21t26.5 -27.5t24 -28t17 -21.5q31 -46 31 -109v-383q0 -26 -8.5 -51t-22.5 -47q-8 -13 -26 -34t-39 -42.5t-42 -40t-36 -27.5q-22 -12 -52.5 -20t-56.5 -8 h-92v114h90q15 0 29 7t31.5 21.5t35.5 31.5t34 36t26 36q3 5 5.5 11.5t2.5 12.5v379q0 23 -6 35q-14 26 -37.5 53t-48.5 41q-13 8 -37 8h-139q-8 0 -16.5 -1.5t-14.5 -4.5q-13 -7 -34.5 -20t-44.5 -30t-43.5 -36.5t-30.5 -38.5l-4 -8v-639h-121v1114h-351z" />
<glyph unicode="&#x403;" d="M100 0v1229h711v-115h-592v-1114h-119zM410 1366l174 228h143l-209 -265z" />
<glyph unicode="&#x404;" horiz-adv-x="1090" d="M80 260v705q0 26 5.5 51t20.5 47q9 13 26 34t37.5 42.5t40.5 40t34 26.5q21 13 50 22t54 9h291q25 0 54 -8.5t50 -22.5q16 -10 34 -26t35 -34t32 -36t26 -33t23.5 -36.5t21.5 -43.5l-116 -32l-5 10q-2 4 -4 8.5t-4 7.5q-11 18 -26.5 37t-33 36.5t-34.5 31t-30 20.5 q-5 3 -13 4.5t-16 1.5h-275q-14 0 -26 -6t-29.5 -20t-35.5 -32t-34 -37.5t-26 -37.5q-3 -5 -5.5 -12.5t-2.5 -15.5v-279h540v-115h-540v-299q0 -8 2.5 -16t5.5 -14q10 -18 26 -37.5t34 -37t35.5 -31t29.5 -19.5q14 -7 26 -7h275q17 0 29 7q13 6 30 19t34.5 30.5t33 37 t26.5 38.5l8 16q3 4 5 10l116 -35q-9 -21 -21.5 -41.5t-23.5 -35.5t-26 -33t-32 -36t-35 -34t-34 -26q-21 -14 -50 -23.5t-54 -9.5h-174h-115q-26 0 -54.5 9.5t-51.5 23.5q-14 8 -34 26.5t-40.5 40t-37.5 42.5t-26 34q-14 20 -19 44.5t-7 49.5z" />
<glyph unicode="&#x405;" horiz-adv-x="1122" d="M59 0zM59 231l117 33q6 -14 10 -19q2 -4 4 -5q11 -19 27 -39t33.5 -37.5t34.5 -31.5t30 -21q5 -4 13 -5.5t16 -1.5h326q16 0 24 7q12 6 30 19t37 30t35.5 36t26.5 37q6 13 6 27v131q0 31 -18 59.5t-47 36.5l-561 154q-30 9 -53.5 28t-40 45t-25 57t-8.5 63v127q0 26 5 52 t19 48q9 13 27 34t39 42.5t41.5 40t34.5 26.5q21 14 50 23.5t54 9.5h305q25 0 54 -9.5t51 -23.5q16 -10 34 -26t35 -34t32 -36t26 -33t24.5 -36.5t22.5 -43.5l-119 -34q-3 7 -5.5 12t-4.5 8q-3 4 -4 6q-10 18 -26 38t-33.5 38t-35 32t-30.5 21q-5 3 -12 4.5t-15 1.5h-289 q-17 0 -26 -6q-12 -6 -30 -18.5t-36 -29t-34.5 -35t-26.5 -36.5q-3 -6 -5.5 -12t-2.5 -14v-129q0 -31 17.5 -57.5t45.5 -34.5l559 -156q30 -9 54 -27.5t41.5 -44t26.5 -56.5t9 -63v-139q0 -26 -5 -52t-19 -48q-9 -13 -27 -33.5t-39 -41.5t-41.5 -39.5t-34.5 -26.5 q-21 -14 -50 -23.5t-54 -9.5h-340q-25 0 -55 9.5t-52 23.5q-16 10 -34 26t-35 34t-32 36t-26 33t-23 36.5t-22 42.5z" />
<glyph unicode="&#x406;" horiz-adv-x="442" d="M100 0v1229h119v-1229h-119z" />
<glyph unicode="&#x407;" horiz-adv-x="471" d="M-68 1364v158h156v-158h-156zM100 0v1229h119v-1229h-119zM231 1364v158h156v-158h-156z" />
<glyph unicode="&#x408;" horiz-adv-x="932" d="M20 233l115 33q11 -21 27.5 -44t35.5 -44.5t38.5 -39t35.5 -25.5q5 -3 14 -5t17 -2h143q14 0 25 7q12 6 30 20.5t36.5 32.5t35.5 38t27 38q3 6 5.5 12t2.5 14v961h119v-963q0 -26 -6.5 -52t-20.5 -48q-8 -13 -25.5 -33.5t-37.5 -41.5t-40 -39.5t-34 -26.5 q-21 -14 -51.5 -23.5t-54.5 -9.5h-160q-25 0 -55 9.5t-52 23.5q-16 10 -33.5 26t-34 34t-31.5 36t-25 33q-11 15 -23.5 36.5t-22.5 42.5z" />
<glyph unicode="&#x409;" horiz-adv-x="1778" d="M-61 -8v114h90q14 0 28 7t32 21.5t36 31.5t33.5 36t25.5 36q5 6 7 15t2 15v961h716v-559h412q32 0 65 -10.5t58 -28.5q10 -8 25 -22.5t30.5 -30.5t29 -30.5t19.5 -23.5q29 -46 29 -106v-168q0 -58 -29 -105q-6 -9 -19.5 -24t-29 -30.5t-30.5 -30t-25 -21.5 q-25 -17 -58 -28t-65 -11h-530v1114h-480v-852q0 -53 -28 -98q-9 -13 -27 -34t-39 -42.5t-42 -40t-36 -27.5q-21 -12 -51.5 -20t-56.5 -8h-92zM909 115h410q11 0 20 2.5t17 5.5q11 7 25 18t27.5 24t25 27t18.5 27q3 6 4.5 15t1.5 18v166q0 19 -6 33q-7 13 -18.5 27.5t-25 28 t-27.5 25.5t-25 19q-15 6 -37 6h-410v-442z" />
<glyph unicode="&#x40a;" horiz-adv-x="1765" d="M100 0v1229h119v-557h559v557h119v-559h412q32 0 65 -10.5t58 -28.5q10 -8 25 -22.5t30.5 -30.5t29 -30.5t19.5 -23.5q14 -23 21.5 -50t7.5 -56v-168q0 -29 -7.5 -55.5t-21.5 -49.5q-6 -9 -19.5 -24t-29 -30.5t-30.5 -30t-25 -21.5q-25 -17 -58 -28t-65 -11h-531v557 h-559v-557h-119zM897 115h410q11 0 19.5 2.5t16.5 5.5q12 7 25.5 18t27 24t25.5 27t19 27q3 6 4.5 15t1.5 18v166q0 19 -6 33q-7 13 -19 27.5t-25.5 28t-27 25.5t-25.5 19q-15 6 -36 6h-410v-442z" />
<glyph unicode="&#x40b;" horiz-adv-x="1270" d="M20 1114v115h820v-115h-348v-326q16 18 36.5 36.5t43.5 33t49 24t53 9.5h147q32 0 66 -10t59 -29q11 -8 24.5 -21t26.5 -27.5t24 -28t17 -21.5q31 -46 31 -109v-645h-121v641q0 23 -6 35q-14 26 -37.5 53t-48.5 41q-13 8 -37 8h-139q-8 0 -16.5 -1.5t-14.5 -4.5 q-13 -7 -34.5 -20t-44.5 -30t-43.5 -36.5t-30.5 -38.5l-4 -8v-639h-121v1114h-351z" />
<glyph unicode="&#x40c;" horiz-adv-x="1038" d="M100 0v1229h119v-559h66l467 559h151l-518 -615l520 -614h-151l-469 557h-66v-557h-119zM410 1366l174 228h143l-209 -265z" />
<glyph unicode="&#x40e;" horiz-adv-x="915" d="M-4 1229h123l278 -750h45l285 750h121l-467 -1229h-121l137 352h-78zM223 1602h78q0 -24 9 -45.5t24.5 -37t36.5 -25t45 -9.5t45.5 9.5t38 25t26 37t9.5 45.5h77q0 -41 -15.5 -76.5t-42 -62t-62.5 -41.5t-76 -15q-41 0 -76 15t-61 41.5t-41 62t-15 76.5z" />
<glyph unicode="&#x40f;" horiz-adv-x="1128" d="M102 0v1229h119v-1112h570v1112h118v-1229h-344v-217h-116v217h-347z" />
<glyph unicode="&#x410;" horiz-adv-x="1100" d="M-6 0l412 1229h184l411 -1229h-127l-92 285h-569l-94 -285h-125zM250 399h495l-235 713h-27z" />
<glyph unicode="&#x411;" horiz-adv-x="1069" d="M100 0v1225v4h731v-115h-612v-444h434q32 0 65 -11t58 -28q10 -8 25.5 -22.5t30.5 -31t28 -31.5t19 -24q15 -23 21.5 -49t6.5 -57v-166q0 -29 -6.5 -56.5t-21.5 -50.5q-6 -8 -19 -23t-28 -30.5t-30.5 -29.5t-25.5 -21q-25 -19 -58 -29t-65 -10h-549h-4zM219 113v2h432 q10 0 19.5 1.5t15.5 4.5q12 7 26.5 18t28 24.5t25 27.5t18.5 26q3 6 3.5 15t0.5 18v168q0 9 -0.5 17.5t-3.5 15.5q-7 13 -18.5 27.5t-25 28t-28 25t-26.5 17.5q-6 5 -15.5 6.5t-19.5 1.5h-432v-444z" />
<glyph unicode="&#x412;" horiz-adv-x="1108" d="M100 0v1229h553q32 0 65 -11.5t58 -29.5q10 -8 25.5 -22.5t30.5 -30.5t28 -30.5t19 -23.5q15 -23 21.5 -51t6.5 -57v-158q0 -29 -6.5 -57t-21.5 -51q-5 -7 -14 -17.5t-20.5 -22.5t-23.5 -24l-22 -22l22 -22t23.5 -24t20.5 -22.5t14 -17.5q15 -23 21.5 -51.5t6.5 -57.5 v-174q0 -29 -6.5 -55.5t-21.5 -49.5q-6 -8 -19 -23t-28 -31.5t-30.5 -31.5t-25.5 -22q-25 -19 -58 -29t-65 -10h-553zM219 115h432q22 0 35 8q12 7 26 18.5t27.5 25t24.5 28.5t18 28q3 6 4.5 15t1.5 18v168q0 9 -1.5 18t-4.5 15q-7 13 -18 28t-24.5 28.5t-27.5 25t-26 18.5 q-12 6 -33 6h-434v-448zM219 676h434q10 0 18.5 2.5t14.5 5.5q12 7 26 18.5t27.5 25.5t24.5 28.5t18 27.5q3 7 4.5 16.5t1.5 18.5v152q0 19 -6 33q-7 13 -18 27.5t-24.5 29t-27.5 26.5t-26 19q-13 8 -35 8h-432v-438z" />
<glyph unicode="&#x413;" d="M100 0v1229h711v-115h-592v-1114h-119z" />
<glyph unicode="&#x414;" horiz-adv-x="1196" d="M-37 115h18t29.5 0.5t29 1t17.5 2.5q13 7 28 17.5t29 22.5t26.5 24.5t21.5 23.5q5 6 9.5 15.5t6.5 25.5l113 981h618v-1114h101l-39 -312h-117l25 197h-801v-197h-115v312zM227 115h566v999h-396l-104 -872q-6 -35 -18.5 -62.5t-30.5 -50.5q-5 -5 -7.5 -7t-9.5 -7z" />
<glyph unicode="&#x415;" horiz-adv-x="1020" d="M100 0v1229h705v-115h-586v-442h555v-115h-555v-442h586v-115h-705z" />
<glyph unicode="&#x416;" horiz-adv-x="1622" d="M10 0l522 614l-520 615h152l469 -557h65v557h119v-557h68l465 557h149l-514 -615l516 -614h-149l-469 559h-66v-559h-119v559h-65l-469 -559h-154z" />
<glyph unicode="&#x417;" horiz-adv-x="1075" d="M57 231l119 33q11 -21 27.5 -44t35.5 -44.5t38.5 -39t35.5 -25.5q5 -4 13 -5.5t16 -1.5h274q22 0 35 9q12 7 26 18.5t27.5 25t25 28.5t18.5 28q6 12 6 33v182q0 9 -1.5 18t-4.5 15q-7 13 -18.5 27.5t-25 28t-27.5 24.5t-26 18q-6 3 -14.5 5.5t-18.5 2.5h-249v115h247 q10 0 19.5 1.5t15.5 4.5q12 7 26 18.5t27.5 25t25 27.5t18.5 27q3 7 4.5 16.5t1.5 18.5v158q0 9 -1.5 19t-4.5 16q-7 13 -18.5 28t-25 29.5t-27.5 26t-26 18.5q-8 5 -16.5 5.5t-18.5 0.5h-274q-8 0 -16 -1.5t-13 -4.5q-16 -8 -36 -25t-39.5 -38.5t-36 -45t-25.5 -44.5 l-117 32q10 22 22 43.5t23 36.5t26 33.5t32 37t35 34.5t34 26q22 14 51 22.5t54 8.5h282q33 0 65 -10t56 -29q10 -8 25.5 -22.5t30.5 -31t28 -31.5t19 -23q30 -47 30 -107v-166q0 -61 -30 -106q-5 -7 -14 -17.5t-20 -22.5t-23 -24t-23 -22q11 -10 23 -22t23 -24t20 -22.5 t14 -17.5q30 -47 30 -107v-188q0 -61 -30 -107q-6 -8 -19 -23t-28 -31.5t-30.5 -31.5t-25.5 -22q-24 -19 -56 -29t-65 -10h-282q-25 0 -54 9.5t-51 23.5q-16 10 -34 25.5t-35 33t-32 35.5t-26 33t-24 37.5t-23 43.5z" />
<glyph unicode="&#x418;" horiz-adv-x="1157" d="M104 0v1229h119v-1049l555 1049h158v-1229h-119v1063l-555 -1063h-158z" />
<glyph unicode="&#x419;" horiz-adv-x="1157" d="M104 0v1229h119v-1049l555 1049h158v-1229h-119v1063l-555 -1063h-158zM328 1532h78q0 -24 9 -45.5t24.5 -37t36 -25t44.5 -9.5t45.5 9.5t38 25t26 37t9.5 45.5h78q0 -41 -15.5 -76.5t-42 -62t-62.5 -41.5t-77 -15t-76 15t-60.5 41.5t-40.5 62t-15 76.5z" />
<glyph unicode="&#x41a;" horiz-adv-x="1026" d="M100 0v1229h119v-559h66l467 559h151l-518 -615l520 -614h-151l-469 557h-66v-557h-119z" />
<glyph unicode="&#x41b;" horiz-adv-x="1157" d="M-61 -8v114h90q14 0 28 7t32 21.5t36 31.5t33.5 36t25.5 36q5 6 7 15t2 15v961h745v-1229h-117v1114h-512v-852q0 -53 -28 -98q-9 -13 -27 -34t-39 -42.5t-42 -40t-36 -27.5q-21 -12 -50.5 -20t-55.5 -8h-92z" />
<glyph unicode="&#x41c;" horiz-adv-x="1331" d="M102 0v1229h170l334 -719l336 719h168v-1229h-115v1102l-350 -772h-80l-348 772v-1102h-115z" />
<glyph unicode="&#x41d;" horiz-adv-x="1139" d="M100 0v1229h119v-557h580v557h119v-1229h-119v557h-580v-557h-119z" />
<glyph unicode="&#x41e;" horiz-adv-x="1153" d="M90 264v697q0 26 5.5 52t19.5 48q8 13 26 34t39 42.5t41.5 40t34.5 26.5q22 14 51 23.5t53 9.5h324q25 0 55 -9.5t52 -23.5q13 -8 33.5 -26.5t41 -40t38 -42.5t26.5 -34q14 -22 20 -48t6 -52v-697q0 -26 -6 -52t-20 -48q-9 -13 -26.5 -33.5t-38 -41.5t-41 -39.5 t-33.5 -26.5q-22 -14 -52 -23.5t-55 -9.5h-324q-24 0 -53 9.5t-51 23.5q-14 8 -34.5 26.5t-41.5 39.5t-39 41.5t-26 33.5q-14 22 -19.5 48t-5.5 52zM209 266q0 -8 2.5 -14t5.5 -12q10 -18 26.5 -38t34.5 -38t36 -32.5t30 -20.5q8 -7 27 -7h305q8 0 14.5 1.5t11.5 5.5 q12 6 30 20.5t37 32.5t35.5 38t26.5 38q7 11 7 26v690q0 8 -1.5 16.5t-5.5 14.5q-10 18 -26.5 38t-35.5 38t-37 32.5t-30 20.5t-26 6h-305q-18 0 -27 -6q-12 -6 -30 -20.5t-36 -32.5t-34.5 -38t-26.5 -38q-3 -6 -5.5 -14.5t-2.5 -16.5v-690z" />
<glyph unicode="&#x41f;" horiz-adv-x="1135" d="M100 0v1229h813v-1229h-118v1112h-576v-1112h-119z" />
<glyph unicode="&#x420;" horiz-adv-x="1069" d="M100 0v1229h553q32 0 64 -10.5t57 -28.5q10 -8 25.5 -22.5t31.5 -31t29 -31.5t19 -24q30 -45 30 -106v-180q0 -61 -30 -107q-6 -8 -19 -23t-29 -31t-31.5 -30.5t-25.5 -21.5q-25 -19 -57 -29t-64 -10h-434v-543h-119zM219 657h432q22 0 35 9q12 7 27 18t29 24.5t25.5 28 t18.5 27.5q4 6 4.5 15.5t0.5 19.5v172q0 9 -0.5 18.5t-4.5 16.5q-7 13 -18.5 28t-25.5 29t-29 26t-27 19q-8 5 -16.5 5.5t-18.5 0.5h-432v-457z" />
<glyph unicode="&#x421;" horiz-adv-x="1069" d="M90 0zM90 262v701q0 26 6.5 51t20.5 47q8 13 25.5 34t38 42.5t41 40t34.5 26.5q22 14 51 23.5t53 9.5h273q25 0 54 -9.5t50 -23.5q16 -10 34 -26t35 -34t32 -36t26 -33t24.5 -36.5t22.5 -43.5l-118 -34q-9 21 -26 45t-36.5 45.5t-39.5 39t-36 25.5q-5 3 -12.5 4.5 t-15.5 1.5h-256q-18 0 -27 -6q-12 -6 -30 -20.5t-36.5 -32.5t-35.5 -38t-27 -38q-6 -12 -6 -29v-692q0 -14 6 -26q10 -18 27 -38t35.5 -38t36.5 -32.5t30 -20.5q8 -7 27 -7h256q8 0 15.5 1.5t12.5 5.5q16 8 35.5 25.5t38.5 39t36 44.5t28 44l118 -33q-9 -21 -22.5 -42.5 t-24.5 -36.5t-26 -33t-32 -36t-35 -34t-34 -26q-21 -14 -50 -23.5t-54 -9.5h-271q-24 0 -54 9.5t-52 23.5q-14 8 -34.5 26.5t-41 39.5t-38 41.5t-25.5 33.5q-14 22 -20.5 47t-6.5 51z" />
<glyph unicode="&#x422;" d="M20 1114v115h820v-115h-351v-1114h-118v1114h-351z" />
<glyph unicode="&#x423;" horiz-adv-x="930" d="M-4 1229h123l278 -750h45l285 750h121l-467 -1229h-121l137 352h-78z" />
<glyph unicode="&#x424;" horiz-adv-x="1223" d="M90 264v697q0 26 5.5 52t19.5 48q8 13 26 34t39 42.5t41.5 40t34.5 26.5q22 14 51 23.5t53 9.5h138v94h112v-94h135q25 0 55 -9.5t52 -23.5q14 -8 34.5 -26.5t41 -40t38 -42.5t25.5 -34q14 -22 20.5 -48t6.5 -52v-697q0 -26 -6.5 -52t-20.5 -48q-8 -13 -25.5 -33.5 t-38 -41.5t-41 -39.5t-34.5 -26.5q-22 -14 -52 -23.5t-55 -9.5h-135v-113h-112v113h-138q-24 0 -53 9.5t-51 23.5q-14 8 -34.5 26.5t-41.5 39.5t-39 41.5t-26 33.5q-14 22 -19.5 48t-5.5 52zM209 266q0 -8 2.5 -14t5.5 -12q10 -18 26.5 -38t34.5 -38t36 -32.5t30 -20.5 q8 -7 27 -7h127v1018h-127q-18 0 -27 -6q-12 -6 -30 -20.5t-36 -32.5t-34.5 -38t-26.5 -38q-3 -6 -5.5 -14.5t-2.5 -16.5v-690zM610 104h127q19 0 27 7q12 6 30 20.5t36.5 32.5t35.5 38t27 38q6 12 6 26v690q0 19 -6 31q-10 18 -27 38t-35.5 38t-36.5 32.5t-30 20.5 q-9 6 -27 6h-127v-1018z" />
<glyph unicode="&#x425;" horiz-adv-x="1018" d="M-6 0l391 629l-371 600h131l306 -494q74 121 151.5 247t153.5 247h131l-369 -600l389 -629h-133l-323 522l-324 -522h-133zM0 0z" />
<glyph unicode="&#x426;" horiz-adv-x="1169" d="M100 0v1229h119v-1114h545v1114h119v-1114h100l-37 -312h-117l23 197h-752z" />
<glyph unicode="&#x427;" horiz-adv-x="1079" d="M70 809v420h120v-422q0 -9 1.5 -16.5t3.5 -10.5q7 -14 18.5 -29t25 -28.5t28 -24.5t26.5 -18q15 -6 37 -6h407v555h121v-1229h-121v559h-409q-32 0 -66 10t-59 29q-10 7 -25 21.5t-30 30t-28.5 31t-19.5 24.5q-14 21 -22 48t-8 56z" />
<glyph unicode="&#x428;" horiz-adv-x="1321" d="M102 0v1229h119v-1112h316v1112h118v-1112h326v1112h119v-1229h-998z" />
<glyph unicode="&#x429;" horiz-adv-x="1386" d="M102 0v1229h119v-1114h314v1114h118v-1114h326v1114h119v-1114h100l-37 -312h-117l23 197h-965z" />
<glyph unicode="&#x42a;" horiz-adv-x="1255" d="M12 1118v111h355v-559h432q32 0 65 -10.5t58 -28.5q10 -8 25 -22.5t30.5 -30.5t29 -30.5t19.5 -23.5q16 -24 22.5 -50.5t6.5 -57.5v-164q0 -29 -6.5 -56.5t-22.5 -50.5q-6 -9 -19.5 -24t-29 -30.5t-30.5 -30t-25 -21.5q-25 -19 -58 -29t-65 -10h-551v1118h-236zM367 115 h430q9 0 18.5 2.5t15.5 5.5q12 7 26.5 18t28 24.5t25.5 27.5t19 26q6 12 6 35v164q0 19 -6 33q-7 13 -19 27.5t-25.5 28t-28 25.5t-26.5 19q-6 3 -15.5 4.5t-18.5 1.5h-430v-442z" />
<glyph unicode="&#x42b;" horiz-adv-x="1462" d="M100 0v1229h119v-559h432q32 0 65 -10.5t58 -28.5q10 -8 25.5 -22.5t31 -30.5t29 -30.5t19.5 -23.5q15 -23 21.5 -50t6.5 -56v-166q0 -31 -6.5 -57.5t-21.5 -49.5q-6 -9 -19.5 -24t-29 -30.5t-31 -30t-25.5 -21.5q-25 -17 -58 -28t-65 -11h-551zM219 115h430q11 0 20 2.5 t17 5.5q12 7 25.5 18t27 24t25 27t18.5 27q3 6 4.5 15t1.5 18v166q0 19 -6 33q-7 13 -18.5 27.5t-25 28t-27 25.5t-25.5 19q-15 6 -37 6h-430v2v-444zM1126 0v1229h115v-1229h-115z" />
<glyph unicode="&#x42c;" horiz-adv-x="1108" d="M100 0v1229h119v-559h432q32 0 65 -10.5t58 -28.5q10 -8 25.5 -22.5t31 -30.5t29 -30.5t19.5 -23.5q28 -47 28 -106v-168q0 -57 -28 -105q-6 -9 -19.5 -24t-29 -30.5t-31 -30t-25.5 -21.5q-25 -17 -58 -28t-65 -11h-551zM219 115h430q11 0 20 2.5t17 5.5q12 7 25.5 18 t27 24t25 27t18.5 27q3 6 4.5 15t1.5 18v166q0 19 -6 33q-7 13 -18.5 27.5t-25 28t-27 25.5t-25.5 19q-15 6 -37 6h-430v2v-444z" />
<glyph unicode="&#x42d;" horiz-adv-x="1094" d="M57 229l117 35q1 -6 4 -10q2 -5 4 -9t4 -7q11 -19 27 -38.5t33.5 -37t34.5 -30.5t30 -19q5 -3 13 -5t16 -2h274q13 0 27 7q12 6 29.5 19.5t35.5 31t34 37t26 37.5q3 6 5.5 14t2.5 16v299h-493v115h493v279q0 8 -2.5 15.5t-5.5 12.5q-10 18 -26 37.5t-34 37.5t-35.5 32 t-29.5 20t-27 6h-274q-8 0 -16 -1.5t-13 -4.5q-13 -7 -30 -20.5t-34.5 -31t-33.5 -36.5t-27 -37q-2 -3 -4 -7.5t-4 -8.5q-3 -5 -4 -10l-117 32q10 22 22 43.5t23 36.5t26 33t32 36t35 34t34 26q22 14 51 22.5t54 8.5h291q24 0 53 -9t51 -22q14 -8 34 -26.5t40 -40 t37.5 -42.5t25.5 -34q16 -22 21.5 -47t5.5 -51v-705q-2 -25 -7.5 -49.5t-19.5 -44.5q-8 -13 -25.5 -34t-37.5 -42.5t-40 -40t-34 -26.5q-23 -14 -51.5 -23.5t-54.5 -9.5h-115h-174q-25 0 -54 9.5t-51 23.5q-16 10 -34 26t-35 34t-32 36t-26 33t-23 35.5t-22 41.5z" />
<glyph unicode="&#x42e;" horiz-adv-x="1489" d="M100 0v1229h115v-553h211v287q0 27 5.5 52.5t19.5 47.5q8 13 25.5 33.5t37.5 41.5t40.5 39.5t35.5 26.5q21 14 50.5 23.5t53.5 9.5h328q26 0 54.5 -9.5t51.5 -23.5q14 -8 34 -26.5t40 -39.5t37.5 -41.5t26.5 -33.5q14 -22 20 -47.5t6 -52.5v-701h-2q0 -26 -5 -51t-19 -47 q-9 -13 -26.5 -33.5t-37.5 -41.5t-40.5 -39.5t-35.5 -26.5q-21 -14 -50 -23.5t-54 -9.5h-328q-24 0 -53.5 9.5t-50.5 23.5q-14 8 -34 26.5t-40.5 39.5t-38 41.5t-26.5 33.5q-14 22 -19.5 47t-5.5 51v297h-211v-559h-115zM545 266q0 -8 1.5 -16t4.5 -14q11 -18 27.5 -37.5 t34.5 -37t35.5 -31t29.5 -19.5q8 -7 27 -7h309q8 0 14.5 1.5t11.5 5.5q12 6 30 19.5t36 31t34.5 37t26.5 37.5q7 14 7 30v697q0 14 -7 28q-10 18 -26.5 37.5t-34.5 37t-36 31t-30 19.5q-5 3 -11.5 4.5t-12.5 1.5h-311q-18 0 -27 -6q-12 -6 -30 -19.5t-36 -31t-34.5 -37 t-26.5 -37.5q-3 -6 -4.5 -14t-1.5 -14v-697z" />
<glyph unicode="&#x42f;" horiz-adv-x="1135" d="M49 0l305 543q-64 0 -114 39q-10 7 -25.5 21.5t-31.5 30.5t-29 31t-19 23q-31 48 -31 107v180q0 59 31 106q6 9 19 24t29 31.5t31.5 31t25.5 22.5q24 18 56 28.5t64 10.5h553v-1229h-118v543h-308l-303 -543h-135zM223 799q0 -10 0.5 -19.5t3.5 -15.5q7 -13 19 -27.5 t26 -28t29 -24.5t27 -18q8 -5 16.5 -7t17.5 -2h433v457h-433q-9 0 -17.5 -0.5t-16.5 -5.5q-12 -7 -27 -19t-29 -26t-26 -29t-19 -28q-3 -7 -3.5 -16.5t-0.5 -18.5v-172z" />
<glyph unicode="&#x430;" d="M41 233v41q0 63 31 109q6 9 17 22t24 26.5t26 26.5t23 21q25 19 57.5 29t67.5 10h356v125q0 12 -1 20t-3 13q-7 13 -18.5 28t-25 28.5t-28 25t-26.5 18.5q-15 8 -37 8h-193q-20 0 -35 -8q-12 -7 -25.5 -18.5t-27 -26t-25 -29.5t-20.5 -28l-106 35q5 8 12 20.5t18 26.5 q7 10 18.5 23t24.5 27t26 26.5t24 21.5q24 19 55.5 28t66.5 9h189q35 0 68.5 -10t58.5 -29q12 -7 25.5 -19.5t26 -27t23.5 -28t17 -21.5q17 -23 23 -51.5t6 -59.5v-500l14 -145h-111l-12 102q-18 -20 -39.5 -38.5t-38.5 -30.5q-23 -17 -48.5 -30t-51.5 -13h-180 q-35 0 -67.5 10t-57.5 29q-10 8 -23 21t-26 26.5t-24 26.5t-17 22q-31 46 -31 108zM152 233q0 -20 6 -32q7 -13 18 -27t23.5 -27.5t26.5 -24.5t26 -18q13 -8 37 -8h172q16 0 28 6t34 19.5t45 31t44 37t31 37.5v185h-354q-24 0 -37 -9q-12 -7 -26 -18t-26.5 -24t-23.5 -27 t-18 -27q-6 -12 -6 -33v-41z" />
<glyph unicode="&#x431;" horiz-adv-x="965" d="M82 248v500v229q0 61 31 102q5 9 18 24.5t28.5 32t31 31.5t26.5 23q25 18 59 28.5t66 10.5h229l-32 -107h-195q-11 0 -20 -2.5t-17 -5.5q-12 -7 -28 -20.5t-31 -29.5t-28.5 -33t-20.5 -30q-6 -12 -6 -34v-183q21 22 40 38t39 30q23 15 49 27t52 12h149q38 0 72 -8t65 -31 q11 -8 24.5 -21t27 -27.5t24.5 -28t17 -21.5q19 -31 24.5 -56.5t5.5 -62.5v-391q0 -35 -5 -61.5t-25 -55.5q-6 -9 -17.5 -23t-25 -28t-27 -27t-23.5 -20q-31 -23 -65 -31t-72 -8h-180q-32 0 -66 10t-59 29q-11 7 -26.5 22t-31 31.5t-28.5 32t-18 24.5q-31 46 -31 109z M193 252q0 -23 6 -35q7 -13 20.5 -29.5t28.5 -32t31 -29t28 -20.5q8 -5 16 -7.5t19 -2.5h186q10 0 22.5 2.5t20.5 7.5q12 7 25.5 18.5t26.5 25t24 28t19 27.5q5 8 5.5 19t0.5 18v389q0 9 -1.5 24t-4.5 21q-39 63 -97 100q-9 6 -24 7t-23 1h-143q-11 0 -20.5 -3.5t-14.5 -6.5 q-12 -5 -33.5 -19t-44.5 -32t-42.5 -37.5t-26.5 -34.5l-4 -10v-389z" />
<glyph unicode="&#x432;" horiz-adv-x="975" d="M82 -10v901h465q32 -2 66 -12.5t59 -28.5q10 -8 22.5 -19.5t24.5 -24t21.5 -24.5t15.5 -20q30 -50 30 -111v-30q-2 -29 -8.5 -55t-21.5 -48q-10 -14 -28.5 -35.5t-37.5 -40.5q19 -17 37.5 -37t28.5 -34q30 -47 30 -109v-39q-2 -29 -8.5 -55t-21.5 -49q-6 -9 -15.5 -21.5 t-21.5 -25.5t-24.5 -24.5t-22.5 -18.5q-25 -19 -59 -29t-66 -10h-465zM193 96h352q9 0 18.5 1.5t16.5 6.5q24 14 50 40.5t40 52.5q6 12 6 34v31q0 19 -6 31q-7 13 -17 26.5t-22 26t-24.5 22.5t-24.5 17q-8 5 -18 6.5t-19 1.5h-352v-297zM193 496h352q9 0 18.5 1.5t16.5 4.5 q12 7 25 17.5t25 23t22.5 26.5t17.5 27q6 12 6 35v20q0 19 -6 31q-7 13 -17 27t-22 26.5t-24.5 23t-24.5 17.5q-8 5 -18 6.5t-19 1.5h-352v-288z" />
<glyph unicode="&#x433;" horiz-adv-x="772" d="M82 0v881h571v-107h-460v-774h-111z" />
<glyph unicode="&#x434;" horiz-adv-x="1051" d="M-14 106h14.5t21.5 1t21 2t14 4q13 6 28 17.5t28.5 25t25.5 27.5t19 26q5 6 9.5 16t6.5 21l102 635h521v-775h90l-39 -303h-105l23 197h-676v-197h-104v303zM215 106h473v668h-321l-82 -530q-7 -38 -19.5 -71t-34.5 -54q-5 -5 -9 -8t-7 -5z" />
<glyph unicode="&#x435;" horiz-adv-x="965" d="M72 236v409q0 62 30 109q6 8 17.5 21.5t24.5 28t26.5 27.5t24.5 21q24 19 58 29t69 10h204q34 0 68.5 -10t58.5 -29q11 -8 24.5 -21t26.5 -27.5t24 -28t17 -21.5q16 -23 22.5 -50.5t6.5 -58.5v-254h-592v-151q0 -23 6 -35q7 -13 18.5 -28t25 -28.5t27.5 -25.5t26 -19 q13 -8 34 -8h216q23 0 36 8q12 7 26 19.5t27.5 26.5t24.5 28.5t17 26.5l2 4l108 -37q-6 -12 -12.5 -22.5t-15.5 -22.5q-6 -9 -17.5 -22.5t-24.5 -27.5t-26.5 -27.5t-24.5 -20.5q-24 -19 -57.5 -29t-67.5 -10h-208q-35 0 -69 10t-58 29q-11 7 -24.5 20.5t-26.5 27.5 t-24.5 27.5t-17.5 22.5q-30 46 -30 109zM182 498h482v143q0 11 -0.5 20t-4.5 15q-7 13 -18.5 28t-25 28.5t-28 25t-26.5 18.5q-13 8 -37 8h-202q-22 0 -35 -8q-12 -7 -26.5 -18.5t-28 -25t-25.5 -28.5t-19 -28q-6 -12 -6 -35v-143z" />
<glyph unicode="&#x436;" horiz-adv-x="1341" d="M-27 0l424 461l-381 420h152l328 -367h59v367h111v-367h61l328 367h151l-381 -420l424 -461h-162l-360 408h-61v-408h-111v408h-59l-363 -408h-160z" />
</font>
</defs>
</svg>
