<?xml version="1.0" standalone="no"?>
<!DOCTYPE svg PUBLIC "-//W3C//DTD SVG 1.1//EN" "http://www.w3.org/Graphics/SVG/1.1/DTD/svg11.dtd" >
<svg xmlns="http://www.w3.org/2000/svg">
<metadata></metadata>
<defs>
<font id="blender_probook_italic" horiz-adv-x="963" >
<font-face units-per-em="2048" ascent="1638" descent="-410" />
<missing-glyph horiz-adv-x="467" />
<glyph horiz-adv-x="1024" />
<glyph horiz-adv-x="1024" />
<glyph unicode=" "  horiz-adv-x="467" />
<glyph unicode="&#x09;" horiz-adv-x="467" />
<glyph unicode="&#xa0;" horiz-adv-x="467" />
<glyph unicode="!" horiz-adv-x="483" d="M111 0l30 160h160l-31 -160h-159zM197 346l172 881h110l-172 -881h-110z" />
<glyph unicode="&#x22;" horiz-adv-x="760" d="M330 946l43 139l45 242h108l-51 -268l-35 -113h-110zM625 946l43 139l45 242h108l-51 -268l-35 -113h-110z" />
<glyph unicode="#" horiz-adv-x="1073" d="M125 381l39 106h180l86 234h-180l39 106h180l78 211h110l-77 -211h192l78 211h111l-78 -211h180l-39 -106h-180l-86 -234h180l-39 -106h-180l-82 -219h-111l82 219h-192l-82 -219h-111l82 219h-180zM455 487h192l86 234h-192z" />
<glyph unicode="$" horiz-adv-x="1122" d="M102 231l113 29q2 -6 3.5 -10t2.5 -6q1 -3 2 -4q8 -19 20.5 -39t26.5 -37.5t28 -31.5t26 -21q5 -4 11.5 -5.5t14.5 -1.5h121l92 474l-229 65q-29 9 -50.5 27.5t-35 44t-18 56.5t2.5 63l25 127q5 26 14.5 52t28.5 48q11 13 33 34t47.5 42.5t50 40t39.5 26.5 q25 14 55.5 23.5t55.5 9.5h108l35 174h102l-34 -174h98q25 0 52.5 -9.5t45.5 -23.5q14 -10 28.5 -26t28 -34t25.5 -36t21 -33q8 -15 16.5 -36.5t13.5 -43.5l-114 -30q-3 9 -6 15q-2 4 -3 7q-6 18 -17.5 38t-26 38t-29.5 32t-27 21q-6 6 -25 6h-104l-88 -463l242 -69 q28 -9 50 -27t35.5 -43t18 -55t-1.5 -62l-27 -139q-6 -26 -16 -52t-29 -48q-11 -13 -32.5 -33.5t-46.5 -41.5t-49.5 -39.5t-39.5 -26.5q-24 -14 -54.5 -23.5t-55.5 -9.5h-125l-35 -183h-102l35 183h-113q-25 0 -53.5 9.5t-46.5 23.5q-15 10 -30 26t-28.5 34t-25 36t-19.5 33 t-16 36.5t-15 42.5zM352 831q-5 -30 8 -55t39 -33l185 -55l84 434h-90q-17 0 -29 -6q-13 -6 -34.5 -21t-45 -34t-45 -39.5t-35.5 -38.5q-9 -12 -12 -27zM573 104h105q17 0 27 7q13 6 35 21t45.5 34t45.5 39.5t35 38.5q5 6 8 12t5 14l24 121q3 15 2 31.5t-6 30.5t-14 24.5 t-23 14.5l-203 57z" />
<glyph unicode="%" horiz-adv-x="1460" d="M201.5 785q-0.5 24 5.5 53l35 180q6 29 16 54t29 46q7 8 19.5 20t27 25t29 25t26.5 20q26 14 58 24.5t61 10.5h84q31 0 60.5 -10.5t47.5 -24.5q9 -8 19 -20t20 -25t18 -25t13 -20q11 -18 10.5 -44.5t-6.5 -55.5l-35 -180q-6 -29 -16 -53t-27 -46q-7 -8 -19.5 -20 t-27.5 -25t-30 -25t-27 -20q-25 -15 -57.5 -26t-63.5 -11h-84q-29 0 -57.5 11t-48.5 26q-9 8 -19 20t-20 25t-17.5 25t-11.5 20q-11 22 -11.5 46zM293 0l846 1229h129l-844 -1229h-131zM308 812.5q-1 -7.5 1 -13.5q4 -9 11 -20.5t15 -22t16 -19t14 -12.5q8 -5 16 -6.5 t14 -1.5h88q7 0 15 1.5t16 6.5q12 6 27.5 17.5t31.5 25t30 27t22 24.5q7 11 10 31l35 174q2 11 3.5 18.5t-1.5 16.5q-4 8 -11.5 19t-16 22t-16.5 20t-14 13q-6 5 -14 6.5t-14 1.5h-88q-7 0 -15.5 -1.5t-17.5 -6.5q-12 -6 -27 -18t-30.5 -25.5t-29 -27.5t-22.5 -26 q-5 -6 -6.5 -14.5t-3.5 -17.5l-35 -175q-2 -9 -3 -16.5zM793.5 160q-0.5 24 5.5 53l35 180q6 29 16 54t29 47l19.5 19.5t27 25.5t29 25t26.5 20q26 14 58 24t61 10h84q31 0 60.5 -10t47.5 -24q9 -8 19 -20t20 -25t18 -25.5t13 -19.5q11 -19 10.5 -45.5t-6.5 -55.5l-35 -180 q-6 -29 -16 -53t-27 -45q-7 -8 -20 -20t-28 -25t-30 -25.5t-26 -19.5q-25 -16 -57.5 -26.5t-63.5 -10.5h-84q-29 0 -58 10.5t-49 26.5q-8 7 -18 19.5t-20 25.5t-17.5 25t-11.5 20q-11 21 -11.5 45zM900 188q-1 -8 1 -14q4 -9 11 -20t15 -21.5t16 -19.5t13 -13 q8 -5 16.5 -6.5t14.5 -1.5h88q6 0 14.5 1.5t16.5 6.5q12 6 27.5 17.5t31.5 25t30 27.5t22 25q7 11 10 30l35 174q2 11 3.5 18.5t-1.5 16.5q-4 9 -11.5 20t-16 22t-16.5 19.5t-14 12.5q-6 5 -14 6.5t-14 1.5h-88q-7 0 -15.5 -1.5t-17.5 -6.5q-12 -6 -27 -17.5t-30.5 -25 t-29 -28t-22.5 -25.5q-5 -7 -6.5 -15.5t-3.5 -17.5l-35 -174q-2 -9 -3 -17z" />
<glyph unicode="&#x26;" horiz-adv-x="1137" d="M131 244l35 184q6 29 18.5 56.5t32.5 50.5q13 14 23 23.5t21 18.5t24 19t32 25q-8 10 -18 22t-19.5 24t-17 22.5t-10.5 17.5q-12 23 -14.5 51t4.5 57l32 166q5 29 18.5 57.5t33.5 51.5q7 8 22.5 23t34 31t36.5 30t30 22q27 19 62 30t67 11h196q25 0 53.5 -9.5t46.5 -23.5 q14 -10 28.5 -26t28 -34.5t25 -37t19.5 -33.5t16 -36.5t15 -43.5l-115 -30q-5 21 -17.5 44.5t-28 44.5t-32 37.5t-31.5 24.5q-3 3 -11.5 4.5t-16.5 1.5h-189q-18 0 -35 -8q-14 -7 -32 -20t-36 -28t-34 -31t-25 -29q-5 -7 -8.5 -16.5t-5.5 -18.5l-31 -162q-2 -9 -2 -19t2 -16 q4 -12 12 -24.5t17.5 -24.5t20.5 -22t20 -15q11 -8 31 -8h252l-23 -113h-231q-19 0 -35 -8q-13 -7 -31 -20t-36.5 -28t-34.5 -31t-25 -29t-12 -33l-35 -180q-3 -20 0 -33q4 -12 11 -24.5t16 -24.5t19 -22t19 -15q12 -8 31 -8h315q21 0 37 8q13 7 31 19.5t36.5 28t34.5 31.5 t25 29q10 13 13 33l57 293h201l-23 -111h-82l-37 -196q-6 -29 -18.5 -55.5t-32.5 -49.5q-7 -8 -23 -23t-34.5 -31.5t-37 -31.5t-30.5 -22q-28 -19 -63.5 -29t-67.5 -10h-309q-32 0 -62.5 10t-52.5 29q-8 7 -20 22t-24 31.5t-22 31.5t-14 23q-22 48 -10 105z" />
<glyph unicode="'" horiz-adv-x="465" d="M330 946l43 139l45 242h108l-51 -268l-35 -113h-110z" />
<glyph unicode="(" horiz-adv-x="639" d="M141.5 225q-1.5 25 3.5 51l134 691q6 26 17 51t30 47l18 18t24.5 24t28 26.5t29.5 25.5l211 176l65 -90l-198 -162q-31 -24 -58.5 -50.5t-44.5 -49.5q-5 -6 -7.5 -15.5t-4.5 -17.5l-133 -684q-3 -17 -1.5 -26t3.5 -15q5 -14 16 -30t29 -37l143 -174l-84 -78l-147 178 q-22 26 -37.5 52.5t-23.5 41.5q-11 22 -12.5 47z" />
<glyph unicode=")" horiz-adv-x="655" d="M98 -4l199 162q31 24 58 50.5t44 49.5q5 6 8 15.5t5 17.5l133 684q3 17 1.5 26t-3.5 15q-5 14 -16 30t-29 37l-144 174l84 78l148 -178q21 -26 37 -52.5t24 -41.5q11 -22 12 -47t-4 -51l-133 -691q-6 -26 -17 -51t-30 -47q-7 -8 -18 -18.5t-24.5 -23.5t-28 -26.5 t-29.5 -25.5l-211 -176z" />
<glyph unicode="*" horiz-adv-x="926" d="M303 1032l33 105l244 -82l-2 258h110l-4 -258l246 82l33 -105l-246 -78l153 -206l-86 -64l-151 209l-150 -209l-88 64l154 206z" />
<glyph unicode="+" horiz-adv-x="1071" d="M203 457l20 106h307l60 307h106l-59 -307h307l-20 -106h-308l-59 -307h-106l59 307h-307z" />
<glyph unicode="," horiz-adv-x="465" d="M0 -178l178 344l111 -25l-164 -319h-125z" />
<glyph unicode="-" horiz-adv-x="739" d="M170 455l20 106h469l-20 -106h-469z" />
<glyph unicode="." horiz-adv-x="453" d="M82 0l31 160h159l-30 -160h-160z" />
<glyph unicode="/" horiz-adv-x="864" d="M20 0l846 1229h129l-843 -1229h-132z" />
<glyph unicode="0" horiz-adv-x="1032" d="M129 244l143 739q11 60 52 107q7 8 22.5 23t34 31.5t36.5 31t29 22.5q29 19 63 29t66 10h256q32 0 63.5 -10t51.5 -29q9 -8 21.5 -22.5t24.5 -31t22 -31.5t14 -23q11 -23 13 -50.5t-3 -56.5l-143 -739q-12 -59 -51 -105q-7 -8 -23 -23t-35 -31.5t-37 -31.5t-30 -22 q-28 -19 -62.5 -29t-66.5 -10h-256q-32 0 -62.5 10t-52.5 29q-8 7 -20 22t-24 31.5t-22 31.5t-14 23q-22 48 -10 105zM245 230q-1 -9 1 -15q4 -13 13 -28t19.5 -28.5t22.5 -25t23 -18.5q15 -9 34 -9h252q20 0 35 9q14 7 30.5 18.5t33 25t31.5 28.5t24 28q5 6 7.5 15t4.5 18 l142 731q3 9 3.5 19t-1.5 16q-5 13 -14 28t-20.5 28.5t-23.5 25t-22 18.5q-7 5 -15.5 6.5t-17.5 1.5h-252q-9 0 -18.5 -1.5t-18.5 -6.5q-14 -7 -30.5 -18.5t-32.5 -25t-30.5 -28.5t-23.5 -28q-5 -6 -7 -16t-5 -19l-141 -731q-2 -9 -3 -18z" />
<glyph unicode="1" horiz-adv-x="1032" d="M133 0l21 115h295l194 999h-276l22 115h397l-217 -1114h277l-21 -115h-692z" />
<glyph unicode="2" horiz-adv-x="1032" d="M104 0l64 332q12 65 57 112.5t111 79.5l471 230q29 14 51.5 38.5t28.5 55.5l26 141q4 13 3 22t-3 15q-4 12 -11.5 25t-17.5 25.5t-20 22.5t-18 15q-6 5 -15 6.5t-18 1.5h-225q-8 0 -17.5 -1.5t-15.5 -4.5q-18 -8 -41 -25.5t-46.5 -39t-44.5 -45.5t-34 -45l-117 34 q14 22 31 43.5t31 36.5q13 15 31.5 33t39 36t41.5 34t39 26q25 14 56.5 23.5t56.5 9.5h227q32 0 63.5 -10t51.5 -29q9 -8 21.5 -22.5t24.5 -31t22 -31.5t14 -23q11 -23 13 -50.5t-3 -56.5l-28 -143q-6 -32 -21.5 -61t-37.5 -53.5t-49.5 -44t-57.5 -34.5l-469 -231 q-31 -16 -53.5 -41t-28.5 -56l-41 -204h616l-20 -115h-738z" />
<glyph unicode="3" horiz-adv-x="1032" d="M123 231l119 33q6 -21 18 -44t26.5 -44.5t30.5 -39t31 -25.5q5 -4 12 -5.5t15 -1.5h227q9 0 19 2t18 7q14 7 32 20t36 28.5t34.5 32t26.5 29.5q6 8 9 17t5 18l35 182q3 20 0 33q-3 12 -10.5 24.5t-17 24.5t-19.5 22t-18 15q-7 3 -15.5 5.5t-17.5 2.5h-258l22 115h234 q20 0 37 6q14 7 32 19.5t36 27.5t34 31t25 29q5 6 7.5 15.5t4.5 18.5l31 162q3 10 3.5 19.5t-1.5 15.5q-4 12 -11.5 25.5t-17 26t-20 23t-19.5 15.5q-6 5 -14.5 5.5t-18.5 0.5h-237q-8 0 -16.5 -1.5t-14.5 -4.5q-18 -8 -41 -25t-46.5 -38.5t-44.5 -45t-34 -44.5l-117 32 q14 22 31 43.5t31 36.5q13 15 31.5 33.5t39 37t41.5 34.5t39 26q25 14 55.5 22.5t55.5 8.5h240q32 0 62 -10t50 -29q9 -8 21.5 -22.5t24.5 -31t22 -31.5t14 -23q11 -23 13 -50.5t-3 -56.5l-32 -166q-7 -29 -19.5 -56t-32.5 -50q-6 -7 -17 -17.5t-25 -22.5t-29 -24t-29 -22 q9 -10 19 -22t19.5 -24t17.5 -22.5t12 -17.5q11 -23 13 -50.5t-3 -56.5l-37 -188q-6 -29 -19.5 -56.5t-31.5 -50.5q-8 -8 -24 -23t-34.5 -31.5t-36.5 -31.5t-30 -22q-28 -19 -61.5 -29t-65.5 -10h-240q-24 0 -51.5 9.5t-46.5 23.5q-15 10 -30 25.5t-28.5 33t-25 35.5 t-18.5 33q-8 15 -17.5 37.5t-15.5 43.5z" />
<glyph unicode="4" horiz-adv-x="1032" d="M127 289l23 114l679 826h175l-160 -826h133l-23 -114h-133l-55 -289h-121l55 289h-573zM291 403h432l135 689z" />
<glyph unicode="5" horiz-adv-x="1032" d="M123 231l119 31q6 -21 18 -44t26.5 -44t30.5 -38t31 -25q5 -4 13 -5.5t16 -1.5h227q9 0 20 2t19 7q14 7 31.5 19.5t35.5 27.5t34 30.5t26 28.5q3 6 6.5 15t5.5 18l45 240q2 9 2.5 18.5t-2.5 15.5q-3 12 -10 24.5t-16 24.5t-19 22t-18 15t-18 7t-19 2h-467l119 608h649 l-22 -115h-531l-74 -379h338q32 0 63.5 -11t51.5 -30q9 -8 21.5 -22t25 -29.5t22.5 -30t13 -22.5q12 -23 14 -50.5t-4 -56.5l-45 -239q-6 -29 -19.5 -56.5t-31.5 -50.5q-8 -8 -24 -23t-34.5 -31.5t-36.5 -31.5t-30 -22q-28 -19 -62.5 -29t-66.5 -10h-238q-24 0 -52.5 9.5 t-47.5 23.5q-15 10 -30 25.5t-28.5 33t-25 35.5t-18.5 33q-8 15 -17.5 37.5t-15.5 43.5z" />
<glyph unicode="6" horiz-adv-x="1032" d="M125 187.5q-2 27.5 4 56.5l143 739q11 60 52 107q7 8 22.5 23t34 31.5t36.5 31t29 22.5q29 19 63 29t66 10h234q25 0 52.5 -8.5t45.5 -22.5q14 -10 28.5 -26t28 -34.5t25.5 -37t21 -33.5q8 -15 16.5 -36.5t13.5 -43.5l-114 -30q-6 21 -18 44.5t-27 44.5t-32 37.5 t-32 24.5q-12 6 -29 6h-225q-9 0 -18 -0.5t-19 -5.5q-13 -7 -30 -20t-34.5 -29t-33.5 -32t-25 -29q-8 -13 -14 -35l-61 -312q23 20 44.5 38.5t41.5 29.5q23 14 54.5 21.5t55.5 7.5h213q32 0 62.5 -9.5t52.5 -27.5q8 -8 20.5 -22t25 -29.5t22.5 -30t14 -23.5q11 -23 13 -51 t-3 -57l-51 -262q-6 -29 -19.5 -56.5t-31.5 -50.5q-8 -8 -24 -23t-34.5 -31.5t-36.5 -31.5t-30 -22q-28 -19 -61.5 -29t-65.5 -10h-256q-32 0 -62.5 10t-52.5 29q-8 7 -20.5 22t-24.5 31.5t-22 31.5t-13 23q-12 23 -14 50.5zM243.5 213.5q-0.5 -8.5 2.5 -14.5 q3 -12 10.5 -24.5t17.5 -24.5t20.5 -22t18.5 -15t15 -7t16 -2h254q9 0 19 2t18 7q14 7 32 20.5t36 29.5t34.5 32.5t26.5 29.5q5 6 7.5 15t4.5 18l49 260q2 9 2.5 18t-2.5 15q-3 12 -10 24.5t-16 24.5t-19 22t-18 15q-6 5 -15 6.5t-18 1.5h-213q-8 0 -16 -1.5t-15 -4.5 q-15 -7 -38.5 -20.5t-49.5 -31t-49.5 -37.5t-38.5 -38l-6 -9t-6 -11l-51 -261q-2 -9 -2.5 -17.5z" />
<glyph unicode="7" horiz-adv-x="1032" d="M209 0l702 1114h-626l22 115h762l-20 -103l-709 -1126h-131z" />
<glyph unicode="8" horiz-adv-x="1032" d="M125 187.5q-2 27.5 4 56.5l35 186q12 59 51 107q12 13 22.5 22.5t22 18.5t25.5 19.5t32 25.5q-9 10 -19.5 22t-20 24.5t-17 23.5t-10.5 18q-11 23 -14 50t4 56l32 166q5 29 18.5 57.5t33.5 51.5q7 8 22.5 23t34 31t36.5 30t29 22q29 19 63 29t66 10h256q32 0 62.5 -10 t50.5 -29q9 -8 21.5 -22t24.5 -30t22 -31t14 -23q11 -23 13 -51.5t-3 -57.5l-32 -166q-7 -29 -19.5 -56t-32.5 -50q-11 -13 -20.5 -22.5t-20.5 -18.5t-25 -20t-34 -27q8 -10 18 -22t19.5 -24t17.5 -22.5t11 -17.5q12 -23 14 -50.5t-4 -56.5l-35 -186q-6 -29 -19.5 -56.5 t-31.5 -50.5q-8 -8 -24 -23t-34.5 -31.5t-36.5 -31.5t-30 -22q-28 -19 -61.5 -29t-65.5 -10h-256q-32 0 -62.5 10t-52.5 29q-8 7 -20.5 22t-24.5 31.5t-22 31.5t-13 23q-12 23 -14 50.5zM243.5 217.5q-0.5 -8.5 2.5 -14.5q3 -12 10.5 -25.5t17 -26t19.5 -23t18 -15.5t16 -7 t17 -2h254q9 0 18 2t17 7q14 7 32.5 19.5t37 28t35 31.5t26.5 29q3 6 6.5 15t5.5 18l35 184q3 20 0 33q-4 12 -12 24.5t-17.5 24.5t-20.5 22t-20 15q-11 8 -30 8h-256q-21 0 -37 -8q-13 -7 -31 -19.5t-36 -27.5t-33.5 -30.5t-24.5 -28.5t-12 -33l-35 -182q-2 -10 -2.5 -18.5 zM354 790q0 -10 2 -16q4 -12 11.5 -25t17 -25.5t20 -22.5t19.5 -15q6 -5 14.5 -5.5t18.5 -0.5h256q18 0 35 8q13 7 31 19.5t36 27.5t34 31t25 29q5 6 8 15.5t5 18.5l31 160q3 9 3.5 19t-1.5 16q-4 12 -12.5 25.5t-19 26t-21.5 23t-19 15.5q-11 8 -31 8h-254q-20 0 -37 -8 q-14 -7 -31.5 -20t-35.5 -28t-33.5 -31t-24.5 -29q-5 -7 -8 -16.5t-6 -18.5l-31 -162q-2 -9 -2 -19z" />
<glyph unicode="9" horiz-adv-x="1032" d="M127 231l115 31q5 -21 17 -44.5t27 -44.5t32 -38t32 -24q6 -4 13.5 -5.5t15.5 -1.5h225q9 0 18.5 1t18.5 6q13 7 30.5 20t35 28.5t33 32t24.5 29.5q8 10 14 35l62 311q-23 -20 -44.5 -38t-41.5 -29q-23 -14 -54.5 -21.5t-56.5 -7.5h-213q-32 0 -62.5 9t-52.5 28 q-8 7 -20.5 21.5t-24.5 30t-22.5 30t-14.5 22.5q-11 23 -13 51.5t3 57.5l51 262q14 60 52 107q7 8 23.5 23t35 31.5t36.5 31t30 22.5q27 19 61 29t66 10h256q32 0 62.5 -10t51.5 -29q9 -8 21.5 -22.5t24.5 -31t21.5 -31.5t12.5 -23q24 -46 10 -107l-143 -739 q-5 -29 -18 -56.5t-33 -50.5q-7 -8 -23 -23t-34 -31.5t-36 -31.5t-30 -22q-29 -19 -63 -29t-66 -10h-234q-24 0 -51.5 8t-46.5 22q-14 10 -28.5 26.5t-28 35t-25.5 37t-20 33.5t-17 36.5t-14 42.5zM339.5 690.5q-0.5 -8.5 2.5 -14.5q3 -12 10 -24.5t16 -24.5t19 -22t19 -15 q6 -5 14.5 -6.5t17.5 -1.5h213q19 0 31 6q15 7 38.5 20.5t49.5 31t49.5 37.5t38.5 38l6 9t6 11l52 260q2 10 2.5 18.5t-2.5 14.5q-3 12 -11 24.5t-18 24.5t-20 22t-19 15q-13 8 -31 8h-254q-9 0 -19 -1.5t-18 -6.5q-14 -7 -32 -20.5t-36 -29.5t-34.5 -33t-26.5 -30 q-5 -6 -7.5 -14.5t-4.5 -17.5l-49 -260q-2 -10 -2.5 -18.5z" />
<glyph unicode=":" horiz-adv-x="453" d="M82 0l31 160h159l-30 -160h-160zM195 586l30 159h160l-31 -159h-159z" />
<glyph unicode=";" horiz-adv-x="465" d="M0 -178l178 344l111 -25l-164 -319h-125zM201 586l30 159h160l-31 -159h-159z" />
<glyph unicode="&#x3c;" horiz-adv-x="928" d="M152 524l18 88l784 402l-26 -137l-627 -318l502 -317l-25 -121z" />
<glyph unicode="=" horiz-adv-x="975" d="M152 340l20 111h705l-21 -111h-704zM197 569l20 111h705l-21 -111h-704z" />
<glyph unicode="&#x3e;" horiz-adv-x="928" d="M74 121l24 137l627 317l-502 318l27 121l624 -404l-16 -88z" />
<glyph unicode="?" horiz-adv-x="930" d="M238 995q38 59 93 113t120 96q23 16 55 24.5t57 8.5h252q32 0 63.5 -10t51.5 -29q8 -8 20.5 -22.5t24.5 -31t22.5 -31.5t14.5 -23q11 -23 13 -50.5t-3 -56.5l-27 -139q-7 -32 -22.5 -61t-38 -54t-50 -44.5t-57.5 -33.5l-147 -73q-29 -14 -53.5 -39t-30.5 -56l-25 -135 h-120l26 146q14 65 57.5 112t108.5 78l154 76q29 14 51 36.5t29 53.5l26 137q2 9 3 20t-1 17q-4 12 -12 25.5t-18 26t-20.5 23t-18.5 15.5q-7 5 -15.5 6.5t-17.5 1.5h-250q-8 0 -17.5 -1.5t-15.5 -4.5q-18 -8 -41 -25.5t-46.5 -39t-44.5 -45.5t-34 -45zM377 0l29 156h155 l-29 -156h-155z" />
<glyph unicode="@" horiz-adv-x="1290" d="M75 -118q0 26 5 52l201 1027q5 26 13.5 52t27.5 48q10 13 32.5 34t48 42.5t50 40t39.5 26.5q24 14 54.5 23.5t55.5 9.5h449q24 0 52.5 -9.5t47.5 -23.5q38 -28 65 -67t44 -76q9 -22 11 -48t-3 -52l-162 -822l-4 -139h-111v106q-25 -23 -49.5 -41t-44.5 -32 q-28 -17 -56.5 -30t-54.5 -13h-98q-35 0 -66 10t-53 29q-8 8 -19 21t-21 27.5t-18.5 27.5t-12.5 22q-13 23 -15 50.5t4 58.5l76 395q6 32 19.5 58.5t33.5 49.5q8 9 22 22t30 27.5t31.5 27.5t27.5 22q28 18 63 28.5t70 10.5h98q26 0 50.5 -12t44.5 -29q15 -14 31.5 -31.5 t33.5 -40.5h2l41 211q3 16 0 31q-6 16 -18.5 35t-27.5 36t-29 29.5t-23 17.5q-6 6 -25 6h-438q-16 0 -29 -6t-36 -22t-48 -36.5t-48.5 -42.5t-37.5 -40q-5 -6 -7.5 -14.5t-4.5 -16.5l-201 -1030v-14t2 -12q6 -16 19 -35.5t28 -37.5t30 -32t24 -18q9 -6 24 -6h76v-107h-96 q-25 0 -51.5 9.5t-46.5 23.5q-12 8 -29 26.5t-33.5 39.5t-30 41.5t-18.5 33.5q-11 22 -11 48zM598 195q4 -12 11.5 -25.5t16.5 -26t19 -23t19 -16.5q13 -8 36 -8h97q16 0 28 6q14 6 39.5 20t53 31.5t53 37.5t39.5 38q1 1 2 4q1 2 2 4.5t2 4.5l76 391q0 2 -0.5 3.5t-0.5 3.5 q-1 2 -1 3q-6 18 -22.5 37t-35 35.5t-37 29.5t-28.5 19q-14 6 -27 6h-94q-11 0 -21 -1.5t-18 -6.5q-14 -7 -31 -19.5t-33.5 -27t-31.5 -30t-25 -28.5q-3 -6 -6.5 -14.5t-5.5 -19.5l-76 -394q-3 -22 0 -34z" />
<glyph unicode="A" horiz-adv-x="1100" d="M-6 0l649 1229h184l174 -1229h-118l-37 285h-572l-149 -285h-131zM332 399h497l-96 713h-28z" />
<glyph unicode="B" horiz-adv-x="1108" d="M100 0l238 1229h553q32 0 63.5 -11.5t51.5 -29.5q8 -8 20.5 -22.5t24.5 -30.5t22 -30.5t14 -23.5q11 -23 13 -51v-14q0 -21 -4 -43l-31 -158q-6 -29 -18.5 -57t-30.5 -51q-6 -7 -17.5 -17.5t-25 -22.5t-28 -24t-27.5 -22q9 -10 19 -22t18.5 -24t15.5 -22.5t10 -17.5 q11 -23 12.5 -51.5t-4.5 -57.5l-35 -174q-9 -59 -49 -105q-7 -8 -22.5 -23t-34 -31.5t-36.5 -31.5t-30 -22q-28 -19 -62.5 -29t-66.5 -10h-553zM244 115h415q10 0 19.5 1.5t17.5 6.5q14 7 31.5 19t35 27t33 30t25.5 28q5 7 8 15.5t5 17.5l34 176q3 20 0 33q-4 12 -12 25 t-17.5 25.5t-20 22.5t-19.5 15q-5 3 -13.5 4.5t-17.5 1.5h-436zM352 676h422q9 0 18 2.5t15 5.5q14 7 31.5 19t34.5 27t32.5 30t24.5 28q5 7 8.5 16.5t5.5 18.5l33 160q2 10 1.5 18.5t-1.5 14.5q-4 12 -12 25.5t-18.5 26t-21.5 23t-20 15.5q-11 8 -33 8h-434z" />
<glyph unicode="C" horiz-adv-x="1069" d="M136 211q-1 7 -1 14q0 18 4 37l137 701q5 26 16 51t30 47q10 13 32 34t47 42.5t49 40t39 26.5q25 14 55.5 23.5t55.5 9.5h272q25 0 52.5 -9.5t46.5 -23.5q14 -10 28.5 -26t28 -34t25.5 -36t20 -33t17 -36.5t14 -43.5l-119 -32q-5 21 -17.5 44.5t-28.5 45t-33 38.5t-32 25 q-3 3 -10.5 4.5t-15.5 1.5h-250q-16 0 -29 -6t-34.5 -20.5t-44.5 -33.5t-45 -39t-35 -38q-10 -11 -13 -29l-135 -704q-3 -15 0 -27q6 -16 18.5 -34t26 -34.5t26.5 -29t21 -16.5q8 -7 25 -7h260q8 0 17 1.5t14 5.5q18 8 41 25.5t46.5 39t45.5 44.5t37 44l114 -33 q-12 -21 -29.5 -42.5t-31.5 -36.5t-33 -33t-39.5 -36t-41 -34t-38.5 -26q-24 -14 -54.5 -23.5t-55.5 -9.5h-271q-24 0 -52.5 9.5t-47.5 23.5q-12 8 -29 26.5t-33.5 39.5t-30.5 41.5t-20 33.5q-9 22 -11 47z" />
<glyph unicode="D" horiz-adv-x="1114" d="M100 0l238 1229h541q24 0 51.5 -8.5t46.5 -22.5q12 -8 29 -27t33 -41t29.5 -43t18.5 -34q12 -23 11 -52q0 -23 -4 -47l-133 -682q-5 -26 -15 -51t-28 -47q-11 -13 -32.5 -33.5t-46 -41.5t-48.5 -39.5t-39 -26.5q-25 -14 -55.5 -23.5t-55.5 -9.5h-541zM242 115h399 q8 0 16 1.5t13 4.5q14 6 35.5 20.5t45 33.5t44.5 39t34 38q10 12 13 27l135 690q2 8 1.5 15.5t-1.5 14.5q-6 16 -18 33.5t-25.5 32.5t-27 26.5t-21.5 16.5q-5 3 -12 4.5t-15 1.5h-422z" />
<glyph unicode="E" horiz-adv-x="1020" d="M100 0l238 1229h704l-22 -115h-582l-86 -442h551l-22 -115h-551l-86 -442h581l-20 -115h-705z" />
<glyph unicode="F" horiz-adv-x="985" d="M100 0l238 1229h704l-22 -115h-582l-86 -442h551l-22 -115h-551l-107 -557h-123z" />
<glyph unicode="G" horiz-adv-x="1182" d="M136 211q-1 7 -1 14q0 18 4 37l137 699q5 26 16 52t30 48q10 13 32 34t47 42.5t49 40t39 26.5q25 14 56.5 23.5t56.5 9.5h316q24 0 52.5 -9.5t47.5 -23.5q14 -10 28.5 -26t28 -34.5t24.5 -37t19 -33.5t18 -35.5t15 -42.5l-117 -32q-5 20 -18.5 44t-30 46t-33 39t-28.5 24 q-3 3 -11 4.5t-16 1.5h-301q-17 0 -29 -6q-13 -6 -34.5 -21t-44.5 -34t-45 -39.5t-35 -38.5q-5 -6 -8 -14.5t-5 -16.5l-135 -700q-3 -15 0 -27q6 -16 18.5 -34t27 -34.5t28.5 -29t22 -16.5q5 -4 12 -5.5t15 -1.5h297q8 0 16 1.5t13 5.5q13 6 35 21t45 34.5t44.5 40.5 t34.5 39q5 6 8 12t5 14l57 293h-279l23 113h399l-86 -436q-4 -23 -6 -55.5t-3 -67t-1 -66.5v-53h-117l4 100q-11 -11 -23 -22.5t-23.5 -22.5t-22 -19.5t-17.5 -12.5q-24 -14 -54.5 -23.5t-55.5 -9.5h-316q-24 0 -52.5 9.5t-47.5 23.5q-12 8 -29 26.5t-33.5 39.5t-30.5 41.5 t-20 33.5q-9 22 -11 47z" />
<glyph unicode="H" horiz-adv-x="1139" d="M100 0l238 1229h121l-109 -557h576l108 557h121l-237 -1229h-121l106 557h-575l-107 -557h-121z" />
<glyph unicode="I" horiz-adv-x="442" d="M98 0l238 1229h121l-238 -1229h-121z" />
<glyph unicode="J" horiz-adv-x="932" d="M66 233l114 31q7 -21 19 -44t27 -44t30.5 -38t30.5 -25q5 -3 13.5 -5t16.5 -2h140q13 0 24 7q14 6 35.5 20.5t45 33.5t45 39t34.5 38q5 6 9.5 13.5t6.5 16.5l187 955h121l-187 -963q-6 -26 -17 -52t-30 -48q-11 -13 -32 -33.5t-45.5 -41.5t-48 -39.5t-38.5 -26.5 q-24 -14 -56 -23.5t-56 -9.5h-160q-25 0 -53.5 9.5t-46.5 23.5q-15 10 -29.5 26t-28 34t-24.5 36t-19 33t-15.5 36.5t-12.5 42.5z" />
<glyph unicode="K" horiz-adv-x="1028" d="M100 0l238 1229h121l-109 -553h41l565 553h150l-629 -615l447 -614h-140l-407 563h-49l-107 -563h-121z" />
<glyph unicode="L" horiz-adv-x="932" d="M100 0l238 1229h121l-217 -1114h571l-20 -115h-693z" />
<glyph unicode="M" horiz-adv-x="1331" d="M102 0l238 1229h164l190 -735l473 735h181l-238 -1229h-115l213 1102l-499 -772h-80l-199 772l-213 -1102h-115z" />
<glyph unicode="N" horiz-adv-x="1126" d="M102 0l238 1229h143l338 -1059l205 1059h117l-238 -1229h-141l-342 1049l-203 -1049h-117z" />
<glyph unicode="O" horiz-adv-x="1153" d="M135 216q0 24 6 48l135 697q5 26 15 52t28 48q11 13 33 34t47.5 42.5t50 40t39.5 26.5q25 14 55.5 23.5t55.5 9.5h324q24 0 52.5 -9.5t47.5 -23.5q12 -8 28.5 -26.5t33 -40t30 -42.5t19.5 -34q9 -22 11 -48q1 -7 1 -15q0 -19 -4 -37l-135 -697q-7 -26 -18 -52t-29 -48 q-11 -13 -32.5 -33.5t-46 -41.5t-48.5 -39.5t-39 -26.5q-25 -14 -56.5 -23.5t-56.5 -9.5h-324q-24 0 -51.5 9.5t-46.5 23.5q-12 8 -29.5 26.5t-34 39.5t-31 41.5t-20.5 33.5q-10 23 -10 52zM262 223q6 -16 18 -34t25 -33.5t26 -28t21 -16.5q8 -7 25 -7h307q8 0 16 1.5 t13 5.5q14 6 36 21t45.5 34.5t45 40.5t34.5 39q10 12 13 26l135 701q2 8 2 15.5t-2 15.5q-5 16 -17 34t-25.5 33.5t-27 27.5t-22.5 17q-3 3 -10 4.5t-15 1.5h-307q-16 0 -29 -6t-34.5 -21t-44.5 -34.5t-45 -40.5t-35 -39q-12 -14 -15 -31l-135 -700l-2 -10q1 -7 4 -17z" />
<glyph unicode="P" horiz-adv-x="1069" d="M100 0l238 1229h553q32 0 62.5 -10.5t50.5 -28.5q8 -8 20.5 -22.5t25.5 -31t23 -31.5t14 -24q15 -30 15 -67q0 -19 -4 -39l-35 -180q-13 -61 -51 -107q-7 -8 -23 -23t-35 -31t-37 -30.5t-30 -21.5q-29 -19 -63 -29t-66 -10h-430l-105 -543h-123zM350 657h418q9 0 18.5 2 t18.5 7q13 7 31 19t36 26.5t34.5 30t25.5 28.5q5 6 7.5 16.5t4.5 18.5l35 178q2 9 3 19v6q0 6 -1 10q-4 12 -12 25.5t-18 26t-20.5 23t-19.5 15.5q-8 5 -16.5 5.5t-17.5 0.5h-439z" />
<glyph unicode="Q" horiz-adv-x="1157" d="M135 216q0 24 6 48l135 697q5 26 15 52t28 48q11 13 33 34t47.5 42.5t50 40t39.5 26.5q25 14 55.5 23.5t55.5 9.5h324q24 0 52.5 -9.5t47.5 -23.5q12 -8 28.5 -26.5t33 -40t30 -42.5t19.5 -34q9 -22 11 -48q1 -7 1 -15q0 -18 -4 -37l-135 -697q-7 -26 -18 -52t-29 -48 q-11 -13 -32.5 -33.5t-46 -41.5t-48.5 -39.5t-39 -26.5q-25 -14 -56.5 -23.5t-56.5 -9.5h-12l43 -185h-123l-39 185h-193q-24 0 -51.5 9.5t-46.5 23.5q-12 8 -29.5 26.5t-34 39.5t-31 41.5t-20.5 33.5q-10 23 -10 52zM262 223q6 -16 18 -34t25 -33.5t26 -28t21 -16.5 q8 -7 25 -7h147l-14 60l115 37l22 -97h37q8 0 16 1.5t13 5.5q14 6 36 21t45.5 34.5t45 40.5t34.5 39q10 12 13 26l135 701q2 8 2 15.5t-2 15.5q-5 16 -17 34t-25.5 33.5t-27 27.5t-22.5 17q-3 3 -10 4.5t-15 1.5h-307q-16 0 -29 -6t-34.5 -21t-44.5 -34.5t-45 -40.5t-35 -39 q-12 -14 -15 -31l-135 -700q-1 -5 -1 -10q0 -7 3 -17z" />
<glyph unicode="R" horiz-adv-x="1128" d="M100 0l238 1229h553q32 0 62.5 -10.5t50.5 -28.5q8 -8 20.5 -22.5t25.5 -31t23 -31.5t14 -24q15 -30 15 -67q0 -19 -4 -39l-35 -180q-13 -61 -51 -107q-7 -8 -23 -23t-35 -31t-37 -30.5t-30 -21.5q-29 -19 -60.5 -29t-62.5 -10l201 -543h-129l-199 543h-309l-105 -543 h-123zM350 657h418q9 0 18.5 2t18.5 7q13 7 31 18.5t36 26t34.5 29.5t25.5 28q5 6 7.5 16t4.5 19l35 180q2 9 3 19v6q0 6 -1 10q-4 12 -12 25.5t-18 26t-20.5 23t-19.5 15.5q-8 5 -16.5 5.5t-17.5 0.5h-439z" />
<glyph unicode="S" horiz-adv-x="1122" d="M102 231l113 29q2 -6 3.5 -10t2.5 -6q1 -3 2 -4q8 -19 20.5 -39t26.5 -37.5t28 -31.5t26 -21q5 -4 11.5 -5.5t14.5 -1.5h328q17 0 27 7q13 6 35 21t45.5 34t45.5 39.5t35 38.5q5 6 8 12t5 14l24 121q3 15 2 31.5t-6 30.5t-14 24.5t-23 14.5l-528 151q-29 9 -50.5 27.5 t-35 44t-18 56.5t2.5 63l25 127q5 26 14.5 52t28.5 48q11 13 33 34t47.5 42.5t50 40t39.5 26.5q25 14 55.5 23.5t55.5 9.5h309q25 0 52.5 -9.5t45.5 -23.5q14 -10 28.5 -26t28 -34t25.5 -36t21 -33q8 -15 16.5 -36.5t13.5 -43.5l-114 -30q-3 9 -6 15q-2 4 -3 7 q-6 18 -17.5 38t-26 38t-29.5 32t-27 21q-6 6 -25 6h-296q-17 0 -29 -6q-13 -6 -34.5 -21t-45 -34t-45 -39.5t-35.5 -38.5q-9 -12 -12 -27l-25 -125q-5 -30 8 -55t39 -33l525 -153q28 -9 50 -27t35.5 -43t18 -55t-1.5 -62l-27 -139q-6 -26 -16 -52t-29 -48 q-11 -13 -32.5 -33.5t-46.5 -41.5t-49.5 -39.5t-39.5 -26.5q-24 -14 -54.5 -23.5t-55.5 -9.5h-340q-25 0 -53.5 9.5t-46.5 23.5q-15 10 -30 26t-28.5 34t-25 36t-19.5 33t-16 36.5t-15 42.5z" />
<glyph unicode="T" d="M231 1114l23 115h819l-22 -115h-349l-215 -1114h-120l215 1114h-351z" />
<glyph unicode="U" horiz-adv-x="1120" d="M150 262l188 967h121l-189 -977q-2 -8 -1 -14.5t3 -12.5q6 -16 18.5 -34t26 -34.5t26.5 -29t22 -16.5q8 -7 24 -7h254q8 0 16 1.5t13 5.5q14 6 36 21.5t45.5 35.5t45.5 41t35 39q5 6 8.5 12t5.5 14l184 955h121l-188 -967q-5 -26 -15 -51t-28 -47q-11 -13 -32.5 -33.5 t-46 -41.5t-48.5 -39.5t-39 -26.5q-25 -14 -55.5 -23.5t-55.5 -9.5h-274q-25 0 -53.5 9.5t-47.5 23.5q-12 8 -29 26.5t-33.5 39.5t-30 41.5t-19.5 33.5q-12 27 -12 59q0 19 4 39z" />
<glyph unicode="V" horiz-adv-x="1067" d="M227 1229h119l131 -1102h29l555 1102h131l-627 -1229h-184z" />
<glyph unicode="W" horiz-adv-x="1499" d="M248 1229h119l16 -1100h12l455 1100h154l38 -1100h13l434 1100h129l-504 -1229h-170l-43 1071l-448 -1071h-170z" />
<glyph unicode="X" horiz-adv-x="1018" d="M-10 0l516 633l-250 596h123l209 -494q97 121 199.5 247t201.5 247h139l-489 -604l264 -625h-125l-223 522l-424 -522h-141z" />
<glyph unicode="Y" horiz-adv-x="930" d="M217 1229h123l197 -584l426 584h137l-518 -705l-101 -524h-121l101 524z" />
<glyph unicode="Z" horiz-adv-x="983" d="M78 0l18 102l797 1012h-600l22 115h746l-21 -107l-792 -1007h596l-21 -115h-745z" />
<glyph unicode="[" horiz-adv-x="590" d="M88 0l238 1229h317l-20 -107h-199l-197 -1016h199l-20 -106h-318z" />
<glyph unicode="\" horiz-adv-x="864" d="M285 1237h121l415 -1237h-123z" />
<glyph unicode="]" horiz-adv-x="641" d="M102 0l21 106h199l196 1016h-199l21 107h317l-237 -1229h-318z" />
<glyph unicode="^" horiz-adv-x="621" d="M139 633l310 596h114l78 -596h-104l-50 477l-233 -477h-115z" />
<glyph unicode="_" horiz-adv-x="926" d="M39 -141l20 106h742l-21 -106h-741z" />
<glyph unicode="`" horiz-adv-x="760" d="M451 1307h137l129 -228l-111 -37z" />
<glyph unicode="a" d="M82 176q0 6 -1 11q0 22 5 46l8 41q12 62 51 109q8 9 21.5 22t29 26.5t31 26.5t27.5 21q28 19 63 29t70 10h354l29 141q2 13 2 20.5v12.5q-8 22 -27.5 47t-39.5 37q-12 8 -35 8h-201q-21 0 -37 -8q-14 -7 -29.5 -18.5t-31 -26t-30 -29.5t-26.5 -28l-106 35q6 8 15.5 20.5 t23.5 26.5q9 10 23 23t29.5 27t31 26.5t28.5 21.5q28 19 61 28t68 9h189q35 0 67 -10t52 -29q10 -7 21.5 -19.5t21 -27t17.5 -28t13 -21.5q13 -24 14 -52v-8q0 -25 -5 -51l-99 -500v-145h-108l-4 102q-22 -20 -49 -38.5t-46 -30.5q-27 -17 -54.5 -30t-53.5 -13h-180 q-35 0 -66 10t-53 29q-9 8 -19.5 21t-20.5 26.5t-19 26.5t-13 22q-10 23 -12 51zM194 200q2 -8 5 -16q8 -23 27 -46t36 -34q8 -5 17 -6.5t20 -1.5h180q17 0 29 6q14 6 38 19.5t50 31t50 37t38 37.5l37 187h-344q-23 0 -39 -8q-14 -7 -30.5 -18.5t-32.5 -25t-30.5 -28 t-23.5 -27.5q-5 -6 -8 -13t-6 -20l-12 -57q-1 -5 -1 -10q-1 -4 0 -7z" />
<glyph unicode="b" horiz-adv-x="989" d="M82 0l39 145l211 1084h110l-86 -447q26 23 48.5 37.5t44.5 28.5q26 17 55 30t55 13h160q35 0 66 -10t51 -29q10 -7 21.5 -20t21 -27.5t17.5 -28.5t13 -22q15 -31 15 -68q0 -19 -4 -41l-80 -409q-13 -61 -52 -109q-8 -9 -22.5 -22t-30.5 -27.5t-31.5 -27.5t-27.5 -21 q-28 -19 -62 -29t-69 -10h-160q-26 0 -51 13t-43 30q-17 14 -33.5 33.5t-32.5 42.5l-32 -109h-111zM250 238q0 -6 1 -8q0 -2 1 -3q6 -18 22 -37.5t34.5 -37t37 -31t29.5 -19.5q12 -6 28 -6h150q11 0 20 1.5t17 6.5q14 7 31.5 19t35.5 26.5t33.5 29.5t24.5 28q9 12 12 33 l82 413q2 11 3 20v6q0 5 -1 9q-4 12 -12 25t-18 25.5t-20.5 22.5t-19.5 15q-11 8 -34 8h-156q-16 0 -31 -6q-13 -6 -39 -20.5t-54 -33t-54 -39t-39 -38.5q-1 -1 -2 -3t-2 -3.5t-2 -3.5z" />
<glyph unicode="c" horiz-adv-x="934" d="M112 178v7q0 24 5 51l80 409q6 31 17.5 58.5t31.5 50.5q7 8 21 21.5t29.5 28t31.5 27.5t28 21q29 19 65 29t71 10h202q34 0 65.5 -10t51.5 -29q17 -14 31 -32.5t26 -38t21 -39t16 -35.5l-108 -33q-4 13 -12.5 28t-19 29.5t-22 26t-22.5 18.5q-6 5 -15 6.5t-20 1.5h-205 q-22 0 -39 -8q-14 -7 -31 -18.5t-33.5 -25t-31.5 -28.5t-24 -28q-5 -6 -8.5 -15t-6.5 -20l-80 -414q-3 -22 0 -34q4 -12 11.5 -25t17 -25.5t19 -22.5t18.5 -16q13 -8 37 -8h213q22 0 37 8q13 7 31 19.5t35 27.5t31.5 29.5t22.5 26.5l2 4l105 -39q-12 -17 -29 -36.5 t-36.5 -39t-41 -37t-43.5 -30.5q-27 -19 -62 -29t-69 -10h-209q-34 0 -66.5 10t-53.5 29q-9 7 -20 20.5t-21.5 27.5t-18.5 27.5t-12 22.5q-12 23 -13 51z" />
<glyph unicode="d" horiz-adv-x="979" d="M113 178q-1 7 -1 13q0 21 5 45l80 409q12 64 51 109q7 8 21 21t30 27.5t32 27.5t27 22q29 19 63.5 29t70.5 10h159q26 0 50 -13t44 -30q16 -14 32.5 -32.5t33.5 -41.5l88 455h111l-213 -1084l-9 -145h-110l4 109q-25 -23 -49.5 -42.5t-44.5 -33.5q-28 -17 -56.5 -30 t-54.5 -13h-160q-35 0 -66 10t-52 29q-9 8 -19.5 21t-21 27.5t-19 27.5t-12.5 22q-12 23 -14 51zM227 199q4 -12 12 -26t17.5 -27.5t19.5 -24.5t19 -17q13 -8 37 -8h153q17 0 29 6q14 6 39.5 20t53.5 32t53.5 38.5t39.5 38.5l3 3l2 4l2 4l79 407q0 2 -0.5 3.5t-0.5 3.5 q-1 2 -1 3q-7 19 -23 37.5t-34.5 34.5t-37 28.5t-30.5 18.5q-9 6 -26 6h-154q-22 0 -39 -8q-14 -7 -31 -19t-34 -26.5t-32 -30t-24 -28.5q-5 -6 -8 -15t-6 -20l-78 -404q-2 -11 -2 -19.5t2 -14.5z" />
<glyph unicode="e" horiz-adv-x="965" d="M113 178q-1 7 -1 13q0 21 5 45l80 409q6 31 18.5 58.5t32.5 50.5q7 8 21 21.5t29.5 28t31.5 27.5t28 21q29 19 65.5 29t70.5 10h204q34 0 66.5 -10t52.5 -29q9 -8 20 -21t21.5 -27.5t19 -28t13.5 -21.5q12 -28 12 -64q0 -21 -4 -45l-49 -252h-590l-33 -166q-3 -22 0 -34 q4 -12 12 -25t17.5 -25.5t19.5 -22.5t19 -16q13 -8 35 -8h215q22 0 37 8q13 7 30.5 20t34.5 28t32 30t23 27l107 -37q-19 -25 -40.5 -47.5t-41.5 -41.5t-38 -33t-30 -21q-27 -19 -62 -29t-69 -10h-209q-34 0 -66.5 10t-53.5 29q-9 7 -20 20.5t-21.5 27.5t-18.5 27.5 t-12 22.5q-12 23 -14 51zM281 498h477l28 153q4 15 6 23q1 3 0 7q0 4 -1 7q-4 12 -12.5 25t-18.5 25.5t-20.5 22.5t-18.5 15q-6 5 -15 6.5t-20 1.5h-207q-20 0 -37 -8q-14 -7 -31 -18.5t-33.5 -26t-31.5 -29.5t-24 -28q-5 -6 -8.5 -15t-6.5 -20z" />
<glyph unicode="f" horiz-adv-x="668" d="M166 0l149 774h-145l20 107h146l22 112q7 31 18.5 58.5t31.5 50.5q7 8 20.5 21.5t29.5 28t32 27.5t28 21q29 19 65 28t70 9h172l-20 -107h-162q-11 0 -23.5 -0.5t-21.5 -5.5q-14 -7 -31 -19t-33.5 -26.5t-31 -30t-23.5 -28.5q-5 -6 -7.5 -17t-4.5 -20l-18 -102h247 l-20 -107h-248l-149 -774h-113z" />
<glyph unicode="g" horiz-adv-x="1014" d="M57 -170l107 33l4 -8q16 -32 30.5 -54t43.5 -41q11 -8 32 -8h215q23 0 39 8q14 7 31.5 19.5t35 27.5t32.5 31t24 29q5 6 7 15t6 20l41 202q-25 -21 -50 -39t-45 -32q-24 -16 -54 -29.5t-56 -13.5h-172q-32 0 -65.5 10t-55.5 29q-9 7 -20 20.5t-21.5 27.5t-18.5 27.5 t-12 22.5q-12 23 -13 50.5t5 58.5l80 409q6 31 17.5 58.5t31.5 50.5q7 8 21 21.5t29.5 28t32 27.5t28.5 21q29 19 66 29t69 10h172q26 0 50.5 -14t43.5 -29q15 -14 33.5 -33t34.5 -41l34 107h111l-45 -148l-164 -842q-6 -31 -17.5 -58t-31.5 -50q-8 -9 -21.5 -22.5 t-29.5 -27.5t-32 -27.5t-28 -20.5q-29 -19 -66 -29t-69 -10h-209q-32 0 -64 10t-52 29q-17 13 -31.5 31.5t-26 38t-21 39t-16.5 36.5zM238 195q4 -12 11.5 -25.5t16.5 -26t19 -23t18 -16.5q8 -5 17 -6.5t20 -1.5h168q17 0 31 6q15 7 39.5 21.5t51 32.5t52 37.5t41.5 37.5 l6 11l80 401l-2 10q-10 18 -26 37t-34 36.5t-35.5 31t-29.5 20.5q-5 3 -13 4.5t-16 1.5h-164q-22 0 -38 -8q-14 -7 -31 -19.5t-34 -27.5t-32 -30.5t-24 -28.5q-5 -6 -8.5 -15t-6.5 -20l-77 -406q-2 -11 -2 -19.5t2 -14.5z" />
<glyph unicode="h" horiz-adv-x="971" d="M82 0l237 1229h111l-88 -449q25 22 49 38l45 30q25 15 55 29t56 14h147q32 0 64.5 -10t52.5 -29q9 -8 20 -21t21.5 -27.5t19 -28t13.5 -21.5q14 -31 14 -68q0 -20 -4 -41l-125 -645h-111l125 655q2 11 3 19t-1 14q-4 12 -12 25t-18 25.5t-20.5 22.5t-18.5 15 q-6 5 -15 6.5t-20 1.5h-143q-18 0 -33 -6q-19 -9 -42.5 -22t-48.5 -29.5t-48.5 -35.5t-42.5 -40q-4 -3 -4.5 -4t-2.5 -6l-124 -641h-111z" />
<glyph unicode="i" horiz-adv-x="434" d="M111 0l170 881h112l-170 -881h-112zM291 1081l31 158h155l-31 -158h-155z" />
<glyph unicode="j" horiz-adv-x="428" d="M-205 -352l21 106q54 1 84 1.5t45.5 2t20.5 3t9 3.5q13 7 28.5 19.5t30.5 27t29 30t23 28.5q5 6 8 15t6 20l189 977h112l-192 -990q-12 -62 -51 -108q-8 -9 -21.5 -22.5t-28.5 -27.5t-31 -27.5t-28 -20.5q-29 -19 -64 -28t-67 -9h-123zM301 1081l31 158h155l-30 -158 h-156z" />
<glyph unicode="k" horiz-adv-x="870" d="M84 0l238 1229h110l-139 -717h35l413 369h152l-469 -418l344 -463h-137l-303 408h-56l-77 -408h-111z" />
<glyph unicode="l" horiz-adv-x="412" d="M112 44.5q0 18.5 0.5 38t2.5 32.5l217 1114h110l-211 -1090q-4 -17 -5.5 -40.5t-1.5 -45.5q0 -26 1 -53h-110q-1 0 -2 13t-1 31.5z" />
<glyph unicode="m" horiz-adv-x="1458" d="M94 0l142 735l12 146h110l-4 -101q23 20 47.5 37.5t44.5 30.5q25 15 54 29t55 14h98q32 0 65.5 -10t53.5 -29q9 -8 20 -21t21.5 -27.5t19 -28t13.5 -21.5l2 -4q28 25 60.5 53t58.5 45q24 15 54 29t56 14h101q32 0 65 -10t53 -29q9 -8 20 -21t21.5 -27.5t19 -28 t13.5 -21.5q12 -28 12 -64q0 -21 -4 -45l-125 -645h-110l125 657q3 20 0 31q-4 12 -11.5 25.5t-17 26t-20 23t-19.5 15.5q-6 5 -15 5.5t-20 0.5h-92q-17 0 -33 -6q-13 -7 -37 -20.5t-50.5 -30.5t-52 -36.5t-40.5 -37.5l-2 -12l-125 -641h-108l125 655q2 11 2 17t-2 12 q-4 12 -12 26t-18 27.5t-20.5 24.5t-19.5 16q-6 5 -15 5.5t-20 0.5h-100q-16 0 -31 -6q-14 -7 -38.5 -20.5t-51.5 -31t-52 -37.5t-40 -38l-127 -651h-111z" />
<glyph unicode="n" horiz-adv-x="985" d="M96 0l142 735l10 146h110l-4 -99q23 20 43.5 36.5t40.5 29.5q25 15 55 29t56 14h158q34 0 66 -10t52 -29q9 -8 20.5 -21t22.5 -27.5t19.5 -28t13.5 -21.5q13 -30 13 -64q0 -21 -5 -45l-125 -645h-110l125 655q2 10 3 18.5t-1 14.5q-4 12 -11.5 25t-17.5 25.5t-20 22.5 t-19 15q-11 8 -35 8h-151q-16 0 -31 -6q-14 -7 -38.5 -20.5t-51.5 -31t-52 -37.5t-40 -38l-127 -651h-111z" />
<glyph unicode="o" horiz-adv-x="967" d="M112 178v7q0 24 5 51l80 409q6 31 17.5 58.5t31.5 50.5q7 8 21 21.5t29.5 28t31.5 27.5t28 21q29 19 65 29t71 10h204q34 0 66.5 -10t52.5 -29q9 -8 20 -21t21.5 -27.5t19 -28t13.5 -21.5q12 -28 12 -64q0 -21 -4 -45l-80 -409q-6 -31 -19 -61t-32 -50q-9 -9 -22.5 -22 t-29 -27t-31.5 -27t-28 -20q-28 -19 -63.5 -29t-69.5 -10h-205q-34 0 -66.5 10t-53.5 29q-9 7 -20 20.5t-21.5 27.5t-18.5 27.5t-12 22.5q-12 23 -13 51zM225 188q4 -11 11.5 -23.5t16 -24t18 -21t18.5 -15.5q13 -8 37 -8h204q24 0 37 8q14 7 32 19.5t36 27.5t34 31t25 29 q5 6 8 14t5 19l77 407q2 10 3 19v6q0 6 -1 12q-2 12 -10 25.5t-17.5 25.5t-20.5 22t-19 15q-6 5 -15 6.5t-20 1.5h-205q-22 0 -39 -8q-14 -7 -31 -19t-34 -26.5t-32 -30t-24 -28.5q-5 -6 -8 -15t-6 -20l-80 -414q-2 -10 -2 -19t2 -16z" />
<glyph unicode="p" horiz-adv-x="989" d="M27 -344l209 1079l12 146h110l-4 -105q25 22 49 40t46 32q24 15 54 29t56 14h160q34 0 65.5 -10t51.5 -29q9 -8 20 -21t21 -27.5t18.5 -28t13.5 -21.5q15 -32 15 -69q0 -19 -4 -40l-80 -409q-13 -61 -52 -109q-8 -9 -22 -22.5t-30 -27.5t-32 -27.5t-28 -20.5 q-28 -19 -62.5 -29t-68.5 -10h-160q-26 0 -51 13.5t-43 29.5q-17 14 -33.5 33t-32.5 40l-88 -450h-110zM250 231q0 -6 2 -10q7 -19 23 -37.5t34.5 -34t37 -28t30.5 -19.5q12 -6 29 -6h149q11 0 20 1.5t17 6.5q14 7 31.5 20t35.5 28.5t33.5 31.5t24.5 29q9 12 12 35l80 405 q4 13 4 23q0 6 -2 12q-4 12 -11.5 25t-17.5 25.5t-20 22.5t-19 15q-11 8 -34 8h-164q-16 0 -31 -6q-14 -7 -38.5 -21.5t-50.5 -32.5t-50.5 -38.5t-38.5 -38.5q-4 -4 -8 -12z" />
<glyph unicode="q" horiz-adv-x="979" d="M127 240l80 405q6 31 18.5 58.5t32.5 50.5l21.5 21.5t29.5 28t32 27.5t28 21q29 19 64 29t69 10h160q26 0 50.5 -14t43.5 -29q15 -14 32.5 -34t32.5 -42l35 109h111l-43 -146l-209 -1079h-111l88 455q-25 -22 -48.5 -41t-45.5 -33q-25 -16 -55 -29.5t-56 -13.5h-159 q-34 0 -65.5 10t-51.5 29q-9 7 -20 20.5t-21.5 28t-19 28t-13.5 21.5q-14 31 -14 68q0 19 4 41zM238 197q4 -12 11.5 -25t16.5 -25.5t19 -22.5t18 -15q6 -5 15 -7t20 -2h158q15 0 30 6q14 7 39.5 21.5t53 32.5t53 38t39.5 40q6 6 6 10l78 399q1 2 1 4l-1 8q-8 19 -24.5 37.5 t-35 34t-37 28t-30.5 19.5q-5 3 -12 4.5t-15 1.5h-149q-23 0 -39 -8q-14 -7 -31.5 -19.5t-35 -27.5t-32.5 -30.5t-24 -28.5q-5 -6 -8.5 -15t-6.5 -20l-75 -404q-4 -12 -4 -22q0 -6 2 -12z" />
<glyph unicode="r" horiz-adv-x="852" d="M94 0l142 735l10 146h112l-4 -103q25 22 47 39t43 31q25 15 55 29t56 14h104q35 0 66 -10t51 -29q9 -8 20 -21t21 -27.5t18 -28t13 -21.5q6 -13 12.5 -25t9.5 -20l-104 -33q-5 12 -14 26.5t-19.5 28.5t-22 26t-22.5 19q-11 8 -35 8h-102q-8 0 -16.5 -1.5t-16.5 -4.5 q-14 -7 -39.5 -21t-53.5 -32t-53.5 -38.5t-39.5 -39.5l-127 -647h-111z" />
<glyph unicode="s" horiz-adv-x="956" d="M76 172l104 35q4 -13 12 -28t18.5 -29.5t22.5 -26.5t23 -19q8 -5 17 -6.5t20 -1.5h248q21 0 34 8q14 7 30.5 18.5t33 25t30.5 28t23 27.5q8 11 13 35l14 67q6 31 -12.5 53t-49.5 25l-333 25q-37 3 -66.5 18t-49.5 40q-18 24 -26 56q-4 15 -4 32q0 18 4 38l13 61 q9 61 51 109q7 8 19 20.5t26 25t28.5 24.5t26.5 20q29 19 65 29t68 10h213q32 0 64.5 -10t52.5 -29q9 -8 20 -21t21.5 -27.5t19 -28t13.5 -21.5q6 -13 12 -25t8 -20l-106 -35q-3 13 -11.5 28t-20 29.5t-23.5 26t-23 18.5q-11 8 -33 8h-219q-23 0 -39 -8q-14 -7 -29.5 -18 t-30.5 -24t-28.5 -27t-22.5 -27q-5 -6 -8 -15t-6 -20l-12 -59q-5 -31 13.5 -51t49.5 -23l334 -27q37 -3 66.5 -18t48.5 -39q19 -26 27 -58q4 -16 3 -32q0 -18 -4 -37l-14 -74q-6 -31 -18.5 -58t-32.5 -50q-8 -9 -20.5 -21t-26.5 -25t-28.5 -25t-26.5 -19q-28 -19 -64 -29 t-68 -10h-245q-32 0 -64.5 10t-54.5 29q-9 7 -20 20t-21 27t-18.5 27t-12.5 22q-6 11 -11 23.5t-7 23.5z" />
<glyph unicode="t" horiz-adv-x="690" d="M170 774l20 107h146l67 348h111l-68 -348h271l-21 -107h-270l-102 -536q-2 -11 -3 -22t3 -17q3 -12 9.5 -24.5t15 -24t18 -21t18.5 -14.5q8 -5 19 -7t22 -2h139l-20 -106h-131q-34 0 -65.5 10t-53.5 29q-9 7 -20 20.5t-21.5 28t-18.5 28t-12 21.5q-12 23 -14 50.5t4 58.5 l102 528h-145z" />
<glyph unicode="u" horiz-adv-x="971" d="M114 178v7q0 24 5 51l125 645h110l-125 -654q-2 -11 -3 -19.5t1 -14.5q4 -12 11.5 -25t17 -25.5t19 -22.5t18.5 -16q13 -8 37 -8h153q17 0 29 6q15 7 39.5 21t51 31.5t51.5 37t40 37.5l127 652h111l-144 -736l-8 -145h-110l2 100q-22 -20 -46 -37.5t-42 -29.5 q-25 -16 -55 -29.5t-56 -13.5h-154q-34 0 -66.5 10t-53.5 29q-9 7 -20 20.5t-21.5 27.5t-18.5 27.5t-12 22.5q-12 23 -13 51z" />
<glyph unicode="v" horiz-adv-x="868" d="M180 881h115l92 -768h12l392 768h120l-456 -881h-158z" />
<glyph unicode="w" horiz-adv-x="1364" d="M180 881h113l61 -762h13l350 762h153l64 -762h12l348 762h119l-414 -881h-153l-72 752l-354 -752h-154z" />
<glyph unicode="x" horiz-adv-x="881" d="M16 0l387 461l-194 420h123l147 -342l273 342h143l-365 -437l201 -444h-121l-157 358l-297 -358h-140z" />
<glyph unicode="y" horiz-adv-x="866" d="M156 -344l184 344h-43l-117 881h115l92 -768h12l392 768h122l-637 -1225h-120z" />
<glyph unicode="z" horiz-adv-x="864" d="M78 0l18 98l590 676h-475l20 107h617l-19 -101l-587 -674h479l-21 -106h-622z" />
<glyph unicode="{" horiz-adv-x="653" d="M132.5 214q0.5 26 6.5 52l135 695q5 26 15 52t28 48q11 13 32.5 34t46 42.5t48.5 40t39 26.5q25 14 56.5 23.5t56.5 9.5h113l-23 -115h-96q-17 0 -29 -6q-13 -6 -34 -21t-44 -34.5t-44.5 -40.5t-35.5 -39q-5 -6 -7.5 -14.5t-4.5 -16.5l-135 -698q-3 -15 0 -27 q6 -16 17.5 -34t25 -33.5t26.5 -28t21 -16.5q10 -7 27 -7h116l-22 -114h-113q-24 0 -51.5 9.5t-46.5 23.5q-12 8 -29.5 26.5t-34 39.5t-31 41.5t-20.5 33.5q-9 22 -8.5 48z" />
<glyph unicode="|" horiz-adv-x="358" d="M45 -193l309 1594h111l-309 -1594h-111z" />
<glyph unicode="}" horiz-adv-x="672" d="M100 -8l23 114h96q15 0 29 7q13 6 34 21t44 34.5t44.5 40.5t35.5 39q5 6 7.5 14.5t4.5 16.5l135 698q3 14 0 27q-6 16 -17.5 34t-25 33.5t-26.5 27.5t-21 17q-5 3 -12 4.5t-15 1.5h-117l23 115h113q24 0 51.5 -9.5t46.5 -23.5q12 -8 29.5 -26.5t34 -39.5t31 -41.5 t20.5 -33.5q9 -22 8.5 -48t-6.5 -52l-135 -695q-5 -26 -15 -52t-28 -48q-11 -13 -32.5 -34t-46 -42.5t-48.5 -40t-39 -26.5q-25 -14 -56.5 -23.5t-56.5 -9.5h-113z" />
<glyph unicode="~" horiz-adv-x="946" d="M156 459q18 36 44.5 63t58.5 43t67.5 21t70.5 -2l262 -56q31 -6 61 9.5t44 44.5l106 -27q-18 -36 -45 -62.5t-59 -42.5t-68 -21t-71 3l-262 55q-31 7 -62 -8.5t-45 -44.5z" />
<glyph unicode="&#xa1;" horiz-adv-x="483" d="M111 0l172 881h110l-172 -881h-110zM289 1067l30 160h160l-30 -160h-160z" />
<glyph unicode="&#xa2;" horiz-adv-x="924" d="M122 177.5q-1 27.5 5 58.5l80 409q6 31 17.5 58.5t31.5 50.5q7 8 21 21.5t29.5 28t32 27.5t28.5 21q29 19 65 29t70 10h53l43 213h104l-43 -213h68q34 0 65.5 -10t51.5 -29q17 -14 31 -32.5t26 -38t21 -39t16 -35.5l-109 -33q-4 13 -12 28t-18.5 29.5t-22.5 26t-22 18.5 q-12 8 -35 8h-80l-133 -688h69q24 0 37 8q14 7 32 19.5t35 27.5t31.5 29.5t22.5 26.5l2 4l105 -39q-12 -17 -29 -36.5t-36.5 -39t-41 -37t-43.5 -30.5q-28 -19 -62.5 -29t-68.5 -10h-74l-36 -187h-105l37 187h-53q-34 0 -66.5 10t-54.5 29q-9 7 -20 20.5t-21.5 27.5 t-18.5 27.5t-12 22.5q-12 23 -13 50.5zM238 193q4 -12 11.5 -25t16.5 -25.5t19 -22.5t18 -16q8 -5 17 -6.5t20 -1.5h61l134 688h-43q-23 0 -39 -8q-14 -7 -31 -18.5t-34 -25t-32 -28.5t-24 -28q-5 -6 -8 -15t-7 -20l-79 -414q-3 -22 0 -34z" />
<glyph unicode="&#xa3;" horiz-adv-x="1194" d="M150 332l20 106h84l22 119h-83l20 107h84l59 297q5 26 15 51t28 47q11 13 32.5 34t46 42.5t49 40t40.5 26.5q23 14 54.5 23.5t56.5 9.5h258l-23 -115h-239q-17 0 -29 -6q-13 -6 -35 -21t-46 -34.5t-46 -40.5t-35 -39q-2 -3 -5.5 -14.5t-6.5 -25t-5 -25t-3 -15.5l-47 -235 h487l-20 -107h-488l-22 -119h487l-20 -106h-488l-43 -217h430q8 0 17 1.5t14 4.5q18 8 41.5 25.5t47.5 39t45.5 45.5t35.5 45l113 -34q-13 -22 -29.5 -44.5t-30.5 -37.5t-32.5 -33t-39 -35.5t-41 -33t-38.5 -25.5q-25 -14 -55.5 -23.5t-55.5 -9.5h-561l63 332h-83z" />
<glyph unicode="&#xa4;" horiz-adv-x="1145" d="M244 373l96 82q-9 11 -13.5 17.5t-9.5 14.5q-14 25 -18 58t4 67l8 52q8 34 24.5 67t39.5 57q9 10 24 24.5t29 25.5l-66 82l87 69l71 -88q23 11 49 17t52 6h172q26 0 49.5 -5t42.5 -18l108 90l66 -84l-101 -80q11 -11 15.5 -21t9.5 -18q14 -24 18 -57t-4 -67l-8 -52 q-8 -34 -24 -67t-39 -58q-8 -8 -21.5 -21t-27.5 -24l67 -84l-86 -69l-74 88q-44 -25 -102 -25h-172q-56 0 -94 25l-105 -88zM407.5 583.5q-0.5 -8.5 2.5 -16.5q4 -11 12.5 -25.5t19.5 -29.5t22.5 -27.5t20.5 -17.5q10 -6 33 -6h180q22 0 37 6q15 7 33.5 21.5t37.5 32 t35 35.5t25 30q11 13 17 37l8 49q2 12 2.5 20.5t-2.5 16.5q-5 12 -12 26.5t-17 28.5t-21.5 26t-23.5 19q-9 6 -33 6h-180q-21 0 -37 -6q-14 -7 -33 -21.5t-38 -32t-36 -35.5t-26 -30q-6 -8 -9.5 -17t-6.5 -20l-8 -49q-2 -12 -2.5 -20.5z" />
<glyph unicode="&#xa5;" horiz-adv-x="995" d="M190 334l21 106h289l16 84l-12 35h-268l20 107h211l-195 563h123l189 -563h22l412 563h137l-416 -563h207l-20 -107h-264l-25 -35l-16 -84h280l-20 -106h-281l-63 -334h-121l63 334h-289z" />
<glyph unicode="&#xa6;" horiz-adv-x="309" d="M2 -193l137 701h111l-137 -701h-111zM176 698l135 703h111l-135 -703h-111z" />
<glyph unicode="&#xa7;" horiz-adv-x="1024" d="M117 172l102 37q4 -13 12.5 -28.5t19.5 -30t23 -27t23 -19.5q13 -8 35 -8h278q24 0 37 8q14 7 30.5 18.5t32.5 25t30.5 28t23.5 27.5q5 6 8.5 15t5.5 20l4 20q7 31 -5 52.5t-58 23.5l-305 10q-34 0 -65.5 10t-53.5 29q-9 7 -20 20.5t-21.5 28t-19.5 28t-13 21.5 q-11 23 -12 50.5t4 58.5l12 53q9 61 49 109q8 9 27 25.5t41 33.5q-35 25 -51.5 66t-5.5 94l4 28q12 62 53 109q7 8 19.5 20.5t26 25.5t28 24.5t26.5 19.5q29 19 65 29t68 10h263q32 0 64 -10t52 -29q9 -8 20 -21t21.5 -27.5t19 -28t13.5 -21.5q6 -13 12.5 -25t8.5 -20 l-103 -37q-4 13 -12.5 28.5t-19.5 30t-23 26.5t-23 19q-11 8 -32 8h-271q-22 0 -39 -8q-14 -7 -30 -18t-32 -24.5t-30 -28t-24 -27.5q-3 -6 -6.5 -15t-6.5 -20l-4 -20q-2 -15 -2 -28.5t6 -24t20 -16.5t40 -7l321 -12q34 0 66.5 -10.5t52.5 -28.5q9 -8 20 -21t21.5 -27.5 t19 -28t13.5 -22.5q21 -44 8 -108l-10 -53q-12 -63 -51 -109q-10 -11 -31.5 -29.5t-44.5 -35.5q32 -25 46 -64.5t5 -87.5l-6 -29q-12 -62 -51 -108q-8 -9 -20.5 -21t-26.5 -25t-29 -25t-27 -19q-28 -19 -63.5 -29t-67.5 -10h-274q-32 0 -64.5 10t-54.5 29q-9 7 -20 20.5 t-21.5 27.5t-18.5 27.5t-12 22.5q-8 12 -13 24.5t-7 20.5zM322 545q3 -12 10.5 -24.5t17.5 -24t20.5 -21t18.5 -14.5q6 -5 15 -6.5t20 -1.5l258 -11q11 0 21 2t18 7q17 8 35 20.5t35 27t32 30t27 30.5q5 6 6.5 15t3.5 20l8 49q3 22 0 35q-4 12 -11 24.5t-16 24.5t-18.5 22 t-17.5 15q-6 5 -15 6.5t-20 1.5l-260 10q-23 0 -39 -8q-32 -17 -67 -46.5t-60 -61.5q-6 -13 -12 -35l-10 -51q-5 -23 0 -35z" />
<glyph unicode="&#xa8;" horiz-adv-x="743" d="M408 1081l30 158h156l-31 -158h-155zM707 1081l30 158h156l-31 -158h-155z" />
<glyph unicode="&#xa9;" horiz-adv-x="1393" d="M127.5 215q-0.5 25 5.5 51l135 695q5 26 15 51t28 47q11 13 33 34.5t46.5 43t49 40.5t39.5 27q25 14 55.5 23.5t55.5 9.5h586q24 0 52.5 -9.5t47.5 -23.5q12 -8 28.5 -27t32.5 -40.5t29.5 -43t19.5 -34.5q10 -22 12 -47t-3 -51l-135 -695q-7 -26 -18 -51t-30 -47 q-11 -13 -32 -33.5t-46 -41.5t-48.5 -39.5t-38.5 -26.5q-25 -14 -56.5 -23.5t-56.5 -9.5h-586q-25 0 -52.5 9.5t-45.5 23.5q-12 8 -29 26.5t-33.5 39.5t-30.5 41.5t-20 33.5q-9 22 -9.5 47zM246 258q-3 -16 2 -27q5 -16 17.5 -35t27.5 -36.5t29 -31t22 -17.5q8 -7 25 -7h567 q8 0 16 1.5t13 5.5q13 6 36.5 22t49 36.5t49 42.5t37.5 40q3 6 5.5 12.5t4.5 14.5l133 690q2 8 1 16t-3 14q-5 16 -17.5 35.5t-27.5 37t-29 30.5t-22 18q-5 3 -12 4.5t-15 1.5h-569q-18 0 -27 -6q-14 -6 -36.5 -22t-47.5 -36.5t-47.5 -42.5t-36.5 -40q-5 -6 -7.5 -14.5 t-4.5 -16.5zM459 508l43 227q6 29 18.5 56.5t32.5 50.5q7 8 21 21.5t30 27.5t32 26.5t28 20.5q27 19 62 28t67 9h129q24 0 48.5 -13t43.5 -28q21 -19 42 -48t38 -57l-101 -30q-12 18 -30.5 37.5t-30.5 27.5q-5 3 -12 3.5t-15 0.5h-123q-9 0 -18 -0.5t-19 -5.5 q-13 -7 -30.5 -19.5t-35.5 -27.5t-33.5 -30.5t-24.5 -28.5q-5 -6 -8 -15t-5 -18l-43 -221q-3 -22 0 -35q3 -12 11 -25t17.5 -25.5t20 -22.5t19.5 -15q8 -5 16.5 -5.5t18.5 -0.5h125q8 0 14.5 0.5t11.5 3.5q8 4 19.5 12t24 18t25 21.5t23.5 22.5l105 -35q-29 -28 -62 -58 t-61 -49q-25 -15 -54.5 -29t-54.5 -14h-129q-32 0 -63.5 10.5t-52.5 28.5q-9 8 -19.5 21t-21 27t-18.5 27t-11 21q-22 49 -10 107z" />
<glyph unicode="&#xaa;" horiz-adv-x="762" d="M244.5 785q-0.5 24 5.5 53l35 180q6 29 16 54t29 46q7 8 19.5 20t27 25t29 25t26.5 20q26 14 58.5 24.5t60.5 10.5h84q31 0 59.5 -18t48.5 -33l-2 -2l11 45h108l-94 -481q-6 -34 -6 -67t2 -64h-109q-2 14 -6 29t-2 30q-13 -12 -31.5 -24t-38.5 -22.5t-40 -17t-35 -6.5 h-70q-28 0 -57 11t-49 26q-9 8 -19 20t-20 25t-17.5 25t-11.5 20q-11 22 -11.5 46zM353 814.5q-1 -7.5 1 -13.5q10 -23 26.5 -43.5t35.5 -32.5q6 -5 14 -6.5t14 -1.5h72q6 0 14.5 1.5t16.5 6.5q12 6 29 16.5t34 23t31.5 25.5t22.5 25q3 5 6.5 14.5t5.5 20.5l33 170 q5 18 5.5 27.5t-1.5 15.5q-6 22 -24.5 39.5t-37.5 30.5q-6 5 -14 6.5t-14 1.5h-82q-7 0 -15 -1.5t-16 -6.5q-12 -6 -27 -17.5t-30 -25t-28 -27t-22 -25.5q-5 -6 -6.5 -13.5t-3.5 -16.5l-37 -177q-2 -9 -3 -16.5z" />
<glyph unicode="&#xab;" horiz-adv-x="1114" d="M201 516l346 309l119 -39l-318 -278l213 -285l-119 -33zM551 516l346 309l119 -39l-318 -278l213 -285l-118 -33z" />
<glyph unicode="&#xac;" horiz-adv-x="1120" d="M160 455l20 106h854l-67 -346h-109l47 240h-745z" />
<glyph unicode="&#xad;" horiz-adv-x="739" d="M170 455l20 106h469l-20 -106h-469z" />
<glyph unicode="&#xae;" horiz-adv-x="1395" d="M127.5 215q-0.5 25 5.5 51l135 695q5 26 15 51t28 47q11 13 33 34.5t46.5 43t49 40.5t39.5 27q25 14 55.5 23.5t55.5 9.5h586q24 0 52.5 -9.5t47.5 -23.5q12 -8 28.5 -27t32.5 -40.5t29.5 -43t19.5 -34.5q10 -22 12 -47t-3 -51l-135 -695q-7 -26 -18 -51t-30 -47 q-11 -13 -32 -33.5t-46 -41.5t-48.5 -39.5t-38.5 -26.5q-25 -14 -56.5 -23.5t-56.5 -9.5h-586q-25 0 -52.5 9.5t-45.5 23.5q-12 8 -29 26.5t-33.5 39.5t-30.5 41.5t-20 33.5q-9 22 -9.5 47zM246 258q-3 -16 2 -27q5 -16 17.5 -35t27.5 -36.5t29 -31t22 -17.5q8 -7 25 -7h567 q8 0 16 1.5t13 5.5q13 6 36.5 22t49 36.5t49 42.5t37.5 40q3 6 5.5 12.5t4.5 14.5l133 690q2 8 1 16t-3 14q-5 16 -17.5 35.5t-27.5 37t-29 30.5t-22 18q-5 3 -12 4.5t-15 1.5h-569q-18 0 -27 -6q-14 -6 -36.5 -22t-47.5 -36.5t-47.5 -42.5t-36.5 -40q-5 -6 -7.5 -14.5 t-4.5 -16.5zM428 250l145 741h291q32 0 62.5 -10t52.5 -29q8 -8 20.5 -22t25 -29.5t22.5 -30t14 -22.5q20 -44 8 -103l-4 -22q-6 -29 -17.5 -57.5t-31.5 -51.5q-7 -8 -22.5 -21.5t-33.5 -27.5t-35.5 -26.5t-29.5 -18.5l-18 -10l98 -260h-121l-78 231h-190l-45 -231h-113z M606 590h172q10 0 20.5 1.5t18.5 6.5q14 7 32 18t36 24t34 27t25 27q5 6 7.5 16t4.5 19l7 27q2 9 2.5 17.5t-2.5 14.5q-3 12 -12 24.5t-19.5 24.5t-21.5 22t-19 15t-18 7t-19 2h-190z" />
<glyph unicode="&#xaf;" horiz-adv-x="786" d="M313 1137l21 102h520l-20 -102h-521z" />
<glyph unicode="&#xb0;" horiz-adv-x="766" d="M369 1198q7 38 26.5 73.5t49.5 62.5t69 43t86 16q38 0 70.5 -15t55 -41.5t31.5 -62t1 -76.5t-28.5 -76t-51 -61.5t-70 -41.5t-84.5 -15q-38 0 -70 15t-53.5 41.5t-30.5 61.5t-1 76zM447 1153q3 -21 14 -37t30 -25.5t48 -9.5q24 0 47 9.5t42 25.5t32 37t18 45 q9 48 -14.5 82.5t-79.5 34.5q-24 0 -46.5 -9.5t-40.5 -25t-31 -37t-17 -45.5q-5 -24 -2 -45z" />
<glyph unicode="&#xb1;" horiz-adv-x="1071" d="M94 -139l21 104h704l-20 -104h-705zM203 457l20 106h307l60 307h106l-59 -307h307l-20 -106h-308l-59 -307h-106l59 307h-307z" />
<glyph unicode="&#xb2;" horiz-adv-x="621" d="M178 635l25 129q11 59 49 96.5t98 54.5l240 70q7 2 17.5 6.5t20.5 11.5t18 17t11 24q2 7 2.5 10t2.5 9q2 8 2 11.5t-2 8.5q-8 19 -25 31t-37 25q-9 6 -31 6h-94q-6 0 -13.5 -0.5t-12.5 -3.5q-26 -13 -59.5 -37.5t-65.5 -44.5l-62 65q37 26 66 48t61 40q23 13 51.5 21 t51.5 8h92q29 0 52.5 -9.5t43.5 -25.5q19 -14 37 -34.5t26 -34.5q13 -20 14.5 -35t-1.5 -41l-4 -31q-4 -27 -18 -48t-33.5 -36.5t-43.5 -26.5t-49 -18l-248 -74q-27 -11 -40.5 -27t-18.5 -44l-4 -25h395l-18 -96h-496z" />
<glyph unicode="&#xb3;" horiz-adv-x="621" d="M190 745l72 62q25 -20 48.5 -40.5t43.5 -33.5q5 -3 13 -3.5t14 -0.5h90q9 0 18 1.5t15 4.5q25 13 46.5 26t43.5 32q8 6 13.5 11t8.5 13l5 19q3 27 -4.5 36t-28.5 21h-176l16 86h164q28 8 43.5 19.5t23.5 39.5l9 25q2 6 1.5 10t-3.5 10q-10 19 -28.5 32.5t-31.5 23.5 q-12 6 -33 6h-96q-6 0 -13.5 -1.5t-12.5 -4.5q-26 -13 -59.5 -35.5t-65.5 -42.5l-58 67q37 25 64 43.5t59 36.5q23 13 50.5 21t50.5 8h94q29 0 52.5 -8.5t43.5 -24.5q17 -14 38.5 -33.5t29.5 -33.5q12 -20 14.5 -36t-2.5 -42l-6 -33q-6 -22 -12 -36.5t-13.5 -24t-17 -17 t-21.5 -14.5q14 -17 24 -38.5t5 -47.5l-6 -31q-5 -26 -14 -43t-29 -37q-6 -7 -17.5 -16t-24.5 -18.5t-26.5 -18.5t-23.5 -16q-25 -17 -53.5 -25t-57.5 -8h-92q-23 0 -47.5 7t-42.5 20q-25 18 -47 38.5t-50 44.5z" />
<glyph unicode="&#xb4;" horiz-adv-x="760" d="M489 1079l220 228h149l-262 -265z" />
<glyph unicode="&#xb5;" horiz-adv-x="991" d="M27 -344l237 1225h111l-125 -643q0 -4 1 -6t1 -5q7 -19 22.5 -38t33.5 -35.5t35.5 -29.5t29.5 -20q6 -3 13 -5.5t15 -2.5h101q16 0 28 6q15 7 40 21t52 32t53 38t42 38l125 650h110l-143 -736l-4 -145h-109l-2 100q-23 -20 -46.5 -37.5t-43.5 -29.5q-25 -16 -54 -29.5 t-56 -13.5h-109q-26 0 -52 9.5t-44 25.5q-16 14 -33 33t-33 40l-86 -442h-110z" />
<glyph unicode="&#xb6;" horiz-adv-x="1059" d="M244 805l32 170q7 29 19.5 56t32.5 50q7 9 23 24t34.5 31.5t37 31t30.5 22.5q29 18 64 28.5t67 10.5h571l-237 -1229h-119l106 553h-121l-106 -553h-113l107 553h-219q-32 0 -63.5 10t-51.5 29q-9 7 -21.5 21.5t-25.5 30.5t-23 31t-14 23q-22 49 -10 107zM362 762 q4 -12 12 -24.5t17.5 -24.5t19.5 -22t19 -15q6 -5 16 -6.5t19 -1.5h229l86 446h-209q-9 0 -18.5 -0.5t-17.5 -5.5q-14 -7 -32 -20t-36 -29t-34 -32.5t-25 -29.5q-5 -6 -8 -15.5t-5 -18.5l-33 -166q-3 -22 0 -35zM807 668h121l86 446h-121z" />
<glyph unicode="&#xb7;" horiz-adv-x="596" d="M231 434l31 160h160l-31 -160h-160z" />
<glyph unicode="&#xb8;" horiz-adv-x="831" d="M145 -344l222 266l96 -39l-191 -227h-127z" />
<glyph unicode="&#xb9;" horiz-adv-x="621" d="M258 633l16 84h119l82 428h-119l17 84h205l-99 -512h117l-16 -84h-322z" />
<glyph unicode="&#xba;" horiz-adv-x="801" d="M242.5 785q-0.5 24 5.5 53l35 180q6 29 16 54t29 46q7 8 19.5 20t27 25t29 25t26.5 20q26 14 58 24.5t61 10.5h84q31 0 60.5 -10.5t47.5 -24.5q9 -8 19 -20t20 -25t18 -25t13 -20q11 -18 10.5 -44.5t-6.5 -55.5l-35 -180q-6 -29 -16 -53t-27 -46q-7 -8 -19.5 -20 t-27.5 -25t-30 -25t-27 -20q-25 -15 -57.5 -26t-63.5 -11h-84q-29 0 -57.5 11t-48.5 26q-9 8 -19 20t-20 25t-17.5 25t-11.5 20q-11 22 -11.5 46zM349 812.5q-1 -7.5 1 -13.5q4 -9 11 -20.5t15 -22t16 -19t14 -12.5q8 -5 16 -6.5t14 -1.5h88q6 0 14.5 1.5t16.5 6.5 q12 6 27.5 17.5t31.5 25t30 27t22 24.5q7 11 10 31l35 174q2 11 3.5 18.5t-1.5 16.5q-4 8 -11.5 19t-16 22t-16.5 20t-14 13q-6 5 -14 6.5t-14 1.5h-88q-7 0 -15.5 -1.5t-17.5 -6.5q-12 -6 -27 -18t-30.5 -25.5t-29 -27.5t-22.5 -26q-5 -6 -6.5 -14.5t-3.5 -17.5l-35 -175 q-2 -9 -3 -16.5z" />
<glyph unicode="&#xbb;" horiz-adv-x="1114" d="M147 229l318 279l-213 285l119 32l241 -325l-346 -310zM498 229l317 279l-213 285l119 32l242 -325l-347 -310z" />
<glyph unicode="&#xbc;" horiz-adv-x="1350" d="M258 633l16 84h119l82 428h-119l17 84h205l-99 -512h117l-16 -84h-322zM289 0l846 1229h120l-843 -1229h-123zM688 147l19 86l374 373h88l-71 -373h100l-18 -86l-101 3l-26 -150h-86l26 147h-305zM817 233h195l45 240z" />
<glyph unicode="&#xbd;" horiz-adv-x="1348" d="M258 633l16 84h119l82 428h-119l17 84h205l-99 -512h117l-16 -84h-322zM289 0l846 1229h120l-843 -1229h-123zM764 0l24 129q11 59 49.5 97t98.5 55l240 69q7 2 17.5 6.5t20.5 12t18 17.5t11 24q2 6 2 9t2 9q2 8 2 12t-2 9q-8 18 -24.5 30t-36.5 25q-5 3 -13.5 4.5 t-17.5 1.5h-94q-6 0 -14 -0.5t-13 -3.5q-26 -13 -59.5 -37.5t-65.5 -44.5l-61 65q37 26 66 48t61 41q23 12 51 20t51 8h92q29 0 53 -9.5t44 -25.5q18 -14 36.5 -34.5t26.5 -34.5q13 -20 14.5 -35t-2.5 -41l-4 -31q-4 -27 -17.5 -47.5t-33 -36.5t-43.5 -27t-49 -18l-248 -73 q-28 -11 -41 -27.5t-18 -44.5l-4 -25h395l-18 -96h-496z" />
<glyph unicode="&#xbe;" horiz-adv-x="1350" d="M190 745l72 62q25 -20 48.5 -40.5t43.5 -33.5q5 -3 13 -3.5t14 -0.5h90q9 0 18 1.5t15 4.5q25 13 46.5 26t43.5 32q8 6 13.5 11t8.5 13l5 19q3 27 -4.5 36t-28.5 21h-176l16 86h164q28 8 43.5 19.5t23.5 39.5l9 25q2 6 1.5 10t-3.5 10q-10 19 -28.5 32.5t-31.5 23.5 q-12 6 -33 6h-96q-6 0 -13.5 -1.5t-12.5 -4.5q-26 -13 -59.5 -35.5t-65.5 -42.5l-58 67q37 25 64 43.5t59 36.5q23 13 50.5 21t50.5 8h94q29 0 52.5 -8.5t43.5 -24.5q17 -14 38.5 -33.5t29.5 -33.5q12 -20 14.5 -36t-2.5 -42l-6 -33q-6 -22 -12 -36.5t-13.5 -24t-17 -17 t-21.5 -14.5q14 -17 24 -38.5t5 -47.5l-6 -31q-5 -26 -14 -43t-29 -37q-6 -7 -17.5 -16t-24.5 -18.5t-26.5 -18.5t-23.5 -16q-25 -17 -53.5 -25t-57.5 -8h-92q-23 0 -47.5 7t-42.5 20q-25 18 -47 38.5t-50 44.5zM289 0l846 1229h120l-843 -1229h-123zM688 147l19 86l374 373 h88l-71 -373h100l-18 -86l-101 3l-26 -150h-86l26 147h-305zM817 233h195l45 240z" />
<glyph unicode="&#xbf;" horiz-adv-x="932" d="M132 189.5q-2 27.5 3 56.5l27 139q7 32 22.5 61t38 54t50 44.5t57.5 33.5l147 73q29 14 53.5 39t30.5 55l25 136h121l-27 -146q-14 -65 -57.5 -112t-108.5 -78l-154 -76q-29 -14 -51 -36.5t-28 -53.5l-27 -137q-2 -10 -3 -20.5t1 -16.5q4 -12 12 -25.5t18 -26t20.5 -23 t19.5 -15.5q12 -9 32 -9h250q8 0 17.5 2t15.5 5q18 8 41 25.5t46.5 39t44.5 45.5t34 45l117 -35q-39 -58 -93.5 -112t-119.5 -96q-23 -16 -55.5 -24.5t-57.5 -8.5h-252q-32 0 -63.5 10t-51.5 29q-8 7 -20.5 22t-24.5 31.5t-22.5 31.5t-14.5 23q-11 23 -13 50.5zM596 1073 l29 156h155l-28 -156h-156z" />
<glyph unicode="&#xc0;" horiz-adv-x="1100" d="M-6 0l649 1229h184l174 -1229h-118l-37 285h-572l-149 -285h-131zM0 0zM332 399h497l-96 713h-28zM615 1600h137l129 -228l-111 -37z" />
<glyph unicode="&#xc1;" horiz-adv-x="1100" d="M-6 0l649 1229h184l174 -1229h-118l-37 285h-572l-149 -285h-131zM0 0zM332 399h497l-96 713h-28zM604 1368l220 228h149l-262 -265z" />
<glyph unicode="&#xc2;" horiz-adv-x="1100" d="M-6 0l649 1229h184l174 -1229h-118l-37 285h-572l-149 -285h-131zM0 0zM332 399h497l-96 713h-28zM510 1354l236 238h112l146 -238h-131l-84 139l-136 -139h-143z" />
<glyph unicode="&#xc3;" horiz-adv-x="1100" d="M-6 0l649 1229h184l174 -1229h-118l-37 285h-572l-149 -285h-131zM0 0zM332 399h497l-96 713h-28zM455 1399q18 36 44.5 63t58.5 43.5t67 21t70 -4.5l141 -37q32 -5 62 10.5t44 44.5l109 -26q-18 -36 -44.5 -63.5t-58.5 -44t-67 -20.5t-70 5l-141 37q-16 2 -32 -1 t-30.5 -10.5t-25.5 -18.5t-18 -26z" />
<glyph unicode="&#xc4;" horiz-adv-x="1100" d="M-6 0l649 1229h184l174 -1229h-118l-37 285h-572l-149 -285h-131zM0 0zM332 399h497l-96 713h-28zM533 1355l30 158h156l-31 -158h-155zM832 1355l30 158h156l-31 -158h-155z" />
<glyph unicode="&#xc5;" horiz-adv-x="1100" d="M-6 0l649 1229h184l174 -1229h-118l-37 285h-572l-149 -285h-131zM0 0zM332 399h497l-96 713h-28zM602 1534q7 41 28 76.5t51.5 62t68.5 41.5t81 15q39 0 71.5 -15t54.5 -41.5t31.5 -62t2.5 -76.5q-8 -41 -29.5 -76t-53 -61.5t-71 -41.5t-82.5 -15q-38 0 -70 15t-53 41.5 t-29.5 61.5t-0.5 76zM684 1534q-8 -57 15 -87t73 -30q23 0 46 10.5t42 27t32 37.5t17 42q5 26 0 47.5t-18 37t-32 24t-42 8.5t-45.5 -10t-40.5 -26.5t-30.5 -37.5t-16.5 -43z" />
<glyph unicode="&#xc6;" horiz-adv-x="1522" d="M-6 0l649 1229h901l-22 -115h-551l-86 -442h522l-23 -115h-522l-86 -442h551l-20 -115h-672l53 283h-414l-145 -283h-135zM332 397h379l139 717h-143z" />
<glyph unicode="&#xc7;" horiz-adv-x="1069" d="M134 0zM136 211q-2 25 3 51l137 701q5 26 16 51t30 47q10 13 32 34t47 42.5t49 40t39 26.5q25 14 55.5 23.5t55.5 9.5h272q25 0 52.5 -9.5t46.5 -23.5q14 -10 28.5 -26t28 -34t25.5 -36t20 -33t17 -36.5t14 -43.5l-119 -32q-5 21 -17.5 44.5t-28.5 45t-33 38.5t-32 25 q-3 3 -10.5 4.5t-15.5 1.5h-250q-16 0 -29 -6t-34.5 -20.5t-44.5 -33.5t-45 -39t-35 -38q-10 -11 -13 -29l-135 -704q-3 -15 0 -27q6 -16 18.5 -34t26 -34.5t26.5 -29t21 -16.5q8 -7 25 -7h260q8 0 17 1.5t14 5.5q18 8 41 25.5t46.5 39t45.5 44.5t37 44l114 -33 q-12 -21 -29.5 -42.5t-31.5 -36.5t-33 -33t-39.5 -36t-41 -34t-38.5 -26q-24 -14 -54.5 -23.5t-55.5 -9.5h-271q-24 0 -52.5 9.5t-47.5 23.5q-12 8 -29 26.5t-33.5 39.5t-30.5 41.5t-20 33.5q-9 22 -11 47zM260 -344l222 266l96 -39l-191 -227h-127z" />
<glyph unicode="&#xc8;" horiz-adv-x="1026" d="M100 0l238 1229h704l-22 -115h-582l-86 -442h551l-22 -115h-551l-86 -442h581l-20 -115h-705zM100 0zM566 1594h137l129 -228l-111 -37z" />
<glyph unicode="&#xc9;" horiz-adv-x="1026" d="M100 0l238 1229h704l-22 -115h-582l-86 -442h551l-22 -115h-551l-86 -442h581l-20 -115h-705zM100 0zM591 1368l220 228h149l-262 -265z" />
<glyph unicode="&#xca;" horiz-adv-x="1026" d="M100 0l238 1229h704l-22 -115h-582l-86 -442h551l-22 -115h-551l-86 -442h581l-20 -115h-705zM100 0zM475 1354l236 238h112l146 -238h-131l-84 139l-136 -139h-143z" />
<glyph unicode="&#xcb;" horiz-adv-x="1026" d="M100 0l238 1229h704l-22 -115h-582l-86 -442h551l-22 -115h-551l-86 -442h581l-20 -115h-705zM514 1354l31 157h155l-30 -157h-156zM813 1354l31 157h155l-30 -157h-156z" />
<glyph unicode="&#xcc;" horiz-adv-x="471" d="M98 0l238 1229h121l-238 -1229h-121zM98 0zM238 1594h137l129 -228l-111 -37z" />
<glyph unicode="&#xcd;" horiz-adv-x="471" d="M98 0l238 1229h121l-238 -1229h-121zM98 0zM311 1368l220 228h149l-262 -265z" />
<glyph unicode="&#xce;" horiz-adv-x="471" d="M98 0l238 1229h121l-238 -1229h-121zM98 0zM166 1354l236 238h112l146 -238h-131l-84 139l-136 -139h-143z" />
<glyph unicode="&#xcf;" horiz-adv-x="471" d="M98 0l238 1229h121l-238 -1229h-121zM197 1364l30 158h156l-31 -158h-155zM496 1364l30 158h156l-31 -158h-155z" />
<glyph unicode="&#xd0;" horiz-adv-x="1176" d="M90 557l23 115h178l108 557h541q25 0 52.5 -8.5t45.5 -22.5q12 -8 29 -27t33.5 -41t30 -43t18.5 -34q11 -22 11 -47.5t-5 -51.5l-133 -682q-5 -26 -14.5 -51t-28.5 -47q-11 -13 -32.5 -33.5t-46 -41.5t-48.5 -39.5t-39 -26.5q-25 -14 -55.5 -23.5t-55.5 -9.5h-540 l106 557h-178zM303 115h399q8 0 16 1.5t13 4.5q14 6 35.5 20.5t45 33.5t45 39t34.5 38q9 12 12 27l135 690q3 17 0 30q-6 16 -18 33.5t-25.5 32.5t-26.5 26.5t-22 16.5q-9 6 -26 6h-422l-86 -442h280l-22 -115h-281z" />
<glyph unicode="&#xd1;" horiz-adv-x="1128" d="M102 0l238 1229h143l338 -1059l205 1059h117l-238 -1229h-141l-342 1049l-203 -1049h-117zM102 0zM471 1399q18 36 44.5 63t58.5 43.5t67 21t70 -4.5l141 -37q32 -5 62 10.5t44 44.5l109 -26q-18 -36 -44.5 -63.5t-58.5 -44t-67 -20.5t-70 5l-141 37q-16 2 -32 -1 t-30.5 -10.5t-25.5 -18.5t-18 -26z" />
<glyph unicode="&#xd2;" horiz-adv-x="1155" d="M135 0zM135.5 212q-0.5 26 5.5 52l135 697q5 26 15 52t28 48q11 13 33 34t47.5 42.5t50 40t39.5 26.5q25 14 55.5 23.5t55.5 9.5h324q24 0 52.5 -9.5t47.5 -23.5q12 -8 28.5 -26.5t33 -40t30 -42.5t19.5 -34q9 -22 11 -48t-3 -52l-135 -697q-7 -26 -18 -52t-29 -48 q-11 -13 -32.5 -33.5t-46 -41.5t-48.5 -39.5t-39 -26.5q-25 -14 -56.5 -23.5t-56.5 -9.5h-324q-24 0 -51.5 9.5t-46.5 23.5q-12 8 -29.5 26.5t-34 39.5t-31 41.5t-20.5 33.5q-9 22 -9.5 48zM259 235.5q1 -6.5 3 -12.5q6 -16 18 -34t25 -33.5t26 -28t21 -16.5q8 -7 25 -7h307 q8 0 16 1.5t13 5.5q14 6 36 21t45.5 34.5t45 40.5t34.5 39q10 12 13 26l135 701q3 16 0 31q-5 16 -17 34t-25.5 33.5t-27 27.5t-22.5 17q-3 3 -10 4.5t-15 1.5h-307q-16 0 -29 -6t-34.5 -21t-44.5 -34.5t-45 -40.5t-35 -39q-12 -14 -15 -31l-135 -700q-2 -8 -1 -14.5z M648 1594h137l129 -228l-111 -37z" />
<glyph unicode="&#xd3;" horiz-adv-x="1155" d="M135 0zM135.5 212q-0.5 26 5.5 52l135 697q5 26 15 52t28 48q11 13 33 34t47.5 42.5t50 40t39.5 26.5q25 14 55.5 23.5t55.5 9.5h324q24 0 52.5 -9.5t47.5 -23.5q12 -8 28.5 -26.5t33 -40t30 -42.5t19.5 -34q9 -22 11 -48t-3 -52l-135 -697q-7 -26 -18 -52t-29 -48 q-11 -13 -32.5 -33.5t-46 -41.5t-48.5 -39.5t-39 -26.5q-25 -14 -56.5 -23.5t-56.5 -9.5h-324q-24 0 -51.5 9.5t-46.5 23.5q-12 8 -29.5 26.5t-34 39.5t-31 41.5t-20.5 33.5q-9 22 -9.5 48zM259 235.5q1 -6.5 3 -12.5q6 -16 18 -34t25 -33.5t26 -28t21 -16.5q8 -7 25 -7h307 q8 0 16 1.5t13 5.5q14 6 36 21t45.5 34.5t45 40.5t34.5 39q10 12 13 26l135 701q3 16 0 31q-5 16 -17 34t-25.5 33.5t-27 27.5t-22.5 17q-3 3 -10 4.5t-15 1.5h-307q-16 0 -29 -6t-34.5 -21t-44.5 -34.5t-45 -40.5t-35 -39q-12 -14 -15 -31l-135 -700q-2 -8 -1 -14.5z M628 1368l220 228h149l-262 -265z" />
<glyph unicode="&#xd4;" horiz-adv-x="1155" d="M135 0zM135.5 212q-0.5 26 5.5 52l135 697q5 26 15 52t28 48q11 13 33 34t47.5 42.5t50 40t39.5 26.5q25 14 55.5 23.5t55.5 9.5h324q24 0 52.5 -9.5t47.5 -23.5q12 -8 28.5 -26.5t33 -40t30 -42.5t19.5 -34q9 -22 11 -48t-3 -52l-135 -697q-7 -26 -18 -52t-29 -48 q-11 -13 -32.5 -33.5t-46 -41.5t-48.5 -39.5t-39 -26.5q-25 -14 -56.5 -23.5t-56.5 -9.5h-324q-24 0 -51.5 9.5t-46.5 23.5q-12 8 -29.5 26.5t-34 39.5t-31 41.5t-20.5 33.5q-9 22 -9.5 48zM259 235.5q1 -6.5 3 -12.5q6 -16 18 -34t25 -33.5t26 -28t21 -16.5q8 -7 25 -7h307 q8 0 16 1.5t13 5.5q14 6 36 21t45.5 34.5t45 40.5t34.5 39q10 12 13 26l135 701q3 16 0 31q-5 16 -17 34t-25.5 33.5t-27 27.5t-22.5 17q-3 3 -10 4.5t-15 1.5h-307q-16 0 -29 -6t-34.5 -21t-44.5 -34.5t-45 -40.5t-35 -39q-12 -14 -15 -31l-135 -700q-2 -8 -1 -14.5z M545 1354l236 238h112l146 -238h-131l-84 139l-136 -139h-143z" />
<glyph unicode="&#xd5;" horiz-adv-x="1155" d="M135 0zM135.5 212q-0.5 26 5.5 52l135 697q5 26 15 52t28 48q11 13 33 34t47.5 42.5t50 40t39.5 26.5q25 14 55.5 23.5t55.5 9.5h324q24 0 52.5 -9.5t47.5 -23.5q12 -8 28.5 -26.5t33 -40t30 -42.5t19.5 -34q9 -22 11 -48t-3 -52l-135 -697q-7 -26 -18 -52t-29 -48 q-11 -13 -32.5 -33.5t-46 -41.5t-48.5 -39.5t-39 -26.5q-25 -14 -56.5 -23.5t-56.5 -9.5h-324q-24 0 -51.5 9.5t-46.5 23.5q-12 8 -29.5 26.5t-34 39.5t-31 41.5t-20.5 33.5q-9 22 -9.5 48zM259 235.5q1 -6.5 3 -12.5q6 -16 18 -34t25 -33.5t26 -28t21 -16.5q8 -7 25 -7h307 q8 0 16 1.5t13 5.5q14 6 36 21t45.5 34.5t45 40.5t34.5 39q10 12 13 26l135 701q3 16 0 31q-5 16 -17 34t-25.5 33.5t-27 27.5t-22.5 17q-3 3 -10 4.5t-15 1.5h-307q-16 0 -29 -6t-34.5 -21t-44.5 -34.5t-45 -40.5t-35 -39q-12 -14 -15 -31l-135 -700q-2 -8 -1 -14.5z M494 1399q18 36 44.5 63t58.5 43.5t67 21t70 -4.5l141 -37q32 -5 62 10.5t44 44.5l109 -26q-18 -36 -44.5 -63.5t-58.5 -44t-67 -20.5t-70 5l-141 37q-16 2 -32 -1t-30.5 -10.5t-25.5 -18.5t-18 -26z" />
<glyph unicode="&#xd6;" horiz-adv-x="1155" d="M135 0zM135.5 212q-0.5 26 5.5 52l135 697q5 26 15 52t28 48q11 13 33 34t47.5 42.5t50 40t39.5 26.5q25 14 55.5 23.5t55.5 9.5h324q24 0 52.5 -9.5t47.5 -23.5q12 -8 28.5 -26.5t33 -40t30 -42.5t19.5 -34q9 -22 11 -48t-3 -52l-135 -697q-7 -26 -18 -52t-29 -48 q-11 -13 -32.5 -33.5t-46 -41.5t-48.5 -39.5t-39 -26.5q-25 -14 -56.5 -23.5t-56.5 -9.5h-324q-24 0 -51.5 9.5t-46.5 23.5q-12 8 -29.5 26.5t-34 39.5t-31 41.5t-20.5 33.5q-9 22 -9.5 48zM259 235.5q1 -6.5 3 -12.5q6 -16 18 -34t25 -33.5t26 -28t21 -16.5q8 -7 25 -7h307 q8 0 16 1.5t13 5.5q14 6 36 21t45.5 34.5t45 40.5t34.5 39q10 12 13 26l135 701q3 16 0 31q-5 16 -17 34t-25.5 33.5t-27 27.5t-22.5 17q-3 3 -10 4.5t-15 1.5h-307q-16 0 -29 -6t-34.5 -21t-44.5 -34.5t-45 -40.5t-35 -39q-12 -14 -15 -31l-135 -700q-2 -8 -1 -14.5z M558 1355l30 158h156l-31 -158h-155zM857 1355l30 158h156l-31 -158h-155z" />
<glyph unicode="&#xd7;" horiz-adv-x="881" d="M100 233l330 279l-219 270l78 70l217 -270l330 276l67 -78l-332 -278l224 -277l-78 -69l-221 274l-326 -274z" />
<glyph unicode="&#xd8;" horiz-adv-x="1153" d="M109 -55l92 137q-19 22 -34 45t-22 37q-9 22 -9.5 48t5.5 52l135 697q5 26 15 52t28 48q11 13 33 34t47.5 42.5t50 40t39.5 26.5q25 14 55.5 23.5t55.5 9.5h324q12 0 25.5 -2.5t27.5 -7.5l33 49h125l-74 -109q23 -26 43.5 -57.5t30.5 -48.5q9 -22 11 -48t-3 -52 l-135 -697q-7 -26 -18 -52t-29 -48q-11 -13 -32.5 -33.5t-46 -41.5t-48.5 -39.5t-39 -26.5q-25 -14 -56.5 -23.5t-56.5 -9.5h-324q-20 0 -40.5 5.5t-38.5 14.5l-43 -65h-127zM259 235.5q1 -6.5 3 -12.5q3 -8 6 -15t8 -15l629 929h-307q-16 0 -29 -6t-34.5 -21t-44.5 -34.5 t-45 -40.5t-35 -39q-12 -14 -15 -31l-135 -700q-2 -8 -1 -14.5zM348 113q0 -2 4 -2q8 -7 25 -7h307q8 0 16 1.5t13 5.5q14 6 36 21t45.5 34.5t45 40.5t34.5 39q10 12 13 26l135 701q3 16 0 31q-5 14 -13.5 28.5t-19.5 28.5z" />
<glyph unicode="&#xd9;" horiz-adv-x="1096" d="M139 0zM150 262l188 967h121l-189 -977q-2 -8 -1 -14.5t3 -12.5q6 -16 18.5 -34t26 -34.5t26.5 -29t22 -16.5q8 -7 24 -7h254q8 0 16 1.5t13 5.5q14 6 36 21.5t45.5 35.5t45.5 41t35 39q5 6 8.5 12t5.5 14l184 955h121l-188 -967q-5 -26 -15 -51t-28 -47 q-11 -13 -32.5 -33.5t-46 -41.5t-48.5 -39.5t-39 -26.5q-25 -14 -55.5 -23.5t-55.5 -9.5h-274q-25 0 -53.5 9.5t-47.5 23.5q-12 8 -29 26.5t-33.5 39.5t-30 41.5t-19.5 33.5q-19 43 -8 98zM627 1594h137l129 -228l-111 -37z" />
<glyph unicode="&#xda;" horiz-adv-x="1096" d="M139 0zM150 262l188 967h121l-189 -977q-2 -8 -1 -14.5t3 -12.5q6 -16 18.5 -34t26 -34.5t26.5 -29t22 -16.5q8 -7 24 -7h254q8 0 16 1.5t13 5.5q14 6 36 21.5t45.5 35.5t45.5 41t35 39q5 6 8.5 12t5.5 14l184 955h121l-188 -967q-5 -26 -15 -51t-28 -47 q-11 -13 -32.5 -33.5t-46 -41.5t-48.5 -39.5t-39 -26.5q-25 -14 -55.5 -23.5t-55.5 -9.5h-274q-25 0 -53.5 9.5t-47.5 23.5q-12 8 -29 26.5t-33.5 39.5t-30 41.5t-19.5 33.5q-19 43 -8 98zM618 1368l220 228h149l-262 -265z" />
<glyph unicode="&#xdb;" horiz-adv-x="1096" d="M139 0zM150 262l188 967h121l-189 -977q-2 -8 -1 -14.5t3 -12.5q6 -16 18.5 -34t26 -34.5t26.5 -29t22 -16.5q8 -7 24 -7h254q8 0 16 1.5t13 5.5q14 6 36 21.5t45.5 35.5t45.5 41t35 39q5 6 8.5 12t5.5 14l184 955h121l-188 -967q-5 -26 -15 -51t-28 -47 q-11 -13 -32.5 -33.5t-46 -41.5t-48.5 -39.5t-39 -26.5q-25 -14 -55.5 -23.5t-55.5 -9.5h-274q-25 0 -53.5 9.5t-47.5 23.5q-12 8 -29 26.5t-33.5 39.5t-30 41.5t-19.5 33.5q-19 43 -8 98zM518 1354l236 238h112l146 -238h-131l-84 139l-136 -139h-143z" />
<glyph unicode="&#xdc;" horiz-adv-x="1096" d="M139 0zM150 262l188 967h121l-189 -977q-2 -8 -1 -14.5t3 -12.5q6 -16 18.5 -34t26 -34.5t26.5 -29t22 -16.5q8 -7 24 -7h254q8 0 16 1.5t13 5.5q14 6 36 21.5t45.5 35.5t45.5 41t35 39q5 6 8.5 12t5.5 14l184 955h121l-188 -967q-5 -26 -15 -51t-28 -47 q-11 -13 -32.5 -33.5t-46 -41.5t-48.5 -39.5t-39 -26.5q-25 -14 -55.5 -23.5t-55.5 -9.5h-274q-25 0 -53.5 9.5t-47.5 23.5q-12 8 -29 26.5t-33.5 39.5t-30 41.5t-19.5 33.5q-19 43 -8 98zM545 1355l30 158h156l-31 -158h-155zM844 1355l30 158h156l-31 -158h-155z" />
<glyph unicode="&#xdd;" horiz-adv-x="915" d="M217 0zM217 1229h123l197 -584l426 584h137l-518 -705l-101 -524h-121l101 524zM509 1368l220 228h149l-262 -265z" />
<glyph unicode="&#xde;" horiz-adv-x="1069" d="M100 0l238 1229h119l-51 -268h434q32 0 61.5 -10.5t50.5 -28.5q9 -8 21.5 -22.5t25.5 -31t23 -31.5t14 -24q11 -23 13.5 -50t-2.5 -56l-37 -181q-5 -29 -18.5 -56t-33.5 -50q-7 -9 -23 -23.5t-34.5 -30.5t-37 -30.5t-29.5 -22.5q-28 -18 -61.5 -28.5t-65.5 -10.5h-435 l-53 -274h-119zM293 389h422q9 0 19 1.5t18 6.5q13 7 31.5 20t37.5 28.5t35.5 31.5t26.5 29q5 6 7.5 15.5t4.5 19.5l33 174q2 9 3 18t-1 17q-2 11 -10 24.5t-18.5 26t-21.5 23t-20 16.5q-6 5 -14.5 5.5t-18.5 0.5h-444z" />
<glyph unicode="&#xdf;" horiz-adv-x="1096" d="M80 0l43 145l158 811q6 28 16.5 54.5t30.5 48.5q11 14 32.5 35t46.5 43t49 40.5t40 26.5q26 14 57 23.5t57 9.5h97q34 0 65 -9t51 -28q9 -8 20 -21t21.5 -27.5t19 -28t13.5 -21.5q11 -23 13 -51.5t-3 -59.5l-10 -53q-8 -37 -21 -66.5t-36 -54.5q-13 -14 -34.5 -30 t-35.5 -25q-23 -16 -46.5 -36t-37.5 -40q-7 -10 -14 -35l-10 -55q-5 -20 -1 -33.5t13 -22t22.5 -13.5t28.5 -7l29 -4l98 -6q37 -2 66.5 -17t49 -39t27 -56.5t0.5 -69.5l-20 -101q-12 -62 -51 -108q-8 -9 -20.5 -21t-26.5 -25t-29 -25t-27 -19q-28 -19 -63.5 -29t-67.5 -10 h-246q-32 0 -64.5 10t-53.5 29l98 75q13 -8 37 -8h241q22 0 35 8q14 7 30 18t32 23.5t30 26.5t23 27q5 6 7 14.5t5 22.5l21 92q5 40 -11 56.5t-53 18.5l-106 9l-21 2q-38 3 -67.5 18t-48.5 39.5t-26.5 56.5t-0.5 70l12 57q6 31 16.5 58.5t30.5 50.5q6 6 18.5 16t27.5 21.5 t30.5 22.5t26.5 20q18 15 33 28t24 27q2 3 5.5 9.5t6.5 17.5q3 12 7.5 34t7.5 37q2 11 3 23t-1 18q-4 12 -12.5 24.5t-18 24.5t-20 22t-19.5 15q-6 5 -14 5.5t-19 0.5h-96q-13 0 -29 -6q-14 -7 -37 -24t-47.5 -38t-47.5 -44t-36 -41q-5 -6 -7.5 -14.5t-4.5 -16.5l-164 -835 l-34 -111h-113z" />
<glyph unicode="&#xe0;" d="M80 0zM81.5 175.5q-1.5 27.5 4.5 57.5l8 41q12 62 51 109q8 9 21.5 22t29 26.5t31 26.5t27.5 21q28 19 63 29t70 10h354l29 141q2 13 2 20.5v12.5q-8 22 -27.5 47t-39.5 37q-12 8 -35 8h-201q-21 0 -37 -8q-14 -7 -29.5 -18.5t-31 -26t-30 -29.5t-26.5 -28l-106 35 q6 8 15.5 20.5t23.5 26.5q9 10 23 23t29.5 27t31 26.5t28.5 21.5q28 19 61 28t68 9h189q35 0 67 -10t52 -29q10 -7 21.5 -19.5t21 -27t17.5 -28t13 -21.5q13 -23 14 -51.5t-5 -59.5l-99 -500v-145h-108l-4 102q-22 -20 -49 -38.5t-46 -30.5q-27 -17 -54.5 -30t-53.5 -13 h-180q-35 0 -66 10t-53 29q-9 8 -19.5 21t-20.5 26.5t-19 26.5t-13 22q-11 23 -12.5 50.5zM194.5 200q1.5 -8 4.5 -16q8 -23 27 -46t36 -34q8 -5 17 -6.5t20 -1.5h180q17 0 29 6q14 6 38 19.5t50 31t50 37t38 37.5l37 187h-344q-23 0 -39 -8q-14 -7 -30.5 -18.5t-32.5 -25 t-30.5 -28t-23.5 -27.5q-5 -6 -8 -13t-6 -20l-12 -57q-2 -9 -0.5 -17zM451 1307h137l129 -228l-111 -37z" />
<glyph unicode="&#xe1;" d="M80 0zM81.5 175.5q-1.5 27.5 4.5 57.5l8 41q12 62 51 109q8 9 21.5 22t29 26.5t31 26.5t27.5 21q28 19 63 29t70 10h354l29 141q2 13 2 20.5v12.5q-8 22 -27.5 47t-39.5 37q-12 8 -35 8h-201q-21 0 -37 -8q-14 -7 -29.5 -18.5t-31 -26t-30 -29.5t-26.5 -28l-106 35 q6 8 15.5 20.5t23.5 26.5q9 10 23 23t29.5 27t31 26.5t28.5 21.5q28 19 61 28t68 9h189q35 0 67 -10t52 -29q10 -7 21.5 -19.5t21 -27t17.5 -28t13 -21.5q13 -23 14 -51.5t-5 -59.5l-99 -500v-145h-108l-4 102q-22 -20 -49 -38.5t-46 -30.5q-27 -17 -54.5 -30t-53.5 -13 h-180q-35 0 -66 10t-53 29q-9 8 -19.5 21t-20.5 26.5t-19 26.5t-13 22q-11 23 -12.5 50.5zM194.5 200q1.5 -8 4.5 -16q8 -23 27 -46t36 -34q8 -5 17 -6.5t20 -1.5h180q17 0 29 6q14 6 38 19.5t50 31t50 37t38 37.5l37 187h-344q-23 0 -39 -8q-14 -7 -30.5 -18.5t-32.5 -25 t-30.5 -28t-23.5 -27.5q-5 -6 -8 -13t-6 -20l-12 -57q-2 -9 -0.5 -17zM489 1079l220 228h149l-262 -265z" />
<glyph unicode="&#xe2;" d="M80 0zM81.5 175.5q-1.5 27.5 4.5 57.5l8 41q12 62 51 109q8 9 21.5 22t29 26.5t31 26.5t27.5 21q28 19 63 29t70 10h354l29 141q2 13 2 20.5v12.5q-8 22 -27.5 47t-39.5 37q-12 8 -35 8h-201q-21 0 -37 -8q-14 -7 -29.5 -18.5t-31 -26t-30 -29.5t-26.5 -28l-106 35 q6 8 15.5 20.5t23.5 26.5q9 10 23 23t29.5 27t31 26.5t28.5 21.5q28 19 61 28t68 9h189q35 0 67 -10t52 -29q10 -7 21.5 -19.5t21 -27t17.5 -28t13 -21.5q13 -23 14 -51.5t-5 -59.5l-99 -500v-145h-108l-4 102q-22 -20 -49 -38.5t-46 -30.5q-27 -17 -54.5 -30t-53.5 -13 h-180q-35 0 -66 10t-53 29q-9 8 -19.5 21t-20.5 26.5t-19 26.5t-13 22q-11 23 -12.5 50.5zM194.5 200q1.5 -8 4.5 -16q8 -23 27 -46t36 -34q8 -5 17 -6.5t20 -1.5h180q17 0 29 6q14 6 38 19.5t50 31t50 37t38 37.5l37 187h-344q-23 0 -39 -8q-14 -7 -30.5 -18.5t-32.5 -25 t-30.5 -28t-23.5 -27.5q-5 -6 -8 -13t-6 -20l-12 -57q-2 -9 -0.5 -17zM387 1065l236 238h112l146 -238h-131l-84 139l-136 -139h-143z" />
<glyph unicode="&#xe3;" d="M80 0zM81.5 175.5q-1.5 27.5 4.5 57.5l8 41q12 62 51 109q8 9 21.5 22t29 26.5t31 26.5t27.5 21q28 19 63 29t70 10h354l29 141q2 13 2 20.5v12.5q-8 22 -27.5 47t-39.5 37q-12 8 -35 8h-201q-21 0 -37 -8q-14 -7 -29.5 -18.5t-31 -26t-30 -29.5t-26.5 -28l-106 35 q6 8 15.5 20.5t23.5 26.5q9 10 23 23t29.5 27t31 26.5t28.5 21.5q28 19 61 28t68 9h189q35 0 67 -10t52 -29q10 -7 21.5 -19.5t21 -27t17.5 -28t13 -21.5q13 -23 14 -51.5t-5 -59.5l-99 -500v-145h-108l-4 102q-22 -20 -49 -38.5t-46 -30.5q-27 -17 -54.5 -30t-53.5 -13 h-180q-35 0 -66 10t-53 29q-9 8 -19.5 21t-20.5 26.5t-19 26.5t-13 22q-11 23 -12.5 50.5zM194.5 200q1.5 -8 4.5 -16q8 -23 27 -46t36 -34q8 -5 17 -6.5t20 -1.5h180q17 0 29 6q14 6 38 19.5t50 31t50 37t38 37.5l37 187h-344q-23 0 -39 -8q-14 -7 -30.5 -18.5t-32.5 -25 t-30.5 -28t-23.5 -27.5q-5 -6 -8 -13t-6 -20l-12 -57q-2 -9 -0.5 -17zM354 1110q18 36 44.5 63t58.5 43.5t67 21t70 -4.5l141 -37q32 -5 62 10.5t44 44.5l109 -26q-18 -36 -44.5 -63.5t-58.5 -44t-67 -20.5t-70 5l-141 37q-16 2 -32 -1t-30.5 -10.5t-25.5 -18.5t-18 -26z " />
<glyph unicode="&#xe4;" d="M81.5 175.5q-1.5 27.5 4.5 57.5l8 41q12 62 51 109q8 9 21.5 22t29 26.5t31 26.5t27.5 21q28 19 63 29t70 10h354l29 141q2 13 2 20.5v12.5q-8 22 -27.5 47t-39.5 37q-12 8 -35 8h-201q-21 0 -37 -8q-14 -7 -29.5 -18.5t-31 -26t-30 -29.5t-26.5 -28l-106 35 q6 8 15.5 20.5t23.5 26.5q9 10 23 23t29.5 27t31 26.5t28.5 21.5q28 19 61 28t68 9h189q35 0 67 -10t52 -29q10 -7 21.5 -19.5t21 -27t17.5 -28t13 -21.5q13 -23 14 -51.5t-5 -59.5l-99 -500v-145h-108l-4 102q-22 -20 -49 -38.5t-46 -30.5q-27 -17 -54.5 -30t-53.5 -13 h-180q-35 0 -66 10t-53 29q-9 8 -19.5 21t-20.5 26.5t-19 26.5t-13 22q-11 23 -12.5 50.5zM194.5 200q1.5 -8 4.5 -16q8 -23 27 -46t36 -34q8 -5 17 -6.5t20 -1.5h180q17 0 29 6q14 6 38 19.5t50 31t50 37t38 37.5l37 187h-344q-23 0 -39 -8q-14 -7 -30.5 -18.5t-32.5 -25 t-30.5 -28t-23.5 -27.5q-5 -6 -8 -13t-6 -20l-12 -57q-2 -9 -0.5 -17zM391 1081l31 158h156l-31 -158h-156zM690 1081l31 158h156l-31 -158h-156z" />
<glyph unicode="&#xe5;" d="M80 0zM81.5 175.5q-1.5 27.5 4.5 57.5l8 41q12 62 51 109q8 9 21.5 22t29 26.5t31 26.5t27.5 21q28 19 63 29t70 10h354l29 141q2 13 2 20.5v12.5q-8 22 -27.5 47t-39.5 37q-12 8 -35 8h-201q-21 0 -37 -8q-14 -7 -29.5 -18.5t-31 -26t-30 -29.5t-26.5 -28l-106 35 q6 8 15.5 20.5t23.5 26.5q9 10 23 23t29.5 27t31 26.5t28.5 21.5q28 19 61 28t68 9h189q35 0 67 -10t52 -29q10 -7 21.5 -19.5t21 -27t17.5 -28t13 -21.5q13 -23 14 -51.5t-5 -59.5l-99 -500v-145h-108l-4 102q-22 -20 -49 -38.5t-46 -30.5q-27 -17 -54.5 -30t-53.5 -13 h-180q-35 0 -66 10t-53 29q-9 8 -19.5 21t-20.5 26.5t-19 26.5t-13 22q-11 23 -12.5 50.5zM194.5 200q1.5 -8 4.5 -16q8 -23 27 -46t36 -34q8 -5 17 -6.5t20 -1.5h180q17 0 29 6q14 6 38 19.5t50 31t50 37t38 37.5l37 187h-344q-23 0 -39 -8q-14 -7 -30.5 -18.5t-32.5 -25 t-30.5 -28t-23.5 -27.5q-5 -6 -8 -13t-6 -20l-12 -57q-2 -9 -0.5 -17zM469 1235q7 41 28 76.5t51.5 62t68.5 41.5t81 15q39 0 71.5 -15t54.5 -41.5t31.5 -62t2.5 -76.5q-8 -41 -29.5 -76t-53 -61.5t-71 -41.5t-82.5 -15q-38 0 -70 15t-53 41.5t-29.5 61.5t-0.5 76zM551 1235 q-8 -57 15 -87t73 -30q23 0 46 10.5t42 27t32 37.5t17 42q5 26 0 47.5t-18 37t-32 24t-42 8.5t-45.5 -10t-40.5 -26.5t-30.5 -37.5t-16.5 -43z" />
<glyph unicode="&#xe6;" horiz-adv-x="1530" d="M81.5 175.5q-1.5 27.5 4.5 57.5l8 41q12 62 51 109q8 9 21.5 22t29 26.5t31 26.5t27.5 21q28 19 63 29t70 10h354l29 152v20q-4 12 -11.5 24.5t-17.5 24.5t-20 22t-19 15q-11 8 -34 8h-197q-21 0 -37 -8q-14 -7 -30 -18.5t-32 -26t-30.5 -29.5t-26.5 -28l-106 35 q6 8 15.5 20.5t23.5 26.5q9 10 23 23t29.5 27t31 26.5t28.5 21.5q28 19 61 28t68 9h189q35 0 67 -10t52 -29q14 -9 27.5 -28t25.5 -38q18 19 41 37t39 29q29 19 65 29t70 10h205q34 0 66.5 -10t52.5 -29q9 -8 20 -21t21 -27.5t18.5 -28t13.5 -21.5q22 -45 8 -109l-47 -244 h-592l-36 -184q-2 -8 -1 -12.5t3 -9.5q4 -12 12 -25.5t18 -26t20.5 -23t18.5 -16.5q15 -8 35 -8h215q11 0 20 1.5t17 6.5q35 19 62.5 44t41.5 40l17 21l106 -37q-9 -12 -17.5 -22.5t-19.5 -22.5q-8 -9 -22 -22.5t-30 -27.5t-32 -27.5t-28 -20.5q-28 -19 -62.5 -29t-68.5 -10 h-209q-34 0 -66.5 10t-54.5 29q-12 9 -27 29t-26 38q-20 -18 -42.5 -38t-37.5 -29q-28 -19 -63.5 -29t-69.5 -10h-219q-35 0 -66 10t-53 29q-9 8 -19.5 21t-20.5 26.5t-19 26.5t-13 22q-11 23 -12.5 50.5zM192 205.5q-1 -8.5 3 -15.5q3 -11 10.5 -24t17 -25t19.5 -21.5 t18 -15.5q8 -5 17 -6.5t20 -1.5h217q11 0 20 1.5t17 6.5q14 7 32 19.5t36 27.5t34 31t25 29q2 3 3 6.5t3 9.5l37 185h-346q-11 0 -21 -2t-18 -7q-14 -7 -31 -19t-34 -26.5t-32 -30t-24 -28.5q-9 -12 -12 -33l-8 -43q-2 -9 -3 -17.5zM852 508h479l27 145q2 13 3 21t-1 14 q-4 12 -11.5 25t-16.5 25.5t-19 22.5t-19 15q-11 8 -34 8h-211q-21 0 -37 -8q-14 -7 -31.5 -19t-35 -26.5t-32.5 -30t-24 -28.5q-9 -9 -12 -25z" />
<glyph unicode="&#xe7;" horiz-adv-x="934" d="M111 0zM112 177.5q-1 27.5 5 58.5l80 409q6 31 17.5 58.5t31.5 50.5q7 8 21 21.5t29.5 28t31.5 27.5t28 21q29 19 65 29t71 10h202q34 0 65.5 -10t51.5 -29q17 -14 31 -32.5t26 -38t21 -39t16 -35.5l-108 -33q-4 13 -12.5 28t-19 29.5t-22 26t-22.5 18.5q-6 5 -15 6.5 t-20 1.5h-205q-22 0 -39 -8q-14 -7 -31 -18.5t-33.5 -25t-31.5 -28.5t-24 -28q-5 -6 -8.5 -15t-6.5 -20l-80 -414q-3 -22 0 -34q4 -12 11.5 -25t17 -25.5t19 -22.5t18.5 -16q13 -8 37 -8h213q22 0 37 8q13 7 31 19.5t35 27.5t31.5 29.5t22.5 26.5l2 4l105 -39 q-12 -17 -29 -36.5t-36.5 -39t-41 -37t-43.5 -30.5q-27 -19 -62 -29t-69 -10h-209q-34 0 -66.5 10t-53.5 29q-9 7 -20 20.5t-21.5 27.5t-18.5 27.5t-12 22.5q-12 23 -13 50.5zM196 -344l222 266l96 -39l-191 -227h-127z" />
<glyph unicode="&#xe8;" horiz-adv-x="969" d="M111 0zM113 177.5q-2 27.5 4 58.5l80 409q6 31 18.5 58.5t32.5 50.5q7 8 21 21.5t29.5 28t31.5 27.5t28 21q29 19 65.5 29t70.5 10h204q34 0 66.5 -10t52.5 -29q9 -8 20 -21t21.5 -27.5t19 -28t13.5 -21.5q20 -45 8 -109l-49 -252h-590l-33 -166q-3 -22 0 -34 q4 -12 12 -25t17.5 -25.5t19.5 -22.5t19 -16q13 -8 35 -8h215q22 0 37 8q13 7 30.5 20t34.5 28t32 30t23 27l107 -37q-19 -25 -40.5 -47.5t-41.5 -41.5t-38 -33t-30 -21q-27 -19 -62 -29t-69 -10h-209q-34 0 -66.5 10t-53.5 29q-9 7 -20 20.5t-21.5 27.5t-18.5 27.5 t-12 22.5q-12 23 -14 50.5zM281 498h477l28 153q4 16 5.5 23.5t-0.5 13.5q-4 12 -12.5 25t-18.5 25.5t-20.5 22.5t-18.5 15q-6 5 -15 6.5t-20 1.5h-207q-20 0 -37 -8q-14 -7 -31 -18.5t-33.5 -26t-31.5 -29.5t-24 -28q-5 -6 -8.5 -15t-6.5 -20zM451 1307h137l129 -228 l-111 -37z" />
<glyph unicode="&#xe9;" horiz-adv-x="969" d="M111 0zM113 177.5q-2 27.5 4 58.5l80 409q6 31 18.5 58.5t32.5 50.5q7 8 21 21.5t29.5 28t31.5 27.5t28 21q29 19 65.5 29t70.5 10h204q34 0 66.5 -10t52.5 -29q9 -8 20 -21t21.5 -27.5t19 -28t13.5 -21.5q20 -45 8 -109l-49 -252h-590l-33 -166q-3 -22 0 -34 q4 -12 12 -25t17.5 -25.5t19.5 -22.5t19 -16q13 -8 35 -8h215q22 0 37 8q13 7 30.5 20t34.5 28t32 30t23 27l107 -37q-19 -25 -40.5 -47.5t-41.5 -41.5t-38 -33t-30 -21q-27 -19 -62 -29t-69 -10h-209q-34 0 -66.5 10t-53.5 29q-9 7 -20 20.5t-21.5 27.5t-18.5 27.5 t-12 22.5q-12 23 -14 50.5zM281 498h477l28 153q4 16 5.5 23.5t-0.5 13.5q-4 12 -12.5 25t-18.5 25.5t-20.5 22.5t-18.5 15q-6 5 -15 6.5t-20 1.5h-207q-20 0 -37 -8q-14 -7 -31 -18.5t-33.5 -26t-31.5 -29.5t-24 -28q-5 -6 -8.5 -15t-6.5 -20zM489 1079l220 228h149 l-262 -265z" />
<glyph unicode="&#xea;" horiz-adv-x="969" d="M111 0zM113 177.5q-2 27.5 4 58.5l80 409q6 31 18.5 58.5t32.5 50.5q7 8 21 21.5t29.5 28t31.5 27.5t28 21q29 19 65.5 29t70.5 10h204q34 0 66.5 -10t52.5 -29q9 -8 20 -21t21.5 -27.5t19 -28t13.5 -21.5q20 -45 8 -109l-49 -252h-590l-33 -166q-3 -22 0 -34 q4 -12 12 -25t17.5 -25.5t19.5 -22.5t19 -16q13 -8 35 -8h215q22 0 37 8q13 7 30.5 20t34.5 28t32 30t23 27l107 -37q-19 -25 -40.5 -47.5t-41.5 -41.5t-38 -33t-30 -21q-27 -19 -62 -29t-69 -10h-209q-34 0 -66.5 10t-53.5 29q-9 7 -20 20.5t-21.5 27.5t-18.5 27.5 t-12 22.5q-12 23 -14 50.5zM281 498h477l28 153q4 16 5.5 23.5t-0.5 13.5q-4 12 -12.5 25t-18.5 25.5t-20.5 22.5t-18.5 15q-6 5 -15 6.5t-20 1.5h-207q-20 0 -37 -8q-14 -7 -31 -18.5t-33.5 -26t-31.5 -29.5t-24 -28q-5 -6 -8.5 -15t-6.5 -20zM387 1065l236 238h112 l146 -238h-131l-84 139l-136 -139h-143z" />
<glyph unicode="&#xeb;" horiz-adv-x="969" d="M113 177.5q-2 27.5 4 58.5l80 409q6 31 18.5 58.5t32.5 50.5q7 8 21 21.5t29.5 28t31.5 27.5t28 21q29 19 65.5 29t70.5 10h204q34 0 66.5 -10t52.5 -29q9 -8 20 -21t21.5 -27.5t19 -28t13.5 -21.5q20 -45 8 -109l-49 -252h-590l-33 -166q-3 -22 0 -34q4 -12 12 -25 t17.5 -25.5t19.5 -22.5t19 -16q13 -8 35 -8h215q22 0 37 8q13 7 30.5 20t34.5 28t32 30t23 27l107 -37q-19 -25 -40.5 -47.5t-41.5 -41.5t-38 -33t-30 -21q-27 -19 -62 -29t-69 -10h-209q-34 0 -66.5 10t-53.5 29q-9 7 -20 20.5t-21.5 27.5t-18.5 27.5t-12 22.5 q-12 23 -14 50.5zM281 498h477l28 153q4 16 5.5 23.5t-0.5 13.5q-4 12 -12.5 25t-18.5 25.5t-20.5 22.5t-18.5 15q-6 5 -15 6.5t-20 1.5h-207q-20 0 -37 -8q-14 -7 -31 -18.5t-33.5 -26t-31.5 -29.5t-24 -28q-5 -6 -8.5 -15t-6.5 -20zM408 1081l30 158h156l-31 -158h-155z M707 1081l30 158h156l-31 -158h-155z" />
<glyph unicode="&#xec;" horiz-adv-x="422" d="M98 0l170 881h113l-170 -881h-113zM98 0zM138 1307h137l129 -228l-111 -37z" />
<glyph unicode="&#xed;" horiz-adv-x="422" d="M98 0l170 881h113l-170 -881h-113zM98 0zM305 1079l220 228h149l-262 -265z" />
<glyph unicode="&#xee;" horiz-adv-x="422" d="M98 0l170 881h113l-170 -881h-113zM98 0zM115 1065l236 238h112l146 -238h-131l-84 139l-136 -139h-143z" />
<glyph unicode="&#xef;" horiz-adv-x="422" d="M98 0l170 881h113l-170 -881h-113zM125 1081l31 158h155l-30 -158h-156zM424 1081l31 158h155l-30 -158h-156z" />
<glyph unicode="&#xf0;" horiz-adv-x="973" d="M124.5 186q-2.5 27 2.5 56l80 401q5 28 18 57t33 52q7 8 22.5 22.5t33.5 29.5t35.5 28.5t29.5 21.5q28 19 61 28t64 9h153q25 0 54.5 -6t46.5 -23t32 -38t29 -44l12 70q7 35 -0.5 56.5t-39.5 39.5l-99 60l-127 -56q-9 22 -15 40q-6 15 -10.5 28t-4.5 14l65 29 q-43 25 -84.5 48t-83.5 48l57 84l222 -127q49 23 91.5 43t92.5 45l39 -82l-125 -61l41 -23q54 -32 79 -78.5t13 -109.5l-119 -606q-9 -58 -47 -105q-8 -8 -24 -23t-34 -31.5t-35.5 -31.5t-29.5 -22q-28 -19 -61 -29t-64 -10h-198q-31 0 -61 10t-52 29q-8 7 -20 22t-24 31.5 t-21.5 31.5t-12.5 23q-12 22 -14.5 49zM236 197q4 -12 11.5 -26t17 -26.5t19.5 -23.5t19 -17q8 -5 17 -6.5t20 -1.5h201q21 0 34 8q14 8 32 21.5t36 29.5t34 32.5t25 29.5q5 6 8.5 15t6.5 20l76 391l-7 16q-7 21 -20.5 40t-29.5 35t-32.5 28t-29.5 20q-3 3 -12.5 4.5 t-18.5 1.5h-149q-24 0 -37 -8q-15 -7 -33.5 -19.5t-36.5 -28.5t-34 -32.5t-25 -31.5q-9 -13 -15 -35l-75 -402q-7 -20 -2 -34z" />
<glyph unicode="&#xf1;" horiz-adv-x="985" d="M96 0l142 735l10 146h110l-4 -99q23 20 43.5 36.5t40.5 29.5q25 15 55 29t56 14h158q34 0 66 -10t52 -29q9 -8 20.5 -21t22.5 -27.5t19.5 -28t13.5 -21.5q21 -48 8 -109l-125 -645h-110l125 655q2 10 3 18.5t-1 14.5q-4 12 -11.5 25t-17.5 25.5t-20 22.5t-19 15 q-11 8 -35 8h-151q-16 0 -31 -6q-14 -7 -38.5 -20.5t-51.5 -31t-52 -37.5t-40 -38l-127 -651h-111zM96 0zM348 1110q18 36 44.5 63t58.5 43.5t67 21t70 -4.5l141 -37q32 -5 62 10.5t44 44.5l109 -26q-18 -36 -44.5 -63.5t-58.5 -44t-67 -20.5t-70 5l-141 37q-16 2 -32 -1 t-30.5 -10.5t-25.5 -18.5t-18 -26z" />
<glyph unicode="&#xf2;" horiz-adv-x="956" d="M111 0zM112 177.5q-1 27.5 5 58.5l80 409q6 31 17.5 58.5t31.5 50.5q7 8 21 21.5t29.5 28t31.5 27.5t28 21q29 19 65 29t71 10h204q34 0 66.5 -10t52.5 -29q9 -8 20 -21t21.5 -27.5t19 -28t13.5 -21.5q20 -45 8 -109l-80 -409q-6 -31 -19 -61t-32 -50q-9 -9 -22.5 -22 t-29 -27t-31.5 -27t-28 -20q-28 -19 -63.5 -29t-69.5 -10h-205q-34 0 -66.5 10t-53.5 29q-9 7 -20 20.5t-21.5 27.5t-18.5 27.5t-12 22.5q-12 23 -13 50.5zM225 188q4 -11 11.5 -23.5t16 -24t18 -21t18.5 -15.5q13 -8 37 -8h204q24 0 37 8q14 7 32 19.5t36 27.5t34 31t25 29 q5 6 8 14t5 19l77 407q2 10 3 19t-1 18q-2 12 -10 25.5t-17.5 25.5t-20.5 22t-19 15q-6 5 -15 6.5t-20 1.5h-205q-22 0 -39 -8q-14 -7 -31 -19t-34 -26.5t-32 -30t-24 -28.5q-5 -6 -8 -15t-6 -20l-80 -414q-3 -21 0 -35zM451 1307h137l129 -228l-111 -37z" />
<glyph unicode="&#xf3;" horiz-adv-x="956" d="M111 0zM112 177.5q-1 27.5 5 58.5l80 409q6 31 17.5 58.5t31.5 50.5q7 8 21 21.5t29.5 28t31.5 27.5t28 21q29 19 65 29t71 10h204q34 0 66.5 -10t52.5 -29q9 -8 20 -21t21.5 -27.5t19 -28t13.5 -21.5q20 -45 8 -109l-80 -409q-6 -31 -19 -61t-32 -50q-9 -9 -22.5 -22 t-29 -27t-31.5 -27t-28 -20q-28 -19 -63.5 -29t-69.5 -10h-205q-34 0 -66.5 10t-53.5 29q-9 7 -20 20.5t-21.5 27.5t-18.5 27.5t-12 22.5q-12 23 -13 50.5zM225 188q4 -11 11.5 -23.5t16 -24t18 -21t18.5 -15.5q13 -8 37 -8h204q24 0 37 8q14 7 32 19.5t36 27.5t34 31t25 29 q5 6 8 14t5 19l77 407q2 10 3 19t-1 18q-2 12 -10 25.5t-17.5 25.5t-20.5 22t-19 15q-6 5 -15 6.5t-20 1.5h-205q-22 0 -39 -8q-14 -7 -31 -19t-34 -26.5t-32 -30t-24 -28.5q-5 -6 -8 -15t-6 -20l-80 -414q-3 -21 0 -35zM489 1079l220 228h149l-262 -265z" />
<glyph unicode="&#xf4;" horiz-adv-x="956" d="M111 0zM112 177.5q-1 27.5 5 58.5l80 409q6 31 17.5 58.5t31.5 50.5q7 8 21 21.5t29.5 28t31.5 27.5t28 21q29 19 65 29t71 10h204q34 0 66.5 -10t52.5 -29q9 -8 20 -21t21.5 -27.5t19 -28t13.5 -21.5q20 -45 8 -109l-80 -409q-6 -31 -19 -61t-32 -50q-9 -9 -22.5 -22 t-29 -27t-31.5 -27t-28 -20q-28 -19 -63.5 -29t-69.5 -10h-205q-34 0 -66.5 10t-53.5 29q-9 7 -20 20.5t-21.5 27.5t-18.5 27.5t-12 22.5q-12 23 -13 50.5zM225 188q4 -11 11.5 -23.5t16 -24t18 -21t18.5 -15.5q13 -8 37 -8h204q24 0 37 8q14 7 32 19.5t36 27.5t34 31t25 29 q5 6 8 14t5 19l77 407q2 10 3 19t-1 18q-2 12 -10 25.5t-17.5 25.5t-20.5 22t-19 15q-6 5 -15 6.5t-20 1.5h-205q-22 0 -39 -8q-14 -7 -31 -19t-34 -26.5t-32 -30t-24 -28.5q-5 -6 -8 -15t-6 -20l-80 -414q-3 -21 0 -35zM387 1065l236 238h112l146 -238h-131l-84 139 l-136 -139h-143z" />
<glyph unicode="&#xf5;" horiz-adv-x="956" d="M111 0zM112 177.5q-1 27.5 5 58.5l80 409q6 31 17.5 58.5t31.5 50.5q7 8 21 21.5t29.5 28t31.5 27.5t28 21q29 19 65 29t71 10h204q34 0 66.5 -10t52.5 -29q9 -8 20 -21t21.5 -27.5t19 -28t13.5 -21.5q20 -45 8 -109l-80 -409q-6 -31 -19 -61t-32 -50q-9 -9 -22.5 -22 t-29 -27t-31.5 -27t-28 -20q-28 -19 -63.5 -29t-69.5 -10h-205q-34 0 -66.5 10t-53.5 29q-9 7 -20 20.5t-21.5 27.5t-18.5 27.5t-12 22.5q-12 23 -13 50.5zM225 188q4 -11 11.5 -23.5t16 -24t18 -21t18.5 -15.5q13 -8 37 -8h204q24 0 37 8q14 7 32 19.5t36 27.5t34 31t25 29 q5 6 8 14t5 19l77 407q2 10 3 19t-1 18q-2 12 -10 25.5t-17.5 25.5t-20.5 22t-19 15q-6 5 -15 6.5t-20 1.5h-205q-22 0 -39 -8q-14 -7 -31 -19t-34 -26.5t-32 -30t-24 -28.5q-5 -6 -8 -15t-6 -20l-80 -414q-3 -21 0 -35zM332 1110q18 36 44.5 63t58.5 43.5t67 21t70 -4.5 l141 -37q32 -5 62 10.5t44 44.5l109 -26q-18 -36 -44.5 -63.5t-58.5 -44t-67 -20.5t-70 5l-141 37q-16 2 -32 -1t-30.5 -10.5t-25.5 -18.5t-18 -26z" />
<glyph unicode="&#xf6;" horiz-adv-x="956" d="M112 177.5q-1 27.5 5 58.5l80 409q6 31 17.5 58.5t31.5 50.5q7 8 21 21.5t29.5 28t31.5 27.5t28 21q29 19 65 29t71 10h204q34 0 66.5 -10t52.5 -29q9 -8 20 -21t21.5 -27.5t19 -28t13.5 -21.5q20 -45 8 -109l-80 -409q-6 -31 -19 -61t-32 -50q-9 -9 -22.5 -22t-29 -27 t-31.5 -27t-28 -20q-28 -19 -63.5 -29t-69.5 -10h-205q-34 0 -66.5 10t-53.5 29q-9 7 -20 20.5t-21.5 27.5t-18.5 27.5t-12 22.5q-12 23 -13 50.5zM225 188q4 -11 11.5 -23.5t16 -24t18 -21t18.5 -15.5q13 -8 37 -8h204q24 0 37 8q14 7 32 19.5t36 27.5t34 31t25 29 q5 6 8 14t5 19l77 407q2 10 3 19t-1 18q-2 12 -10 25.5t-17.5 25.5t-20.5 22t-19 15q-6 5 -15 6.5t-20 1.5h-205q-22 0 -39 -8q-14 -7 -31 -19t-34 -26.5t-32 -30t-24 -28.5q-5 -6 -8 -15t-6 -20l-80 -414q-3 -21 0 -35zM395 1081l31 158h156l-31 -158h-156zM694 1081 l31 158h156l-31 -158h-156z" />
<glyph unicode="&#xf7;" horiz-adv-x="932" d="M170 455l20 106h666l-20 -106h-666zM362 139l31 160h160l-31 -160h-160zM475 725l31 160h160l-31 -160h-160z" />
<glyph unicode="&#xf8;" horiz-adv-x="967" d="M112 177.5q-1 27.5 5 58.5l80 409q6 31 17.5 58.5t31.5 50.5q7 8 21 21.5t29.5 28t31.5 27.5t28 21q29 19 65 29t71 10h204q25 0 49 -6l31 45h111l-60 -90q9 -9 18 -21.5t17.5 -24.5t15.5 -22.5t11 -17.5q20 -45 8 -109l-80 -409q-6 -31 -19 -61t-32 -50q-9 -9 -22.5 -22 t-29 -27t-31.5 -27t-28 -20q-28 -19 -63.5 -29t-69.5 -10h-205q-24 0 -49 6l-28 -45h-113l57 88q-8 9 -17.5 21t-17.5 24t-14.5 23.5t-9.5 19.5q-12 23 -13 50.5zM225 188q3 -12 10.5 -24t16.5 -25l428 645h-201q-22 0 -39 -8q-14 -7 -31 -19t-34 -26.5t-32 -30t-24 -28.5 q-5 -6 -8 -15t-6 -20l-80 -414q-3 -21 0 -35zM334 96h196q24 0 37 8q14 7 32 19.5t36 27.5t34 31t25 29q5 6 8 14t5 19l77 407q2 10 3 19t-1 18q-6 26 -26 49z" />
<glyph unicode="&#xf9;" horiz-adv-x="971" d="M113 0zM114 177.5q-1 27.5 5 58.5l125 645h110l-125 -654q-2 -11 -3 -19.5t1 -14.5q4 -12 11.5 -25t17 -25.5t19 -22.5t18.5 -16q13 -8 37 -8h153q17 0 29 6q15 7 39.5 21t51 31.5t51.5 37t40 37.5l127 652h111l-144 -736l-8 -145h-110l2 100q-22 -20 -46 -37.5 t-42 -29.5q-25 -16 -55 -29.5t-56 -13.5h-154q-34 0 -66.5 10t-53.5 29q-9 7 -20 20.5t-21.5 27.5t-18.5 27.5t-12 22.5q-12 23 -13 50.5zM451 1307h137l129 -228l-111 -37z" />
<glyph unicode="&#xfa;" horiz-adv-x="971" d="M113 0zM114 177.5q-1 27.5 5 58.5l125 645h110l-125 -654q-2 -11 -3 -19.5t1 -14.5q4 -12 11.5 -25t17 -25.5t19 -22.5t18.5 -16q13 -8 37 -8h153q17 0 29 6q15 7 39.5 21t51 31.5t51.5 37t40 37.5l127 652h111l-144 -736l-8 -145h-110l2 100q-22 -20 -46 -37.5 t-42 -29.5q-25 -16 -55 -29.5t-56 -13.5h-154q-34 0 -66.5 10t-53.5 29q-9 7 -20 20.5t-21.5 27.5t-18.5 27.5t-12 22.5q-12 23 -13 50.5zM489 1079l220 228h149l-262 -265z" />
<glyph unicode="&#xfb;" horiz-adv-x="971" d="M113 0zM114 177.5q-1 27.5 5 58.5l125 645h110l-125 -654q-2 -11 -3 -19.5t1 -14.5q4 -12 11.5 -25t17 -25.5t19 -22.5t18.5 -16q13 -8 37 -8h153q17 0 29 6q15 7 39.5 21t51 31.5t51.5 37t40 37.5l127 652h111l-144 -736l-8 -145h-110l2 100q-22 -20 -46 -37.5 t-42 -29.5q-25 -16 -55 -29.5t-56 -13.5h-154q-34 0 -66.5 10t-53.5 29q-9 7 -20 20.5t-21.5 27.5t-18.5 27.5t-12 22.5q-12 23 -13 50.5zM387 1065l236 238h112l146 -238h-131l-84 139l-136 -139h-143z" />
<glyph unicode="&#xfc;" horiz-adv-x="971" d="M114 177.5q-1 27.5 5 58.5l125 645h110l-125 -654q-2 -11 -3 -19.5t1 -14.5q4 -12 11.5 -25t17 -25.5t19 -22.5t18.5 -16q13 -8 37 -8h153q17 0 29 6q15 7 39.5 21t51 31.5t51.5 37t40 37.5l127 652h111l-144 -736l-8 -145h-110l2 100q-22 -20 -46 -37.5t-42 -29.5 q-25 -16 -55 -29.5t-56 -13.5h-154q-34 0 -66.5 10t-53.5 29q-9 7 -20 20.5t-21.5 27.5t-18.5 27.5t-12 22.5q-12 23 -13 50.5zM414 1081l30 158h156l-31 -158h-155zM713 1081l30 158h156l-31 -158h-155z" />
<glyph unicode="&#xfd;" horiz-adv-x="860" d="M156 0zM156 -344l184 344h-43l-117 881h115l92 -768h12l392 768h122l-637 -1225h-120zM489 1079l220 228h149l-262 -265z" />
<glyph unicode="&#xfe;" horiz-adv-x="989" d="M27 -344l305 1573h110l-88 -453q25 22 49 40t46 32q24 15 54 29t56 14h160q34 0 65.5 -10t51.5 -29q9 -8 20 -21t21 -27.5t18.5 -28t13.5 -21.5q23 -48 11 -109l-80 -409q-13 -61 -52 -109q-8 -9 -22 -22.5t-30 -27.5t-32 -27.5t-28 -20.5q-28 -19 -62.5 -29t-68.5 -10 h-160q-26 0 -51 13.5t-43 29.5q-17 14 -33.5 33t-32.5 40l-88 -450h-110zM250 231q0 -6 2 -10q7 -19 23 -37.5t34.5 -34t37 -28t30.5 -19.5q12 -6 29 -6h149q11 0 20 1.5t17 6.5q14 7 31.5 20t35.5 28.5t33.5 31.5t24.5 29q9 12 12 35l80 405q6 21 2 35q-4 12 -11.5 25 t-17.5 25.5t-20 22.5t-19 15q-11 8 -34 8h-164q-16 0 -31 -6q-14 -7 -38.5 -21.5t-50.5 -32.5t-50.5 -38.5t-38.5 -38.5q-4 -4 -8 -12z" />
<glyph unicode="&#xff;" horiz-adv-x="860" d="M156 -344l184 344h-43l-117 881h115l92 -768h12l392 768h122l-637 -1225h-120zM358 1081l31 158h156l-31 -158h-156zM657 1081l31 158h156l-31 -158h-156z" />
<glyph unicode="&#x100;" horiz-adv-x="1100" d="M-6 0l649 1229h184l174 -1229h-118l-37 285h-572l-149 -285h-131zM0 0zM332 399h497l-96 713h-28zM493 1424l21 102h520l-20 -102h-521z" />
<glyph unicode="&#x101;" d="M80 0zM81.5 175.5q-1.5 27.5 4.5 57.5l8 41q12 62 51 109q8 9 21.5 22t29 26.5t31 26.5t27.5 21q28 19 63 29t70 10h354l29 141q2 13 2 20.5v12.5q-8 22 -27.5 47t-39.5 37q-12 8 -35 8h-201q-21 0 -37 -8q-14 -7 -29.5 -18.5t-31 -26t-30 -29.5t-26.5 -28l-106 35 q6 8 15.5 20.5t23.5 26.5q9 10 23 23t29.5 27t31 26.5t28.5 21.5q28 19 61 28t68 9h189q35 0 67 -10t52 -29q10 -7 21.5 -19.5t21 -27t17.5 -28t13 -21.5q13 -23 14 -51.5t-5 -59.5l-99 -500v-145h-108l-4 102q-22 -20 -49 -38.5t-46 -30.5q-27 -17 -54.5 -30t-53.5 -13 h-180q-35 0 -66 10t-53 29q-9 8 -19.5 21t-20.5 26.5t-19 26.5t-13 22q-11 23 -12.5 50.5zM194.5 200q1.5 -8 4.5 -16q8 -23 27 -46t36 -34q8 -5 17 -6.5t20 -1.5h180q17 0 29 6q14 6 38 19.5t50 31t50 37t38 37.5l37 187h-344q-23 0 -39 -8q-14 -7 -30.5 -18.5t-32.5 -25 t-30.5 -28t-23.5 -27.5q-5 -6 -8 -13t-6 -20l-12 -57q-2 -9 -0.5 -17zM374 1137l21 102h520l-20 -102h-521z" />
<glyph unicode="&#x102;" horiz-adv-x="1100" d="M-6 0l649 1229h184l174 -1229h-118l-37 285h-572l-149 -285h-131zM0 0zM332 399h497l-96 713h-28zM596 1464q-8 35 0 76h72q-5 -24 0 -45t17.5 -36.5t31.5 -25t43 -9.5t47 9.5t42.5 25t33 36.5t18.5 45h84q-8 -41 -30 -76t-53.5 -61.5t-70.5 -41.5t-79 -15 q-41 0 -73.5 15t-53.5 41.5t-29 61.5z" />
<glyph unicode="&#x103;" d="M80 0zM81.5 175.5q-1.5 27.5 4.5 57.5l8 41q12 62 51 109q8 9 21.5 22t29 26.5t31 26.5t27.5 21q28 19 63 29t70 10h354l29 141q2 13 2 20.5v12.5q-8 22 -27.5 47t-39.5 37q-12 8 -35 8h-201q-21 0 -37 -8q-14 -7 -29.5 -18.5t-31 -26t-30 -29.5t-26.5 -28l-106 35 q6 8 15.5 20.5t23.5 26.5q9 10 23 23t29.5 27t31 26.5t28.5 21.5q28 19 61 28t68 9h189q35 0 67 -10t52 -29q10 -7 21.5 -19.5t21 -27t17.5 -28t13 -21.5q13 -23 14 -51.5t-5 -59.5l-99 -500v-145h-108l-4 102q-22 -20 -49 -38.5t-46 -30.5q-27 -17 -54.5 -30t-53.5 -13 h-180q-35 0 -66 10t-53 29q-9 8 -19.5 21t-20.5 26.5t-19 26.5t-13 22q-11 23 -12.5 50.5zM194.5 200q1.5 -8 4.5 -16q8 -23 27 -46t36 -34q8 -5 17 -6.5t20 -1.5h180q17 0 29 6q14 6 38 19.5t50 31t50 37t38 37.5l37 187h-344q-23 0 -39 -8q-14 -7 -30.5 -18.5t-32.5 -25 t-30.5 -28t-23.5 -27.5q-5 -6 -8 -13t-6 -20l-12 -57q-2 -9 -0.5 -17zM461 1177q-8 35 0 76h72q-5 -24 0 -45t17.5 -36.5t31.5 -25t43 -9.5t47 9.5t42.5 25t33 36.5t18.5 45h84q-8 -41 -30 -76t-53.5 -61.5t-70.5 -41.5t-79 -15q-41 0 -73.5 15t-53.5 41.5t-29 61.5z" />
<glyph unicode="&#x104;" horiz-adv-x="1100" d="M-6 0l649 1229h184l174 -1229h-118l-37 285h-572l-149 -285h-131zM0 0zM332 399h497l-96 713h-28zM781 -117l94 39l119 -266h-109z" />
<glyph unicode="&#x105;" d="M80 0zM81.5 175.5q-1.5 27.5 4.5 57.5l8 41q12 62 51 109q8 9 21.5 22t29 26.5t31 26.5t27.5 21q28 19 63 29t70 10h354l29 141q2 13 2 20.5v12.5q-8 22 -27.5 47t-39.5 37q-12 8 -35 8h-201q-21 0 -37 -8q-14 -7 -29.5 -18.5t-31 -26t-30 -29.5t-26.5 -28l-106 35 q6 8 15.5 20.5t23.5 26.5q9 10 23 23t29.5 27t31 26.5t28.5 21.5q28 19 61 28t68 9h189q35 0 67 -10t52 -29q10 -7 21.5 -19.5t21 -27t17.5 -28t13 -21.5q13 -23 14 -51.5t-5 -59.5l-99 -500v-145h-108l-4 102q-22 -20 -49 -38.5t-46 -30.5q-27 -17 -54.5 -30t-53.5 -13 h-180q-35 0 -66 10t-53 29q-9 8 -19.5 21t-20.5 26.5t-19 26.5t-13 22q-11 23 -12.5 50.5zM194.5 200q1.5 -8 4.5 -16q8 -23 27 -46t36 -34q8 -5 17 -6.5t20 -1.5h180q17 0 29 6q14 6 38 19.5t50 31t50 37t38 37.5l37 187h-344q-23 0 -39 -8q-14 -7 -30.5 -18.5t-32.5 -25 t-30.5 -28t-23.5 -27.5q-5 -6 -8 -13t-6 -20l-12 -57q-2 -9 -0.5 -17zM576 -117l94 39l119 -266h-109z" />
<glyph unicode="&#x106;" horiz-adv-x="1069" d="M136 211q-2 25 3 51l137 701q5 26 16 51t30 47q10 13 32 34t47 42.5t49 40t39 26.5q25 14 55.5 23.5t55.5 9.5h272q25 0 52.5 -9.5t46.5 -23.5q14 -10 28.5 -26t28 -34t25.5 -36t20 -33t17 -36.5t14 -43.5l-119 -32q-5 21 -17.5 44.5t-28.5 45t-33 38.5t-32 25 q-3 3 -10.5 4.5t-15.5 1.5h-250q-16 0 -29 -6t-34.5 -20.5t-44.5 -33.5t-45 -39t-35 -38q-10 -11 -13 -29l-135 -704q-3 -15 0 -27q6 -16 18.5 -34t26 -34.5t26.5 -29t21 -16.5q8 -7 25 -7h260q8 0 17 1.5t14 5.5q18 8 41 25.5t46.5 39t45.5 44.5t37 44l114 -33 q-12 -21 -29.5 -42.5t-31.5 -36.5t-33 -33t-39.5 -36t-41 -34t-38.5 -26q-24 -14 -54.5 -23.5t-55.5 -9.5h-271q-24 0 -52.5 9.5t-47.5 23.5q-12 8 -29 26.5t-33.5 39.5t-30.5 41.5t-20 33.5q-9 22 -11 47zM637 1366l219 227h143l-260 -264z" />
<glyph unicode="&#x107;" horiz-adv-x="934" d="M111 0zM112 177.5q-1 27.5 5 58.5l80 409q6 31 17.5 58.5t31.5 50.5q7 8 21 21.5t29.5 28t31.5 27.5t28 21q29 19 65 29t71 10h202q34 0 65.5 -10t51.5 -29q17 -14 31 -32.5t26 -38t21 -39t16 -35.5l-108 -33q-4 13 -12.5 28t-19 29.5t-22 26t-22.5 18.5q-6 5 -15 6.5 t-20 1.5h-205q-22 0 -39 -8q-14 -7 -31 -18.5t-33.5 -25t-31.5 -28.5t-24 -28q-5 -6 -8.5 -15t-6.5 -20l-80 -414q-3 -22 0 -34q4 -12 11.5 -25t17 -25.5t19 -22.5t18.5 -16q13 -8 37 -8h213q22 0 37 8q13 7 31 19.5t35 27.5t31.5 29.5t22.5 26.5l2 4l105 -39 q-12 -17 -29 -36.5t-36.5 -39t-41 -37t-43.5 -30.5q-27 -19 -62 -29t-69 -10h-209q-34 0 -66.5 10t-53.5 29q-9 7 -20 20.5t-21.5 27.5t-18.5 27.5t-12 22.5q-12 23 -13 50.5zM489 1079l220 228h149l-262 -265z" />
<glyph unicode="&#x108;" horiz-adv-x="1069" d="M134 0zM136 211q-2 25 3 51l137 701q5 26 16 51t30 47q10 13 32 34t47 42.5t49 40t39 26.5q25 14 55.5 23.5t55.5 9.5h272q25 0 52.5 -9.5t46.5 -23.5q14 -10 28.5 -26t28 -34t25.5 -36t20 -33t17 -36.5t14 -43.5l-119 -32q-5 21 -17.5 44.5t-28.5 45t-33 38.5t-32 25 q-3 3 -10.5 4.5t-15.5 1.5h-250q-16 0 -29 -6t-34.5 -20.5t-44.5 -33.5t-45 -39t-35 -38q-10 -11 -13 -29l-135 -704q-3 -15 0 -27q6 -16 18.5 -34t26 -34.5t26.5 -29t21 -16.5q8 -7 25 -7h260q8 0 17 1.5t14 5.5q18 8 41 25.5t46.5 39t45.5 44.5t37 44l114 -33 q-12 -21 -29.5 -42.5t-31.5 -36.5t-33 -33t-39.5 -36t-41 -34t-38.5 -26q-24 -14 -54.5 -23.5t-55.5 -9.5h-271q-24 0 -52.5 9.5t-47.5 23.5q-12 8 -29 26.5t-33.5 39.5t-30.5 41.5t-20 33.5q-9 22 -11 47zM504 1352l236 238h112l146 -238h-131l-84 139l-136 -139h-143z" />
<glyph unicode="&#x109;" horiz-adv-x="934" d="M111 0zM112 177.5q-1 27.5 5 58.5l80 409q6 31 17.5 58.5t31.5 50.5q7 8 21 21.5t29.5 28t31.5 27.5t28 21q29 19 65 29t71 10h202q34 0 65.5 -10t51.5 -29q17 -14 31 -32.5t26 -38t21 -39t16 -35.5l-108 -33q-4 13 -12.5 28t-19 29.5t-22 26t-22.5 18.5q-6 5 -15 6.5 t-20 1.5h-205q-22 0 -39 -8q-14 -7 -31 -18.5t-33.5 -25t-31.5 -28.5t-24 -28q-5 -6 -8.5 -15t-6.5 -20l-80 -414q-3 -22 0 -34q4 -12 11.5 -25t17 -25.5t19 -22.5t18.5 -16q13 -8 37 -8h213q22 0 37 8q13 7 31 19.5t35 27.5t31.5 29.5t22.5 26.5l2 4l105 -39 q-12 -17 -29 -36.5t-36.5 -39t-41 -37t-43.5 -30.5q-27 -19 -62 -29t-69 -10h-209q-34 0 -66.5 10t-53.5 29q-9 7 -20 20.5t-21.5 27.5t-18.5 27.5t-12 22.5q-12 23 -13 50.5zM387 1065l236 238h112l146 -238h-131l-84 139l-136 -139h-143z" />
<glyph unicode="&#x10a;" horiz-adv-x="1069" d="M136 211q-2 25 3 51l137 701q5 26 16 51t30 47q10 13 32 34t47 42.5t49 40t39 26.5q25 14 55.5 23.5t55.5 9.5h272q25 0 52.5 -9.5t46.5 -23.5q14 -10 28.5 -26t28 -34t25.5 -36t20 -33t17 -36.5t14 -43.5l-119 -32q-5 21 -17.5 44.5t-28.5 45t-33 38.5t-32 25 q-3 3 -10.5 4.5t-15.5 1.5h-250q-16 0 -29 -6t-34.5 -20.5t-44.5 -33.5t-45 -39t-35 -38q-10 -11 -13 -29l-135 -704q-3 -15 0 -27q6 -16 18.5 -34t26 -34.5t26.5 -29t21 -16.5q8 -7 25 -7h260q8 0 17 1.5t14 5.5q18 8 41 25.5t46.5 39t45.5 44.5t37 44l114 -33 q-12 -21 -29.5 -42.5t-31.5 -36.5t-33 -33t-39.5 -36t-41 -34t-38.5 -26q-24 -14 -54.5 -23.5t-55.5 -9.5h-271q-24 0 -52.5 9.5t-47.5 23.5q-12 8 -29 26.5t-33.5 39.5t-30.5 41.5t-20 33.5q-9 22 -11 47zM694 1368l31 158h156l-31 -158h-156z" />
<glyph unicode="&#x10b;" horiz-adv-x="934" d="M112 177.5q-1 27.5 5 58.5l80 409q6 31 17.5 58.5t31.5 50.5q7 8 21 21.5t29.5 28t31.5 27.5t28 21q29 19 65 29t71 10h202q34 0 65.5 -10t51.5 -29q17 -14 31 -32.5t26 -38t21 -39t16 -35.5l-108 -33q-4 13 -12.5 28t-19 29.5t-22 26t-22.5 18.5q-6 5 -15 6.5t-20 1.5 h-205q-22 0 -39 -8q-14 -7 -31 -18.5t-33.5 -25t-31.5 -28.5t-24 -28q-5 -6 -8.5 -15t-6.5 -20l-80 -414q-3 -22 0 -34q4 -12 11.5 -25t17 -25.5t19 -22.5t18.5 -16q13 -8 37 -8h213q22 0 37 8q13 7 31 19.5t35 27.5t31.5 29.5t22.5 26.5l2 4l105 -39q-12 -17 -29 -36.5 t-36.5 -39t-41 -37t-43.5 -30.5q-27 -19 -62 -29t-69 -10h-209q-34 0 -66.5 10t-53.5 29q-9 7 -20 20.5t-21.5 27.5t-18.5 27.5t-12 22.5q-12 23 -13 50.5zM578 1081l30 158h156l-31 -158h-155z" />
<glyph unicode="&#x10c;" horiz-adv-x="1069" d="M134 0zM136 211q-2 25 3 51l137 701q5 26 16 51t30 47q10 13 32 34t47 42.5t49 40t39 26.5q25 14 55.5 23.5t55.5 9.5h272q25 0 52.5 -9.5t46.5 -23.5q14 -10 28.5 -26t28 -34t25.5 -36t20 -33t17 -36.5t14 -43.5l-119 -32q-5 21 -17.5 44.5t-28.5 45t-33 38.5t-32 25 q-3 3 -10.5 4.5t-15.5 1.5h-250q-16 0 -29 -6t-34.5 -20.5t-44.5 -33.5t-45 -39t-35 -38q-10 -11 -13 -29l-135 -704q-3 -15 0 -27q6 -16 18.5 -34t26 -34.5t26.5 -29t21 -16.5q8 -7 25 -7h260q8 0 17 1.5t14 5.5q18 8 41 25.5t46.5 39t45.5 44.5t37 44l114 -33 q-12 -21 -29.5 -42.5t-31.5 -36.5t-33 -33t-39.5 -36t-41 -34t-38.5 -26q-24 -14 -54.5 -23.5t-55.5 -9.5h-271q-24 0 -52.5 9.5t-47.5 23.5q-12 8 -29 26.5t-33.5 39.5t-30.5 41.5t-20 33.5q-9 22 -11 47zM559 1590h129l84 -136l135 136h146l-236 -238h-112z" />
<glyph unicode="&#x10d;" horiz-adv-x="934" d="M111 0zM112 177.5q-1 27.5 5 58.5l80 409q6 31 17.5 58.5t31.5 50.5q7 8 21 21.5t29.5 28t31.5 27.5t28 21q29 19 65 29t71 10h202q34 0 65.5 -10t51.5 -29q17 -14 31 -32.5t26 -38t21 -39t16 -35.5l-108 -33q-4 13 -12.5 28t-19 29.5t-22 26t-22.5 18.5q-6 5 -15 6.5 t-20 1.5h-205q-22 0 -39 -8q-14 -7 -31 -18.5t-33.5 -25t-31.5 -28.5t-24 -28q-5 -6 -8.5 -15t-6.5 -20l-80 -414q-3 -22 0 -34q4 -12 11.5 -25t17 -25.5t19 -22.5t18.5 -16q13 -8 37 -8h213q22 0 37 8q13 7 31 19.5t35 27.5t31.5 29.5t22.5 26.5l2 4l105 -39 q-12 -17 -29 -36.5t-36.5 -39t-41 -37t-43.5 -30.5q-27 -19 -62 -29t-69 -10h-209q-34 0 -66.5 10t-53.5 29q-9 7 -20 20.5t-21.5 27.5t-18.5 27.5t-12 22.5q-12 23 -13 50.5zM436 1303h129l84 -136l135 136h146l-236 -238h-112z" />
<glyph unicode="&#x10e;" horiz-adv-x="1114" d="M100 0l238 1229h541q24 0 51.5 -8.5t46.5 -22.5q12 -8 29 -27t33 -41t29.5 -43t18.5 -34q11 -22 11.5 -47.5t-4.5 -51.5l-133 -682q-5 -26 -15 -51t-28 -47q-11 -13 -32.5 -33.5t-46 -41.5t-48.5 -39.5t-39 -26.5q-25 -14 -55.5 -23.5t-55.5 -9.5h-541zM100 0zM242 115 h399q8 0 16 1.5t13 4.5q14 6 35.5 20.5t45 33.5t44.5 39t34 38q10 12 13 27l135 690q3 17 0 30q-6 16 -18 33.5t-25.5 32.5t-27 26.5t-21.5 16.5q-5 3 -12 4.5t-15 1.5h-422zM522 1590h129l84 -136l135 136h146l-236 -238h-112z" />
<glyph unicode="&#x10f;" horiz-adv-x="1061" d="M113 177.5q-2 27.5 4 58.5l80 409q12 64 51 109q7 8 21 21t30 27.5t32 27.5t27 22q29 19 63.5 29t70.5 10h159q26 0 50 -13t44 -30q16 -14 32.5 -32.5t33.5 -41.5l88 455h111l-213 -1084l-9 -145h-110l4 109q-25 -23 -49.5 -42.5t-44.5 -33.5q-28 -17 -56.5 -30 t-54.5 -13h-160q-35 0 -66 10t-52 29q-9 8 -19.5 21t-21 27.5t-19 27.5t-12.5 22q-12 23 -14 50.5zM227 199q4 -12 12 -26t17.5 -27.5t19.5 -24.5t19 -17q13 -8 37 -8h153q17 0 29 6q14 6 39.5 20t53.5 32t53.5 38.5t39.5 38.5l3 3l2 4l2 4l79 407q0 2 -0.5 3.5t-0.5 3.5 q-1 2 -1 3q-7 19 -23 37.5t-34.5 34.5t-37 28.5t-30.5 18.5q-9 6 -26 6h-154q-22 0 -39 -8q-14 -7 -31 -19t-34 -26.5t-32 -30t-24 -28.5q-5 -6 -8 -15t-6 -20l-78 -404q-3 -22 0 -34zM1098 1022l182 305h123l-207 -344z" />
<glyph unicode="&#x110;" horiz-adv-x="1176" d="M90 0zM90 557l23 115h178l108 557h541q25 0 52.5 -8.5t45.5 -22.5q12 -8 29 -27t33.5 -41t30 -43t18.5 -34q11 -22 11 -47.5t-5 -51.5l-133 -682q-5 -26 -14.5 -51t-28.5 -47q-11 -13 -32.5 -33.5t-46 -41.5t-48.5 -39.5t-39 -26.5q-25 -14 -55.5 -23.5t-55.5 -9.5h-540 l106 557h-178zM303 115h399q8 0 16 1.5t13 4.5q14 6 35.5 20.5t45 33.5t45 39t34.5 38q9 12 12 27l135 690q3 17 0 30q-6 16 -18 33.5t-25.5 32.5t-26.5 26.5t-22 16.5q-9 6 -26 6h-422l-86 -442h280l-22 -115h-281z" />
<glyph unicode="&#x111;" horiz-adv-x="979" d="M113 177.5q-2 27.5 4 58.5l80 409q12 64 51 109q7 8 21 21t30 27.5t32 27.5t27 22q29 19 63.5 29t70.5 10h159q26 0 50 -13t44 -30q16 -14 32.5 -32.5t33.5 -41.5l45 236h-264l22 108h263l22 111h111l-23 -111h113l-23 -108h-110l-170 -865l-9 -145h-110l4 109 q-25 -23 -49.5 -42.5t-44.5 -33.5q-28 -17 -56.5 -30t-54.5 -13h-160q-35 0 -66 10t-52 29q-9 8 -19.5 21t-21 27.5t-19 27.5t-12.5 22q-12 23 -14 50.5zM227 199q4 -12 12 -26t17.5 -27.5t19.5 -24.5t19 -17q13 -8 37 -8h153q17 0 29 6q14 6 39.5 20t53.5 32t53.5 38.5 t39.5 38.5l3 3l2 4l2 4l79 407q0 2 -0.5 3.5t-0.5 3.5q-1 2 -1 3q-7 19 -23 37.5t-34.5 34.5t-37 28.5t-30.5 18.5q-9 6 -26 6h-154q-22 0 -39 -8q-14 -7 -31 -19t-34 -26.5t-32 -30t-24 -28.5q-5 -6 -8 -15t-6 -20l-78 -404q-3 -22 0 -34z" />
<glyph unicode="&#x112;" horiz-adv-x="1020" d="M100 0l238 1229h704l-22 -115h-582l-86 -442h551l-22 -115h-551l-86 -442h581l-20 -115h-705zM100 0zM450 1424l21 102h520l-20 -102h-521z" />
<glyph unicode="&#x113;" horiz-adv-x="969" d="M111 0zM113 177.5q-2 27.5 4 58.5l80 409q6 31 18.5 58.5t32.5 50.5q7 8 21 21.5t29.5 28t31.5 27.5t28 21q29 19 65.5 29t70.5 10h204q34 0 66.5 -10t52.5 -29q9 -8 20 -21t21.5 -27.5t19 -28t13.5 -21.5q20 -45 8 -109l-49 -252h-590l-33 -166q-3 -22 0 -34 q4 -12 12 -25t17.5 -25.5t19.5 -22.5t19 -16q13 -8 35 -8h215q22 0 37 8q13 7 30.5 20t34.5 28t32 30t23 27l107 -37q-19 -25 -40.5 -47.5t-41.5 -41.5t-38 -33t-30 -21q-27 -19 -62 -29t-69 -10h-209q-34 0 -66.5 10t-53.5 29q-9 7 -20 20.5t-21.5 27.5t-18.5 27.5 t-12 22.5q-12 23 -14 50.5zM281 498h477l28 153q4 16 5.5 23.5t-0.5 13.5q-4 12 -12.5 25t-18.5 25.5t-20.5 22.5t-18.5 15q-6 5 -15 6.5t-20 1.5h-207q-20 0 -37 -8q-14 -7 -31 -18.5t-33.5 -26t-31.5 -29.5t-24 -28q-5 -6 -8.5 -15t-6.5 -20zM389 1137l21 102h520 l-20 -102h-521z" />
<glyph unicode="&#x114;" horiz-adv-x="1020" d="M100 0l238 1229h704l-22 -115h-582l-86 -442h551l-22 -115h-551l-86 -442h581l-20 -115h-705zM100 0zM561 1464q-8 35 0 76h72q-5 -24 0 -45t17.5 -36.5t31.5 -25t43 -9.5t47 9.5t42.5 25t33 36.5t18.5 45h84q-8 -41 -30 -76t-53.5 -61.5t-70.5 -41.5t-79 -15 q-41 0 -73.5 15t-53.5 41.5t-29 61.5z" />
<glyph unicode="&#x115;" horiz-adv-x="969" d="M111 0zM113 177.5q-2 27.5 4 58.5l80 409q6 31 18.5 58.5t32.5 50.5q7 8 21 21.5t29.5 28t31.5 27.5t28 21q29 19 65.5 29t70.5 10h204q34 0 66.5 -10t52.5 -29q9 -8 20 -21t21.5 -27.5t19 -28t13.5 -21.5q20 -45 8 -109l-49 -252h-590l-33 -166q-3 -22 0 -34 q4 -12 12 -25t17.5 -25.5t19.5 -22.5t19 -16q13 -8 35 -8h215q22 0 37 8q13 7 30.5 20t34.5 28t32 30t23 27l107 -37q-19 -25 -40.5 -47.5t-41.5 -41.5t-38 -33t-30 -21q-27 -19 -62 -29t-69 -10h-209q-34 0 -66.5 10t-53.5 29q-9 7 -20 20.5t-21.5 27.5t-18.5 27.5 t-12 22.5q-12 23 -14 50.5zM281 498h477l28 153q4 16 5.5 23.5t-0.5 13.5q-4 12 -12.5 25t-18.5 25.5t-20.5 22.5t-18.5 15q-6 5 -15 6.5t-20 1.5h-207q-20 0 -37 -8q-14 -7 -31 -18.5t-33.5 -26t-31.5 -29.5t-24 -28q-5 -6 -8.5 -15t-6.5 -20zM479 1177q-8 35 0 76h72 q-5 -24 0 -45t17.5 -36.5t31.5 -25t43 -9.5t47 9.5t42.5 25t33 36.5t18.5 45h84q-8 -41 -30 -76t-53.5 -61.5t-70.5 -41.5t-79 -15q-41 0 -73.5 15t-53.5 41.5t-29 61.5z" />
<glyph unicode="&#x116;" horiz-adv-x="1020" d="M100 0l238 1229h704l-22 -115h-582l-86 -442h551l-22 -115h-551l-86 -442h581l-20 -115h-705zM670 1368l30 158h156l-31 -158h-155z" />
<glyph unicode="&#x117;" horiz-adv-x="969" d="M113 177.5q-2 27.5 4 58.5l80 409q6 31 18.5 58.5t32.5 50.5q7 8 21 21.5t29.5 28t31.5 27.5t28 21q29 19 65.5 29t70.5 10h204q34 0 66.5 -10t52.5 -29q9 -8 20 -21t21.5 -27.5t19 -28t13.5 -21.5q20 -45 8 -109l-49 -252h-590l-33 -166q-3 -22 0 -34q4 -12 12 -25 t17.5 -25.5t19.5 -22.5t19 -16q13 -8 35 -8h215q22 0 37 8q13 7 30.5 20t34.5 28t32 30t23 27l107 -37q-19 -25 -40.5 -47.5t-41.5 -41.5t-38 -33t-30 -21q-27 -19 -62 -29t-69 -10h-209q-34 0 -66.5 10t-53.5 29q-9 7 -20 20.5t-21.5 27.5t-18.5 27.5t-12 22.5 q-12 23 -14 50.5zM281 498h477l28 153q4 16 5.5 23.5t-0.5 13.5q-4 12 -12.5 25t-18.5 25.5t-20.5 22.5t-18.5 15q-6 5 -15 6.5t-20 1.5h-207q-20 0 -37 -8q-14 -7 -31 -18.5t-33.5 -26t-31.5 -29.5t-24 -28q-5 -6 -8.5 -15t-6.5 -20zM575 1081l31 158h156l-31 -158h-156z " />
<glyph unicode="&#x118;" horiz-adv-x="1020" d="M100 0l238 1229h704l-22 -115h-582l-86 -442h551l-22 -115h-551l-86 -442h581l-20 -115h-705zM100 0zM639 -117l94 39l119 -266h-109z" />
<glyph unicode="&#x119;" horiz-adv-x="969" d="M111 0zM113 177.5q-2 27.5 4 58.5l80 409q6 31 18.5 58.5t32.5 50.5q7 8 21 21.5t29.5 28t31.5 27.5t28 21q29 19 65.5 29t70.5 10h204q34 0 66.5 -10t52.5 -29q9 -8 20 -21t21.5 -27.5t19 -28t13.5 -21.5q20 -45 8 -109l-49 -252h-590l-33 -166q-3 -22 0 -34 q4 -12 12 -25t17.5 -25.5t19.5 -22.5t19 -16q13 -8 35 -8h215q22 0 37 8q13 7 30.5 20t34.5 28t32 30t23 27l107 -37q-19 -25 -40.5 -47.5t-41.5 -41.5t-38 -33t-30 -21q-27 -19 -62 -29t-69 -10h-209q-34 0 -66.5 10t-53.5 29q-9 7 -20 20.5t-21.5 27.5t-18.5 27.5 t-12 22.5q-12 23 -14 50.5zM281 498h477l28 153q4 16 5.5 23.5t-0.5 13.5q-4 12 -12.5 25t-18.5 25.5t-20.5 22.5t-18.5 15q-6 5 -15 6.5t-20 1.5h-207q-20 0 -37 -8q-14 -7 -31 -18.5t-33.5 -26t-31.5 -29.5t-24 -28q-5 -6 -8.5 -15t-6.5 -20zM309 -117l94 39l119 -266 h-109z" />
<glyph unicode="&#x11a;" horiz-adv-x="1020" d="M100 0l238 1229h704l-22 -115h-582l-86 -442h551l-22 -115h-551l-86 -442h581l-20 -115h-705zM100 0zM532 1590h129l84 -136l135 136h146l-236 -238h-112z" />
<glyph unicode="&#x11b;" horiz-adv-x="969" d="M111 0zM113 177.5q-2 27.5 4 58.5l80 409q6 31 18.5 58.5t32.5 50.5q7 8 21 21.5t29.5 28t31.5 27.5t28 21q29 19 65.5 29t70.5 10h204q34 0 66.5 -10t52.5 -29q9 -8 20 -21t21.5 -27.5t19 -28t13.5 -21.5q20 -45 8 -109l-49 -252h-590l-33 -166q-3 -22 0 -34 q4 -12 12 -25t17.5 -25.5t19.5 -22.5t19 -16q13 -8 35 -8h215q22 0 37 8q13 7 30.5 20t34.5 28t32 30t23 27l107 -37q-19 -25 -40.5 -47.5t-41.5 -41.5t-38 -33t-30 -21q-27 -19 -62 -29t-69 -10h-209q-34 0 -66.5 10t-53.5 29q-9 7 -20 20.5t-21.5 27.5t-18.5 27.5 t-12 22.5q-12 23 -14 50.5zM281 498h477l28 153q4 16 5.5 23.5t-0.5 13.5q-4 12 -12.5 25t-18.5 25.5t-20.5 22.5t-18.5 15q-6 5 -15 6.5t-20 1.5h-207q-20 0 -37 -8q-14 -7 -31 -18.5t-33.5 -26t-31.5 -29.5t-24 -28q-5 -6 -8.5 -15t-6.5 -20zM450 1303h129l84 -136 l135 136h146l-236 -238h-112z" />
<glyph unicode="&#x11c;" horiz-adv-x="1182" d="M134 0zM136 211q-2 25 3 51l137 699q5 26 16 52t30 48q10 13 32 34t47 42.5t49 40t39 26.5q25 14 56.5 23.5t56.5 9.5h316q24 0 52.5 -9.5t47.5 -23.5q14 -10 28.5 -26t28 -34.5t24.5 -37t19 -33.5t18 -35.5t15 -42.5l-117 -32q-5 20 -18.5 44t-30 46t-33 39t-28.5 24 q-3 3 -11 4.5t-16 1.5h-301q-17 0 -29 -6q-13 -6 -34.5 -21t-44.5 -34t-45 -39.5t-35 -38.5q-5 -6 -8 -14.5t-5 -16.5l-135 -700q-3 -15 0 -27q6 -16 18.5 -34t27 -34.5t28.5 -29t22 -16.5q5 -4 12 -5.5t15 -1.5h297q8 0 16 1.5t13 5.5q13 6 35 21t45 34.5t44.5 40.5 t34.5 39q5 6 8 12t5 14l57 293h-279l23 113h399l-86 -436q-4 -23 -6 -55.5t-3 -67t-1 -66.5v-53h-117l4 100q-11 -11 -23 -22.5t-23.5 -22.5t-22 -19.5t-17.5 -12.5q-24 -14 -54.5 -23.5t-55.5 -9.5h-316q-24 0 -52.5 9.5t-47.5 23.5q-12 8 -29 26.5t-33.5 39.5t-30.5 41.5 t-20 33.5q-9 22 -11 47zM537 1352l236 238h112l146 -238h-131l-84 139l-136 -139h-143z" />
<glyph unicode="&#x11d;" horiz-adv-x="1014" d="M57 0zM57 -170l107 33l4 -8q16 -32 30.5 -54t43.5 -41q11 -8 32 -8h215q23 0 39 8q14 7 31.5 19.5t35 27.5t32.5 31t24 29q5 6 7 15t6 20l41 202q-25 -21 -50 -39t-45 -32q-24 -16 -54 -29.5t-56 -13.5h-172q-32 0 -65.5 10t-55.5 29q-9 7 -20 20.5t-21.5 27.5 t-18.5 27.5t-12 22.5q-12 23 -13 50.5t5 58.5l80 409q6 31 17.5 58.5t31.5 50.5q7 8 21 21.5t29.5 28t32 27.5t28.5 21q29 19 66 29t69 10h172q26 0 50.5 -14t43.5 -29q15 -14 33.5 -33t34.5 -41l34 107h111l-45 -148l-164 -842q-6 -31 -17.5 -58t-31.5 -50 q-8 -9 -21.5 -22.5t-29.5 -27.5t-32 -27.5t-28 -20.5q-29 -19 -66 -29t-69 -10h-209q-32 0 -64 10t-52 29q-17 13 -31.5 31.5t-26 38t-21 39t-16.5 36.5zM238 195q4 -12 11.5 -25.5t16.5 -26t19 -23t18 -16.5q8 -5 17 -6.5t20 -1.5h168q17 0 31 6q15 7 39.5 21.5t51 32.5 t52 37.5t41.5 37.5l6 11l80 401l-2 10q-10 18 -26 37t-34 36.5t-35.5 31t-29.5 20.5q-5 3 -13 4.5t-16 1.5h-164q-22 0 -38 -8q-14 -7 -31 -19.5t-34 -27.5t-32 -30.5t-24 -28.5q-5 -6 -8.5 -15t-6.5 -20l-77 -406q-3 -22 0 -34zM422 1065l236 238h112l146 -238h-131 l-84 139l-136 -139h-143z" />
<glyph unicode="&#x11e;" horiz-adv-x="1182" d="M134 0zM136 211q-2 25 3 51l137 699q5 26 16 52t30 48q10 13 32 34t47 42.5t49 40t39 26.5q25 14 56.5 23.5t56.5 9.5h316q24 0 52.5 -9.5t47.5 -23.5q14 -10 28.5 -26t28 -34.5t24.5 -37t19 -33.5t18 -35.5t15 -42.5l-117 -32q-5 20 -18.5 44t-30 46t-33 39t-28.5 24 q-3 3 -11 4.5t-16 1.5h-301q-17 0 -29 -6q-13 -6 -34.5 -21t-44.5 -34t-45 -39.5t-35 -38.5q-5 -6 -8 -14.5t-5 -16.5l-135 -700q-3 -15 0 -27q6 -16 18.5 -34t27 -34.5t28.5 -29t22 -16.5q5 -4 12 -5.5t15 -1.5h297q8 0 16 1.5t13 5.5q13 6 35 21t45 34.5t44.5 40.5 t34.5 39q5 6 8 12t5 14l57 293h-279l23 113h399l-86 -436q-4 -23 -6 -55.5t-3 -67t-1 -66.5v-53h-117l4 100q-11 -11 -23 -22.5t-23.5 -22.5t-22 -19.5t-17.5 -12.5q-24 -14 -54.5 -23.5t-55.5 -9.5h-316q-24 0 -52.5 9.5t-47.5 23.5q-12 8 -29 26.5t-33.5 39.5t-30.5 41.5 t-20 33.5q-9 22 -11 47zM623 1464q-8 35 0 76h72q-5 -24 0 -45t17.5 -36.5t31.5 -25t43 -9.5t47 9.5t42.5 25t33 36.5t18.5 45h84q-8 -41 -30 -76t-53.5 -61.5t-70.5 -41.5t-79 -15q-41 0 -73.5 15t-53.5 41.5t-29 61.5z" />
<glyph unicode="&#x11f;" horiz-adv-x="1014" d="M57 0zM57 -170l107 33l4 -8q16 -32 30.5 -54t43.5 -41q11 -8 32 -8h215q23 0 39 8q14 7 31.5 19.5t35 27.5t32.5 31t24 29q5 6 7 15t6 20l41 202q-25 -21 -50 -39t-45 -32q-24 -16 -54 -29.5t-56 -13.5h-172q-32 0 -65.5 10t-55.5 29q-9 7 -20 20.5t-21.5 27.5 t-18.5 27.5t-12 22.5q-12 23 -13 50.5t5 58.5l80 409q6 31 17.5 58.5t31.5 50.5q7 8 21 21.5t29.5 28t32 27.5t28.5 21q29 19 66 29t69 10h172q26 0 50.5 -14t43.5 -29q15 -14 33.5 -33t34.5 -41l34 107h111l-45 -148l-164 -842q-6 -31 -17.5 -58t-31.5 -50 q-8 -9 -21.5 -22.5t-29.5 -27.5t-32 -27.5t-28 -20.5q-29 -19 -66 -29t-69 -10h-209q-32 0 -64 10t-52 29q-17 13 -31.5 31.5t-26 38t-21 39t-16.5 36.5zM238 195q4 -12 11.5 -25.5t16.5 -26t19 -23t18 -16.5q8 -5 17 -6.5t20 -1.5h168q17 0 31 6q15 7 39.5 21.5t51 32.5 t52 37.5t41.5 37.5l6 11l80 401l-2 10q-10 18 -26 37t-34 36.5t-35.5 31t-29.5 20.5q-5 3 -13 4.5t-16 1.5h-164q-22 0 -38 -8q-14 -7 -31 -19.5t-34 -27.5t-32 -30.5t-24 -28.5q-5 -6 -8.5 -15t-6.5 -20l-77 -406q-3 -22 0 -34zM502 1177q-8 35 0 76h72q-5 -24 0 -45 t17.5 -36.5t31.5 -25t43 -9.5t47 9.5t42.5 25t33 36.5t18.5 45h84q-8 -41 -30 -76t-53.5 -61.5t-70.5 -41.5t-79 -15q-41 0 -73.5 15t-53.5 41.5t-29 61.5z" />
<glyph unicode="&#x120;" horiz-adv-x="1182" d="M136 211q-2 25 3 51l137 699q5 26 16 52t30 48q10 13 32 34t47 42.5t49 40t39 26.5q25 14 56.5 23.5t56.5 9.5h316q24 0 52.5 -9.5t47.5 -23.5q14 -10 28.5 -26t28 -34.5t24.5 -37t19 -33.5t18 -35.5t15 -42.5l-117 -32q-5 20 -18.5 44t-30 46t-33 39t-28.5 24 q-3 3 -11 4.5t-16 1.5h-301q-17 0 -29 -6q-13 -6 -34.5 -21t-44.5 -34t-45 -39.5t-35 -38.5q-5 -6 -8 -14.5t-5 -16.5l-135 -700q-3 -15 0 -27q6 -16 18.5 -34t27 -34.5t28.5 -29t22 -16.5q5 -4 12 -5.5t15 -1.5h297q8 0 16 1.5t13 5.5q13 6 35 21t45 34.5t44.5 40.5 t34.5 39q5 6 8 12t5 14l57 293h-279l23 113h399l-86 -436q-4 -23 -6 -55.5t-3 -67t-1 -66.5v-53h-117l4 100q-11 -11 -23 -22.5t-23.5 -22.5t-22 -19.5t-17.5 -12.5q-24 -14 -54.5 -23.5t-55.5 -9.5h-316q-24 0 -52.5 9.5t-47.5 23.5q-12 8 -29 26.5t-33.5 39.5t-30.5 41.5 t-20 33.5q-9 22 -11 47zM741 1368l31 158h156l-31 -158h-156z" />
<glyph unicode="&#x121;" horiz-adv-x="1014" d="M57 -170l107 33l4 -8q16 -32 30.5 -54t43.5 -41q11 -8 32 -8h215q23 0 39 8q14 7 31.5 19.5t35 27.5t32.5 31t24 29q5 6 7 15t6 20l41 202q-25 -21 -50 -39t-45 -32q-24 -16 -54 -29.5t-56 -13.5h-172q-32 0 -65.5 10t-55.5 29q-9 7 -20 20.5t-21.5 27.5t-18.5 27.5 t-12 22.5q-12 23 -13 50.5t5 58.5l80 409q6 31 17.5 58.5t31.5 50.5q7 8 21 21.5t29.5 28t32 27.5t28.5 21q29 19 66 29t69 10h172q26 0 50.5 -14t43.5 -29q15 -14 33.5 -33t34.5 -41l34 107h111l-45 -148l-164 -842q-6 -31 -17.5 -58t-31.5 -50q-8 -9 -21.5 -22.5 t-29.5 -27.5t-32 -27.5t-28 -20.5q-29 -19 -66 -29t-69 -10h-209q-32 0 -64 10t-52 29q-17 13 -31.5 31.5t-26 38t-21 39t-16.5 36.5zM238 195q4 -12 11.5 -25.5t16.5 -26t19 -23t18 -16.5q8 -5 17 -6.5t20 -1.5h168q17 0 31 6q15 7 39.5 21.5t51 32.5t52 37.5t41.5 37.5 l6 11l80 401l-2 10q-10 18 -26 37t-34 36.5t-35.5 31t-29.5 20.5q-5 3 -13 4.5t-16 1.5h-164q-22 0 -38 -8q-14 -7 -31 -19.5t-34 -27.5t-32 -30.5t-24 -28.5q-5 -6 -8.5 -15t-6.5 -20l-77 -406q-3 -22 0 -34zM573 1081l31 158h156l-31 -158h-156z" />
<glyph unicode="&#x122;" horiz-adv-x="1182" d="M134 0zM136 211q-2 25 3 51l137 699q5 26 16 52t30 48q10 13 32 34t47 42.5t49 40t39 26.5q25 14 56.5 23.5t56.5 9.5h316q24 0 52.5 -9.5t47.5 -23.5q14 -10 28.5 -26t28 -34.5t24.5 -37t19 -33.5t18 -35.5t15 -42.5l-117 -32q-5 20 -18.5 44t-30 46t-33 39t-28.5 24 q-3 3 -11 4.5t-16 1.5h-301q-17 0 -29 -6q-13 -6 -34.5 -21t-44.5 -34t-45 -39.5t-35 -38.5q-5 -6 -8 -14.5t-5 -16.5l-135 -700q-3 -15 0 -27q6 -16 18.5 -34t27 -34.5t28.5 -29t22 -16.5q5 -4 12 -5.5t15 -1.5h297q8 0 16 1.5t13 5.5q13 6 35 21t45 34.5t44.5 40.5 t34.5 39q5 6 8 12t5 14l57 293h-279l23 113h399l-86 -436q-4 -23 -6 -55.5t-3 -67t-1 -66.5v-53h-117l4 100q-11 -11 -23 -22.5t-23.5 -22.5t-22 -19.5t-17.5 -12.5q-24 -14 -54.5 -23.5t-55.5 -9.5h-316q-24 0 -52.5 9.5t-47.5 23.5q-12 8 -29 26.5t-33.5 39.5t-30.5 41.5 t-20 33.5q-9 22 -11 47zM321 -344l222 266l96 -39l-191 -227h-127z" />
<glyph unicode="&#x123;" horiz-adv-x="1014" d="M57 0zM57 -170l107 33l4 -8q16 -32 30.5 -54t43.5 -41q11 -8 32 -8h215q23 0 39 8q14 7 31.5 19.5t35 27.5t32.5 31t24 29q5 6 7 15t6 20l41 202q-25 -21 -50 -39t-45 -32q-24 -16 -54 -29.5t-56 -13.5h-172q-32 0 -65.5 10t-55.5 29q-9 7 -20 20.5t-21.5 27.5 t-18.5 27.5t-12 22.5q-12 23 -13 50.5t5 58.5l80 409q6 31 17.5 58.5t31.5 50.5q7 8 21 21.5t29.5 28t32 27.5t28.5 21q29 19 66 29t69 10h172q26 0 50.5 -14t43.5 -29q15 -14 33.5 -33t34.5 -41l34 107h111l-45 -148l-164 -842q-6 -31 -17.5 -58t-31.5 -50 q-8 -9 -21.5 -22.5t-29.5 -27.5t-32 -27.5t-28 -20.5q-29 -19 -66 -29t-69 -10h-209q-32 0 -64 10t-52 29q-17 13 -31.5 31.5t-26 38t-21 39t-16.5 36.5zM238 195q4 -12 11.5 -25.5t16.5 -26t19 -23t18 -16.5q8 -5 17 -6.5t20 -1.5h168q17 0 31 6q15 7 39.5 21.5t51 32.5 t52 37.5t41.5 37.5l6 11l80 401l-2 10q-10 18 -26 37t-34 36.5t-35.5 31t-29.5 20.5q-5 3 -13 4.5t-16 1.5h-164q-22 0 -38 -8q-14 -7 -31 -19.5t-34 -27.5t-32 -30.5t-24 -28.5q-5 -6 -8.5 -15t-6.5 -20l-77 -406q-3 -22 0 -34zM489 1079l220 228h149l-262 -265z" />
<glyph unicode="&#x124;" horiz-adv-x="1139" d="M100 0l238 1229h121l-109 -557h576l108 557h121l-237 -1229h-121l106 557h-575l-107 -557h-121zM100 0zM528 1352l236 238h112l146 -238h-131l-84 139l-136 -139h-143z" />
<glyph unicode="&#x125;" horiz-adv-x="971" d="M82 0l237 1229h111l-88 -449q25 22 49 38l45 30q25 15 55 29t56 14h147q32 0 64.5 -10t52.5 -29q9 -8 20 -21t21.5 -27.5t19 -28t13.5 -21.5q22 -48 10 -109l-125 -645h-111l125 655q2 11 3 19t-1 14q-4 12 -12 25t-18 25.5t-20.5 22.5t-18.5 15q-6 5 -15 6.5t-20 1.5 h-143q-18 0 -33 -6q-19 -9 -42.5 -22t-48.5 -29.5t-48.5 -35.5t-42.5 -40q-4 -3 -4.5 -4t-2.5 -6l-124 -641h-111zM82 0zM448 1352l236 238h112l146 -238h-131l-84 139l-136 -139h-143z" />
<glyph unicode="&#x126;" horiz-adv-x="1139" d="M100 0l195 1001h-100l20 115h100l23 113h119l-23 -113h580l22 113h119l-22 -113h106l-22 -117h-107l-192 -999h-119l106 557h-579l-107 -557h-119zM348 672h580l63 327l-577 2z" />
<glyph unicode="&#x127;" horiz-adv-x="971" d="M82 0l194 1006h-92l21 110h92l22 113h111l-22 -113h282l-20 -110h-285l-43 -226q25 22 49 38l45 30q25 15 55 29t56 14h147q32 0 64.5 -10t52.5 -29q9 -8 20 -21t21.5 -27.5t19 -28t13.5 -21.5q22 -48 10 -109l-125 -645h-111l125 655q2 11 3 19t-1 14q-4 12 -12 25 t-18 25.5t-20.5 22.5t-18.5 15q-6 5 -15 6.5t-20 1.5h-143q-18 0 -33 -6q-19 -9 -42.5 -22t-48.5 -29.5t-48.5 -35.5t-42.5 -40q-4 -3 -4.5 -4t-2.5 -6l-124 -641h-111z" />
<glyph unicode="&#x128;" horiz-adv-x="442" d="M98 0l238 1229h121l-238 -1229h-121zM98 0zM127 1397q18 36 44.5 63t58.5 43.5t67 21t70 -4.5l141 -37q32 -5 62 10.5t44 44.5l109 -26q-18 -36 -44.5 -63.5t-58.5 -44t-67 -20.5t-70 5l-141 37q-16 2 -32 -1t-30.5 -10.5t-25.5 -18.5t-18 -26z" />
<glyph unicode="&#x129;" horiz-adv-x="422" d="M57 0zM57 1110q18 36 44.5 63t58.5 43.5t67 21t70 -4.5l141 -37q32 -5 62 10.5t44 44.5l109 -26q-18 -36 -44.5 -63.5t-58.5 -44t-67 -20.5t-70 5l-141 37q-16 2 -32 -1t-30.5 -10.5t-25.5 -18.5t-18 -26zM98 0l170 881h113l-170 -881h-113z" />
<glyph unicode="&#x12a;" horiz-adv-x="442" d="M98 0l238 1229h121l-238 -1229h-121zM98 0zM184 1424l21 102h520l-20 -102h-521z" />
<glyph unicode="&#x12b;" horiz-adv-x="422" d="M92 0zM92 1137l21 102h520l-20 -102h-521zM98 0l170 881h113l-170 -881h-113z" />
<glyph unicode="&#x12c;" horiz-adv-x="442" d="M98 0l238 1229h121l-238 -1229h-121zM265.5 1464q-7.5 35 0.5 76h78q-5 -24 0 -45t17.5 -37t31.5 -25.5t43 -9.5t47.5 9.5t43 25.5t33 37t18.5 45h77q-8 -41 -30.5 -76t-54.5 -61.5t-71 -41.5t-79 -15q-41 0 -73 15t-53 41.5t-28.5 61.5z" />
<glyph unicode="&#x12d;" horiz-adv-x="422" d="M98 0l170 881h113l-170 -881h-113zM98 0zM195 1177q-8 35 0 76h72q-5 -24 0 -45t17.5 -36.5t31.5 -25t43 -9.5t47 9.5t42.5 25t33 36.5t18.5 45h84q-8 -41 -30 -76t-53.5 -61.5t-70.5 -41.5t-79 -15q-41 0 -73.5 15t-53.5 41.5t-29 61.5z" />
<glyph unicode="&#x12e;" horiz-adv-x="442" d="M64 0zM64 -117l94 39l119 -266h-109zM98 0l238 1229h121l-238 -1229h-121z" />
<glyph unicode="&#x12f;" horiz-adv-x="422" d="M72 0zM72 -117l94 39l119 -266h-109zM99 0l170 881h112l-170 -881h-112zM279 1081l31 158h155l-31 -158h-155z" />
<glyph unicode="&#x130;" horiz-adv-x="442" d="M98 0l238 1229h121l-238 -1229h-121zM360 1368l31 158h156l-31 -158h-156z" />
<glyph unicode="&#x131;" horiz-adv-x="422" d="M98 0l170 881h113l-170 -881h-113z" />
<glyph unicode="&#x132;" horiz-adv-x="1339" d="M98 0l238 1229h121l-238 -1229h-121zM98 0zM476 233l114 31q7 -21 19 -44t27 -44t30.5 -38t30.5 -25q5 -3 13.5 -5t16.5 -2h140q13 0 24 7q14 6 35.5 20.5t45 33.5t45 39t34.5 38q5 6 9.5 13.5t6.5 16.5l187 955h121l-187 -963q-6 -26 -17 -52t-30 -48q-11 -13 -32 -33.5 t-45.5 -41.5t-48 -39.5t-38.5 -26.5q-24 -14 -56 -23.5t-56 -9.5h-160q-25 0 -53.5 9.5t-46.5 23.5q-15 10 -29.5 26t-28 34t-24.5 36t-19 33t-15.5 36.5t-12.5 42.5z" />
<glyph unicode="&#x133;" horiz-adv-x="821" d="M99 0l170 881h112l-170 -881h-112zM99 0zM190 -352l21 106q54 1 84 1.5t45.5 2t20.5 3t9 3.5q13 7 28.5 19.5t30.5 27t29 30t23 28.5q5 6 8 15t6 20l189 977h112l-192 -990q-12 -62 -51 -108q-8 -9 -21.5 -22.5t-28.5 -27.5t-31 -27.5t-28 -20.5q-29 -19 -64 -28t-67 -9 h-123zM279 1081l31 158h155l-31 -158h-155zM696 1081l31 158h155l-30 -158h-156z" />
<glyph unicode="&#x134;" horiz-adv-x="932" d="M66 0zM66 233l114 31q7 -21 19 -44t27 -44t30.5 -38t30.5 -25q5 -3 13.5 -5t16.5 -2h140q13 0 24 7q14 6 35.5 20.5t45 33.5t45 39t34.5 38q5 6 9.5 13.5t6.5 16.5l187 955h121l-187 -963q-6 -26 -17 -52t-30 -48q-11 -13 -32 -33.5t-45.5 -41.5t-48 -39.5t-38.5 -26.5 q-24 -14 -56 -23.5t-56 -9.5h-160q-25 0 -53.5 9.5t-46.5 23.5q-15 10 -29.5 26t-28 34t-24.5 36t-19 33t-15.5 36.5t-12.5 42.5zM684 1352l236 238h112l146 -238h-131l-84 139l-136 -139h-143z" />
<glyph unicode="&#x135;" horiz-adv-x="428" d="M-205 -352l21 106q54 1 84 1.5t45.5 2t20.5 3t9 3.5q13 7 28.5 19.5t30.5 27t29 30t23 28.5q5 6 8 15t6 20l189 977h112l-192 -990q-12 -62 -51 -108q-8 -9 -21.5 -22.5t-28.5 -27.5t-31 -27.5t-28 -20.5q-29 -19 -64 -28t-67 -9h-123zM102 1065l236 238h112l146 -238 h-131l-84 139l-136 -139h-143z" />
<glyph unicode="&#x136;" horiz-adv-x="1038" d="M100 0l238 1229h121l-109 -553h41l565 553h150l-629 -615l447 -614h-140l-407 563h-49l-107 -563h-121zM100 0zM243 -344l222 266l96 -39l-191 -227h-127z" />
<glyph unicode="&#x137;" horiz-adv-x="877" d="M84 0l238 1229h110l-139 -717h35l413 369h152l-469 -418l344 -463h-137l-303 408h-56l-77 -408h-111zM84 0zM137 -344l222 266l96 -39l-191 -227h-127z" />
<glyph unicode="&#x138;" horiz-adv-x="877" d="M84 0l172 881h111l-74 -369h35l325 287q14 12 27.5 23.5t26.5 19.5q29 18 64 28.5t69 10.5h69l-20 -107h-68q-11 0 -22 -1.5t-21 -6.5q-14 -8 -29.5 -18t-35.5 -27l-289 -258l344 -463h-137l-303 408h-56l-77 -408h-111z" />
<glyph unicode="&#x139;" horiz-adv-x="932" d="M100 0l238 1229h121l-217 -1114h571l-20 -115h-693zM100 0zM536 1366l220 228h149l-262 -265z" />
<glyph unicode="&#x13a;" horiz-adv-x="420" d="M112 0zM112 44.5q0 18.5 0.5 38t2.5 32.5l217 1114h110l-211 -1090q-4 -17 -5.5 -40.5t-1.5 -45.5q0 -26 1 -53h-110q-1 0 -2 13t-1 31.5zM352 1368l220 228h149l-262 -265z" />
<glyph unicode="&#x13b;" horiz-adv-x="932" d="M100 0l238 1229h121l-217 -1114h571l-20 -115h-693zM100 0zM239 -344l222 266l96 -39l-191 -227h-127z" />
<glyph unicode="&#x13c;" horiz-adv-x="420" d="M-88 -344l222 266l96 -39l-191 -227h-127zM0 0zM112 44.5q0 18.5 0.5 38t2.5 32.5l217 1114h110l-211 -1090q-4 -17 -5.5 -40.5t-1.5 -45.5q0 -26 1 -53h-110q-1 0 -2 13t-1 31.5z" />
<glyph unicode="&#x13d;" horiz-adv-x="932" d="M100 0l238 1229h121l-217 -1114h571l-20 -115h-693zM100 0zM631 946l43 139l45 242h108l-51 -268l-35 -113h-110z" />
<glyph unicode="&#x13e;" horiz-adv-x="575" d="M112 0zM112 44.5q0 18.5 0.5 38t2.5 32.5l217 1114h110l-211 -1090q-4 -17 -5.5 -40.5t-1.5 -45.5q0 -26 1 -53h-110q-1 0 -2 13t-1 31.5zM586 946l43 139l45 242h108l-51 -268l-35 -113h-110z" />
<glyph unicode="&#x13f;" horiz-adv-x="932" d="M100 0l238 1229h121l-217 -1114h571l-20 -115h-693zM702 541l31 157h156l-31 -157h-156z" />
<glyph unicode="&#x140;" horiz-adv-x="553" d="M112 44.5q0 18.5 0.5 38t2.5 32.5l217 1114h110l-211 -1090q-4 -17 -5.5 -40.5t-1.5 -45.5q0 -26 1 -53h-110q-1 0 -2 13t-1 31.5zM455 522l30 158h156l-31 -158h-155z" />
<glyph unicode="&#x141;" horiz-adv-x="932" d="M33 518l184 90l121 621h121l-109 -557l158 76l27 -99l-207 -100l-86 -434h571l-20 -115h-693l95 485l-136 -65z" />
<glyph unicode="&#x142;" horiz-adv-x="555" d="M76 516l188 90l121 623h111l-109 -563l164 79l27 -100l-216 -104l-77 -402q-8 -34 -7 -69t1 -70h-111q0 26 -2.5 57.5t2.5 57.5l72 366l-136 -65z" />
<glyph unicode="&#x143;" horiz-adv-x="1128" d="M102 0l238 1229h143l338 -1059l205 1059h117l-238 -1229h-141l-342 1049l-203 -1049h-117zM102 0zM639 1366l220 228h149l-262 -265z" />
<glyph unicode="&#x144;" horiz-adv-x="985" d="M96 0l142 735l10 146h110l-4 -99q23 20 43.5 36.5t40.5 29.5q25 15 55 29t56 14h158q34 0 66 -10t52 -29q9 -8 20.5 -21t22.5 -27.5t19.5 -28t13.5 -21.5q21 -48 8 -109l-125 -645h-110l125 655q2 10 3 18.5t-1 14.5q-4 12 -11.5 25t-17.5 25.5t-20 22.5t-19 15 q-11 8 -35 8h-151q-16 0 -31 -6q-14 -7 -38.5 -20.5t-51.5 -31t-52 -37.5t-40 -38l-127 -651h-111zM96 0zM509 1079l220 228h149l-262 -265z" />
<glyph unicode="&#x145;" horiz-adv-x="1128" d="M102 0l238 1229h143l338 -1059l205 1059h117l-238 -1229h-141l-342 1049l-203 -1049h-117zM102 0zM301 -344l222 266l96 -39l-191 -227h-127z" />
<glyph unicode="&#x146;" horiz-adv-x="985" d="M96 0l142 735l10 146h110l-4 -99q23 20 43.5 36.5t40.5 29.5q25 15 55 29t56 14h158q34 0 66 -10t52 -29q9 -8 20.5 -21t22.5 -27.5t19.5 -28t13.5 -21.5q21 -48 8 -109l-125 -645h-110l125 655q2 10 3 18.5t-1 14.5q-4 12 -11.5 25t-17.5 25.5t-20 22.5t-19 15 q-11 8 -35 8h-151q-16 0 -31 -6q-14 -7 -38.5 -20.5t-51.5 -31t-52 -37.5t-40 -38l-127 -651h-111zM96 0zM219 -344l222 266l96 -39l-191 -227h-127z" />
<glyph unicode="&#x147;" horiz-adv-x="1128" d="M102 0l238 1229h143l338 -1059l205 1059h117l-238 -1229h-141l-342 1049l-203 -1049h-117zM102 0zM575 1590h129l84 -136l135 136h146l-236 -238h-112z" />
<glyph unicode="&#x148;" horiz-adv-x="985" d="M96 0l142 735l10 146h110l-4 -99q23 20 43.5 36.5t40.5 29.5q25 15 55 29t56 14h158q34 0 66 -10t52 -29q9 -8 20.5 -21t22.5 -27.5t19.5 -28t13.5 -21.5q21 -48 8 -109l-125 -645h-110l125 655q2 10 3 18.5t-1 14.5q-4 12 -11.5 25t-17.5 25.5t-20 22.5t-19 15 q-11 8 -35 8h-151q-16 0 -31 -6q-14 -7 -38.5 -20.5t-51.5 -31t-52 -37.5t-40 -38l-127 -651h-111zM96 0zM436 1303h129l84 -136l135 136h146l-236 -238h-112z" />
<glyph unicode="&#x149;" horiz-adv-x="985" d="M25 0zM25 946l43 139l45 242h108l-51 -268l-35 -113h-110zM96 0l142 735l10 146h110l-4 -99q23 20 43.5 36.5t40.5 29.5q25 15 55 29t56 14h158q34 0 66 -10t52 -29q9 -8 20.5 -21t22.5 -27.5t19.5 -28t13.5 -21.5q21 -48 8 -109l-125 -645h-110l125 655q2 10 3 18.5 t-1 14.5q-4 12 -11.5 25t-17.5 25.5t-20 22.5t-19 15q-11 8 -35 8h-151q-16 0 -31 -6q-14 -7 -38.5 -20.5t-51.5 -31t-52 -37.5t-40 -38l-127 -651h-111z" />
<glyph unicode="&#x14a;" horiz-adv-x="1128" d="M102 0l238 1229h152l325 -1059l211 1059h115l-258 -1338q-12 -62 -51 -108q-8 -9 -21.5 -22.5t-28.5 -27.5t-31 -27.5t-28 -20.5q-29 -19 -65 -28t-68 -9h-129l20 106h119q11 0 20.5 0.5t18.5 5.5q14 7 31.5 20t34.5 28.5t32.5 31.5t24.5 29q5 6 8 16t6 21l-26 94 l-332 1049l-203 -1049h-115z" />
<glyph unicode="&#x14b;" horiz-adv-x="985" d="M96 0l142 735l10 146h110l-4 -99q23 20 43.5 36.5t40.5 29.5q25 15 55 29t56 14h158q34 0 66 -10t52 -29q9 -8 20.5 -21t22.5 -27.5t19.5 -28t13.5 -21.5q21 -48 8 -109l-145 -754q-12 -62 -51 -108q-8 -9 -21.5 -22.5t-28.5 -27.5t-31 -27.5t-28 -20.5q-29 -19 -64 -28 t-67 -9h-123l21 106q54 1 84 1.5t45.5 2t20.5 3t9 3.5q13 7 28.5 19.5t30.5 27t29 30t23 28.5q5 6 8 15t6 20l144 749q2 11 3 20t-1 15q-4 12 -11.5 25t-17.5 25.5t-20 22.5t-19 15q-11 8 -35 8h-151q-16 0 -31 -6q-14 -7 -38.5 -20.5t-51.5 -31t-52 -37.5t-40 -38 l-127 -651h-111z" />
<glyph unicode="&#x14c;" horiz-adv-x="1153" d="M135.5 212q-0.5 26 5.5 52l135 697q5 26 15 52t28 48q11 13 33 34t47.5 42.5t50 40t39.5 26.5q25 14 55.5 23.5t55.5 9.5h324q24 0 52.5 -9.5t47.5 -23.5q12 -8 28.5 -26.5t33 -40t30 -42.5t19.5 -34q9 -22 11 -48t-3 -52l-135 -697q-7 -26 -18 -52t-29 -48 q-11 -13 -32.5 -33.5t-46 -41.5t-48.5 -39.5t-39 -26.5q-25 -14 -56.5 -23.5t-56.5 -9.5h-324q-24 0 -51.5 9.5t-46.5 23.5q-12 8 -29.5 26.5t-34 39.5t-31 41.5t-20.5 33.5q-9 22 -9.5 48zM259 235.5q1 -6.5 3 -12.5q6 -16 18 -34t25 -33.5t26 -28t21 -16.5q8 -7 25 -7h307 q8 0 16 1.5t13 5.5q14 6 36 21t45.5 34.5t45 40.5t34.5 39q10 12 13 26l135 701q3 16 0 31q-5 16 -17 34t-25.5 33.5t-27 27.5t-22.5 17q-3 3 -10 4.5t-15 1.5h-307q-16 0 -29 -6t-34.5 -21t-44.5 -34.5t-45 -40.5t-35 -39q-12 -14 -15 -31l-135 -700q-2 -8 -1 -14.5z M537 1423l18 103h520l-18 -103h-520z" />
<glyph unicode="&#x14d;" horiz-adv-x="967" d="M112 177.5q-1 27.5 5 58.5l80 409q6 31 17.5 58.5t31.5 50.5q7 8 21 21.5t29.5 28t31.5 27.5t28 21q29 19 65 29t71 10h204q34 0 66.5 -10t52.5 -29q9 -8 20 -21t21.5 -27.5t19 -28t13.5 -21.5q20 -45 8 -109l-80 -409q-6 -31 -19 -61t-32 -50q-9 -9 -22.5 -22t-29 -27 t-31.5 -27t-28 -20q-28 -19 -63.5 -29t-69.5 -10h-205q-34 0 -66.5 10t-53.5 29q-9 7 -20 20.5t-21.5 27.5t-18.5 27.5t-12 22.5q-12 23 -13 50.5zM225 188q4 -11 11.5 -23.5t16 -24t18 -21t18.5 -15.5q13 -8 37 -8h204q24 0 37 8q14 7 32 19.5t36 27.5t34 31t25 29 q5 6 8 14t5 19l77 407q2 10 3 19t-1 18q-2 12 -10 25.5t-17.5 25.5t-20.5 22t-19 15q-6 5 -15 6.5t-20 1.5h-205q-22 0 -39 -8q-14 -7 -31 -19t-34 -26.5t-32 -30t-24 -28.5q-5 -6 -8 -15t-6 -20l-80 -414q-3 -21 0 -35zM385 1137l21 102h520l-21 -102h-520z" />
<glyph unicode="&#x14e;" horiz-adv-x="1153" d="M135 0zM135.5 212q-0.5 26 5.5 52l135 697q5 26 15 52t28 48q11 13 33 34t47.5 42.5t50 40t39.5 26.5q25 14 55.5 23.5t55.5 9.5h324q24 0 52.5 -9.5t47.5 -23.5q12 -8 28.5 -26.5t33 -40t30 -42.5t19.5 -34q9 -22 11 -48t-3 -52l-135 -697q-7 -26 -18 -52t-29 -48 q-11 -13 -32.5 -33.5t-46 -41.5t-48.5 -39.5t-39 -26.5q-25 -14 -56.5 -23.5t-56.5 -9.5h-324q-24 0 -51.5 9.5t-46.5 23.5q-12 8 -29.5 26.5t-34 39.5t-31 41.5t-20.5 33.5q-9 22 -9.5 48zM259 235.5q1 -6.5 3 -12.5q6 -16 18 -34t25 -33.5t26 -28t21 -16.5q8 -7 25 -7h307 q8 0 16 1.5t13 5.5q14 6 36 21t45.5 34.5t45 40.5t34.5 39q10 12 13 26l135 701q3 16 0 31q-5 16 -17 34t-25.5 33.5t-27 27.5t-22.5 17q-3 3 -10 4.5t-15 1.5h-307q-16 0 -29 -6t-34.5 -21t-44.5 -34.5t-45 -40.5t-35 -39q-12 -14 -15 -31l-135 -700q-2 -8 -1 -14.5z M633 1464q-8 35 0 76h72q-5 -24 0 -45t17.5 -36.5t31.5 -25t43 -9.5t47 9.5t42.5 25t33 36.5t18.5 45h84q-8 -41 -30 -76t-53.5 -61.5t-70.5 -41.5t-79 -15q-41 0 -73.5 15t-53.5 41.5t-29 61.5z" />
<glyph unicode="&#x14f;" horiz-adv-x="967" d="M111 0zM112 177.5q-1 27.5 5 58.5l80 409q6 31 17.5 58.5t31.5 50.5q7 8 21 21.5t29.5 28t31.5 27.5t28 21q29 19 65 29t71 10h204q34 0 66.5 -10t52.5 -29q9 -8 20 -21t21.5 -27.5t19 -28t13.5 -21.5q20 -45 8 -109l-80 -409q-6 -31 -19 -61t-32 -50q-9 -9 -22.5 -22 t-29 -27t-31.5 -27t-28 -20q-28 -19 -63.5 -29t-69.5 -10h-205q-34 0 -66.5 10t-53.5 29q-9 7 -20 20.5t-21.5 27.5t-18.5 27.5t-12 22.5q-12 23 -13 50.5zM225 188q4 -11 11.5 -23.5t16 -24t18 -21t18.5 -15.5q13 -8 37 -8h204q24 0 37 8q14 7 32 19.5t36 27.5t34 31t25 29 q5 6 8 14t5 19l77 407q2 10 3 19t-1 18q-2 12 -10 25.5t-17.5 25.5t-20.5 22t-19 15q-6 5 -15 6.5t-20 1.5h-205q-22 0 -39 -8q-14 -7 -31 -19t-34 -26.5t-32 -30t-24 -28.5q-5 -6 -8 -15t-6 -20l-80 -414q-3 -21 0 -35zM471 1177q-8 35 0 76h72q-5 -24 0 -45t17.5 -36.5 t31.5 -25t43 -9.5t47 9.5t42.5 25t33 36.5t18.5 45h84q-8 -41 -30 -76t-53.5 -61.5t-70.5 -41.5t-79 -15q-41 0 -73.5 15t-53.5 41.5t-29 61.5z" />
<glyph unicode="&#x150;" horiz-adv-x="1153" d="M135 0zM135.5 212q-0.5 26 5.5 52l135 697q5 26 15 52t28 48q11 13 33 34t47.5 42.5t50 40t39.5 26.5q25 14 55.5 23.5t55.5 9.5h324q24 0 52.5 -9.5t47.5 -23.5q12 -8 28.5 -26.5t33 -40t30 -42.5t19.5 -34q9 -22 11 -48t-3 -52l-135 -697q-7 -26 -18 -52t-29 -48 q-11 -13 -32.5 -33.5t-46 -41.5t-48.5 -39.5t-39 -26.5q-25 -14 -56.5 -23.5t-56.5 -9.5h-324q-24 0 -51.5 9.5t-46.5 23.5q-12 8 -29.5 26.5t-34 39.5t-31 41.5t-20.5 33.5q-9 22 -9.5 48zM259 235.5q1 -6.5 3 -12.5q6 -16 18 -34t25 -33.5t26 -28t21 -16.5q8 -7 25 -7h307 q8 0 16 1.5t13 5.5q14 6 36 21t45.5 34.5t45 40.5t34.5 39q10 12 13 26l135 701q3 16 0 31q-5 16 -17 34t-25.5 33.5t-27 27.5t-22.5 17q-3 3 -10 4.5t-15 1.5h-307q-16 0 -29 -6t-34.5 -21t-44.5 -34.5t-45 -40.5t-35 -39q-12 -14 -15 -31l-135 -700q-2 -8 -1 -14.5z M579 1355l219 228h136l-263 -265zM780 1355l219 228h135l-262 -265z" />
<glyph unicode="&#x151;" horiz-adv-x="967" d="M111 0zM112 177.5q-1 27.5 5 58.5l80 409q6 31 17.5 58.5t31.5 50.5q7 8 21 21.5t29.5 28t31.5 27.5t28 21q29 19 65 29t71 10h204q34 0 66.5 -10t52.5 -29q9 -8 20 -21t21.5 -27.5t19 -28t13.5 -21.5q20 -45 8 -109l-80 -409q-6 -31 -19 -61t-32 -50q-9 -9 -22.5 -22 t-29 -27t-31.5 -27t-28 -20q-28 -19 -63.5 -29t-69.5 -10h-205q-34 0 -66.5 10t-53.5 29q-9 7 -20 20.5t-21.5 27.5t-18.5 27.5t-12 22.5q-12 23 -13 50.5zM225 188q4 -11 11.5 -23.5t16 -24t18 -21t18.5 -15.5q13 -8 37 -8h204q24 0 37 8q14 7 32 19.5t36 27.5t34 31t25 29 q5 6 8 14t5 19l77 407q2 10 3 19t-1 18q-2 12 -10 25.5t-17.5 25.5t-20.5 22t-19 15q-6 5 -15 6.5t-20 1.5h-205q-22 0 -39 -8q-14 -7 -31 -19t-34 -26.5t-32 -30t-24 -28.5q-5 -6 -8 -15t-6 -20l-80 -414q-3 -21 0 -35zM432 1079l219 228h136l-263 -265zM633 1079l219 228 h135l-262 -265z" />
<glyph unicode="&#x152;" horiz-adv-x="1718" d="M135.5 212q-0.5 26 5.5 52l135 697q5 26 15 52t28 48q11 13 33 34t47.5 42.5t50 40t39.5 26.5q25 14 55.5 23.5t55.5 9.5h303q25 0 53.5 -9.5t47.5 -23.5q8 -6 18.5 -16.5t21.5 -24.5l13 66h684l-23 -115h-565l-86 -442h535l-23 -115h-535l-88 -442h568l-21 -115h-684 l10 61q-15 -12 -30.5 -22t-24.5 -16q-25 -14 -56.5 -23.5t-55.5 -9.5h-304q-24 0 -51.5 9.5t-46.5 23.5q-12 8 -29.5 26.5t-34 39.5t-31 41.5t-20.5 33.5q-9 22 -9.5 48zM257 237.5q1 -6.5 3 -12.5q6 -16 18.5 -34t26.5 -34.5t27.5 -29t21.5 -16.5q8 -7 25 -7h289 q8 0 15.5 1.5t12.5 5.5q14 6 36 21.5t45.5 35.5t45.5 41t35 39q9 12 12 26l134 697q3 17 0 30q-6 18 -18 36t-25.5 33.5t-27.5 27.5t-26 18q-5 3 -11.5 4.5t-12.5 1.5h-289q-17 0 -29 -6q-13 -6 -34.5 -21.5t-44.5 -35.5t-45 -41t-35 -39q-5 -6 -9 -14.5t-6 -16.5l-133 -696 q-2 -8 -1 -14.5z" />
<glyph unicode="&#x153;" horiz-adv-x="1548" d="M112 177.5q-1 27.5 5 58.5l80 409q6 31 17.5 58.5t31.5 50.5q7 8 21 21.5t29.5 28t31.5 27.5t28 21q29 19 65 29t71 10h204q34 0 66.5 -10t52.5 -29q12 -11 26.5 -29t26.5 -37q19 19 40 37t38 29q29 19 65 29t70 10h205q34 0 66.5 -10t52.5 -29q9 -8 20 -21t21.5 -27.5 t19 -28t13.5 -21.5q20 -45 8 -109l-49 -252h-590l-31 -157q-3 -20 -3.5 -29t1.5 -14q4 -12 11.5 -25t17.5 -25.5t20 -22.5t19 -16q13 -8 35 -8h215q23 0 36 8q14 7 31.5 20t34.5 28t32 30t23 27l107 -37q-19 -25 -40.5 -47.5t-41.5 -41.5t-38 -33t-30 -21q-28 -19 -62.5 -29 t-68.5 -10h-209q-34 0 -66.5 10t-54.5 29q-12 9 -26 27.5t-27 35.5q-18 -17 -40 -35.5t-38 -27.5q-28 -19 -63.5 -29t-69.5 -10h-205q-34 0 -66.5 10t-53.5 29q-9 7 -20 20.5t-21.5 27.5t-18.5 27.5t-12 22.5q-12 23 -13 50.5zM225 188q4 -11 11.5 -23.5t16 -24t18 -21 t18.5 -15.5q13 -8 37 -8h204q24 0 37 8q14 7 32.5 19.5t37 27.5t34.5 31t25 29l5 10t6 15l79 415q2 10 3 19t-1 18q-2 12 -10 25.5t-18.5 25.5t-21.5 22t-19 15q-6 5 -15 6.5t-20 1.5h-205q-22 0 -39 -8q-14 -7 -31 -19t-34 -26.5t-32 -30t-24 -28.5q-5 -6 -8 -15t-6 -20 l-80 -414q-3 -21 0 -35zM868 498h478l28 153q3 16 4.5 23.5t-0.5 13.5q-4 12 -12 25t-18 25.5t-20.5 22.5t-18.5 15q-12 8 -35 8h-207q-21 0 -37 -8q-14 -7 -31 -18.5t-34 -26t-32 -29.5t-24 -28q-5 -6 -7.5 -13.5t-4.5 -15.5z" />
<glyph unicode="&#x154;" horiz-adv-x="1128" d="M100 0l238 1229h553q32 0 62.5 -10.5t50.5 -28.5q8 -8 20.5 -22.5t25.5 -31t23 -31.5t14 -24q23 -46 11 -106l-35 -180q-13 -61 -51 -107q-7 -8 -23 -23t-35 -31t-37 -30.5t-30 -21.5q-29 -19 -60.5 -29t-62.5 -10l201 -543h-129l-199 543h-309l-105 -543h-123zM100 0z M350 657h418q9 0 18.5 2t18.5 7q13 7 31 18.5t36 26t34.5 29.5t25.5 28q5 6 7.5 16t4.5 19l35 180q2 9 3 19t-1 16q-4 12 -12 25.5t-18 26t-20.5 23t-19.5 15.5q-8 5 -16.5 5.5t-17.5 0.5h-439zM557 1366l220 228h149l-262 -265z" />
<glyph unicode="&#x155;" horiz-adv-x="852" d="M94 0l142 735l10 146h112l-4 -103q25 22 47 39t43 31q25 15 55 29t56 14h104q35 0 66 -10t51 -29q9 -8 20 -21t21 -27.5t18 -28t13 -21.5q6 -13 12.5 -25t9.5 -20l-104 -33q-5 12 -14 26.5t-19.5 28.5t-22 26t-22.5 19q-11 8 -35 8h-102q-8 0 -16.5 -1.5t-16.5 -4.5 q-14 -7 -39.5 -21t-53.5 -32t-53.5 -38.5t-39.5 -39.5l-127 -647h-111zM94 0zM448 1079l220 228h149l-262 -265z" />
<glyph unicode="&#x156;" horiz-adv-x="1128" d="M100 0l238 1229h553q32 0 62.5 -10.5t50.5 -28.5q8 -8 20.5 -22.5t25.5 -31t23 -31.5t14 -24q23 -46 11 -106l-35 -180q-13 -61 -51 -107q-7 -8 -23 -23t-35 -31t-37 -30.5t-30 -21.5q-29 -19 -60.5 -29t-62.5 -10l201 -543h-129l-199 543h-309l-105 -543h-123zM100 0z M239 -344l222 266l96 -39l-191 -227h-127zM350 657h418q9 0 18.5 2t18.5 7q13 7 31 18.5t36 26t34.5 29.5t25.5 28q5 6 7.5 16t4.5 19l35 180q2 9 3 19t-1 16q-4 12 -12 25.5t-18 26t-20.5 23t-19.5 15.5q-8 5 -16.5 5.5t-17.5 0.5h-439z" />
<glyph unicode="&#x157;" horiz-adv-x="852" d="M-27 -344l222 266l96 -39l-191 -227h-127zM0 0zM94 0l142 735l10 146h112l-4 -103q25 22 47 39t43 31q25 15 55 29t56 14h104q35 0 66 -10t51 -29q9 -8 20 -21t21 -27.5t18 -28t13 -21.5q6 -13 12.5 -25t9.5 -20l-104 -33q-5 12 -14 26.5t-19.5 28.5t-22 26t-22.5 19 q-11 8 -35 8h-102q-8 0 -16.5 -1.5t-16.5 -4.5q-14 -7 -39.5 -21t-53.5 -32t-53.5 -38.5t-39.5 -39.5l-127 -647h-111z" />
<glyph unicode="&#x158;" horiz-adv-x="1128" d="M100 0l238 1229h553q32 0 62.5 -10.5t50.5 -28.5q8 -8 20.5 -22.5t25.5 -31t23 -31.5t14 -24q23 -46 11 -106l-35 -180q-13 -61 -51 -107q-7 -8 -23 -23t-35 -31t-37 -30.5t-30 -21.5q-29 -19 -60.5 -29t-62.5 -10l201 -543h-129l-199 543h-309l-105 -543h-123zM100 0z M350 657h418q9 0 18.5 2t18.5 7q13 7 31 18.5t36 26t34.5 29.5t25.5 28q5 6 7.5 16t4.5 19l35 180q2 9 3 19t-1 16q-4 12 -12 25.5t-18 26t-20.5 23t-19.5 15.5q-8 5 -16.5 5.5t-17.5 0.5h-439zM532 1590h129l84 -136l135 136h146l-236 -238h-112z" />
<glyph unicode="&#x159;" horiz-adv-x="852" d="M94 0l142 735l10 146h112l-4 -103q25 22 47 39t43 31q25 15 55 29t56 14h104q35 0 66 -10t51 -29q9 -8 20 -21t21 -27.5t18 -28t13 -21.5q6 -13 12.5 -25t9.5 -20l-104 -33q-5 12 -14 26.5t-19.5 28.5t-22 26t-22.5 19q-11 8 -35 8h-102q-8 0 -16.5 -1.5t-16.5 -4.5 q-14 -7 -39.5 -21t-53.5 -32t-53.5 -38.5t-39.5 -39.5l-127 -647h-111zM94 0zM432 1303h129l84 -136l135 136h146l-236 -238h-112z" />
<glyph unicode="&#x15a;" horiz-adv-x="1122" d="M102 0zM102 231l113 29q2 -6 3.5 -10t2.5 -6q1 -3 2 -4q8 -19 20.5 -39t26.5 -37.5t28 -31.5t26 -21q5 -4 11.5 -5.5t14.5 -1.5h328q17 0 27 7q13 6 35 21t45.5 34t45.5 39.5t35 38.5q5 6 8 12t5 14l24 121q3 15 2 31.5t-6 30.5t-14 24.5t-23 14.5l-528 151 q-29 9 -50.5 27.5t-35 44t-18 56.5t2.5 63l25 127q5 26 14.5 52t28.5 48q11 13 33 34t47.5 42.5t50 40t39.5 26.5q25 14 55.5 23.5t55.5 9.5h309q25 0 52.5 -9.5t45.5 -23.5q14 -10 28.5 -26t28 -34t25.5 -36t21 -33q8 -15 16.5 -36.5t13.5 -43.5l-114 -30q-3 9 -6 15 q-2 4 -3 7q-6 18 -17.5 38t-26 38t-29.5 32t-27 21q-6 6 -25 6h-296q-17 0 -29 -6q-13 -6 -34.5 -21t-45 -34t-45 -39.5t-35.5 -38.5q-9 -12 -12 -27l-25 -125q-5 -30 8 -55t39 -33l525 -153q28 -9 50 -27t35.5 -43t18 -55t-1.5 -62l-27 -139q-6 -26 -16 -52t-29 -48 q-11 -13 -32.5 -33.5t-46.5 -41.5t-49.5 -39.5t-39.5 -26.5q-24 -14 -54.5 -23.5t-55.5 -9.5h-340q-25 0 -53.5 9.5t-46.5 23.5q-15 10 -30 26t-28.5 34t-25 36t-19.5 33t-16 36.5t-15 42.5zM659 1366l220 228h149l-262 -265z" />
<glyph unicode="&#x15b;" horiz-adv-x="956" d="M76 0zM76 172l104 35q4 -13 12 -28t18.5 -29.5t22.5 -26.5t23 -19q8 -5 17 -6.5t20 -1.5h248q21 0 34 8q14 7 30.5 18.5t33 25t30.5 28t23 27.5q8 11 13 35l14 67q6 31 -12.5 53t-49.5 25l-333 25q-37 3 -66.5 18t-49 39.5t-27 56.5t0.5 70l13 61q9 61 51 109 q7 8 19 20.5t26 25t28.5 24.5t26.5 20q29 19 65 29t68 10h213q32 0 64.5 -10t52.5 -29q9 -8 20 -21t21.5 -27.5t19 -28t13.5 -21.5q6 -13 12 -25t8 -20l-106 -35q-3 13 -11.5 28t-20 29.5t-23.5 26t-23 18.5q-11 8 -33 8h-219q-23 0 -39 -8q-14 -7 -29.5 -18t-30.5 -24 t-28.5 -27t-22.5 -27q-5 -6 -8 -15t-6 -20l-12 -59q-5 -31 13.5 -51t49.5 -23l334 -27q37 -3 66.5 -18t48.5 -39.5t26.5 -57t-0.5 -69.5l-14 -74q-6 -31 -18.5 -58t-32.5 -50q-8 -9 -20.5 -21t-26.5 -25t-28.5 -25t-26.5 -19q-28 -19 -64 -29t-68 -10h-245q-32 0 -64.5 10 t-54.5 29q-9 7 -20 20t-21 27t-18.5 27t-12.5 22q-6 11 -11 23.5t-7 23.5zM489 1079l220 228h149l-262 -265z" />
<glyph unicode="&#x15c;" horiz-adv-x="1122" d="M102 0zM102 231l113 29q2 -6 3.5 -10t2.5 -6q1 -3 2 -4q8 -19 20.5 -39t26.5 -37.5t28 -31.5t26 -21q5 -4 11.5 -5.5t14.5 -1.5h328q17 0 27 7q13 6 35 21t45.5 34t45.5 39.5t35 38.5q5 6 8 12t5 14l24 121q3 15 2 31.5t-6 30.5t-14 24.5t-23 14.5l-528 151 q-29 9 -50.5 27.5t-35 44t-18 56.5t2.5 63l25 127q5 26 14.5 52t28.5 48q11 13 33 34t47.5 42.5t50 40t39.5 26.5q25 14 55.5 23.5t55.5 9.5h309q25 0 52.5 -9.5t45.5 -23.5q14 -10 28.5 -26t28 -34t25.5 -36t21 -33q8 -15 16.5 -36.5t13.5 -43.5l-114 -30q-3 9 -6 15 q-2 4 -3 7q-6 18 -17.5 38t-26 38t-29.5 32t-27 21q-6 6 -25 6h-296q-17 0 -29 -6q-13 -6 -34.5 -21t-45 -34t-45 -39.5t-35.5 -38.5q-9 -12 -12 -27l-25 -125q-5 -30 8 -55t39 -33l525 -153q28 -9 50 -27t35.5 -43t18 -55t-1.5 -62l-27 -139q-6 -26 -16 -52t-29 -48 q-11 -13 -32.5 -33.5t-46.5 -41.5t-49.5 -39.5t-39.5 -26.5q-24 -14 -54.5 -23.5t-55.5 -9.5h-340q-25 0 -53.5 9.5t-46.5 23.5q-15 10 -30 26t-28.5 34t-25 36t-19.5 33t-16 36.5t-15 42.5zM520 1352l236 238h112l146 -238h-131l-84 139l-136 -139h-143z" />
<glyph unicode="&#x15d;" horiz-adv-x="956" d="M76 0zM76 172l104 35q4 -13 12 -28t18.5 -29.5t22.5 -26.5t23 -19q8 -5 17 -6.5t20 -1.5h248q21 0 34 8q14 7 30.5 18.5t33 25t30.5 28t23 27.5q8 11 13 35l14 67q6 31 -12.5 53t-49.5 25l-333 25q-37 3 -66.5 18t-49 39.5t-27 56.5t0.5 70l13 61q9 61 51 109 q7 8 19 20.5t26 25t28.5 24.5t26.5 20q29 19 65 29t68 10h213q32 0 64.5 -10t52.5 -29q9 -8 20 -21t21.5 -27.5t19 -28t13.5 -21.5q6 -13 12 -25t8 -20l-106 -35q-3 13 -11.5 28t-20 29.5t-23.5 26t-23 18.5q-11 8 -33 8h-219q-23 0 -39 -8q-14 -7 -29.5 -18t-30.5 -24 t-28.5 -27t-22.5 -27q-5 -6 -8 -15t-6 -20l-12 -59q-5 -31 13.5 -51t49.5 -23l334 -27q37 -3 66.5 -18t48.5 -39.5t26.5 -57t-0.5 -69.5l-14 -74q-6 -31 -18.5 -58t-32.5 -50q-8 -9 -20.5 -21t-26.5 -25t-28.5 -25t-26.5 -19q-28 -19 -64 -29t-68 -10h-245q-32 0 -64.5 10 t-54.5 29q-9 7 -20 20t-21 27t-18.5 27t-12.5 22q-6 11 -11 23.5t-7 23.5zM387 1065l236 238h112l146 -238h-131l-84 139l-136 -139h-143z" />
<glyph unicode="&#x15e;" horiz-adv-x="1122" d="M102 0zM102 231l113 29q2 -6 3.5 -10t2.5 -6q1 -3 2 -4q8 -19 20.5 -39t26.5 -37.5t28 -31.5t26 -21q5 -4 11.5 -5.5t14.5 -1.5h328q17 0 27 7q13 6 35 21t45.5 34t45.5 39.5t35 38.5q5 6 8 12t5 14l24 121q3 15 2 31.5t-6 30.5t-14 24.5t-23 14.5l-528 151 q-29 9 -50.5 27.5t-35 44t-18 56.5t2.5 63l25 127q5 26 14.5 52t28.5 48q11 13 33 34t47.5 42.5t50 40t39.5 26.5q25 14 55.5 23.5t55.5 9.5h309q25 0 52.5 -9.5t45.5 -23.5q14 -10 28.5 -26t28 -34t25.5 -36t21 -33q8 -15 16.5 -36.5t13.5 -43.5l-114 -30q-3 9 -6 15 q-2 4 -3 7q-6 18 -17.5 38t-26 38t-29.5 32t-27 21q-6 6 -25 6h-296q-17 0 -29 -6q-13 -6 -34.5 -21t-45 -34t-45 -39.5t-35.5 -38.5q-9 -12 -12 -27l-25 -125q-5 -30 8 -55t39 -33l525 -153q28 -9 50 -27t35.5 -43t18 -55t-1.5 -62l-27 -139q-6 -26 -16 -52t-29 -48 q-11 -13 -32.5 -33.5t-46.5 -41.5t-49.5 -39.5t-39.5 -26.5q-24 -14 -54.5 -23.5t-55.5 -9.5h-340q-25 0 -53.5 9.5t-46.5 23.5q-15 10 -30 26t-28.5 34t-25 36t-19.5 33t-16 36.5t-15 42.5zM280 -344l222 266l96 -39l-191 -227h-127z" />
<glyph unicode="&#x15f;" horiz-adv-x="956" d="M76 0zM76 172l104 35q4 -13 12 -28t18.5 -29.5t22.5 -26.5t23 -19q8 -5 17 -6.5t20 -1.5h248q21 0 34 8q14 7 30.5 18.5t33 25t30.5 28t23 27.5q8 11 13 35l14 67q6 31 -12.5 53t-49.5 25l-333 25q-37 3 -66.5 18t-49 39.5t-27 56.5t0.5 70l13 61q9 61 51 109 q7 8 19 20.5t26 25t28.5 24.5t26.5 20q29 19 65 29t68 10h213q32 0 64.5 -10t52.5 -29q9 -8 20 -21t21.5 -27.5t19 -28t13.5 -21.5q6 -13 12 -25t8 -20l-106 -35q-3 13 -11.5 28t-20 29.5t-23.5 26t-23 18.5q-11 8 -33 8h-219q-23 0 -39 -8q-14 -7 -29.5 -18t-30.5 -24 t-28.5 -27t-22.5 -27q-5 -6 -8 -15t-6 -20l-12 -59q-5 -31 13.5 -51t49.5 -23l334 -27q37 -3 66.5 -18t48.5 -39.5t26.5 -57t-0.5 -69.5l-14 -74q-6 -31 -18.5 -58t-32.5 -50q-8 -9 -20.5 -21t-26.5 -25t-28.5 -25t-26.5 -19q-28 -19 -64 -29t-68 -10h-245q-32 0 -64.5 10 t-54.5 29q-9 7 -20 20t-21 27t-18.5 27t-12.5 22q-6 11 -11 23.5t-7 23.5zM178 -344l222 266l96 -39l-191 -227h-127z" />
<glyph unicode="&#x160;" horiz-adv-x="1122" d="M102 0zM102 231l113 29q2 -6 3.5 -10t2.5 -6q1 -3 2 -4q8 -19 20.5 -39t26.5 -37.5t28 -31.5t26 -21q5 -4 11.5 -5.5t14.5 -1.5h328q17 0 27 7q13 6 35 21t45.5 34t45.5 39.5t35 38.5q5 6 8 12t5 14l24 121q3 15 2 31.5t-6 30.5t-14 24.5t-23 14.5l-528 151 q-29 9 -50.5 27.5t-35 44t-18 56.5t2.5 63l25 127q5 26 14.5 52t28.5 48q11 13 33 34t47.5 42.5t50 40t39.5 26.5q25 14 55.5 23.5t55.5 9.5h309q25 0 52.5 -9.5t45.5 -23.5q14 -10 28.5 -26t28 -34t25.5 -36t21 -33q8 -15 16.5 -36.5t13.5 -43.5l-114 -30q-3 9 -6 15 q-2 4 -3 7q-6 18 -17.5 38t-26 38t-29.5 32t-27 21q-6 6 -25 6h-296q-17 0 -29 -6q-13 -6 -34.5 -21t-45 -34t-45 -39.5t-35.5 -38.5q-9 -12 -12 -27l-25 -125q-5 -30 8 -55t39 -33l525 -153q28 -9 50 -27t35.5 -43t18 -55t-1.5 -62l-27 -139q-6 -26 -16 -52t-29 -48 q-11 -13 -32.5 -33.5t-46.5 -41.5t-49.5 -39.5t-39.5 -26.5q-24 -14 -54.5 -23.5t-55.5 -9.5h-340q-25 0 -53.5 9.5t-46.5 23.5q-15 10 -30 26t-28.5 34t-25 36t-19.5 33t-16 36.5t-15 42.5zM559 1592h129l84 -136l135 136h146l-236 -238h-112z" />
<glyph unicode="&#x161;" horiz-adv-x="956" d="M76 0zM76 172l104 35q4 -13 12 -28t18.5 -29.5t22.5 -26.5t23 -19q8 -5 17 -6.5t20 -1.5h248q21 0 34 8q14 7 30.5 18.5t33 25t30.5 28t23 27.5q8 11 13 35l14 67q6 31 -12.5 53t-49.5 25l-333 25q-37 3 -66.5 18t-49 39.5t-27 56.5t0.5 70l13 61q9 61 51 109 q7 8 19 20.5t26 25t28.5 24.5t26.5 20q29 19 65 29t68 10h213q32 0 64.5 -10t52.5 -29q9 -8 20 -21t21.5 -27.5t19 -28t13.5 -21.5q6 -13 12 -25t8 -20l-106 -35q-3 13 -11.5 28t-20 29.5t-23.5 26t-23 18.5q-11 8 -33 8h-219q-23 0 -39 -8q-14 -7 -29.5 -18t-30.5 -24 t-28.5 -27t-22.5 -27q-5 -6 -8 -15t-6 -20l-12 -59q-5 -31 13.5 -51t49.5 -23l334 -27q37 -3 66.5 -18t48.5 -39.5t26.5 -57t-0.5 -69.5l-14 -74q-6 -31 -18.5 -58t-32.5 -50q-8 -9 -20.5 -21t-26.5 -25t-28.5 -25t-26.5 -19q-28 -19 -64 -29t-68 -10h-245q-32 0 -64.5 10 t-54.5 29q-9 7 -20 20t-21 27t-18.5 27t-12.5 22q-6 11 -11 23.5t-7 23.5zM436 1303h129l84 -136l135 136h146l-236 -238h-112z" />
<glyph unicode="&#x162;" d="M178 0zM178 -344l222 266l96 -39l-191 -227h-127zM231 1114l23 115h819l-22 -115h-349l-215 -1114h-120l215 1114h-351z" />
<glyph unicode="&#x163;" horiz-adv-x="690" d="M143 0zM143 -344l222 266l96 -39l-191 -227h-127zM170 774l20 107h146l67 348h111l-68 -348h271l-21 -107h-270l-102 -536q-2 -11 -3 -22t3 -17q3 -12 9.5 -24.5t15 -24t18 -21t18.5 -14.5q8 -5 19 -7t22 -2h139l-20 -106h-131q-34 0 -65.5 10t-53.5 29q-9 7 -20 20.5 t-21.5 28t-18.5 28t-12 21.5q-12 23 -14 50.5t4 58.5l102 528h-145z" />
<glyph unicode="&#x164;" d="M231 0zM231 1114l23 115h819l-22 -115h-349l-215 -1114h-120l215 1114h-351zM497 1590h129l84 -136l135 136h146l-236 -238h-112z" />
<glyph unicode="&#x165;" horiz-adv-x="770" d="M170 0zM170 774l20 107h146l67 348h111l-68 -348h271l-21 -107h-270l-102 -536q-2 -11 -3 -22t3 -17q3 -12 9.5 -24.5t15 -24t18 -21t18.5 -14.5q8 -5 19 -7t22 -2h139l-20 -106h-131q-34 0 -65.5 10t-53.5 29q-9 7 -20 20.5t-21.5 28t-18.5 28t-12 21.5q-12 23 -14 50.5 t4 58.5l102 528h-145zM844 946l43 139l45 242h108l-51 -268l-35 -113h-110z" />
<glyph unicode="&#x166;" d="M233 1114l23 115h819l-22 -115h-351l-86 -444h185l-21 -107h-184l-109 -563h-118l108 563h-184l20 107h185l86 444h-351z" />
<glyph unicode="&#x167;" horiz-adv-x="690" d="M127 557l23 109h143l22 108h-145l20 107h146l67 348h111l-68 -348h271l-21 -107h-270l-20 -108h270l-23 -109h-268l-61 -319q-2 -11 -3 -22t3 -17q3 -12 9.5 -24.5t15 -24t18 -21t18.5 -14.5q8 -5 19 -7t22 -2h139l-20 -106h-131q-34 0 -65.5 10t-53.5 29q-9 7 -20 20.5 t-21.5 28t-18.5 28t-12 21.5q-12 23 -14 50.5t4 58.5l59 311h-145z" />
<glyph unicode="&#x168;" horiz-adv-x="1120" d="M139 0zM150 262l188 967h121l-189 -977q-2 -8 -1 -14.5t3 -12.5q6 -16 18.5 -34t26 -34.5t26.5 -29t22 -16.5q8 -7 24 -7h254q8 0 16 1.5t13 5.5q14 6 36 21.5t45.5 35.5t45.5 41t35 39q5 6 8.5 12t5.5 14l184 955h121l-188 -967q-5 -26 -15 -51t-28 -47 q-11 -13 -32.5 -33.5t-46 -41.5t-48.5 -39.5t-39 -26.5q-25 -14 -55.5 -23.5t-55.5 -9.5h-274q-25 0 -53.5 9.5t-47.5 23.5q-12 8 -29 26.5t-33.5 39.5t-30 41.5t-19.5 33.5q-19 43 -8 98zM473 1397q18 36 44.5 63t58.5 43.5t67 21t70 -4.5l141 -37q32 -5 62 10.5t44 44.5 l109 -26q-18 -36 -44.5 -63.5t-58.5 -44t-67 -20.5t-70 5l-141 37q-16 2 -32 -1t-30.5 -10.5t-25.5 -18.5t-18 -26z" />
<glyph unicode="&#x169;" horiz-adv-x="971" d="M113 0zM114 177.5q-1 27.5 5 58.5l125 645h110l-125 -654q-2 -11 -3 -19.5t1 -14.5q4 -12 11.5 -25t17 -25.5t19 -22.5t18.5 -16q13 -8 37 -8h153q17 0 29 6q15 7 39.5 21t51 31.5t51.5 37t40 37.5l127 652h111l-144 -736l-8 -145h-110l2 100q-22 -20 -46 -37.5 t-42 -29.5q-25 -16 -55 -29.5t-56 -13.5h-154q-34 0 -66.5 10t-53.5 29q-9 7 -20 20.5t-21.5 27.5t-18.5 27.5t-12 22.5q-12 23 -13 50.5zM330 1110q18 36 44.5 63t58.5 43.5t67 21t70 -4.5l141 -37q32 -5 62 10.5t44 44.5l109 -26q-18 -36 -44.5 -63.5t-58.5 -44t-67 -20.5 t-70 5l-141 37q-16 2 -32 -1t-30.5 -10.5t-25.5 -18.5t-18 -26z" />
<glyph unicode="&#x16a;" horiz-adv-x="1120" d="M139 0zM150 262l188 967h121l-189 -977q-2 -8 -1 -14.5t3 -12.5q6 -16 18.5 -34t26 -34.5t26.5 -29t22 -16.5q8 -7 24 -7h254q8 0 16 1.5t13 5.5q14 6 36 21.5t45.5 35.5t45.5 41t35 39q5 6 8.5 12t5.5 14l184 955h121l-188 -967q-5 -26 -15 -51t-28 -47 q-11 -13 -32.5 -33.5t-46 -41.5t-48.5 -39.5t-39 -26.5q-25 -14 -55.5 -23.5t-55.5 -9.5h-274q-25 0 -53.5 9.5t-47.5 23.5q-12 8 -29 26.5t-33.5 39.5t-30 41.5t-19.5 33.5q-19 43 -8 98zM528 1424l21 102h520l-20 -102h-521z" />
<glyph unicode="&#x16b;" horiz-adv-x="971" d="M113 0zM114 177.5q-1 27.5 5 58.5l125 645h110l-125 -654q-2 -11 -3 -19.5t1 -14.5q4 -12 11.5 -25t17 -25.5t19 -22.5t18.5 -16q13 -8 37 -8h153q17 0 29 6q15 7 39.5 21t51 31.5t51.5 37t40 37.5l127 652h111l-144 -736l-8 -145h-110l2 100q-22 -20 -46 -37.5 t-42 -29.5q-25 -16 -55 -29.5t-56 -13.5h-154q-34 0 -66.5 10t-53.5 29q-9 7 -20 20.5t-21.5 27.5t-18.5 27.5t-12 22.5q-12 23 -13 50.5zM370 1137l21 102h520l-20 -102h-521z" />
<glyph unicode="&#x16c;" horiz-adv-x="1120" d="M139 0zM150 262l188 967h121l-189 -977q-2 -8 -1 -14.5t3 -12.5q6 -16 18.5 -34t26 -34.5t26.5 -29t22 -16.5q8 -7 24 -7h254q8 0 16 1.5t13 5.5q14 6 36 21.5t45.5 35.5t45.5 41t35 39q5 6 8.5 12t5.5 14l184 955h121l-188 -967q-5 -26 -15 -51t-28 -47 q-11 -13 -32.5 -33.5t-46 -41.5t-48.5 -39.5t-39 -26.5q-25 -14 -55.5 -23.5t-55.5 -9.5h-274q-25 0 -53.5 9.5t-47.5 23.5q-12 8 -29 26.5t-33.5 39.5t-30 41.5t-19.5 33.5q-19 43 -8 98zM623 1464q-8 35 0 76h72q-5 -24 0 -45t17.5 -36.5t31.5 -25t43 -9.5t47 9.5t42.5 25 t33 36.5t18.5 45h84q-8 -41 -30 -76t-53.5 -61.5t-70.5 -41.5t-79 -15q-41 0 -73.5 15t-53.5 41.5t-29 61.5z" />
<glyph unicode="&#x16d;" horiz-adv-x="971" d="M113 0zM114 177.5q-1 27.5 5 58.5l125 645h110l-125 -654q-2 -11 -3 -19.5t1 -14.5q4 -12 11.5 -25t17 -25.5t19 -22.5t18.5 -16q13 -8 37 -8h153q17 0 29 6q15 7 39.5 21t51 31.5t51.5 37t40 37.5l127 652h111l-144 -736l-8 -145h-110l2 100q-22 -20 -46 -37.5 t-42 -29.5q-25 -16 -55 -29.5t-56 -13.5h-154q-34 0 -66.5 10t-53.5 29q-9 7 -20 20.5t-21.5 27.5t-18.5 27.5t-12 22.5q-12 23 -13 50.5zM469 1177q-8 35 0 76h72q-5 -24 0 -45t17.5 -36.5t31.5 -25t43 -9.5t47 9.5t42.5 25t33 36.5t18.5 45h84q-8 -41 -30 -76t-53.5 -61.5 t-70.5 -41.5t-79 -15q-41 0 -73.5 15t-53.5 41.5t-29 61.5z" />
<glyph unicode="&#x16e;" horiz-adv-x="1120" d="M139 0zM150 262l188 967h121l-189 -977q-2 -8 -1 -14.5t3 -12.5q6 -16 18.5 -34t26 -34.5t26.5 -29t22 -16.5q8 -7 24 -7h254q8 0 16 1.5t13 5.5q14 6 36 21.5t45.5 35.5t45.5 41t35 39q5 6 8.5 12t5.5 14l184 955h121l-188 -967q-5 -26 -15 -51t-28 -47 q-11 -13 -32.5 -33.5t-46 -41.5t-48.5 -39.5t-39 -26.5q-25 -14 -55.5 -23.5t-55.5 -9.5h-274q-25 0 -53.5 9.5t-47.5 23.5q-12 8 -29 26.5t-33.5 39.5t-30 41.5t-19.5 33.5q-19 43 -8 98zM619 1534q7 41 28 76.5t51.5 62t68.5 41.5t81 15q39 0 71.5 -15t54.5 -41.5 t31.5 -62t2.5 -76.5q-8 -41 -29.5 -76t-53 -61.5t-71 -41.5t-82.5 -15q-38 0 -70 15t-53 41.5t-29.5 61.5t-0.5 76zM701 1534q-8 -57 15 -87t73 -30q23 0 46 10.5t42 27t32 37.5t17 42q5 26 0 47.5t-18 37t-32 24t-42 8.5t-45.5 -10t-40.5 -26.5t-30.5 -37.5t-16.5 -43z" />
<glyph unicode="&#x16f;" horiz-adv-x="971" d="M113 0zM114 177.5q-1 27.5 5 58.5l125 645h110l-125 -654q-2 -11 -3 -19.5t1 -14.5q4 -12 11.5 -25t17 -25.5t19 -22.5t18.5 -16q13 -8 37 -8h153q17 0 29 6q15 7 39.5 21t51 31.5t51.5 37t40 37.5l127 652h111l-144 -736l-8 -145h-110l2 100q-22 -20 -46 -37.5 t-42 -29.5q-25 -16 -55 -29.5t-56 -13.5h-154q-34 0 -66.5 10t-53.5 29q-9 7 -20 20.5t-21.5 27.5t-18.5 27.5t-12 22.5q-12 23 -13 50.5zM475 1247q7 41 28 76.5t51.5 62t68.5 41.5t81 15q39 0 71.5 -15t54.5 -41.5t31.5 -62t2.5 -76.5q-8 -41 -29.5 -76t-53 -61.5 t-71 -41.5t-82.5 -15q-38 0 -70 15t-53 41.5t-29.5 61.5t-0.5 76zM557 1247q-8 -57 15 -87t73 -30q23 0 46 10.5t42 27t32 37.5t17 42q5 26 0 47.5t-18 37t-32 24t-42 8.5t-45.5 -10t-40.5 -26.5t-30.5 -37.5t-16.5 -43z" />
<glyph unicode="&#x170;" horiz-adv-x="1120" d="M139 0zM150 262l188 967h121l-189 -977q-2 -8 -1 -14.5t3 -12.5q6 -16 18.5 -34t26 -34.5t26.5 -29t22 -16.5q8 -7 24 -7h254q8 0 16 1.5t13 5.5q14 6 36 21.5t45.5 35.5t45.5 41t35 39q5 6 8.5 12t5.5 14l184 955h121l-188 -967q-5 -26 -15 -51t-28 -47 q-11 -13 -32.5 -33.5t-46 -41.5t-48.5 -39.5t-39 -26.5q-25 -14 -55.5 -23.5t-55.5 -9.5h-274q-25 0 -53.5 9.5t-47.5 23.5q-12 8 -29 26.5t-33.5 39.5t-30 41.5t-19.5 33.5q-19 43 -8 98zM579 1355l219 228h136l-263 -265zM780 1355l219 228h135l-262 -265z" />
<glyph unicode="&#x171;" horiz-adv-x="971" d="M113 0zM114 177.5q-1 27.5 5 58.5l125 645h110l-125 -654q-2 -11 -3 -19.5t1 -14.5q4 -12 11.5 -25t17 -25.5t19 -22.5t18.5 -16q13 -8 37 -8h153q17 0 29 6q15 7 39.5 21t51 31.5t51.5 37t40 37.5l127 652h111l-144 -736l-8 -145h-110l2 100q-22 -20 -46 -37.5 t-42 -29.5q-25 -16 -55 -29.5t-56 -13.5h-154q-34 0 -66.5 10t-53.5 29q-9 7 -20 20.5t-21.5 27.5t-18.5 27.5t-12 22.5q-12 23 -13 50.5zM432 1079l219 228h136l-263 -265zM633 1079l219 228h135l-262 -265z" />
<glyph unicode="&#x172;" horiz-adv-x="1120" d="M139 0zM150 262l188 967h121l-189 -977q-2 -8 -1 -14.5t3 -12.5q6 -16 18.5 -34t26 -34.5t26.5 -29t22 -16.5q8 -7 24 -7h254q8 0 16 1.5t13 5.5q14 6 36 21.5t45.5 35.5t45.5 41t35 39q5 6 8.5 12t5.5 14l184 955h121l-188 -967q-5 -26 -15 -51t-28 -47 q-11 -13 -32.5 -33.5t-46 -41.5t-48.5 -39.5t-39 -26.5q-25 -14 -55.5 -23.5t-55.5 -9.5h-274q-25 0 -53.5 9.5t-47.5 23.5q-12 8 -29 26.5t-33.5 39.5t-30 41.5t-19.5 33.5q-19 43 -8 98zM406 -117l94 39l119 -266h-109z" />
<glyph unicode="&#x173;" horiz-adv-x="971" d="M113 0zM114 177.5q-1 27.5 5 58.5l125 645h110l-125 -654q-2 -11 -3 -19.5t1 -14.5q4 -12 11.5 -25t17 -25.5t19 -22.5t18.5 -16q13 -8 37 -8h153q17 0 29 6q15 7 39.5 21t51 31.5t51.5 37t40 37.5l127 652h111l-144 -736l-8 -145h-110l2 100q-22 -20 -46 -37.5 t-42 -29.5q-25 -16 -55 -29.5t-56 -13.5h-154q-34 0 -66.5 10t-53.5 29q-9 7 -20 20.5t-21.5 27.5t-18.5 27.5t-12 22.5q-12 23 -13 50.5zM309 -117l94 39l119 -266h-109z" />
<glyph unicode="&#x174;" horiz-adv-x="1499" d="M248 0zM248 1229h119l16 -1100h12l455 1100h154l38 -1100h13l434 1100h129l-504 -1229h-170l-43 1071l-448 -1071h-170zM706 1352l236 238h112l146 -238h-131l-84 139l-136 -139h-143z" />
<glyph unicode="&#x175;" horiz-adv-x="1360" d="M180 0zM180 881h113l61 -762h13l350 762h153l64 -762h12l348 762h119l-414 -881h-153l-72 752l-354 -752h-154zM569 1065l236 238h112l146 -238h-131l-84 139l-136 -139h-143z" />
<glyph unicode="&#x176;" horiz-adv-x="915" d="M217 0zM217 1229h123l197 -584l426 584h137l-518 -705l-101 -524h-121l101 524zM420 1352l236 238h112l146 -238h-131l-84 139l-136 -139h-143z" />
<glyph unicode="&#x177;" horiz-adv-x="860" d="M156 0zM156 -344l184 344h-43l-117 881h115l92 -768h12l392 768h122l-637 -1225h-120zM311 1065l236 238h112l146 -238h-131l-84 139l-136 -139h-143z" />
<glyph unicode="&#x178;" horiz-adv-x="915" d="M217 1229h123l197 -584l426 584h137l-518 -705l-101 -524h-121l101 524zM449 1368l30 158h156l-31 -158h-155zM748 1368l30 158h156l-31 -158h-155z" />
<glyph unicode="&#x179;" horiz-adv-x="983" d="M78 0l18 102l797 1012h-600l22 115h746l-21 -107l-792 -1007h596l-21 -115h-745zM78 0zM645 1366l220 228h149l-262 -265z" />
<glyph unicode="&#x17a;" horiz-adv-x="864" d="M78 0l18 98l590 676h-475l20 107h617l-19 -101l-587 -674h479l-21 -106h-622zM78 0zM460 1079l220 228h149l-262 -265z" />
<glyph unicode="&#x17b;" horiz-adv-x="983" d="M78 0l18 102l797 1012h-600l22 115h746l-21 -107l-792 -1007h596l-21 -115h-745zM643 1368l31 158h155l-30 -158h-156z" />
<glyph unicode="&#x17c;" horiz-adv-x="864" d="M78 0l18 98l590 676h-475l20 107h617l-19 -101l-587 -674h479l-21 -106h-622zM502 1081l30 158h156l-31 -158h-155z" />
<glyph unicode="&#x17d;" horiz-adv-x="983" d="M78 0l18 102l797 1012h-600l22 115h746l-21 -107l-792 -1007h596l-21 -115h-745zM78 0zM512 1592h129l84 -136l135 136h146l-236 -238h-112z" />
<glyph unicode="&#x17e;" horiz-adv-x="864" d="M78 0l18 98l590 676h-475l20 107h617l-19 -101l-587 -674h479l-21 -106h-622zM78 0zM395 1303h129l84 -136l135 136h146l-236 -238h-112z" />
<glyph unicode="&#x17f;" horiz-adv-x="606" d="M186 0l150 774h-146l21 107h145l23 112q6 31 17.5 58.5t31.5 50.5l21.5 21.5t29.5 28t32 27.5t28 21q29 19 65 28t70 9h131l-21 -107h-120q-11 0 -23.5 -0.5t-22.5 -5.5q-14 -7 -31 -19.5t-33.5 -27.5t-31.5 -30.5t-24 -28.5q-5 -6 -7.5 -16t-5.5 -21l-188 -981h-111z " />
<glyph unicode="&#x18f;" horiz-adv-x="1182" d="M136 211q-2 25 3 51l82 416h742l55 295q3 16 0 31q-7 18 -19 35.5t-26 32.5t-28 26.5t-25 17.5q-8 6 -25 6h-301q-8 0 -16.5 -1.5t-14.5 -4.5q-18 -8 -42.5 -25.5t-50 -39t-48.5 -45.5t-37 -45l-111 34q13 22 30.5 42.5t31.5 35.5t32.5 33.5t39.5 37t42 34.5t39 26 q23 14 55.5 23.5t57.5 9.5h316q24 0 52 -9.5t48 -23.5q12 -8 28 -26.5t32.5 -40t30 -42.5t19.5 -34q10 -22 11.5 -48t-4.5 -52l-136 -699q-5 -26 -15.5 -51t-29.5 -47q-11 -13 -32.5 -33.5t-46 -41.5t-49 -39.5t-40.5 -26.5q-23 -14 -55 -23.5t-57 -9.5h-316q-24 0 -52 9.5 t-48 23.5q-12 8 -28 26.5t-32.5 39.5t-30.5 41.5t-20 33.5q-9 22 -11 47zM258 231q7 -18 18 -36.5t24.5 -35t27 -29.5t24.5 -19q3 -4 11 -5.5t16 -1.5h295q8 0 16 1.5t15 5.5q13 6 35.5 21.5t47 35.5t47 41t35.5 39q10 12 13 26l37 191l20 100h-623l-59 -307q-3 -14 0 -27z " />
<glyph unicode="&#x192;" horiz-adv-x="627" d="M-147 -352l20 106h119q9 0 18 0.5t19 5.5q14 7 31.5 20t35.5 28.5t33.5 31.5t24.5 29q5 6 8 15t6 20l168 870h-146l21 107h143h2l23 112q6 31 17.5 58.5t31.5 50.5l21.5 21.5t29.5 28t32 27.5t28 21q29 19 65 28t70 9h131l-21 -107h-122q-11 0 -23.5 -0.5t-22.5 -5.5 q-14 -7 -30.5 -19.5t-33 -27.5t-31 -30.5t-23.5 -28.5q-5 -6 -7.5 -16t-5.5 -21l-18 -100h154l-21 -107h-154l-149 -774l-23 -109q-6 -31 -18.5 -58t-32.5 -50q-8 -9 -21.5 -22.5t-29 -27.5t-31.5 -27.5t-28 -20.5q-29 -19 -64.5 -28t-66.5 -9h-129z" />
<glyph unicode="&#x1dd;" horiz-adv-x="965" d="M105 0zM117 236l49 252h590l33 166q3 22 0 34q-4 12 -12 25t-17.5 25.5t-19.5 22.5t-19 16q-13 8 -35 8h-215q-22 0 -37 -8q-13 -7 -30.5 -20t-34.5 -28t-32 -30t-23 -27l-107 37q19 25 40.5 47.5t41.5 41.5t38 33t30 21q27 19 62 29t69 10h209q34 0 66.5 -10t53.5 -29 q9 -7 20 -20.5t21.5 -27.5t18.5 -27.5t12 -22.5q12 -23 14 -50.5t-4 -58.5l-80 -409q-6 -31 -18.5 -58.5t-32.5 -50.5q-7 -8 -21 -21.5t-29.5 -28t-31.5 -27.5t-28 -21q-29 -19 -65.5 -29t-70.5 -10h-204q-34 0 -66.5 10t-52.5 29q-9 8 -20 21t-21.5 27.5t-19 28t-13.5 21.5 q-20 45 -8 109zM224.5 206.5q-1.5 -7.5 0.5 -13.5q4 -12 12.5 -25t18.5 -25.5t20.5 -22.5t18.5 -15q6 -5 15 -6.5t20 -1.5h207q20 0 37 8q14 7 31 18.5t33.5 26t31.5 29.5t24 28q5 6 8.5 15t6.5 20l26 141h-477l-28 -153q-4 -16 -5.5 -23.5z" />
<glyph unicode="&#x1fc;" horiz-adv-x="1522" d="M-6 0l649 1229h901l-22 -115h-551l-86 -442h522l-23 -115h-522l-86 -442h551l-20 -115h-672l53 283h-414l-145 -283h-135zM0 0zM332 397h379l139 717h-143zM940 1427l220 228h149l-262 -265z" />
<glyph unicode="&#x1fd;" horiz-adv-x="1530" d="M80 0zM81.5 175.5q-1.5 27.5 4.5 57.5l8 41q12 62 51 109q8 9 21.5 22t29 26.5t31 26.5t27.5 21q28 19 63 29t70 10h354l29 152v20q-4 12 -11.5 24.5t-17.5 24.5t-20 22t-19 15q-11 8 -34 8h-197q-21 0 -37 -8q-14 -7 -30 -18.5t-32 -26t-30.5 -29.5t-26.5 -28l-106 35 q6 8 15.5 20.5t23.5 26.5q9 10 23 23t29.5 27t31 26.5t28.5 21.5q28 19 61 28t68 9h189q35 0 67 -10t52 -29q14 -9 27.5 -28t25.5 -38q18 19 41 37t39 29q29 19 65 29t70 10h205q34 0 66.5 -10t52.5 -29q9 -8 20 -21t21 -27.5t18.5 -28t13.5 -21.5q22 -45 8 -109l-47 -244 h-592l-36 -184q-2 -8 -1 -12.5t3 -9.5q4 -12 12 -25.5t18 -26t20.5 -23t18.5 -16.5q15 -8 35 -8h215q11 0 20 1.5t17 6.5q35 19 62.5 44t41.5 40l17 21l106 -37q-9 -12 -17.5 -22.5t-19.5 -22.5q-8 -9 -22 -22.5t-30 -27.5t-32 -27.5t-28 -20.5q-28 -19 -62.5 -29t-68.5 -10 h-209q-34 0 -66.5 10t-54.5 29q-12 9 -27 29t-26 38q-20 -18 -42.5 -38t-37.5 -29q-28 -19 -63.5 -29t-69.5 -10h-219q-35 0 -66 10t-53 29q-9 8 -19.5 21t-20.5 26.5t-19 26.5t-13 22q-11 23 -12.5 50.5zM192 205.5q-1 -8.5 3 -15.5q3 -11 10.5 -24t17 -25t19.5 -21.5 t18 -15.5q8 -5 17 -6.5t20 -1.5h217q11 0 20 1.5t17 6.5q14 7 32 19.5t36 27.5t34 31t25 29q2 3 3 6.5t3 9.5l37 185h-346q-11 0 -21 -2t-18 -7q-14 -7 -31 -19t-34 -26.5t-32 -30t-24 -28.5q-9 -12 -12 -33l-8 -43q-2 -9 -3 -17.5zM786 1079l220 228h149l-262 -265z M852 508h479l27 145q2 13 3 21t-1 14q-4 12 -11.5 25t-16.5 25.5t-19 22.5t-19 15q-11 8 -34 8h-211q-21 0 -37 -8q-14 -7 -31.5 -19t-35 -26.5t-32.5 -30t-24 -28.5q-9 -9 -12 -25z" />
<glyph unicode="&#x1fe;" horiz-adv-x="1153" d="M109 0zM109 -55l92 137q-19 22 -34 45t-22 37q-9 22 -9.5 48t5.5 52l135 697q5 26 15 52t28 48q11 13 33 34t47.5 42.5t50 40t39.5 26.5q25 14 55.5 23.5t55.5 9.5h324q12 0 25.5 -2.5t27.5 -7.5l33 49h125l-74 -109q23 -26 43.5 -57.5t30.5 -48.5q9 -22 11 -48t-3 -52 l-135 -697q-7 -26 -18 -52t-29 -48q-11 -13 -32.5 -33.5t-46 -41.5t-48.5 -39.5t-39 -26.5q-25 -14 -56.5 -23.5t-56.5 -9.5h-324q-20 0 -40.5 5.5t-38.5 14.5l-43 -65h-127zM259 235.5q1 -6.5 3 -12.5q3 -8 6 -15t8 -15l629 929h-307q-16 0 -29 -6t-34.5 -21t-44.5 -34.5 t-45 -40.5t-35 -39q-12 -14 -15 -31l-135 -700q-2 -8 -1 -14.5zM348 113q0 -2 4 -2q8 -7 25 -7h307q8 0 16 1.5t13 5.5q14 6 36 21t45.5 34.5t45 40.5t34.5 39q10 12 13 26l135 701q3 16 0 31q-5 14 -13.5 28.5t-19.5 28.5zM610 1427l220 228h149l-262 -265z" />
<glyph unicode="&#x1ff;" horiz-adv-x="967" d="M111 0zM112 177.5q-1 27.5 5 58.5l80 409q6 31 17.5 58.5t31.5 50.5q7 8 21 21.5t29.5 28t31.5 27.5t28 21q29 19 65 29t71 10h204q25 0 49 -6l31 45h111l-60 -90q9 -9 18 -21.5t17.5 -24.5t15.5 -22.5t11 -17.5q20 -45 8 -109l-80 -409q-6 -31 -19 -61t-32 -50 q-9 -9 -22.5 -22t-29 -27t-31.5 -27t-28 -20q-28 -19 -63.5 -29t-69.5 -10h-205q-24 0 -49 6l-28 -45h-113l57 88q-8 9 -17.5 21t-17.5 24t-14.5 23.5t-9.5 19.5q-12 23 -13 50.5zM225 188q3 -12 10.5 -24t16.5 -25l428 645h-201q-22 0 -39 -8q-14 -7 -31 -19t-34 -26.5 t-32 -30t-24 -28.5q-5 -6 -8 -15t-6 -20l-80 -414q-3 -21 0 -35zM334 96h196q24 0 37 8q14 7 32 19.5t36 27.5t34 31t25 29q5 6 8 14t5 19l77 407q2 10 3 19t-1 18q-6 26 -26 49zM493 1079l220 228h149l-262 -265z" />
<glyph unicode="&#x218;" horiz-adv-x="1122" d="M102 0zM102 231l113 29q2 -6 3.5 -10t2.5 -6q1 -3 2 -4q8 -19 20.5 -39t26.5 -37.5t28 -31.5t26 -21q5 -4 11.5 -5.5t14.5 -1.5h328q17 0 27 7q13 6 35 21t45.5 34t45.5 39.5t35 38.5q5 6 8 12t5 14l24 121q3 15 2 31.5t-6 30.5t-14 24.5t-23 14.5l-528 151 q-29 9 -50.5 27.5t-35 44t-18 56.5t2.5 63l25 127q5 26 14.5 52t28.5 48q11 13 33 34t47.5 42.5t50 40t39.5 26.5q25 14 55.5 23.5t55.5 9.5h309q25 0 52.5 -9.5t45.5 -23.5q14 -10 28.5 -26t28 -34t25.5 -36t21 -33q8 -15 16.5 -36.5t13.5 -43.5l-114 -30q-3 9 -6 15 q-2 4 -3 7q-6 18 -17.5 38t-26 38t-29.5 32t-27 21q-6 6 -25 6h-296q-17 0 -29 -6q-13 -6 -34.5 -21t-45 -34t-45 -39.5t-35.5 -38.5q-9 -12 -12 -27l-25 -125q-5 -30 8 -55t39 -33l525 -153q28 -9 50 -27t35.5 -43t18 -55t-1.5 -62l-27 -139q-6 -26 -16 -52t-29 -48 q-11 -13 -32.5 -33.5t-46.5 -41.5t-49.5 -39.5t-39.5 -26.5q-24 -14 -54.5 -23.5t-55.5 -9.5h-340q-25 0 -53.5 9.5t-46.5 23.5q-15 10 -30 26t-28.5 34t-25 36t-19.5 33t-16 36.5t-15 42.5zM321 -344l222 266l96 -39l-191 -227h-127z" />
<glyph unicode="&#x219;" horiz-adv-x="956" d="M76 0zM76 172l104 35q4 -13 12 -28t18.5 -29.5t22.5 -26.5t23 -19q8 -5 17 -6.5t20 -1.5h248q21 0 34 8q14 7 30.5 18.5t33 25t30.5 28t23 27.5q8 11 13 35l14 67q6 31 -12.5 53t-49.5 25l-333 25q-37 3 -66.5 18t-49 39.5t-27 56.5t0.5 70l13 61q9 61 51 109 q7 8 19 20.5t26 25t28.5 24.5t26.5 20q29 19 65 29t68 10h213q32 0 64.5 -10t52.5 -29q9 -8 20 -21t21.5 -27.5t19 -28t13.5 -21.5q6 -13 12 -25t8 -20l-106 -35q-3 13 -11.5 28t-20 29.5t-23.5 26t-23 18.5q-11 8 -33 8h-219q-23 0 -39 -8q-14 -7 -29.5 -18t-30.5 -24 t-28.5 -27t-22.5 -27q-5 -6 -8 -15t-6 -20l-12 -59q-5 -31 13.5 -51t49.5 -23l334 -27q37 -3 66.5 -18t48.5 -39.5t26.5 -57t-0.5 -69.5l-14 -74q-6 -31 -18.5 -58t-32.5 -50q-8 -9 -20.5 -21t-26.5 -25t-28.5 -25t-26.5 -19q-28 -19 -64 -29t-68 -10h-245q-32 0 -64.5 10 t-54.5 29q-9 7 -20 20t-21 27t-18.5 27t-12.5 22q-6 11 -11 23.5t-7 23.5zM219 -344l222 266l96 -39l-191 -227h-127z" />
<glyph unicode="&#x21a;" d="M178 0zM178 -344l222 266l96 -39l-191 -227h-127zM231 1114l23 115h819l-22 -115h-349l-215 -1114h-120l215 1114h-351z" />
<glyph unicode="&#x21b;" horiz-adv-x="690" d="M170 0zM170 774l20 107h146l67 348h111l-68 -348h271l-21 -107h-270l-102 -536q-2 -11 -3 -22t3 -17q3 -12 9.5 -24.5t15 -24t18 -21t18.5 -14.5q8 -5 19 -7t22 -2h139l-20 -106h-131q-34 0 -65.5 10t-53.5 29q-9 7 -20 20.5t-21.5 28t-18.5 28t-12 21.5q-12 23 -14 50.5 t4 58.5l102 528h-145zM178 -344l222 266l96 -39l-191 -227h-127z" />
<glyph unicode="&#x2c6;" horiz-adv-x="868" d="M387 1065l236 238h112l146 -238h-131l-84 139l-136 -139h-143z" />
<glyph unicode="&#x2c7;" horiz-adv-x="868" d="M436 1303h129l84 -136l135 136h146l-236 -238h-112z" />
<glyph unicode="&#x2d8;" horiz-adv-x="698" d="M379 1177q-8 35 0 76h72q-5 -24 0 -45t17.5 -36.5t31.5 -25t43 -9.5t47 9.5t42.5 25t33 36.5t18.5 45h84q-8 -41 -30 -76t-53.5 -61.5t-70.5 -41.5t-79 -15q-41 0 -73.5 15t-53.5 41.5t-29 61.5z" />
<glyph unicode="&#x2d9;" horiz-adv-x="422" d="M303 1081l31 158h155l-30 -158h-156z" />
<glyph unicode="&#x2da;" horiz-adv-x="766" d="M379 1247q7 41 28 76.5t51.5 62t68.5 41.5t81 15q39 0 71.5 -15t54.5 -41.5t31.5 -62t2.5 -76.5q-8 -41 -29.5 -76t-53 -61.5t-71 -41.5t-82.5 -15q-38 0 -70 15t-53 41.5t-29.5 61.5t-0.5 76zM461 1247q-8 -57 15 -87t73 -30q23 0 46 10.5t42 27t32 37.5t17 42 q5 26 0 47.5t-18 37t-32 24t-42 8.5t-45.5 -10t-40.5 -26.5t-30.5 -37.5t-16.5 -43z" />
<glyph unicode="&#x2db;" horiz-adv-x="831" d="M289 -117l94 39l119 -266h-109z" />
<glyph unicode="&#x2dc;" horiz-adv-x="862" d="M344 1110q18 36 44.5 63t58.5 43.5t67 21t70 -4.5l141 -37q32 -5 62 10.5t44 44.5l109 -26q-18 -36 -44.5 -63.5t-58.5 -44t-67 -20.5t-70 5l-141 37q-16 2 -32 -1t-30.5 -10.5t-25.5 -18.5t-18 -26z" />
<glyph unicode="&#x2dd;" horiz-adv-x="760" d="M436 1079l219 228h136l-263 -265zM637 1079l219 228h135l-262 -265z" />
<glyph unicode="&#x384;" horiz-adv-x="760" d="M285 1065l137 276l102 -22l-125 -254h-114z" />
<glyph unicode="&#x385;" horiz-adv-x="743" d="M100 1081l31 158h156l-31 -158h-156zM301 1065l137 276l94 -22l-124 -254h-107zM526 1081l31 158h156l-31 -158h-156z" />
<glyph unicode="&#x386;" horiz-adv-x="1100" d="M-6 0l649 1229h184l174 -1229h-118l-37 285h-572l-149 -285h-131zM0 0zM189 1065l137 276l102 -22l-125 -254h-114zM332 399h497l-96 713h-28z" />
<glyph unicode="&#x388;" horiz-adv-x="1155" d="M123 0zM123 1065l137 276l102 -22l-125 -254h-114zM235 0l238 1229h704l-22 -115h-582l-86 -442h551l-22 -115h-551l-86 -442h581l-20 -115h-705z" />
<glyph unicode="&#x389;" horiz-adv-x="1274" d="M123 0zM123 1065l137 276l102 -22l-125 -254h-114zM235 0l238 1229h121l-109 -557h576l108 557h121l-237 -1229h-121l106 557h-575l-107 -557h-121z" />
<glyph unicode="&#x38a;" horiz-adv-x="578" d="M123 0zM123 1065l137 276l102 -22l-125 -254h-114zM233 0l238 1229h121l-238 -1229h-121z" />
<glyph unicode="&#x38c;" horiz-adv-x="1296" d="M144 0zM144 1065l137 276l102 -22l-125 -254h-114zM278.5 212q-0.5 26 5.5 52l135 697q5 26 15 52t28 48q11 13 33 34t47.5 42.5t50 40t39.5 26.5q25 14 55.5 23.5t55.5 9.5h324q24 0 52.5 -9.5t47.5 -23.5q12 -8 28.5 -26.5t33 -40t30 -42.5t19.5 -34q9 -22 11 -48 t-3 -52l-135 -697q-7 -26 -18 -52t-29 -48q-11 -13 -32.5 -33.5t-46 -41.5t-48.5 -39.5t-39 -26.5q-25 -14 -56.5 -23.5t-56.5 -9.5h-324q-24 0 -51.5 9.5t-46.5 23.5q-12 8 -29.5 26.5t-34 39.5t-31 41.5t-20.5 33.5q-9 22 -9.5 48zM402 235.5q1 -6.5 3 -12.5q6 -16 18 -34 t25 -33.5t26 -28t21 -16.5q8 -7 25 -7h307q8 0 16 1.5t13 5.5q14 6 36 21t45.5 34.5t45 40.5t34.5 39q10 12 13 26l135 701q3 16 0 31q-5 16 -17 34t-25.5 33.5t-27 27.5t-22.5 17q-3 3 -10 4.5t-15 1.5h-307q-16 0 -29 -6t-34.5 -21t-44.5 -34.5t-45 -40.5t-35 -39 q-12 -14 -15 -31l-135 -700q-2 -8 -1 -14.5z" />
<glyph unicode="&#x38e;" horiz-adv-x="1126" d="M123 0zM123 1065l137 276l102 -22l-125 -254h-114zM414 1229h123l197 -584l426 584h137l-518 -705l-101 -524h-121l101 524z" />
<glyph unicode="&#x38f;" horiz-adv-x="1311" d="M103 0zM103 1065l137 276l102 -22l-125 -254h-114zM129 0l21 115h256q-16 8 -28 16t-21 16q-12 11 -31 31.5t-36.5 45t-31 50.5t-14.5 48q-1 12 -0.5 28t2 33t4 33t4.5 28l101 521q5 24 19.5 54t33.5 52q12 14 34 34.5t47 41t48.5 38t38.5 25.5q25 14 51.5 20.5t52.5 6.5 h383q26 0 50 -6.5t42 -20.5q12 -8 29.5 -25.5t34.5 -38t31.5 -41t19.5 -34.5q9 -22 13 -52t-1 -54l-100 -521q-2 -12 -6.5 -28t-9.5 -33t-11 -33t-12 -28q-9 -22 -32 -48t-51 -50.5t-55 -45t-44 -31.5q-11 -8 -28 -16l-34 -16h256l-20 -115h-395l20 115q15 7 40.5 25.5 t55 43.5t60.5 53t57 55t45 49t25 34q1 2 4 9.5t6 16.5t5 17l3 12l103 537q3 16 0 26q-3 11 -13 28.5t-23 35.5t-28 34.5t-28 24.5q-11 6 -25 6h-377q-13 0 -29 -6q-19 -10 -43 -28.5t-47 -39.5t-42 -41t-27 -32q-10 -10 -13 -27l-100 -534q-1 -4 -2 -12.5l-2 -17t-1.5 -16 t-0.5 -10.5q1 -12 12 -33t27 -45.5t36 -51t39.5 -49t37.5 -40t30 -24.5l-20 -115h-396z" />
<glyph unicode="&#x390;" horiz-adv-x="440" d="M100 0zM100 1081l31 158h156l-31 -158h-156zM112 44.5q0 18.5 0.5 38t2.5 32.5l147 766h111l-142 -742q-4 -17 -5.5 -40.5t-1.5 -45.5q0 -26 1 -53h-110q-1 0 -2 13t-1 31.5zM301 1065l137 276l94 -22l-124 -254h-107zM526 1081l31 158h156l-31 -158h-156z" />
<glyph unicode="&#x391;" horiz-adv-x="1100" d="M-6 0l649 1229h184l174 -1229h-118l-37 285h-572l-149 -285h-131zM332 399h497l-96 713h-28z" />
<glyph unicode="&#x392;" horiz-adv-x="1108" d="M100 0l238 1229h553q32 0 63.5 -11.5t51.5 -29.5q8 -8 20.5 -22.5t24.5 -30.5t22 -30.5t14 -23.5q11 -23 13 -51t-4 -57l-31 -158q-6 -29 -18.5 -57t-30.5 -51q-6 -7 -17.5 -17.5t-25 -22.5t-28 -24t-27.5 -22q9 -10 19 -22t18.5 -24t15.5 -22.5t10 -17.5 q11 -23 12.5 -51.5t-4.5 -57.5l-35 -174q-9 -59 -49 -105q-7 -8 -22.5 -23t-34 -31.5t-36.5 -31.5t-30 -22q-28 -19 -62.5 -29t-66.5 -10h-553zM244 115h415q10 0 19.5 1.5t17.5 6.5q14 7 31.5 19t35 27t33 30t25.5 28q5 7 8 15.5t5 17.5l34 176q3 20 0 33q-4 12 -12 25 t-17.5 25.5t-20 22.5t-19.5 15q-5 3 -13.5 4.5t-17.5 1.5h-436zM352 676h422q9 0 18 2.5t15 5.5q14 7 31.5 19t34.5 27t32.5 30t24.5 28q5 7 8.5 16.5t5.5 18.5l33 160q3 20 0 33q-4 12 -12 25.5t-18.5 26t-21.5 23t-20 15.5q-11 8 -33 8h-434z" />
<glyph unicode="&#x393;" horiz-adv-x="985" d="M100 0l238 1229h704l-22 -115h-582l-215 -1114h-123z" />
<glyph unicode="&#x394;" horiz-adv-x="1100" d="M-20 0l649 1229h184l174 -1229h-1007zM168 115h686l-135 997h-27z" />
<glyph unicode="&#x395;" horiz-adv-x="1020" d="M100 0l238 1229h704l-22 -115h-582l-86 -442h551l-22 -115h-551l-86 -442h581l-20 -115h-705z" />
<glyph unicode="&#x396;" horiz-adv-x="983" d="M78 0l18 102l797 1012h-600l22 115h746l-21 -107l-792 -1007h596l-21 -115h-745z" />
<glyph unicode="&#x397;" horiz-adv-x="1139" d="M100 0l238 1229h121l-109 -557h576l108 557h121l-237 -1229h-121l106 557h-575l-107 -557h-121z" />
<glyph unicode="&#x398;" horiz-adv-x="1153" d="M135.5 212q-0.5 26 5.5 52l135 697q5 26 15 52t28 48q11 13 33 34t47.5 42.5t50 40t39.5 26.5q25 14 55.5 23.5t55.5 9.5h324q24 0 52.5 -9.5t47.5 -23.5q12 -8 28.5 -26.5t33 -40t30 -42.5t19.5 -34q9 -22 11 -48t-3 -52l-135 -697q-7 -26 -18 -52t-29 -48 q-11 -13 -32.5 -33.5t-46 -41.5t-48.5 -39.5t-39 -26.5q-25 -14 -56.5 -23.5t-56.5 -9.5h-324q-24 0 -51.5 9.5t-46.5 23.5q-12 8 -29.5 26.5t-34 39.5t-31 41.5t-20.5 33.5q-9 22 -9.5 48zM259 235.5q1 -6.5 3 -12.5q6 -16 18 -34t25 -33.5t26 -28t21 -16.5q8 -7 25 -7h307 q8 0 16 1.5t13 5.5q14 6 36 21t45.5 34.5t45 40.5t34.5 39q10 12 13 26l135 701q3 16 0 31q-5 16 -17 34t-25.5 33.5t-27 27.5t-22.5 17q-3 3 -10 4.5t-15 1.5h-307q-16 0 -29 -6t-34.5 -21t-44.5 -34.5t-45 -40.5t-35 -39q-12 -14 -15 -31l-135 -700q-2 -8 -1 -14.5z M414 559l22 115h424l-22 -115h-424z" />
<glyph unicode="&#x399;" horiz-adv-x="442" d="M98 0l238 1229h121l-238 -1229h-121z" />
<glyph unicode="&#x39a;" horiz-adv-x="1028" d="M100 0l238 1229h121l-109 -553h41l565 553h150l-629 -615l447 -614h-140l-407 563h-49l-107 -563h-121zM100 0z" />
<glyph unicode="&#x39b;" horiz-adv-x="1100" d="M-6 0l649 1229h184l174 -1229h-118l-150 1112h-28l-580 -1112h-131z" />
<glyph unicode="&#x39c;" horiz-adv-x="1331" d="M102 0l238 1229h164l190 -735l473 735h181l-238 -1229h-115l213 1102l-499 -772h-80l-199 772l-213 -1102h-115zM102 0z" />
<glyph unicode="&#x39d;" horiz-adv-x="1126" d="M102 0l238 1229h143l338 -1059l205 1059h117l-238 -1229h-141l-342 1049l-203 -1049h-117zM102 0z" />
<glyph unicode="&#x39e;" horiz-adv-x="1020" d="M100 0l21 115h704l-22 -115h-703zM207 559l22 115h705l-23 -115h-704zM315 1114l23 115h704l-22 -115h-705z" />
<glyph unicode="&#x39f;" horiz-adv-x="1153" d="M135.5 212q-0.5 26 5.5 52l135 697q5 26 15 52t28 48q11 13 33 34t47.5 42.5t50 40t39.5 26.5q25 14 55.5 23.5t55.5 9.5h324q24 0 52.5 -9.5t47.5 -23.5q12 -8 28.5 -26.5t33 -40t30 -42.5t19.5 -34q9 -22 11 -48t-3 -52l-135 -697q-7 -26 -18 -52t-29 -48 q-11 -13 -32.5 -33.5t-46 -41.5t-48.5 -39.5t-39 -26.5q-25 -14 -56.5 -23.5t-56.5 -9.5h-324q-24 0 -51.5 9.5t-46.5 23.5q-12 8 -29.5 26.5t-34 39.5t-31 41.5t-20.5 33.5q-9 22 -9.5 48zM259 235.5q1 -6.5 3 -12.5q6 -16 18 -34t25 -33.5t26 -28t21 -16.5q8 -7 25 -7h307 q8 0 16 1.5t13 5.5q14 6 36 21t45.5 34.5t45 40.5t34.5 39q10 12 13 26l135 701q3 16 0 31q-5 16 -17 34t-25.5 33.5t-27 27.5t-22.5 17q-3 3 -10 4.5t-15 1.5h-307q-16 0 -29 -6t-34.5 -21t-44.5 -34.5t-45 -40.5t-35 -39q-12 -14 -15 -31l-135 -700q-2 -8 -1 -14.5z" />
<glyph unicode="&#x3a0;" horiz-adv-x="1139" d="M100 0l238 1229h817l-237 -1229h-121l215 1114h-576l-215 -1114h-121z" />
<glyph unicode="&#x3a1;" horiz-adv-x="1069" d="M100 0l238 1229h553q32 0 62.5 -10.5t50.5 -28.5q8 -8 20.5 -22.5t25.5 -31t23 -31.5t14 -24q23 -46 11 -106l-35 -180q-13 -61 -51 -107q-7 -8 -23 -23t-35 -31t-37 -30.5t-30 -21.5q-29 -19 -63 -29t-66 -10h-430l-105 -543h-123zM350 657h418q9 0 18.5 2t18.5 7 q13 7 31 19t36 26.5t34.5 30t25.5 28.5q5 6 7.5 16.5t4.5 18.5l35 178q2 9 3 19t-1 16q-4 12 -12 25.5t-18 26t-20.5 23t-19.5 15.5q-8 5 -16.5 5.5t-17.5 0.5h-439z" />
<glyph unicode="&#x3a3;" horiz-adv-x="983" d="M78 0l20 102l475 525l-278 495l20 107h746l-23 -115h-602l277 -498l-455 -501h586l-23 -115h-743z" />
<glyph unicode="&#x3a4;" d="M231 1114l23 115h819l-22 -115h-349l-215 -1114h-120l215 1114h-351z" />
<glyph unicode="&#x3a5;" horiz-adv-x="930" d="M217 1229h123l197 -584l426 584h137l-518 -705l-101 -524h-121l101 524z" />
<glyph unicode="&#x3a6;" horiz-adv-x="1235" d="M135 0zM135.5 212q-0.5 26 5.5 52l135 697q5 26 15 52t28 48q11 13 33 34t47.5 42.5t50 40t39.5 26.5q25 14 55.5 23.5t55.5 9.5h150l20 106h113l-21 -106h144q24 0 52.5 -9.5t47.5 -23.5q12 -8 28.5 -26.5t33 -40t30 -42.5t19.5 -34q9 -22 11 -48t-3 -52l-135 -697 q-7 -26 -18 -52t-30 -48q-11 -13 -32 -33.5t-45.5 -41.5t-48.5 -39.5t-39 -26.5q-25 -14 -56.5 -23.5t-56.5 -9.5h-143l-23 -117h-113l23 117h-150q-24 0 -51.5 9.5t-46.5 23.5q-12 8 -29.5 26.5t-34 39.5t-31 41.5t-20.5 33.5q-9 22 -9.5 48zM259 235.5q1 -6.5 3 -12.5 q6 -16 18 -34t25 -33.5t26 -28t21 -16.5q8 -7 25 -7h153l197 1018h-129q-16 0 -29 -6t-34.5 -21t-44.5 -34.5t-45 -40.5t-35 -39q-12 -14 -15 -31l-135 -700q-2 -8 -1 -14.5zM643 104h123q8 0 16 1.5t13 5.5q13 6 35.5 21t46 34.5t45 40.5t34.5 39q10 12 13 26l135 701 q3 16 0 31q-5 16 -17 34t-25.5 33.5t-27 27.5t-22.5 17q-3 3 -10 4.5t-15 1.5h-147z" />
<glyph unicode="&#x3a7;" horiz-adv-x="1018" d="M-10 0l516 633l-250 596h123l209 -494q97 121 199.5 247t201.5 247h139l-489 -604l264 -625h-125l-223 522l-424 -522h-141z" />
<glyph unicode="&#x3a8;" horiz-adv-x="1171" d="M180 545.5q-2 24.5 4 50.5l123 633h119l-125 -635q0 -6 -0.5 -14.5t2.5 -14.5q6 -18 17.5 -36t25 -34.5t28 -29.5t25.5 -19q2 -2 8.5 -3t14.5 -1h133l154 787h112l-153 -787h114q8 0 16 1t13 3q13 6 34.5 21.5t44.5 35t45 40.5t36 39q5 6 7.5 14t4.5 14l121 619h119 l-123 -633q-6 -26 -16.5 -50.5t-28.5 -45.5q-12 -13 -33 -33.5t-45.5 -41.5t-48 -39.5t-39.5 -27.5q-23 -12 -55 -21t-58 -9h-131l-63 -328h-113l63 328h-133q-26 -2 -53 7t-47 23q-12 9 -28.5 27t-32 39.5t-28 42t-17.5 33.5q-11 21 -13 45.5z" />
<glyph unicode="&#x3aa;" horiz-adv-x="442" d="M98 0l238 1229h121l-238 -1229h-121zM98 0zM207 1429l30 158h156l-31 -158h-155zM506 1429l30 158h156l-31 -158h-155z" />
<glyph unicode="&#x3ab;" horiz-adv-x="930" d="M217 0zM217 1229h123l197 -584l426 584h137l-518 -705l-101 -524h-121l101 524zM426 1429l30 158h156l-31 -158h-155zM725 1429l30 158h156l-31 -158h-155z" />
<glyph unicode="&#x3ac;" horiz-adv-x="989" d="M111 0zM113 177.5q-2 27.5 4 58.5l80 409q12 64 51 109q7 8 21 21t30 27.5t32 27.5t27 22q29 19 63.5 29t70.5 10h159q26 0 50 -13t44 -30q16 -14 32.5 -32.5t33.5 -41.5l37 107h110l-45 -142l-116 -594l-9 -145h-110l4 109q-25 -23 -49.5 -42.5t-44.5 -33.5 q-28 -17 -56.5 -30t-54.5 -13h-160q-35 0 -66 10t-52 29q-9 8 -19.5 21t-21 27.5t-19 27.5t-12.5 22q-12 23 -14 50.5zM227 199q4 -12 12 -26t17.5 -27.5t19.5 -24.5t19 -17q13 -8 37 -8h153q17 0 29 6q14 6 39.5 20t53.5 32t53.5 38.5t39.5 38.5l3 3l2 4l2 4l79 407 q0 2 -0.5 3.5t-0.5 3.5q-1 2 -1 3q-7 19 -23 37.5t-34.5 34.5t-37 28.5t-30.5 18.5q-9 6 -26 6h-154q-22 0 -39 -8q-14 -7 -31 -19t-34 -26.5t-32 -30t-24 -28.5q-5 -6 -8 -15t-6 -20l-78 -404q-3 -22 0 -34zM541 1065l137 276l102 -22l-125 -254h-114z" />
<glyph unicode="&#x3ad;" horiz-adv-x="915" d="M110 0zM111 168.5q-1 26.5 4 58.5l8 37q12 58 49 103q12 14 35 35t45 38q-16 17 -29.5 39.5t-21.5 36.5q-11 23 -12 50.5t4 56.5l6 32q6 29 17.5 56.5t31.5 50.5q8 9 20.5 21t27 25t28.5 24.5t26 19.5q29 19 64 29t69 10h197q34 0 66.5 -10t54.5 -29q8 -8 18 -21t20 -27 t17.5 -27t11.5 -21q7 -13 12 -28l7 -21l-101 -33l-2 4q-4 12 -12 26t-18 28t-21.5 25.5t-21.5 18.5q-15 8 -37 8h-201q-11 0 -20 -1.5t-17 -6.5q-14 -7 -30.5 -18.5t-33 -25t-31 -28.5t-24.5 -28q-5 -6 -6.5 -12t-3.5 -17l-6 -33q-2 -11 -2 -16.5t2 -13.5q6 -25 26.5 -49 t37.5 -35q5 -3 14 -3.5t20 -0.5h230l-21 -107h-211q-22 0 -39 -8q-13 -7 -29 -19t-32 -26t-30.5 -28.5t-24.5 -26.5q-10 -19 -13 -35l-6 -29q-3 -18 0 -31q3 -11 10 -23t16 -23.5t19 -20.5t19 -15q5 -5 14.5 -6.5t20.5 -1.5h225q11 0 21 1.5t18 6.5q14 7 30.5 19.5t33 27.5 t31 31t24.5 29l106 -39l-37 -45q-8 -9 -21.5 -22.5t-29 -27.5t-31.5 -27.5t-28 -20.5q-29 -19 -65.5 -29t-68.5 -10h-221q-34 0 -66.5 10t-52.5 29q-8 7 -18 18.5t-19.5 24.5t-17.5 25.5t-12 21.5q-11 23 -12 49.5zM521 1065l137 276l102 -22l-125 -254h-114z" />
<glyph unicode="&#x3ae;" horiz-adv-x="985" d="M96 0l142 735l10 146h110l-4 -99q23 20 43.5 36.5t40.5 29.5q25 15 55 29t56 14h158q34 0 66 -10t52 -29q9 -8 20.5 -21t22.5 -27.5t19.5 -28t13.5 -21.5q21 -48 8 -109l-202 -989h-111l203 999q2 10 3 18.5t-1 14.5q-4 12 -11.5 25t-17.5 25.5t-20 22.5t-19 15 q-11 8 -35 8h-151q-16 0 -31 -6q-14 -7 -38.5 -20.5t-51.5 -31t-52 -37.5t-40 -38l-127 -651h-111zM96 0zM521 1065l137 276l102 -22l-125 -254h-114z" />
<glyph unicode="&#x3af;" horiz-adv-x="440" d="M112 0zM112 44.5q0 18.5 0.5 38t2.5 32.5l147 766h111l-142 -742q-4 -17 -5.5 -40.5t-1.5 -45.5q0 -26 1 -53h-110q-1 0 -2 13t-1 31.5zM295 1065l137 276l102 -22l-125 -254h-114z" />
<glyph unicode="&#x3b0;" horiz-adv-x="967" d="M113 0zM113.5 177.5q-0.5 27.5 5.5 58.5l125 645h110l-127 -652q-2 -11 -2.5 -19.5t2.5 -14.5q8 -26 28 -51.5t42 -39.5q13 -8 35 -8h200q11 0 21 1.5t18 6.5q14 7 32 20t36.5 28.5t34.5 31.5t26 29q8 13 11 35l94 493q4 17 5.5 41t1.5 46q0 26 -1 53h111q1 0 2 -13 t1 -31.5t-0.5 -38t-2.5 -32.5l-103 -530q-6 -31 -18.5 -58.5t-32.5 -50.5q-8 -9 -21.5 -22.5t-29 -27.5t-32 -27.5t-28.5 -20.5q-27 -19 -64 -29t-71 -10h-205q-34 0 -65.5 10t-52.5 29q-9 7 -20 20.5t-21.5 27.5t-19.5 27.5t-13 22.5q-11 23 -11.5 50.5zM325 1081l31 158 h156l-31 -158h-156zM526 1065l137 276l94 -22l-124 -254h-107zM751 1081l31 158h156l-31 -158h-156z" />
<glyph unicode="&#x3b1;" horiz-adv-x="997" d="M113 177.5q-2 27.5 4 58.5l80 409q12 64 51 109q7 8 21 21t30 27.5t32 27.5t27 22q29 19 63.5 29t70.5 10h159q26 0 50 -13t44 -30q16 -14 32.5 -32.5t33.5 -41.5l37 107h110l-45 -142l-116 -594l-9 -145h-110l4 109q-25 -23 -49.5 -42.5t-44.5 -33.5q-28 -17 -56.5 -30 t-54.5 -13h-160q-35 0 -66 10t-52 29q-9 8 -19.5 21t-21 27.5t-19 27.5t-12.5 22q-12 23 -14 50.5zM227 199q4 -12 12 -26t17.5 -27.5t19.5 -24.5t19 -17q13 -8 37 -8h153q17 0 29 6q14 6 39.5 20t53.5 32t53.5 38.5t39.5 38.5l3 3l2 4l2 4l79 407q0 2 -0.5 3.5t-0.5 3.5 q-1 2 -1 3q-7 19 -23 37.5t-34.5 34.5t-37 28.5t-30.5 18.5q-9 6 -26 6h-154q-22 0 -39 -8q-14 -7 -31 -19t-34 -26.5t-32 -30t-24 -28.5q-5 -6 -8 -15t-6 -20l-78 -404q-3 -22 0 -34z" />
<glyph unicode="&#x3b2;" horiz-adv-x="1020" d="M33 -344l94 489l20 103l144 743q6 31 19.5 59.5t33.5 51.5l21.5 21.5t29.5 28t32 27.5t28 21q28 19 63.5 28t69.5 9h207q34 0 65.5 -10t52.5 -29q9 -8 20 -21t21.5 -27.5t19 -28t13.5 -21.5q11 -23 11.5 -50.5t-5.5 -58.5l-32 -174q-7 -31 -19.5 -58t-32.5 -50 q-11 -13 -33.5 -35.5t-44.5 -40.5q9 -9 20 -21.5t21.5 -25.5t18.5 -25.5t12 -19.5q13 -23 14 -50.5t-6 -58.5l-39 -196q-9 -63 -49 -109q-8 -9 -21.5 -22.5t-29 -27.5t-31.5 -27.5t-28 -20.5q-28 -19 -64.5 -29t-70.5 -10h-189q-26 0 -50 13t-44 30q-16 14 -32.5 33.5 t-33.5 42.5l-88 -453h-108zM254 231q0 -5 1 -7q0 -2 1 -3q6 -18 22 -36.5t35.5 -35t38.5 -29t31 -18.5q3 -3 8 -4.5t10 -1.5h189q22 0 39 8q14 7 31.5 20.5t35.5 29t34 32t26 29.5q7 14 10 35l37 188q2 11 3 20t-1 15q-9 26 -30.5 51t-43.5 39q-13 8 -37 8h-231l20 107h193 q11 0 21 1.5t18 6.5q14 7 31.5 20.5t35 29t33 32t25.5 29.5q5 6 7.5 15.5t4.5 18.5l33 166q2 11 3 20t-1 15q-10 26 -31 51t-43 39q-13 8 -37 8h-203q-11 0 -18.5 -0.5t-15.5 -5.5q-14 -7 -32 -19.5t-35.5 -28t-33 -31.5t-24.5 -29q-5 -6 -8.5 -15t-6.5 -18z" />
<glyph unicode="&#x3b3;" horiz-adv-x="842" d="M180 881h115l92 -768h12l394 768h120l-458 -881l-52 -100q-5 -10 -10 -21.5t-8 -23.5l-39 -199h-108l38 199q4 12 8.5 28.5t12.5 28.5l45 88h-45z" />
<glyph unicode="&#x3b4;" horiz-adv-x="967" d="M109 177.5q-1 27.5 6 58.5l71 372q7 31 18.5 58.5t31.5 50.5q6 6 16 15t21.5 19.5t24 20.5t24.5 19q-26 26 -38.5 63t-2.5 82l12 63q6 36 19.5 61t33.5 48q8 8 20 20.5t26 25.5t28 24.5t26 19.5q29 19 65.5 29t68.5 10h186q32 0 64.5 -10t52.5 -29q9 -8 20 -21t21 -27.5 t18.5 -28t13.5 -21.5q7 -13 13 -25t8 -20l-107 -35q-3 13 -11.5 28t-19.5 29.5t-23.5 26t-22.5 18.5q-12 8 -33 8h-193q-22 0 -39 -8q-14 -7 -29.5 -17.5t-30.5 -23t-28 -26.5t-22 -27q-5 -6 -8 -12t-7 -17l-12 -65q-6 -31 13 -52t51 -24l295 -24q37 -3 67 -18t49.5 -39 t27.5 -56t1 -70l-80 -415q-6 -31 -19.5 -61t-31.5 -50q-9 -9 -22.5 -22t-29 -27t-31.5 -27t-28 -20q-28 -19 -63.5 -29t-69.5 -10h-205q-34 0 -66.5 10t-53.5 29q-9 7 -20 20.5t-21.5 27.5t-18.5 27.5t-12 22.5q-13 23 -14 50.5zM223 188q4 -11 11 -23.5t16 -24t18.5 -21 t18.5 -15.5q13 -8 37 -8h204q24 0 37 8q14 7 32 19.5t36 27.5t34 31t25 29q9 12 13 33l77 407q5 31 -10 52t-47 24l-270 21q-7 -2 -13 -4t-12 -5q-14 -7 -31 -19t-34 -26.5t-32 -30t-24 -28.5q-5 -6 -8 -15t-6 -20l-72 -377q-3 -21 0 -35z" />
<glyph unicode="&#x3b5;" horiz-adv-x="915" d="M111 168.5q-1 26.5 4 58.5l8 37q12 58 49 103q12 14 35 35t45 38q-16 17 -29.5 39.5t-21.5 36.5q-11 23 -12 50.5t4 56.5l6 32q6 29 17.5 56.5t31.5 50.5q8 9 20.5 21t27 25t28.5 24.5t26 19.5q29 19 64 29t69 10h197q34 0 66.5 -10t54.5 -29q8 -8 18 -21t20 -27 t17.5 -27t11.5 -21q7 -13 12 -28l7 -21l-101 -33l-2 4q-4 12 -12 26t-18 28t-21.5 25.5t-21.5 18.5q-15 8 -37 8h-201q-11 0 -20 -1.5t-17 -6.5q-14 -7 -30.5 -18.5t-33 -25t-31 -28.5t-24.5 -28q-5 -6 -6.5 -12t-3.5 -17l-6 -33q-2 -11 -2 -16.5t2 -13.5q6 -25 26.5 -49 t37.5 -35q5 -3 14 -3.5t20 -0.5h230l-21 -107h-211q-22 0 -39 -8q-13 -7 -29 -19t-32 -26t-30.5 -28.5t-24.5 -26.5q-10 -19 -13 -35l-6 -29q-3 -18 0 -31q3 -11 10 -23t16 -23.5t19 -20.5t19 -15q5 -5 14.5 -6.5t20.5 -1.5h225q11 0 21 1.5t18 6.5q14 7 30.5 19.5t33 27.5 t31 31t24.5 29l106 -39l-37 -45q-8 -9 -21.5 -22.5t-29 -27.5t-31.5 -27.5t-28 -20.5q-29 -19 -65.5 -29t-68.5 -10h-221q-34 0 -66.5 10t-52.5 29q-8 7 -18 18.5t-19.5 24.5t-17.5 25.5t-12 21.5q-11 23 -12 49.5z" />
<glyph unicode="&#x3b6;" horiz-adv-x="860" d="M72 236l123 630l14 74q5 26 25 53.5t40 48.5q17 19 42.5 39.5t50.5 40.5l-107 13l21 106l143 -12h453l-21 -107h-346q-4 0 -12 -4q-21 -11 -47 -33t-50 -46.5t-44 -48t-29 -36.5q-10 -13 -13 -28l-135 -695q-3 -22 0 -34q10 -26 29.5 -52.5t42.5 -40.5q11 -8 35 -8h235 q58 0 95 -20t54 -51t15 -69t-20 -73l-129 -241l-101 28l119 219q7 15 14 32.5t4.5 32.5t-17.5 25.5t-52 10.5h-230q-34 0 -66.5 10t-53.5 29q-9 7 -20 20.5t-21.5 27.5t-19.5 27.5t-13 22.5q-21 48 -8 109z" />
<glyph unicode="&#x3b7;" horiz-adv-x="985" d="M96 0l142 735l10 146h110l-4 -99q23 20 43.5 36.5t40.5 29.5q25 15 55 29t56 14h158q34 0 66 -10t52 -29q9 -8 20.5 -21t22.5 -27.5t19.5 -28t13.5 -21.5q21 -48 8 -109l-202 -989h-111l203 999q2 10 3 18.5t-1 14.5q-4 12 -11.5 25t-17.5 25.5t-20 22.5t-19 15 q-11 8 -35 8h-151q-16 0 -31 -6q-14 -7 -38.5 -20.5t-51.5 -31t-52 -37.5t-40 -38l-127 -651h-111z" />
<glyph unicode="&#x3b8;" horiz-adv-x="967" d="M112 177.5q-1 27.5 5 58.5l147 757q6 31 17.5 58.5t31.5 50.5l21.5 21.5t29.5 28t32 27.5t28 21q29 19 65 29t70 10h205q34 0 66.5 -10t52.5 -29q9 -8 20 -21t21 -27.5t18.5 -28t13.5 -21.5q22 -45 9 -109l-148 -757q-6 -31 -19 -61t-32 -50q-9 -9 -22.5 -22t-29 -27 t-31.5 -27t-28 -20q-28 -19 -63.5 -29t-69.5 -10h-205q-34 0 -66.5 10t-53.5 29q-9 7 -20 20.5t-21.5 27.5t-18.5 27.5t-12 22.5q-12 23 -13 50.5zM225 188q4 -11 11.5 -23.5t16 -24t18 -21t18.5 -15.5q13 -8 37 -8h204q24 0 37 8q14 7 32 19.5t36 27.5t34 31t25 29 q5 6 8 14t5 19l63 327h-477l-68 -348q-3 -21 0 -35zM311 674h477l64 325q2 10 3 19t-1 18q-2 12 -10 25.5t-18 25.5t-20.5 22t-19.5 15q-12 9 -34 9h-205q-21 0 -39 -9q-14 -7 -31 -19t-34 -26.5t-32 -30t-24 -28.5q-5 -6 -8 -15t-6 -20z" />
<glyph unicode="&#x3b9;" horiz-adv-x="440" d="M112 44.5q0 18.5 0.5 38t2.5 32.5l147 766h111l-142 -742q-4 -17 -5.5 -40.5t-1.5 -45.5q0 -26 1 -53h-110q-1 0 -2 13t-1 31.5z" />
<glyph unicode="&#x3ba;" horiz-adv-x="870" d="M84 0l168 881h110l-69 -369h35l413 369h152l-469 -418l344 -463h-137l-303 408h-56l-77 -408h-111z" />
<glyph unicode="&#x3bb;" horiz-adv-x="866" d="M-6 0l455 881h53l-49 348h110l162 -1229h-115l-92 768h-12l-391 -768h-121z" />
<glyph unicode="&#x3bc;" horiz-adv-x="991" d="M27 0zM27 -344l237 1225h111l-125 -643q0 -4 1 -6t1 -5q7 -19 22.5 -38t33.5 -35.5t35.5 -29.5t29.5 -20q6 -3 13 -5.5t15 -2.5h101q16 0 28 6q15 7 40 21t52 32t53 38t42 38l125 650h110l-143 -736l-4 -145h-109l-2 100q-23 -20 -46.5 -37.5t-43.5 -29.5 q-25 -16 -54 -29.5t-56 -13.5h-109q-26 0 -52 9.5t-44 25.5q-16 14 -33 33t-33 40l-86 -442h-110z" />
<glyph unicode="&#x3bd;" horiz-adv-x="868" d="M180 881h115l92 -768h12l392 768h120l-456 -881h-158z" />
<glyph unicode="&#x3be;" horiz-adv-x="860" d="M72 236l37 196q6 31 18.5 58.5t32.5 50.5q7 7 19.5 20t27.5 27t31 27t28 22q-15 19 -28 39t-19 33q-21 44 -8 108l18 96l7 27q5 26 25 53.5t40 48.5q17 19 42 39.5t50 40.5l-106 13l20 106l144 -12h452l-20 -107h-346q-5 0 -13 -4q-21 -11 -46.5 -33t-50 -46.5t-44.5 -48 t-29 -36.5q-9 -12 -12 -28l-27 -138q0 -8 2 -10q10 -26 30.5 -52t43.5 -40q6 -5 15 -6.5t20 -1.5h207l-21 -107h-217q-11 0 -21 -1.5t-18 -6.5q-14 -7 -32 -20t-36 -28t-34.5 -31t-26.5 -29q-3 -7 -5.5 -15.5t-4.5 -19.5l-37 -189q-3 -22 0 -34q10 -26 29.5 -52.5 t42.5 -40.5q11 -8 35 -8h235q58 0 95 -20t54 -51t15 -69t-20 -73l-129 -241l-101 28l119 219q7 15 14 32.5t4.5 32.5t-17.5 25.5t-52 10.5h-230q-34 0 -66.5 10t-53.5 29q-9 7 -20 20.5t-21.5 27.5t-19.5 27.5t-13 22.5q-21 48 -8 109z" />
<glyph unicode="&#x3bf;" horiz-adv-x="967" d="M112 177.5q-1 27.5 5 58.5l80 409q6 31 17.5 58.5t31.5 50.5q7 8 21 21.5t29.5 28t31.5 27.5t28 21q29 19 65 29t71 10h204q34 0 66.5 -10t52.5 -29q9 -8 20 -21t21.5 -27.5t19 -28t13.5 -21.5q20 -45 8 -109l-80 -409q-6 -31 -19 -61t-32 -50q-9 -9 -22.5 -22t-29 -27 t-31.5 -27t-28 -20q-28 -19 -63.5 -29t-69.5 -10h-205q-34 0 -66.5 10t-53.5 29q-9 7 -20 20.5t-21.5 27.5t-18.5 27.5t-12 22.5q-12 23 -13 50.5zM225 188q4 -11 11.5 -23.5t16 -24t18 -21t18.5 -15.5q13 -8 37 -8h204q24 0 37 8q14 7 32 19.5t36 27.5t34 31t25 29 q5 6 8 14t5 19l77 407q2 10 3 19t-1 18q-2 12 -10 25.5t-17.5 25.5t-20.5 22t-19 15q-6 5 -15 6.5t-20 1.5h-205q-22 0 -39 -8q-14 -7 -31 -19t-34 -26.5t-32 -30t-24 -28.5q-5 -6 -8 -15t-6 -20l-80 -414q-3 -21 0 -35z" />
<glyph unicode="&#x3c0;" horiz-adv-x="1200" d="M207 774l20 107h967l-20 -107h-158l-123 -635q-4 -17 -4.5 -34.5t0 -35l1 -35t-0.5 -34.5h-111q2 26 -2.5 57.5t0.5 57.5l129 659h-430l-149 -774h-111l150 774h-158z" />
<glyph unicode="&#x3c1;" horiz-adv-x="989" d="M27 -344l192 989q6 31 17.5 58.5t31.5 50.5l21.5 21.5t29.5 28t32 27.5t28 21q29 19 65 29t70 10h205q34 0 65.5 -10t51.5 -29q9 -8 20 -21t21 -27.5t18.5 -28t13.5 -21.5q23 -48 11 -109l-80 -409q-13 -61 -52 -109q-8 -9 -22 -22.5t-30 -27.5t-32 -27.5t-28 -20.5 q-28 -19 -62.5 -29t-68.5 -10h-160q-26 0 -51 13.5t-43 29.5q-17 14 -33.5 33t-32.5 40l-88 -450h-110zM250 231q0 -6 2 -10q7 -19 23 -37.5t34.5 -34t37 -28t30.5 -19.5q12 -6 29 -6h149q11 0 20 1.5t17 6.5q14 7 31.5 20t35.5 28.5t33.5 31.5t24.5 29q9 12 12 35l80 405 q6 21 2 35q-4 12 -11.5 25t-17.5 25.5t-20 22.5t-19 15q-11 8 -34 8h-207q-23 0 -39 -8q-14 -7 -31 -19t-34 -26.5t-32 -30t-24 -28.5q-5 -6 -8 -15t-6 -20z" />
<glyph unicode="&#x3c2;" horiz-adv-x="934" d="M112 177.5q-1 27.5 5 58.5l80 409q6 31 17.5 58.5t31.5 50.5q7 8 21 21.5t29.5 28t31.5 27.5t28 21q29 19 65 29t71 10h202q34 0 65.5 -10t51.5 -29q17 -14 31 -32.5t26 -38t21 -39t16 -35.5l-108 -33q-4 13 -12.5 28t-19 29.5t-22 26t-22.5 18.5q-6 5 -15 6.5t-20 1.5 h-205q-22 0 -39 -8q-14 -7 -31 -18.5t-33.5 -25t-31.5 -28.5t-24 -28q-5 -6 -8.5 -15t-6.5 -20l-80 -414q-3 -22 0 -34q4 -12 11.5 -25t17 -25.5t19 -22.5t18.5 -16q13 -8 37 -8h186q58 0 95 -20t54 -51t15 -69t-21 -73l-129 -241l-100 28l119 219q7 15 14 32.5t4.5 32.5 t-17.5 25.5t-52 10.5h-181q-34 0 -66.5 10t-53.5 29q-9 7 -20 20.5t-21.5 27.5t-18.5 27.5t-12 22.5q-12 23 -13 50.5z" />
<glyph unicode="&#x3c3;" horiz-adv-x="999" d="M112 177.5q-1 27.5 5 58.5l80 403q6 31 17.5 58.5t31.5 50.5q7 8 21 21.5t29.5 28t31.5 27.5t28 21q29 18 65 28.5t71 10.5h524l-21 -107h-143q9 -9 16 -17t11 -13q11 -23 17.5 -50.5t0.5 -58.5l-80 -403q-6 -31 -19 -61t-32 -50q-9 -9 -22.5 -22t-29 -27t-31.5 -27 t-28 -20q-28 -19 -63.5 -29t-69.5 -10h-205q-34 0 -66.5 10t-53.5 29q-9 7 -20 20.5t-21.5 27.5t-18.5 27.5t-12 22.5q-12 23 -13 50.5zM225 188q4 -11 11.5 -23.5t16 -24t18 -21t18.5 -15.5q13 -8 37 -8h204q24 0 37 8q14 7 32 19.5t36 27.5t34 31t25 29q5 6 8 14t5 19 l77 401q2 9 3 18.5t-1 18.5q-2 12 -10 25.5t-17.5 25.5t-20.5 22t-19 15q-6 5 -15 6.5t-20 1.5h-209q-9 0 -18 -2.5t-17 -5.5q-14 -7 -31 -19t-34 -27t-32 -30t-24 -28q-5 -7 -8 -15.5t-6 -19.5l-80 -408q-3 -21 0 -35z" />
<glyph unicode="&#x3c4;" horiz-adv-x="852" d="M139 774l21 107h739l-20 -107h-324l-121 -635q-4 -17 -5.5 -40.5t-1.5 -45.5q0 -26 1 -53h-111q-1 0 -2 13t-1 31.5t0.5 38t2.5 32.5l127 659h-305z" />
<glyph unicode="&#x3c5;" horiz-adv-x="967" d="M113.5 177.5q-0.5 27.5 5.5 58.5l125 645h110l-127 -652q-2 -11 -2.5 -19.5t2.5 -14.5q8 -26 28 -51.5t42 -39.5q13 -8 35 -8h200q11 0 21 1.5t18 6.5q14 7 32 20t36.5 28.5t34.5 31.5t26 29q8 13 11 35l94 493q4 17 5.5 41t1.5 46q0 26 -1 53h111q1 0 2 -13t1 -31.5 t-0.5 -38t-2.5 -32.5l-103 -530q-6 -31 -18.5 -58.5t-32.5 -50.5q-8 -9 -21.5 -22.5t-29 -27.5t-32 -27.5t-28.5 -20.5q-27 -19 -64 -29t-71 -10h-205q-34 0 -65.5 10t-52.5 29q-9 7 -20 20.5t-21.5 27.5t-19.5 27.5t-13 22.5q-11 23 -11.5 50.5z" />
<glyph unicode="&#x3c6;" horiz-adv-x="1327" d="M112 177.5q-1 27.5 5 58.5l80 409q6 31 17.5 58.5t31.5 50.5q7 8 21 21.5t29.5 28t31.5 27.5t28 21q29 19 65 29t71 10h69l-20 -107h-62q-22 0 -39 -8q-14 -7 -31 -19t-34 -26.5t-32 -30t-24 -28.5q-5 -6 -8 -15t-6 -20l-80 -414q-3 -21 0 -35q4 -11 11.5 -23.5t16 -24 t18 -21t18.5 -15.5q13 -8 37 -8h227l106 549q7 31 18.5 58.5t31.5 50.5q7 8 20.5 21.5t29.5 28t32 27.5t28 21q29 19 65 29t70 10h103q34 0 66.5 -10t52.5 -29q9 -8 20 -21t21 -27.5t18.5 -28t13.5 -21.5q22 -45 8 -109l-79 -409q-7 -31 -20 -61t-32 -50q-8 -9 -21.5 -22 t-29 -27t-31.5 -27t-28 -20q-28 -19 -63.5 -29t-69.5 -10h-240l-63 -334h-111l63 334h-215q-34 0 -66.5 10t-53.5 29q-9 7 -20 20.5t-21.5 27.5t-18.5 27.5t-12 22.5q-12 23 -13 50.5zM664 96h227q11 0 20 1.5t17 6.5q14 7 32 19.5t36 27.5t34 31t25 29q9 12 12 33l78 407 q2 10 3 19t-1 18q-2 12 -10 25.5t-18 25.5t-20.5 22t-19.5 15q-7 5 -24 8h-113q-23 0 -39 -8q-14 -7 -31 -19t-34 -26.5t-32 -30t-24 -28.5q-5 -6 -8 -15t-6 -20z" />
<glyph unicode="&#x3c7;" horiz-adv-x="905" d="M-82 -344l465 631l-207 594h115l170 -488l358 488h129l-446 -609l217 -616h-117l-178 510l-373 -510h-133z" />
<glyph unicode="&#x3c8;" horiz-adv-x="1212" d="M113.5 179.5q-0.5 27.5 5.5 58.5l125 643h110l-127 -648q-2 -9 -3.5 -18.5t1.5 -15.5q8 -26 29 -52.5t43 -40.5q13 -8 35 -8h180l154 783h110q-33 -171 -56.5 -289t-38.5 -196t-24 -122t-14 -67.5t-7 -32t-3.5 -15.5t-3.5 -19t-8 -42h157q11 0 21 1.5t18 6.5 q14 7 32.5 20t37.5 28.5t35 32t24 30.5q5 8 6.5 17t3.5 18l123 629h111l-125 -643q-12 -63 -51 -109q-8 -9 -21.5 -22.5t-29.5 -27.5t-32 -27.5t-28 -20.5q-28 -19 -64.5 -29t-70.5 -10h-168l-65 -336h-109l66 336h-175q-34 0 -65.5 10t-52.5 29q-9 7 -20 20.5t-21.5 27.5 t-19.5 27.5t-13 22.5q-11 23 -11.5 50.5z" />
<glyph unicode="&#x3c9;" horiz-adv-x="1327" d="M112 177.5q-1 27.5 5 58.5l80 409q6 31 17.5 58.5t31.5 50.5q7 8 21 21.5t29.5 28t31.5 27.5t28 21q29 19 65 29t71 10h69l-20 -107h-62q-22 0 -39 -8q-14 -7 -31 -19t-34 -26.5t-32 -30t-24 -28.5q-5 -6 -8 -15t-6 -20l-80 -414q-3 -21 0 -35q4 -11 11.5 -23.5t16 -24 t18 -21t18.5 -15.5q13 -8 37 -8h90q22 0 37 8q13 7 31.5 19.5t36.5 27.5t34 31t25 29q9 12 12 33l74 391h114l-80 -412q-3 -21 0 -35q4 -11 11.5 -23.5t16 -24t18 -21t18.5 -15.5q13 -8 37 -8h90q11 0 20 1.5t17 6.5q14 7 32 19.5t36 27.5t34 31t25 29q9 12 12 33l78 407 q2 10 3 19t-1 18q-2 12 -10 25.5t-18 25.5t-20.5 22t-19.5 15q-11 8 -35 8h-77l20 107h70q34 0 66.5 -10t52.5 -29q9 -8 20 -21t21 -27.5t18.5 -28t13.5 -21.5q22 -45 8 -109l-79 -409q-7 -31 -20 -61t-32 -50q-8 -9 -21.5 -22t-29 -27t-31.5 -27t-28 -20q-28 -19 -63.5 -29 t-69.5 -10h-90q-34 0 -67 10t-54 29q-13 9 -27 27.5t-27 35.5q-18 -17 -40 -35.5t-37 -27.5q-28 -19 -63.5 -29t-69.5 -10h-91q-34 0 -66.5 10t-53.5 29q-9 7 -20 20.5t-21.5 27.5t-18.5 27.5t-12 22.5q-12 23 -13 50.5z" />
<glyph unicode="&#x3ca;" horiz-adv-x="440" d="M112 0zM112 44.5q0 18.5 0.5 38t2.5 32.5l147 766h111l-142 -742q-4 -17 -5.5 -40.5t-1.5 -45.5q0 -26 1 -53h-110q-1 0 -2 13t-1 31.5zM121 1081l30 158h156l-31 -158h-155zM420 1081l30 158h156l-31 -158h-155z" />
<glyph unicode="&#x3cb;" horiz-adv-x="967" d="M113 0zM113.5 177.5q-0.5 27.5 5.5 58.5l125 645h110l-127 -652q-2 -11 -2.5 -19.5t2.5 -14.5q8 -26 28 -51.5t42 -39.5q13 -8 35 -8h200q11 0 21 1.5t18 6.5q14 7 32 20t36.5 28.5t34.5 31.5t26 29q8 13 11 35l94 493q4 17 5.5 41t1.5 46q0 26 -1 53h111q1 0 2 -13 t1 -31.5t-0.5 -38t-2.5 -32.5l-103 -530q-6 -31 -18.5 -58.5t-32.5 -50.5q-8 -9 -21.5 -22.5t-29 -27.5t-32 -27.5t-28.5 -20.5q-27 -19 -64 -29t-71 -10h-205q-34 0 -65.5 10t-52.5 29q-9 7 -20 20.5t-21.5 27.5t-19.5 27.5t-13 22.5q-11 23 -11.5 50.5zM402 1081l30 158 h156l-31 -158h-155zM701 1081l30 158h156l-31 -158h-155z" />
<glyph unicode="&#x3cc;" horiz-adv-x="967" d="M111 0zM112 177.5q-1 27.5 5 58.5l80 409q6 31 17.5 58.5t31.5 50.5q7 8 21 21.5t29.5 28t31.5 27.5t28 21q29 19 65 29t71 10h204q34 0 66.5 -10t52.5 -29q9 -8 20 -21t21.5 -27.5t19 -28t13.5 -21.5q20 -45 8 -109l-80 -409q-6 -31 -19 -61t-32 -50q-9 -9 -22.5 -22 t-29 -27t-31.5 -27t-28 -20q-28 -19 -63.5 -29t-69.5 -10h-205q-34 0 -66.5 10t-53.5 29q-9 7 -20 20.5t-21.5 27.5t-18.5 27.5t-12 22.5q-12 23 -13 50.5zM225 188q4 -11 11.5 -23.5t16 -24t18 -21t18.5 -15.5q13 -8 37 -8h204q24 0 37 8q14 7 32 19.5t36 27.5t34 31t25 29 q5 6 8 14t5 19l77 407q2 10 3 19t-1 18q-2 12 -10 25.5t-17.5 25.5t-20.5 22t-19 15q-6 5 -15 6.5t-20 1.5h-205q-22 0 -39 -8q-14 -7 -31 -19t-34 -26.5t-32 -30t-24 -28.5q-5 -6 -8 -15t-6 -20l-80 -414q-3 -21 0 -35zM521 1065l137 276l102 -22l-125 -254h-114z" />
<glyph unicode="&#x3cd;" horiz-adv-x="967" d="M113 0zM113.5 177.5q-0.5 27.5 5.5 58.5l125 645h110l-127 -652q-2 -11 -2.5 -19.5t2.5 -14.5q8 -26 28 -51.5t42 -39.5q13 -8 35 -8h200q11 0 21 1.5t18 6.5q14 7 32 20t36.5 28.5t34.5 31.5t26 29q8 13 11 35l94 493q4 17 5.5 41t1.5 46q0 26 -1 53h111q1 0 2 -13 t1 -31.5t-0.5 -38t-2.5 -32.5l-103 -530q-6 -31 -18.5 -58.5t-32.5 -50.5q-8 -9 -21.5 -22.5t-29 -27.5t-32 -27.5t-28.5 -20.5q-27 -19 -64 -29t-71 -10h-205q-34 0 -65.5 10t-52.5 29q-9 7 -20 20.5t-21.5 27.5t-19.5 27.5t-13 22.5q-11 23 -11.5 50.5zM521 1065l137 276 l102 -22l-125 -254h-114z" />
<glyph unicode="&#x3ce;" horiz-adv-x="1327" d="M111 0zM112 177.5q-1 27.5 5 58.5l80 409q6 31 17.5 58.5t31.5 50.5q7 8 21 21.5t29.5 28t31.5 27.5t28 21q29 19 65 29t71 10h69l-20 -107h-62q-22 0 -39 -8q-14 -7 -31 -19t-34 -26.5t-32 -30t-24 -28.5q-5 -6 -8 -15t-6 -20l-80 -414q-3 -21 0 -35q4 -11 11.5 -23.5 t16 -24t18 -21t18.5 -15.5q13 -8 37 -8h90q22 0 37 8q13 7 31.5 19.5t36.5 27.5t34 31t25 29q9 12 12 33l74 391h114l-80 -412q-3 -21 0 -35q4 -11 11.5 -23.5t16 -24t18 -21t18.5 -15.5q13 -8 37 -8h90q11 0 20 1.5t17 6.5q14 7 32 19.5t36 27.5t34 31t25 29q9 12 12 33 l78 407q2 10 3 19t-1 18q-2 12 -10 25.5t-18 25.5t-20.5 22t-19.5 15q-11 8 -35 8h-77l20 107h70q34 0 66.5 -10t52.5 -29q9 -8 20 -21t21 -27.5t18.5 -28t13.5 -21.5q22 -45 8 -109l-79 -409q-7 -31 -20 -61t-32 -50q-8 -9 -21.5 -22t-29 -27t-31.5 -27t-28 -20 q-28 -19 -63.5 -29t-69.5 -10h-90q-34 0 -67 10t-54 29q-13 9 -27 27.5t-27 35.5q-18 -17 -40 -35.5t-37 -27.5q-28 -19 -63.5 -29t-69.5 -10h-91q-34 0 -66.5 10t-53.5 29q-9 7 -20 20.5t-21.5 27.5t-18.5 27.5t-12 22.5q-12 23 -13 50.5zM705 1065l137 276l102 -22 l-125 -254h-114z" />
<glyph unicode="&#x401;" horiz-adv-x="1020" d="M100 0l238 1229h704l-22 -115h-582l-86 -442h551l-22 -115h-551l-86 -442h581l-20 -115h-705zM524 1430l31 157h156l-31 -157h-156zM823 1430l31 157h156l-31 -157h-156z" />
<glyph unicode="&#x402;" horiz-adv-x="1270" d="M236 1114l22 115h819l-22 -115h-348l-64 -326q20 18 44 36.5t50.5 33t54 24t54.5 9.5h147q32 0 64.5 -10t52.5 -29q9 -8 20 -21t21.5 -27.5t19 -28t13.5 -21.5q22 -48 10 -109l-76 -383q-5 -26 -17.5 -51t-31.5 -47q-11 -13 -33 -34t-47 -42.5t-50 -40t-42 -27.5 q-23 -12 -55 -20t-58 -8h-92l23 114h80q14 0 28 7q15 7 38 23.5t46.5 36t45 40t34.5 37.5q5 5 8.5 11.5t3.5 12.5l74 381q6 21 2 35q-8 23 -25 46t-34 34q-8 5 -17 6.5t-20 1.5h-139q-19 0 -31 -6q-15 -7 -41 -22t-55 -34.5t-56.5 -42t-44.5 -44.5l-120 -629h-123l215 1114 h-348z" />
<glyph unicode="&#x403;" d="M100 0l238 1229h711l-23 -115h-590l-215 -1114h-121zM100 0zM604 1368l220 228h149l-262 -265z" />
<glyph unicode="&#x404;" horiz-adv-x="1090" d="M130 211q-2 25 3 51l137 701q5 26 16 51t29 47q11 13 33 34t46.5 42.5t49 40t39.5 26.5q25 14 55.5 23.5t55.5 9.5h272q25 0 52.5 -9.5t46.5 -23.5q13 -10 27.5 -26t28 -34t25.5 -36t21 -33q8 -15 17 -36.5t14 -43.5l-119 -32q-5 21 -17.5 44.5t-28.5 45t-33 38.5t-32 25 q-3 3 -10.5 4.5t-15.5 1.5h-250q-17 0 -29 -6q-13 -6 -34.5 -20.5t-45 -33.5t-45 -39t-35.5 -38q-9 -12 -12 -29l-53 -274h532l-22 -115h-533l-59 -315q-3 -15 0 -27q6 -16 18 -34t25.5 -34.5t27 -29t21.5 -16.5q8 -7 25 -7h260q8 0 17 1.5t14 5.5q18 8 41 25.5t46.5 39 t45.5 44.5t37 44l114 -33q-12 -21 -29.5 -42.5t-31.5 -36.5t-33 -33t-39.5 -36t-41 -34t-38.5 -26q-25 -14 -55.5 -23.5t-54.5 -9.5h-271q-24 0 -52.5 9.5t-47.5 23.5q-12 8 -29 26.5t-33.5 39.5t-30.5 41.5t-20 33.5q-9 22 -11 47z" />
<glyph unicode="&#x405;" horiz-adv-x="1122" d="M102 0zM102 231l113 29q2 -6 3.5 -10t2.5 -6q1 -3 2 -4q8 -19 20.5 -39t26.5 -37.5t28 -31.5t26 -21q5 -4 11.5 -5.5t14.5 -1.5h328q17 0 27 7q13 6 35 21t45.5 34t45.5 39.5t35 38.5q5 6 8 12t5 14l24 121q3 15 2 31.5t-6 30.5t-14 24.5t-23 14.5l-528 151 q-29 9 -50.5 27.5t-35 44t-18 56.5t2.5 63l25 127q5 26 14.5 52t28.5 48q11 13 33 34t47.5 42.5t50 40t39.5 26.5q25 14 55.5 23.5t55.5 9.5h309q25 0 52.5 -9.5t45.5 -23.5q14 -10 28.5 -26t28 -34t25.5 -36t21 -33q8 -15 16.5 -36.5t13.5 -43.5l-114 -30q-3 9 -6 15 q-2 4 -3 7q-6 18 -17.5 38t-26 38t-29.5 32t-27 21q-6 6 -25 6h-296q-17 0 -29 -6q-13 -6 -34.5 -21t-45 -34t-45 -39.5t-35.5 -38.5q-9 -12 -12 -27l-25 -125q-5 -30 8 -55t39 -33l525 -153q28 -9 50 -27t35.5 -43t18 -55t-1.5 -62l-27 -139q-6 -26 -16 -52t-29 -48 q-11 -13 -32.5 -33.5t-46.5 -41.5t-49.5 -39.5t-39.5 -26.5q-24 -14 -54.5 -23.5t-55.5 -9.5h-340q-25 0 -53.5 9.5t-46.5 23.5q-15 10 -30 26t-28.5 34t-25 36t-19.5 33t-16 36.5t-15 42.5z" />
<glyph unicode="&#x406;" horiz-adv-x="442" d="M98 0l238 1229h121l-238 -1229h-121zM98 0z" />
<glyph unicode="&#x407;" horiz-adv-x="471" d="M98 0l238 1229h121l-238 -1229h-121zM197 1364l30 158h156l-31 -158h-155zM496 1364l30 158h156l-31 -158h-155z" />
<glyph unicode="&#x408;" horiz-adv-x="932" d="M66 0zM66 233l114 31q7 -21 19 -44t27 -44t30.5 -38t30.5 -25q5 -3 13.5 -5t16.5 -2h140q13 0 24 7q14 6 35.5 20.5t45 33.5t45 39t34.5 38q5 6 9.5 13.5t6.5 16.5l187 955h121l-187 -963q-6 -26 -17 -52t-30 -48q-11 -13 -32 -33.5t-45.5 -41.5t-48 -39.5t-38.5 -26.5 q-24 -14 -56 -23.5t-56 -9.5h-160q-25 0 -53.5 9.5t-46.5 23.5q-15 10 -29.5 26t-28 34t-24.5 36t-19 33t-15.5 36.5t-12.5 42.5z" />
<glyph unicode="&#x409;" horiz-adv-x="1774" d="M-61 -8l22 114h80q13 0 29 7q15 7 37.5 23t45.5 35t44 39.5t34 37.5q7 6 10 15t5 16l182 950h717l-109 -559h410q32 0 63.5 -10.5t51.5 -28.5q8 -8 20.5 -22.5t25 -30.5t23 -30.5t15.5 -23.5q20 -46 8 -108l-33 -164q-9 -59 -49 -107q-8 -9 -24 -24t-34.5 -30.5 t-36.5 -30t-30 -21.5q-28 -19 -62.5 -29t-66.5 -10h-531l213 1114h-475l-166 -852q-9 -54 -47 -98q-11 -13 -32.5 -34t-47 -42.5t-50.5 -40t-42 -27.5q-23 -12 -53.5 -20t-56.5 -8h-90zM928 115h399q9 0 20 2.5t17 5.5q14 7 32 19.5t36 27.5t34 30t25 27q5 7 8 15.5t6 19.5 l31 164q3 20 0 33q-3 11 -11 25t-18.5 27t-21 24t-19.5 16q-6 3 -15.5 4.5t-18.5 1.5h-418z" />
<glyph unicode="&#x40a;" horiz-adv-x="1765" d="M100 0l238 1229h121l-109 -557h551l107 557h122l-108 -559h410q32 0 63 -10.5t51 -28.5q9 -8 21.5 -22.5t25 -30.5t22.5 -30.5t15 -23.5q22 -46 8 -108l-32 -164q-5 -29 -17.5 -56.5t-32.5 -50.5q-8 -9 -24 -24t-34.5 -30.5t-36.5 -30t-29 -21.5q-28 -19 -62.5 -29 t-66.5 -10h-531l107 557h-551l-107 -557h-121zM913 115h400q9 0 19.5 2.5t17.5 5.5q13 7 31.5 19.5t36.5 27.5t34 30t25 27q5 7 8 15.5t6 19.5l31 164q3 20 0 33q-3 11 -11.5 25t-18.5 27t-20.5 24t-19.5 16q-6 3 -15.5 4.5t-19.5 1.5h-418z" />
<glyph unicode="&#x40b;" horiz-adv-x="1270" d="M236 1114l22 115h819l-22 -115h-348l-64 -326q20 18 44 36.5t50.5 33t54 24t54.5 9.5h147q32 0 64.5 -10t52.5 -29q9 -8 20 -21t21.5 -27.5t19 -28t13.5 -21.5q22 -48 10 -109l-125 -645h-121l123 651q6 21 2 35q-8 23 -24 48t-33 36q-8 5 -17 6.5t-20 1.5h-141 q-19 0 -31 -6q-15 -7 -40.5 -21.5t-54 -33t-54 -39t-40.5 -39.5l-6 -8l-120 -631h-123l215 1114h-348z" />
<glyph unicode="&#x40c;" horiz-adv-x="1038" d="M100 0l238 1229h121l-109 -559h62l546 559h148l-606 -617l430 -612h-146l-385 557h-71l-107 -557h-121zM100 0zM604 1368l220 228h149l-262 -265z" />
<glyph unicode="&#x40e;" horiz-adv-x="915" d="M233 0zM233 1229h117l133 -750h45l430 750h127l-704 -1229h-127l205 352h-72zM522 1525q-8 35 0 76h72q-5 -24 0 -45t17.5 -36.5t31.5 -25t43 -9.5t47 9.5t42.5 25t33 36.5t18.5 45h84q-8 -41 -30 -76t-53.5 -61.5t-70.5 -41.5t-79 -15q-41 0 -73.5 15t-53.5 41.5 t-29 61.5z" />
<glyph unicode="&#x40f;" horiz-adv-x="1128" d="M100 0l238 1229h121l-215 -1112h569l215 1112h121l-238 -1229h-344l-43 -217h-118l43 217h-349z" />
<glyph unicode="&#x410;" horiz-adv-x="1100" d="M-6 0l649 1229h184l174 -1229h-118l-37 285h-572l-149 -285h-131zM0 0zM332 399h497l-96 713h-28z" />
<glyph unicode="&#x411;" horiz-adv-x="1069" d="M100 0l238 1225v4h731l-22 -115h-611l-86 -444h432q32 0 63.5 -11t51.5 -28q9 -8 21.5 -22.5t24.5 -31t22 -31.5t14 -24q20 -43 8 -106l-33 -166q-5 -29 -17 -56.5t-32 -50.5q-7 -8 -22.5 -23t-34 -30.5t-36.5 -29.5t-30 -21q-28 -19 -62.5 -29t-66.5 -10h-549h-4z M242 113v2h424q9 0 19.5 1.5t16.5 4.5q14 7 32 19.5t35.5 27.5t33 30t24.5 27q5 6 7 15l4 18l32 170q2 9 3 18t-1 15q-3 12 -11 25.5t-18 26t-21 22t-19 14.5q-6 5 -16 6.5t-19 1.5h-440z" />
<glyph unicode="&#x412;" horiz-adv-x="1108" d="M100 0l238 1229h553q32 0 63.5 -11.5t51.5 -29.5q8 -8 20.5 -22.5t24.5 -30.5t22 -30.5t14 -23.5q11 -23 13 -51t-4 -57l-31 -158q-6 -29 -18.5 -57t-30.5 -51q-6 -7 -17.5 -17.5t-25 -22.5t-28 -24t-27.5 -22q9 -10 19 -22t18.5 -24t15.5 -22.5t10 -17.5 q11 -23 12.5 -51.5t-4.5 -57.5l-35 -174q-9 -59 -49 -105q-7 -8 -22.5 -23t-34 -31.5t-36.5 -31.5t-30 -22q-28 -19 -62.5 -29t-66.5 -10h-553zM100 0zM244 115h415q10 0 19.5 1.5t17.5 6.5q14 7 31.5 19t35 27t33 30t25.5 28q5 7 8 15.5t5 17.5l34 176q3 20 0 33 q-4 12 -12 25t-17.5 25.5t-20 22.5t-19.5 15q-5 3 -13.5 4.5t-17.5 1.5h-436zM352 676h422q9 0 18 2.5t15 5.5q14 7 31.5 19t34.5 27t32.5 30t24.5 28q5 7 8.5 16.5t5.5 18.5l33 160q3 20 0 33q-4 12 -12 25.5t-18.5 26t-21.5 23t-20 15.5q-11 8 -33 8h-434z" />
<glyph unicode="&#x413;" d="M100 0l238 1229h711l-23 -115h-590l-215 -1114h-121z" />
<glyph unicode="&#x414;" horiz-adv-x="1196" d="M-74 -197l60 312h18t29 0.5t28.5 1t18.5 2.5q15 7 31.5 17.5t33 22.5t31 24.5t25.5 23.5q6 6 12.5 15.5t11.5 25.5l303 981h619l-217 -1114h102l-98 -312h-119l64 197h-799l-39 -197h-115zM248 115h565l195 999h-392l-276 -876q-12 -36 -30.5 -61t-41.5 -48q-6 -5 -9 -7 t-11 -7z" />
<glyph unicode="&#x415;" horiz-adv-x="1020" d="M100 0l238 1229h704l-22 -115h-582l-86 -442h551l-22 -115h-551l-86 -442h581l-20 -115h-705zM100 0z" />
<glyph unicode="&#x416;" horiz-adv-x="1622" d="M49 0l606 616l-430 613h146l385 -557h71l109 557h119l-109 -559h62l546 559h148l-606 -617l430 -612h-146l-385 557h-71l-107 -557h-119l109 559h-64l-546 -559h-148z" />
<glyph unicode="&#x417;" horiz-adv-x="1075" d="M102 231l119 33q6 -21 18 -44t27 -44.5t31 -39t31 -25.5q5 -4 11.5 -5.5t14.5 -1.5h269q9 0 18.5 2t17.5 7q14 7 32 20t36.5 28.5t34.5 32t26 29.5q7 8 10 17t5 18l35 182q3 20 0 33q-3 12 -10.5 24.5t-17 24.5t-19.5 22t-19 15q-6 3 -14.5 5.5t-18.5 2.5h-258l23 115 h233q22 0 37 6q14 7 32 19.5t36 27.5t34 31t25 29q5 6 7.5 15.5t4.5 18.5l31 162q3 10 3.5 19.5t-1.5 15.5q-4 12 -11.5 25.5t-17 26t-19.5 23t-19 15.5q-7 5 -15.5 5.5t-17.5 0.5h-279q-8 0 -16 -1.5t-14 -4.5q-18 -8 -41.5 -25t-46.5 -38.5t-44 -45t-34 -44.5l-117 32 q14 22 30.5 43.5t30.5 36.5q13 15 31.5 33.5t39 37t42 34.5t39.5 26q25 14 55.5 22.5t55.5 8.5h280q32 0 62.5 -10t50.5 -29q8 -8 20.5 -22.5t24.5 -31t22.5 -31.5t14.5 -23q11 -23 13 -50.5t-3 -56.5l-33 -166q-6 -29 -18.5 -56t-32.5 -50q-6 -7 -17.5 -17.5t-25 -22.5 t-29 -24t-28.5 -22q8 -10 18 -22l20 -24t17.5 -22.5t11.5 -17.5q11 -23 13 -50.5t-3 -56.5l-36 -188q-14 -60 -52 -107q-8 -8 -24 -23t-34.5 -31.5t-36.5 -31.5t-30 -22q-27 -19 -61 -29t-66 -10h-280q-25 0 -52.5 9.5t-45.5 23.5q-15 10 -30 25.5t-28.5 33t-25 35.5 t-19.5 33t-17 37.5t-16 43.5z" />
<glyph unicode="&#x418;" horiz-adv-x="1157" d="M104 0l238 1229h119l-203 -1049l752 1049h164l-238 -1229h-119l205 1063l-754 -1063h-164z" />
</font>
</defs>
</svg>
