<svg version="1.1" id="Layer_1" xmlns="http://www.w3.org/2000/svg" xmlns:xlink="http://www.w3.org/1999/xlink" x="0px" y="0px"
	 viewBox="0 0 64 64" enable-background="new 0 0 64 64" xml:space="preserve">
<g>
	<polygon fill="#646464" points="28.7,41.4 25.9,38.6 32.5,32 25.9,25.4 28.7,22.6 38.1,32 38.1,32 38.1,32 	"/>
	<path fill="#646464" d="M32,0.5c17.4,0,31.5,14.1,31.5,31.5S49.4,63.5,32,63.5S0.5,49.4,0.5,32S14.6,0.5,32,0.5 M32,0
		C14.3,0,0,14.3,0,32s14.3,32,32,32s32-14.3,32-32S49.7,0,32,0L32,0z"/>
</g>
</svg>
